<svg width="253" height="245" viewBox="0 0 253 245" fill="none" xmlns="http://www.w3.org/2000/svg">
<path d="M215.659 122.327C265.221 150.368 265.479 195.802 216.233 223.867C166.987 251.931 86.9045 251.902 37.3427 223.867C-12.219 195.831 -12.4831 150.391 36.7687 122.327C86.0205 94.2624 166.109 94.2853 215.659 122.327Z" fill="#F0F0F0"/>
<path d="M44.5687 186.871L52.5305 191.635C53.1371 192 53.8317 192.193 54.5396 192.193C55.2475 192.193 55.9421 192 56.5487 191.635L121.282 152.871C121.484 152.747 121.651 152.574 121.766 152.367C121.882 152.161 121.943 151.928 121.943 151.691C121.943 151.455 121.882 151.222 121.766 151.015C121.651 150.809 121.484 150.635 121.282 150.512L113.297 145.747C112.691 145.382 111.996 145.19 111.288 145.19C110.58 145.19 109.886 145.382 109.279 145.747L44.5687 184.529C44.3707 184.653 44.2075 184.826 44.0943 185.031C43.9812 185.236 43.9219 185.466 43.9219 185.7C43.9219 185.934 43.9812 186.164 44.0943 186.369C44.2075 186.573 44.3707 186.746 44.5687 186.871Z" fill="#E0E0E0"/>
<path d="M195.247 175.206C208.622 182.933 208.697 195.452 195.408 203.173C182.119 210.894 160.501 210.9 147.126 203.173C133.751 195.447 133.677 182.933 146.966 175.206C160.254 167.48 181.872 167.486 195.247 175.206Z" fill="#E0E0E0"/>
<path d="M144.297 33.0765C144.561 32.9215 144.773 33.0765 144.773 33.3521V36.5724C144.764 36.7371 144.716 36.8973 144.634 37.04C144.551 37.1827 144.435 37.3037 144.297 37.3932C144.033 37.5482 143.82 37.3932 143.82 37.1234V33.9031C143.829 33.7376 143.877 33.5766 143.96 33.433C144.043 33.2894 144.158 33.1673 144.297 33.0765Z" fill="#6B006D"/>
<path d="M138.168 39.1961C138.222 39.1593 138.286 39.1397 138.352 39.1397C138.417 39.1397 138.481 39.1593 138.535 39.1961L140.344 40.6197C140.516 40.7575 140.487 41.1191 140.286 41.4291C140.211 41.5536 140.106 41.658 139.982 41.7333C139.928 41.7708 139.864 41.791 139.798 41.791C139.733 41.791 139.668 41.7708 139.615 41.7333L137.806 40.3097C137.634 40.172 137.657 39.8103 137.864 39.5003C137.94 39.3764 138.044 39.2722 138.168 39.1961Z" fill="#6B006D"/>
<path d="M136.051 43.3518C136.117 43.322 136.191 43.3102 136.263 43.3174L138.697 43.5297C138.927 43.5297 139.007 43.8397 138.875 44.1784C138.794 44.3877 138.65 44.5664 138.462 44.6893C138.39 44.7354 138.306 44.7575 138.221 44.7524L135.787 44.5458C135.563 44.5458 135.483 44.2358 135.615 43.8971C135.692 43.67 135.846 43.4771 136.051 43.3518Z" fill="#6B006D"/>
<path d="M138.498 51.3537C138.665 51.2561 138.826 51.2619 138.912 51.3882C138.968 51.5313 138.982 51.6877 138.951 51.8384C138.921 51.9891 138.847 52.1278 138.74 52.2377L136.317 55.2514C136.252 55.3342 136.172 55.4042 136.082 55.458C135.915 55.5556 135.755 55.5499 135.663 55.4236C135.608 55.2802 135.595 55.1242 135.626 54.9738C135.656 54.8234 135.729 54.6847 135.835 54.574L138.257 51.5604C138.324 51.4773 138.406 51.4073 138.498 51.3537Z" fill="#6B006D"/>
<path d="M137.69 49.2586C137.919 49.1323 138.12 49.2012 138.16 49.4423C138.171 49.6062 138.141 49.7702 138.074 49.9202C138.007 50.0701 137.905 50.2016 137.776 50.3034L135.015 52.456L134.934 52.5134C134.705 52.6454 134.504 52.5765 134.463 52.3297C134.452 52.1656 134.481 52.0011 134.548 51.8509C134.615 51.7007 134.718 51.5694 134.848 51.4686L137.603 49.316L137.69 49.2586Z" fill="#6B006D"/>
<path d="M150.467 32.1004C150.511 32.0694 150.562 32.0487 150.616 32.0398C150.67 32.0308 150.724 32.0339 150.777 32.0487C150.978 32.1291 151.006 32.4563 150.84 32.7892L149.043 36.2966C148.962 36.4644 148.834 36.6057 148.676 36.7041C148.631 36.7337 148.58 36.7536 148.526 36.7625C148.473 36.7714 148.418 36.7691 148.366 36.7558C148.165 36.6754 148.136 36.3425 148.308 36.0095L150.099 32.508C150.179 32.339 150.307 32.1973 150.467 32.1004Z" fill="#6B006D"/>
<path d="M147.584 31.8367C147.636 31.8075 147.692 31.7881 147.751 31.7793C147.998 31.7391 148.124 31.9802 148.038 32.3189L147.085 35.8951C147.019 36.1509 146.859 36.3724 146.637 36.5151C146.588 36.5458 146.533 36.5672 146.476 36.5782C146.23 36.6184 146.098 36.3773 146.189 36.0386L147.137 32.4624C147.203 32.2057 147.363 31.9828 147.584 31.8367Z" fill="#6B006D"/>
<g opacity="0.2">
<path opacity="0.2" d="M144.297 33.0763C144.561 32.9213 144.773 33.0763 144.773 33.3518V36.5722C144.764 36.7369 144.716 36.8971 144.634 37.0398C144.551 37.1825 144.435 37.3035 144.297 37.393C144.033 37.548 143.82 37.393 143.82 37.1232V33.9029C143.829 33.7374 143.877 33.5764 143.96 33.4328C144.043 33.2892 144.158 33.1671 144.297 33.0763Z" fill="#0B0B0B"/>
<path opacity="0.2" d="M138.168 39.1959C138.222 39.1591 138.286 39.1394 138.352 39.1394C138.417 39.1394 138.481 39.1591 138.535 39.1959L140.344 40.6195C140.516 40.7572 140.487 41.1189 140.286 41.4288C140.211 41.5533 140.106 41.6577 139.982 41.7331C139.928 41.7706 139.864 41.7907 139.798 41.7907C139.733 41.7907 139.668 41.7706 139.615 41.7331L137.806 40.3095C137.634 40.1717 137.657 39.8101 137.864 39.5001C137.94 39.3762 138.044 39.2719 138.168 39.1959Z" fill="#0B0B0B"/>
<path opacity="0.2" d="M136.051 43.3516C136.117 43.3218 136.191 43.3099 136.263 43.3171L138.697 43.5295C138.927 43.5295 139.007 43.8395 138.875 44.1782C138.794 44.3875 138.65 44.5661 138.462 44.689C138.39 44.7351 138.306 44.7572 138.221 44.7522L135.787 44.5455C135.563 44.5455 135.483 44.2356 135.615 43.8969C135.692 43.6697 135.846 43.4768 136.051 43.3516Z" fill="#0B0B0B"/>
<path opacity="0.2" d="M138.498 51.3538C138.665 51.2562 138.826 51.2619 138.912 51.3882C138.968 51.5314 138.982 51.6877 138.951 51.8384C138.921 51.9892 138.847 52.1278 138.74 52.2378L136.317 55.2514C136.252 55.3342 136.172 55.4043 136.082 55.4581C135.915 55.5557 135.755 55.5499 135.663 55.4237C135.608 55.2803 135.595 55.1243 135.626 54.9739C135.656 54.8235 135.729 54.6848 135.835 54.5741L138.257 51.5604C138.324 51.4774 138.406 51.4073 138.498 51.3538Z" fill="#0B0B0B"/>
<path opacity="0.2" d="M137.69 49.2587C137.919 49.1324 138.12 49.2013 138.16 49.4424C138.171 49.6063 138.141 49.7703 138.074 49.9202C138.007 50.0702 137.905 50.2017 137.776 50.3034L135.015 52.456L134.934 52.5134C134.705 52.6455 134.504 52.5766 134.463 52.3297C134.452 52.1656 134.481 52.0012 134.548 51.851C134.615 51.7008 134.718 51.5694 134.848 51.4687L137.603 49.3161L137.69 49.2587Z" fill="#0B0B0B"/>
<path opacity="0.2" d="M150.467 32.1004C150.511 32.0694 150.562 32.0487 150.616 32.0398C150.67 32.0309 150.724 32.0339 150.777 32.0488C150.978 32.1291 151.006 32.4563 150.84 32.7893L149.043 36.2966C148.962 36.4644 148.834 36.6057 148.676 36.7042C148.631 36.7338 148.58 36.7537 148.526 36.7626C148.473 36.7715 148.418 36.7692 148.366 36.7558C148.165 36.6755 148.136 36.3425 148.308 36.0096L150.099 32.508C150.179 32.3391 150.307 32.1973 150.467 32.1004Z" fill="#0B0B0B"/>
<path opacity="0.2" d="M147.584 31.8368C147.636 31.8076 147.692 31.7881 147.751 31.7794C147.998 31.7392 148.124 31.9803 148.038 32.319L147.085 35.8952C147.019 36.151 146.859 36.3725 146.637 36.5151C146.588 36.5459 146.533 36.5673 146.476 36.5783C146.23 36.6184 146.098 36.3773 146.189 36.0387L147.137 32.4625C147.203 32.2057 147.363 31.9828 147.584 31.8368Z" fill="#0B0B0B"/>
</g>
<path d="M145.812 193.495C146.529 194.202 147.386 194.751 148.328 195.106C149.271 195.461 150.277 195.614 151.282 195.556C153.285 195.418 155.245 194.91 157.063 194.058C158.917 193.277 161.236 191.096 163.239 191.136C165.196 191.121 167.149 190.985 169.089 190.728C169.159 187.996 168.88 185.267 168.256 182.606L158.917 182.353C156.397 185.895 151.495 188.84 147.787 189.942C147.212 190.114 146.696 190.439 146.291 190.882C145.887 191.325 145.61 191.869 145.49 192.456C145.488 192.477 145.488 192.498 145.49 192.519C145.557 192.856 145.665 193.184 145.812 193.495Z" fill="#7B367C"/>
<path d="M163.238 191.136C161.234 191.096 158.915 193.277 157.061 194.058C155.243 194.91 153.283 195.418 151.281 195.556C150.275 195.614 149.269 195.461 148.326 195.106C147.384 194.751 146.527 194.202 145.81 193.495C145.663 193.184 145.555 192.856 145.489 192.519C145.486 192.498 145.486 192.477 145.489 192.456C145.4 192.876 145.4 193.31 145.489 193.73C145.555 194.068 145.663 194.395 145.81 194.706C146.526 195.415 147.383 195.964 148.326 196.319C149.268 196.674 150.275 196.827 151.281 196.767C153.283 196.631 155.243 196.125 157.061 195.274C158.915 194.494 161.234 192.312 163.238 192.353C165.157 192.367 167.074 192.252 168.978 192.008C169.024 191.583 169.053 191.153 169.07 190.728C167.136 190.984 165.188 191.12 163.238 191.136Z" fill="#37474F"/>
<path d="M187.778 194.086C187.785 195.062 187.691 196.035 187.497 196.991C187.202 198.678 186.276 200.191 184.908 201.222C183.662 201.962 182.242 202.358 180.792 202.37C179.525 202.505 178.243 202.368 177.032 201.968C176.107 201.626 175.328 200.975 174.828 200.125C174.828 200.125 174.828 200.16 174.828 200.177C175.003 200.798 175.325 201.368 175.766 201.839C176.208 202.309 176.756 202.667 177.365 202.88C178.577 203.282 179.862 203.417 181.131 203.277C182.576 203.276 183.995 202.89 185.241 202.157C186.613 201.127 187.539 199.612 187.83 197.921C188.024 196.967 188.118 195.995 188.111 195.022C188.114 194.359 188.251 193.703 188.512 193.094C188.773 192.485 189.154 191.934 189.632 191.475C189.866 191.254 190.086 191.02 190.292 190.774C190.441 190.6 190.554 190.399 190.624 190.181C190.694 189.963 190.72 189.734 190.7 189.506C190.7 189.328 190.666 189.15 190.643 188.977C190.304 189.391 189.495 190.367 189.288 190.562C188.815 191.02 188.439 191.568 188.18 192.173C187.92 192.778 187.784 193.428 187.778 194.086Z" fill="#37474F"/>
<path d="M180.638 183.955C180.941 185.955 180.68 188 179.886 189.861C179.102 191.694 178.081 193.415 176.85 194.982C176.245 195.723 175.711 196.518 175.254 197.358C174.812 198.2 174.654 199.163 174.806 200.102C175.307 200.952 176.085 201.603 177.011 201.945C178.221 202.345 179.503 202.482 180.771 202.347C182.22 202.335 183.64 201.939 184.886 201.199C186.254 200.168 187.18 198.655 187.475 196.968C187.669 196.012 187.764 195.039 187.756 194.063C187.76 193.401 187.896 192.746 188.156 192.137C188.416 191.527 188.796 190.976 189.272 190.516C189.479 190.321 190.288 189.368 190.627 188.932C190.443 187.484 189.968 186.088 189.232 184.827L180.638 183.955Z" fill="#7B367C"/>
<path d="M155.582 98.4243L156.288 147.825L158.584 182.405C164.325 186.136 168.515 183.088 168.515 183.088C170.702 166.705 170.995 156.631 169.806 149.794L170.897 123.136L174.146 150.833L179.657 184.764C185.564 188.691 189.737 184.764 189.737 184.764C189.737 172.204 190.827 158.164 187.441 149.105C189.823 121.121 185.851 98.9409 185.851 98.9409L155.582 98.4243Z" fill="#37474F"/>
<path d="M169.67 112.976L170.876 123.159L170.365 135.644L168.149 115.117C162.983 113.056 162.34 110.157 162.34 110.157C164.501 111.711 167.025 112.681 169.67 112.976Z" fill="#0A0A0B"/>
<path d="M159.953 41.3255L158.639 40.6366H158.61H158.558C158.45 40.587 158.331 40.5642 158.212 40.5702C158.094 40.5762 157.978 40.6108 157.875 40.6711L146.113 47.4618C145.883 47.595 145.691 47.7867 145.558 48.0174C145.425 48.2482 145.355 48.51 145.356 48.7764V54.4707C145.354 54.5897 145.382 54.7072 145.436 54.8132C145.49 54.9192 145.568 55.0105 145.666 55.0792C145.71 55.1097 145.758 55.1347 145.809 55.1538L147.083 55.8312L147.02 54.7922L158.231 48.3229C158.462 48.19 158.655 47.9985 158.789 47.7678C158.923 47.5371 158.994 47.2752 158.994 47.0083V42.0487L159.953 41.3255Z" fill="#7B367C"/>
<path d="M159.578 48.9946L147.816 55.7854C147.7 55.8529 147.569 55.8887 147.435 55.8894C147.301 55.89 147.17 55.8555 147.053 55.7892C146.937 55.7229 146.84 55.6272 146.773 55.5117C146.705 55.3962 146.669 55.2649 146.668 55.131V49.4309C146.669 49.1649 146.74 48.9038 146.873 48.6733C147.006 48.4428 147.196 48.2509 147.426 48.1164L159.222 41.3256C159.338 41.256 159.47 41.2186 159.605 41.2173C159.74 41.216 159.873 41.2508 159.99 41.3181C160.107 41.3855 160.204 41.4828 160.271 41.6002C160.338 41.7176 160.372 41.8507 160.37 41.9857V47.6801C160.368 47.95 160.293 48.2144 160.153 48.4456C160.014 48.6768 159.815 48.8664 159.578 48.9946Z" fill="#7B367C"/>
<path d="M147.43 49.4308C147.431 49.2982 147.466 49.1682 147.532 49.0534C147.599 48.9387 147.694 48.8432 147.809 48.7764L159.576 41.9857V47.68C159.576 47.8136 159.541 47.9448 159.475 48.0607C159.408 48.1765 159.313 48.2729 159.197 48.3402L147.435 55.1252L147.43 49.4308Z" fill="#6B006D"/>
<path d="M154.466 57.8516C154.624 57.4782 154.89 57.1604 155.23 56.9389C156.227 56.314 156.989 55.3749 157.394 54.2697C157.724 53.0894 157.905 51.8727 157.934 50.6476C157.966 49.4154 158.402 48.2279 159.173 47.2665C157.084 46.4227 156.234 48.3227 155.477 51.3651L148.479 55.3833L148.577 55.6129C148.678 55.8365 148.731 56.0792 148.731 56.3247C148.731 56.5702 148.678 56.8129 148.577 57.0365L146.539 61.1753C147.526 61.8808 148.677 62.3223 149.883 62.4579C151.088 62.5935 152.308 62.4188 153.427 61.9502C153.691 60.5644 154.038 59.1957 154.466 57.8516Z" fill="#FFA8A7"/>
<path d="M153.052 66.2327C153.419 64.746 153.861 62.7885 154.148 61.0664C152.854 61.5182 151.473 61.6693 150.112 61.5082C148.75 61.3471 147.443 60.878 146.29 60.1365C145.46 61.5405 144.716 62.9935 144.062 64.4877C145.321 65.4602 146.789 66.1246 148.35 66.4276C149.911 66.7306 151.521 66.6639 153.052 66.2327Z" fill="#E0E0E0"/>
<path d="M152.401 68.7124C152.401 68.7124 152.688 67.6906 153.05 66.2326C151.518 66.6614 149.907 66.7254 148.346 66.4193C146.785 66.1133 145.317 65.4458 144.061 64.4703C142.082 69.0555 140.859 73.9309 140.439 78.9072C140.25 80.3606 140.322 81.8359 140.651 83.2641C140.823 83.978 141.146 84.6467 141.599 85.2251C142.051 85.8034 142.623 86.2779 143.274 86.6164C145.128 87.466 147.35 86.7312 149.015 85.5774C152.177 83.4076 154.181 79.9462 156.046 76.6053L161.138 58.4258C158.124 58.7587 155.656 60.4521 152.401 68.7124Z" fill="#F0F0F0"/>
<path opacity="0.1" d="M152.403 68.7124C151.209 72.9373 149.344 79.6821 149.344 79.6821C153.592 75.3654 152.403 68.7124 152.403 68.7124Z" fill="#0B0B0B"/>
<path opacity="0.1" d="M160.406 61.112C158.855 62.1693 157.555 63.5548 156.6 65.1704C154.935 68.0405 154.447 71.3814 153.994 74.6534C153.672 76.9495 153.353 79.2456 153.035 81.5417C154.138 79.9571 155.15 78.3108 156.066 76.6108L160.406 61.112Z" fill="#0B0B0B"/>
<path d="M166.588 57.8691L161.158 58.4431C156.709 62.3637 154.413 70.5896 155.372 79.6822C155.935 85.9162 156.006 92.1849 155.584 98.43C167.639 107.236 183.958 100.841 185.87 98.9294L184.326 87.7646C184.23 86.5107 184.439 85.2523 184.934 84.0965C186.082 81.4502 188.103 76.2495 188.378 72.2198C188.55 68.6296 187.802 65.0549 186.203 61.8356L178.31 58.3914L166.588 57.8691Z" fill="#F0F0F0"/>
<path opacity="0.1" d="M184.933 84.0733C185.937 81.7427 187.631 77.4318 188.205 73.6833C187.085 74.3607 185.909 75.0266 185.438 76.1402C183.95 79.739 183.561 83.6977 184.319 87.5175C184.259 86.3376 184.469 85.1597 184.933 84.0733Z" fill="#0B0B0B"/>
<path d="M165.081 65.7849C160.535 76.2379 160.609 87.024 160.609 87.024L162.842 91.8286L166.35 87.2363C166.078 80.1947 166.218 73.1431 166.769 66.1178L165.081 65.7849Z" fill="#FF9900"/>
<path d="M164.89 61.8356C164.795 63.1551 164.86 64.4813 165.085 65.7849C165.608 66.0432 166.192 66.1506 166.773 66.0949C167.841 65.1497 168.755 64.0439 169.482 62.8172L166.773 61.8356H164.89Z" fill="#FF9900"/>
<path d="M166.77 61.8355C169.106 62.6965 171.184 66.8583 171.184 66.8583C177.326 61.6461 178.285 58.3913 178.285 58.3913C176.706 56.1469 174.984 55.7852 174.984 55.7852L166.77 61.8355Z" fill="#E0E0E0"/>
<path d="M166.771 61.8355C164.985 61.8871 163.407 64.3727 163.407 64.3727C163.12 60.0215 166.771 56.6692 166.771 56.6692V61.8355Z" fill="#E0E0E0"/>
<path d="M175.127 50.9118L166.77 53.8967V56.9908C168.65 56.7243 170.454 56.0695 172.068 55.0678C173.512 54.0513 174.586 52.5925 175.127 50.9118Z" fill="#F28F8F"/>
<path d="M175.127 50.9117C174.586 52.5924 173.512 54.0512 172.068 55.0677C170.454 56.0694 168.65 56.7243 166.77 56.9907V61.8355C166.77 61.8355 175.604 57.869 175.604 56.0034V50.7395L175.127 50.9117Z" fill="#FFA8A7"/>
<path d="M159.024 38.6561C158.095 38.6905 157.175 38.4674 156.364 38.0116C155.554 37.5558 154.885 36.8849 154.432 36.073C154.373 35.9569 154.347 35.8264 154.358 35.6964C154.369 35.5664 154.417 35.4422 154.495 35.3379C154.574 35.2337 154.68 35.1537 154.802 35.107C154.924 35.0604 155.056 35.049 155.184 35.0742C155.824 35.189 156.479 35.189 157.119 35.0742C156.382 34.1109 155.844 33.0114 155.534 31.8389C155.225 30.6665 155.151 29.4445 155.316 28.2432C155.337 28.1092 155.389 27.9819 155.467 27.8715C155.546 27.7611 155.65 27.6707 155.77 27.6076C155.89 27.5445 156.023 27.5105 156.158 27.5082C156.294 27.5059 156.428 27.5355 156.55 27.5946C159.211 28.909 162.17 29.5027 165.132 29.3167C166.711 29.2076 168.266 28.8689 169.845 28.7426C171.425 28.5518 173.026 28.7959 174.477 29.4487C175.195 29.7855 175.809 30.31 176.254 30.9667C176.698 31.6235 176.957 32.3881 177.003 33.1799C177.184 32.925 177.417 32.7121 177.688 32.5556C177.958 32.3991 178.259 32.3027 178.57 32.2729C178.895 32.2346 179.224 32.2627 179.538 32.3554C179.852 32.4482 180.144 32.6037 180.396 32.8125C179.483 33.3177 178.593 33.8228 177.68 34.3222C178.616 33.9893 179.793 34.7183 180.258 35.5966C180.652 36.5114 180.823 37.507 180.757 38.5011C180.813 39.8183 180.753 41.1379 180.579 42.4447C180.407 43.7601 179.892 45.0072 179.087 46.0611C178.379 46.9274 177.433 47.5678 176.366 47.9038C174.916 48.3041 173.378 48.2541 171.957 47.7603C170.538 47.2696 169.187 46.5982 167.939 45.7626C164.758 43.669 161.774 41.2903 159.024 38.6561Z" fill="#0A0A0B"/>
<path d="M158.825 36.0269C157.908 41.4882 158.503 47.0964 160.547 52.2433C161.018 53.4315 161.638 54.6599 162.746 55.2971C163.854 55.9343 165.352 55.8195 166.678 55.6186C168.828 55.3857 170.926 54.8041 172.889 53.8965C174.866 52.9652 176.407 51.3053 177.188 49.2641C177.892 49.4076 178.621 49.3447 179.289 49.0829C179.957 48.8212 180.536 48.3717 180.954 47.7888C181.78 46.5775 182.208 45.1388 182.177 43.673C182.177 42.7431 182.005 41.6467 181.167 41.2391C180.328 40.8316 179.444 41.285 178.784 41.8131C177.689 42.7181 176.89 43.9294 176.488 45.2918C175.874 43.0301 174.915 40.843 174.301 38.5756C174.06 37.6801 173.762 36.71 172.981 36.2106C172.034 35.6021 170.794 35.9523 169.697 36.2106C166.117 37.0747 162.375 37.0115 158.825 36.0269Z" fill="#FFA8A7"/>
<path d="M165.433 42.9042L162.781 47.3701L165.944 47.9614L165.433 42.9042Z" fill="#F28F8F"/>
<path d="M168.979 49.4997L166.574 50.6478C166.781 50.9211 167.07 51.1198 167.4 51.2141C167.729 51.3083 168.08 51.2929 168.4 51.1701C168.67 50.9971 168.874 50.7383 168.979 50.4353C169.084 50.1323 169.084 49.8028 168.979 49.4997Z" fill="#F28F8F"/>
<path opacity="0.3" d="M168.979 49.4997L166.574 50.6478C166.781 50.9211 167.07 51.1198 167.4 51.2141C167.729 51.3083 168.08 51.2929 168.4 51.1701C168.67 50.9971 168.874 50.7383 168.979 50.4353C169.084 50.1323 169.084 49.8028 168.979 49.4997Z" fill="#0B0B0B"/>
<path d="M167.574 51.262C167.855 51.3193 168.146 51.2934 168.412 51.1873C168.631 51.0618 168.809 50.8745 168.922 50.6489C169.035 50.4233 169.08 50.1694 169.049 49.9187C168.708 49.9185 168.376 50.0338 168.108 50.2459C167.805 50.5027 167.614 50.8669 167.574 51.262Z" fill="#F28F8F"/>
<path d="M170.016 43.0818C170.029 43.2006 170.017 43.3205 169.983 43.4348C169.948 43.5491 169.892 43.6555 169.817 43.748C169.741 43.8405 169.648 43.9172 169.543 43.9738C169.438 44.0304 169.323 44.0657 169.204 44.0778C169.085 44.0898 168.966 44.0784 168.851 44.0441C168.737 44.0098 168.63 43.9533 168.538 43.8779C168.446 43.8025 168.369 43.7096 168.312 43.6045C168.256 43.4994 168.22 43.3843 168.208 43.2655C168.196 43.1471 168.206 43.0273 168.24 42.913C168.274 42.7988 168.331 42.6925 168.406 42.6001C168.481 42.5078 168.574 42.4313 168.679 42.375C168.784 42.3188 168.899 42.2839 169.018 42.2724C169.257 42.2483 169.497 42.3198 169.684 42.4714C169.871 42.6231 169.99 42.8424 170.016 43.0818Z" fill="#0A0A0B"/>
<path d="M162.4 43.5584C162.417 43.7366 162.381 43.9158 162.296 44.0736C162.212 44.2313 162.082 44.3605 161.925 44.4449C161.767 44.5293 161.587 44.5652 161.409 44.5479C161.231 44.5306 161.062 44.461 160.923 44.3478C160.785 44.2347 160.683 44.083 160.63 43.9119C160.577 43.7409 160.576 43.558 160.628 43.3865C160.679 43.2149 160.779 43.0623 160.917 42.9479C161.054 42.8334 161.223 42.7622 161.401 42.7433C161.641 42.7192 161.882 42.7915 162.069 42.9443C162.256 43.0971 162.375 43.318 162.4 43.5584Z" fill="#0A0A0B"/>
<path d="M161.158 40.0512L159.298 41.6355C159.186 41.3971 159.15 41.1303 159.194 40.8707C159.238 40.6112 159.361 40.3713 159.545 40.1832C159.774 40.0123 160.047 39.9093 160.332 39.8859C160.618 39.8626 160.904 39.9198 161.158 40.0512Z" fill="#0A0A0B"/>
<path d="M168.883 39.1612C169.595 39.5573 170.306 39.9534 171.024 40.3437C171.086 40.087 171.068 39.8176 170.972 39.5714C170.877 39.3253 170.709 39.1141 170.49 38.966C170.23 38.8472 169.943 38.8026 169.659 38.837C169.375 38.8715 169.107 38.9837 168.883 39.1612Z" fill="#0A0A0B"/>
<path d="M204.641 81.45L207.511 80.0264C208.41 79.5819 209.158 78.8833 209.663 78.0173L210.565 76.4731C211.187 75.4149 212.105 74.5611 213.205 74.0163C214.86 73.2033 216.403 72.1808 217.797 70.9739C218.09 71.4396 218.213 71.9917 218.146 72.5374C218.079 73.083 217.826 73.5891 217.43 73.9704C216.838 74.5131 216.209 75.0137 215.547 75.4686L216.931 75.8188C217.93 76.0749 218.984 76.0107 219.944 75.6351L223.894 74.1024C224.007 74.0593 224.13 74.0469 224.249 74.0664C224.369 74.0859 224.481 74.1367 224.575 74.2136C224.669 74.2905 224.741 74.3907 224.783 74.5043C224.826 74.6178 224.838 74.7405 224.818 74.8601C224.453 76.6112 223.791 78.2868 222.86 79.814C222.432 80.5446 221.851 81.1745 221.158 81.6608C220.465 82.1472 219.675 82.4786 218.842 82.6325C216.827 83.0114 214.876 83.3098 213.768 83.4648C213.133 83.5596 212.517 83.7533 211.942 84.0389L207.706 86.1456L204.641 81.45Z" fill="#FFA8A7"/>
<path d="M201.894 85.8875C201.393 84.7039 201.218 83.4074 201.389 82.1333L195.959 84.705C194.979 80.7539 194.212 76.7528 193.663 72.7192C193.02 67.2717 193.163 63.6094 186.155 61.8127L185.414 76.1634C185.414 76.1634 186.275 93.6713 191.298 95.6115C195.454 97.2131 198.387 93.258 204.73 89.1594C203.47 88.3871 202.48 87.2443 201.894 85.8875Z" fill="#F0F0F0"/>
<path opacity="0.1" d="M192.348 88.2929C192.538 87.4778 193.875 85.6122 195.982 84.7052C195.982 84.7052 195.821 84.068 195.586 83.0348C194.495 83.5743 191.809 85.2218 192.348 88.2929Z" fill="#0B0B0B"/>
<path d="M206.244 79.8255L201.387 82.1217C201.197 83.4936 201.414 84.8913 202.013 86.1406C202.611 87.3899 203.563 88.4357 204.751 89.1478C206.179 88.2238 207.658 87.3824 209.183 86.6278C209.183 86.6278 206.599 84.5613 206.244 79.8255Z" fill="#E0E0E0"/>
<path d="M226.132 9.70293C226.132 9.57312 226.097 9.44562 226.032 9.33361C225.966 9.22159 225.872 9.12912 225.758 9.06575L222.441 7.22312H222.412C222.303 7.1612 222.181 7.12863 222.056 7.12863C221.931 7.12863 221.808 7.1612 221.7 7.22312L199.014 20.3225C198.678 20.5186 198.399 20.7993 198.205 21.1366C198.01 21.4739 197.907 21.8562 197.906 22.2455V30.678L190.054 38.8005C189.353 39.5295 189.279 40.6259 189.824 40.7981L192.953 42.5202C193.008 42.5762 193.076 42.618 193.151 42.642C193.226 42.666 193.306 42.6714 193.383 42.658L197.941 42.084V48.272C197.939 48.3999 197.972 48.5259 198.036 48.637C198.099 48.748 198.191 48.84 198.303 48.9034L201.597 50.7346H201.643H201.678C201.785 50.785 201.902 50.8088 202.02 50.8038C202.138 50.7988 202.253 50.7652 202.355 50.7059L225.041 37.6065C225.379 37.4126 225.66 37.1324 225.854 36.7946C226.049 36.4568 226.151 36.0734 226.149 35.6835L226.132 9.70293ZM201.816 22.5899L201.741 22.676L201.816 22.5899ZM201.603 22.8654L201.546 22.9458L201.603 22.8654ZM201.288 23.6059C201.285 23.6384 201.285 23.671 201.288 23.7035C201.285 23.671 201.285 23.6384 201.288 23.6059ZM201.982 22.4579C202.007 22.4333 202.034 22.4103 202.062 22.389C202.035 22.401 202.008 22.4144 201.982 22.4292V22.4579Z" fill="#6B006D"/>
<path d="M218.348 17.8654C218.247 17.9162 218.157 17.9864 218.084 18.072C218.025 18.1416 217.981 18.2214 217.952 18.3074C217.705 18.8046 217.494 19.3187 217.32 19.8458C217.131 20.3108 216.953 20.7757 216.792 21.2464C216.749 21.3301 216.716 21.4188 216.694 21.5105C216.64 21.6223 216.597 21.7397 216.568 21.8606C216.465 22.1247 216.361 22.383 216.264 22.6471C216.224 22.7217 216.189 22.7906 216.155 22.8652C216.052 23.0837 215.968 23.3102 215.902 23.5425C215.859 23.642 215.843 23.7511 215.855 23.8588C215.867 23.9666 215.907 24.0693 215.971 24.1568C216.219 24.3916 216.524 24.5578 216.855 24.6389L216.941 24.6676L217.217 24.7423L217.693 24.9776L217.785 25.035C217.814 25.0752 217.848 25.1096 217.877 25.1441C217.908 25.1864 217.933 25.2327 217.952 25.2819C217.97 25.3593 217.97 25.4398 217.952 25.5172C217.923 25.632 217.894 25.7526 217.871 25.8674C217.848 25.9822 217.728 26.2577 217.659 26.4414L217.555 26.694L217.2 27.5321C217.079 27.8018 216.993 28.0257 216.907 28.2496C216.823 28.4093 216.751 28.5742 216.689 28.7433L216.568 28.9901C216.471 29.1967 216.367 29.4034 216.27 29.6158L216.184 29.7995L215.862 30.3735L215.742 30.6031L215.368 31.2575L215.271 31.424L214.903 32.1243L214.789 32.2965L213.928 33.5479L213.583 34.0129L213.486 34.1449L212.435 35.4766L212.033 35.8555C211.957 35.9468 211.866 36.0245 211.763 36.0851C211.699 36.1253 211.624 36.1466 211.548 36.1466C211.472 36.1466 211.398 36.1253 211.333 36.0851L211.075 35.9531C211.075 35.9129 211.04 35.9072 211.012 35.9014C210.655 35.588 210.271 35.3075 209.863 35.0633C209.787 35.0148 209.698 34.9891 209.608 34.9891C209.518 34.9891 209.429 35.0148 209.353 35.0633C209.306 35.0916 209.261 35.1243 209.221 35.1609C209.049 35.304 208.9 35.4724 208.779 35.6603C208.733 35.688 208.699 35.7306 208.681 35.7809C208.365 36.2229 208.015 36.6189 207.688 37.0437C207.361 37.4685 207.085 37.7498 206.792 38.1172C206.626 38.3066 206.465 38.5018 206.31 38.6912C206.155 38.8806 205.96 39.1217 205.794 39.3571C205.727 39.4335 205.667 39.5161 205.616 39.6039C205.531 39.699 205.469 39.8117 205.433 39.9337C205.397 40.0558 205.389 40.1843 205.409 40.31C205.41 40.4639 205.423 40.6174 205.449 40.7692C205.461 40.9654 205.502 41.1588 205.57 41.3432C205.587 41.4644 205.622 41.5823 205.673 41.6934C205.69 41.729 205.709 41.7635 205.73 41.7967C205.725 41.8232 205.725 41.8506 205.73 41.8771C205.748 41.9098 205.769 41.9406 205.794 41.9689C205.807 42.0104 205.828 42.0487 205.857 42.0813C205.885 42.1139 205.921 42.1402 205.96 42.1583C206.013 42.2307 206.085 42.288 206.167 42.3248L206.31 42.3822H206.408L206.528 42.4281H206.586C206.652 42.4426 206.72 42.4426 206.787 42.4281C206.801 42.4367 206.818 42.4412 206.835 42.4412C206.853 42.4412 206.869 42.4367 206.884 42.4281C206.967 42.4483 207.054 42.4483 207.137 42.4281C207.228 42.448 207.322 42.448 207.412 42.4281C207.504 42.4421 207.597 42.4421 207.688 42.4281H207.854C207.985 42.4152 208.114 42.3882 208.239 42.3478H208.302L208.44 42.3133C208.475 42.3075 208.508 42.2937 208.537 42.2731L208.681 42.2215C208.825 42.1796 208.965 42.1258 209.1 42.0607L209.215 42.0033L209.307 41.9517C209.388 41.9068 209.467 41.857 209.542 41.8024C209.635 41.748 209.725 41.6886 209.812 41.6245C209.915 41.555 210.015 41.4802 210.11 41.4006C210.194 41.3432 210.281 41.2801 210.369 41.2112L210.472 41.1193L210.524 41.0734L210.667 40.9529C210.816 40.8245 210.957 40.6885 211.092 40.5453C211.204 40.4548 211.307 40.355 211.402 40.2468C211.438 40.2213 211.467 40.1879 211.488 40.1492C211.693 39.9721 211.885 39.7803 212.062 39.5752C212.216 39.4405 212.361 39.2967 212.498 39.1447C212.614 39.0423 212.721 38.931 212.82 38.8117L212.998 38.6281C213.052 38.588 213.097 38.5372 213.13 38.4788C213.158 38.4632 213.18 38.439 213.193 38.4099L213.29 38.3181C213.343 38.2595 213.393 38.1981 213.44 38.1344C213.543 38.0308 213.641 37.9216 213.732 37.8072L213.824 37.6924L213.916 37.5776C214.098 37.3772 214.269 37.1663 214.427 36.9461C214.512 36.8627 214.585 36.7681 214.645 36.6649C214.752 36.5442 214.85 36.4156 214.938 36.2803C215.086 36.0976 215.222 35.9059 215.345 35.7062C215.426 35.6029 215.46 35.5513 215.5 35.5053L215.604 35.3561C215.678 35.2528 215.742 35.1494 215.81 35.0404L215.942 34.8624C215.984 34.8014 216.022 34.7381 216.057 34.673C216.144 34.5663 216.219 34.4509 216.281 34.3286C216.39 34.1821 216.49 34.0287 216.58 33.8693C216.614 33.8257 216.644 33.7797 216.671 33.7316C216.687 33.7099 216.7 33.6868 216.712 33.6627L216.752 33.5881L216.849 33.4503C216.941 33.3068 217.027 33.1633 217.108 33.0083L217.223 32.8189L217.584 32.1932C217.635 32.1333 217.676 32.0654 217.705 31.9923C217.797 31.843 217.883 31.6938 217.969 31.533C217.969 31.4814 218.02 31.4297 218.049 31.3781C218.097 31.3081 218.138 31.233 218.17 31.1542L218.48 30.5801C218.531 30.4711 218.589 30.3678 218.64 30.2587C218.729 30.1147 218.804 29.9629 218.864 29.8052C219.111 29.3517 219.329 28.8925 219.53 28.4218L219.622 28.2094C219.708 28.045 219.781 27.8742 219.84 27.6985C220.076 27.1718 220.285 26.6335 220.466 26.0855L220.517 25.9477C220.637 25.6381 220.739 25.3219 220.822 25.0006C220.948 24.6102 221.051 24.2256 221.149 23.8525C221.183 23.7262 221.218 23.5999 221.246 23.4679C221.273 23.4315 221.285 23.3865 221.281 23.3416C221.283 23.311 221.283 23.2804 221.281 23.2498L221.327 23.0776C221.468 22.6107 221.58 22.1352 221.66 21.654V21.5794C221.67 21.5379 221.67 21.4945 221.66 21.4531C221.66 21.4531 221.66 21.4014 221.66 21.3784C221.66 21.3555 221.66 21.2866 221.66 21.2464C221.657 21.1986 221.657 21.1507 221.66 21.1029C221.696 20.9003 221.714 20.6946 221.711 20.4887C221.711 20.4083 221.711 20.3222 221.711 20.2361C221.726 20.1777 221.726 20.1166 221.711 20.0582C221.711 20.0295 221.711 19.995 221.711 19.9606C221.71 19.7808 221.679 19.6024 221.62 19.4325C221.574 19.1775 221.493 18.9301 221.378 18.6977C221.245 18.3211 221.034 17.9768 220.759 17.6874C220.686 17.5804 220.585 17.4966 220.466 17.4463C220.466 17.4463 220.437 17.4004 220.403 17.4062C220.307 17.3338 220.189 17.2972 220.07 17.3028C219.709 17.2887 219.349 17.3513 219.013 17.4865L218.893 17.5382C218.789 17.564 218.689 17.6026 218.594 17.653L218.537 17.6874C218.508 17.7735 218.422 17.808 218.348 17.8654Z" fill="white"/>
<path opacity="0.1" d="M201.303 50.1485C201.302 50.2742 201.333 50.3981 201.395 50.5078C201.456 50.6175 201.545 50.7093 201.653 50.7742L198.358 48.943C198.247 48.8796 198.155 48.7876 198.091 48.6766C198.027 48.5655 197.995 48.4395 197.996 48.3116V42.1236L201.308 41.716L201.303 50.1485Z" fill="#0B0B0B"/>
<path opacity="0.2" d="M199.014 20.322L221.706 7.2226C221.814 7.16068 221.937 7.12811 222.062 7.12811C222.186 7.12811 222.309 7.16068 222.417 7.2226H222.446L225.764 9.06523C225.652 9.00185 225.525 8.96853 225.397 8.96853C225.268 8.96853 225.141 9.00185 225.029 9.06523L202.338 22.1646C201.916 22.4061 201.586 22.7792 201.396 23.2266L198.102 21.3265C198.293 20.904 198.612 20.5525 199.014 20.322Z" fill="white"/>
<path opacity="0.1" d="M197.93 30.689V22.2565C197.929 21.9438 197.996 21.6346 198.125 21.3496L201.397 23.2267C201.287 23.4985 201.231 23.7888 201.23 24.082V32.5145L197.93 30.689Z" fill="white"/>
<path opacity="0.05" d="M190.077 38.7998L197.93 30.6888L201.254 32.5372L193.401 40.6539C192.792 41.2854 192.655 42.1866 192.976 42.5368L189.848 40.8147C189.302 40.6252 189.377 39.5288 190.077 38.7998Z" fill="white"/>
<path d="M117.828 4.74837C117.392 3.09517 114.298 -0.0562576 111.221 0.00688568C110.923 0.0177802 110.63 0.0819371 110.354 0.196317L50.5577 37.1696C49.5429 37.8125 48.7433 38.744 48.2616 39.8446C47.8788 40.7044 47.6831 41.6358 47.6876 42.577V183.18C47.6876 186.762 51.4877 190.177 55.0581 188.536C55.1367 188.506 55.2134 188.471 55.2877 188.432L115.09 151.39C115.987 150.807 116.721 150.005 117.223 149.06C117.725 148.115 117.979 147.058 117.96 145.988V5.43147C117.967 5.19686 117.922 4.9637 117.828 4.74837Z" fill="#91989C"/>
<path d="M56.0073 57.4383C55.9993 56.9019 56.128 56.3724 56.381 55.8994C56.6341 55.4265 57.0032 55.0256 57.4538 54.7346L112.98 20.3961C113.205 20.2692 113.461 20.2056 113.72 20.2122C113.979 20.2188 114.231 20.2953 114.45 20.4336C114.669 20.5718 114.846 20.7668 114.963 20.9976C115.08 21.2285 115.133 21.4868 115.115 21.7451V135.127C115.123 135.663 114.994 136.192 114.741 136.664C114.488 137.135 114.119 137.535 113.669 137.825L58.1427 172.221C57.917 172.348 57.6613 172.412 57.4024 172.405C57.1436 172.399 56.8914 172.322 56.6725 172.184C56.4537 172.046 56.2763 171.851 56.1591 171.62C56.042 171.389 55.9895 171.131 56.0073 170.872V57.4383Z" fill="#6B006D"/>
<path d="M47.6641 42.5767V183.18C47.6641 186.762 51.4641 190.177 55.0346 188.535C54.8102 188.612 54.5704 188.632 54.3363 188.594C54.1022 188.556 53.881 188.462 53.6921 188.318C53.5033 188.175 53.3526 187.987 53.2534 187.772C53.1542 187.556 53.1094 187.32 53.1231 187.083V46.4629C53.1232 45.2474 53.4589 44.0556 54.0932 43.0187L48.261 39.873C47.8743 40.7223 47.6709 41.6435 47.6641 42.5767Z" fill="#0A0A0B"/>
<path d="M111.227 0.000934744C110.929 0.0118293 110.636 0.075984 110.36 0.190364L50.5578 37.1694C49.543 37.8123 48.7434 38.7438 48.2617 39.8444L54.1168 43.0245C54.5935 42.2256 55.2525 41.5509 56.0398 41.0556L115.842 4.07655C116.013 3.97329 116.204 3.90857 116.403 3.8869C116.601 3.86523 116.802 3.88714 116.991 3.95109C117.18 4.01504 117.353 4.11949 117.498 4.25716C117.642 4.39483 117.755 4.5624 117.828 4.74816C117.398 3.08922 114.304 -0.0622086 111.227 0.000934744Z" fill="#7B367C"/>
<path d="M92.9344 27.2907C93.3592 27.0266 93.7036 27.2332 93.7036 27.7556C93.6933 28.0378 93.6192 28.314 93.487 28.5635C93.3548 28.8131 93.1678 29.0294 92.9401 29.1964L81.2069 36.5612C80.7879 36.8253 80.4492 36.6014 80.4492 36.079C80.4587 35.8003 80.5312 35.5274 80.6615 35.2808C80.7918 35.0342 80.9763 34.8204 81.2012 34.6555L92.9344 27.2907Z" fill="#0A0A0B"/>
<path d="M78.1872 36.5439C78.6062 36.2799 78.9449 36.4923 78.9449 37.0146C78.9357 37.2956 78.8626 37.5709 78.7314 37.8195C78.6001 38.0681 78.414 38.2836 78.1872 38.4497C77.7681 38.7138 77.4237 38.5014 77.418 37.9733C77.4298 37.6924 77.5052 37.4178 77.6384 37.1703C77.7716 36.9227 77.9593 36.7086 78.1872 36.5439Z" fill="#0A0A0B"/>
<path d="M85.7027 26.2229C86.5408 25.6948 87.2181 26.1138 87.2181 27.1643C87.2002 27.7252 87.0556 28.2747 86.7951 28.7718C86.5347 29.2688 86.1651 29.7005 85.7142 30.0345C84.8704 30.5568 84.1758 30.1263 84.1758 29.0816C84.1969 28.5205 84.3453 27.9716 84.6099 27.4763C84.8744 26.981 85.2481 26.5524 85.7027 26.2229Z" fill="#0A0A0B"/>
<path d="M85.705 158.588C87.4271 157.515 88.7933 158.37 88.799 160.505C88.8048 162.641 87.4328 165.264 85.7222 166.338C84.0116 167.411 82.5995 166.533 82.5938 164.397C82.6402 163.257 82.9443 162.142 83.4831 161.136C84.0219 160.13 84.7815 159.259 85.705 158.588Z" fill="#0A0A0B"/>
<path d="M91.3477 79.4009C91.1985 79.4873 91.0646 79.5978 90.9516 79.7281C90.8621 79.8389 90.794 79.9655 90.7507 80.1012C90.3736 80.8874 90.0514 81.6987 89.7863 82.5294C89.4993 83.2584 89.2123 83.9932 88.9884 84.7279C88.9208 84.8606 88.8706 85.0014 88.8392 85.147C88.7544 85.331 88.689 85.5234 88.644 85.721L88.1791 86.9494C88.1274 87.07 88.07 87.1848 88.0183 87.2996C87.8633 87.6446 87.7366 88.0017 87.6395 88.3673C87.5746 88.5235 87.5496 88.6934 87.5666 88.8618C87.5837 89.0301 87.6422 89.1915 87.7371 89.3316C88.1129 89.6958 88.5751 89.9585 89.0803 90.0951L89.2181 90.1353C89.3558 90.1812 89.4936 90.2156 89.6314 90.2558L90.3546 90.6232L90.4924 90.7208C90.5433 90.7756 90.5912 90.833 90.6359 90.893C90.6854 90.9541 90.7225 91.0243 90.745 91.0997C90.7745 91.2223 90.7745 91.3501 90.745 91.4728L90.6244 92.0468C90.5211 92.3568 90.412 92.6667 90.303 92.971L90.148 93.3728C89.9873 93.8033 89.8208 94.2396 89.6543 94.6701C89.4879 95.1006 89.3386 95.4508 89.2066 95.8182C89.0815 96.0682 88.9704 96.325 88.8736 96.5874C88.8162 96.7194 88.7531 96.8514 88.6957 96.9777C88.5407 97.3049 88.3915 97.6321 88.2422 97.9593L88.1044 98.2521L87.6223 99.205C87.5649 99.3255 87.5017 99.446 87.4386 99.5666L86.8645 100.6C86.8186 100.686 86.767 100.772 86.7153 100.858C86.5086 101.208 86.302 101.564 86.0896 101.914L85.9174 102.184C85.4811 102.844 85.0449 103.504 84.6029 104.165L84.0862 104.894L83.9427 105.094L82.3412 107.19L81.8016 107.804C81.6858 107.945 81.5482 108.067 81.394 108.166C81.2996 108.233 81.1883 108.272 81.0726 108.279C80.9569 108.286 80.8416 108.261 80.7396 108.206L80.3436 107.988C80.3436 107.93 80.2919 107.919 80.2517 107.913C79.7029 107.419 79.1091 106.977 78.478 106.593C78.3626 106.518 78.228 106.478 78.0905 106.478C77.953 106.478 77.8184 106.518 77.703 106.593C77.6317 106.636 77.5645 106.686 77.5021 106.742C77.2428 106.973 77.0151 107.238 76.8248 107.528C76.7607 107.581 76.7129 107.651 76.687 107.729C76.2048 108.424 75.6767 109.044 75.1773 109.71C74.7123 110.255 74.2531 110.818 73.8111 111.403C73.5585 111.702 73.3174 112.006 73.0878 112.339C72.8071 112.671 72.5445 113.017 72.3014 113.378C72.1966 113.499 72.1061 113.632 72.0316 113.774C71.9017 113.926 71.8062 114.104 71.7517 114.296C71.6972 114.488 71.685 114.69 71.7159 114.887C71.711 115.128 71.7302 115.368 71.7733 115.605C71.7954 115.897 71.8572 116.185 71.957 116.46C71.9804 116.659 72.0346 116.852 72.1177 117.034C72.141 117.09 72.1679 117.143 72.1981 117.195C72.2008 117.238 72.2105 117.281 72.2268 117.321C72.2525 117.375 72.2853 117.425 72.3244 117.471C72.3656 117.6 72.4565 117.707 72.5769 117.769C72.6558 117.881 72.7627 117.97 72.8869 118.027C72.9594 118.063 73.0342 118.094 73.1108 118.119L73.26 118.159C73.3187 118.19 73.3802 118.215 73.4437 118.234H73.5298C73.6305 118.252 73.7334 118.252 73.8341 118.234C73.8557 118.247 73.8805 118.254 73.9058 118.254C73.9311 118.254 73.956 118.247 73.9776 118.234C74.1038 118.266 74.2359 118.266 74.3622 118.234C74.5007 118.26 74.6427 118.26 74.7812 118.234C74.924 118.243 75.0674 118.229 75.206 118.194H75.4586C75.6535 118.167 75.8456 118.123 76.0326 118.062H76.1187C76.1927 118.051 76.2656 118.033 76.3368 118.01C76.3857 117.996 76.4322 117.975 76.4746 117.947C76.6411 117.895 76.6698 117.878 76.7042 117.867C76.9185 117.797 77.1276 117.713 77.3299 117.614L77.5136 117.522L77.6456 117.442C77.7703 117.371 77.8893 117.29 78.0015 117.201L78.4206 116.925C78.5773 116.817 78.725 116.696 78.8626 116.564C79.0028 116.475 79.137 116.377 79.2644 116.271C79.316 116.231 79.3677 116.179 79.4194 116.133L79.494 116.053L79.7121 115.863C79.9303 115.662 80.1484 115.456 80.355 115.226C80.5279 115.082 80.6874 114.923 80.8315 114.75C80.8865 114.712 80.9302 114.661 80.9578 114.6C81.2567 114.327 81.5385 114.036 81.8016 113.728C82.0331 113.512 82.2534 113.284 82.4617 113.045C82.6387 112.885 82.8019 112.71 82.9497 112.522L83.2137 112.23C83.2954 112.166 83.3653 112.088 83.4204 112C83.4598 111.972 83.4915 111.935 83.5122 111.891C83.5648 111.842 83.6147 111.79 83.6614 111.736C83.7455 111.649 83.8223 111.555 83.8911 111.455C84.0492 111.29 84.1986 111.118 84.3388 110.938L84.4766 110.754L84.6201 110.582C84.8841 110.255 85.1482 109.939 85.3893 109.578C85.5186 109.447 85.6305 109.301 85.7222 109.141C85.8855 108.951 86.0333 108.747 86.1642 108.533C86.387 108.25 86.594 107.955 86.7842 107.649C86.9047 107.482 86.9621 107.408 87.0138 107.327C87.0655 107.247 87.1286 107.172 87.1803 107.092C87.2319 107.012 87.3869 106.771 87.4845 106.604L87.6854 106.323C87.7521 106.225 87.8134 106.123 87.8691 106.019C87.9984 105.85 88.1118 105.669 88.2078 105.479C88.3724 105.246 88.522 105.002 88.6555 104.75C88.7118 104.685 88.7599 104.614 88.799 104.538L88.8622 104.429C88.8836 104.39 88.9028 104.349 88.9196 104.308C88.9712 104.239 89.0171 104.165 89.0631 104.09C89.2085 103.868 89.3405 103.638 89.4592 103.401L89.6371 103.103L90.2111 102.115C90.2848 102.017 90.3447 101.909 90.3891 101.794C90.5326 101.564 90.6646 101.323 90.7909 101.076L90.9114 100.829C90.9823 100.718 91.0437 100.601 91.0951 100.479L91.5658 99.5838C91.6462 99.4116 91.7323 99.2451 91.8127 99.0787C91.9458 98.8507 92.061 98.6127 92.1571 98.3669C92.5302 97.6493 92.8574 96.9203 93.1616 96.1856L93.2994 95.8526C93.4303 95.5888 93.5435 95.3164 93.6381 95.0375C93.994 94.1994 94.3154 93.3498 94.5852 92.5003C94.5852 92.4257 94.6369 92.3568 94.6656 92.2879C94.8482 91.7985 94.9996 91.2981 95.1191 90.7897C95.32 90.1755 95.475 89.567 95.6242 88.9643C95.6702 88.7576 95.7218 88.5567 95.7735 88.3558C95.8087 88.2927 95.8265 88.2214 95.8251 88.1491C95.8251 88.1032 95.8538 88.0573 95.8653 88.0114L95.9342 87.7416C96.1513 87.0033 96.32 86.2516 96.4394 85.4914V85.3766C96.4579 85.3128 96.4579 85.2451 96.4394 85.1814V85.0609C96.4394 84.992 96.4394 84.9231 96.4681 84.8485V84.6303C96.525 84.3121 96.5519 83.9892 96.5484 83.666C96.5484 83.5339 96.5484 83.3962 96.5484 83.2641C96.5664 83.1712 96.5664 83.0758 96.5484 82.9829C96.5454 82.9312 96.5454 82.8795 96.5484 82.8279C96.5425 82.5448 96.4941 82.2642 96.4049 81.9955C96.3384 81.5971 96.2147 81.2105 96.0375 80.8475C95.8383 80.257 95.5198 79.7139 95.1019 79.2517C94.9928 79.0858 94.837 78.9559 94.6541 78.8785C94.6541 78.8441 94.6139 78.7982 94.5565 78.8154C94.4136 78.7012 94.2343 78.6421 94.0514 78.6489C93.5024 78.6255 92.9551 78.7256 92.4498 78.9417L92.2662 79.0163C92.1091 79.0619 91.9572 79.1235 91.8127 79.2L91.7266 79.2574C91.6232 79.2574 91.4855 79.3206 91.3477 79.4009Z" fill="white"/>
</svg>
