<svg width="32" height="32" viewBox="0 0 32 32" fill="none" xmlns="http://www.w3.org/2000/svg">
<path fill-rule="evenodd" clip-rule="evenodd" d="M21.2324 5.89115C17.7749 5.31151 14.2255 5.31151 10.768 5.89115C10.1173 6.00023 9.60052 6.50014 9.47081 7.14405C8.29071 13.0027 8.22632 19.0314 9.28102 24.9139L9.49909 26.1301L14.3931 21.4808C15.2937 20.6252 16.7067 20.6252 17.6073 21.4808L22.5013 26.1301L22.7194 24.9139C23.7741 19.0314 23.7097 13.0027 22.5296 7.14405C22.3999 6.50014 21.8831 6.00023 21.2324 5.89115ZM10.4373 3.91868C14.1137 3.30234 17.8867 3.30234 21.5631 3.91868C23.0287 4.16438 24.1962 5.28947 24.4902 6.74912C25.72 12.8543 25.7871 19.1367 24.688 25.2668L24.3927 26.9139C24.1448 28.2964 22.4594 28.8489 21.4412 27.8816L16.2298 22.9308C16.1011 22.8085 15.8993 22.8085 15.7706 22.9308L10.5592 27.8816C9.54098 28.8489 7.8556 28.2964 7.60773 26.9139L7.31241 25.2668C6.21332 19.1367 6.28042 12.8543 7.51019 6.74912C7.80421 5.28947 8.97167 4.16438 10.4373 3.91868Z" fill="#6B006D"/>
</svg>
