<svg width="708" height="423" viewBox="0 0 708 423" fill="none" xmlns="http://www.w3.org/2000/svg">
<path d="M342.594 265.366C348.31 264.975 353.265 266.517 358.014 268.748C360.204 269.809 362.593 270.394 365.025 270.465L371.286 270.331L371.368 200.725C371.364 199.157 371.051 197.605 370.447 196.158C369.842 194.711 368.959 193.397 367.847 192.291C366.734 191.186 365.415 190.31 363.965 189.715C362.514 189.119 360.96 188.816 359.392 188.821L293.219 189.068V187.69C293.251 184.895 293.915 182.143 295.162 179.641C298.538 172.709 299.639 164.887 298.308 157.292C296.669 148.161 291.677 139.971 284.311 134.33C276.946 128.689 267.738 126.003 258.495 126.8C249.252 127.597 240.64 131.819 234.348 138.637C228.057 145.455 224.54 154.378 224.487 163.656C224.504 168.752 225.589 173.788 227.674 178.438C228.742 180.779 229.306 183.318 229.329 185.891L229.72 189.027H149.978C148.41 189.021 146.857 189.325 145.407 189.919C143.957 190.514 142.638 191.389 141.526 192.493C140.414 193.598 139.531 194.91 138.926 196.356C138.321 197.802 138.007 199.353 138.002 200.921V268.984H132.317C129.674 268.958 127.072 268.329 124.71 267.144C117.994 263.946 110.452 262.908 103.122 264.173C94.4919 265.738 86.7567 270.466 81.43 277.434C76.1033 284.401 73.5686 293.105 74.3222 301.843C75.0757 310.581 79.0632 318.723 85.5041 324.676C91.945 330.628 100.376 333.962 109.146 334.026C113.995 334.027 118.79 333.008 123.219 331.035C125.435 330.028 127.837 329.496 130.271 329.472H137.57L137.714 412.74C137.718 414.017 137.973 415.281 138.466 416.459C138.958 417.638 139.678 418.707 140.584 419.608C141.49 420.508 142.564 421.221 143.746 421.706C144.927 422.191 146.192 422.438 147.469 422.434H360.934C366.32 422.434 370.545 415.67 370.545 410.314V334.694H361.91C359.912 334.696 357.933 335.084 356.081 335.835C351.088 337.844 345.672 338.573 340.326 337.957C334.979 337.341 329.871 335.4 325.465 332.308C321.06 329.217 317.496 325.074 315.098 320.256C312.7 315.437 311.543 310.096 311.734 304.718C312.381 288.527 326.362 266.497 342.594 265.366Z" fill="#E0E0E0"/>
<path d="M342.593 265.365L342.028 265.437C341.465 265.493 340.906 265.579 340.352 265.694C338.169 266.127 336.06 266.875 334.092 267.915C328.88 270.577 322.054 276.642 316.904 286.778C313.962 292.39 312.239 298.558 311.846 304.882C311.751 308.505 312.248 312.119 313.316 315.583C314.488 319.336 316.345 322.839 318.795 325.914C321.526 329.34 324.93 332.17 328.796 334.23C332.663 336.29 336.911 337.536 341.277 337.891C346.072 338.333 350.905 337.668 355.402 335.948C357.733 334.93 360.263 334.452 362.804 334.55H370.709V334.694C370.709 346.659 370.709 359.366 370.709 372.801C370.709 379.511 370.709 386.398 370.709 393.464V409.624C370.734 410.553 370.672 411.483 370.524 412.4C370.357 413.317 370.103 414.215 369.763 415.083C369.102 416.852 368.091 418.471 366.792 419.843C365.496 421.286 363.757 422.259 361.848 422.608C360.82 422.711 359.936 422.67 358.98 422.68H277.069H168.173H153.781C151.365 422.68 148.98 422.731 146.502 422.629C143.98 422.37 141.65 421.166 139.979 419.259C138.308 417.352 137.422 414.883 137.497 412.349C137.497 409.902 137.497 407.445 137.497 404.988C137.497 400.067 137.497 395.119 137.497 390.144C137.497 370.269 137.459 350.035 137.384 329.44L137.651 329.708H133.097C131.582 329.665 130.065 329.699 128.554 329.811C127.047 329.989 125.571 330.366 124.164 330.931C122.747 331.563 121.299 332.122 119.826 332.607C113.722 334.548 107.203 334.775 100.979 333.263C94.7555 331.751 89.0669 328.559 84.5346 324.033C82.223 321.755 80.2342 319.171 78.6236 316.354C77.8353 314.934 77.1483 313.46 76.5676 311.944C76.2797 311.183 75.9405 310.443 75.7143 309.662L75.0667 307.297C73.1336 299.542 73.8792 291.361 77.1824 284.083C80.4855 276.804 86.1523 270.857 93.2623 267.205C96.7325 265.46 100.466 264.297 104.313 263.762C108.168 263.233 112.083 263.323 115.909 264.029C117.806 264.386 119.673 264.891 121.491 265.54C122.406 265.869 123.3 266.229 124.174 266.64C125.024 267.06 125.895 267.434 126.785 267.76C130.332 269.159 134.208 268.655 137.991 268.788L137.723 269.056C137.723 254.335 137.723 239.802 137.723 225.458V204.138C137.652 202.36 137.724 200.579 137.939 198.813C138.258 197.039 138.979 195.361 140.047 193.909C141.096 192.46 142.451 191.261 144.016 190.395C145.582 189.53 147.319 189.02 149.103 188.903H229.698L229.462 189.17C229.328 188.142 229.195 187.114 229.071 186.086C229.058 184.172 228.735 182.273 228.115 180.463C227.817 179.558 227.416 178.705 227.087 177.8C226.758 176.896 226.388 176.001 226.059 175.086C224.884 171.432 224.284 167.617 224.281 163.778L224.435 160.941C224.435 160.468 224.435 159.985 224.538 159.522L224.764 158.114C224.939 157.189 225.021 156.243 225.268 155.338L226.028 152.614C226.139 152.159 226.29 151.716 226.481 151.288L226.995 149.983C227.307 149.101 227.689 148.245 228.136 147.423L229.431 144.945L230.963 142.458C233.057 139.43 235.602 136.74 238.508 134.48L239.536 133.617L240.677 132.866C241.448 132.373 242.189 131.838 242.97 131.396C244.544 130.518 246.176 129.745 247.853 129.083C251.174 127.764 254.667 126.93 258.225 126.606C259.982 126.445 261.748 126.418 263.509 126.524C264.383 126.575 265.257 126.596 266.131 126.688L268.711 127.079C275.478 128.39 281.756 131.529 286.865 136.156C291.719 140.534 295.323 146.123 297.31 152.35C299.297 158.578 299.595 165.221 298.173 171.601C297.495 174.619 296.46 177.546 295.089 180.319C294.47 181.688 294.018 183.128 293.743 184.606C293.501 186.076 293.408 187.567 293.465 189.057L293.27 188.861L343.642 188.697H355.084H357.88C358.805 188.697 359.72 188.697 360.655 188.748C362.478 188.94 364.234 189.537 365.795 190.496C367.314 191.419 368.608 192.667 369.584 194.152C370.56 195.637 371.194 197.32 371.439 199.08C371.572 200.773 371.613 202.471 371.562 204.168C371.562 205.834 371.562 207.479 371.562 209.103C371.511 235.121 371.47 255.805 371.439 270.361V270.433H371.357C368.838 270.433 366.494 270.587 364.294 270.536C362.267 270.368 360.285 269.85 358.435 269.004C355.686 267.635 352.784 266.6 349.789 265.92C348.022 265.543 346.22 265.35 344.413 265.345C343.806 265.345 343.385 265.345 343.076 265.345H342.634C343.225 265.288 343.819 265.264 344.413 265.273C346.226 265.259 348.035 265.439 349.81 265.807C352.815 266.485 355.728 267.521 358.486 268.891C360.327 269.715 362.295 270.223 364.305 270.392C366.484 270.392 368.838 270.31 371.357 270.269L371.285 270.351V204.138C371.336 202.454 371.295 200.769 371.161 199.09C370.919 197.374 370.299 195.734 369.347 194.287C368.394 192.84 367.132 191.622 365.651 190.722C364.121 189.787 362.399 189.21 360.614 189.036C359.71 188.964 358.795 188.975 357.869 188.985H355.042H343.59L293.219 189.19H293.033V189.005C292.967 187.492 293.06 185.976 293.311 184.482C293.598 182.975 294.056 181.506 294.678 180.103C296.053 177.36 297.089 174.461 297.762 171.468C299.161 165.159 298.862 158.592 296.898 152.437C294.933 146.281 291.372 140.755 286.578 136.423C281.523 131.85 275.312 128.75 268.618 127.459L266.069 127.079C265.206 126.986 264.342 126.966 263.468 126.914C261.731 126.808 259.989 126.836 258.256 126.996C254.729 127.314 251.266 128.141 247.976 129.453C246.315 130.103 244.701 130.865 243.145 131.736C242.374 132.198 241.644 132.764 240.883 133.195L239.763 133.935L238.735 134.789C235.87 137.026 233.36 139.684 231.292 142.673L229.781 144.956L228.496 147.402C228.06 148.216 227.685 149.061 227.375 149.931L226.871 151.216C226.681 151.64 226.53 152.081 226.419 152.532L225.679 155.215C225.432 156.109 225.35 157.045 225.175 157.96L224.949 159.348C224.887 159.81 224.887 160.283 224.857 160.746L224.702 163.552C224.702 167.342 225.295 171.109 226.46 174.716C226.758 175.621 227.087 176.525 227.488 177.41C227.889 178.294 228.269 179.167 228.578 180.093C229.234 181.949 229.581 183.901 229.606 185.87C229.74 186.898 229.863 187.926 230.007 189.005V189.273H229.729L149.165 189.334C147.455 189.448 145.791 189.936 144.291 190.766C142.791 191.596 141.493 192.746 140.489 194.135C139.454 195.52 138.751 197.124 138.433 198.823C138.228 200.587 138.163 202.364 138.237 204.138C138.237 211.203 138.237 218.317 138.237 225.479V269.344H132.275C130.332 269.327 128.406 268.979 126.58 268.316C125.675 268.007 124.781 267.565 123.928 267.174C123.074 266.784 122.19 266.424 121.296 266.146C119.503 265.5 117.66 265.001 115.786 264.656C112.017 263.961 108.162 263.87 104.365 264.389C99.5489 265.086 94.9326 266.784 90.8129 269.374C86.6932 271.963 83.1614 275.387 80.4451 279.424C77.7287 283.461 75.888 288.023 75.0413 292.815C74.1947 297.606 74.3609 302.522 75.5293 307.246L76.1564 309.569C76.3825 310.34 76.7218 311.07 76.9993 311.821C77.58 313.314 78.2671 314.764 79.0553 316.159C81.4232 320.301 84.6107 323.917 88.4233 326.786C92.2358 329.654 96.5932 331.715 101.229 332.843C107.31 334.297 113.672 334.066 119.63 332.175C121.094 331.694 122.532 331.138 123.938 330.51C125.39 329.931 126.91 329.54 128.461 329.348C130.024 329.173 131.545 329.266 133.066 329.245H137.888V329.554C137.888 350.114 137.922 370.348 137.991 390.257C137.991 395.232 137.991 400.181 137.991 405.101C137.991 407.555 137.991 410.008 137.991 412.462C137.921 414.862 138.764 417.2 140.349 419.005C141.934 420.809 144.144 421.946 146.533 422.187C148.908 422.279 151.365 422.187 153.729 422.238H168.121H277.017H358.959C359.895 422.269 360.832 422.249 361.766 422.176C363.584 421.847 365.241 420.921 366.474 419.545C367.736 418.211 368.718 416.638 369.362 414.919C369.693 414.074 369.945 413.199 370.113 412.307C370.254 411.414 370.312 410.509 370.288 409.604C370.288 407.774 370.288 405.965 370.288 404.155V393.444C370.288 386.392 370.288 379.504 370.288 372.781C370.288 359.366 370.288 346.639 370.288 334.673L370.452 334.837H362.711C360.206 334.731 357.709 335.199 355.412 336.205C350.869 337.925 345.993 338.59 341.154 338.148C336.757 337.781 332.482 336.517 328.592 334.434C324.703 332.352 321.281 329.494 318.538 326.038C316.069 322.936 314.2 319.401 313.028 315.614C311.979 312.137 311.506 308.511 311.63 304.882C312.049 298.54 313.801 292.357 316.77 286.737C321.91 276.591 328.828 270.516 334.071 267.884C336.049 266.846 338.169 266.105 340.363 265.684C340.916 265.577 341.476 265.501 342.038 265.458L342.593 265.365Z" fill="#263238"/>
<path d="M622.178 268.213C617.17 268.207 612.217 269.258 607.643 271.297C606.094 271.991 604.458 272.472 602.78 272.726V199.563C602.781 198.283 602.53 197.015 602.041 195.832C601.552 194.649 600.834 193.574 599.929 192.669C599.024 191.764 597.949 191.046 596.766 190.557C595.583 190.067 594.315 189.816 593.035 189.818H516.901V198.453C516.908 200.447 517.295 202.422 518.042 204.271C519.599 208.097 520.398 212.189 520.396 216.319C520.401 221.161 519.318 225.942 517.227 230.309C515.136 234.676 512.092 238.518 508.318 241.55C504.544 244.583 500.137 246.73 495.422 247.831C490.707 248.933 485.806 248.962 481.078 247.915C476.351 246.869 471.919 244.774 468.11 241.786C464.301 238.797 461.211 234.991 459.07 230.649C456.928 226.307 455.789 221.539 455.737 216.698C455.685 211.857 456.72 207.065 458.768 202.678C459.792 200.554 460.332 198.23 460.351 195.872V189.818L383.251 189.571C380.075 189.571 377.028 190.833 374.782 193.079C372.536 195.325 371.275 198.371 371.275 201.547L371.203 269.395H365.939C365.343 269.395 364.737 269.395 364.14 269.333C358.414 265.163 351.669 262.614 344.615 261.955C337.562 261.296 330.461 262.551 324.062 265.588C317.662 268.626 312.199 273.332 308.249 279.213C304.299 285.094 302.008 291.931 301.618 299.004C301.227 306.077 302.751 313.125 306.029 319.405C309.306 325.685 314.217 330.965 320.244 334.689C326.27 338.413 333.189 340.442 340.272 340.564C347.355 340.686 354.34 338.896 360.491 335.382C361.538 335.152 362.606 335.035 363.678 335.033H370.432V410.765C370.432 413.942 371.693 416.988 373.939 419.234C376.185 421.48 379.232 422.742 382.408 422.742H593.035C594.315 422.742 595.583 422.489 596.767 421.999C597.95 421.508 599.024 420.79 599.929 419.884C600.834 418.978 601.552 417.902 602.041 416.719C602.53 415.535 602.781 414.267 602.78 412.986V335.886C604.086 336.215 605.354 336.68 606.563 337.274C613.333 340.581 620.977 341.66 628.398 340.358C637.313 338.754 645.307 333.879 650.816 326.688C656.324 319.498 658.949 310.51 658.178 301.485C657.406 292.46 653.292 284.049 646.643 277.898C639.994 271.747 631.288 268.301 622.23 268.233L622.178 268.213Z" fill="#F5F5F5"/>
<path d="M622.178 268.213L624.471 268.316C625.415 268.334 626.356 268.424 627.287 268.583L629.086 268.881C629.783 268.978 630.471 269.133 631.142 269.344L633.425 269.971C634.216 270.238 635.028 270.588 635.892 270.916C636.313 271.091 636.766 271.245 637.208 271.441L638.523 272.13C639.475 272.583 640.395 273.098 641.279 273.672C646.161 276.728 650.247 280.9 653.2 285.846C656.152 290.792 657.887 296.368 658.261 302.116C658.261 303 658.384 303.884 658.384 304.789C658.384 305.694 658.292 306.588 658.24 307.513C658.24 307.966 658.24 308.438 658.138 308.891C658.035 309.343 658.004 309.816 657.932 310.279L657.716 311.687C657.603 312.139 657.5 312.612 657.387 313.075C655.429 321.204 650.763 328.426 644.157 333.553C640.497 336.356 636.344 338.448 631.913 339.721C630.783 340.07 629.6 340.245 628.428 340.522C627.257 340.8 626.033 340.882 624.82 340.954C622.349 341.144 619.864 341.071 617.408 340.738C614.88 340.402 612.395 339.796 609.996 338.929C607.529 338.096 605.298 336.657 602.739 336.081L602.944 335.917C602.944 347.759 602.944 360.315 602.944 373.583C602.944 380.203 602.944 386.995 602.944 393.958C602.944 397.432 602.944 400.958 602.944 404.515V412.585C602.944 413.037 602.944 413.51 602.893 413.963C602.849 414.426 602.773 414.887 602.667 415.34C602.224 417.175 601.271 418.847 599.917 420.162C598.564 421.477 596.865 422.383 595.018 422.773C594.086 422.941 593.139 423.014 592.191 422.988H511.658H404.746H383.518C382.31 423.034 381.1 422.951 379.91 422.742C378.716 422.484 377.564 422.062 376.486 421.488C374.33 420.288 372.58 418.474 371.459 416.276C370.899 415.181 370.514 414.005 370.318 412.791C370.155 411.582 370.093 410.361 370.133 409.141V335.043L370.401 335.3H365.528C364.695 335.3 363.832 335.3 363.009 335.3C362.169 335.343 361.334 335.453 360.511 335.629H360.583C355.665 338.446 350.2 340.175 344.557 340.697C335.712 341.513 326.85 339.334 319.393 334.51C311.936 329.685 306.317 322.494 303.437 314.092C302.062 310.048 301.33 305.812 301.268 301.541C301.273 297.288 301.918 293.06 303.18 288.999C304.468 284.976 306.395 281.186 308.885 277.773C310.137 276.078 311.511 274.477 312.997 272.983L315.331 270.865C316.112 270.176 316.996 269.59 317.818 268.953C321.224 266.532 324.978 264.642 328.952 263.35C332.932 262.16 337.061 261.544 341.216 261.521C349.503 261.575 357.563 264.237 364.253 269.128L364.119 269.076C366.443 269.189 368.817 269.076 371.161 269.138L370.894 269.395C370.894 254.9 370.911 240.597 370.945 226.486C370.945 219.421 370.945 212.416 370.945 205.474V202.873C370.945 202.01 370.945 201.136 371.017 200.252C371.306 197.61 372.446 195.133 374.265 193.195C376.084 191.258 378.483 189.964 381.102 189.509C382.808 189.315 384.526 189.254 386.242 189.324H391.331H401.467L421.451 189.396L460.299 189.519H460.536V195.194C460.588 197.023 460.33 198.848 459.775 200.591C459.486 201.451 459.142 202.293 458.747 203.11C458.377 203.911 458.058 204.734 457.719 205.567C455.707 211.324 455.378 217.535 456.771 223.473C458.164 229.41 461.221 234.828 465.583 239.09C467.983 241.435 470.725 243.404 473.715 244.929C479.603 247.926 486.282 249.005 492.815 248.013C499.142 247.064 505.041 244.246 509.756 239.922C512.051 237.826 514.022 235.401 515.606 232.726C517.191 230.119 518.376 227.287 519.121 224.328C520.66 218.553 520.528 212.461 518.741 206.759C518.35 205.361 517.713 204.055 517.291 202.647C516.897 201.235 516.7 199.775 516.705 198.309V189.581H516.901H572.618H591.184C592.175 189.554 593.167 189.578 594.155 189.653C595.139 189.773 596.102 190.032 597.013 190.424C598.778 191.207 600.278 192.487 601.327 194.108C602.377 195.73 602.932 197.621 602.924 199.553C602.924 203.223 602.924 206.749 602.924 210.275C602.924 238.031 602.924 259.177 602.862 272.654L602.78 272.582C606.213 272.14 608.794 270.474 611.23 269.806C613.218 269.171 615.258 268.71 617.326 268.429C618.54 268.272 619.762 268.176 620.986 268.141C621.798 268.141 622.189 268.141 622.189 268.141H620.986C617.681 268.271 614.409 268.852 611.261 269.868C608.845 270.536 606.265 272.222 602.8 272.685H602.729V272.613C602.729 259.136 602.728 238.01 602.657 210.234C602.657 206.759 602.657 203.185 602.657 199.512C602.665 197.638 602.126 195.803 601.108 194.231C600.089 192.659 598.634 191.418 596.92 190.661C596.036 190.277 595.101 190.024 594.145 189.91C593.189 189.818 592.191 189.848 591.205 189.848H572.618H516.901L517.096 189.663V198.196C517.087 199.628 517.281 201.054 517.672 202.431C518.052 203.798 518.7 205.124 519.121 206.543C520.936 212.317 521.075 218.488 519.522 224.338C518.768 227.334 517.569 230.199 515.965 232.839C514.364 235.546 512.369 237.999 510.044 240.118C505.271 244.512 499.292 247.376 492.876 248.342C486.252 249.347 479.478 248.251 473.509 245.206C470.485 243.658 467.712 241.662 465.285 239.285C462.821 236.863 460.757 234.067 459.168 230.999C457.113 227.071 455.893 222.759 455.587 218.336C455.281 213.912 455.895 209.474 457.39 205.299C457.698 204.456 458.027 203.613 458.418 202.801C458.813 202.001 459.156 201.177 459.446 200.334C459.985 198.637 460.235 196.861 460.186 195.081V189.653L460.422 189.89L421.574 189.776L401.59 189.715H391.454H386.293C384.602 189.64 382.908 189.695 381.225 189.879C378.721 190.318 376.426 191.557 374.685 193.41C372.945 195.264 371.853 197.632 371.572 200.159C371.501 200.992 371.49 201.855 371.501 202.729V205.33C371.501 212.279 371.501 219.283 371.501 226.342C371.501 240.447 371.501 254.753 371.501 269.261V269.518H371.233C368.879 269.518 366.556 269.58 364.15 269.457H364.078L364.006 269.405C357.405 264.589 349.459 261.965 341.288 261.901C337.189 261.932 333.116 262.542 329.188 263.71C325.234 265.021 321.506 266.935 318.137 269.385C317.325 270.022 316.461 270.588 315.68 271.276L313.388 273.332C311.93 274.807 310.583 276.388 309.358 278.061C306.881 281.42 304.958 285.155 303.663 289.122C302.429 293.119 301.795 297.276 301.782 301.458C301.88 311.655 305.934 321.415 313.09 328.68C317.168 332.762 322.092 335.899 327.515 337.87C332.938 339.842 338.727 340.6 344.474 340.091C350.037 339.595 355.428 337.912 360.285 335.156C361.134 334.972 361.997 334.858 362.865 334.817C363.749 334.817 364.572 334.817 365.415 334.817H370.555V409.193C370.504 410.385 370.562 411.579 370.73 412.76C370.911 413.925 371.279 415.053 371.819 416.101C372.927 418.202 374.638 419.925 376.733 421.046C377.767 421.593 378.87 421.997 380.012 422.248C381.169 422.45 382.344 422.532 383.518 422.495H404.756H511.668H592.243C593.162 422.524 594.082 422.458 594.988 422.3C596.76 421.927 598.389 421.058 599.687 419.795C600.984 418.532 601.897 416.927 602.317 415.165C602.518 414.296 602.612 413.405 602.595 412.513V393.927C602.595 386.971 602.595 380.179 602.595 373.552C602.595 360.304 602.595 347.749 602.595 335.886V335.722H602.8C605.432 336.328 607.663 337.778 610.079 338.59C612.458 339.45 614.922 340.057 617.429 340.399C619.865 340.727 622.328 340.799 624.779 340.615C625.982 340.543 627.174 340.378 628.357 340.193C629.539 340.008 630.69 339.741 631.811 339.402C637.992 337.646 643.594 334.278 648.044 329.642C652.493 325.007 655.629 319.271 657.13 313.023C657.243 312.561 657.356 312.098 657.459 311.636L657.675 310.248L657.891 308.87C657.963 308.408 657.953 307.945 657.983 307.493C658.031 306.574 658.083 305.67 658.138 304.779C658.138 303.895 658.055 303.011 658.025 302.127C657.655 296.408 655.936 290.859 653.009 285.933C650.083 281.007 646.031 276.844 641.186 273.785C640.307 273.209 639.39 272.693 638.441 272.243L637.136 271.554C636.694 271.358 636.252 271.194 635.82 271.019C634.967 270.69 634.154 270.341 633.373 270.074L631.091 269.436C630.42 269.218 629.733 269.056 629.035 268.953L627.236 268.655C626.306 268.484 625.364 268.388 624.419 268.367L622.178 268.213Z" fill="#263238"/>
<path d="M365.425 281.711C365.425 281.711 368.889 279.932 371.942 280.6C374.995 281.269 386.077 288.495 386.077 288.495L395.011 286.83L400.315 312.078L365.425 326.531V281.711Z" fill="#FFD18D"/>
<path d="M339.725 290.49C339.725 290.49 347.712 289.462 350.601 288.033C353.49 286.604 360.388 280.467 361.827 280.58C363.266 280.693 368.509 281.69 368.509 281.69L366.391 288.033C366.391 288.033 376.846 294.375 379.961 296.709C383.076 299.043 392.862 309.497 393.325 312.057C393.787 314.617 392.996 317.618 391.772 318.616C390.549 319.613 386.098 317.588 386.098 317.588C386.269 318.376 386.266 319.192 386.088 319.978C385.91 320.765 385.563 321.503 385.07 322.142C383.405 324.372 379.519 323.591 379.519 323.591C379.519 323.591 379.179 327.261 377.401 327.929C375.623 328.598 371.613 326.593 371.613 326.593C371.613 326.593 370.411 329.677 368.961 330.037C367.512 330.397 363.389 327.981 363.389 327.981C363.389 327.981 345.595 315.192 341.596 313.301C337.597 311.409 336.363 311.296 336.363 311.296L339.725 290.49Z" fill="#FFBE9D"/>
<path d="M371.593 326.644C371.521 326.644 371.47 326.336 371.285 325.863C371.028 325.248 370.726 324.654 370.38 324.085C369.815 323.306 369.355 322.455 369.013 321.556C369.793 322.157 370.423 322.931 370.853 323.817C371.213 324.421 371.48 325.076 371.644 325.76C371.737 326.305 371.655 326.655 371.593 326.644Z" fill="#EB996E"/>
<path d="M378.985 324.485C378.156 323.419 377.404 322.296 376.733 321.124C375.52 319.273 374.215 318.04 374.307 317.917C375.506 318.616 376.499 319.619 377.186 320.826C378.009 321.922 378.619 323.164 378.985 324.485Z" fill="#EB996E"/>
<path d="M386.119 318.061C385.964 318.061 385.471 316.179 384.237 314.103C383.004 312.026 381.595 310.638 381.709 310.525C382.922 311.411 383.94 312.537 384.699 313.833C385.458 315.13 385.941 316.569 386.119 318.061Z" fill="#EB996E"/>
<path d="M380.907 304.183C381.611 306.109 381.704 308.205 381.175 310.186C380.991 309.197 380.922 308.19 380.969 307.184C380.84 306.189 380.819 305.182 380.907 304.183Z" fill="#EB996E"/>
<path d="M355.021 294.17C355.021 294.17 357.797 285.277 358.794 284.157C359.791 283.036 369.074 280.6 369.074 280.6L371.963 288.053L369.907 290.232L365.456 289.945C365.456 289.945 362.69 297.285 355.021 294.17Z" fill="#FFD18D"/>
<path d="M337.957 311.769C337.957 311.769 336.682 312.746 337.957 315.079C339.232 317.413 342.676 315.747 343.786 315.079C343.786 315.079 342.121 318.975 344.228 320.219C345.667 320.964 347.293 321.271 348.905 321.103C348.905 321.103 348.792 323.437 351.794 324.999C354.796 326.562 355.577 324.999 355.577 324.999C355.577 324.999 355.906 328.885 359.35 329.224C362.794 329.564 364.017 328.371 364.017 328.371L362.465 326.068C362.465 326.068 364.469 321.957 362.917 320.219C362.381 319.683 361.737 319.267 361.028 318.997C360.32 318.728 359.562 318.612 358.805 318.657C358.805 318.657 359.494 315.048 357.51 314.041C357.067 313.765 356.57 313.587 356.053 313.52C355.535 313.452 355.009 313.497 354.511 313.65C354.012 313.803 353.552 314.061 353.161 314.407C352.77 314.753 352.458 315.178 352.246 315.655C352.246 315.655 352.02 311.697 349.162 311.79C347.493 311.809 345.897 312.476 344.711 313.65L337.957 311.769Z" fill="#FFD18D"/>
<path d="M352.236 315.634C351.99 316.701 351.54 317.71 350.91 318.605C350.432 319.584 349.773 320.463 348.967 321.196C349.325 320.176 349.823 319.211 350.447 318.328C350.918 317.353 351.52 316.447 352.236 315.634Z" fill="#6B006D"/>
<path d="M358.867 319.14C358.599 320.267 358.082 321.321 357.355 322.224C356.774 323.225 355.981 324.088 355.032 324.753C356.262 322.852 357.54 320.984 358.867 319.15V319.14Z" fill="#6B006D"/>
<path d="M289.98 361.103H273.111L268.793 422.454H285.714C288.592 413.11 295.788 364.423 295.788 364.423L289.98 361.103Z" fill="#263238"/>
<path d="M194.448 361.103C194.448 361.103 183.644 386.423 184.723 396.672C185.803 406.921 191.868 422.454 191.868 422.454H275.424C277.189 415.464 278.561 408.38 279.536 401.236C281.345 388.571 286.197 361.144 286.197 361.144L194.448 361.103Z" fill="#263238"/>
<path d="M304.855 116.758C302.028 113.191 298.543 109.768 297.823 105.275C297.155 101.163 298.965 96.64 297.114 92.9392C294.832 88.3235 288.294 87.4291 285.457 83.1424C284.089 81.0864 283.76 78.4341 282.373 76.3473C280.07 72.7904 275.321 71.6493 271.065 71.8858C266.809 72.1222 262.758 73.438 258.513 73.582C252.694 73.7053 246.804 71.526 241.16 72.9138C234.93 74.4455 230.88 79.6986 226.655 84.7666L221.145 90.6159C220.033 91.6172 218.824 92.5056 217.537 93.2682C215.275 94.5737 212.726 95.427 210.752 97.1437C206.527 100.814 206.506 108.267 210.752 111.957C208.493 112.615 206.504 113.981 205.079 115.854C203.654 117.727 202.868 120.007 202.836 122.361C202.836 124.941 203.864 127.408 204.461 129.906C205.057 132.404 205.489 135.169 204.306 137.482C203.124 139.795 200.061 141.265 197.871 139.898C198.203 141.587 198.906 143.181 199.93 144.565C200.954 145.948 202.274 147.086 203.792 147.896C202.503 149.087 200.808 149.741 199.053 149.726C203.227 161.034 215.738 167.418 227.734 168.055C239.731 168.692 251.44 164.683 262.789 160.736L295.51 153.879C298.379 153.365 299.725 149.973 299.818 147.053C299.91 144.134 299.324 141.08 300.496 138.408C302.09 134.748 306.52 132.98 308.186 129.341C310.036 125.167 307.672 120.346 304.855 116.758Z" fill="#263238"/>
<path d="M226.995 142.632C225 135.22 223.037 127.757 222.348 120.109C221.659 112.46 222.348 104.565 225.329 97.4925C225.792 96.4645 229.626 89.2685 230.778 89.4639C231.6 89.5872 229.123 96.3001 229.503 97.0402C233.142 104.092 233.8 112.388 232.751 120.263C231.669 127.903 229.738 135.399 226.995 142.611" fill="#263238"/>
<path d="M227.745 113.344C228.104 94.09 239.618 78.2588 258.852 79.1634L260.62 79.3484C269.228 80.2454 277.181 84.3522 282.897 90.8506C288.612 97.3489 291.67 105.762 291.46 114.414C291.049 131.098 290.432 149.53 289.342 158.391C287.173 176.741 268.495 177.666 268.495 177.666L267.991 207.972L224.26 177.677L227.745 113.344Z" fill="#FFBE9D"/>
<path d="M268.464 177.666C259.983 176.748 251.942 173.419 245.293 168.075C245.293 168.075 249.6 183.598 268.104 183.876L268.464 177.666Z" fill="#EB996E"/>
<path d="M285.066 128.662C284.998 129.346 284.666 129.977 284.14 130.421C283.614 130.864 282.936 131.085 282.25 131.036C281.913 131.029 281.581 130.953 281.275 130.814C280.968 130.676 280.692 130.477 280.463 130.229C280.235 129.982 280.059 129.691 279.946 129.374C279.832 129.057 279.784 128.72 279.803 128.384C279.868 127.699 280.198 127.067 280.722 126.622C281.246 126.177 281.923 125.953 282.609 125.999C282.947 126.01 283.278 126.087 283.585 126.227C283.892 126.367 284.168 126.567 284.396 126.815C284.625 127.063 284.802 127.354 284.917 127.671C285.032 127.988 285.083 128.325 285.066 128.662Z" fill="#263238"/>
<path d="M286.701 121.63C286.341 121.939 284.511 120.253 281.684 119.965C278.857 119.677 276.637 120.87 276.37 120.489C276.236 120.325 276.637 119.739 277.603 119.173C278.917 118.462 280.416 118.168 281.9 118.33C283.371 118.478 284.754 119.095 285.848 120.088C286.65 120.87 286.876 121.497 286.701 121.63Z" fill="#263238"/>
<path d="M259.541 128.662C259.476 129.345 259.146 129.977 258.622 130.42C258.097 130.864 257.42 131.085 256.735 131.036C256.398 131.028 256.066 130.953 255.758 130.815C255.451 130.676 255.174 130.477 254.945 130.23C254.716 129.983 254.539 129.692 254.424 129.375C254.31 129.058 254.26 128.721 254.278 128.384C254.343 127.699 254.673 127.067 255.197 126.622C255.721 126.177 256.398 125.953 257.084 125.999C257.422 126.01 257.753 126.087 258.06 126.227C258.367 126.367 258.643 126.567 258.871 126.815C259.1 127.063 259.277 127.354 259.392 127.671C259.507 127.988 259.558 128.325 259.541 128.662Z" fill="#263238"/>
<path d="M258.924 119.842C258.564 120.15 256.724 118.474 253.897 118.186C251.07 117.899 248.86 119.091 248.593 118.711C248.459 118.536 248.85 117.96 249.826 117.395C251.138 116.678 252.638 116.384 254.123 116.552C255.591 116.701 256.974 117.313 258.071 118.3C258.863 119.071 259.099 119.718 258.924 119.842Z" fill="#263238"/>
<path d="M266.736 142.622C266.736 142.457 268.525 142.344 271.403 142.272C272.133 142.272 272.832 142.211 273.007 141.728C273.145 140.988 273.055 140.225 272.75 139.538C272.257 137.715 271.739 135.81 271.198 133.822C269.06 125.691 267.59 119.04 267.919 118.957C268.247 118.875 270.252 125.393 272.38 133.524C272.894 135.525 273.381 137.437 273.84 139.26C274.211 140.175 274.24 141.194 273.922 142.128C273.792 142.373 273.607 142.584 273.383 142.746C273.158 142.908 272.9 143.017 272.627 143.064C272.214 143.119 271.796 143.119 271.383 143.064C268.535 142.961 266.736 142.786 266.736 142.622Z" fill="#263238"/>
<path d="M258.245 143.701C258.708 143.701 258.389 146.785 260.784 149.232C263.18 151.679 266.48 151.699 266.459 152.131C266.459 152.326 265.667 152.645 264.28 152.542C262.483 152.373 260.803 151.58 259.53 150.301C258.314 149.066 257.621 147.409 257.598 145.675C257.618 144.38 258.04 143.66 258.245 143.701Z" fill="#263238"/>
<path d="M259.972 108.379C259.612 109.119 256.837 108.462 253.475 108.513C250.114 108.564 247.307 109.181 246.978 108.441C246.824 108.091 247.358 107.413 248.52 106.796C250.058 106.037 251.749 105.638 253.464 105.63C255.179 105.621 256.874 106.002 258.42 106.745C259.54 107.362 260.137 108.03 259.972 108.379Z" fill="#263238"/>
<path d="M286.526 112.121C285.96 112.707 284.079 111.833 281.746 111.556C279.412 111.278 277.387 111.556 276.996 110.816C276.832 110.466 277.212 109.86 278.137 109.346C279.376 108.741 280.766 108.516 282.132 108.699C283.499 108.881 284.78 109.464 285.816 110.374C286.577 111.145 286.772 111.833 286.526 112.121Z" fill="#263238"/>
<path d="M227.807 127.11C227.509 126.945 215.573 122.042 214.648 134.645C213.723 147.248 226.573 145.542 226.645 145.223C226.717 144.905 227.807 127.11 227.807 127.11Z" fill="#FFBE9D"/>
<path d="M223.119 140.165C223.119 140.114 222.892 140.299 222.512 140.443C221.972 140.624 221.383 140.591 220.867 140.35C219.572 139.775 218.606 137.575 218.708 135.292C218.757 134.215 219.045 133.161 219.551 132.208C219.699 131.824 219.939 131.48 220.248 131.208C220.558 130.936 220.929 130.743 221.33 130.646C221.586 130.598 221.851 130.641 222.079 130.769C222.306 130.897 222.482 131.101 222.574 131.345C222.718 131.705 222.625 131.951 222.687 131.982C222.748 132.013 222.975 131.787 222.913 131.263C222.865 130.943 222.709 130.649 222.471 130.43C222.142 130.144 221.714 129.996 221.278 130.019C220.753 130.083 220.253 130.281 219.826 130.594C219.399 130.908 219.061 131.325 218.842 131.808C218.229 132.86 217.876 134.045 217.814 135.262C217.711 137.811 218.842 140.289 220.621 140.946C220.955 141.073 221.314 141.122 221.67 141.09C222.026 141.058 222.37 140.946 222.677 140.761C223.077 140.463 223.16 140.186 223.119 140.165Z" fill="#EB996E"/>
<path d="M284.614 93.0003C286.732 91.9723 281.026 85.0025 276.164 82.4016C268.803 78.4747 257.362 75.6168 250.248 77.1485C241.674 78.9887 234.417 82.7306 229.688 90.1116C224.959 97.4927 222.81 106.323 222.492 115.082C222.389 117.755 222.492 120.551 223.767 122.905C225.35 125.804 228.619 127.778 228.218 131.612C228.122 132.304 228.164 133.007 228.34 133.683C228.516 134.358 228.824 134.993 229.246 135.549C231.394 138.15 234.386 136.022 235.815 133.802C238.899 129.032 239.587 123.162 240.194 117.518C240.626 113.509 241.057 109.407 240.194 105.47C239.711 103.332 238.847 101.276 238.487 99.1169C238.239 98.045 238.227 96.932 238.45 95.8547C238.674 94.7774 239.128 93.7615 239.783 92.8769C240.113 92.5006 240.478 92.1564 240.872 91.8489C242.731 90.428 244.933 89.5268 247.255 89.2377C249.576 88.9487 251.932 89.2822 254.082 90.2041C261.021 93.1751 272.905 97.7085 276.236 95.5086C281.016 92.3321 282.249 90.1425 282.249 90.1425L284.614 93.0003Z" fill="#263238"/>
<path d="M251.009 75.4728C258.092 73.6019 265.977 74.229 272.247 78.012C275.568 80.068 278.498 83.0801 279.31 86.8837C280.122 90.6873 278.23 95.1693 274.54 96.4029L274.283 96.5468C268.783 98.0066 265.339 97.0608 260.097 94.8609C255.676 93.0105 251.873 89.9676 247.421 88.1275C242.68 86.178 237.464 85.6912 232.443 86.7295C237.624 81.5483 243.936 77.3438 251.009 75.4728Z" fill="#263238"/>
<path d="M254.206 73.2833C254.638 73.2768 255.07 73.3216 255.491 73.417C256.647 73.6205 257.782 73.9267 258.883 74.3319C260.523 74.9412 262.083 75.7454 263.53 76.7271C265.319 77.9221 266.885 79.4217 268.156 81.1578C269.363 82.9416 270.224 84.9362 270.695 87.038C271.103 88.7257 271.364 90.4454 271.476 92.178C271.579 93.6583 271.579 94.8611 271.569 95.6835C271.584 96.1139 271.553 96.5446 271.476 96.9685C271.391 96.5456 271.354 96.1147 271.363 95.6835C271.312 94.8611 271.25 93.6275 271.096 92.2088C270.931 90.5001 270.639 88.8061 270.222 87.1408C269.734 85.1076 268.884 83.1787 267.714 81.4457C266.484 79.756 264.971 78.2918 263.242 77.1178C261.839 76.1333 260.329 75.3124 258.74 74.6711C257.253 74.1314 255.74 73.6682 254.206 73.2833Z" fill="#6B006D"/>
<path d="M265.812 72.5537C266.185 72.611 266.551 72.7111 266.901 72.8518C267.326 72.9801 267.742 73.1381 268.145 73.3247L269.718 74.1163C272.656 75.9233 274.945 78.6155 276.256 81.8057C276.635 82.7059 276.944 83.6338 277.181 84.5813C277.384 85.4678 277.521 86.368 277.592 87.2747C277.665 88.0915 277.682 88.9124 277.644 89.7316C277.592 90.4462 277.496 91.1569 277.356 91.8595C277.242 92.4397 277.084 93.0102 276.883 93.566C276.751 93.9876 276.582 94.3969 276.379 94.7893C276.228 95.1553 276.031 95.5007 275.793 95.8173C276.313 94.5308 276.712 93.199 276.986 91.839C277.094 91.1579 277.166 90.4716 277.202 89.783C277.215 88.9835 277.184 88.1838 277.109 87.3877C277.021 86.5091 276.876 85.637 276.677 84.7766C276.431 83.8633 276.126 82.9671 275.763 82.0935C274.488 79.0002 272.314 76.3608 269.523 74.5172L268.011 73.664C267.625 73.4593 267.227 73.2773 266.819 73.1191C266.458 72.98 266.118 72.7896 265.812 72.5537Z" fill="#6B006D"/>
<path d="M274.036 204.929C274.036 206.666 282.702 244.743 286.022 254.098C289.343 263.453 299.849 357.248 298.461 363.93C297.073 370.612 293.486 370.344 293.486 370.344C293.486 370.344 208.593 364.999 199.465 365.801C190.336 366.603 186.471 366.335 184.261 355.911C182.05 345.487 184.322 291.322 182.39 278.225C180.457 265.129 180.436 258.786 179.686 239.336C179.038 222.467 182.873 208.949 190.891 199.183C198.91 189.417 216.663 179.558 216.663 179.558L222.965 170.368L267.518 193.94L268.546 188.574L271.25 196.921L274.036 204.929Z" fill="#6B006D"/>
<g opacity="0.3">
<path opacity="0.3" d="M293.188 321C292.437 319.109 290.032 318.626 288.048 318.41C269.163 316.354 249.518 311.594 235.722 298.538C230.336 293.398 226.08 287.23 221.978 281.062C213.014 267.513 204.595 253.615 196.175 239.716L189.637 242.173C193.657 261.787 197.604 275.984 204.132 292.062C210.66 308.14 215.738 323.745 232.289 329.008C242.99 332.411 263.314 329.8 274.509 328.926C279.178 328.696 283.809 327.973 288.325 326.767C289.71 326.428 290.998 325.774 292.088 324.855C292.621 324.385 293.008 323.772 293.203 323.089C293.398 322.406 293.393 321.681 293.188 321Z" fill="black"/>
</g>
<path d="M187.303 237.033C187.787 237.907 225.566 318.605 242.435 321.926C259.305 325.246 311.733 326.038 321.961 324.074C332.19 322.111 342.202 320.343 342.202 320.343C342.202 320.343 349.614 302.743 342.85 287.755L328.766 288.197C328.766 288.197 289.61 286.079 284.079 284.568C278.549 283.057 273.799 277.876 268.793 278.153L238.981 208.835C238.981 208.835 219.624 190.856 205.797 196.386C191.971 201.917 183.243 229.837 187.303 237.033Z" fill="#6B006D"/>
<path d="M329.856 323.159C329.897 322.698 329.99 322.243 330.134 321.802C330.36 320.939 330.637 319.685 330.925 318.132C331.213 316.58 331.491 314.709 331.676 312.622C331.856 310.358 331.904 308.086 331.82 305.817C331.636 301.695 330.995 297.605 329.908 293.625C329.486 292.093 329.106 290.87 328.808 290.027C328.64 289.597 328.509 289.153 328.417 288.701C328.655 289.098 328.851 289.518 329.003 289.955C329.485 291.118 329.907 292.305 330.267 293.512C331.466 297.504 332.157 301.631 332.323 305.796C332.405 308.087 332.343 310.38 332.138 312.663C331.956 314.526 331.664 316.376 331.265 318.204C331.009 319.437 330.686 320.656 330.298 321.854C330.189 322.301 330.041 322.738 329.856 323.159Z" fill="#263238"/>
<path d="M238.981 208.856C238.981 208.856 239.176 209.267 239.547 210.079L241.13 213.698L247.205 227.576C252.407 239.614 259.88 256.935 269.009 278.081L268.803 277.958C271.153 278.027 273.439 278.738 275.413 280.014C277.469 281.145 279.453 282.461 281.633 283.458C283.882 284.419 286.283 284.975 288.726 285.103C291.204 285.401 293.732 285.617 296.302 285.843C306.582 286.686 317.469 287.364 328.808 287.991L342.891 287.539H343.066L343.138 287.693C345.278 292.799 346.221 298.327 345.893 303.853C345.647 309.551 344.48 315.172 342.439 320.497V320.63H342.295L333.341 322.285L323.534 324.095C320.295 324.681 317.017 325.025 313.727 325.123C307.209 325.411 300.795 325.441 294.483 325.411C288.171 325.38 281.982 325.226 275.917 324.999C269.852 324.773 263.931 324.475 258.143 324.033C255.254 323.827 252.407 323.55 249.59 323.241C246.82 322.973 244.072 322.513 241.366 321.864C240.078 321.353 238.87 320.66 237.778 319.808C236.694 318.984 235.664 318.092 234.694 317.135C232.833 315.276 231.085 313.305 229.462 311.234C223.652 303.636 218.349 295.662 213.59 287.364C204.738 272.232 198.344 259.557 193.955 250.798C191.775 246.409 190.12 242.986 189.01 240.652C187.9 238.318 187.355 237.085 187.355 237.085C187.355 237.085 187.519 237.383 187.807 237.979C188.095 238.575 188.547 239.46 189.113 240.611L194.14 250.706C198.591 259.434 205.026 272.078 213.918 287.169C218.662 295.426 223.944 303.362 229.729 310.926C231.343 312.98 233.08 314.933 234.931 316.775C235.873 317.717 236.876 318.596 237.933 319.407C238.989 320.236 240.159 320.908 241.407 321.401C244.098 322.033 246.828 322.479 249.58 322.738C252.376 323.046 255.224 323.313 258.112 323.519C263.879 323.951 269.811 324.259 275.866 324.475C281.921 324.691 288.12 324.835 294.37 324.866C300.62 324.897 307.086 324.866 313.583 324.568C316.849 324.465 320.103 324.121 323.318 323.54L333.115 321.73L342.079 320.075L341.874 320.24C343.891 314.977 345.047 309.423 345.297 303.792C345.599 298.343 344.653 292.896 342.532 287.868L342.778 288.022L328.695 288.464C317.387 287.817 306.469 287.138 296.179 286.275C293.609 286.048 291.039 285.822 288.592 285.524C287.338 285.38 286.105 285.226 284.881 284.99C283.662 284.763 282.48 284.372 281.366 283.828C279.145 282.8 277.151 281.474 275.115 280.353C273.211 279.124 271.007 278.438 268.742 278.369H268.598L268.536 278.236C259.479 257.049 252.088 239.706 246.948 227.658L241.037 213.749L239.505 210.11C239.176 209.277 238.981 208.856 238.981 208.856Z" fill="#263238"/>
<path d="M235.064 203.408C235.064 203.408 234.54 202.924 233.594 202.051C232.264 200.827 230.818 199.735 229.276 198.792C226.993 197.39 224.522 196.32 221.936 195.615C215.569 193.832 208.764 194.515 202.877 197.527C200.479 198.724 198.266 200.261 196.308 202.092C194.979 203.336 193.777 204.71 192.721 206.194C192.359 206.752 191.968 207.291 191.549 207.807C191.608 207.644 191.687 207.488 191.785 207.345C191.96 207.057 192.176 206.605 192.546 206.07C193.557 204.545 194.733 203.135 196.051 201.866C200.418 197.602 206.104 194.949 212.176 194.342C218.249 193.735 224.348 195.21 229.472 198.525C231.02 199.503 232.451 200.655 233.738 201.958C234.099 202.304 234.442 202.667 234.766 203.048C234.879 203.155 234.98 203.276 235.064 203.408Z" fill="#263238"/>
<path d="M268.68 278.226C268.222 280.231 267.585 282.192 266.779 284.085C266.137 286.038 265.333 287.932 264.373 289.749C264.831 287.747 265.468 285.789 266.275 283.9C266.915 281.944 267.72 280.046 268.68 278.226Z" fill="#263238"/>
<path d="M337.124 291.518C337.124 291.518 337.268 291.446 337.515 291.518C337.848 291.663 338.115 291.927 338.265 292.258C338.406 292.501 338.48 292.778 338.48 293.06C338.48 293.341 338.406 293.618 338.265 293.861C338.078 294.154 337.812 294.387 337.496 294.532C337.181 294.678 336.831 294.731 336.487 294.684C336.142 294.611 335.828 294.434 335.587 294.177C335.346 293.919 335.19 293.594 335.14 293.245C335.09 292.97 335.11 292.687 335.2 292.422C335.29 292.157 335.447 291.92 335.654 291.733C335.793 291.61 335.957 291.517 336.134 291.461C336.311 291.404 336.498 291.385 336.682 291.404C336.929 291.404 337.052 291.487 337.042 291.518C337.032 291.548 336.446 291.518 335.932 292.001C335.798 292.157 335.702 292.343 335.652 292.542C335.602 292.742 335.599 292.951 335.644 293.152C335.686 293.396 335.797 293.623 335.965 293.806C336.133 293.988 336.35 294.118 336.59 294.18C336.837 294.207 337.088 294.168 337.315 294.067C337.543 293.966 337.739 293.806 337.885 293.604C337.994 293.431 338.06 293.234 338.076 293.03C338.092 292.826 338.058 292.621 337.978 292.432C337.669 291.692 337.104 291.59 337.124 291.518Z" fill="#263238"/>
<path d="M268.588 196.623C268.231 196.478 267.887 196.303 267.56 196.098L264.743 194.484L264.949 194.402C264.394 197.209 263.849 201.341 262.893 206.296L262.821 206.625L262.543 206.45C258.431 203.839 253.435 200.858 248.151 197.661C244.204 195.297 240.513 192.912 237.121 190.856C233.729 188.8 230.573 187.031 227.951 185.561L221.711 182.087L220.015 181.141C219.817 181.031 219.625 180.911 219.439 180.781C219.659 180.843 219.87 180.932 220.067 181.049L221.804 181.912C223.315 182.673 225.474 183.793 228.136 185.232C230.799 186.672 233.934 188.399 237.388 190.372L248.45 197.157C253.744 200.354 258.73 203.325 262.842 206.008L262.492 206.152C263.469 201.238 264.075 197.096 264.713 194.299V194.114L264.877 194.207L267.622 195.924C267.963 196.13 268.286 196.364 268.588 196.623Z" fill="#263238"/>
<g opacity="0.3">
<path opacity="0.3" d="M225.73 184.102L248.984 201.434C254.124 205.248 259.336 209.123 265.432 211.066L265.072 194.885L262.697 206.193L225.73 184.102Z" fill="black"/>
</g>
<path d="M465.141 103.167C463.092 103.444 461.014 102.949 459.309 101.779C457.605 100.61 456.395 98.8482 455.916 96.8371C455.437 94.8261 455.723 92.7087 456.717 90.8961C457.711 89.0835 459.343 87.7048 461.296 87.0278C460.003 85.7472 459.145 84.0923 458.844 82.2973C458.543 80.5023 458.814 78.658 459.619 77.0255C460.424 75.3931 461.722 74.0551 463.329 73.2009C464.936 72.3466 466.771 72.0195 468.575 72.2657C468.614 70.4718 469.117 68.7188 470.037 67.1778C470.956 65.6368 472.259 64.3606 473.819 63.474C475.379 62.5873 477.142 62.1205 478.937 62.1191C480.731 62.1177 482.495 62.5818 484.056 63.4661C486.047 61.7766 488.546 60.8029 491.155 60.7004C493.763 60.5979 496.331 61.3726 498.448 62.9007C500.19 62.5432 502 62.7546 503.612 63.5037C505.224 64.2528 506.553 65.5 507.403 67.0614C508.253 68.6229 508.578 70.416 508.332 72.1766C508.086 73.9372 507.281 75.572 506.035 76.8403" fill="#263238"/>
<path d="M463.979 104.36C464.515 95.4887 468.369 87.1442 474.777 80.986C481.185 74.8278 489.676 71.3072 498.561 71.1245H500.391C520.159 71.875 530.563 89.0837 529.267 108.811L530.439 179.229L482.411 196.438L481.99 171.077C481.99 171.077 462.951 168.517 462.334 149.489C462.057 140.401 462.951 121.466 463.979 104.36Z" fill="#FFBE9D"/>
<path d="M481.836 171.056C490.635 170.875 499.197 168.174 506.508 163.274C506.508 163.274 500.936 177.05 481.97 175.723L481.836 171.056Z" fill="#FF9900" fill-opacity="0.7"/>
<path d="M469.314 121.517C469.322 122.223 469.605 122.898 470.102 123.399C470.599 123.899 471.271 124.187 471.977 124.2C472.323 124.221 472.67 124.172 472.997 124.057C473.324 123.941 473.624 123.761 473.88 123.527C474.136 123.293 474.342 123.01 474.487 122.695C474.631 122.38 474.711 122.039 474.722 121.692C474.714 120.986 474.431 120.312 473.934 119.811C473.437 119.31 472.765 119.022 472.059 119.009C471.713 118.99 471.367 119.039 471.041 119.156C470.715 119.272 470.415 119.452 470.159 119.686C469.904 119.919 469.697 120.202 469.552 120.516C469.407 120.831 469.326 121.171 469.314 121.517Z" fill="#263238"/>
<path d="M468.225 113.56C468.564 113.91 470.589 112.347 473.498 112.296C476.408 112.245 478.587 113.653 478.895 113.324C479.039 113.159 478.69 112.532 477.744 111.874C476.464 111.024 474.953 110.59 473.416 110.631C471.9 110.66 470.432 111.167 469.222 112.08C468.369 112.759 468.081 113.406 468.225 113.56Z" fill="#263238"/>
<path d="M495.878 121.517C495.886 122.224 496.17 122.899 496.67 123.398C497.169 123.898 497.844 124.182 498.551 124.19C498.896 124.211 499.242 124.162 499.568 124.047C499.894 123.932 500.194 123.753 500.45 123.52C500.706 123.287 500.913 123.005 501.058 122.692C501.203 122.378 501.284 122.038 501.295 121.692C501.285 120.985 501 120.311 500.502 119.81C500.003 119.309 499.329 119.022 498.623 119.009C498.277 118.991 497.932 119.042 497.606 119.159C497.28 119.275 496.981 119.456 496.726 119.689C496.47 119.922 496.264 120.204 496.118 120.518C495.973 120.832 495.891 121.172 495.878 121.517Z" fill="#263238"/>
<path d="M496.927 113.519C497.266 113.869 499.291 112.306 502.201 112.255C505.11 112.203 507.341 113.612 507.598 113.283C507.752 113.118 507.392 112.491 506.446 111.833C505.175 110.988 503.675 110.554 502.149 110.589C500.633 110.619 499.166 111.126 497.955 112.039C497.009 112.717 496.752 113.365 496.927 113.519Z" fill="#263238"/>
<path d="M486.781 135.354C486.781 135.19 484.971 134.912 482.031 134.604C481.281 134.542 480.571 134.408 480.438 133.905C480.362 133.136 480.52 132.362 480.89 131.684C481.558 129.865 482.247 127.963 482.946 125.969C485.845 117.837 487.922 111.155 487.593 111.042C487.264 110.929 484.653 117.426 481.754 125.557C481.068 127.559 480.404 129.474 479.759 131.304C479.312 132.213 479.199 133.25 479.441 134.234C479.558 134.487 479.73 134.712 479.945 134.89C480.161 135.067 480.413 135.195 480.685 135.262C481.098 135.364 481.523 135.413 481.949 135.406C484.94 135.549 486.729 135.529 486.781 135.354Z" fill="#263238"/>
<path d="M495.837 103.609C496.238 104.339 498.715 103.486 501.789 103.332C504.863 103.178 507.463 103.62 507.731 102.849C507.844 102.479 507.289 101.821 506.168 101.255C504.723 100.571 503.127 100.27 501.532 100.381C499.952 100.466 498.422 100.97 497.101 101.841C496.094 102.54 495.662 103.26 495.837 103.609Z" fill="#263238"/>
<path d="M467.69 103.239C468.318 103.897 470.703 103.157 473.601 103.065C476.5 102.972 478.957 103.404 479.502 102.695C479.749 102.355 479.348 101.667 478.258 101.101C476.762 100.371 475.107 100.028 473.444 100.103C471.781 100.179 470.163 100.67 468.739 101.533C467.732 102.242 467.413 102.931 467.69 103.239Z" fill="#263238"/>
<path d="M465.634 95.6219C465.634 95.6219 470.394 83.6355 476.068 80.7468C482.935 77.2516 486.071 84.7971 492.65 82.8028C499.229 80.8085 505.778 77.4675 512.634 82.443C520.149 87.8811 516.746 91.88 517.384 100.289C519.933 134.388 526.368 143.907 527.808 127.798C527.972 126.03 532.835 124.529 533.4 117.076C534.15 107.403 534.274 95.6836 531.981 88.8783C530.049 83.142 526.677 79.2151 520.673 74.9386C511.216 68.1949 498.417 68.308 489.751 69.3565C481.085 70.4051 464.534 80.7776 465.634 95.6219Z" fill="#263238"/>
<path d="M526.595 127.315C526.602 126.617 526.751 125.929 527.032 125.291C527.314 124.652 527.723 124.078 528.233 123.603C528.744 123.128 529.346 122.762 530.003 122.527C530.659 122.292 531.357 122.193 532.053 122.236C535.6 122.504 539.578 124.426 539.496 131.745C539.342 144.729 526.338 141.902 526.317 141.532C526.296 141.162 526.482 132.743 526.595 127.315Z" fill="#FFBE9D"/>
<path d="M529.206 136.68C529.206 136.68 529.432 136.834 529.812 137.019C530.353 137.238 530.958 137.238 531.498 137.019C532.876 136.536 534.058 134.367 534.14 132.034C534.19 130.92 533.986 129.809 533.544 128.785C533.429 128.378 533.216 128.005 532.924 127.699C532.632 127.392 532.27 127.162 531.868 127.027C531.608 126.957 531.332 126.978 531.086 127.089C530.841 127.2 530.641 127.392 530.522 127.634C530.347 127.994 530.429 128.261 530.357 128.281C530.285 128.302 530.08 128.055 530.193 127.521C530.271 127.201 530.456 126.918 530.717 126.719C530.894 126.584 531.096 126.486 531.312 126.431C531.527 126.376 531.752 126.366 531.971 126.4C532.504 126.513 532.999 126.762 533.408 127.122C533.817 127.482 534.126 127.942 534.305 128.456C534.843 129.588 535.097 130.833 535.045 132.085C534.932 134.696 533.565 137.133 531.683 137.657C531.335 137.751 530.969 137.766 530.614 137.702C530.258 137.638 529.922 137.496 529.627 137.287C529.227 136.989 529.155 136.701 529.206 136.68Z" fill="#FFBE9D"/>
<path d="M525.793 102.191C524.23 103.513 522.36 104.421 520.355 104.833C518.299 105.079 515.986 103.959 515.595 101.954C515.43 101.05 515.595 100.001 515.019 99.3123C514.444 98.6235 512.963 98.788 511.935 98.9217C510.042 99.1106 508.141 98.6413 506.553 97.5927C504.965 96.5441 503.787 94.9804 503.218 93.1649C502.293 94.6246 500.041 94.6041 498.571 93.6994C497.101 92.7948 496.125 91.2733 494.963 89.9883C493.801 88.7033 492.167 87.5725 490.46 87.8501C489.504 88.0043 488.62 88.6005 487.654 88.5286C485.947 88.4155 485.074 86.4726 484.786 84.7558C484.498 83.0391 484.251 81.0961 482.791 80.2121C481.332 79.328 479.707 79.9139 478.145 80.2121C476.582 80.5102 474.547 80.1504 474.115 78.629C474.04 78.2192 474.048 77.7984 474.14 77.392C474.232 76.9857 474.406 76.6021 474.65 76.2646C475.669 74.6724 477.197 73.4718 478.985 72.8578C480.773 72.2437 482.716 72.2524 484.498 72.8824C485.092 70.7097 486.317 68.762 488.018 67.2855C489.719 65.809 491.82 64.87 494.055 64.5872C496.289 64.3044 498.558 64.6906 500.573 65.6968C502.588 66.7031 504.26 68.2843 505.377 70.2405C506.731 68.9651 508.372 68.0349 510.162 67.5287C511.953 67.0225 513.838 66.9551 515.66 67.3324C517.481 67.7096 519.185 68.5203 520.627 69.6958C522.069 70.8713 523.206 72.3769 523.942 74.0852C525.522 73.6354 527.2 73.66 528.766 74.156C530.332 74.652 531.718 75.5974 532.751 76.8747C533.784 78.1521 534.418 79.7049 534.576 81.3401C534.733 82.9753 534.407 84.6207 533.636 86.0717C535.99 87.3567 538.036 89.6388 538.139 92.3219C538.242 95.005 535.682 97.7292 533.071 97.0815C533.635 98.1291 533.775 99.3534 533.461 100.501C533.148 101.649 532.405 102.632 531.387 103.248C530.369 103.863 529.153 104.063 527.991 103.807C526.829 103.551 525.81 102.858 525.145 101.872" fill="#263238"/>
<path d="M483.646 76.6655C483.63 76.7436 483.63 76.8239 483.646 76.902C483.646 77.0562 483.646 77.2926 483.738 77.5907C483.941 78.468 484.288 79.3053 484.766 80.0682C485.503 81.2836 486.509 82.314 487.706 83.0802C489.286 84.1228 491.164 84.6176 493.052 84.4886L492.826 84.2008C492.457 85.3897 492.575 86.6764 493.155 87.7782C493.759 88.9344 494.531 89.9946 495.447 90.9239C495.886 91.4632 496.382 91.9527 496.927 92.3836C497.543 92.7901 498.249 93.0374 498.983 93.1032C499.745 93.1951 500.518 93.0999 501.234 92.8258C501.951 92.5517 502.589 92.1071 503.095 91.5304L502.612 91.3968C502.82 92.7418 503.306 94.0286 504.041 95.1741C504.776 96.3197 505.742 97.2986 506.878 98.0479C508.128 98.9356 509.633 99.3937 511.165 99.3535C512.605 99.2519 514.017 98.9042 515.339 98.3255L514.989 98.1816C515.695 99.7374 516.78 101.091 518.145 102.119C518.769 102.644 519.504 103.022 520.294 103.225C521.084 103.428 521.91 103.45 522.71 103.291C524.067 102.97 525.3 102.259 526.258 101.245C527.215 100.231 527.854 98.9587 528.096 97.5853L527.809 97.7292C529.188 98.4308 530.769 98.6306 532.28 98.2946C533.41 98.0654 534.467 97.5683 535.364 96.8452C535.926 96.3927 536.406 95.8467 536.783 95.2312C536.915 95.0181 537.022 94.7904 537.102 94.5527C536.611 95.3658 535.977 96.0833 535.231 96.6704C534.348 97.3404 533.32 97.7913 532.229 97.9862C530.793 98.2731 529.301 98.0591 528.004 97.3797L527.757 97.2461V97.5236C527.506 98.8082 526.886 99.9918 525.973 100.93C525.06 101.868 523.894 102.521 522.617 102.808C521.895 102.945 521.151 102.919 520.439 102.732C519.728 102.546 519.067 102.203 518.505 101.728C517.22 100.749 516.202 99.4619 515.544 97.9862L515.442 97.7498L515.195 97.8423C513.926 98.3866 512.574 98.71 511.196 98.7984C509.78 98.8364 508.39 98.4104 507.238 97.5853C506.17 96.8778 505.259 95.956 504.566 94.8783C503.872 93.8006 503.41 92.5905 503.208 91.3248L503.116 90.708L502.715 91.1912C502.263 91.7024 501.694 92.0965 501.057 92.34C500.42 92.5835 499.733 92.669 499.055 92.5892C498.403 92.5327 497.775 92.3174 497.225 91.9622C496.712 91.5571 496.244 91.0988 495.827 90.5949C494.94 89.7056 494.189 88.6908 493.597 87.5829C493.326 87.0955 493.155 86.5587 493.095 86.0043C493.035 85.4499 493.087 84.8891 493.247 84.355L493.35 84.0363H493.021C491.216 84.1806 489.413 83.737 487.881 82.7718C486.71 82.0497 485.713 81.0773 484.961 79.9243C484.336 78.9234 483.89 77.8204 483.646 76.6655Z" fill="#6B006D"/>
<path d="M496.834 136.361C496.371 136.413 496.906 139.445 494.675 142.108C492.444 144.77 489.124 144.986 489.175 145.418C489.175 145.613 490.008 145.881 491.386 145.675C493.184 145.381 494.821 144.464 496.012 143.084C497.136 141.769 497.713 140.073 497.626 138.345C497.512 137.009 497.009 136.289 496.834 136.361Z" fill="#263238"/>
<path d="M390.827 283.992C392.472 283.334 446.802 276.796 446.802 276.796L468.842 258.128L466.786 312.16L397.417 318.842L390.827 283.992Z" fill="#FF9900"/>
<path opacity="0.3" d="M459.097 266.393C458.439 266.722 452.99 271.533 452.99 271.533L454.656 313.136L459.097 266.393Z" fill="black"/>
<path d="M551.658 364.228H459.898C459.898 364.228 464.751 390.123 466.55 402.048C467.559 408.943 469.04 415.761 470.98 422.454H554.094C554.094 422.454 560.262 407.414 561.383 397.782C562.503 388.15 551.658 364.228 551.658 364.228Z" fill="#263238"/>
<path d="M453.062 367.353C453.062 367.353 450.492 396.867 453.062 422.454H484.848V398.882L453.062 367.353Z" fill="#263238"/>
<path d="M470.723 222.641L480.612 201.054L481.835 187.69C481.835 187.69 500.802 175.765 509.797 171.242C516.67 167.972 523.727 165.106 530.933 162.658V175.282L470.723 222.641Z" fill="#EBEBEB"/>
<path d="M553.374 333.285C553.374 333.285 558.75 261.099 559.11 255.733C559.11 255.733 562.287 217.163 555.44 202.483C548.594 187.803 533.266 174.881 533.266 174.881L531.848 167.171L501.923 186.045L488.086 198.073C483.333 203.152 478.969 208.581 475.03 214.315C471.103 219.753 466.734 226.743 464.75 235.533C464.041 238.751 455.807 277.177 455.56 303.957C455.56 303.957 454.295 327.333 452.938 340.564C451.273 356.95 448.724 394.297 449.279 416.42L546.353 413.459C570.326 409.799 566.111 407.414 566.111 407.414L553.374 333.285Z" fill="#FF9900"/>
<path d="M530.933 175.282L530.264 175.59L528.28 176.413C527.437 176.824 526.409 177.358 525.196 177.985C523.983 178.612 522.657 179.445 521.228 180.463C513.289 186.062 506.123 192.684 499.918 200.159L499.866 200.231H499.784L490.471 201.948L490.676 201.712C490.532 206.039 490.378 210.573 490.214 215.271V215.374L490.131 215.456C485.182 220.09 480.606 225.109 476.449 230.465C474.719 232.711 473.153 235.078 471.761 237.548L471.247 238.463L470.867 239.419C470.594 240.049 470.357 240.694 470.157 241.351C469.746 242.667 469.335 243.973 468.996 245.289C467.567 250.531 466.374 255.651 465.264 260.523C463.064 270.279 461.224 279.099 459.692 286.501C456.608 301.325 454.933 310.525 454.933 310.525C454.976 309.96 455.048 309.397 455.148 308.839C455.313 307.74 455.591 306.115 455.961 304.028C456.721 299.865 457.852 293.851 459.322 286.429C460.792 279.007 462.601 270.187 464.791 260.421C465.881 255.538 467.063 250.418 468.492 245.155C468.831 243.829 469.242 242.513 469.664 241.187C469.862 240.516 470.099 239.857 470.373 239.213L470.774 238.185L471.288 237.25C472.688 234.737 474.272 232.332 476.027 230.054C480.22 224.705 484.829 219.697 489.813 215.076L489.73 215.261C489.895 210.563 490.059 206.009 490.214 201.701V201.506H490.409L499.723 199.82L499.589 199.902C505.837 192.415 513.076 185.813 521.105 180.278C522.544 179.25 523.952 178.541 525.124 177.841C526.296 177.142 527.386 176.711 528.208 176.32L530.213 175.549L530.933 175.282Z" fill="#263238"/>
<path d="M498.345 232.326L499.517 328.639L484.848 422.454H523.511C523.511 422.454 541.089 351.224 545.181 336.256C549.149 321.72 555.111 248.558 555.636 244.97C555.841 243.562 560.036 218.242 547.689 206.369" fill="#FF9900"/>
<path d="M547.689 206.369C547.689 206.369 547.977 206.636 548.501 207.17C549.27 207.984 549.978 208.854 550.619 209.771C552.998 213.359 554.638 217.385 555.44 221.614C556.734 228.31 556.983 235.165 556.18 241.937C555.594 245.875 555.307 250.1 554.885 254.592C554.464 259.084 554.042 263.844 553.59 268.809C552.665 278.781 551.626 289.709 550.372 301.428C549.725 307.277 549.056 313.342 548.224 319.572C547.506 326.003 546.37 332.38 544.821 338.662C538.355 364.362 531.251 392.714 523.778 422.485V422.691H484.539V422.393C489.967 387.79 494.984 355.85 499.26 328.588C498.952 299.423 498.695 275.347 498.51 258.55C498.438 250.161 498.376 243.603 498.335 239.11C498.335 236.89 498.335 235.183 498.335 233.97C498.335 232.757 498.335 232.233 498.335 232.233C498.335 232.233 498.335 232.819 498.397 233.97C498.458 235.122 498.448 236.849 498.489 239.11C498.551 243.593 498.654 250.161 498.787 258.55C499.003 275.347 499.332 299.423 499.723 328.588C495.467 355.86 490.471 387.8 485.094 422.413L484.837 422.105H523.5L523.243 422.3L544.338 338.487C545.887 332.225 547.027 325.869 547.751 319.459C548.583 313.24 549.262 307.174 549.92 301.325C551.195 289.616 552.253 278.709 553.209 268.727C553.675 263.738 554.118 258.999 554.536 254.51C554.978 250.038 555.286 245.762 555.872 241.845C556.693 235.105 556.478 228.279 555.235 221.604C554.457 217.381 552.854 213.353 550.516 209.751C549.895 208.829 549.208 207.953 548.46 207.129C547.946 206.667 547.689 206.369 547.689 206.369Z" fill="#263238"/>
<path d="M518.803 338.117C517.78 337.929 516.777 337.64 515.812 337.253C513.992 336.637 511.514 335.691 508.831 334.498C506.148 333.306 503.784 332.103 502.108 331.168C501.171 330.714 500.283 330.166 499.456 329.533C500.43 329.896 501.375 330.333 502.283 330.839C504 331.682 506.395 332.823 509.047 334.015C511.7 335.208 514.187 336.195 515.945 336.904C516.925 337.24 517.88 337.645 518.803 338.117Z" fill="#263238"/>
<path d="M452.599 344.501C452.588 344.419 452.588 344.336 452.599 344.254C452.599 344.049 452.599 343.812 452.599 343.514C452.599 342.825 452.682 341.879 452.754 340.677C452.908 338.179 453.134 334.632 453.411 330.263C454.008 321.474 454.851 309.333 456.043 295.948C457.236 282.564 458.593 270.444 459.713 261.706C460.268 257.337 460.741 253.8 461.101 251.364C461.276 250.182 461.42 249.246 461.522 248.558C461.574 248.27 461.615 248.033 461.646 247.838C461.654 247.753 461.674 247.67 461.707 247.591C461.707 247.591 461.707 247.674 461.707 247.838C461.707 248.003 461.707 248.28 461.635 248.578C461.564 249.267 461.45 250.202 461.317 251.395C461.019 253.883 460.607 257.419 460.093 261.757C459.065 270.505 457.77 282.605 456.578 295.99C455.385 309.374 454.522 321.515 453.802 330.294C453.453 334.653 453.165 338.189 452.969 340.697C452.867 341.89 452.774 342.835 452.712 343.524C452.712 343.822 452.661 344.059 452.64 344.254C452.642 344.338 452.628 344.422 452.599 344.501Z" fill="#263238"/>
<path d="M530.933 194.217C529.945 191.561 528.727 188.995 527.294 186.549C525.704 184.2 523.919 181.988 521.959 179.938C522.688 180.366 523.35 180.9 523.922 181.522C525.379 182.945 526.663 184.536 527.747 186.261C528.834 187.983 529.71 189.829 530.358 191.76C530.668 192.547 530.862 193.375 530.933 194.217Z" fill="#263238"/>
<path d="M462.683 313.887C462.785 314.105 462.817 314.349 462.776 314.586C462.709 315.249 462.41 315.868 461.933 316.333C461.576 316.692 461.125 316.943 460.632 317.056C460.139 317.168 459.624 317.139 459.147 316.971C458.577 316.776 458.077 316.419 457.708 315.943C457.317 315.422 457.114 314.784 457.132 314.133C457.131 313.326 457.391 312.54 457.872 311.892C458.11 311.584 458.421 311.34 458.777 311.183C459.147 311.049 459.414 310.977 459.723 310.885H459.795C460.455 310.864 461.106 311.051 461.655 311.419C462.067 311.723 462.37 312.153 462.519 312.643C462.678 313.04 462.734 313.472 462.683 313.897C462.611 313.897 462.56 313.445 462.262 312.746C462.098 312.328 461.811 311.969 461.439 311.718C460.942 311.428 460.369 311.292 459.795 311.327H459.866C459.589 311.43 459.229 311.533 458.972 311.635C458.7 311.77 458.464 311.967 458.283 312.211C457.886 312.774 457.671 313.445 457.667 314.133C457.657 314.65 457.811 315.157 458.106 315.582C458.401 316.006 458.823 316.327 459.311 316.498C459.708 316.65 460.139 316.69 460.556 316.612C460.974 316.534 461.361 316.341 461.676 316.056C462.125 315.663 462.439 315.137 462.57 314.555C462.663 314.133 462.632 313.897 462.683 313.887Z" fill="#263238"/>
<path d="M461.245 347.944C461.347 348.162 461.379 348.406 461.337 348.643C461.275 349.308 460.976 349.928 460.494 350.391C460.139 350.751 459.688 351.002 459.194 351.115C458.701 351.228 458.185 351.198 457.708 351.028C457.141 350.829 456.642 350.472 456.269 350C455.878 349.48 455.675 348.842 455.694 348.191C455.695 347.384 455.954 346.599 456.434 345.95C456.671 345.641 456.982 345.398 457.338 345.241C457.708 345.107 457.976 345.035 458.284 344.943H458.356C459.017 344.921 459.668 345.108 460.217 345.477C460.629 345.781 460.932 346.21 461.08 346.7C461.239 347.098 461.296 347.529 461.245 347.955C461.183 347.955 461.121 347.502 460.823 346.803C460.663 346.383 460.376 346.023 460.001 345.775C459.503 345.486 458.931 345.35 458.356 345.385H458.428C458.15 345.487 457.791 345.59 457.544 345.693C457.267 345.824 457.027 346.022 456.845 346.269C456.448 346.831 456.233 347.502 456.228 348.191C456.219 348.708 456.372 349.215 456.668 349.639C456.963 350.064 457.385 350.385 457.873 350.555C458.269 350.708 458.7 350.747 459.118 350.669C459.535 350.591 459.923 350.399 460.237 350.113C460.687 349.721 461 349.195 461.132 348.612C461.224 348.201 461.193 347.955 461.245 347.944Z" fill="#263238"/>
<path d="M543.341 200.674C543.29 200.766 542.015 199.944 539.754 199.08C538.419 198.576 537.043 198.187 535.642 197.919C533.947 197.603 532.225 197.452 530.502 197.466C528.773 197.501 527.052 197.701 525.362 198.062C523.985 198.373 522.636 198.799 521.332 199.337C519.101 200.262 517.847 201.116 517.785 201.023C518.041 200.775 518.328 200.56 518.638 200.386C518.965 200.145 519.308 199.929 519.666 199.738C520.143 199.463 520.634 199.213 521.136 198.988C522.459 198.389 523.836 197.917 525.248 197.579C528.693 196.75 532.279 196.701 535.744 197.435C537.152 197.74 538.528 198.174 539.856 198.731C540.366 198.939 540.864 199.176 541.347 199.44C541.726 199.616 542.091 199.822 542.437 200.057C542.764 200.221 543.069 200.429 543.341 200.674Z" fill="#263238"/>
<g opacity="0.3">
<path opacity="0.3" d="M458.644 290.767C462.828 284.671 464.37 278.925 466.611 271.872C469.931 261.397 470.856 249.565 476.078 239.891C479.162 234.196 482.76 228.357 488.106 224.698C493.452 221.038 494.089 216.607 493.986 204.364C497.718 204.364 501.655 201.526 502.118 201.023C504.298 198.57 505.865 195.635 506.692 192.459C504.081 195.307 499.722 200.015 499.722 200.015C499.722 200.015 490.275 201.773 490.409 201.711C490.183 206.42 490.172 210.563 489.936 215.271C489.936 215.271 471.812 234.505 470.404 238.37C468.996 242.235 458.644 290.767 458.644 290.767Z" fill="black"/>
</g>
<g opacity="0.3">
<path opacity="0.3" d="M525.937 410.827C548.912 367.353 556.047 310.186 554.721 255.733C554.721 255.733 548.131 321.926 545.9 333.285C543.67 344.645 525.937 410.827 525.937 410.827Z" fill="black"/>
</g>
<path d="M529.442 168.281C529.288 168.436 529.115 168.571 528.928 168.682L527.396 169.71L521.68 173.452L502.857 185.633L494.726 190.773L492.135 192.829C491.314 193.434 490.537 194.097 489.812 194.813C488.383 196.191 487.119 197.527 485.978 198.74L485.772 198.956L485.659 198.689L482.698 191.801C482.38 191.03 482.123 190.403 481.917 189.92C481.812 189.708 481.732 189.483 481.681 189.252C481.818 189.447 481.932 189.657 482.02 189.879C482.246 190.342 482.534 190.907 482.894 191.709L485.978 198.494L485.659 198.442C486.78 197.209 488.034 195.852 489.463 194.454C490.191 193.711 490.975 193.023 491.806 192.398L494.387 190.342L502.508 185.13L521.454 173.112L527.231 169.514L528.814 168.569C529.013 168.452 529.223 168.355 529.442 168.281Z" fill="#263238"/>
<path d="M46.056 123.594C45.9326 123.666 41.5636 116.079 36.29 106.663C31.0163 97.2463 26.8529 89.5568 26.9763 89.4849C27.0997 89.4129 31.4687 96.9893 36.7423 106.416C42.0159 115.843 46.1793 123.522 46.056 123.594Z" fill="#263238"/>
<path d="M60.8184 90.9038C60.9623 90.9038 60.7567 96.712 60.3558 103.867C59.9549 111.022 59.5231 116.809 59.3895 116.799C59.2558 116.789 59.4511 110.991 59.8521 103.836C60.253 96.6812 60.6745 90.8935 60.8184 90.9038Z" fill="#263238"/>
<path d="M35.4987 131.633C35.4473 131.766 30.5232 130.224 24.4888 128.179C18.4545 126.133 13.6023 124.385 13.6537 124.252C13.7051 124.118 18.619 125.66 24.6533 127.696C30.6877 129.731 35.5398 131.499 35.4987 131.633Z" fill="#263238"/>
<path d="M109.371 146.21C106.424 139.486 101.727 133.677 95.7684 129.388C89.81 125.1 82.8094 122.49 75.4979 121.832C68.1864 121.173 60.8322 122.49 54.2034 125.645C47.5747 128.799 41.9146 133.676 37.8144 139.765C33.7141 145.855 31.3242 152.933 30.8941 160.262C30.4641 167.59 32.0098 174.9 35.3697 181.427C38.7296 187.954 43.7805 193.459 49.9949 197.367C56.2092 201.275 63.3589 203.443 70.6972 203.644L74.8092 213.123L107.705 198.731C107.705 198.731 105.577 193.334 103.593 188.553C108.357 182.709 111.416 175.664 112.436 168.194C113.455 160.724 112.394 153.117 109.371 146.21Z" fill="#FF9900"/>
<path d="M102.833 200.858C102.833 200.858 102.73 200.704 102.565 200.416C102.401 200.129 102.134 199.687 101.815 199.121C101.157 197.97 100.201 196.274 98.9982 194.074C96.6235 189.664 93.262 183.218 89.592 175.045C88.6668 172.989 87.7211 170.851 86.7753 168.59C86.3024 167.459 85.8295 166.307 85.3361 165.135C84.779 163.951 84.4046 162.69 84.2258 161.394C84.1585 160.694 84.2607 159.989 84.524 159.338C84.6475 159.005 84.8368 158.701 85.0806 158.443C85.3243 158.185 85.6175 157.979 85.9426 157.837C86.2824 157.728 86.6416 157.692 86.9961 157.733C87.3507 157.774 87.6924 157.89 87.9986 158.073C88.6261 158.434 89.1391 158.965 89.4789 159.605C89.7947 160.268 89.9526 160.996 89.9401 161.731C89.9276 162.466 89.7451 163.188 89.407 163.84C88.7562 165.191 87.6996 166.306 86.3846 167.027C85.0431 167.779 83.5071 168.112 81.9745 167.983C80.4074 167.841 78.9148 167.249 77.6775 166.277C76.4054 165.312 75.3919 164.048 74.7271 162.596C74.3672 161.867 74.1376 161.081 74.0487 160.273C73.9207 159.436 74.1114 158.581 74.5832 157.878C74.8446 157.534 75.2025 157.277 75.6112 157.138C76.0189 157.005 76.4529 156.973 76.8756 157.045C77.7214 157.181 78.4984 157.593 79.0858 158.217C79.6702 158.825 80.1589 159.518 80.5353 160.273C80.9193 161.011 81.2625 161.769 81.5633 162.545C82.221 164.108 82.6403 165.761 82.8072 167.448C82.9984 169.174 82.7029 170.919 81.954 172.486C81.5678 173.255 81.0493 173.951 80.4223 174.542C79.787 175.14 79.0243 175.586 78.1915 175.847C77.3554 176.088 76.4728 176.12 75.6215 175.94C74.7826 175.747 73.9875 175.398 73.2777 174.912C71.8922 173.972 70.6698 172.812 69.6591 171.478C69.1451 170.841 68.6311 170.173 68.1993 169.504C67.7139 168.856 67.2841 168.169 66.9143 167.448C66.5364 166.7 66.3965 165.853 66.5134 165.022C66.5844 164.605 66.7535 164.21 67.0069 163.871C67.2618 163.538 67.6257 163.305 68.0349 163.213C68.4532 163.139 68.8841 163.197 69.2685 163.378C69.6433 163.538 69.9903 163.756 70.2965 164.025C70.8962 164.542 71.4159 165.145 71.8385 165.814C73.6962 168.338 74.6356 171.421 74.501 174.552C74.3642 176.026 73.8548 177.441 73.0207 178.664C72.2085 179.884 71.0159 180.802 69.6283 181.275C68.2622 181.678 66.7948 181.553 65.5163 180.926C64.2621 180.36 63.2212 179.41 62.5453 178.212C62.2145 177.63 61.9949 176.992 61.8977 176.33C61.7902 175.662 61.9134 174.977 62.2472 174.387C62.4293 174.095 62.7064 173.874 63.0321 173.762C63.3578 173.649 63.7123 173.653 64.0359 173.771C64.6355 174.004 65.1611 174.395 65.5574 174.901C66.2811 175.856 66.8917 176.891 67.3769 177.985L68.9189 181.069C72.9179 189.098 76.0327 195.646 78.1093 200.211C79.1373 202.493 79.9185 204.323 80.4325 205.495C80.6792 206.101 80.8746 206.523 81.0082 206.883L81.1933 207.355L80.9774 206.893C80.8437 206.574 80.6381 206.122 80.3811 205.515C79.8466 204.313 79.055 202.534 77.9962 200.262C75.9402 195.708 72.7534 189.18 68.7442 181.172C68.2405 180.144 67.7162 179.116 67.1919 178.088C66.72 176.991 66.1159 175.955 65.3929 175.004C65.0209 174.54 64.5309 174.185 63.9743 173.976C63.6989 173.877 63.398 173.875 63.1213 173.971C62.8447 174.066 62.6088 174.253 62.4528 174.501C62.1423 175.075 62.0406 175.74 62.165 176.382C62.2635 177.014 62.476 177.624 62.7921 178.181C63.4442 179.333 64.4498 180.245 65.6602 180.782C66.8847 181.382 68.2903 181.499 69.5974 181.111C70.9321 180.659 72.0762 179.772 72.8459 178.592C73.6581 177.396 74.1533 176.013 74.2851 174.572C74.4139 171.544 73.5195 168.56 71.7459 166.102C71.3368 165.453 70.8346 164.867 70.2553 164.364C69.9878 164.097 69.6652 163.892 69.3101 163.762C68.955 163.633 68.576 163.582 68.1993 163.614C67.8398 163.707 67.5181 163.909 67.2786 164.192C67.0391 164.476 66.8939 164.827 66.8629 165.197C66.7535 165.969 66.8864 166.756 67.2433 167.448C67.6 168.169 68.0197 168.857 68.4975 169.504C68.9601 170.173 69.4432 170.831 69.9572 171.458C70.9465 172.74 72.1332 173.858 73.473 174.768C74.1613 175.214 74.9236 175.534 75.7243 175.714C76.528 175.88 77.3598 175.852 78.1504 175.631C78.9375 175.359 79.6611 174.929 80.2777 174.369C80.8943 173.809 81.3911 173.13 81.7381 172.373C82.4612 170.853 82.7426 169.161 82.5502 167.49C82.3915 165.834 81.9825 164.212 81.3372 162.679C80.7934 161.135 79.9672 159.705 78.9008 158.464C78.3546 157.883 77.6317 157.5 76.8448 157.374C76.4691 157.289 76.0772 157.312 75.7137 157.439C75.3502 157.566 75.0297 157.793 74.7888 158.094C74.3587 158.737 74.1863 159.519 74.3057 160.283C74.3966 161.058 74.6154 161.811 74.9533 162.514C75.6214 163.935 76.6316 165.168 77.8934 166.102C79.0782 167.034 80.5049 167.609 82.0054 167.757C83.4835 167.883 84.9655 167.564 86.2613 166.842C87.5329 166.144 88.5539 165.066 89.1808 163.758C89.5002 163.142 89.6737 162.461 89.688 161.768C89.7022 161.075 89.5568 160.387 89.263 159.759C88.9423 159.163 88.4617 158.668 87.8752 158.33C87.5996 158.156 87.2888 158.046 86.9652 158.007C86.6416 157.967 86.3134 158.001 86.0043 158.104C85.4133 158.368 84.9512 158.856 84.7193 159.461C84.4797 160.064 84.3847 160.716 84.4417 161.363C84.616 162.634 84.9834 163.872 85.5314 165.033L86.95 168.497C87.8958 170.745 88.8279 172.893 89.7462 174.943C93.3956 183.167 96.7263 189.581 99.0702 194.012C100.252 196.222 101.188 197.918 101.835 199.08L102.555 200.396C102.75 200.694 102.833 200.858 102.833 200.858Z" fill="white"/>
<path d="M73.9457 200.766C73.7797 200.798 73.6111 200.815 73.442 200.817C73.1131 200.817 72.6196 200.879 71.9925 200.879C70.2155 200.905 68.439 200.799 66.6778 200.56C64.0607 200.223 61.4867 199.61 58.9986 198.731C50.3131 195.694 43.0134 189.628 38.4386 181.645C37.5526 180.107 36.7795 178.506 36.1256 176.855C35.8892 176.269 35.7453 175.827 35.6322 175.498C35.5731 175.34 35.5251 175.179 35.4883 175.015C35.567 175.164 35.6357 175.319 35.6939 175.477C35.8172 175.775 35.9817 176.238 36.2387 176.814C36.9297 178.44 37.7264 180.02 38.6237 181.542C39.9535 183.803 41.5067 185.924 43.26 187.875C46.8961 191.892 51.3262 195.111 56.2701 197.328C61.214 199.545 66.5642 200.712 71.9823 200.756C72.6094 200.756 73.1028 200.756 73.4317 200.756L73.9457 200.766Z" fill="#263238"/>
<path d="M33.9569 167.13C34.2193 167.789 34.3888 168.481 34.4606 169.186C34.6283 169.879 34.701 170.591 34.6765 171.304C34.4141 170.645 34.2446 169.953 34.1728 169.248C33.9993 168.556 33.9266 167.842 33.9569 167.13Z" fill="#263238"/>
<path d="M109.031 156.757C108.986 156.619 108.948 156.478 108.918 156.336C108.857 156.027 108.764 155.627 108.651 155.123C108.6 154.856 108.538 154.557 108.466 154.239C108.394 153.92 108.281 153.581 108.178 153.211C107.963 152.355 107.702 151.51 107.397 150.682L106.883 149.253C106.698 148.76 106.451 148.225 106.225 147.742C105.793 146.714 105.197 145.634 104.601 144.504C101.86 139.667 98.1292 135.464 93.6526 132.168C92.6246 131.448 91.5966 130.718 90.6302 130.173C90.1471 129.885 89.6845 129.577 89.2219 129.341L87.8649 128.652C87.0117 128.189 86.1893 127.891 85.4902 127.624C85.1304 127.48 84.8015 127.326 84.4622 127.213L83.609 126.925L82.4268 126.514C82.2864 126.477 82.1515 126.422 82.0259 126.349C82.1692 126.375 82.3101 126.413 82.4474 126.462L83.6398 126.812L84.5034 127.079C84.822 127.192 85.151 127.326 85.5314 127.47C86.2407 127.768 87.0734 128.056 87.9369 128.498L89.3041 129.166C89.777 129.402 90.2396 129.711 90.7433 129.988C91.8056 130.599 92.835 131.264 93.8273 131.983C98.358 135.274 102.118 139.511 104.847 144.401C105.441 145.466 105.98 146.56 106.461 147.68C106.677 148.204 106.924 148.708 107.109 149.202L107.613 150.641C107.903 151.463 108.15 152.301 108.353 153.149C108.445 153.529 108.548 153.869 108.62 154.177C108.692 154.485 108.733 154.794 108.774 155.061C108.864 155.575 108.935 155.986 108.99 156.295C109.018 156.447 109.031 156.602 109.031 156.757Z" fill="#263238"/>
<g opacity="0.2">
<path opacity="0.2" d="M58.5364 136.29C57.1897 134.994 54.9487 134.614 52.6048 134.902C49.2543 135.358 46.2185 137.116 44.1547 139.795C37.9867 147.567 35.6531 154.691 36.825 165.022C37.2157 168.517 38.9736 173.822 41.8108 176.176C42.5107 176.783 43.3289 177.238 44.2136 177.512C45.0984 177.786 46.0305 177.874 46.9508 177.769C51.731 177.142 53.2936 171.54 52.8824 167.027C52.4918 162.822 51.1245 158.494 52.4712 154.495C53.5917 151.196 56.357 148.78 58.2794 145.881C60.2017 142.982 61.0447 138.746 58.5364 136.29Z" fill="white"/>
</g>
<g opacity="0.2">
<path opacity="0.2" d="M72.9485 128.271C70.5122 126.472 66.6058 126.997 64.9713 128.806C64.3162 129.575 63.8437 130.482 63.5891 131.459C63.3345 132.437 63.3045 133.459 63.5012 134.45C63.7816 135.635 64.4067 136.711 65.2977 137.541C66.1886 138.372 67.3055 138.92 68.5076 139.117C69.7173 139.258 70.9409 139.014 72.004 138.42C73.0672 137.826 73.9157 136.911 74.4289 135.807C75.3952 133.576 74.9017 129.71 72.9485 128.271Z" fill="white"/>
</g>
<path d="M92.3882 228.193C93.4222 228.369 94.4259 228.691 95.3694 229.149C95.6932 229.323 96.0526 229.42 96.4198 229.432C96.787 229.444 97.1522 229.372 97.4871 229.221L104.107 226.312C104.472 226.153 104.793 225.907 105.04 225.595C105.288 225.283 105.454 224.915 105.526 224.523C105.684 223.458 106.212 222.483 107.017 221.768L92.3882 228.193Z" fill="#263238"/>
<path d="M77.1226 212.896C77.1842 213.03 83.2906 222.703 85.583 226.394C86.0439 227.151 86.687 227.781 87.4537 228.226C88.2204 228.672 89.0863 228.918 89.9726 228.943C90.6795 228.955 91.3807 228.815 92.0286 228.532L106.513 222.169C106.513 222.169 110.296 220.513 109.844 217.131C109.35 213.574 105.608 200.396 105.608 200.396L77.1226 212.896Z" fill="#E0E0E0"/>
<path d="M109.482 213.846L84.2841 225.012C83.8896 225.187 83.7115 225.648 83.8864 226.043L83.9238 226.127C84.0987 226.522 84.5602 226.7 84.9546 226.525L110.152 215.359C110.547 215.184 110.725 214.723 110.55 214.328L110.512 214.244C110.338 213.849 109.876 213.671 109.482 213.846Z" fill="#E0E0E0"/>
<path d="M110.152 215.343C110.327 215.243 110.465 215.087 110.543 214.901C110.584 214.788 110.598 214.666 110.583 214.547C110.569 214.427 110.527 214.313 110.46 214.212C110.389 214.07 110.273 213.956 110.129 213.887C109.986 213.818 109.824 213.799 109.669 213.832C108.291 214.408 106.276 215.353 103.789 216.453L84.3492 225.119C84.2502 225.161 84.1634 225.227 84.0969 225.312C84.0304 225.396 83.9863 225.496 83.9688 225.602C83.9435 225.707 83.9435 225.816 83.9688 225.921C84.0055 226.024 84.0574 226.121 84.123 226.209C84.1942 226.29 84.2835 226.352 84.3836 226.391C84.4837 226.431 84.5917 226.446 84.6987 226.435C84.9288 226.366 85.1524 226.276 85.3669 226.168L88.1014 224.955L93.2414 222.673L102 218.828L107.921 216.248L109.535 215.559L109.957 215.394C110.049 215.394 110.101 215.333 110.101 215.394L109.967 215.466L109.556 215.662L107.962 216.402L102.082 219.054L93.3442 222.95L88.2042 225.253L85.4697 226.466L85.1202 226.62C84.9957 226.68 84.8646 226.725 84.7295 226.754C84.5785 226.77 84.4259 226.749 84.2845 226.694C84.1432 226.638 84.0173 226.55 83.9174 226.435C83.8253 226.323 83.7555 226.194 83.7118 226.055C83.6709 225.91 83.6709 225.757 83.7118 225.613C83.7347 225.462 83.7959 225.319 83.8895 225.199C83.983 225.078 84.1059 224.984 84.2464 224.924L103.717 216.33C106.215 215.25 108.209 214.346 109.648 213.78C109.825 213.747 110.007 213.774 110.167 213.856C110.327 213.938 110.456 214.07 110.532 214.233C110.599 214.343 110.64 214.467 110.65 214.596C110.661 214.724 110.642 214.853 110.594 214.973C110.55 215.062 110.488 215.141 110.412 215.205C110.336 215.269 110.247 215.316 110.152 215.343Z" fill="#263238"/>
<path d="M108.574 210.349L82.3144 221.985C81.9199 222.16 81.7418 222.622 81.9166 223.016L81.9541 223.101C82.1289 223.495 82.5904 223.673 82.9849 223.498L109.244 211.862C109.639 211.687 109.817 211.225 109.642 210.831L109.605 210.746C109.43 210.352 108.968 210.174 108.574 210.349Z" fill="#E0E0E0"/>
<path d="M109.258 211.848C109.44 211.746 109.578 211.581 109.648 211.385C109.685 211.267 109.695 211.141 109.677 211.019C109.66 210.896 109.615 210.779 109.546 210.676C109.459 210.533 109.326 210.424 109.169 210.366C109.013 210.308 108.841 210.305 108.682 210.357L102.586 213.102L82.3859 222.097C82.2829 222.141 82.1934 222.212 82.1266 222.303C82.0598 222.393 82.0181 222.499 82.0056 222.611C81.9756 222.715 81.9756 222.825 82.0056 222.929C82.0402 223.041 82.1 223.143 82.1803 223.228C82.2613 223.305 82.3597 223.361 82.4672 223.391C82.5746 223.422 82.6879 223.425 82.7971 223.402C83.0027 223.33 83.27 223.197 83.4962 223.104L86.3334 221.84L91.7099 219.475L100.808 215.466L106.976 212.793L108.651 212.084L109.093 211.899L109.248 211.848L109.104 211.93L108.682 212.125L107.017 212.886L100.91 215.641L91.8435 219.702L86.4774 222.087L83.6401 223.341C83.3831 223.443 83.1878 223.557 82.8897 223.659C82.7374 223.694 82.5788 223.691 82.4281 223.65C82.2775 223.609 82.1393 223.531 82.0261 223.423C81.919 223.312 81.8382 223.179 81.7897 223.032C81.7276 222.887 81.7062 222.727 81.728 222.57C81.7489 222.413 81.81 222.264 81.9055 222.138C82.001 222.012 82.1276 221.913 82.2728 221.85L102.494 212.927C105.094 211.796 107.181 210.871 108.662 210.254C108.842 210.202 109.035 210.212 109.209 210.28C109.384 210.349 109.531 210.474 109.628 210.635C109.7 210.748 109.745 210.877 109.759 211.01C109.774 211.144 109.757 211.279 109.71 211.406C109.674 211.509 109.614 211.603 109.536 211.68C109.458 211.757 109.362 211.814 109.258 211.848Z" fill="#263238"/>
<path d="M107.498 206.941L80.5522 218.882C80.1577 219.057 79.9796 219.518 80.1544 219.913L80.1919 219.997C80.3667 220.392 80.8282 220.57 81.2227 220.395L108.168 208.454C108.563 208.279 108.741 207.818 108.566 207.423L108.529 207.339C108.354 206.944 107.892 206.766 107.498 206.941Z" fill="#E0E0E0"/>
<path d="M108.168 208.435C108.275 208.382 108.368 208.305 108.441 208.211C108.514 208.117 108.565 208.007 108.59 207.89C108.614 207.774 108.612 207.653 108.584 207.537C108.555 207.422 108.501 207.314 108.425 207.222C108.333 207.08 108.194 206.975 108.033 206.925C107.872 206.874 107.698 206.881 107.541 206.944L101.281 209.761L80.6075 219.013C80.5017 219.057 80.4101 219.129 80.343 219.221C80.2758 219.314 80.2357 219.423 80.2271 219.537C80.1924 219.648 80.1924 219.766 80.2271 219.877C80.2679 219.984 80.331 220.082 80.4122 220.164C80.4977 220.24 80.6014 220.292 80.7132 220.316C80.8249 220.339 80.9408 220.333 81.0495 220.298C81.2757 220.216 81.5327 220.092 81.7794 219.979L84.6887 218.694L90.1782 216.268L99.4918 212.156L105.783 209.412L107.5 208.682L107.952 208.497L108.106 208.435C108.106 208.435 108.055 208.435 107.963 208.517L107.521 208.733L105.824 209.504L99.6358 212.362L90.3838 216.474L84.8943 218.921L81.985 220.206L81.2346 220.534C81.0817 220.586 80.9179 220.594 80.7605 220.56C80.6031 220.526 80.4579 220.449 80.3402 220.339C80.227 220.233 80.1391 220.103 80.0832 219.959C80.0177 219.81 79.9929 219.647 80.0113 219.486C80.0267 219.326 80.0844 219.174 80.1783 219.043C80.2722 218.913 80.3991 218.811 80.5458 218.746L101.229 209.607L107.521 206.872C107.703 206.796 107.907 206.787 108.095 206.848C108.283 206.908 108.444 207.033 108.549 207.201C108.624 207.315 108.673 207.444 108.693 207.579C108.712 207.714 108.702 207.852 108.662 207.983C108.625 208.094 108.561 208.195 108.475 208.274C108.388 208.353 108.282 208.409 108.168 208.435Z" fill="#263238"/>
<path d="M106.608 203.435L78.5727 215.859C78.1782 216.034 78.0001 216.496 78.1749 216.89L78.2124 216.975C78.3872 217.369 78.8487 217.547 79.2432 217.372L107.279 204.949C107.674 204.774 107.852 204.312 107.677 203.918L107.639 203.833C107.464 203.439 107.003 203.261 106.608 203.435Z" fill="#E0E0E0"/>
<path d="M107.284 204.94C107.383 204.89 107.47 204.821 107.541 204.736C107.612 204.651 107.664 204.552 107.695 204.446C107.723 204.317 107.723 204.183 107.694 204.053C107.666 203.924 107.61 203.802 107.53 203.696C107.419 203.556 107.263 203.46 107.088 203.425C106.913 203.389 106.731 203.416 106.574 203.5L100.088 206.42L78.6128 215.97C78.5034 216.018 78.4092 216.096 78.3404 216.193C78.2716 216.291 78.2307 216.406 78.2222 216.525C78.2204 216.646 78.2452 216.766 78.295 216.876C78.3447 216.986 78.4182 217.084 78.51 217.163C78.6042 217.235 78.7162 217.279 78.8341 217.292C78.9519 217.305 79.0709 217.285 79.1782 217.235L79.9492 216.895L82.9613 215.569L88.6667 213.051L98.3196 208.795L104.847 205.947L106.626 205.186L107.088 205.001L107.253 204.94L107.099 205.022L106.646 205.238L104.889 206.05L98.4018 208.969L88.7592 213.266L83.0641 215.806L80.052 217.142L79.281 217.481C79.1299 217.548 78.9638 217.574 78.7994 217.556C78.6351 217.538 78.4785 217.477 78.3456 217.378C78.2179 217.275 78.1189 217.14 78.0577 216.988C77.9993 216.877 77.9643 216.756 77.9551 216.631C77.9459 216.507 77.9626 216.382 78.0041 216.264C78.0456 216.146 78.1111 216.038 78.1964 215.947C78.2817 215.856 78.385 215.783 78.4998 215.734L99.9849 206.255L106.502 203.408C106.676 203.324 106.873 203.302 107.061 203.347C107.248 203.392 107.414 203.501 107.53 203.655C107.614 203.769 107.671 203.9 107.697 204.038C107.724 204.177 107.72 204.32 107.685 204.456C107.633 204.625 107.524 204.771 107.376 204.868C107.349 204.896 107.318 204.92 107.284 204.94Z" fill="#263238"/>
<path d="M69.5562 205.577C69.6795 205.844 73.0513 211.91 74.7887 215.035C75.1075 215.601 75.5507 216.088 76.0849 216.458C76.6191 216.829 77.2304 217.073 77.8727 217.173L79.7745 217.481L107.767 205.145L108.795 203.562C109.155 203.016 109.385 202.395 109.467 201.746C109.549 201.098 109.481 200.439 109.268 199.82L105.783 189.633L69.5562 205.577Z" fill="#FF9900"/>
<g opacity="0.3">
<path opacity="0.3" d="M85.8711 226.024C88.857 225.359 91.755 224.349 94.5063 223.012C96.8913 221.984 99.2659 220.956 101.836 219.794C103.717 218.92 105.424 218.057 107.284 217.142C108.046 216.813 108.726 216.322 109.279 215.703L85.8711 226.024Z" fill="black"/>
</g>
<g opacity="0.3">
<path opacity="0.3" d="M83.4346 223.197C86.6264 222.426 89.7277 221.32 92.6866 219.897C95.2668 218.756 97.8266 217.707 100.592 216.432C102.648 215.487 104.467 214.562 106.472 213.585C107.292 213.233 108.031 212.715 108.641 212.063L83.4346 223.197Z" fill="black"/>
</g>
<g opacity="0.3">
<path opacity="0.3" d="M82.0156 219.958C85.2097 219.196 88.3118 218.089 91.2676 216.659C93.8376 215.517 96.4076 214.479 99.1729 213.194C101.229 212.259 103.049 211.333 105.053 210.357C105.869 209.997 106.606 209.48 107.222 208.835L82.0156 219.958Z" fill="black"/>
</g>
<g opacity="0.3">
<path opacity="0.3" d="M80.5972 216.731C83.7885 215.959 86.8897 214.853 89.8492 213.431C92.4192 212.29 94.9892 211.241 97.7545 209.967C99.8105 209.021 101.63 208.096 103.635 207.119C104.455 206.767 105.194 206.249 105.804 205.598L80.5972 216.731Z" fill="black"/>
</g>
<path opacity="0.3" d="M69.5562 205.577C69.6795 205.844 73.0513 211.91 74.7887 215.035C75.1075 215.601 75.5507 216.088 76.0849 216.458C76.6191 216.829 77.2304 217.073 77.8727 217.173L79.7745 217.481L107.767 205.145L108.795 203.562C109.155 203.016 109.385 202.395 109.467 201.746C109.549 201.098 109.481 200.439 109.268 199.82L105.783 189.633L69.5562 205.577Z" fill="black"/>
<path d="M109.165 201.516C109.165 201.578 101.733 204.919 92.4909 208.98C83.2492 213.04 75.7448 216.268 75.714 216.176C75.6831 216.083 83.1464 212.773 92.3881 208.712C101.63 204.652 109.134 201.444 109.165 201.516Z" fill="#263238"/>
<path d="M105.495 189.571C105.495 189.653 97.4462 193.313 87.4232 197.795C77.4002 202.277 69.2585 205.782 69.2276 205.711C69.1968 205.639 77.2769 201.979 87.2999 197.487C97.3229 192.994 105.465 189.499 105.495 189.571Z" fill="#263238"/>
<path d="M434.628 120.87L421.788 119.369C414.555 126.719 404.834 131.098 394.536 131.644C384.238 132.19 374.109 128.865 366.138 122.321C358.168 115.777 352.934 106.489 351.464 96.2819C349.995 86.0748 352.397 75.6872 358.198 67.1613C363.999 58.6353 372.78 52.5877 382.814 50.2073C392.848 47.827 403.409 49.286 412.422 54.2976C421.434 59.3093 428.246 67.511 431.519 77.2904C434.791 87.0698 434.287 97.7195 430.105 107.146L434.628 120.87Z" fill="white"/>
<path d="M434.629 120.87C434.629 120.87 434.516 120.562 434.31 119.965L433.416 117.334L430.003 107.167H430.229C430.217 107.178 430.204 107.187 430.189 107.194C430.174 107.2 430.158 107.203 430.142 107.203C430.125 107.203 430.109 107.2 430.094 107.194C430.079 107.187 430.066 107.178 430.054 107.167C430.038 107.144 430.03 107.117 430.03 107.09C430.03 107.062 430.038 107.035 430.054 107.013C432.818 100.716 433.966 93.8294 433.395 86.9769C433.216 84.8631 432.872 82.7665 432.367 80.7061C431.796 78.5101 431.065 76.3591 430.178 74.2708C426.646 66.0254 420.505 59.1677 412.698 54.7515C404.891 50.3353 395.849 48.6049 386.963 49.8264C378.077 51.0478 369.838 55.1533 363.512 61.5122C357.185 67.871 353.122 76.1313 351.947 85.0237C351.138 91.3363 351.785 97.7503 353.838 103.774C355.786 109.435 358.971 114.59 363.162 118.865C370.586 126.508 380.69 130.965 391.34 131.294H393.098C393.674 131.323 394.251 131.306 394.825 131.243L398.186 130.944C400.293 130.605 402.38 130.148 404.436 129.577C410.986 127.61 416.94 124.037 421.758 119.184C421.774 119.175 421.792 119.17 421.81 119.17C421.828 119.17 421.845 119.175 421.861 119.184L431.37 120.366L433.837 120.685L434.69 120.798L433.889 120.726L431.442 120.469L421.83 119.441H421.933C417.099 124.37 411.099 127.998 404.488 129.988C402.416 130.578 400.312 131.049 398.186 131.397L394.794 131.715C394.214 131.782 393.629 131.803 393.046 131.777H391.268C382.862 131.549 374.725 128.772 367.932 123.816C361.14 118.859 356.013 111.956 353.232 104.021C351.143 97.9199 350.481 91.4206 351.299 85.0237C352.168 78.3133 354.675 71.9198 358.598 66.4066C359.055 65.7053 359.564 65.0387 360.119 64.4123L361.713 62.4796L363.471 60.7115C364.039 60.1133 364.647 59.5536 365.29 59.0358L367.192 57.463C367.809 56.9284 368.539 56.5275 369.197 56.0546C369.855 55.5817 370.543 55.1191 371.253 54.7182L373.391 53.5669C379.002 50.6336 385.215 49.0397 391.545 48.91C397.278 48.8035 402.971 49.8825 408.268 52.0796C413.564 54.2767 418.349 57.5444 422.324 61.6778C425.8 65.2959 428.587 69.5182 430.548 74.1371C431.443 76.2471 432.175 78.4226 432.737 80.6444C433.247 82.7281 433.591 84.849 433.765 86.9871C434.287 93.9007 433.056 100.834 430.188 107.146L429.972 107.013C429.998 106.991 430.031 106.979 430.064 106.979C430.098 106.979 430.131 106.991 430.157 107.013C430.16 107.033 430.16 107.054 430.157 107.074C431.586 111.567 432.696 115.021 433.447 117.354C433.806 118.495 434.084 119.41 434.269 119.976C434.454 120.541 434.629 120.87 434.629 120.87Z" fill="#263238"/>
<path d="M373.452 91.3254L378.387 85.8667L388.852 94.2758L404.395 76.4194L409.484 81.3744L388.615 104.33L373.452 91.3254Z" fill="#263238"/>
<path d="M321.507 124.386L329.659 123.358C329.686 123.348 329.715 123.348 329.741 123.358C333.875 127.518 338.981 130.581 344.596 132.271C346.359 132.758 348.147 133.149 349.952 133.443L352.841 133.7C353.333 133.741 353.828 133.741 354.321 133.7H355.832C360.13 133.57 364.368 132.65 368.333 130.986C369.361 130.533 370.471 130.03 371.509 129.464L370.553 129.084C365.483 126.971 360.889 123.859 357.045 119.935C352.886 115.692 349.725 110.575 347.793 104.957C345.756 98.9933 345.106 92.6438 345.891 86.3911C346.756 79.8103 349.227 73.5436 353.087 68.1441C353.544 67.4606 354.045 66.8081 354.588 66.1909L356.151 64.2994L356.819 63.6209H355.668C350.814 63.5266 345.993 64.4336 341.506 66.2855C337.019 68.1373 332.961 70.8942 329.587 74.3841C326.616 77.4269 324.226 80.9875 322.535 84.8903C321.771 86.6807 321.142 88.526 320.654 90.4106C318.805 97.9415 319.503 105.872 322.638 112.965C322.65 112.985 322.656 113.008 322.656 113.032C322.656 113.055 322.65 113.078 322.638 113.099L319.729 121.744C319.4 122.772 319.143 123.481 318.958 124.006C318.773 124.53 318.69 124.777 318.69 124.777L319.42 124.674L321.507 124.386Z" fill="#F5F5F5"/>
<path d="M321.507 124.386C321.507 124.386 321.271 124.437 320.798 124.509L318.67 124.817H318.567V124.714C319.369 122.309 320.685 118.32 322.443 113.006V112.944C322.443 112.944 322.443 113.016 322.443 112.944L322.371 112.779L322.227 112.44L321.949 111.751C321.754 111.289 321.59 110.806 321.405 110.312C321.065 109.284 320.757 108.256 320.479 107.228C319.89 104.903 319.546 102.522 319.451 100.125C319.334 97.4387 319.527 94.748 320.027 92.1063C320.305 90.6874 320.668 89.2867 321.117 87.9121C321.562 86.4709 322.115 85.0654 322.772 83.7076C325.574 77.6771 330.03 72.5653 335.622 68.9661C341.888 64.9322 349.264 62.9721 356.706 63.3635H357.292L356.881 63.7747L356.213 64.4531C351.294 69.9567 347.927 76.6693 346.457 83.9029C344.632 93.2192 346.152 102.881 350.75 111.187C355.347 119.492 362.728 125.91 371.592 129.31L372.095 129.495L371.622 129.721C369.829 130.659 367.97 131.466 366.061 132.137C364.236 132.746 362.366 133.21 360.469 133.524C356.984 134.068 353.44 134.117 349.942 133.668C348.749 133.422 347.588 133.226 346.457 132.98C345.357 132.722 344.272 132.403 343.209 132.024C341.261 131.342 339.376 130.492 337.575 129.484C334.693 127.876 332.055 125.865 329.742 123.512C329.742 123.419 329.505 123.512 329.351 123.512L328.868 123.563L327.953 123.676L326.288 123.872L323.677 124.17L322.083 124.344C321.713 124.344 321.528 124.344 321.528 124.344L322.073 124.252L323.666 124.026L326.267 123.676L327.932 123.46L328.847 123.337L329.331 123.275H329.577C329.628 123.263 329.681 123.263 329.731 123.275C329.765 123.263 329.801 123.263 329.834 123.275H329.886C332.21 125.585 334.847 127.557 337.719 129.135C341.544 131.25 345.726 132.643 350.055 133.247C351.738 133.434 353.43 133.527 355.123 133.524C356.921 133.51 358.715 133.355 360.489 133.062C362.363 132.746 364.209 132.282 366.01 131.674C367.889 131 369.72 130.196 371.489 129.269V129.68C362.526 126.266 355.055 119.798 350.391 111.417C345.727 103.036 344.171 93.2781 345.994 83.8618C347.475 76.5369 350.886 69.7406 355.873 64.1756L356.552 63.4971L356.727 63.9494C349.795 63.5648 342.905 65.2533 336.937 68.7997C330.968 72.346 326.191 77.5896 323.214 83.8618C322.564 85.1895 322.014 86.564 321.569 87.9738C321.117 89.3201 320.749 90.6934 320.469 92.0858C319.505 97.0427 319.631 102.15 320.839 107.053C321.107 108.081 321.405 109.171 321.734 110.137C321.908 110.621 322.073 111.104 322.258 111.566L322.535 112.255L322.679 112.584L322.741 112.749C322.773 112.801 322.785 112.862 322.776 112.922C322.766 112.983 322.736 113.038 322.69 113.078V113.016C320.87 118.331 319.523 122.33 318.67 124.673L318.608 124.601L320.747 124.344L321.507 124.386Z" fill="#263238"/>
<path d="M650.639 67.8496H637.851C635.324 67.8496 633.276 69.8977 633.276 72.4242V142.338C633.276 144.865 635.324 146.913 637.851 146.913H650.639C653.166 146.913 655.214 144.865 655.214 142.338V72.4242C655.214 69.8977 653.166 67.8496 650.639 67.8496Z" fill="#6B006D"/>
<path d="M581.753 114.387H569.273C566.661 114.387 564.544 116.504 564.544 119.116V145.556C564.544 148.167 566.661 150.284 569.273 150.284H581.753C584.364 150.284 586.481 148.167 586.481 145.556V119.116C586.481 116.504 584.364 114.387 581.753 114.387Z" fill="#6B006D"/>
<path d="M615.317 94.8652H603.495C600.702 94.8652 598.438 97.1297 598.438 99.923V145.217C598.438 148.01 600.702 150.274 603.495 150.274H615.317C618.111 150.274 620.375 148.01 620.375 145.217V99.923C620.375 97.1297 618.111 94.8652 615.317 94.8652Z" fill="#6B006D"/>
<path d="M647.103 41.728C646.955 41.9804 646.779 42.215 646.578 42.4271L644.944 44.3494L638.776 51.4426L617.239 75.6931L617.003 75.9707L616.694 75.7651L603.228 66.9757L603.803 66.8935L603.289 67.5C592.197 80.5042 582.164 92.2851 574.824 100.9L574.629 101.116L574.403 100.941L563.701 92.9944L560.864 90.7945C560.514 90.5585 560.19 90.2863 559.897 89.9823C560.258 90.1803 560.602 90.4072 560.925 90.6608L563.907 92.7168L574.773 100.447H574.361L602.631 66.8832L603.145 66.2767L603.402 65.9785L603.721 66.1944L617.167 75.0147L616.622 75.0866L638.365 51.0417L644.738 44.1027L646.476 42.2729C646.662 42.0669 646.873 41.884 647.103 41.728Z" fill="#263238"/>
<path d="M647.792 58.4226C647.549 56.7516 647.45 55.063 647.493 53.3751C647.411 50.2911 647.36 45.9324 647.36 41.1419L647.863 41.5737L647.432 41.6457C642.6 42.4372 638.18 43.1157 635.044 43.5577C633.35 43.8841 631.63 44.0629 629.904 44.0923C631.56 43.5727 633.255 43.1877 634.972 42.9409C638.128 42.3447 642.487 41.5737 647.308 40.7821L647.75 40.7102L648.254 40.6279V41.1419C648.254 45.9324 648.254 50.25 648.12 53.3751C648.165 55.0641 648.055 56.7536 647.792 58.4226Z" fill="#263238"/>
</svg>
