<svg width="283" height="327" viewBox="0 0 283 327" fill="none" xmlns="http://www.w3.org/2000/svg">
<path d="M273.413 176.278H5V176.412H273.413V176.278Z" fill="#EBEBEB"/>
<path d="M50.9418 184.897H33.1621V185.031H50.9418V184.897Z" fill="#EBEBEB"/>
<path d="M101.537 186.354H77.6484V186.488H101.537V186.354Z" fill="#EBEBEB"/>
<path d="M89.2818 179.926H51.4785V180.06H89.2818V179.926Z" fill="#EBEBEB"/>
<path d="M246.517 180.826H239.705V180.96H246.517V180.826Z" fill="#EBEBEB"/>
<path d="M234.923 180.826H215.151V180.96H234.923V180.826Z" fill="#EBEBEB"/>
<path d="M170.52 183.086H153.814V183.221H170.52V183.086Z" fill="#EBEBEB"/>
<path d="M132.228 152.387H28.5726C27.7606 152.385 26.9823 152.062 26.4086 151.489C25.8349 150.915 25.5127 150.138 25.5127 149.328V3.92915C25.5198 3.1235 25.8451 2.35317 26.418 1.78549C26.9909 1.2178 27.7652 0.898597 28.5726 0.897217H132.228C133.041 0.897217 133.821 1.21947 134.396 1.79309C134.971 2.36671 135.294 3.14471 135.294 3.95593V149.328C135.294 150.139 134.971 150.917 134.396 151.491C133.821 152.064 133.041 152.387 132.228 152.387ZM28.5726 1.00435C27.7962 1.00577 27.052 1.31454 26.5035 1.8629C25.955 2.41125 25.6469 3.15437 25.6469 3.92915V149.328C25.6469 150.103 25.955 150.846 26.5035 151.394C27.052 151.942 27.7962 152.251 28.5726 152.253H132.228C133.005 152.251 133.75 151.943 134.299 151.394C134.849 150.846 135.158 150.103 135.159 149.328V3.92915C135.158 3.15388 134.849 2.41077 134.299 1.86257C133.75 1.31437 133.005 1.00577 132.228 1.00435H28.5726Z" fill="#EBEBEB"/>
<path d="M248.349 152.387H144.687C143.875 152.385 143.096 152.062 142.521 151.489C141.947 150.916 141.623 150.139 141.622 149.328V3.92915C141.631 3.12301 141.957 2.35269 142.531 1.78515C143.105 1.21761 143.879 0.898582 144.687 0.897217H248.349C249.155 0.900005 249.928 1.21983 250.5 1.78737C251.071 2.3549 251.396 3.12443 251.403 3.92915V149.328C251.403 150.137 251.082 150.914 250.509 151.487C249.937 152.06 249.16 152.384 248.349 152.387ZM144.687 1.00435C143.91 1.00577 143.166 1.31437 142.616 1.86257C142.067 2.41077 141.758 3.15388 141.756 3.92915V149.328C141.758 150.103 142.067 150.846 142.616 151.394C143.166 151.943 143.91 152.251 144.687 152.253H248.349C249.125 152.251 249.87 151.943 250.42 151.394C250.969 150.846 251.278 150.103 251.28 149.328V3.92915C251.278 3.15388 250.969 2.41077 250.42 1.86257C249.87 1.31437 249.125 1.00577 248.349 1.00435H144.687Z" fill="#EBEBEB"/>
<path d="M159.611 171.596C176.498 171.596 190.188 157.935 190.188 141.084C190.188 124.232 176.498 110.572 159.611 110.572C142.723 110.572 129.033 124.232 129.033 141.084C129.033 157.935 142.723 171.596 159.611 171.596Z" fill="#FAFAFA"/>
<path d="M172.908 147.078C117.959 151.31 31.3633 176.278 31.3633 176.278H247.167C254.372 169.1 231.599 142.552 172.908 147.078Z" fill="#F0F0F0"/>
<path d="M194.538 133.863L189.4 151.631H199.675L194.538 133.863Z" fill="#F5F5F5"/>
<path d="M182.405 137.27L178.422 151.037H186.388L182.405 137.27Z" fill="#F5F5F5"/>
<path d="M208.651 138.486L204.668 152.253H212.634L208.651 138.486Z" fill="#F5F5F5"/>
<path d="M200.502 143.387L196.519 157.154H204.485L200.502 143.387Z" fill="#F5F5F5"/>
<path d="M170.917 137.677L165.779 155.445H176.054L170.917 137.677Z" fill="#F5F5F5"/>
<path d="M158.784 141.084L154.801 154.851H162.767L158.784 141.084Z" fill="#F5F5F5"/>
<path d="M176.559 146.564L172.576 160.325H180.543L176.559 146.564Z" fill="#F5F5F5"/>
<path d="M145.61 144.748L142.416 155.799H148.81L145.61 144.748Z" fill="#F5F5F5"/>
<path d="M132.459 147.496L129.018 159.393H135.9L132.459 147.496Z" fill="#F5F5F5"/>
<path d="M119.306 149.917L116.112 160.968H122.506L119.306 149.917Z" fill="#F5F5F5"/>
<path d="M139.206 154.717L136.286 164.804H142.127L139.206 154.717Z" fill="#F5F5F5"/>
<path d="M109.998 154.545L107.738 162.361H112.264L109.998 154.545Z" fill="#F5F5F5"/>
<path d="M157.352 159.763L155.092 167.578H159.612L157.352 159.763Z" fill="#F5F5F5"/>
<path d="M122.727 162.897L120.467 170.712H124.987L122.727 162.897Z" fill="#F5F5F5"/>
<path d="M189.969 155.488L187.049 165.575H192.884L189.969 155.488Z" fill="#F5F5F5"/>
<path d="M97.1565 156.624L94.8965 164.439H99.4166L97.1565 156.624Z" fill="#F5F5F5"/>
<path d="M103.577 161.563L101.317 169.378H105.843L103.577 161.563Z" fill="#F5F5F5"/>
<path d="M87.8223 159.763L86.0078 166.036H89.6368L87.8223 159.763Z" fill="#F5F5F5"/>
<path d="M78.54 162.093L76.5859 168.848H80.494L78.54 162.093Z" fill="#F5F5F5"/>
<path d="M66.8965 163.668L65.082 169.946H68.711L66.8965 163.668Z" fill="#F5F5F5"/>
<path d="M65.8761 36.7875H118.888C118.888 36.7875 122.42 14.1123 102.74 21.4297C102.74 21.4297 99.1593 0.361518 77.5091 13.3945C55.8589 26.4275 60.5078 36.7875 65.8761 36.7875Z" fill="#FAFAFA"/>
<path d="M226.457 49.5313C226.457 49.5313 222.377 22.71 198.51 43.1032C198.51 43.1032 189.716 34.1145 175.496 52.5472C175.496 52.5472 173.123 43.4996 162.779 50.4473C156.31 54.797 154.817 63.3357 154.817 63.3357H230.365C230.365 63.3357 241.327 45.487 226.457 49.5313Z" fill="#FAFAFA"/>
<path d="M61.775 71.7352C61.775 71.7352 60.041 60.3467 49.9111 69.0032C49.9111 69.0032 46.1533 65.1838 40.1409 73.0101C40.1409 73.0101 39.1317 69.1693 34.7726 72.1155C32.0241 73.9636 31.3906 77.5901 31.3906 77.5901H63.4606C63.4606 77.5901 68.0827 69.9996 61.775 71.7352Z" fill="#FAFAFA"/>
<path d="M139.206 200.469C196.691 200.469 243.292 197.754 243.292 194.405C243.292 191.056 196.691 188.341 139.206 188.341C81.7216 188.341 35.1211 191.056 35.1211 194.405C35.1211 197.754 81.7216 200.469 139.206 200.469Z" fill="#F5F5F5"/>
<path d="M66.6486 162.002H134.503C135.314 162.01 136.118 161.85 136.864 161.532C137.61 161.215 138.282 160.746 138.837 160.156C139.392 159.566 139.818 158.867 140.088 158.104C140.359 157.342 140.468 156.531 140.409 155.724L133.092 37.3232C132.963 35.6343 132.207 34.0542 130.972 32.8927C129.736 31.7313 128.111 31.0723 126.413 31.0451H58.5533C57.7426 31.0378 56.9391 31.1982 56.1937 31.5163C55.4482 31.8343 54.7769 32.3031 54.222 32.8929C53.6672 33.4828 53.2409 34.1811 52.97 34.9436C52.6991 35.7061 52.5895 36.5163 52.6482 37.3232L59.9705 155.708C60.0925 157.4 60.8461 158.986 62.0825 160.151C63.3189 161.316 64.9481 161.977 66.6486 162.002Z" fill="#263238"/>
<path d="M54.9247 73.7493H55.9125C56.091 73.7512 56.268 73.7162 56.4323 73.6463C56.5965 73.5764 56.7444 73.4732 56.8666 73.3433C56.9887 73.2133 57.0825 73.0594 57.1419 72.8914C57.2013 72.7234 57.225 72.5449 57.2116 72.3672L56.1057 54.5131C56.0789 54.1407 55.9127 53.7919 55.6403 53.5359C55.3679 53.28 55.009 53.1355 54.6348 53.1311H53.6739C53.4952 53.1291 53.3179 53.1642 53.1535 53.234C52.989 53.3039 52.8407 53.407 52.7182 53.5368C52.5956 53.6667 52.5013 53.8205 52.4413 53.9885C52.3813 54.1565 52.3568 54.3352 52.3694 54.5131L53.4753 72.3672C53.503 72.7356 53.6665 73.0807 53.9341 73.3359C54.2018 73.5911 54.5547 73.7384 54.9247 73.7493Z" fill="#263238"/>
<path d="M134.267 62.3554H135.448C135.621 62.3566 135.792 62.3221 135.951 62.2541C136.11 62.1861 136.252 62.086 136.37 61.9602C136.488 61.8344 136.579 61.6856 136.637 61.5231C136.694 61.3607 136.717 61.1881 136.705 61.0162L136.216 53.3935C136.191 53.0329 136.03 52.6951 135.767 52.447C135.503 52.199 135.156 52.0588 134.794 52.0543H133.634C133.461 52.0524 133.289 52.0863 133.13 52.154C132.971 52.2217 132.827 52.3216 132.709 52.4475C132.59 52.5734 132.499 52.7225 132.441 52.8853C132.383 53.0482 132.36 53.2212 132.372 53.3935L132.845 61.0162C132.873 61.3759 133.034 61.7123 133.297 61.9599C133.56 62.2075 133.906 62.3485 134.267 62.3554Z" fill="#FF9900"/>
<path d="M135.11 75.9723H136.275C136.448 75.9735 136.619 75.939 136.778 75.871C136.936 75.803 137.079 75.7029 137.197 75.5771C137.315 75.4513 137.406 75.3025 137.463 75.14C137.521 74.9776 137.544 74.805 137.531 74.6331L137.059 67.0104C137.033 66.6498 136.873 66.312 136.609 66.0639C136.346 65.8159 135.999 65.6757 135.636 65.6712H134.471C134.299 65.67 134.128 65.7045 133.969 65.7725C133.81 65.8406 133.668 65.9406 133.55 66.0664C133.432 66.1922 133.341 66.341 133.283 66.5035C133.226 66.666 133.203 66.8386 133.215 67.0104L133.688 74.6331C133.714 74.9933 133.875 75.3304 134.138 75.5782C134.402 75.826 134.748 75.9666 135.11 75.9723Z" fill="#FF9900"/>
<path d="M108.699 29.1863H100.894V29.722H108.699V29.1863Z" fill="#FF9900"/>
<path d="M113.407 29.1863H111.142V29.722H113.407V29.1863Z" fill="#FF9900"/>
<path d="M67.6964 162.002H135.557C136.367 162.009 137.171 161.849 137.916 161.531C138.662 161.213 139.333 160.744 139.888 160.154C140.443 159.564 140.869 158.866 141.14 158.104C141.411 157.341 141.52 156.531 141.462 155.724L134.139 37.3232C134.013 35.6334 133.258 34.0519 132.022 32.89C130.786 31.728 129.159 31.0699 127.461 31.0451H59.6064C58.7955 31.037 57.9917 31.1969 57.2458 31.5146C56.5 31.8324 55.8283 32.3011 55.2733 32.8912C54.7183 33.4813 54.292 34.1798 54.0215 34.9427C53.7509 35.7056 53.6419 36.5162 53.7013 37.3232L61.0183 155.708C61.1427 157.4 61.8971 158.984 63.1329 160.148C64.3687 161.313 65.9966 161.974 67.6964 162.002Z" fill="#FF9900"/>
<path d="M62.402 154.851H139.968L132.769 38.4268H55.2031L62.402 154.851Z" fill="white"/>
<path d="M128.824 95.712H126.075C124.631 80.6488 111.619 68.4782 96.4908 68.0497L96.3083 65.3017C96.2909 65.0794 96.191 64.8717 96.0282 64.7191C95.8653 64.5665 95.6512 64.4801 95.4279 64.4767C95.3217 64.4756 95.2164 64.4966 95.1188 64.5385C95.0212 64.5803 94.9335 64.6421 94.8612 64.7198C94.7889 64.7974 94.7337 64.8893 94.6991 64.9895C94.6645 65.0897 94.6512 65.1961 94.6602 65.3017L94.8427 68.0497C79.774 68.4782 68.3933 80.6488 68.9731 95.712H66.2245C66.1181 95.711 66.0126 95.732 65.9148 95.7738C65.8169 95.8156 65.7289 95.8773 65.6562 95.9548C65.5835 96.0324 65.5277 96.1242 65.4925 96.2244C65.4573 96.3247 65.4433 96.4311 65.4515 96.537C65.4689 96.7592 65.5687 96.967 65.7316 97.1196C65.8944 97.2722 66.1085 97.3586 66.3319 97.3619H69.0858C70.5245 112.425 83.5372 124.596 98.6649 125.024L98.8475 127.772C98.8648 127.995 98.9647 128.202 99.1276 128.355C99.2904 128.507 99.5045 128.594 99.7279 128.597C99.8343 128.598 99.9398 128.577 100.038 128.535C100.135 128.494 100.224 128.432 100.296 128.354C100.369 128.277 100.425 128.185 100.46 128.085C100.495 127.985 100.509 127.878 100.501 127.772L100.313 125.024C115.382 124.596 126.762 112.425 126.183 97.3619H128.937C129.043 97.363 129.148 97.342 129.246 97.3002C129.343 97.2583 129.431 97.1966 129.503 97.1189C129.576 97.0412 129.631 96.9493 129.665 96.8491C129.7 96.7489 129.713 96.6426 129.704 96.537C129.688 96.3143 129.589 96.1058 129.425 95.953C129.262 95.8002 129.048 95.7141 128.824 95.712ZM100.206 123.38L100.023 120.675C100.006 120.452 99.9058 120.245 99.743 120.092C99.5802 119.939 99.3661 119.853 99.1427 119.85C99.0365 119.849 98.9312 119.87 98.8336 119.911C98.736 119.953 98.6483 120.015 98.576 120.093C98.5037 120.17 98.4485 120.262 98.4139 120.362C98.3793 120.463 98.3661 120.569 98.375 120.675L98.5522 123.38C84.337 122.951 72.1135 111.52 70.7339 97.3619H73.418C73.5242 97.363 73.6295 97.342 73.7271 97.3002C73.8247 97.2583 73.9124 97.1966 73.9847 97.1189C74.057 97.0412 74.1122 96.9493 74.1468 96.8491C74.1814 96.7489 74.1946 96.6426 74.1857 96.537C74.1695 96.3143 74.07 96.1058 73.9069 95.953C73.7438 95.8002 73.529 95.7141 73.3053 95.712H70.6211C70.0843 81.5541 80.7886 70.1228 94.9501 69.6942L95.1273 72.3994C95.1458 72.6212 95.246 72.8283 95.4086 72.9806C95.5712 73.133 95.7846 73.2198 96.0076 73.2243C96.1141 73.2254 96.2196 73.2043 96.3174 73.1626C96.4153 73.1208 96.5033 73.0591 96.576 72.9815C96.6487 72.904 96.7044 72.8121 96.7397 72.7119C96.7749 72.6117 96.7889 72.5053 96.7807 72.3994L96.5982 69.6942C110.813 70.1228 123.037 81.5541 124.416 95.712H121.706C121.599 95.7109 121.494 95.7319 121.396 95.7738C121.299 95.8156 121.211 95.8774 121.139 95.9551C121.067 96.0327 121.011 96.1246 120.977 96.2248C120.942 96.325 120.929 96.4314 120.938 96.537C120.955 96.7592 121.055 96.967 121.218 97.1196C121.381 97.2722 121.595 97.3586 121.818 97.3619H124.502C125.055 111.514 114.362 122.946 100.206 123.374V123.38Z" fill="#6B006D"/>
<path d="M113.283 88.5393V88.4964C113.273 88.4669 113.261 88.4383 113.246 88.4107L113.208 88.3679C113.19 88.3452 113.17 88.3238 113.149 88.3036C113.136 88.2882 113.119 88.2755 113.101 88.2661L113.053 88.2232L96.8994 80.1613C96.8231 80.1218 96.7384 80.1013 96.6525 80.1013C96.5665 80.1013 96.4819 80.1218 96.4056 80.1613L81.1221 88.2125L81.0738 88.2554C81.0582 88.2663 81.0438 88.2789 81.0309 88.2929C81.0118 88.3119 80.9956 88.3336 80.9825 88.3571L80.9503 88.4C80.9372 88.4276 80.9264 88.4563 80.9181 88.4857V88.5286C80.9101 88.5764 80.9101 88.6253 80.9181 88.6732L81.9166 106.067C81.924 106.167 81.9576 106.264 82.0141 106.348C82.0706 106.431 82.148 106.499 82.2387 106.543L98.3918 114.605C98.4616 114.641 98.5389 114.659 98.6173 114.659C98.6941 114.661 98.7701 114.642 98.8374 114.605H98.8642L114.089 106.543C114.174 106.497 114.244 106.428 114.29 106.344C114.337 106.259 114.358 106.163 114.352 106.067L113.348 88.6732C113.334 88.6254 113.312 88.5801 113.283 88.5393ZM89.0457 85.2556L103.991 92.7122L97.5168 96.1459L82.5662 88.6839L89.0457 85.2556ZM96.6579 81.2487L111.603 88.7107L105.129 92.139L90.1784 84.677L96.6579 81.2487ZM81.981 89.5624L97.0122 97.0619L97.9409 113.25L82.9097 105.751L81.981 89.5624ZM113.219 105.751L99.036 113.25L98.1073 97.0619L104.678 93.5854L104.861 96.7351C104.869 96.8743 104.929 97.0055 105.028 97.1041C105.126 97.2027 105.258 97.262 105.397 97.2708C105.469 97.2755 105.541 97.2649 105.608 97.2397C105.676 97.2144 105.737 97.1751 105.788 97.1244C105.838 97.0737 105.878 97.0127 105.903 96.9456C105.928 96.8785 105.939 96.8067 105.934 96.7351L105.719 93.0336L112.29 89.5517L113.219 105.751Z" fill="#FF9900"/>
<path opacity="0.2" d="M102.123 33.9645H85.3042C85.2299 33.9643 85.1564 33.9794 85.0883 34.009C85.0202 34.0386 84.959 34.0819 84.9085 34.1363C84.8581 34.1906 84.8195 34.2549 84.7952 34.3249C84.7709 34.3949 84.7614 34.4692 84.7673 34.5431V34.9288C84.7794 35.0861 84.85 35.2332 84.9652 35.3413C85.0804 35.4493 85.232 35.5104 85.3901 35.5126H102.22C102.294 35.5129 102.368 35.4977 102.437 35.4678C102.505 35.4379 102.567 35.3941 102.617 35.3391C102.668 35.2841 102.706 35.2192 102.73 35.1486C102.754 35.0779 102.763 35.003 102.756 34.9288L102.73 34.5431C102.718 34.389 102.649 34.2447 102.537 34.1379C102.425 34.0311 102.278 33.9694 102.123 33.9645Z" fill="black"/>
<path d="M191.918 72.5387L191.59 72.6083L191.322 72.6619L190.785 72.7422C190.447 72.7851 190.119 72.8226 189.792 72.8494C189.131 72.903 188.487 72.9244 187.838 72.9244C186.549 72.9124 185.263 72.7923 183.994 72.5655C182.732 72.3439 181.49 72.0215 180.279 71.6013C179.678 71.3923 179.082 71.1566 178.502 70.8942L178.062 70.7013L177.788 70.5728C177.616 70.4934 177.449 70.4021 177.289 70.2996C176.727 69.9377 176.253 69.4566 175.899 68.8907C175.427 68.1128 175.12 67.2469 174.997 66.3463C174.895 65.6546 174.847 64.9562 174.852 64.2571C174.879 63.0084 175.003 61.7637 175.222 60.5342C175.627 58.1908 176.249 55.89 177.08 53.6614L179.963 54.3471C179.791 56.538 179.624 58.7932 179.608 60.9359C179.589 61.9684 179.639 63.0011 179.759 64.0268C179.803 64.4648 179.884 64.8983 180 65.3231C180.043 65.555 180.146 65.7714 180.301 65.9499C180.301 65.9499 180.258 65.8427 180.113 65.7356L179.989 65.6606C179.946 65.6606 179.989 65.6606 180.022 65.6606L180.113 65.6927L180.472 65.8052C180.945 65.9659 181.439 66.0838 181.922 66.2123C182.891 66.4574 183.876 66.6364 184.869 66.748C185.854 66.8628 186.846 66.9165 187.838 66.9087C188.332 66.9087 188.826 66.9087 189.303 66.8552C189.545 66.8552 189.781 66.8123 190.012 66.7855L190.345 66.748H190.495H190.581L191.918 72.5387Z" fill="#FFC3BD"/>
<path d="M176.87 54.9149L176.73 50.9027L180.714 50.4741C180.714 50.4741 181.562 54.5613 178.926 55.5952L176.87 54.9149Z" fill="#FFC3BD"/>
<path d="M177.729 48.7224L179.463 48.6206C179.728 48.6069 179.989 48.6918 180.196 48.8591C180.402 49.0263 180.539 49.2639 180.58 49.5259L180.714 50.4741L176.73 50.9026V49.7831C176.733 49.5133 176.836 49.2542 177.022 49.0576C177.207 48.861 177.459 48.7413 177.729 48.7224Z" fill="#FFC3BD"/>
<path d="M194.313 74.2528C191.57 76.8348 180.076 72.7208 180.076 72.7208L182.98 65.7891C185.707 65.2164 188.497 64.9967 191.28 65.1356C196.89 65.3552 197.324 71.4244 194.313 74.2528Z" fill="#FF9900"/>
<path d="M175.808 52.2633C176.13 53.6667 175.84 54.8774 175.163 54.9416C174.487 55.0059 173.676 53.9613 173.354 52.5579C173.032 51.1544 173.322 49.9491 173.998 49.8795C174.675 49.8099 175.485 50.8598 175.808 52.2633Z" fill="#FF9900"/>
<path d="M182.319 53.6399L175.163 54.963L173.998 49.8848L181.331 49.3331L182.319 53.6399Z" fill="#FF9900"/>
<path d="M182.776 51.3633C183.05 52.5525 182.846 53.5703 182.32 53.6399C181.794 53.7096 181.15 52.7989 180.881 51.6097C180.613 50.4205 180.811 49.3974 181.332 49.3331C181.853 49.2688 182.502 50.1795 182.776 51.3633Z" fill="#FF9900"/>
<path opacity="0.3" d="M182.776 51.3633C183.05 52.5525 182.846 53.5703 182.32 53.6399C181.794 53.7096 181.15 52.7989 180.881 51.6097C180.613 50.4205 180.811 49.3974 181.332 49.3331C181.853 49.2688 182.502 50.1795 182.776 51.3633Z" fill="black"/>
<path d="M183.796 50.2331L181.686 50.3242C181.38 50.3617 181.251 50.9081 181.396 51.5402C181.541 52.1722 181.933 52.6544 182.212 52.6115L184.242 52.1723C184.472 52.1401 184.558 51.6794 184.435 51.1438C184.311 50.6081 184.027 50.1795 183.796 50.2331Z" fill="#FF9900"/>
<path opacity="0.4" d="M183.796 50.2331L181.686 50.3242C181.38 50.3617 181.251 50.9081 181.396 51.5402C181.541 52.1722 181.933 52.6544 182.212 52.6115L184.242 52.1723C184.472 52.1401 184.558 51.6794 184.435 51.1438C184.311 50.6081 184.027 50.1795 183.796 50.2331Z" fill="black"/>
<path d="M172.194 52.7293C172.516 54.1328 172.227 55.3434 171.55 55.4077C170.874 55.472 170.063 54.4274 169.746 53.0239C169.43 51.6205 169.709 50.4152 170.385 50.3456C171.062 50.2759 171.872 51.3258 172.194 52.7293Z" fill="#FF9900"/>
<path d="M178.712 54.106L171.551 55.4291L170.386 50.3509L177.724 49.7991L178.712 54.106Z" fill="#FF9900"/>
<path d="M179.168 51.8293C179.437 53.0185 179.233 54.0363 178.712 54.106C178.191 54.1756 177.542 53.2649 177.268 52.0757C176.994 50.8865 177.198 49.8634 177.724 49.7991C178.25 49.7348 178.895 50.6401 179.168 51.8293Z" fill="#FF9900"/>
<path opacity="0.3" d="M179.168 51.8293C179.437 53.0185 179.233 54.0363 178.712 54.106C178.191 54.1756 177.542 53.2649 177.268 52.0757C176.994 50.8865 177.198 49.8634 177.724 49.7991C178.25 49.7348 178.895 50.6401 179.168 51.8293Z" fill="black"/>
<path d="M180.182 50.7151L178.078 50.8062C177.772 50.8437 177.643 51.3901 177.788 52.0222C177.933 52.6543 178.298 53.1364 178.604 53.0935L180.628 52.6543C180.859 52.6221 180.95 52.1614 180.826 51.6258C180.703 51.0901 180.413 50.6669 180.182 50.7151Z" fill="#FF9900"/>
<path opacity="0.4" d="M180.182 50.7151L178.078 50.8062C177.772 50.8437 177.643 51.3901 177.788 52.0222C177.933 52.6543 178.298 53.1364 178.604 53.0935L180.628 52.6543C180.859 52.6221 180.95 52.1614 180.826 51.6258C180.703 51.0901 180.413 50.6669 180.182 50.7151Z" fill="black"/>
<path d="M180.972 51.3741C180.919 51.6901 180.704 51.9097 180.5 51.8722C180.296 51.8347 180.178 51.5562 180.232 51.2401C180.285 50.9241 180.5 50.7045 180.704 50.742C180.908 50.7795 181.032 51.0634 180.972 51.3741Z" fill="#263238"/>
<path d="M180.735 51.915C180.189 52.8045 179.523 53.614 178.754 54.3202C178.942 54.5093 179.169 54.6552 179.419 54.7477C179.67 54.8402 179.937 54.8771 180.203 54.8559L180.735 51.915Z" fill="#ED847E"/>
<path d="M182.432 49.8474C182.38 49.8464 182.33 49.8253 182.293 49.7885C182.135 49.616 181.938 49.4834 181.719 49.4014C181.499 49.3195 181.264 49.2906 181.031 49.3171C180.982 49.325 180.932 49.3139 180.891 49.286C180.85 49.2581 180.821 49.2155 180.811 49.1671C180.806 49.1428 180.807 49.1178 180.812 49.0936C180.817 49.0694 180.826 49.0465 180.84 49.0261C180.854 49.0057 180.872 48.9882 180.893 48.9747C180.914 48.9612 180.937 48.952 180.961 48.9475C181.257 48.9081 181.558 48.9407 181.838 49.0424C182.119 49.144 182.37 49.3118 182.572 49.5313C182.597 49.5575 182.613 49.5902 182.62 49.6255C182.626 49.6609 182.623 49.6974 182.609 49.7307C182.596 49.764 182.573 49.7927 182.543 49.8134C182.514 49.8341 182.479 49.8459 182.443 49.8474H182.432Z" fill="#263238"/>
<path d="M189.947 55.5363C189.448 58.4289 189.008 63.716 191.069 65.5909C191.069 65.5909 190.345 68.5264 184.987 68.6496C179.082 68.7835 182.104 65.7945 182.104 65.7945C185.325 64.9534 185.164 62.5804 184.552 60.352L189.947 55.5363Z" fill="#FFC3BD"/>
<path d="M158.78 190.195C158.275 190.195 157.787 190.125 157.621 189.895C157.578 189.835 157.555 189.764 157.555 189.691C157.555 189.618 157.578 189.547 157.621 189.488C157.652 189.433 157.695 189.385 157.746 189.347C157.796 189.31 157.854 189.283 157.916 189.268C158.571 189.091 159.95 189.879 160.009 189.911C160.025 189.921 160.038 189.935 160.045 189.953C160.053 189.97 160.055 189.989 160.052 190.007C160.049 190.026 160.04 190.043 160.027 190.057C160.013 190.07 159.996 190.079 159.977 190.082C159.582 190.154 159.182 190.192 158.78 190.195ZM158.157 189.455C158.097 189.447 158.035 189.447 157.975 189.455C157.937 189.463 157.901 189.478 157.87 189.5C157.838 189.522 157.812 189.551 157.792 189.584C157.728 189.702 157.749 189.761 157.792 189.793C157.98 190.045 158.973 190.05 159.709 189.948C159.229 189.685 158.702 189.518 158.157 189.455Z" fill="#FF9900"/>
<path d="M159.971 190.082H159.933C159.455 189.868 158.516 189.011 158.586 188.572C158.586 188.47 158.677 188.336 158.935 188.309C159.03 188.297 159.128 188.306 159.22 188.333C159.312 188.361 159.398 188.407 159.471 188.47C159.976 188.882 160.078 189.943 160.083 189.986C160.086 190.002 160.083 190.019 160.077 190.034C160.07 190.049 160.059 190.062 160.046 190.071C160.035 190.078 160.022 190.083 160.009 190.085C159.996 190.087 159.983 190.086 159.971 190.082ZM159.01 188.475H158.951C158.784 188.475 158.774 188.561 158.768 188.582C158.725 188.845 159.369 189.514 159.842 189.809C159.797 189.357 159.609 188.931 159.305 188.593C159.221 188.526 159.117 188.489 159.01 188.486V188.475Z" fill="#FF9900"/>
<path d="M164.308 189.991H160.363L159.971 180.879H163.916L164.308 189.991Z" fill="#FFC3BD"/>
<path d="M160.39 189.536H164.685C164.763 189.536 164.839 189.563 164.9 189.611C164.962 189.66 165.005 189.728 165.023 189.804L165.801 193.302C165.821 193.386 165.821 193.474 165.801 193.559C165.782 193.644 165.743 193.723 165.688 193.791C165.633 193.858 165.564 193.913 165.485 193.949C165.406 193.986 165.319 194.005 165.232 194.003C163.681 193.977 161.437 193.885 159.483 193.885C157.201 193.885 155.226 194.009 152.552 194.009C150.942 194.009 150.48 192.375 151.157 192.225C154.243 191.555 156.761 191.48 159.429 189.841C159.715 189.652 160.048 189.547 160.39 189.536Z" fill="#263238"/>
<path d="M176.065 67.0319C176.065 67.0319 171.975 71.853 176.602 101.042L197.694 100.565C197.753 97.7369 195.933 85.3521 197.334 72.0566C197.423 71.2733 197.349 70.4803 197.12 69.7261C196.89 68.972 196.508 68.2726 195.998 67.6708C195.488 67.069 194.86 66.5774 194.153 66.2263C193.446 65.8751 192.674 65.6716 191.886 65.6284L191.07 65.6017C188.08 65.4941 185.086 65.5621 182.105 65.8052C180.063 66.0563 178.043 66.4665 176.065 67.0319Z" fill="#FF9900"/>
<path opacity="0.3" d="M176.065 67.0318C176.065 67.0318 176.532 66.8926 177.294 66.6997C179.618 66.8872 180.805 69.5227 180.247 72.2975C179.833 74.3652 176.902 77.2472 174.406 79.3738C174.234 69.196 176.065 67.0318 176.065 67.0318Z" fill="black"/>
<path d="M178.931 72.5386C178.636 72.6082 178.486 72.6296 178.287 72.6671L177.75 72.7582C177.385 72.801 177.02 72.8385 176.677 72.86C175.957 72.9189 175.254 72.935 174.529 72.9243C173.124 72.8858 171.724 72.7227 170.347 72.4368C168.979 72.1435 167.636 71.7405 166.332 71.2315L165.376 70.8137L164.813 70.5619C164.294 70.312 163.84 69.9452 163.487 69.4906C163.147 69.0577 162.908 68.5544 162.789 68.0175C162.703 67.6327 162.67 67.2379 162.692 66.8443C162.727 66.3116 162.832 65.7857 163.004 65.2801C163.264 64.5363 163.595 63.8189 163.991 63.1374C164.331 62.539 164.7 61.958 165.097 61.3965C165.865 60.3251 166.665 59.2806 167.502 58.3056C169.157 56.3598 170.932 54.5189 172.817 52.7935L175.034 54.7487C173.66 56.7629 172.28 58.8199 170.992 60.8554C170.358 61.8839 169.735 62.9071 169.193 63.9249C168.925 64.4338 168.656 64.9373 168.452 65.4194C168.257 65.8414 168.103 66.2808 167.991 66.7318C167.953 66.8979 167.958 67.0372 167.991 66.9943C168.008 66.9149 168.008 66.8327 167.991 66.7533C167.941 66.5188 167.838 66.2988 167.69 66.1104C167.531 65.9071 167.329 65.7408 167.1 65.623C167.019 65.5908 167.1 65.623 167.1 65.623L167.202 65.6551L167.395 65.714L168.184 65.9605C169.241 66.2576 170.317 66.4831 171.405 66.6354C172.481 66.7894 173.566 66.8664 174.653 66.8657C175.19 66.8657 175.726 66.8657 176.263 66.8229C176.532 66.8229 176.8 66.7747 177.042 66.7479L177.675 66.6729L178.931 72.5386Z" fill="#FFC3BD"/>
<path d="M181.332 74.2528C178.589 76.8347 167.096 72.7207 167.096 72.7207L170 65.7891C170 65.7891 175.266 65.6873 180.141 65.7891C186.164 65.9605 184.344 71.4244 181.332 74.2528Z" fill="#FF9900"/>
<path d="M172.243 54.7274L172.104 50.7152L176.087 50.2866C176.087 50.2866 176.935 54.3738 174.299 55.4077L172.243 54.7274Z" fill="#FFC3BD"/>
<path d="M173.301 49.0706L175.448 48.9742C175.559 48.9691 175.67 48.9896 175.772 49.0342C175.874 49.0787 175.964 49.1461 176.036 49.231C176.107 49.316 176.158 49.4162 176.185 49.524C176.211 49.6318 176.213 49.7443 176.189 49.8527L176.087 50.2866L172.104 50.7152L172.683 49.4885C172.737 49.3684 172.823 49.2657 172.932 49.1919C173.041 49.1181 173.169 49.0761 173.301 49.0706Z" fill="#FFC3BD"/>
<path opacity="0.2" d="M159.971 180.879L160.175 185.577H164.12L163.916 180.879H159.971Z" fill="black"/>
<path d="M191.536 52.5846C190.608 56.3772 190.259 58.6485 187.961 60.2663C184.504 62.7089 180.075 60.1002 179.85 56.104C179.646 52.5097 181.197 46.9065 185.218 46.0547C186.108 45.8675 187.03 45.9088 187.9 46.1748C188.769 46.4408 189.556 46.9227 190.188 47.5754C190.819 48.228 191.274 49.0301 191.51 49.9062C191.746 50.7824 191.755 51.704 191.536 52.5846Z" fill="#FFC3BD"/>
<path d="M183.527 52.9757C182.126 52.0543 182.99 48.3635 183.285 47.6511C182.915 47.8265 182.5 47.888 182.094 47.8278C182.094 47.8278 183.468 45.1066 187.403 45.9315C191.338 46.7565 193.426 49.6813 192.594 52.4454C191.762 55.2095 190.415 58.7181 188.536 58.9592C186.657 59.2003 182.899 57.8878 183.527 52.9757Z" fill="#263238"/>
<path d="M183.178 50.7152C181.771 49.2796 178.384 46.6387 178.502 45.7762C178.711 44.2656 183.044 43.28 186.597 48.8189C188.176 51.283 184.901 52.4776 183.178 50.7152Z" fill="#FF9900"/>
<path opacity="0.3" d="M183.178 50.7152C181.771 49.2796 178.384 46.6387 178.502 45.7762C178.711 44.2656 183.044 43.28 186.597 48.8189C188.176 51.283 184.901 52.4776 183.178 50.7152Z" fill="black"/>
<path d="M181.616 48.1071C181.575 48.2387 181.564 48.3779 181.584 48.5143C181.605 48.6507 181.656 48.7807 181.734 48.8945C182.644 50.2315 183.745 51.4281 185.003 52.446C187.333 54.3316 191.112 54.6209 192.165 54.4227C193.024 54.2566 193.614 51.305 193.807 50.2337C193.852 49.9792 193.817 49.7171 193.705 49.4837C193.292 48.6106 192.095 46.4304 190.211 45.5894C188.326 44.7484 185.465 44.8555 184.332 44.9305C184.013 44.9528 183.714 45.0944 183.495 45.3269C182.689 46.1191 182.05 47.0644 181.616 48.1071Z" fill="#FF9900"/>
<path d="M189.266 52.8578L188.863 53.8006C189.885 54.0404 190.932 54.1573 191.982 54.1488C192.166 54.4683 192.32 54.8036 192.444 55.1505C192.581 54.8587 192.651 54.5406 192.651 54.2185C192.651 53.8964 192.581 53.5782 192.444 53.2864C191.373 53.2535 190.308 53.1099 189.266 52.8578Z" fill="#263238"/>
<path d="M185.836 53.4578C185.45 54.3491 184.783 55.0902 183.936 55.5684C182.814 56.1791 182.159 55.3327 182.39 54.1971C182.599 53.1686 183.431 51.6151 184.596 51.4651C185.761 51.3151 186.282 52.3758 185.836 53.4578Z" fill="#FFC3BD"/>
<path d="M198.059 190.195C197.633 190.245 197.203 190.138 196.851 189.895C196.8 189.841 196.767 189.774 196.755 189.701C196.744 189.628 196.755 189.554 196.786 189.488C196.809 189.433 196.844 189.385 196.889 189.347C196.933 189.308 196.987 189.281 197.044 189.268C197.672 189.091 199.191 189.879 199.251 189.911C199.268 189.921 199.282 189.935 199.292 189.951C199.303 189.968 199.309 189.987 199.31 190.007C199.311 190.025 199.306 190.042 199.295 190.056C199.284 190.07 199.268 190.079 199.251 190.082C198.857 190.155 198.459 190.193 198.059 190.195ZM197.302 189.455C197.243 189.447 197.183 189.447 197.125 189.455C197.09 189.462 197.057 189.478 197.029 189.5C197.001 189.523 196.978 189.551 196.964 189.584C196.944 189.615 196.933 189.651 196.933 189.688C196.933 189.725 196.944 189.762 196.964 189.793C197.194 190.045 198.193 190.05 198.907 189.948C198.404 189.693 197.861 189.526 197.302 189.455Z" fill="#FF9900"/>
<path d="M199.23 190.082H199.193C198.683 189.868 197.582 189.011 197.582 188.572C197.582 188.47 197.63 188.336 197.883 188.309C198.075 188.298 198.265 188.355 198.419 188.47C198.859 188.883 199.175 189.41 199.332 189.991C199.339 190.004 199.342 190.019 199.342 190.034C199.342 190.049 199.339 190.064 199.332 190.077C199.318 190.088 199.3 190.094 199.282 190.095C199.264 190.096 199.246 190.092 199.23 190.082ZM197.995 188.475H197.942C197.775 188.475 197.775 188.561 197.775 188.582C197.775 188.845 198.532 189.514 199.069 189.809C198.94 189.346 198.687 188.926 198.339 188.593C198.239 188.522 198.118 188.485 197.995 188.486V188.475Z" fill="#FF9900"/>
<path d="M203.621 189.991H199.681L197.281 180.879H201.222L203.621 189.991Z" fill="#FFC3BD"/>
<path d="M199.557 189.536H203.851C203.934 189.538 204.015 189.565 204.082 189.613C204.15 189.66 204.202 189.727 204.233 189.804L205.618 193.302C205.656 193.377 205.674 193.461 205.67 193.545C205.666 193.629 205.64 193.711 205.594 193.782C205.549 193.853 205.485 193.911 205.41 193.95C205.335 193.988 205.251 194.007 205.167 194.003C203.61 193.977 201.35 193.885 199.396 193.885C197.114 193.885 195.166 194.009 192.487 194.009C190.876 194.009 190.136 192.375 190.791 192.225C193.759 191.555 196.266 191.48 198.65 189.841C198.913 189.647 199.23 189.541 199.557 189.536Z" fill="#263238"/>
<path opacity="0.2" d="M197.281 180.879L198.661 186.118L202.462 185.577L201.227 180.879H197.281Z" fill="black"/>
<path d="M183.226 100.897C183.226 100.897 176.494 130.82 178.534 142.83C180.682 155.317 196.872 184.667 196.872 184.667L203.266 183.847C203.266 183.847 194.011 150.442 190.382 142.064C193.066 117.257 198.644 112.789 197.661 100.592L183.226 100.897Z" fill="#263238"/>
<path opacity="0.2" d="M184.059 110.791C183.759 110.532 183.381 110.379 182.985 110.357C182.013 113.089 180.934 116.159 179.839 119.298C179.302 122.919 178.808 126.712 178.508 130.306C182.942 122.228 186.947 113.159 184.059 110.791Z" fill="black"/>
<path d="M194.994 182.604C194.967 182.604 196.201 185.24 196.201 185.24L204.254 184.168L203.717 181.747L194.994 182.604Z" fill="#FF9900"/>
<path d="M176.603 101.069C176.603 101.069 157.459 129.577 157.416 141.587C157.39 154.079 158.705 184.666 158.705 184.666H165.383C165.383 184.666 169.957 153.994 169.42 140.8C174.487 130.37 183.061 118.232 187.731 109.875C189.33 107.034 190.42 103.936 190.952 100.721L176.603 101.069Z" fill="#263238"/>
<path d="M157.422 182.01C157.39 182.01 157.798 184.779 157.798 184.779H165.925L166.145 182.309L157.422 182.01Z" fill="#FF9900"/>
<path d="M179.125 65.7463C181.025 66.4212 185.69 74.66 174.61 80.456C174.486 80.5207 174.381 80.6173 174.306 80.736C174.232 80.8546 174.19 80.991 174.186 81.1309C174.132 86.627 174.315 93.9872 174.723 97.2494C174.736 97.3518 174.769 97.4506 174.821 97.54C174.873 97.6293 174.942 97.7074 175.025 97.7698C175.107 97.8321 175.201 97.8774 175.302 97.9031C175.402 97.9287 175.506 97.9341 175.609 97.919C184.735 96.5798 193.764 96.5209 197.237 96.8477C197.351 96.8592 197.466 96.8454 197.574 96.8073C197.682 96.7693 197.781 96.7079 197.862 96.6276C197.944 96.5472 198.007 96.4499 198.046 96.3426C198.086 96.2353 198.101 96.1206 198.091 96.0067C197.613 90.9874 197.076 79.5935 197.699 75.0778C198.37 70.2567 198.053 67.964 195.729 65.9713C195.081 65.3926 194.308 64.9707 193.47 64.7385C192.632 64.5062 191.752 64.4698 190.897 64.6321C190.897 64.6321 183.29 65.216 182.625 65.2588C181.449 65.3461 180.28 65.509 179.125 65.7463Z" fill="#263238"/>
<path d="M182.002 65.0874L182.969 65.0338C183.024 65.0308 183.079 65.0451 183.127 65.0749C183.174 65.1046 183.21 65.1483 183.232 65.1998C183.903 66.8069 189.282 79.2881 197.441 79.5399C197.509 79.5399 197.575 79.566 197.624 79.613C197.673 79.6599 197.702 79.7239 197.704 79.7917C197.704 80.1934 197.704 80.5791 197.704 80.8148C197.702 80.8796 197.676 80.9413 197.632 80.9886C197.588 81.0359 197.527 81.0655 197.463 81.0719C196.046 81.2112 188.294 81.2005 181.766 65.4623C181.75 65.4222 181.743 65.3789 181.747 65.3358C181.751 65.2927 181.765 65.2512 181.788 65.2146C181.811 65.178 181.843 65.1474 181.88 65.1252C181.917 65.1031 181.959 65.0901 182.002 65.0874Z" fill="#FF9900"/>
<path d="M203.867 49.3813L203.083 49.1403L203.341 48.3153L202.267 47.9832L196.792 65.6605L196.067 65.4409C195.916 65.3937 195.758 65.3766 195.601 65.3907C195.444 65.4047 195.291 65.4496 195.151 65.5228C195.012 65.596 194.888 65.696 194.787 65.8171C194.686 65.9382 194.61 66.0779 194.564 66.2284L190.516 79.3042C190.403 79.2192 190.276 79.1539 190.14 79.1114C189.131 78.8007 187.95 79.7328 187.499 81.1791C187.048 82.6254 187.499 84.061 188.508 84.3932C188.646 84.434 188.789 84.4539 188.932 84.4521L188.057 87.3019C188.01 87.4521 187.993 87.6101 188.007 87.7669C188.021 87.9237 188.066 88.0762 188.139 88.2156C188.213 88.355 188.313 88.4785 188.434 88.5791C188.556 88.6797 188.696 88.7554 188.847 88.8018L189.883 89.1232C189.983 89.1537 190.089 89.164 190.194 89.1536C190.299 89.1431 190.401 89.1121 190.493 89.0623C190.586 89.0126 190.668 88.945 190.735 88.8635C190.801 88.782 190.851 88.6882 190.881 88.5875L194.258 77.6758L197.64 66.764L202.289 51.7651L203.867 49.3813ZM188.653 83.9271C187.912 83.6968 187.58 82.5129 187.961 81.3345C188.342 80.156 189.255 79.3524 189.995 79.5828C190.133 79.6302 190.258 79.7091 190.36 79.8131L189.518 82.5397C189.203 82.27 188.95 81.9356 188.777 81.5594C188.752 81.5018 188.705 81.4561 188.647 81.432C188.589 81.408 188.524 81.4076 188.465 81.4309C188.407 81.4568 188.361 81.5042 188.337 81.5631C188.313 81.622 188.313 81.6878 188.337 81.7469C188.566 82.2542 188.923 82.6935 189.373 83.0218L189.088 83.9378C188.944 83.9693 188.795 83.9656 188.653 83.9271Z" fill="#FF9900"/>
<path opacity="0.7" d="M203.867 49.3813L203.083 49.1403L203.341 48.3153L202.267 47.9832L196.792 65.6605L196.067 65.4409C195.916 65.3937 195.758 65.3766 195.601 65.3907C195.444 65.4047 195.291 65.4496 195.151 65.5228C195.012 65.596 194.888 65.696 194.787 65.8171C194.686 65.9382 194.61 66.0779 194.564 66.2284L190.516 79.3042C190.403 79.2192 190.276 79.1539 190.14 79.1114C189.131 78.8007 187.95 79.7328 187.499 81.1791C187.048 82.6254 187.499 84.061 188.508 84.3932C188.646 84.434 188.789 84.4539 188.932 84.4521L188.057 87.3019C188.01 87.4521 187.993 87.6101 188.007 87.7669C188.021 87.9237 188.066 88.0762 188.139 88.2156C188.213 88.355 188.313 88.4785 188.434 88.5791C188.556 88.6797 188.696 88.7554 188.847 88.8018L189.883 89.1232C189.983 89.1537 190.089 89.164 190.194 89.1536C190.299 89.1431 190.401 89.1121 190.493 89.0623C190.586 89.0126 190.668 88.945 190.735 88.8635C190.801 88.782 190.851 88.6882 190.881 88.5875L194.258 77.6758L197.64 66.764L202.289 51.7651L203.867 49.3813ZM188.653 83.9271C187.912 83.6968 187.58 82.5129 187.961 81.3345C188.342 80.156 189.255 79.3524 189.995 79.5828C190.133 79.6302 190.258 79.7091 190.36 79.8131L189.518 82.5397C189.203 82.27 188.95 81.9356 188.777 81.5594C188.752 81.5018 188.705 81.4561 188.647 81.432C188.589 81.408 188.524 81.4076 188.465 81.4309C188.407 81.4568 188.361 81.5042 188.337 81.5631C188.313 81.622 188.313 81.6878 188.337 81.7469C188.566 82.2542 188.923 82.6935 189.373 83.0218L189.088 83.9378C188.944 83.9693 188.795 83.9656 188.653 83.9271Z" fill="white"/>
<path d="M192.207 78.9021L191.14 78.5733C190.926 78.5075 190.747 78.3598 190.643 78.1625C190.539 77.9653 190.517 77.7348 190.583 77.5216L194.191 65.8621C194.256 65.6517 194.362 65.4562 194.503 65.2867C194.644 65.1172 194.817 64.977 195.012 64.8742C195.207 64.7714 195.42 64.7079 195.64 64.6874C195.86 64.6669 196.081 64.6898 196.292 64.7548L196.564 64.8385C196.7 64.8805 196.814 64.9746 196.88 65.1002C196.947 65.2258 196.961 65.3727 196.919 65.5084L192.889 78.5294C192.847 78.6652 192.753 78.7787 192.627 78.845C192.501 78.9114 192.354 78.9251 192.218 78.8832L192.207 78.9021Z" fill="#FF9900"/>
<path opacity="0.2" d="M192.207 78.9021L191.14 78.5733C190.926 78.5075 190.747 78.3598 190.643 78.1625C190.539 77.9653 190.517 77.7348 190.583 77.5216L194.191 65.8621C194.256 65.6517 194.362 65.4562 194.503 65.2867C194.644 65.1172 194.817 64.977 195.012 64.8742C195.207 64.7714 195.42 64.7079 195.64 64.6874C195.86 64.6669 196.081 64.6898 196.292 64.7548L196.564 64.8385C196.7 64.8805 196.814 64.9746 196.88 65.1002C196.947 65.2258 196.961 65.3727 196.919 65.5084L192.889 78.5294C192.847 78.6652 192.753 78.7787 192.627 78.845C192.501 78.9114 192.354 78.9251 192.218 78.8832L192.207 78.9021Z" fill="black"/>
<path d="M188.686 84.827L191.59 85.7216C191.69 85.7493 191.784 85.7967 191.865 85.861C191.947 85.9253 192.015 86.0053 192.065 86.0961C192.115 86.187 192.146 86.2869 192.157 86.39C192.167 86.4932 192.157 86.5974 192.127 86.6965L191.467 88.7482C191.44 88.8282 191.402 88.9039 191.354 88.9732L188.358 93.1461C188.265 93.2787 188.215 93.4367 188.215 93.5987C188.215 93.7607 188.265 93.9188 188.358 94.0514C188.522 94.2713 188.632 94.5262 188.679 94.7958C188.727 95.0655 188.711 95.3425 188.632 95.6048C188.299 96.6762 185.277 105.333 184.22 107.791C184.154 107.942 184.042 108.068 183.9 108.152C183.759 108.235 183.594 108.272 183.43 108.258C181.562 108.124 179.544 107.143 178.454 106.538C178.354 106.482 178.268 106.404 178.202 106.311C178.136 106.217 178.092 106.11 178.072 105.998C178.052 105.885 178.057 105.77 178.087 105.659C178.117 105.549 178.171 105.447 178.245 105.36C179.979 103.319 184.917 97.4208 185.304 96.0441C185.594 95.0156 185.03 94.6406 184.552 94.5014C184.389 94.4513 184.248 94.3481 184.15 94.2082C184.053 94.0683 184.006 93.9 184.016 93.73L184.053 92.7283C184.055 92.6277 184.076 92.5285 184.117 92.4365C184.157 92.3445 184.216 92.2615 184.289 92.1926C184.826 91.7105 186.152 90.0981 187.714 85.3091C187.781 85.1184 187.921 84.9613 188.102 84.8713C188.283 84.7812 188.493 84.7654 188.686 84.827Z" fill="#FF9900"/>
<path opacity="0.2" d="M188.686 84.827L191.59 85.7216C191.69 85.7493 191.784 85.7967 191.865 85.861C191.947 85.9253 192.015 86.0053 192.065 86.0961C192.115 86.187 192.146 86.2869 192.157 86.39C192.167 86.4932 192.157 86.5974 192.127 86.6965L191.467 88.7482C191.44 88.8282 191.402 88.9039 191.354 88.9732L188.358 93.1461C188.265 93.2787 188.215 93.4367 188.215 93.5987C188.215 93.7607 188.265 93.9188 188.358 94.0514C188.522 94.2713 188.632 94.5262 188.679 94.7958C188.727 95.0655 188.711 95.3425 188.632 95.6048C188.299 96.6762 185.277 105.333 184.22 107.791C184.154 107.942 184.042 108.068 183.9 108.152C183.759 108.235 183.594 108.272 183.43 108.258C181.562 108.124 179.544 107.143 178.454 106.538C178.354 106.482 178.268 106.404 178.202 106.311C178.136 106.217 178.092 106.11 178.072 105.998C178.052 105.885 178.057 105.77 178.087 105.659C178.117 105.549 178.171 105.447 178.245 105.36C179.979 103.319 184.917 97.4208 185.304 96.0441C185.594 95.0156 185.03 94.6406 184.552 94.5014C184.389 94.4513 184.248 94.3481 184.15 94.2082C184.053 94.0683 184.006 93.9 184.016 93.73L184.053 92.7283C184.055 92.6277 184.076 92.5285 184.117 92.4365C184.157 92.3445 184.216 92.2615 184.289 92.1926C184.826 91.7105 186.152 90.0981 187.714 85.3091C187.781 85.1184 187.921 84.9613 188.102 84.8713C188.283 84.7812 188.493 84.7654 188.686 84.827Z" fill="black"/>
<path opacity="0.3" d="M175.663 86.7984C175.958 88.55 175.362 93.0819 176.082 93.73C176.801 94.3782 181.214 93.6229 181.745 93.2747C182.277 92.9265 181.697 86.6805 181.579 85.8984C181.461 85.1163 175.577 86.2788 175.663 86.7984Z" fill="black"/>
<path d="M175.319 86.3698C175.856 85.6787 181.433 85.052 181.61 85.6144C181.787 86.1769 179.844 88.2928 178.083 88.4589C176.323 88.625 174.803 87.0661 175.319 86.3698Z" fill="#263238"/>
<path opacity="0.2" d="M175.319 86.3698C175.856 85.6787 181.433 85.052 181.61 85.6144C181.787 86.1769 179.844 88.2928 178.083 88.4589C176.323 88.625 174.803 87.0661 175.319 86.3698Z" fill="white"/>
<circle cx="30.5" cy="259.5" r="30.5" fill="#F5F5F5"/>
<circle cx="76" cy="230" r="14" fill="#F5F5F5"/>
<circle cx="235.5" cy="288.5" r="30.5" fill="#F5F5F5"/>
<circle cx="272.5" cy="316.5" r="10.5" fill="#F5F5F5"/>
</svg>
