<svg width="283" height="326" viewBox="0 0 283 326" fill="none" xmlns="http://www.w3.org/2000/svg">
<path d="M139.056 200C186.584 200 225.112 178.113 225.112 151.113C225.112 124.114 186.584 102.227 139.056 102.227C91.5287 102.227 53 124.114 53 151.113C53 178.113 91.5287 200 139.056 200Z" fill="#F5F5F5"/>
<path d="M174.867 181.937L110.629 144.846C110.064 144.521 109.595 144.052 109.269 143.487C108.942 142.923 108.771 142.282 108.771 141.63C108.771 140.978 108.942 140.337 109.269 139.772C109.595 139.208 110.064 138.739 110.629 138.413L116.966 134.417C118.06 133.787 119.3 133.456 120.563 133.456C121.825 133.456 123.065 133.787 124.159 134.417L188.405 171.513C188.97 171.838 189.44 172.307 189.766 172.872C190.093 173.436 190.264 174.077 190.264 174.729C190.264 175.381 190.093 176.022 189.766 176.587C189.44 177.151 188.97 177.62 188.405 177.946L182.069 181.937C180.974 182.571 179.732 182.904 178.468 182.904C177.203 182.904 175.961 182.571 174.867 181.937Z" fill="#E0E0E0"/>
<path d="M77.1941 148.122C84.893 148.122 91.1343 144.538 91.1343 140.117C91.1343 135.695 84.893 132.111 77.1941 132.111C69.4951 132.111 63.2539 135.695 63.2539 140.117C63.2539 144.538 69.4951 148.122 77.1941 148.122Z" fill="#E6E6E6"/>
<path d="M197.647 149.956L203.761 153.472C203.761 153.472 200.638 143.658 202.302 133.767C202.931 130.028 204.281 128.172 204.752 127.172C205.224 126.172 208.879 119.992 205.626 117.162C202.372 114.332 194.804 120.023 195.214 135.251C195.401 140.236 196.218 145.177 197.647 149.956Z" fill="#FF9900"/>
<path opacity="0.5" d="M197.647 149.956L203.761 153.472C203.761 153.472 200.638 143.658 202.302 133.767C202.931 130.028 204.281 128.172 204.752 127.172C205.224 126.172 208.879 119.992 205.626 117.162C202.372 114.332 194.804 120.023 195.214 135.251C195.401 140.236 196.218 145.177 197.647 149.956Z" fill="#6B006D"/>
<path d="M200.489 151.808C200.445 151.809 200.401 151.796 200.364 151.771C200.327 151.746 200.299 151.71 200.284 151.668C200.262 151.602 197.926 145.218 198 134.955C198.074 124.692 203.468 119.119 203.52 119.067C203.54 119.046 203.564 119.03 203.591 119.019C203.618 119.008 203.646 119.002 203.675 119.002C203.704 119.002 203.732 119.008 203.759 119.019C203.786 119.03 203.81 119.046 203.83 119.067C203.85 119.087 203.867 119.111 203.878 119.138C203.889 119.164 203.895 119.193 203.895 119.222C203.895 119.25 203.889 119.279 203.878 119.306C203.867 119.332 203.85 119.356 203.83 119.377C203.778 119.429 198.511 124.836 198.437 134.959C198.362 145.082 200.668 151.458 200.694 151.519C200.714 151.574 200.711 151.634 200.687 151.686C200.662 151.739 200.618 151.779 200.563 151.799C200.539 151.806 200.514 151.809 200.489 151.808Z" fill="white"/>
<path d="M200.197 151.458L208.556 156.262C209.427 156.777 210.46 156.945 211.449 156.732C212.438 156.519 213.311 155.941 213.893 155.114C214.446 154.253 214.679 153.225 214.552 152.209C214.15 147.868 212.264 146.868 214.574 144.934C216.884 142.999 217.487 142.864 217.356 141.003C217.225 139.143 215.954 138.33 215.351 137.597C214.749 136.863 213.08 135.326 214.216 133.055C215.351 130.784 216.902 128.587 214.552 127.583C213.15 126.98 210.814 127.784 209.276 129.452C207.739 131.12 206.473 132.321 205.001 132.723C203.529 133.125 200.463 133.19 200.594 135.728C200.725 138.265 201.398 139.134 200.795 140.265C199.66 142.379 194.72 143.58 200.197 151.458Z" fill="#FF9900"/>
<path d="M204.328 154.044C204.274 154.042 204.222 154.021 204.182 153.984C204.141 153.947 204.116 153.897 204.11 153.843C204.11 153.694 202.826 138.706 213.132 128.731C213.175 128.696 213.229 128.678 213.284 128.682C213.339 128.685 213.391 128.709 213.429 128.749C213.467 128.788 213.489 128.841 213.49 128.896C213.491 128.951 213.471 129.005 213.434 129.046C203.276 138.876 204.533 153.655 204.546 153.804C204.551 153.861 204.533 153.918 204.497 153.962C204.46 154.006 204.407 154.034 204.35 154.039L204.328 154.044Z" fill="white"/>
<path d="M205.984 141.143C205.929 141.143 205.876 141.123 205.835 141.085C205.795 141.048 205.77 140.997 205.765 140.942C205.674 139.781 205.347 138.65 204.804 137.619C204.261 136.588 203.514 135.678 202.608 134.946C202.584 134.929 202.564 134.908 202.549 134.884C202.533 134.86 202.523 134.832 202.518 134.804C202.513 134.776 202.514 134.746 202.52 134.718C202.527 134.69 202.539 134.664 202.555 134.64C202.571 134.617 202.592 134.597 202.616 134.581C202.64 134.566 202.667 134.555 202.695 134.551C202.723 134.546 202.752 134.546 202.78 134.553C202.807 134.559 202.834 134.571 202.857 134.588C203.822 135.353 204.618 136.311 205.194 137.4C205.77 138.49 206.113 139.687 206.202 140.916C206.207 140.974 206.188 141.032 206.151 141.077C206.113 141.122 206.059 141.151 206.001 141.156L205.984 141.143Z" fill="white"/>
<path d="M205.271 143.715C205.219 143.716 205.167 143.697 205.127 143.663C205.084 143.624 205.057 143.57 205.053 143.512C205.049 143.454 205.068 143.397 205.105 143.353C205.21 143.23 207.791 140.383 213.84 141.139C213.897 141.146 213.949 141.176 213.984 141.222C214.019 141.268 214.035 141.326 214.028 141.383C214.02 141.441 213.99 141.493 213.944 141.529C213.899 141.565 213.841 141.582 213.783 141.575C207.975 140.846 205.455 143.615 205.429 143.641C205.409 143.663 205.385 143.681 205.358 143.694C205.33 143.707 205.301 143.714 205.271 143.715Z" fill="white"/>
<path d="M172.911 177.504L116.416 144.886C112.429 142.584 109.197 136.409 109.197 131.094V10.1217C109.197 4.80675 112.429 2.36547 116.416 4.667L172.911 37.2858C176.898 39.5873 180.13 45.7626 180.13 51.0775V172.05C180.13 177.36 176.898 179.806 172.911 177.504Z" fill="#455A64"/>
<path d="M179.418 33.482L122.919 0.863165C121.216 -0.119461 119.653 -0.233009 118.417 0.369668C118.265 0.445442 118.119 0.531534 117.98 0.627335L111.647 4.30891C112.923 3.54464 114.591 3.60142 116.421 4.65829L172.915 37.2771C176.903 39.5786 180.134 45.7539 180.134 51.0688V172.041C180.134 174.853 179.23 176.845 177.789 177.788L184.039 174.15C185.633 173.303 186.659 171.229 186.659 168.255V47.2824C186.659 41.9588 183.405 35.7835 179.418 33.482Z" fill="#37474F"/>
<path d="M180.129 51.0688V172.041C180.129 174.853 179.225 176.845 177.784 177.788L184.038 174.15C185.632 173.303 186.658 171.229 186.658 168.255V47.2824L180.151 51.0601L180.129 51.0688Z" fill="#263238"/>
<path d="M186.637 56.6675L180.13 60.4234V63.3581L186.637 59.598V56.6675Z" fill="#37474F"/>
<path d="M183.785 76.1848C183.204 76.5211 182.732 76.1629 182.732 75.3899V69.0793C182.738 68.6848 182.837 68.2972 183.019 67.9476C183.202 67.5979 183.464 67.296 183.785 67.066C184.366 66.7297 184.837 67.066 184.837 67.8608V74.1715C184.832 74.566 184.733 74.9536 184.55 75.3032C184.368 75.6529 184.105 75.9548 183.785 76.1848Z" fill="#37474F"/>
<path d="M182.728 75.4074V69.0793C182.734 68.6848 182.833 68.2972 183.015 67.9475C183.198 67.5979 183.46 67.296 183.781 67.066C183.877 66.999 183.988 66.9581 184.105 66.9474C184.221 66.9367 184.338 66.9565 184.445 67.0049L183.654 66.5987C183.546 66.5467 183.426 66.5241 183.307 66.5333C183.187 66.5425 183.072 66.5832 182.973 66.6511C182.652 66.8811 182.389 67.1829 182.206 67.5325C182.022 67.8821 181.923 68.2697 181.916 68.6644V74.9707C181.9 75.13 181.924 75.2908 181.987 75.4382C182.049 75.5856 182.148 75.7148 182.274 75.8135L183.1 76.2503C182.968 76.1556 182.865 76.0276 182.799 75.8794C182.734 75.7312 182.71 75.5682 182.728 75.4074Z" fill="#455A64"/>
<path d="M183.785 91.4569C183.204 91.7931 182.732 91.4569 182.732 90.662V84.3514C182.739 83.957 182.837 83.5695 183.02 83.2199C183.203 82.8703 183.465 82.5683 183.785 82.3381C184.366 82.0018 184.837 82.3381 184.837 83.1373V89.4436C184.832 89.8382 184.734 90.226 184.551 90.5758C184.369 90.9255 184.106 91.2274 183.785 91.4569Z" fill="#37474F"/>
<path d="M182.728 90.6621V84.3515C182.734 83.957 182.832 83.5696 183.015 83.22C183.198 82.8704 183.46 82.5684 183.78 82.3382C183.876 82.2724 183.988 82.2322 184.104 82.2215C184.22 82.2108 184.337 82.2299 184.444 82.277L183.654 81.8665C183.546 81.8122 183.426 81.7884 183.306 81.7976C183.185 81.8068 183.07 81.8488 182.972 81.9189C182.651 82.1482 182.387 82.4499 182.204 82.7996C182.02 83.1493 181.921 83.5373 181.915 83.9322V90.256C181.899 90.4153 181.923 90.5763 181.985 90.7238C182.048 90.8712 182.147 91.0003 182.273 91.0988L183.099 91.5356C182.962 91.4387 182.855 91.3057 182.789 91.1515C182.724 90.9972 182.702 90.8278 182.728 90.6621Z" fill="#455A64"/>
<path d="M170.936 40.6792L115.42 8.615C115.189 8.48171 114.926 8.41133 114.659 8.41083C114.391 8.41033 114.129 8.47975 113.896 8.61218C113.664 8.74461 113.471 8.93545 113.335 9.16577C113.199 9.39609 113.126 9.65789 113.123 9.92517V131.094C113.123 135.138 115.992 140.103 119.495 142.126L173.648 173.408C173.905 173.556 174.196 173.633 174.493 173.633C174.789 173.633 175.08 173.555 175.337 173.407C175.593 173.258 175.806 173.045 175.955 172.789C176.103 172.532 176.181 172.241 176.181 171.945V49.7761C176.203 46.4396 173.836 42.3475 170.936 40.6792Z" fill="#FF9900"/>
<path opacity="0.9" d="M170.936 40.6792L115.42 8.615C115.189 8.48171 114.926 8.41133 114.659 8.41083C114.391 8.41033 114.129 8.47975 113.896 8.61218C113.664 8.74461 113.471 8.93545 113.335 9.16577C113.199 9.39609 113.126 9.65789 113.123 9.92517V131.094C113.123 135.138 115.992 140.103 119.495 142.126L173.648 173.408C173.905 173.556 174.196 173.633 174.493 173.633C174.789 173.633 175.08 173.555 175.337 173.407C175.593 173.258 175.806 173.045 175.955 172.789C176.103 172.532 176.181 172.241 176.181 171.945V49.7761C176.203 46.4396 173.836 42.3475 170.936 40.6792Z" fill="white"/>
<path d="M132.024 16.9869L132.885 20.6074L151.288 31.2197L154.468 29.5252L132.024 16.9869Z" fill="#455A64"/>
<path d="M137.436 20.4851C137.436 21.0878 136.999 21.328 136.493 21.031C136.221 20.8504 135.995 20.6086 135.833 20.3249C135.672 20.0413 135.579 19.7237 135.562 19.3976C135.562 18.7993 135.999 18.5548 136.506 18.8561C136.778 19.0357 137.004 19.2767 137.165 19.5597C137.327 19.8427 137.42 20.1597 137.436 20.4851Z" fill="#263238"/>
<path d="M149.834 28.1496C149.733 28.1488 149.634 28.1233 149.546 28.0753L140.147 22.8347C140.015 22.7567 139.918 22.63 139.877 22.4815C139.837 22.3331 139.856 22.1747 139.931 22.0401C140.005 21.9056 140.13 21.8056 140.277 21.7614C140.424 21.7173 140.583 21.7326 140.72 21.804L150.122 27.0447C150.236 27.1082 150.326 27.2079 150.378 27.3281C150.429 27.4484 150.439 27.5823 150.406 27.7088C150.373 27.8353 150.299 27.9473 150.196 28.0271C150.092 28.1069 149.965 28.15 149.834 28.1496Z" fill="#263238"/>
<path d="M124.766 33.8314C124.194 33.4995 123.779 33.7877 123.779 34.517C123.779 34.8818 123.87 35.2408 124.042 35.5623C124.214 35.8839 124.463 36.1579 124.766 36.36C124.929 36.4587 125.116 36.5109 125.306 36.5109C125.496 36.5109 125.683 36.4587 125.845 36.36L126.758 38.0108C126.437 38.188 126.073 38.2724 125.706 38.2547C125.34 38.237 124.986 38.1177 124.683 37.9104C123.942 37.4567 123.324 36.8272 122.883 36.0777C122.443 35.3281 122.194 34.4816 122.159 33.613C122.159 31.9928 123.247 31.4294 124.745 32.3028C125.591 32.8476 126.283 33.5992 126.758 34.4865L125.845 35.2114C125.62 34.6605 125.247 34.1828 124.766 33.8314Z" fill="#FF9900"/>
<path d="M132.011 39.3035C132.011 40.9369 130.906 41.4871 129.391 40.6137C128.628 40.1579 127.99 39.5207 127.533 38.7588C127.076 37.997 126.814 37.1339 126.771 36.2465C126.771 34.6131 127.875 34.0629 129.391 34.9363C130.155 35.39 130.795 36.0267 131.253 36.789C131.71 37.5513 131.971 38.4154 132.011 39.3035ZM128.391 37.2204C128.398 37.5953 128.495 37.9631 128.673 38.2934C128.85 38.6237 129.104 38.9071 129.413 39.1201C129.954 39.4345 130.391 39.1201 130.391 38.3777C130.389 38.0112 130.3 37.6504 130.13 37.3258C129.959 37.0012 129.713 36.7224 129.413 36.5129C128.862 36.1941 128.391 36.4648 128.391 37.2204Z" fill="#FF9900"/>
<path d="M133.772 37.5697L135.659 41.5002V38.6703L137.087 39.4957V45.0027L135.777 44.2428L133.899 40.3473V43.1598L132.462 42.33V36.8098L133.772 37.5697Z" fill="#FF9900"/>
<path d="M141.755 42.1771V43.6183L140.392 42.8322V46.9024L138.816 45.9897V41.9194L137.462 41.1377V39.7009L141.755 42.1771Z" fill="#FF9900"/>
<path d="M144.83 48.6843L143.039 47.6493L142.795 48.2869L141.179 47.3523L143.192 43.0069L144.812 43.9415L146.751 50.5709L145.07 49.6014L144.83 48.6843ZM144.441 47.1558L143.952 45.2735L143.45 46.5837L144.441 47.1558Z" fill="#FF9900"/>
<path d="M149.254 47.9681C148.682 47.6406 148.267 47.9244 148.267 48.6581C148.267 49.0227 148.358 49.3815 148.53 49.7029C148.702 50.0243 148.951 50.2984 149.254 50.5011C149.417 50.5988 149.605 50.6504 149.795 50.6504C149.986 50.6504 150.173 50.5988 150.337 50.5011L151.25 52.1519C150.927 52.3271 150.563 52.4103 150.196 52.3926C149.83 52.3749 149.475 52.2569 149.171 52.0515C148.429 51.5974 147.81 50.9672 147.37 50.2168C146.929 49.4665 146.681 48.6191 146.646 47.7497C146.646 46.1295 147.738 45.5661 149.232 46.4396C150.077 46.987 150.771 47.7378 151.25 48.6232L150.337 49.3438C150.107 48.7958 149.732 48.3204 149.254 47.9681Z" fill="#FF9900"/>
<path d="M155.556 50.1473V51.5841L154.193 50.798V54.8814L152.617 53.9686V49.8984L151.263 49.1166V47.6798L155.556 50.1473Z" fill="#FF9900"/>
<path d="M160.215 56.9078C160.604 57.1306 160.901 56.9559 160.901 56.41V53.235L162.482 54.1434V57.3184C162.482 58.7814 161.608 59.2181 160.211 58.4189C159.537 58.045 158.971 57.5045 158.567 56.8492C158.162 56.1938 157.933 55.4456 157.9 54.6762V51.5012L159.481 52.414V55.5889C159.487 55.8518 159.557 56.1093 159.685 56.339C159.813 56.5688 159.995 56.764 160.215 56.9078Z" fill="#FF9900"/>
<path d="M165.028 56.9253C164.849 56.8248 164.736 56.8205 164.736 56.9864C164.736 57.6765 167.203 58.6722 167.203 60.668C167.203 61.8908 166.273 61.8952 165.198 61.2751C164.254 60.6964 163.441 59.9275 162.81 59.0172L163.395 57.9865C163.875 58.7301 164.491 59.3761 165.212 59.8906C165.443 60.026 165.591 60.026 165.591 59.8295C165.591 59.1133 163.12 58.1612 163.12 56.2265C163.12 55.126 163.923 54.9164 165.163 55.6151C165.962 56.0984 166.666 56.7246 167.238 57.4625L166.666 58.5193C166.193 57.9175 165.643 57.3814 165.028 56.9253Z" fill="#FF9900"/>
<path d="M116.823 60.9693C118.595 58.7929 119.487 56.0315 119.323 53.2298C119.159 50.4281 117.951 47.7896 115.937 45.8349C113.923 43.8802 111.25 42.7512 108.445 42.6707C105.639 42.5902 102.906 43.564 100.783 45.4C98.6604 47.2361 97.303 49.8009 96.9786 52.5886C96.6541 55.3763 97.3863 58.1843 99.0306 60.4587C100.675 62.7331 103.112 64.3086 105.861 64.8745C108.61 65.4403 111.471 64.9554 113.88 63.5154L119.347 65.8911L116.823 60.9693Z" fill="#6B006D"/>
<path opacity="0.4" d="M116.823 60.9693C118.595 58.7929 119.487 56.0315 119.323 53.2298C119.159 50.4281 117.951 47.7896 115.937 45.8349C113.923 43.8802 111.25 42.7512 108.445 42.6707C105.639 42.5902 102.906 43.564 100.783 45.4C98.6604 47.2361 97.303 49.8009 96.9786 52.5886C96.6541 55.3763 97.3863 58.1843 99.0306 60.4587C100.675 62.7331 103.112 64.3086 105.861 64.8745C108.61 65.4403 111.471 64.9554 113.88 63.5154L119.347 65.8911L116.823 60.9693Z" fill="#6B006D"/>
<path d="M103.965 53.283C103.965 53.1127 103.843 53.0166 103.62 53.0166C103.104 53.0843 102.621 53.3118 102.24 53.6673L101.62 52.462C102.273 51.9708 103.061 51.6932 103.878 51.6671C104.926 51.6671 105.721 52.2174 105.721 53.0384C105.721 53.6236 105.284 54.187 104.725 54.7504L103.943 55.5234H105.791V56.8073H101.821V55.7548L103.59 53.925C103.78 53.7565 103.912 53.5316 103.965 53.283Z" fill="white"/>
<path d="M109.022 51.7414L107.817 54.6325H108.31V53.6586H109.83V54.6325H110.406V55.8248H109.83V56.8074H108.31V55.8248H106.148V54.7417L107.459 51.7414H109.022Z" fill="white"/>
<path d="M115.098 54.2875V56.8073H113.473V54.7548C113.482 54.6879 113.477 54.6198 113.458 54.5551C113.439 54.4904 113.406 54.4306 113.362 54.3797C113.317 54.3288 113.263 54.2879 113.201 54.26C113.14 54.232 113.073 54.2176 113.006 54.2176C112.687 54.2176 112.486 54.4665 112.486 54.8508V56.8073H110.861V51.4531H112.486V53.4227C112.613 53.2219 112.79 53.0575 113 52.9457C113.21 52.8339 113.445 52.7786 113.683 52.7851C113.877 52.7801 114.071 52.8162 114.251 52.8912C114.43 52.9661 114.592 53.0781 114.726 53.2199C114.86 53.3617 114.962 53.5301 115.026 53.714C115.09 53.898 115.114 54.0934 115.098 54.2875Z" fill="white"/>
<path d="M168.072 94.8677V149.131C168.073 149.744 167.912 150.347 167.606 150.879C167.299 151.411 166.858 151.853 166.327 152.16C165.796 152.467 165.193 152.629 164.579 152.629C163.966 152.63 163.363 152.468 162.831 152.161L133.606 135.286L128.426 132.299C126.643 131.268 125.161 129.787 124.129 128.003C123.098 126.22 122.553 124.197 122.548 122.137V67.8695C122.547 67.2558 122.708 66.6527 123.014 66.1208C123.32 65.589 123.761 65.1472 124.293 64.84C124.824 64.5327 125.427 64.3708 126.04 64.3706C126.654 64.3704 127.257 64.5318 127.789 64.8387L162.202 84.7052C163.987 85.7349 165.468 87.2161 166.499 89C167.529 90.7839 168.072 92.8077 168.072 94.8677Z" fill="#FF9900"/>
<path opacity="0.5" d="M168.072 94.8677V149.131C168.073 149.744 167.912 150.347 167.606 150.879C167.299 151.411 166.858 151.853 166.327 152.16C165.796 152.467 165.193 152.629 164.579 152.629C163.966 152.63 163.363 152.468 162.831 152.161L133.606 135.286L128.426 132.299C126.643 131.268 125.161 129.787 124.129 128.003C123.098 126.22 122.553 124.197 122.548 122.137V67.8695C122.547 67.2558 122.708 66.6527 123.014 66.1208C123.32 65.589 123.761 65.1472 124.293 64.84C124.824 64.5327 125.427 64.3708 126.04 64.3706C126.654 64.3704 127.257 64.5318 127.789 64.8387L162.202 84.7052C163.987 85.7349 165.468 87.2161 166.499 89C167.529 90.7839 168.072 92.8077 168.072 94.8677Z" fill="white"/>
<path d="M151.235 126.976C151.235 126.976 156.708 136.051 152.755 146.283L133.592 135.286L151.235 126.976Z" fill="#263238"/>
<path d="M159.962 86.202C160.376 82.8386 157.985 79.7763 154.622 79.3621C151.259 78.9479 148.196 81.3388 147.782 84.7022C147.368 88.0655 149.759 91.1279 153.122 91.542C156.486 91.9562 159.548 89.5654 159.962 86.202Z" fill="#263238"/>
<path d="M153.904 68.2408C153.904 68.2408 155.787 65.1837 156.363 65.4064C156.94 65.6292 155.987 68.5421 155.987 68.5421C155.987 68.5421 158.835 69.1361 158.306 69.8523C157.778 70.5685 154.297 70.3982 154.297 70.3982L153.904 68.2408Z" fill="#263238"/>
<path d="M155.214 76.1192C153.904 85.9629 145.607 85.9629 145.607 85.9629L128.225 78.3116C128.225 78.3116 126.915 77.163 126.513 74.5252C126.359 73.4447 126.359 72.3477 126.513 71.2672C126.513 71.2672 126.513 71.2454 126.513 71.2367C127.068 67.0965 130.164 62.6463 136.907 61.2794C138.385 60.981 139.889 60.8347 141.397 60.8427C142.126 60.8401 142.855 60.8765 143.58 60.9518C148.821 61.4672 152.494 63.9128 154.245 67.7167C154.639 68.5752 154.932 69.4765 155.118 70.4025C155.474 72.2889 155.506 74.222 155.214 76.1192Z" fill="#263238"/>
<path d="M113.485 95.1603C113.485 95.1603 107.314 94.9463 104.938 100.96C104.938 100.96 107.559 102.729 110.996 100.96C114.433 99.1913 113.485 95.1603 113.485 95.1603Z" fill="#FF9900"/>
<path opacity="0.5" d="M113.485 95.1603C113.485 95.1603 107.314 94.9463 104.938 100.96C104.938 100.96 107.559 102.729 110.996 100.96C114.433 99.1913 113.485 95.1603 113.485 95.1603Z" fill="#6B006D"/>
<path d="M113.311 98.0558C113.311 98.0558 111.564 90.4655 110.642 90.3738C109.721 90.2821 109.542 92.6885 109.616 94.0467L107.432 89.3475C107.363 89.2015 107.265 89.0712 107.143 88.9647C107.021 88.8582 106.879 88.7777 106.726 88.7282C106.572 88.6787 106.409 88.6612 106.248 88.6768C106.088 88.6925 105.932 88.7409 105.79 88.8191C103.607 90.0201 99.7765 93.6711 107.852 102.698L113.311 98.0558Z" fill="#FFC3BD"/>
<path d="M135.671 92.8064L134.361 92.6361C133.04 92.461 131.697 92.6406 130.469 93.1563C129.241 93.6721 128.173 94.5055 127.373 95.5709L119.578 105.947L113.464 95.1603C113.464 95.1603 112.73 102.497 104.917 100.96L113.306 115.079C113.837 115.973 114.576 116.725 115.461 117.272C116.345 117.819 117.348 118.145 118.385 118.22C119.422 118.296 120.462 118.121 121.416 117.708C122.37 117.296 123.211 116.659 123.866 115.852L131.046 107.026L135.671 92.8064Z" fill="#FF9900"/>
<path d="M152.31 117.023C150.563 121.451 150.371 122.316 151.436 124.53C152.178 126.165 152.763 127.867 153.183 129.613C153.183 129.613 145.086 138.688 133.561 135.291L128.382 132.304C127.305 131.682 126.334 130.892 125.508 129.963L127.085 118.206C127.164 117.587 127.101 116.959 126.901 116.368L125.246 111.516C124.438 109.146 124.318 106.596 124.899 104.16C125.48 101.725 126.739 99.5041 128.53 97.7545L134.094 92.3173L148.707 94.1864L150.89 94.8109C152.32 95.2244 153.552 96.1398 154.361 97.389C155.17 98.6381 155.5 100.137 155.293 101.611C154.576 106.764 153.406 114.241 152.31 117.023Z" fill="#FF9900"/>
<path opacity="0.5" d="M152.31 117.023C150.563 121.451 150.371 122.316 151.436 124.53C152.178 126.165 152.763 127.867 153.183 129.613C153.183 129.613 145.086 138.688 133.561 135.291L128.382 132.304C127.305 131.682 126.334 130.892 125.508 129.963L127.085 118.206C127.164 117.587 127.101 116.959 126.901 116.368L125.246 111.516C124.438 109.146 124.318 106.596 124.899 104.16C125.48 101.725 126.739 99.5041 128.53 97.7545L134.094 92.3173L148.707 94.1864L150.89 94.8109C152.32 95.2244 153.552 96.1398 154.361 97.389C155.17 98.6381 155.5 100.137 155.293 101.611C154.576 106.764 153.406 114.241 152.31 117.023Z" fill="#6B006D"/>
<path d="M143.497 103.794L140.571 101.301C140.261 101.036 139.887 100.856 139.487 100.779C139.086 100.703 138.673 100.732 138.287 100.864L134.749 102.082L134.273 100.1C134.199 99.7912 134.063 99.5009 133.874 99.2465C133.684 98.992 133.445 98.7785 133.171 98.619C132.896 98.4594 132.593 98.357 132.278 98.318C131.963 98.279 131.643 98.3042 131.339 98.3921L129.806 98.8288L132.4 93.8589C133.247 92.2402 134.552 90.9067 136.151 90.0245L137.169 89.4655L145.576 89.9022C145.576 89.9022 148.707 91.2123 148.707 94.1602L143.497 103.768" fill="#FF9900"/>
<path d="M145.61 93.6274L137.182 100.196V79.2811H145.61V93.6274Z" fill="#FFC3BD"/>
<path d="M137.313 91.9023L134.749 102.1L145.575 93.6274L137.313 91.9023Z" fill="#FFC3BD"/>
<path d="M137.182 90.3869C139.056 89.691 140.77 88.6214 142.218 87.243C143.666 85.8646 144.819 84.2063 145.606 82.3687V79.2811H137.178L137.182 90.3869Z" fill="#FFC3BD"/>
<path d="M138.999 63.7818C135.802 63.7818 129.006 65.5636 128.22 73.9312C127.434 82.2988 128.194 88.7798 132.509 89.4087C136.824 90.0376 146.851 86.9063 148.196 76.0755C149.541 65.2448 142.112 63.7818 138.999 63.7818Z" fill="#FFC3BD"/>
<path d="M133.967 77.4731V82.4037L131.076 81.5171L133.967 77.4731Z" fill="#FFC3BD"/>
<path d="M137.181 79.3291C137.736 79.3291 138.186 78.8794 138.186 78.3246C138.186 77.7699 137.736 77.3202 137.181 77.3202C136.626 77.3202 136.177 77.7699 136.177 78.3246C136.177 78.8794 136.626 79.3291 137.181 79.3291Z" fill="#263238"/>
<path d="M131.574 77.626C131.573 77.8244 131.514 78.0182 131.403 78.1828C131.292 78.3474 131.135 78.4755 130.951 78.5508C130.768 78.6262 130.566 78.6455 130.371 78.6062C130.177 78.567 129.998 78.471 129.858 78.3303C129.718 78.1897 129.623 78.0107 129.584 77.8159C129.546 77.6212 129.566 77.4195 129.642 77.2362C129.718 77.0529 129.847 76.8963 130.012 76.7861C130.177 76.6759 130.371 76.6171 130.57 76.6171C130.702 76.6171 130.833 76.6432 130.955 76.694C131.077 76.7448 131.188 76.8191 131.282 76.9129C131.375 77.0066 131.449 77.1179 131.499 77.2402C131.549 77.3626 131.575 77.4937 131.574 77.626Z" fill="#263238"/>
<path d="M129.342 75.5296L131.308 74.3636C131.308 74.3636 130.557 73.5818 129.805 74.0491C129.054 74.5164 129.342 75.5296 129.342 75.5296Z" fill="#263238"/>
<path d="M132.609 84.4039C133.566 84.4737 134.519 84.2183 135.313 83.6789C135.313 83.6789 135.5 85.107 134.304 85.3777C133.107 85.6485 132.609 84.4039 132.609 84.4039Z" fill="#FFC3BD"/>
<path d="M130.894 66.6292C130.894 66.6292 132.095 78.1805 147.803 78.543C147.803 78.543 152.551 67.0615 143.17 63.3319C133.789 59.6023 130.894 66.6292 130.894 66.6292Z" fill="#263238"/>
<path d="M152.428 76.8136L150.497 75.6956C149.764 75.2589 148.75 75.32 147.628 75.9664C145.401 77.2504 143.593 80.3817 143.593 82.954C143.593 84.2423 144.029 85.1376 144.781 85.5743L146.676 86.6661L146.785 86.7272L146.851 86.7665C147.567 87.1159 148.523 87.0329 149.576 86.4259C151.803 85.1157 153.611 82.0106 153.611 79.4383C153.598 78.1369 153.148 77.2373 152.428 76.8136Z" fill="#FF9900"/>
<path d="M152.413 83.3915C153.988 80.6635 153.988 77.7149 152.413 76.8056C150.838 75.8963 148.284 77.3706 146.709 80.0986C145.134 82.8266 145.134 85.7752 146.709 86.6845C148.284 87.5938 150.838 86.1195 152.413 83.3915Z" fill="#FF9900"/>
<path opacity="0.5" d="M152.413 83.3915C153.988 80.6635 153.988 77.7149 152.413 76.8056C150.838 75.8963 148.284 77.3706 146.709 80.0986C145.134 82.8266 145.134 85.7752 146.709 86.6845C148.284 87.5938 150.838 86.1195 152.413 83.3915Z" fill="#6B006D"/>
<path d="M153.201 79.2374L151.891 78.4731C151.393 78.1762 150.699 78.2155 149.93 78.6566C149.127 79.1813 148.459 79.8876 147.979 80.7183C147.5 81.549 147.223 82.4809 147.17 83.4387C147.17 84.3121 147.48 84.9366 147.982 85.2249L149.292 85.9717C149.316 85.9886 149.341 86.0033 149.367 86.0153L149.41 86.0415C149.717 86.158 150.048 86.1974 150.374 86.1563C150.7 86.1152 151.011 85.9948 151.279 85.8057C152.082 85.2814 152.75 84.5758 153.229 83.7459C153.709 82.916 153.986 81.9849 154.04 81.028C154.005 80.1414 153.699 79.5256 153.201 79.2374Z" fill="#FF9900"/>
<path d="M154.004 81.0193C153.951 81.9762 153.673 82.9073 153.194 83.7372C152.714 84.5671 152.046 85.2727 151.244 85.797C149.715 86.6705 148.479 85.963 148.479 84.203C148.531 83.2451 148.809 82.3131 149.289 81.4828C149.77 80.6525 150.439 79.9475 151.244 79.4252C152.768 78.543 154.004 79.2549 154.004 81.0193Z" fill="#FF9900"/>
<path opacity="0.3" d="M154.004 81.0193C153.951 81.9762 153.673 82.9073 153.194 83.7372C152.714 84.5671 152.046 85.2727 151.244 85.797C149.715 86.6705 148.479 85.963 148.479 84.203C148.531 83.2451 148.809 82.3131 149.289 81.4828C149.77 80.6525 150.439 79.9475 151.244 79.4252C152.768 78.543 154.004 79.2549 154.004 81.0193Z" fill="#6B006D"/>
<path d="M146.432 61.5283C145.18 60.5613 143.646 60.0292 142.064 60.0129H141.676C140.074 59.9956 138.474 60.142 136.902 60.4496C137.191 60.4496 137.479 60.4496 137.776 60.4496H136.902V61.2619H137.715C140.514 61.3571 143.167 62.5372 145.112 64.5526C147.058 66.5681 148.143 69.2609 148.139 72.0621V75.4991C148.139 75.635 148.168 75.7693 148.223 75.8935C148.278 76.0177 148.358 76.1288 148.459 76.2198C148.56 76.3109 148.679 76.3796 148.808 76.4217C148.937 76.4638 149.074 76.4783 149.209 76.4642H149.31L150.183 76.1935C150.125 76.2118 150.065 76.2235 150.004 76.2284C150.264 76.1931 150.503 76.0632 150.673 75.8634C150.844 75.6637 150.935 75.4081 150.93 75.1453V71.9573C150.921 66.1882 148.427 63.0874 146.432 61.5283Z" fill="#FF9900"/>
<path d="M140.933 89.1685C140.573 89.1685 140.217 89.0911 139.889 88.9414L137.16 87.6793C137.117 87.664 137.078 87.6401 137.045 87.6089C137.012 87.5778 136.986 87.5401 136.968 87.4984C136.951 87.4566 136.942 87.4116 136.942 87.3663C136.943 87.3209 136.953 87.2762 136.972 87.235C136.991 87.1937 137.018 87.1568 137.052 87.1266C137.085 87.0964 137.125 87.0735 137.168 87.0595C137.211 87.0454 137.257 87.0404 137.302 87.0449C137.347 87.0493 137.391 87.0631 137.43 87.0853L140.16 88.3475C140.508 88.5094 140.898 88.5585 141.275 88.488C141.653 88.4176 141.999 88.231 142.265 87.9544L144.885 85.2467C144.947 85.1854 145.03 85.1509 145.117 85.1509C145.204 85.1509 145.287 85.1854 145.348 85.2467C145.409 85.3087 145.442 85.3917 145.442 85.4782C145.442 85.5647 145.409 85.6477 145.348 85.7097L142.728 88.4173C142.495 88.6569 142.215 88.8468 141.907 88.9759C141.599 89.105 141.267 89.1705 140.933 89.1685Z" fill="#FF9900"/>
<path opacity="0.5" d="M140.933 89.1685C140.573 89.1685 140.217 89.0911 139.889 88.9414L137.16 87.6793C137.117 87.664 137.078 87.6401 137.045 87.6089C137.012 87.5778 136.986 87.5401 136.968 87.4984C136.951 87.4566 136.942 87.4116 136.942 87.3663C136.943 87.3209 136.953 87.2762 136.972 87.235C136.991 87.1937 137.018 87.1568 137.052 87.1266C137.085 87.0964 137.125 87.0735 137.168 87.0595C137.211 87.0454 137.257 87.0404 137.302 87.0449C137.347 87.0493 137.391 87.0631 137.43 87.0853L140.16 88.3475C140.508 88.5094 140.898 88.5585 141.275 88.488C141.653 88.4176 141.999 88.231 142.265 87.9544L144.885 85.2467C144.947 85.1854 145.03 85.1509 145.117 85.1509C145.204 85.1509 145.287 85.1854 145.348 85.2467C145.409 85.3087 145.442 85.3917 145.442 85.4782C145.442 85.5647 145.409 85.6477 145.348 85.7097L142.728 88.4173C142.495 88.6569 142.215 88.8468 141.907 88.9759C141.599 89.105 141.267 89.1705 140.933 89.1685Z" fill="#6B006D"/>
<path d="M137.876 86.7622C137.876 87.0144 137.801 87.2609 137.661 87.4706C137.521 87.6804 137.321 87.8438 137.088 87.9403C136.855 88.0368 136.599 88.0621 136.352 88.0129C136.104 87.9637 135.877 87.8422 135.699 87.6639C135.52 87.4856 135.399 87.2583 135.35 87.0109C135.3 86.7636 135.326 86.5072 135.422 86.2742C135.519 86.0411 135.682 85.842 135.892 85.7019C136.102 85.5617 136.348 85.4869 136.6 85.4869C136.939 85.4869 137.263 85.6213 137.502 85.8604C137.741 86.0996 137.876 86.424 137.876 86.7622Z" fill="#FF9900"/>
<path opacity="0.5" d="M137.876 86.7622C137.876 87.0144 137.801 87.2609 137.661 87.4706C137.521 87.6804 137.321 87.8438 137.088 87.9403C136.855 88.0368 136.599 88.0621 136.352 88.0129C136.104 87.9637 135.877 87.8422 135.699 87.6639C135.52 87.4856 135.399 87.2583 135.35 87.0109C135.3 86.7636 135.326 86.5072 135.422 86.2742C135.519 86.0411 135.682 85.842 135.892 85.7019C136.102 85.5617 136.348 85.4869 136.6 85.4869C136.939 85.4869 137.263 85.6213 137.502 85.8604C137.741 86.0996 137.876 86.424 137.876 86.7622Z" fill="#6B006D"/>
<path d="M150.921 71.9572V75.1453C150.926 75.408 150.835 75.6636 150.664 75.8633C150.494 76.0631 150.255 76.193 149.995 76.2283C149.851 76.2437 149.705 76.2285 149.568 76.1839C149.43 76.1393 149.304 76.0662 149.196 75.9694C149.088 75.8726 149.003 75.7543 148.944 75.622C148.885 75.4898 148.855 75.3467 148.855 75.202V71.9572C148.857 70.4086 148.547 68.8754 147.941 67.4501C147.336 66.0247 146.448 64.7365 145.332 63.6631C144.216 62.5897 142.894 61.7532 141.446 61.2039C139.998 60.6546 138.454 60.404 136.906 60.467C138.478 60.1594 140.078 60.013 141.68 60.0303H142.06C143.641 60.0466 145.175 60.5787 146.427 61.5457C148.427 63.0874 150.921 66.1881 150.921 71.9572Z" fill="#FF9900"/>
<path opacity="0.5" d="M150.921 71.9572V75.1453C150.926 75.408 150.835 75.6636 150.664 75.8633C150.494 76.0631 150.255 76.193 149.995 76.2283C149.851 76.2437 149.705 76.2285 149.568 76.1839C149.43 76.1393 149.304 76.0662 149.196 75.9694C149.088 75.8726 149.003 75.7543 148.944 75.622C148.885 75.4898 148.855 75.3467 148.855 75.202V71.9572C148.857 70.4086 148.547 68.8754 147.941 67.4501C147.336 66.0247 146.448 64.7365 145.332 63.6631C144.216 62.5897 142.894 61.7532 141.446 61.2039C139.998 60.6546 138.454 60.404 136.906 60.467C138.478 60.1594 140.078 60.013 141.68 60.0303H142.06C143.641 60.0466 145.175 60.5787 146.427 61.5457C148.427 63.0874 150.921 66.1881 150.921 71.9572Z" fill="#6B006D"/>
<path d="M146.012 132.037C146.012 132.037 143.899 137.859 151.454 140.479C151.454 140.479 153.921 136.854 151.454 133.889C148.986 130.924 146.012 132.037 146.012 132.037Z" fill="#FF9900"/>
<path opacity="0.7" d="M146.012 132.037C146.012 132.037 143.899 137.859 151.454 140.479C151.454 140.479 153.921 136.854 151.454 133.889C148.986 130.924 146.012 132.037 146.012 132.037Z" fill="#6B006D"/>
<path d="M148.663 132.304C148.663 132.304 141.282 135.007 141.322 136.055C141.361 137.103 144.457 136.387 144.457 136.387L143.326 137.129C142.135 137.907 141.213 139.032 140.684 140.352C140.569 140.644 140.565 140.967 140.673 141.261C140.781 141.555 140.993 141.799 141.269 141.946L144.073 143.431C144.231 143.515 144.405 143.567 144.584 143.582C144.762 143.598 144.942 143.578 145.113 143.523C145.283 143.468 145.441 143.379 145.577 143.262C145.713 143.145 145.823 143.002 145.903 142.842C146.059 142.533 146.275 142.258 146.538 142.033C146.801 141.808 147.107 141.638 147.436 141.532C148.96 141.025 151.803 139.566 152.943 135.575L148.663 132.304Z" fill="#FFC3BD"/>
<path d="M150.878 94.8022C150.878 94.8022 146.947 96.9859 149.035 103.615C151.122 110.245 155.04 120.53 155.04 120.53L146.013 132.037C146.977 132.154 147.906 132.472 148.739 132.972C149.572 133.471 150.291 134.141 150.847 134.937C151.38 135.747 151.714 136.671 151.819 137.635C151.925 138.598 151.8 139.573 151.454 140.479L162.661 126.067C163.697 124.735 164.385 123.166 164.663 121.502C164.94 119.837 164.798 118.13 164.25 116.534L159.446 102.506C158.859 100.793 157.883 99.2381 156.595 97.9645C155.307 96.6909 153.742 95.7327 152.022 95.1647L150.878 94.8022Z" fill="#FF9900"/>
<path d="M84.5313 55.6413L67.1629 45.5967C66.963 45.4582 66.7317 45.3716 66.49 45.345C66.2483 45.3183 66.0037 45.3523 65.7785 45.4438C65.731 45.4658 65.6857 45.4921 65.6431 45.5225L61.8654 47.7366H61.8916C61.4156 48.0074 61.1143 48.6363 61.1143 49.5359V68.8566C61.1143 70.4899 62.1056 72.3896 63.3328 73.0971L80.7013 83.1418C80.9216 83.3012 81.184 83.3923 81.4557 83.404C81.7274 83.4156 81.9966 83.3472 82.2298 83.2073C82.218 83.212 82.2075 83.2195 82.1992 83.2291L85.9507 81.0455C86.4398 80.7835 86.7499 80.1458 86.7499 79.2331V59.8819C86.7499 58.2486 85.776 56.3488 84.5313 55.6413Z" fill="#FF9900"/>
<path d="M86.1295 57.4712C85.7782 56.7239 85.2244 56.09 84.5311 55.6413L67.1627 45.5967C66.9628 45.4582 66.7316 45.3716 66.4898 45.345C66.2481 45.3183 66.0036 45.3523 65.7783 45.4438C65.7308 45.4658 65.6855 45.4921 65.6429 45.5225L61.8652 47.7366C62.0963 47.6185 62.3554 47.5662 62.6142 47.5855C62.873 47.6048 63.1216 47.6948 63.3326 47.8458L80.7011 57.8904C81.418 58.3591 81.9861 59.0228 82.3388 59.8033L86.1295 57.4712Z" fill="#FF9900"/>
<path d="M82.9198 81.4429C82.9198 82.3164 82.6403 82.9234 82.1992 83.1898L85.9507 81.0062C86.4398 80.7441 86.7499 80.1065 86.7499 79.1938V59.8819C86.7314 59.0413 86.5192 58.2163 86.1297 57.4712L82.339 59.8033C82.7029 60.5265 82.9013 61.3216 82.9198 62.131V81.4429Z" fill="#FF9900"/>
<path opacity="0.3" d="M86.1295 57.4712C85.7782 56.7239 85.2244 56.09 84.5311 55.6413L67.1627 45.5967C66.9628 45.4582 66.7316 45.3716 66.4898 45.345C66.2481 45.3183 66.0036 45.3523 65.7783 45.4438C65.7308 45.4658 65.6855 45.4921 65.6429 45.5225L61.8652 47.7366C62.0963 47.6185 62.3554 47.5662 62.6142 47.5855C62.873 47.6048 63.1216 47.6948 63.3326 47.8458L80.7011 57.8904C81.418 58.3591 81.9861 59.0228 82.3388 59.8033L86.1295 57.4712Z" fill="#6B006D"/>
<path opacity="0.6" d="M82.9198 81.4429C82.9198 82.3164 82.6403 82.9234 82.1992 83.1898L85.9507 81.0062C86.4398 80.7441 86.7499 80.1065 86.7499 79.1938V59.8819C86.7314 59.0413 86.5192 58.2163 86.1297 57.4712L82.339 59.8033C82.7029 60.5265 82.9013 61.3216 82.9198 62.131V81.4429Z" fill="#6B006D"/>
<path d="M77.828 67.6643C77.828 70.1668 76.8367 71.0184 75.3518 70.158C74.9422 69.9248 74.584 69.6111 74.2988 69.2359C74.0136 68.8606 73.8073 68.4315 73.6923 67.9744C73.2555 68.5116 72.5786 68.5465 71.6266 67.9963C70.0631 67.0922 68.8315 64.9392 68.8315 62.8473C68.8315 60.7554 70.05 60.0348 71.6266 60.9432C72.4266 61.4147 73.0728 62.1079 73.487 62.939V62.1136L75.1335 63.0657V67.5901C75.1089 67.8282 75.1501 68.0685 75.2525 68.2848C75.3549 68.5011 75.5146 68.6853 75.7143 68.8173C76.2689 69.1405 76.6096 68.5946 76.6096 66.9743C76.6096 64.14 74.7928 61.1353 72.107 59.585C69.4211 58.0346 67.6087 59.1133 67.6087 62.0306C67.6439 63.5786 68.0705 65.0925 68.8486 66.4312C69.6268 67.7699 70.7312 68.8897 72.0589 69.6864C72.7798 70.1304 73.5985 70.3913 74.4434 70.4463L74.8321 71.953C73.8483 71.8736 72.8976 71.5607 72.0589 71.0402C68.5651 69.0182 66.2549 64.9479 66.2549 61.262C66.2549 57.576 68.587 56.2397 72.107 58.2748C75.509 60.2357 77.828 64.1618 77.828 67.6643ZM73.5132 65.5637C73.5217 65.0099 73.3866 64.4634 73.121 63.9774C72.8554 63.4914 72.4684 63.0825 71.9978 62.7905C71.1243 62.2796 70.4998 62.6377 70.4998 63.8255C70.4886 64.3802 70.6205 64.9284 70.8829 65.4173C71.1453 65.9061 71.5293 66.319 71.9978 66.6162C72.8712 67.1097 73.5132 66.7909 73.5132 65.5637Z" fill="#FF9900"/>
<g opacity="0.9">
<path opacity="0.9" d="M77.828 67.6643C77.828 70.1668 76.8367 71.0184 75.3518 70.158C74.9422 69.9248 74.584 69.6111 74.2988 69.2359C74.0136 68.8606 73.8073 68.4315 73.6923 67.9744C73.2555 68.5116 72.5786 68.5465 71.6266 67.9963C70.0631 67.0922 68.8315 64.9392 68.8315 62.8473C68.8315 60.7554 70.05 60.0348 71.6266 60.9432C72.4266 61.4147 73.0728 62.1079 73.487 62.939V62.1136L75.1335 63.0657V67.5901C75.1089 67.8282 75.1501 68.0685 75.2525 68.2848C75.3549 68.5011 75.5146 68.6853 75.7143 68.8173C76.2689 69.1405 76.6096 68.5946 76.6096 66.9743C76.6096 64.14 74.7928 61.1353 72.107 59.585C69.4211 58.0346 67.6087 59.1133 67.6087 62.0306C67.6439 63.5786 68.0705 65.0925 68.8486 66.4312C69.6268 67.7699 70.7312 68.8897 72.0589 69.6864C72.7798 70.1304 73.5985 70.3913 74.4434 70.4463L74.8321 71.953C73.8483 71.8736 72.8976 71.5607 72.0589 71.0402C68.5651 69.0182 66.2549 64.9479 66.2549 61.262C66.2549 57.576 68.587 56.2397 72.107 58.2748C75.509 60.2357 77.828 64.1618 77.828 67.6643ZM73.5132 65.5637C73.5217 65.0099 73.3866 64.4634 73.121 63.9774C72.8554 63.4914 72.4684 63.0825 71.9978 62.7905C71.1243 62.2796 70.4998 62.6377 70.4998 63.8255C70.4886 64.3802 70.6205 64.9284 70.8829 65.4173C71.1453 65.9061 71.5293 66.319 71.9978 66.6162C72.8712 67.1097 73.5132 66.7909 73.5132 65.5637Z" fill="white"/>
</g>
<path d="M84.5313 90.0464L67.1629 80.0017C66.9633 79.8624 66.7317 79.7758 66.4897 79.7498C66.2477 79.7239 66.0031 79.7594 65.7785 79.8532C65.731 79.8752 65.6857 79.9015 65.6431 79.9319L61.8654 82.146H61.8916C61.4156 82.4168 61.1143 83.0457 61.1143 83.941V103.253C61.1143 104.891 62.1056 106.786 63.3328 107.493L80.7013 117.538C80.9212 117.699 81.1836 117.79 81.4556 117.802C81.7276 117.814 81.997 117.745 82.2298 117.604L82.1992 117.63L85.9507 115.424C86.4398 115.167 86.7499 114.551 86.7499 113.612V94.2826C86.7499 92.6492 85.776 90.7538 84.5313 90.0464Z" fill="#FF9900"/>
<path d="M86.1295 91.8762C85.7794 91.1281 85.2254 90.4939 84.5311 90.0464L67.1627 80.0017C66.9631 79.8624 66.7315 79.7758 66.4895 79.7498C66.2475 79.7239 66.0029 79.7594 65.7783 79.8532C65.7308 79.8752 65.6855 79.9015 65.6429 79.9319L61.8652 82.146C62.0958 82.0268 62.3548 81.9735 62.6137 81.992C62.8726 82.0105 63.1214 82.1001 63.3326 82.2508L80.7011 92.2955C81.4191 92.7648 81.9875 93.4302 82.3388 94.2127L86.1295 91.8762Z" fill="#FF9900"/>
<path d="M82.9198 115.844C82.9198 116.717 82.6403 117.324 82.1992 117.612L85.9507 115.407C86.4398 115.149 86.7499 114.533 86.7499 113.594V94.2826C86.7314 93.4434 86.5191 92.6199 86.1297 91.8763L82.339 94.2084C82.7029 94.93 82.9013 95.7237 82.9198 96.5317V115.844Z" fill="#FF9900"/>
<path opacity="0.3" d="M86.1295 91.8762C85.7794 91.1281 85.2254 90.4939 84.5311 90.0464L67.1627 80.0017C66.9631 79.8624 66.7315 79.7758 66.4895 79.7498C66.2475 79.7239 66.0029 79.7594 65.7783 79.8532C65.7308 79.8752 65.6855 79.9015 65.6429 79.9319L61.8652 82.146C62.0958 82.0268 62.3548 81.9735 62.6137 81.992C62.8726 82.0105 63.1214 82.1001 63.3326 82.2508L80.7011 92.2955C81.4191 92.7648 81.9875 93.4302 82.3388 94.2127L86.1295 91.8762Z" fill="#6B006D"/>
<path opacity="0.6" d="M82.9198 115.844C82.9198 116.717 82.6403 117.324 82.1992 117.612L85.9507 115.407C86.4398 115.149 86.7499 114.533 86.7499 113.594V94.2826C86.7314 93.4434 86.5191 92.6199 86.1297 91.8763L82.339 94.2084C82.7029 94.93 82.9013 95.7237 82.9198 96.5317V115.844Z" fill="#6B006D"/>
<path d="M70.0759 98.6804L65.8877 91.8763V101.095L70.0759 98.6804Z" fill="#FF9900"/>
<path d="M73.9668 100.641L78.1462 107.878V98.6716L73.9668 100.641Z" fill="#FF9900"/>
<path d="M66.5205 91.5662L70.8222 98.5537C70.8404 98.569 70.8566 98.5867 70.8703 98.6061C70.8741 98.6234 70.8741 98.6413 70.8703 98.6585L72.1499 100.737L73.2329 100.226C73.2498 100.208 73.2689 100.192 73.2897 100.178C73.3324 100.153 73.3802 100.138 73.4295 100.135L77.7967 98.0864L66.5205 91.5662Z" fill="#FF9900"/>
<path d="M73.334 100.938L72.1636 101.488C72.1185 101.509 72.0693 101.52 72.0195 101.519C71.9592 101.52 71.8998 101.505 71.847 101.476C71.7942 101.447 71.7498 101.404 71.7182 101.353L70.4386 99.2743L66.2373 101.702L77.5441 108.227L73.334 100.938Z" fill="#FF9900"/>
<g opacity="0.9">
<path opacity="0.9" d="M70.0759 98.6804L65.8877 91.8762V101.095L70.0759 98.6804Z" fill="white"/>
<path opacity="0.9" d="M73.9668 100.641L78.1462 107.878V98.6716L73.9668 100.641Z" fill="white"/>
<path opacity="0.9" d="M66.5205 91.5662L70.8222 98.5537C70.8404 98.569 70.8566 98.5867 70.8703 98.6061C70.8741 98.6234 70.8741 98.6413 70.8703 98.6585L72.1499 100.737L73.2329 100.226C73.2498 100.208 73.2689 100.192 73.2897 100.178C73.3324 100.153 73.3802 100.138 73.4295 100.135L77.7967 98.0864L66.5205 91.5662Z" fill="white"/>
<path opacity="0.9" d="M73.334 100.938L72.1636 101.488C72.1185 101.509 72.0693 101.52 72.0195 101.519C71.9592 101.52 71.8998 101.505 71.847 101.476C71.7942 101.447 71.7498 101.404 71.7182 101.353L70.4386 99.2743L66.2373 101.702L77.5441 108.227L73.334 100.938Z" fill="white"/>
</g>
<path d="M84.5313 21.2537L67.1629 11.2091C66.9633 11.0698 66.7317 10.9832 66.4897 10.9572C66.2477 10.9313 66.0031 10.9668 65.7785 11.0606C65.731 11.0826 65.6857 11.1089 65.6431 11.1392L61.8654 13.3534H61.8916C61.4156 13.6198 61.1143 14.2531 61.1143 15.1484V34.4602C61.1143 36.0936 62.1056 37.9933 63.3328 38.7008L80.7013 48.7454C80.9212 48.9059 81.1836 48.9977 81.4556 49.0094C81.7276 49.021 81.997 48.952 82.2298 48.811L82.1992 48.8328L85.9507 46.6492C86.4398 46.3915 86.7499 45.7757 86.7499 44.8368V25.4769C86.7499 23.8435 85.776 21.9438 84.5313 21.2537Z" fill="#FF9900"/>
<path d="M86.1295 23.0706C85.7794 22.3213 85.2255 21.6856 84.5311 21.2363L67.1627 11.2092C66.9631 11.0699 66.7315 10.9832 66.4895 10.9573C66.2475 10.9313 66.0029 10.9669 65.7783 11.0607C65.7308 11.0826 65.6855 11.1089 65.6429 11.1393L61.8652 13.3535C62.0958 13.2343 62.3548 13.181 62.6137 13.1995C62.8726 13.218 63.1214 13.3075 63.3326 13.4583L80.7011 23.5029C81.4191 23.9722 81.9875 24.6376 82.3388 25.4201L86.1295 23.0706Z" fill="#FF9900"/>
<path d="M82.9198 47.0204C82.9198 47.8939 82.6403 48.5009 82.1992 48.7673L85.9507 46.5837C86.4398 46.326 86.7499 45.7103 86.7499 44.7713V25.4769C86.7314 24.6377 86.5191 23.8142 86.1297 23.0706L82.339 25.4027C82.7029 26.1243 82.9013 26.918 82.9198 27.726V47.0204Z" fill="#FF9900"/>
<path opacity="0.3" d="M86.1295 23.0706C85.7794 22.3213 85.2255 21.6856 84.5311 21.2363L67.1627 11.2092C66.9631 11.0699 66.7315 10.9832 66.4895 10.9573C66.2475 10.9313 66.0029 10.9669 65.7783 11.0607C65.7308 11.0826 65.6855 11.1089 65.6429 11.1393L61.8652 13.3535C62.0958 13.2343 62.3548 13.181 62.6137 13.1995C62.8726 13.218 63.1214 13.3075 63.3326 13.4583L80.7011 23.5029C81.4191 23.9722 81.9875 24.6376 82.3388 25.4201L86.1295 23.0706Z" fill="#6B006D"/>
<path opacity="0.6" d="M82.9198 47.0204C82.9198 47.8939 82.6403 48.5009 82.1992 48.7673L85.9507 46.5837C86.4398 46.326 86.7499 45.7103 86.7499 44.7713V25.4769C86.7314 24.6377 86.5191 23.8142 86.1297 23.0706L82.339 25.4027C82.7029 26.1243 82.9013 26.918 82.9198 27.726V47.0204Z" fill="#6B006D"/>
<path d="M77.238 38.7227C76.5698 37.6222 75.8973 36.5391 75.2291 35.4298C75.1231 35.2197 74.9749 35.0337 74.7938 34.8834C74.6128 34.7331 74.4026 34.6218 74.1766 34.5564C73.8534 34.4909 73.5302 34.4166 73.1983 34.3205C73.0801 34.2712 72.9807 34.1856 72.9145 34.076C71.8211 32.2047 70.9518 30.2111 70.3247 28.1365C70.3113 28.0922 70.3076 28.0455 70.3136 27.9996C70.3196 27.9537 70.3353 27.9095 70.3596 27.8701C70.5649 27.6649 70.7963 27.4771 71.006 27.2937C71.2156 27.1102 71.3248 26.6866 71.1719 26.1363C70.8488 24.9703 70.5387 23.8042 70.2155 22.6426C70.153 22.3125 70.0046 22.0047 69.7853 21.7502C69.5661 21.4956 69.2837 21.3034 68.9665 21.1926C68.2622 20.9968 67.5145 21.0243 66.8265 21.2713C66.5601 21.3717 66.4204 21.6119 66.416 22.0268C66.5296 22.826 66.6038 23.6165 66.7567 24.4288C67.8339 30.2867 70.4251 35.6729 74.5303 40.5875C74.6375 40.7505 74.7815 40.886 74.9506 40.9831C75.1198 41.0802 75.3094 41.1362 75.5042 41.1465C76.1839 41.1303 76.8368 40.8787 77.3516 40.4346C77.7402 40.0853 77.7009 39.4651 77.238 38.7227Z" fill="#FF9900"/>
<path d="M77.1852 32.7702C77.0939 31.5141 76.7477 30.2896 76.1677 29.1716C75.7347 28.2982 75.1836 27.4886 74.53 26.7653C74.3596 26.5731 74.2155 26.512 74.1282 26.6561C74.0408 26.8002 74.1282 27.0055 74.2941 27.1933L74.4645 27.3898C75.6716 28.7832 76.4323 30.507 76.6481 32.3379C76.6459 32.4714 76.6591 32.6048 76.6874 32.7353C76.7422 32.8855 76.8303 33.0213 76.945 33.1327C77.0368 33.1982 77.1416 33.1327 77.2158 33.1327C77.1896 32.9537 77.194 32.8619 77.1852 32.7702Z" fill="#FF9900"/>
<path d="M73.2285 29.1847C73.7769 29.7879 74.1101 30.5557 74.1762 31.3683C74.2049 31.4919 74.2505 31.6109 74.3116 31.7221C74.578 31.9404 74.709 31.8662 74.709 31.591C74.6156 30.5492 74.1847 29.5663 73.4818 28.7916C73.3158 28.6213 73.1804 28.5689 73.1018 28.713C73.0736 28.7953 73.0705 28.8842 73.0931 28.9682C73.1156 29.0523 73.1628 29.1276 73.2285 29.1847Z" fill="#FF9900"/>
<g opacity="0.9">
<path opacity="0.9" d="M77.238 38.7227C76.5698 37.6222 75.8973 36.5391 75.2291 35.4298C75.1231 35.2197 74.9749 35.0337 74.7938 34.8834C74.6128 34.7331 74.4026 34.6218 74.1766 34.5564C73.8534 34.4909 73.5302 34.4166 73.1983 34.3205C73.0801 34.2712 72.9807 34.1856 72.9145 34.076C71.8211 32.2047 70.9518 30.2111 70.3247 28.1365C70.3113 28.0922 70.3076 28.0455 70.3136 27.9996C70.3196 27.9537 70.3353 27.9095 70.3596 27.8701C70.5649 27.6649 70.7963 27.4771 71.006 27.2937C71.2156 27.1102 71.3248 26.6866 71.1719 26.1363C70.8488 24.9703 70.5387 23.8042 70.2155 22.6426C70.153 22.3125 70.0046 22.0047 69.7853 21.7502C69.5661 21.4956 69.2837 21.3034 68.9665 21.1926C68.2622 20.9968 67.5145 21.0243 66.8265 21.2713C66.5601 21.3717 66.4204 21.6119 66.416 22.0268C66.5296 22.826 66.6038 23.6165 66.7567 24.4288C67.8339 30.2867 70.4251 35.6729 74.5303 40.5875C74.6375 40.7505 74.7815 40.886 74.9506 40.9831C75.1198 41.0802 75.3094 41.1362 75.5042 41.1465C76.1839 41.1303 76.8368 40.8787 77.3516 40.4346C77.7402 40.0853 77.7009 39.4651 77.238 38.7227Z" fill="white"/>
<path opacity="0.9" d="M77.1852 32.7702C77.0939 31.5141 76.7477 30.2896 76.1677 29.1716C75.7347 28.2982 75.1836 27.4886 74.53 26.7653C74.3596 26.5731 74.2155 26.512 74.1282 26.6561C74.0408 26.8002 74.1282 27.0055 74.2941 27.1933L74.4645 27.3898C75.6716 28.7832 76.4323 30.507 76.6481 32.3379C76.6459 32.4714 76.6591 32.6048 76.6874 32.7353C76.7422 32.8855 76.8303 33.0213 76.945 33.1327C77.0368 33.1982 77.1416 33.1327 77.2158 33.1327C77.1896 32.9537 77.194 32.8619 77.1852 32.7702Z" fill="white"/>
<path opacity="0.9" d="M73.2285 29.1847C73.7769 29.7879 74.1101 30.5557 74.1762 31.3683C74.2049 31.4919 74.2505 31.6109 74.3116 31.7221C74.578 31.9404 74.709 31.8662 74.709 31.591C74.6156 30.5492 74.1847 29.5663 73.4818 28.7916C73.3158 28.6213 73.1804 28.5689 73.1018 28.713C73.0736 28.7953 73.0705 28.8842 73.0931 28.9682C73.1156 29.0523 73.1628 29.1276 73.2285 29.1847Z" fill="white"/>
</g>
<path d="M173.644 9.67186L177.737 11.9996V10.5497C177.737 10.4492 177.737 10.3444 177.737 10.244C177.737 10.1435 177.737 10.0474 177.737 9.95136V9.89895C177.885 7.98174 179.339 7.24368 181.112 8.26998C181.915 8.76371 182.603 9.42334 183.13 10.2047C183.527 7.58432 185.654 6.65847 188.227 8.13896C191.083 9.78977 193.397 13.8164 193.397 17.1005V20.2012C193.393 20.4493 193.454 20.694 193.575 20.9109C193.695 21.1279 193.87 21.3093 194.083 21.4372L196.494 22.8478C197.014 23.1563 197.445 23.5945 197.745 24.1197C198.045 24.6448 198.204 25.2389 198.206 25.8437C198.206 26.0946 198.14 26.3412 198.014 26.5584C197.889 26.7757 197.708 26.9561 197.491 27.0814C197.273 27.2067 197.027 27.2725 196.776 27.2722C196.525 27.2719 196.278 27.2055 196.061 27.0796L173.706 14.157C173.112 13.8126 172.62 13.319 172.277 12.7252C171.933 12.1314 171.752 11.4582 171.749 10.7724C171.749 10.5504 171.807 10.3323 171.918 10.1398C172.028 9.94738 172.188 9.7874 172.38 9.67593C172.572 9.56446 172.789 9.50541 173.011 9.5047C173.233 9.50398 173.452 9.56163 173.644 9.67186Z" fill="#E6E6E6"/>
<path d="M204.84 9.06483L207.814 10.7724V9.70681C207.814 9.63257 207.814 9.55832 207.814 9.48408C207.814 9.40984 207.814 9.33996 207.814 9.27009V9.24388C207.923 7.85074 208.98 7.31357 210.268 8.06037C210.851 8.41783 211.352 8.89579 211.735 9.46225C212.028 7.56687 213.574 6.88121 215.443 7.95992C217.522 9.16091 219.203 12.0782 219.203 14.4758V16.7337C219.205 16.9107 219.252 17.0842 219.341 17.2373C219.43 17.3905 219.557 17.5179 219.71 17.6071L221.457 18.6334C221.837 18.857 222.152 19.1762 222.37 19.5593C222.589 19.9424 222.703 20.3761 222.701 20.817C222.701 20.9977 222.654 21.1751 222.564 21.3318C222.474 21.4886 222.345 21.6192 222.19 21.7109C222.034 21.8026 221.857 21.8522 221.677 21.8547C221.496 21.8573 221.318 21.8127 221.16 21.7254L204.883 12.3271C204.452 12.0776 204.094 11.7191 203.845 11.2876C203.596 10.8561 203.464 10.3667 203.464 9.8684C203.464 9.70713 203.506 9.54861 203.586 9.40866C203.666 9.26872 203.781 9.15226 203.921 9.07092C204.06 8.98958 204.218 8.94621 204.379 8.94514C204.541 8.94407 204.699 8.98534 204.84 9.06483Z" fill="#E6E6E6"/>
<circle cx="30.5" cy="258.5" r="30.5" fill="#F5F5F5"/>
<circle cx="76" cy="229" r="14" fill="#F5F5F5"/>
<circle cx="235.5" cy="287.5" r="30.5" fill="#F5F5F5"/>
<circle cx="272.5" cy="315.5" r="10.5" fill="#F5F5F5"/>
</svg>
