<svg width="283" height="326" viewBox="0 0 283 326" fill="none" xmlns="http://www.w3.org/2000/svg">
<path d="M157.979 132.101C157.829 132.101 157.679 132.101 157.523 132.101C157.675 132.081 157.828 132.081 157.979 132.101V132.101Z" fill="#EBEBEB"/>
<path d="M136.904 22.1821V200H135.532L121.635 199.975H121.55L94.7242 199.93H94.133L85.5668 199.92L83.9537 199.915H83.8635L60.5843 199.875L57.0426 199.86L56.4464 199.855L44.8193 199.8V22.1821H136.904Z" fill="#EBEBEB"/>
<path d="M83.9078 34.3503L77.1149 34.2801H70.327L56.7412 34.235H56.2402V34.736L56.3204 56.3921V56.7979H56.7211L70.4021 56.6276L83.8878 56.3921L70.2118 56.1567L57.1219 55.9914V56.3921L56.7211 55.9864H57.1219L57.2071 35.2119H56.7061L57.2071 34.7109V35.2119L70.307 35.1668L77.0949 35.1368L83.5471 35.0716V34.731L83.8928 35.0666H83.5521L83.6122 40.0761L83.6924 45.4564L83.8928 56.3721L84.0881 45.6217L84.1683 40.1813L84.2334 34.716V34.3753L83.9078 34.3503Z" fill="#DBDBDB"/>
<path d="M121.875 40.1613L121.94 34.6959V34.3553H121.589L114.802 34.2851H108.004L94.4228 34.2401H93.9219V34.741L94.007 56.3971V56.8029H94.4028L108.084 56.6326L121.569 56.3971L107.888 56.1617L94.8086 55.9964V56.3971L94.4028 55.9914H94.8086L94.8887 35.2169H94.3878L94.8887 34.716V35.2169L107.984 35.1718L114.782 35.1418L121.234 35.0766V34.736L121.574 35.0716H121.239L121.294 40.0812L121.379 45.4614L121.574 56.3771L121.77 45.6267L121.855 40.1864" fill="#DBDBDB"/>
<path d="M83.9078 68.0392L56.7412 67.9841H56.2402V68.4851L56.2953 99.5892C56.2953 104.772 56.317 109.957 56.3605 115.144L56.4707 130.698V130.969H56.7362L70.3771 130.844L83.9028 130.703L70.2619 130.558L57.0067 130.438V130.698L56.7362 130.428H57.0067L57.0969 115.134C57.1303 109.947 57.152 104.762 57.162 99.5792L57.2221 68.961H56.7211L57.2221 68.46V68.961L83.472 68.9109V68.4751L83.9028 68.9109H83.482C83.482 73.9204 83.482 78.9299 83.5321 83.9394L83.6423 99.469L83.9128 130.693L84.1783 99.6994L84.2935 84.0997C84.3386 78.8999 84.3286 73.685 84.3436 68.4751V68.0442L83.9078 68.0392Z" fill="#DBDBDB"/>
<path d="M121.594 68.0392L94.4277 67.9841H93.9268V68.4851L93.9919 99.5892C93.9919 104.774 94.0219 109.959 94.052 115.144L94.1472 130.703V130.974H94.4127L108.054 130.849L121.579 130.708L107.938 130.563L94.6832 130.443V130.698L94.4127 130.428H94.6832L94.7734 115.134C94.8134 109.947 94.8351 104.762 94.8385 99.5792L94.8986 68.961H94.3976L94.8986 68.46V68.961L121.143 68.9109V68.4751L121.579 68.9109H121.143C121.143 73.9204 121.143 78.9299 121.199 83.9394L121.309 99.4689L121.579 130.693L121.85 99.6994L121.955 84.0997C122.005 78.8999 121.995 73.685 122.01 68.4751V68.0442L121.594 68.0392Z" fill="#DBDBDB"/>
<path d="M83.9078 142.371L56.7412 142.32H56.2402V142.821L56.2953 173.93C56.2953 179.117 56.317 184.302 56.3605 189.485L56.4306 199.659V199.855H57.0267V199.649L57.0818 189.465C57.1152 184.282 57.1369 179.097 57.147 173.91L57.2071 143.287H56.7061L57.2071 142.786V143.287L83.482 143.222V142.791L83.9128 143.222H83.482C83.482 148.232 83.482 153.241 83.5321 158.251L83.6423 173.78L83.8627 199.574V199.89H83.9529V199.574L84.1683 174.001L84.2835 158.406C84.3286 153.201 84.3186 147.991 84.3336 142.781V142.345L83.9078 142.371Z" fill="#DBDBDB"/>
<path d="M121.594 142.371L94.4277 142.32H93.9268V142.821L93.9919 173.93C93.9919 179.115 94.0219 184.3 94.052 189.485L94.1121 199.599V199.945H94.7032V199.599L94.7633 189.485C94.8034 184.302 94.8251 179.117 94.8285 173.93L94.8886 143.307H94.3876L94.8886 142.806V143.307L121.133 143.252V142.821L121.569 143.252H121.133C121.133 148.262 121.133 153.271 121.189 158.281L121.299 173.81L121.519 199.544V199.98H121.604V199.544L121.83 174.031L121.935 158.436C121.985 153.231 121.975 148.021 121.99 142.811V142.376L121.594 142.371Z" fill="#DBDBDB"/>
<path d="M145.139 13.711V199.985L136.903 200V22.1821H44.8185V199.8L36.5879 199.764V13.711H145.139Z" fill="#DBDBDB"/>
<path d="M133.622 130.688H125.271V153.557H133.622V130.688Z" fill="#DBDBDB"/>
<path d="M132.816 134.671C132.798 135.334 132.585 135.976 132.204 136.519C131.823 137.061 131.291 137.479 130.673 137.721C130.056 137.962 129.381 138.016 128.733 137.876C128.085 137.736 127.493 137.408 127.03 136.933C126.568 136.458 126.256 135.857 126.133 135.206C126.01 134.555 126.082 133.881 126.339 133.271C126.597 132.66 127.029 132.139 127.581 131.772C128.133 131.405 128.782 131.21 129.444 131.209C129.893 131.215 130.336 131.309 130.748 131.487C131.161 131.664 131.534 131.92 131.847 132.242C132.16 132.563 132.407 132.943 132.573 133.36C132.739 133.777 132.822 134.222 132.816 134.671V134.671Z" fill="#C7C7C7"/>
<path d="M228.317 0H211.145V7.25879H228.317V0Z" fill="#EBEBEB"/>
<path d="M218.734 9.1524H201.562V16.4112H218.734V9.1524Z" fill="#EBEBEB"/>
<path d="M237.895 9.1524H220.723V16.4112H237.895V9.1524Z" fill="#EBEBEB"/>
<path d="M174.696 74.8622H157.523V82.121H174.696V74.8622Z" fill="#EBEBEB"/>
<path d="M50.0388 0.0100098H32.8662V7.2688H50.0388V0.0100098Z" fill="#EBEBEB"/>
<path d="M211.14 165.524H228.312V158.266H211.14V165.524Z" fill="#EBEBEB"/>
<path d="M220.723 156.372H237.896V149.113H220.723V156.372Z" fill="#EBEBEB"/>
<path d="M182.187 28.1977L181.252 54.5663L222.83 56.04L223.765 29.6715L182.187 28.1977Z" fill="#EBEBEB"/>
<path d="M223.749 29.6714C222.015 31.2193 220.242 32.6771 218.504 34.215C216.766 35.7529 214.997 37.1907 213.204 38.6585C211.354 40.1914 209.502 41.7109 207.648 43.2171L207.483 43.3624L202.544 47.37L202.303 47.5554L202.078 47.35C200.531 45.9106 198.987 44.4662 197.444 43.0167C197.385 42.9708 197.33 42.9206 197.278 42.8665C195.53 41.2334 193.772 39.5902 192.054 37.9171C190.395 36.3391 188.737 34.731 187.089 33.1229C185.441 31.5149 183.798 29.8868 182.175 28.2186C183.913 29.6614 185.616 31.1642 187.33 32.637C189.043 34.1098 190.751 35.6427 192.449 37.1456C194.336 38.8154 196.223 40.5203 198.11 42.2603L202.343 46.1276C203.846 44.9404 205.349 43.7431 206.852 42.5709C208.855 40.9879 210.859 39.4182 212.863 37.8619C214.66 36.4726 216.465 35.0934 218.278 33.7241C220.122 32.3665 221.925 31.0089 223.749 29.6714Z" fill="white"/>
<path d="M198.165 42.8614L198.11 42.9015C197.884 43.0818 197.659 43.2622 197.433 43.4325C196.361 44.2791 195.264 45.0806 194.147 45.8621C192.79 46.8289 191.402 47.7457 190.004 48.6574C188.607 49.5691 187.199 50.4408 185.761 51.2924C184.324 52.144 182.876 52.9706 181.378 53.722C182.68 52.665 184.028 51.6781 185.386 50.7163C186.743 49.7545 188.141 48.8327 189.533 47.921C190.926 47.0093 192.344 46.1326 193.781 45.281C194.924 44.6047 196.086 43.9384 197.288 43.3173C197.559 43.172 197.834 43.0317 198.115 42.8914L198.165 42.8614Z" fill="white"/>
<path d="M222.747 55.1899C221.309 54.3333 219.916 53.4015 218.549 52.4547C217.181 51.5079 215.834 50.521 214.496 49.5291C213.158 48.5373 211.846 47.5003 210.559 46.4433C209.507 45.5866 208.47 44.715 207.468 43.7982L206.821 43.2121C206.808 43.1959 206.793 43.1808 206.776 43.1671L206.836 43.1971L207.633 43.6981C208.77 44.4044 209.877 45.1458 210.974 45.9073C212.347 46.8541 213.684 47.8409 215.022 48.8378C216.36 49.8347 217.667 50.8416 218.955 51.9237C220.242 53.0057 221.534 54.0527 222.747 55.1899Z" fill="white"/>
<path d="M217.583 66.2131L211.633 84.5272L240.509 93.9097L246.46 75.5956L217.583 66.2131Z" fill="#EBEBEB"/>
<path d="M246.442 75.5936C244.914 76.33 243.381 77.0113 241.848 77.7276C240.315 78.444 238.777 79.1052 237.239 79.7815C235.701 80.4578 234.028 81.1792 232.425 81.8655L232.28 81.9356L228.017 83.739L227.806 83.8192L227.691 83.6338C226.893 82.298 226.098 80.9738 225.307 79.6613L225.227 79.526C224.325 78.0232 223.433 76.5203 222.551 75.0175C221.67 73.5146 220.868 72.117 220.047 70.6542C219.225 69.1914 218.389 67.7236 217.582 66.2308C218.514 67.5884 219.406 68.986 220.312 70.3636C221.219 71.7412 222.111 73.1539 222.997 74.5616C223.999 76.1246 224.981 77.7009 225.943 79.2906C226.679 80.4728 227.406 81.6651 228.137 82.8524C229.425 82.3163 230.717 81.7803 232.004 81.2593C233.728 80.5513 235.449 79.8533 237.169 79.1654C238.707 78.5492 240.255 77.943 241.798 77.3469C243.341 76.7508 244.894 76.1346 246.442 75.5936Z" fill="white"/>
<path d="M225.837 79.6964H225.792L225.211 79.9369C224.289 80.3126 223.358 80.6532 222.416 80.9788C221.269 81.3846 220.112 81.7503 218.949 82.111C217.787 82.4717 216.62 82.7973 215.443 83.1129C214.265 83.4285 213.078 83.714 211.881 83.9395C213.003 83.4385 214.145 83.0378 215.292 82.637C216.44 82.2362 217.607 81.8705 218.764 81.5099C219.921 81.1492 221.098 80.8185 222.271 80.508C223.207 80.2575 224.154 80.007 225.111 79.8267L225.777 79.6964H225.837Z" fill="white"/>
<path d="M240.616 93.2873C239.779 92.3956 238.988 91.4638 238.221 90.522C237.455 89.5802 236.719 88.6234 235.962 87.6566C235.206 86.6897 234.514 85.7028 233.823 84.7009C233.257 83.8894 232.701 83.0678 232.18 82.2262C232.07 82.0409 231.959 81.8656 231.849 81.6852C231.842 81.6712 231.834 81.6578 231.824 81.6451L231.859 81.6802L232.32 82.1812C232.976 82.9025 233.603 83.6489 234.224 84.4004C234.995 85.3422 235.727 86.304 236.473 87.2708C237.219 88.2377 237.926 89.2245 238.617 90.2264C239.308 91.2284 239.99 92.2353 240.616 93.2873Z" fill="white"/>
<path d="M35.5713 199.749L61.3252 199.629L87.0791 199.584L138.587 199.499L190.095 199.584L215.849 199.629L241.603 199.749L215.849 199.87L190.095 199.915L138.587 200L87.0791 199.915L61.3252 199.87L35.5713 199.749Z" fill="#263238"/>
<path d="M98.6914 150.611C98.6914 150.611 110.344 193.427 113.154 199.75H158.35C150.55 179.326 142.294 152.6 142.059 150.741C142.059 150.656 142.059 150.611 142.059 150.611H98.6914Z" fill="#37474F"/>
<path d="M105.023 156.307C105.309 159.783 117.953 196.759 119.015 199.749H119.666C119.666 199.749 105.935 158.842 105.199 156.307C105.179 156.202 105.023 156.202 105.023 156.307Z" fill="#263238"/>
<path d="M135.782 150.606L129.946 189.049L129.74 190.352L129.239 193.828L129.199 194.074L129.059 195L128.343 199.734H113.154C110.349 193.412 98.6914 150.591 98.6914 150.591L135.782 150.606Z" fill="#263238"/>
<path d="M76.0287 199.749H118.795C118.795 199.569 118.825 199.424 118.83 199.304C118.835 199.183 118.855 199.013 118.855 199.013L119.571 198.627C122.076 197.255 124.295 196.188 126.114 195.376C126.424 195.241 126.72 195.111 127.011 194.975C127.832 194.62 128.568 194.319 129.18 194.079C130.758 193.458 131.629 193.177 131.629 193.177C131.684 193.047 131.729 192.922 131.775 192.791C137.971 177.016 141.708 152.981 142.059 150.741C142.059 150.621 142.059 150.571 142.059 150.571H80.9781C77.3512 161.943 70.0623 182.852 76.0287 199.749Z" fill="#37474F"/>
<path d="M133.813 192.05C128.633 193.833 123.634 196.363 118.855 199.018C118.821 199.041 118.797 199.074 118.786 199.113C118.775 199.152 118.778 199.194 118.795 199.23C118.812 199.267 118.841 199.297 118.878 199.314C118.914 199.331 118.956 199.334 118.995 199.324C124.034 197.159 129.169 195.091 134.084 192.651C134.157 192.611 134.212 192.545 134.238 192.466C134.265 192.387 134.26 192.301 134.226 192.225C134.192 192.149 134.13 192.089 134.054 192.057C133.977 192.024 133.891 192.022 133.813 192.05V192.05Z" fill="#263238"/>
<path d="M135.416 157.469C135.416 157.294 135.096 157.254 135.096 157.444C135.136 163.425 134.755 168.69 134.254 174.281C134.019 176.876 131.93 191.223 127.426 190.176C126.675 190.001 126.289 189.259 126.174 188.127C126.029 186.76 126.545 185.082 126.77 183.724C127.271 180.718 127.672 177.713 127.927 174.677C128.451 169.028 128.39 163.341 127.747 157.705C127.747 157.666 127.732 157.629 127.704 157.602C127.677 157.575 127.64 157.559 127.602 157.559C127.563 157.559 127.526 157.575 127.499 157.602C127.472 157.629 127.456 157.666 127.456 157.705C127.456 165.544 127.256 173.369 126.084 181.134C125.523 184.866 123.644 190.482 127.546 191.058C131.449 191.634 134.079 182.246 134.58 179.671C135.927 172.493 135.982 164.763 135.416 157.469Z" fill="#263238"/>
<path d="M127.567 190.562C127.171 191.532 126.836 192.526 126.565 193.538C126.275 194.32 126.132 195.148 126.144 195.982C126.152 196.015 126.169 196.044 126.193 196.067C126.216 196.091 126.246 196.107 126.279 196.113C126.311 196.12 126.345 196.118 126.376 196.106C126.408 196.094 126.435 196.074 126.455 196.047C126.986 195.381 127.206 194.464 127.502 193.668C127.848 192.751 128.208 191.839 128.504 190.908C128.537 190.787 128.524 190.657 128.467 190.545C128.41 190.433 128.313 190.347 128.195 190.303C128.077 190.26 127.947 190.262 127.83 190.31C127.714 190.358 127.62 190.448 127.567 190.562Z" fill="#263238"/>
<path d="M107.178 162.163C107.191 161.537 107.127 160.911 106.988 160.3C106.982 160.281 106.969 160.264 106.953 160.253C106.937 160.241 106.918 160.235 106.898 160.235C106.878 160.235 106.858 160.241 106.842 160.253C106.826 160.264 106.814 160.281 106.808 160.3C106.68 160.826 106.609 161.366 106.597 161.908C106.532 162.524 106.452 163.14 106.387 163.761C106.254 165.024 106.033 166.276 105.726 167.508C105.156 169.839 103.969 171.973 102.289 173.685C100.62 175.327 98.646 176.628 96.478 177.512C94.0584 178.514 91.5136 178.915 89.0188 179.651C88.9975 179.659 88.9794 179.673 88.9677 179.692C88.9561 179.712 88.9517 179.735 88.9553 179.757C88.9589 179.779 88.9703 179.799 88.9874 179.814C89.0046 179.829 89.0263 179.837 89.0489 179.837C91.818 179.83 94.5598 179.289 97.1242 178.244C99.3934 177.393 101.458 176.076 103.186 174.376C104.922 172.621 106.145 170.425 106.722 168.024C107.012 166.791 107.18 165.533 107.223 164.267C107.251 163.566 107.236 162.863 107.178 162.163V162.163Z" fill="#263238"/>
<path d="M82.0247 199.749C80.7523 196.047 79.961 192.197 79.6702 188.293C79.3396 184.388 79.3195 180.463 79.6101 176.555C79.8105 174.612 79.9608 172.658 80.2914 170.729C80.4517 169.763 80.5669 168.791 80.7924 167.834L81.3935 164.963C81.4987 164.462 81.5889 164.007 81.7041 163.531L82.0848 162.113L82.8513 159.288C83.1218 158.351 83.4624 157.434 83.763 156.507C84.0636 155.581 84.3892 154.659 84.7148 153.742C84.284 155.646 83.753 157.514 83.3272 159.413L82.696 162.258L82.3904 163.681C82.2902 164.157 82.2201 164.633 82.1349 165.114L81.634 167.979C81.4586 168.931 81.3685 169.898 81.2332 170.855C80.9326 172.768 80.7924 174.702 80.607 176.631C80.3181 180.491 80.2646 184.366 80.4467 188.233C80.5018 189.199 80.5469 190.166 80.6521 191.128L80.7823 192.576L80.9627 194.019C81.1934 195.95 81.5482 197.864 82.0247 199.749V199.749Z" fill="#263238"/>
<path d="M120.413 92.7061C128.609 106.167 144.835 127.372 152.665 132.091C161.366 137.336 186.228 119.532 202.329 108.872C205.525 106.753 190.617 80.9087 187.3 83.3232C178.689 89.6903 160.88 104.478 158.516 103.977C156.582 103.567 140.141 92.1149 130.928 85.5525C116.291 75.1227 114.642 83.2331 120.413 92.7061Z" fill="#FFC3BD"/>
<path d="M181.013 87.1155L194.839 116.817C194.839 116.817 164.737 136.499 155.374 134.105C146.011 131.71 126.114 104.148 120.277 93.3273C114.441 82.5067 117.157 76.4302 128.468 83.689C139.78 90.9478 157.193 102.555 159.026 102.615C160.86 102.675 181.013 87.1155 181.013 87.1155Z" fill="#FF9900"/>
<path d="M186.313 120.364C182.36 107.675 176.294 94.9353 175.372 92.641C175.332 92.5358 175.162 92.6159 175.207 92.7211C176.209 94.9253 181.584 110.254 186.133 120.454C186.178 120.569 186.353 120.484 186.313 120.364Z" fill="#263238"/>
<path opacity="0.1" d="M164.441 132.867C160.824 134.09 157.603 134.666 155.374 134.095C146.011 131.7 126.109 104.148 120.272 93.3323C117.768 88.7035 116.846 84.9463 117.487 82.7171C128.703 94.77 154.948 122.758 164.441 132.867Z" fill="black"/>
<path d="M193.382 114.848L181.113 88.1174C181.544 87.5613 183.388 86.4592 185.206 84.746C185.206 84.746 189.975 78.1835 191.899 71.065C193.522 65.0836 195.25 56.0364 198.501 56.7728C203.24 57.8599 202.429 69.5821 201.557 76.3099C204.964 74.9373 208.029 74.0757 209.993 74.226C216.506 74.7269 218.008 104.198 212.498 107.955C207.178 111.527 196.993 115.369 193.382 114.848Z" fill="#FFC3BD"/>
<path d="M211.075 117.613L167.788 114.382L172.046 57.3439L215.333 60.5801L211.075 117.613Z" fill="#455A64"/>
<path d="M210.955 63.9262L175.876 61.3071L172.164 111.023L207.243 113.643L210.955 63.9262Z" fill="white"/>
<path d="M189.02 62.2879L175.877 61.3065L172.165 111.023L185.308 112.004L189.02 62.2879Z" fill="#EBEBEB"/>
<path d="M183.748 72.0168C183.254 72.278 182.706 72.4176 182.147 72.424C181.589 72.4304 181.037 72.3033 180.538 72.0534C180.038 71.8035 179.606 71.438 179.276 70.9872C178.947 70.5365 178.73 70.0135 178.643 69.4619C178.543 68.8255 178.62 68.1739 178.866 67.5785C179.112 66.9831 179.518 66.467 180.038 66.0868C180.558 65.7066 181.172 65.477 181.814 65.4231C182.456 65.3693 183.101 65.4934 183.677 65.7817C184.253 66.07 184.738 66.5115 185.08 67.0576C185.422 67.6037 185.606 68.2334 185.614 68.8776C185.621 69.5217 185.451 70.1555 185.122 70.7092C184.792 71.263 184.317 71.7154 183.748 72.0168V72.0168Z" fill="#A6A6A6"/>
<path d="M183.222 68.5803C183.208 68.7928 183.131 68.9963 183.001 69.1651C182.87 69.3338 182.693 69.4602 182.492 69.5283C182.29 69.5964 182.072 69.603 181.866 69.5475C181.661 69.4919 181.476 69.3766 181.336 69.2162C181.196 69.0557 181.107 68.8573 181.079 68.6461C181.052 68.4348 181.088 68.2202 181.182 68.0293C181.277 67.8385 181.426 67.68 181.611 67.5738C181.795 67.4677 182.008 67.4187 182.22 67.4331C182.505 67.4524 182.771 67.5841 182.959 67.7992C183.146 68.0144 183.241 68.2953 183.222 68.5803Z" fill="white"/>
<path d="M183.779 71.5859L183.749 72.0318C183.166 72.3316 182.512 72.4641 181.858 72.4146C181.205 72.3651 180.578 72.1355 180.047 71.7513L180.082 71.3104C180.1 71.0677 180.166 70.8309 180.275 70.6135C180.385 70.3962 180.536 70.2025 180.721 70.0437C180.905 69.8848 181.119 69.7638 181.35 69.6877C181.582 69.6115 181.825 69.5816 182.068 69.5997C182.311 69.6178 182.548 69.6835 182.765 69.7931C182.982 69.9027 183.176 70.0541 183.335 70.2385C183.494 70.4229 183.615 70.6369 183.691 70.8681C183.767 71.0993 183.797 71.3432 183.779 71.5859V71.5859Z" fill="white"/>
<path d="M200.492 67.3713L191.025 66.6645L190.977 67.3189L200.443 68.0257L200.492 67.3713Z" fill="#EBEBEB"/>
<path d="M207.252 69.6929L190.892 68.4714L190.843 69.1258L207.203 70.3474L207.252 69.6929Z" fill="#EBEBEB"/>
<path d="M203.472 71.2298L190.758 70.2805L190.709 70.9349L203.423 71.8842L203.472 71.2298Z" fill="#EBEBEB"/>
<path d="M197.827 74.4515L190.488 73.9036L190.439 74.558L197.778 75.1059L197.827 74.4515Z" fill="#EBEBEB"/>
<path d="M203.068 76.6603L190.354 75.7111L190.306 76.3655L203.019 77.3147L203.068 76.6603Z" fill="#EBEBEB"/>
<path d="M206.581 78.7402L190.221 77.5187L190.172 78.1731L206.532 79.3946L206.581 78.7402Z" fill="#EBEBEB"/>
<path d="M199.547 80.0349L190.08 79.3281L190.031 79.9825L199.498 80.6894L199.547 80.0349Z" fill="#EBEBEB"/>
<path d="M207.186 83.6056L190.78 82.4572L190.734 83.1135L207.141 84.2619L207.186 83.6056Z" fill="#EBEBEB"/>
<path d="M201.549 85.6442L189.68 84.7579L189.631 85.4124L201.5 86.2986L201.549 85.6442Z" fill="#EBEBEB"/>
<path d="M198.356 87.225L189.544 86.5671L189.495 87.2215L198.307 87.8795L198.356 87.225Z" fill="#EBEBEB"/>
<path d="M204.145 89.4743L189.408 88.374L189.359 89.0284L204.096 90.1288L204.145 89.4743Z" fill="#EBEBEB"/>
<path d="M201.007 92.8777L189.138 91.9915L189.089 92.6459L200.958 93.5322L201.007 92.8777Z" fill="#EBEBEB"/>
<path d="M205.366 95.0255L189.006 93.804L188.957 94.4584L205.318 95.6799L205.366 95.0255Z" fill="#EBEBEB"/>
<path d="M203.469 98.5213L188.731 97.421L188.683 98.0754L203.42 99.1757L203.469 98.5213Z" fill="#EBEBEB"/>
<path d="M197.326 99.8873L188.599 99.2357L188.55 99.8901L197.277 100.542L197.326 99.8873Z" fill="#EBEBEB"/>
<path d="M205.909 101.756L189.503 100.607L189.457 101.263L205.863 102.412L205.909 101.756Z" fill="#EBEBEB"/>
<path d="M200.062 105.551L188.192 104.665L188.144 105.32L200.013 106.206L200.062 105.551Z" fill="#EBEBEB"/>
<path d="M205.524 107.198L189.118 106.049L189.072 106.705L205.478 107.854L205.524 107.198Z" fill="#EBEBEB"/>
<path d="M203.768 108.903L188.99 107.868L188.944 108.524L203.722 109.559L203.768 108.903Z" fill="#EBEBEB"/>
<path d="M183.396 74.6378L179.038 74.3327L178.992 74.9889L183.35 75.294L183.396 74.6378Z" fill="#A6A6A6"/>
<path d="M185.242 77.149L178.009 76.6089L177.96 77.2633L185.194 77.8034L185.242 77.149Z" fill="#A6A6A6"/>
<path d="M183.918 78.8687L177.873 78.4174L177.824 79.0718L183.869 79.5231L183.918 78.8687Z" fill="#A6A6A6"/>
<path d="M184.839 82.5792L177.605 82.0391L177.557 82.6935L184.79 83.2336L184.839 82.5792Z" fill="#A6A6A6"/>
<path d="M185.154 84.416L177.471 83.8423L177.422 84.4968L185.105 85.0704L185.154 84.416Z" fill="#A6A6A6"/>
<path d="M182.722 86.0584L177.332 85.6559L177.283 86.3104L182.673 86.7128L182.722 86.0584Z" fill="#A6A6A6"/>
<path d="M184.529 87.4874L178.142 87.0403L178.096 87.6966L184.483 88.1437L184.529 87.4874Z" fill="#A6A6A6"/>
<path d="M204.909 56.4669L182.969 54.8287L182.388 62.6018L204.329 64.24L204.909 56.4669Z" fill="#A6A6A6"/>
<path d="M201.517 59.2525L185.907 58.0853L186.358 52.0538L201.968 53.216L201.517 59.2525Z" fill="#A6A6A6"/>
<path d="M199.774 75.4133C198.356 78.5141 202.82 78.419 202.82 78.419C202.82 78.419 196.432 80.1022 196.197 83.8643C195.992 87.4912 201.377 87.1756 201.763 87.1556C201.427 87.2507 195.596 88.964 195.751 92.7612C195.921 96.7137 201.262 95.4714 201.617 95.3862C201.327 95.5766 197.524 98.1164 198.301 100.977C199.644 105.891 209.552 99.6543 213.53 100.741C213.53 100.741 212.468 107.695 212.478 107.9C212.478 107.9 222.021 102.159 223.183 96.7137C223.363 95.9243 223.268 95.0971 222.915 94.3686C222.562 93.6401 221.971 93.0537 221.24 92.7061C221.24 92.7061 224.521 91.2033 224.491 88.1975C224.466 86.6596 221.986 85.3221 221.986 85.3221C221.986 85.3221 224.566 84.0046 224.37 81.3395C224.22 79.2155 221.755 78.2036 221.755 78.2036C221.755 78.2036 223.644 75.789 222.787 73.6699C221.079 69.3818 202.815 68.7857 199.774 75.4133Z" fill="#FFC3BD"/>
<path d="M221.41 77.9881C221.42 77.9848 221.429 77.9785 221.435 77.9699C221.441 77.9614 221.444 77.9511 221.444 77.9405C221.444 77.93 221.441 77.9197 221.435 77.9112C221.429 77.9026 221.42 77.8962 221.41 77.8929C215.449 76.2298 208.385 76.2298 202.559 78.3939C202.364 78.464 202.399 78.8097 202.624 78.7696C209.086 77.6876 214.888 77.2467 221.41 77.9881Z" fill="#263238"/>
<path d="M222.096 85.2871C222.166 85.2871 222.181 85.1819 222.096 85.1618C215.949 83.4786 207.999 83.699 201.557 86.9803C201.336 87.0955 201.251 87.4161 201.512 87.3059C205.975 85.4474 216.235 84.6108 222.096 85.2871Z" fill="#263238"/>
<path d="M201.262 95.7719C207.554 92.8614 214.146 92.2653 221.004 92.6159C221.095 92.6159 221.09 92.4957 221.004 92.4707C217.693 91.3836 213.3 91.609 209.893 92.0799C206.724 92.4519 203.708 93.649 201.147 95.5515C201.062 95.6317 201.132 95.832 201.262 95.7719Z" fill="#263238"/>
<path d="M142.039 150.611L140.271 131.274C140.271 131.274 145.435 123.379 144.679 114.052C144.133 107.259 124.741 83.4936 123.494 82.3514C118.484 77.6775 110.023 79.5411 106.551 82.1661C87.3249 96.6937 87.4903 119.923 81.0029 150.571L142.039 150.611Z" fill="#FF9900"/>
<path d="M142.04 150.611L140.271 131.274C140.271 131.274 146.924 122.408 144.68 114.052C142.435 105.696 135.823 98.0713 135.823 98.0713H107.228C107.228 98.0713 104.638 123.089 98.091 127.347C94.1157 129.998 89.2645 130.997 84.5653 130.132L80.9785 150.571L142.04 150.611Z" fill="#37474F"/>
<path d="M122.026 128.744C124.795 128.582 127.573 128.626 130.336 128.875C131.709 129.015 133.062 129.22 134.419 129.451C135.1 129.571 135.777 129.661 136.453 129.751C137.163 129.867 137.885 129.896 138.602 129.837C138.615 129.837 138.628 129.842 138.638 129.851C138.647 129.861 138.652 129.873 138.652 129.887C138.652 129.9 138.647 129.913 138.638 129.922C138.628 129.931 138.615 129.937 138.602 129.937C137.286 130.222 135.931 130.284 134.595 130.122C133.202 129.992 131.819 129.796 130.427 129.651C127.621 129.356 124.816 129.065 121.996 128.975C121.895 128.97 121.895 128.755 122.026 128.744Z" fill="#263238"/>
<path d="M115.634 132.171C117.849 131.6 120.096 131.155 122.362 130.839C123.499 130.683 124.631 130.593 125.778 130.533C126.319 130.508 126.87 130.488 127.416 130.478C127.962 130.468 128.618 130.533 129.22 130.513C129.285 130.513 129.295 130.608 129.22 130.608C128.654 130.648 128.087 130.778 127.526 130.849L125.828 131.054C124.696 131.194 123.569 131.35 122.432 131.48C120.162 131.74 117.923 132.021 115.644 132.356C115.544 132.376 115.544 132.201 115.634 132.171Z" fill="#263238"/>
<path d="M110.64 90.3867C107.103 95.4212 80.3322 127.237 72.7729 132.046C67.027 135.708 51.9233 137.942 52.6998 123.685C53.2007 114.167 91.273 87.3158 106.632 80.8085C113.691 77.7978 118.049 79.8266 110.64 90.3867Z" fill="#FF9900"/>
<path d="M58.7607 134.26C61.016 134.871 63.3786 134.976 65.6789 134.566C67.9644 134.192 70.1588 133.39 72.1462 132.201C73.1359 131.603 74.0802 130.934 74.9715 130.197C75.8632 129.466 76.7149 128.669 77.5565 127.868C79.2346 126.25 80.8577 124.567 82.4558 122.858C85.6819 119.482 88.7978 115.985 91.9187 112.504L101.246 101.984C99.8188 103.837 98.3359 105.646 96.8631 107.494C95.3903 109.343 93.8574 111.096 92.3546 112.884C89.3188 116.445 86.1945 119.938 82.9818 123.364C81.3587 125.063 79.7156 126.736 78.0073 128.349C77.1507 129.15 76.284 129.947 75.3623 130.693C74.44 131.447 73.4526 132.118 72.4117 132.697C70.3409 133.867 68.066 134.63 65.7089 134.946C64.5454 135.089 63.3703 135.111 62.2023 135.011C61.0259 134.921 59.8676 134.669 58.7607 134.26V134.26Z" fill="#263238"/>
<path d="M97.665 106.257C98.2789 105.755 98.9194 105.287 99.5837 104.854L101.552 103.537C101.07 104.182 100.474 104.733 99.7941 105.165C99.1338 105.618 98.4184 105.985 97.665 106.257V106.257Z" fill="#263238"/>
<path d="M107.228 98.0713H111.596C111.77 91.7877 110.875 85.5203 108.951 79.5361L106.126 80.2524C106.126 80.2524 108.906 91.8344 107.228 98.0713Z" fill="#37474F"/>
<path d="M124.971 81.2693C124.971 81.2693 130.863 89.7554 135.822 98.0712H133.047L121.931 80.1021L124.971 81.2693Z" fill="#37474F"/>
<path d="M110.534 82.8073C110.88 84.0196 116.406 91.1482 122.016 90.6121C123.845 90.4368 124.055 80.9989 124.055 80.9989L124.185 80.2475L126.004 69.7726L113.455 62.5689L111.647 61.6171C111.647 61.6171 111.341 64.5176 110.99 68.1294C110.99 68.2948 110.96 68.4651 110.945 68.6304C110.93 68.7957 110.89 69.0261 110.875 69.2165C110.82 69.7525 110.76 70.3036 110.715 70.8546C110.68 71.2754 110.64 71.6812 110.62 72.122C110.6 72.5629 110.559 72.9887 110.524 73.4345C110.284 77.7928 110.399 82.2863 110.534 82.8073Z" fill="#FFC3BD"/>
<path d="M110.99 68.1144C112.178 70.9736 113.974 73.5399 116.254 75.6352C118.533 77.7304 121.241 79.3042 124.19 80.2475L126.009 69.7726L113.455 62.5689L111.646 61.6171C111.646 61.6171 111.341 64.5025 110.99 68.1144Z" fill="#263238"/>
<path d="M115.328 60.1593C114.662 59.2776 113.149 58.6564 112.467 58.967C111.786 59.2776 109.096 64.3673 109.597 65.7098C110.098 67.0524 112.683 66.5063 112.683 66.5063L115.328 60.1593Z" fill="#FF9900"/>
<path d="M139.72 51.2874C143.652 69.5271 133.177 73.9404 129.24 74.7871C125.668 75.5485 113.415 77.7076 107.619 59.9739C101.823 42.2402 109.057 34.6458 117.137 32.4616C125.217 30.2775 135.787 33.0478 139.72 51.2874Z" fill="#FFC3BD"/>
<path d="M133.749 48.5973C133.32 48.5915 132.892 48.5631 132.466 48.5121C132.009 48.5481 131.552 48.4299 131.169 48.1765C131.064 48.0741 130.996 47.9401 130.976 47.7952C130.955 47.6504 130.982 47.5027 131.054 47.375C131.235 47.1445 131.474 46.9664 131.747 46.859C132.02 46.7516 132.317 46.7188 132.607 46.7638C133.207 46.7659 133.786 46.9909 134.23 47.395C134.326 47.4928 134.392 47.6167 134.419 47.7515C134.447 47.8862 134.434 48.026 134.383 48.1536C134.332 48.2812 134.245 48.3912 134.132 48.47C134.019 48.5488 133.886 48.5931 133.749 48.5973V48.5973Z" fill="black"/>
<path d="M120.963 53.3363C121.375 53.2118 121.78 53.0646 122.176 52.8955C122.623 52.7985 123.026 52.5574 123.323 52.2092C123.395 52.0817 123.423 51.9338 123.402 51.7887C123.382 51.6436 123.313 51.5096 123.208 51.4076C122.97 51.2367 122.691 51.1325 122.399 51.1061C122.108 51.0797 121.814 51.1319 121.55 51.2573C120.971 51.4246 120.478 51.8039 120.167 52.3194C120.103 52.4401 120.075 52.5769 120.087 52.7132C120.099 52.8495 120.15 52.9793 120.234 53.087C120.319 53.1947 120.432 53.2756 120.562 53.3199C120.691 53.3641 120.831 53.3698 120.963 53.3363V53.3363Z" fill="black"/>
<path d="M124.095 55.6106C124.095 55.5656 124.005 55.6858 124.015 55.7359C124.265 56.9832 124.34 58.456 123.278 59.0572C123.243 59.0572 123.278 59.1423 123.278 59.1273C124.651 58.7015 124.531 56.7528 124.095 55.6106Z" fill="#263238"/>
<path d="M122.757 54.4885C120.718 54.6739 121.254 58.7416 123.128 58.5713C125.002 58.4009 124.466 54.3382 122.757 54.4885Z" fill="black"/>
<path d="M131.644 53.9875C131.644 53.9374 131.749 54.0376 131.749 54.0927C131.794 55.3601 132.065 56.8079 133.252 57.1485C133.287 57.1485 133.287 57.2236 133.252 57.2186C131.824 57.1184 131.483 55.1948 131.644 53.9875Z" fill="#263238"/>
<path d="M132.686 52.5849C134.715 52.2893 135.156 56.3671 133.277 56.6376C131.399 56.9081 130.983 52.8304 132.686 52.5849Z" fill="black"/>
<path d="M126.41 65.3591C126.735 65.6296 127.071 66.0154 127.537 66.0154C128.006 65.9669 128.46 65.8201 128.869 65.5845C128.909 65.5845 128.954 65.5845 128.929 65.6447C128.769 65.9094 128.54 66.1257 128.267 66.2704C127.993 66.4151 127.685 66.4828 127.376 66.4662C127.113 66.4189 126.87 66.2954 126.677 66.1111C126.484 65.9267 126.349 65.6896 126.289 65.4292C126.264 65.3541 126.359 65.319 126.41 65.3591Z" fill="black"/>
<path d="M131.033 60.0641C131.033 60.0641 131.534 61.9076 131.679 62.7943C131.679 62.8744 131.484 62.9445 131.178 63.0047C131.178 63.0047 131.178 63.0047 131.143 63.0047C130.401 63.2481 129.607 63.2835 128.847 63.1068C128.086 62.9301 127.389 62.5483 126.83 62.0027C126.811 61.9875 126.8 61.9654 126.797 61.9415C126.795 61.9175 126.802 61.8936 126.818 61.875C126.833 61.8564 126.855 61.8446 126.879 61.8423C126.903 61.8399 126.927 61.8472 126.945 61.8625C128.186 62.4772 129.591 62.6757 130.953 62.4286C130.983 62.1731 129.951 59.3026 130.091 59.2726C130.789 59.2365 131.488 59.2938 132.17 59.4429C131.193 55.5755 129.605 51.8935 128.694 48.0262C128.664 47.8859 128.859 47.8158 128.914 47.936C130.853 51.6781 132.075 56.1066 133.182 60.0741C133.327 60.5901 131.409 60.1793 131.033 60.0641Z" fill="black"/>
<path d="M106.572 59.508C109.743 59.7535 110.469 53.1059 110.469 53.1059C110.469 53.1059 116.911 53.1059 119.04 43.8583C119.04 43.8583 118.9 48.1715 116.185 51.5179C116.185 51.5179 127.547 50.3156 132.331 40.8075C132.331 40.8075 130.422 45.6517 128.634 47.375C128.634 47.375 133.398 46.0425 135.722 42.1751C135.722 42.1751 137.726 47.6856 139.229 49.1884C139.229 49.1884 138.763 29.3107 120.348 31.4247C120.348 31.4247 108.826 32.1911 104.678 41.3185C100.53 50.4458 106.572 59.508 106.572 59.508Z" fill="#263238"/>
<path d="M110.815 60.7504C110.815 60.7504 106.046 55.4804 103.606 57.2437C101.166 59.0071 105.264 67.0073 108.49 67.7637C108.897 67.8891 109.324 67.9309 109.747 67.8866C110.17 67.8423 110.58 67.7128 110.952 67.5059C111.323 67.299 111.649 67.019 111.91 66.6828C112.171 66.3466 112.36 65.9611 112.468 65.5495L110.815 60.7504Z" fill="#FFC3BD"/>
<path d="M104.838 59.5181C104.788 59.5181 104.788 59.5882 104.838 59.5983C107.108 60.1994 108.495 62.0579 109.552 64.0317C108.811 63.3153 107.884 62.9897 106.907 63.8864C106.857 63.9365 106.907 64.0167 106.982 63.9966C107.346 63.8278 107.753 63.7757 108.148 63.8475C108.543 63.9192 108.905 64.1113 109.187 64.3974C109.652 64.8816 110.066 65.4139 110.419 65.9854C110.544 66.1657 110.88 66.0155 110.775 65.8051C110.774 65.7884 110.774 65.7716 110.775 65.755C110.454 62.9997 107.829 59.4179 104.838 59.5181Z" fill="#263238"/>
<path d="M133.999 34.1348C131.83 34.3052 120.709 38.3028 116.376 42.115C112.042 45.9272 105.45 56.1066 105.114 56.6426C104.779 57.1786 96.4328 39.4199 110.339 31.1492C125.483 22.137 133.999 34.1348 133.999 34.1348Z" fill="#FF9900"/>
<path d="M105.73 55.6006C105.73 55.6006 111.381 39.2796 115.92 34.4955C120.458 29.7114 132.251 23.9755 140.967 24.8622C147.775 25.5435 135.742 37.942 135.742 37.942C135.742 37.942 134.645 35.9382 132.486 35.818C128.288 35.5575 121.601 38.994 118.019 41.6591C113.54 45.0355 105.73 55.6006 105.73 55.6006Z" fill="#FF9900"/>
<path opacity="0.2" d="M105.73 55.6006C105.73 55.6006 111.381 39.2796 115.92 34.4955C120.458 29.7114 132.251 23.9755 140.967 24.8622C147.775 25.5435 135.742 37.942 135.742 37.942C135.742 37.942 134.645 35.9382 132.486 35.818C128.288 35.5575 121.601 38.994 118.019 41.6591C113.54 45.0355 105.73 55.6006 105.73 55.6006Z" fill="black"/>
<path d="M147.024 117.608H79.876V159.268H147.024V117.608Z" fill="#FF9900"/>
<path opacity="0.2" d="M147.024 117.608H79.876V159.268H147.024V117.608Z" fill="black"/>
<path opacity="0.2" d="M79.8813 159.267H105.31V117.608H79.8813V159.267Z" fill="black"/>
<path d="M81.6289 156.397C83.5125 153.435 85.3794 150.463 87.2295 147.48L92.74 138.523L98.1854 129.506C99.9921 126.5 101.781 123.495 103.551 120.489C101.667 123.448 99.8018 126.419 97.9549 129.401L92.4445 138.363L86.9991 147.38C85.1923 150.366 83.4023 153.371 81.6289 156.397Z" fill="#FF9900"/>
<path d="M81.6289 120.479C83.4023 123.485 85.1907 126.49 86.9941 129.496L92.4394 138.513L97.9499 147.47C99.7934 150.456 101.659 153.428 103.546 156.387C101.776 153.361 99.9871 150.347 98.1803 147.345L92.735 138.328L87.2245 129.366C85.381 126.403 83.5158 123.441 81.6289 120.479Z" fill="#FF9900"/>
<path d="M96.4073 117.608H88.6826V125.333H96.4073V117.608Z" fill="#EBEBEB"/>
<path d="M132.917 148.176H132.376V155.806H132.917V148.176Z" fill="#263238"/>
<path d="M134.214 148.176H133.673V155.806H134.214V148.176Z" fill="#263238"/>
<path d="M135.512 148.176H134.971V155.806H135.512V148.176Z" fill="#263238"/>
<path d="M136.81 148.176H136.269V155.806H136.81V148.176Z" fill="#263238"/>
<path d="M138.106 148.176H137.565V155.806H138.106V148.176Z" fill="#263238"/>
<path d="M139.404 148.176H138.863V155.806H139.404V148.176Z" fill="#263238"/>
<path d="M140.701 148.176H140.16V155.806H140.701V148.176Z" fill="#263238"/>
<path d="M141.999 148.176H141.458V155.806H141.999V148.176Z" fill="#263238"/>
<path d="M143.302 148.176H142.761V155.806H143.302V148.176Z" fill="#263238"/>
<path d="M127.066 155.245L129.145 155.821H124.261L126.345 155.235V152.435C124.842 152.239 124.261 150.766 124.261 148.197H129.145C129.145 150.761 128.554 152.239 127.066 152.435V155.245Z" fill="#263238"/>
<path d="M123.123 152.069H121.845V155.801H118.579V152.069H117.302L120.212 148.176L123.123 152.069Z" fill="#263238"/>
<path opacity="0.1" d="M147.024 159.268V155.616L105.31 148.853V159.262L147.024 159.268Z" fill="black"/>
<path d="M143.301 116.266H86.5234V117.608H143.301V116.266Z" fill="#EBEBEB"/>
<path d="M141.829 114.928H85.0508V116.271H141.829V114.928Z" fill="#C7C7C7"/>
<path d="M145.652 127.333L104.554 134.391L109.029 160.452L150.128 153.395L145.652 127.333Z" fill="white"/>
<path d="M144.459 127.352C143.071 129.21 141.638 131.009 140.236 132.862C138.833 134.716 137.38 136.474 135.942 138.263C134.44 140.131 132.937 141.985 131.434 143.833L131.299 144.009C129.961 145.637 128.614 147.265 127.291 148.893L127.091 149.123L126.83 148.968C125.027 147.869 123.227 146.767 121.43 145.662L121.24 145.547C119.206 144.294 117.172 143.042 115.143 141.749C113.204 140.537 111.266 139.295 109.332 138.057C107.398 136.82 105.465 135.552 103.546 134.245C105.55 135.302 107.498 136.434 109.472 137.531C111.446 138.628 113.415 139.781 115.378 140.928C117.563 142.197 119.748 143.488 121.936 144.8C123.576 145.775 125.212 146.754 126.845 147.736C128.067 146.278 129.295 144.805 130.527 143.362C132.165 141.419 133.803 139.48 135.462 137.561C136.944 135.845 138.434 134.135 139.93 132.432C141.438 130.698 142.926 129 144.459 127.352Z" fill="#DBDBDB"/>
<path d="M122.056 145.361L122.016 145.411C121.83 145.632 121.65 145.852 121.465 146.067C120.583 147.109 119.671 148.116 118.734 149.098C117.597 150.316 116.425 151.493 115.228 152.665C114.03 153.837 112.838 154.964 111.606 156.081C110.373 157.199 109.101 158.301 107.809 159.338C108.866 158.04 109.988 156.808 111.125 155.601C112.262 154.393 113.439 153.211 114.632 152.039C115.824 150.867 117.026 149.729 118.258 148.607C119.26 147.721 120.262 146.834 121.264 145.992C121.505 145.792 121.74 145.602 121.986 145.411L122.056 145.361Z" fill="#DBDBDB"/>
<path d="M148.577 152.5C146.999 151.949 145.451 151.318 143.928 150.661C142.405 150.005 140.887 149.314 139.379 148.612C137.872 147.911 136.374 147.165 134.916 146.383C133.719 145.757 132.526 145.111 131.359 144.414L130.618 143.974C130.599 143.96 130.579 143.948 130.558 143.938H130.628C130.923 144.044 131.214 144.149 131.499 144.259C132.757 144.72 134.004 145.226 135.211 145.762C136.739 146.413 138.247 147.11 139.75 147.821C141.253 148.532 142.756 149.269 144.219 150.045C145.681 150.822 147.154 151.618 148.577 152.5Z" fill="#DBDBDB"/>
<path d="M114.282 135.03L113.437 161.341L154.929 162.674L155.774 136.363L114.282 135.03Z" fill="#EBEBEB"/>
<path d="M155.776 136.359C154.047 137.912 152.294 139.39 150.551 140.913C148.807 142.436 147.044 143.888 145.281 145.361C143.444 146.901 141.607 148.424 139.77 149.93L139.6 150.075L134.69 154.083L134.445 154.273L134.22 154.068C132.673 152.635 131.127 151.199 129.581 149.759C129.524 149.713 129.47 149.663 129.42 149.609C127.667 147.986 125.922 146.346 124.186 144.69C122.527 143.117 120.869 141.519 119.221 139.921C117.573 138.323 115.925 136.7 114.302 135.042C116.035 136.474 117.743 137.972 119.462 139.435C121.18 140.898 122.883 142.416 124.581 143.943C126.47 145.617 128.363 147.32 130.247 149.033L134.48 152.875C135.983 151.688 137.461 150.486 138.949 149.314C140.952 147.731 142.946 146.159 144.93 144.6C146.723 143.207 148.522 141.824 150.325 140.452C152.154 139.064 153.952 137.676 155.776 136.359Z" fill="#C7C7C7"/>
<path d="M130.277 149.604C130.258 149.617 130.241 149.632 130.227 149.649L129.57 150.18C128.498 151.027 127.406 151.833 126.294 152.615C124.942 153.582 123.559 154.504 122.171 155.42C120.784 156.337 119.376 157.209 117.943 158.06C116.511 158.912 115.073 159.744 113.58 160.5C114.873 159.438 116.215 158.451 117.588 157.494C118.96 156.537 120.333 155.601 121.716 154.689C123.098 153.777 124.516 152.89 125.949 152.039C127.086 151.358 128.243 150.691 129.425 150.07C129.696 149.92 129.971 149.78 130.247 149.639L130.277 149.604Z" fill="#C7C7C7"/>
<path d="M154.858 161.827C153.42 160.976 152.028 160.054 150.66 159.112C149.293 158.171 147.945 157.189 146.607 156.207C145.27 155.225 143.957 154.203 142.67 153.141C141.618 152.289 140.576 151.418 139.574 150.506C139.354 150.316 139.143 150.12 138.928 149.925L138.883 149.88C138.9 149.896 138.92 149.908 138.943 149.915L139.739 150.416C140.877 151.112 141.979 151.854 143.081 152.605C144.453 153.552 145.791 154.529 147.128 155.52C148.466 156.512 149.774 157.524 151.066 158.581C152.358 159.638 153.616 160.685 154.858 161.827Z" fill="#C7C7C7"/>
<path d="M111.627 144.444C105.916 139.37 73.0985 121.02 66.4508 118.726C59.8032 116.431 50.4204 119.447 53.4261 129.441C56.4318 139.435 90.1409 168.946 102.865 171.02C107.339 171.776 113.696 146.278 111.627 144.444Z" fill="#FFC3BD"/>
<path d="M121.299 153.321C119.992 152.319 120.513 151.618 123.453 151.593C126.394 151.568 138.036 153.957 138.527 149.825C139.018 145.692 122.557 142.556 117.647 142.972C112.738 143.387 105.023 145.777 105.023 145.777C108.089 147.029 115.283 150.786 121.299 153.321Z" fill="#FFC3BD"/>
<path d="M98.3213 169.367C107.138 172.578 117.919 177.117 128.333 175.193C129.488 175.006 130.547 174.436 131.339 173.575C136.023 172.798 137.06 170.354 137.06 170.354C141.203 168.29 141.919 165.645 141.919 165.645C141.919 165.645 147.43 164.673 147.369 161.256C147.339 157.429 139.635 159.543 134.69 158.12C123.354 154.854 108.14 147.044 104.984 145.777L98.3213 169.367Z" fill="#FFC3BD"/>
<path d="M120.428 163.045C123.785 163.941 127.056 164.908 130.512 165.339C134.31 165.84 138.027 165.645 141.844 165.559C141.868 165.559 141.891 165.569 141.908 165.586C141.925 165.603 141.934 165.626 141.934 165.65C141.934 165.674 141.925 165.696 141.908 165.713C141.891 165.73 141.868 165.74 141.844 165.74C134.986 166.982 126.785 165.89 120.368 163.195C120.228 163.13 120.258 163 120.428 163.045Z" fill="#263238"/>
<path d="M117.462 169.602C120.774 170.289 126.605 171.461 137.07 170.238C137.105 170.238 137.12 170.294 137.07 170.304C130.601 171.951 123.802 171.767 117.432 169.773C117.227 169.697 117.242 169.552 117.462 169.602Z" fill="#263238"/>
<path d="M115.934 173.154C121.61 174.111 125.312 173.996 131.334 173.555C131.369 173.555 131.384 173.61 131.334 173.615C124.546 174.837 121.941 174.507 115.864 173.344C115.664 173.304 115.714 173.114 115.934 173.154Z" fill="#263238"/>
<path d="M113.339 142.941L97.3941 174.281C97.3941 174.281 69.4911 158.065 54.5327 132.457C49.5482 123.94 54.5578 112.479 69.6715 118.6C84.7852 124.722 113.339 142.941 113.339 142.941Z" fill="#FF9900"/>
<path d="M106.908 140.657C104.403 145.241 94.7395 164.357 92.9361 168.63C92.8109 168.926 92.9662 169.081 93.1365 168.786C101.031 155.26 104.839 145.381 107.083 140.762C107.143 140.647 106.973 140.542 106.908 140.657Z" fill="#263238"/>
<path d="M183.713 31.4497C183.383 34.619 182.178 37.6341 180.234 40.1585C178.29 42.683 175.682 44.6174 172.702 45.746C169.722 46.8745 166.487 47.1528 163.359 46.5496C160.23 45.9465 157.33 44.4858 154.983 42.3304L146.377 43.5928L150.68 36.1537C149.694 33.7328 149.273 31.119 149.449 28.5111C149.625 25.9031 150.393 23.3695 151.695 21.1028C152.996 18.8361 154.798 16.896 156.962 15.4299C159.126 13.9637 161.595 13.0102 164.183 12.6417C166.771 12.2732 169.409 12.4994 171.896 13.3032C174.383 14.1069 176.655 15.4671 178.537 17.2803C180.42 19.0935 181.865 21.312 182.762 23.7673C183.658 26.2225 183.984 28.8499 183.713 31.4497V31.4497Z" fill="#6B006D"/>
<path d="M183.713 31.4497C183.382 34.6214 182.181 37.6398 180.241 40.1713C179.759 40.8001 179.239 41.399 178.684 41.9647C178.112 42.5148 177.506 43.0284 176.87 43.5026C175.602 44.4627 174.206 45.2401 172.722 45.812C171.237 46.3904 169.68 46.7613 168.093 46.9141C167.299 46.9868 166.5 47.0018 165.704 46.9592C164.905 46.9429 164.109 46.8608 163.324 46.7137C160.15 46.1324 157.201 44.6768 154.808 42.5108L155.014 42.5759L146.417 43.8934L145.791 43.9886L146.107 43.4375L150.39 35.9884V36.2789C149.38 33.8143 148.951 31.1508 149.134 28.4938C149.317 25.8368 150.108 23.2574 151.447 20.9548C152.786 18.661 154.627 16.7001 156.832 15.2189C159.034 13.7592 161.539 12.8178 164.158 12.4655C166.776 12.1132 169.441 12.3592 171.951 13.185C174.437 14.0281 176.703 15.4162 178.583 17.2478C180.457 19.0729 181.892 21.2993 182.78 23.7593C183.669 26.2192 183.988 28.8487 183.713 31.4497V31.4497ZM183.713 31.4497C183.984 28.8608 183.658 26.2442 182.759 23.801C181.861 21.3578 180.415 19.1529 178.532 17.3558C176.649 15.5587 174.379 14.2172 171.896 13.4343C169.413 12.6513 166.784 12.4478 164.211 12.8394C161.666 13.2242 159.242 14.1836 157.123 15.6447C155.016 17.1204 153.255 19.0365 151.963 21.2604C150.695 23.4889 149.948 25.9757 149.779 28.5342C149.616 31.0981 150.03 33.6659 150.991 36.0485L151.056 36.1988L150.971 36.344L146.643 43.7631L146.332 43.3123L154.943 42.105H155.064L155.149 42.1851C157.446 44.3364 160.298 45.8042 163.384 46.4232C164.154 46.5811 164.934 46.6766 165.719 46.7087C168.078 46.8772 170.446 46.5355 172.662 45.7068C174.148 45.1714 175.545 44.4184 176.81 43.4726C177.447 43.0104 178.054 42.5084 178.628 41.9697C179.185 41.4109 179.707 40.8187 180.191 40.1964C182.153 37.6635 183.372 34.6353 183.713 31.4497Z" fill="#6B006D"/>
<path d="M164.597 39.47L157.253 32.0358L159.718 29.5962L164.011 33.9394L172.923 19.9629L175.848 21.8314L164.597 39.47Z" fill="white"/>
<path d="M234.951 142.355H160.896V199.75H234.951V142.355Z" fill="#FF9900"/>
<path opacity="0.2" d="M234.951 142.355H160.896V199.75H234.951V142.355Z" fill="black"/>
<path opacity="0.2" d="M160.895 199.754H188.943V142.36H160.895V199.754Z" fill="black"/>
<path d="M162.829 195.822C164.91 191.741 166.969 187.647 169.006 183.539L175.087 171.195L181.099 158.797C183.103 154.659 185.075 150.504 187.015 146.333C184.941 150.414 182.884 154.509 180.843 158.616L174.757 170.965L168.745 183.363C166.752 187.485 164.779 191.637 162.829 195.822Z" fill="#FF9900"/>
<path d="M162.829 146.308C164.783 150.476 166.755 154.63 168.745 158.772L174.757 171.17L180.843 183.514C182.877 187.621 184.934 191.716 187.015 195.797C185.065 191.629 183.093 187.476 181.099 183.338L175.087 170.94L169.006 158.591C166.965 154.484 164.906 150.389 162.829 146.308Z" fill="#FF9900"/>
<path d="M179.12 142.355H170.604V149.359H179.12V142.355Z" fill="#EBEBEB"/>
<path d="M219.391 187.516H218.795V195.932H219.391V187.516Z" fill="#263238"/>
<path d="M220.819 187.516H220.223V195.932H220.819V187.516Z" fill="#263238"/>
<path d="M222.251 187.516H221.655V195.932H222.251V187.516Z" fill="#263238"/>
<path d="M223.685 187.516H223.089V195.932H223.685V187.516Z" fill="#263238"/>
<path d="M225.118 187.516H224.521V195.932H225.118V187.516Z" fill="#263238"/>
<path d="M226.55 187.516H225.954V195.932H226.55V187.516Z" fill="#263238"/>
<path d="M227.978 187.516H227.382V195.932H227.978V187.516Z" fill="#263238"/>
<path d="M229.411 187.516H228.814V195.932H229.411V187.516Z" fill="#263238"/>
<path d="M230.843 187.516H230.247V195.932H230.843V187.516Z" fill="#263238"/>
<path d="M212.94 195.291L215.234 195.927H209.849L212.143 195.286V192.19C210.5 191.975 209.849 190.357 209.849 187.521H215.234C215.234 190.347 214.583 191.975 212.94 192.19V195.291Z" fill="#263238"/>
<path d="M208.591 191.809H207.183V195.927H203.582V191.809H202.169L205.385 187.521L208.591 191.809Z" fill="#263238"/>
<path opacity="0.1" d="M234.951 199.749V195.722L188.943 188.263V199.749H234.951Z" fill="black"/>
<path d="M232.281 122.117H175.067V142.356H232.281V122.117Z" fill="#FF9900"/>
<path opacity="0.2" d="M232.281 122.117H175.067V142.356H232.281V122.117Z" fill="black"/>
<path opacity="0.2" d="M175.072 142.355H192.556V122.117H175.072V142.355Z" fill="black"/>
<path d="M176.274 140.963C177.567 139.52 178.854 138.077 180.122 136.63L183.914 132.276L187.661 127.903C188.903 126.444 190.132 124.979 191.348 123.51C190.052 124.949 188.77 126.394 187.501 127.843L183.704 132.201L179.961 136.575C178.719 138.027 177.49 139.49 176.274 140.963Z" fill="#FF9900"/>
<path d="M176.274 123.51C177.49 124.976 178.719 126.44 179.961 127.903L183.704 132.276L187.501 136.63C188.77 138.079 190.052 139.523 191.348 140.963C190.129 139.49 188.9 138.026 187.661 136.57L183.914 132.201L180.122 127.848C178.854 126.39 177.567 124.947 176.274 123.51Z" fill="#FF9900"/>
<path d="M186.429 122.117H181.119V126.856H186.429V122.117Z" fill="#EBEBEB"/>
<path d="M222.583 134.731H222.212V139.976H222.583V134.731Z" fill="#263238"/>
<path d="M223.474 134.731H223.104V139.976H223.474V134.731Z" fill="#263238"/>
<path d="M224.366 134.731H223.995V139.976H224.366V134.731Z" fill="#263238"/>
<path d="M225.257 134.731H224.887V139.976H225.257V134.731Z" fill="#263238"/>
<path d="M226.149 134.731H225.778V139.976H226.149V134.731Z" fill="#263238"/>
<path d="M227.041 134.731H226.67V139.976H227.041V134.731Z" fill="#263238"/>
<path d="M227.938 134.731H227.567V139.976H227.938V134.731Z" fill="#263238"/>
<path d="M228.83 134.731H228.459V139.976H228.83V134.731Z" fill="#263238"/>
<path d="M229.721 134.731H229.351V139.976H229.721V134.731Z" fill="#263238"/>
<path d="M218.561 139.575L219.993 139.976H216.632L218.065 139.57V137.641C217.063 137.511 216.632 136.499 216.632 134.731H219.993C219.993 136.494 219.587 137.511 218.561 137.641V139.575Z" fill="#263238"/>
<path d="M215.85 137.406H214.974V139.976H212.729V137.406H211.848L213.851 134.731L215.85 137.406Z" fill="#263238"/>
<path opacity="0.1" d="M232.281 142.355V139.846L192.551 135.197V142.355H232.281Z" fill="black"/>
<circle cx="30.5" cy="258.5" r="30.5" fill="#F5F5F5"/>
<circle cx="76" cy="229" r="14" fill="#F5F5F5"/>
<circle cx="235.5" cy="287.5" r="30.5" fill="#F5F5F5"/>
<circle cx="272.5" cy="315.5" r="10.5" fill="#F5F5F5"/>
</svg>
