<svg width="24" height="24" viewBox="0 0 24 24" fill="none" xmlns="http://www.w3.org/2000/svg">
<path d="M20.9192 10.6529C20.6047 10.483 17.9084 8.9185 16.8967 8.32964L16.8938 8.32764L4.63891 1.2525C4.43013 1.12506 4.19602 1.04477 3.95297 1.01725C3.70992 0.989733 3.46379 1.01566 3.2318 1.0932C3.20562 1.1026 3.18102 1.11206 3.15557 1.12371C3.09648 1.14297 3.03872 1.1661 2.98266 1.19293C2.74834 1.33299 2.55611 1.53361 2.42619 1.77369C2.29627 2.01377 2.23346 2.28443 2.24438 2.55719V21.5425C2.23694 21.7967 2.29713 22.0482 2.41878 22.2714C2.54043 22.4946 2.71918 22.6816 2.93676 22.813C2.98694 22.8376 3.03864 22.8589 3.09155 22.8768C3.12048 22.8901 3.14806 22.9018 3.17791 22.9123C3.32112 22.9642 3.47195 22.9921 3.62426 22.9947C3.91675 22.9915 4.2033 22.9117 4.45532 22.7632C4.84399 22.5377 16.8938 15.5806 16.8938 15.5806L20.9143 13.2593C21.1629 13.1348 21.3727 12.9447 21.5211 12.7096C21.6694 12.4745 21.7507 12.2033 21.7561 11.9253C21.7439 11.6576 21.6597 11.3981 21.5124 11.1742C21.3651 10.9502 21.1602 10.7702 20.9192 10.6529ZM4.24438 19.8389V4.10174L12.1845 11.9608L4.24438 19.8389ZM9.26238 17.6772L13.6059 13.3676L14.7554 14.5055C13.4908 15.2357 11.3541 16.4695 9.26238 17.6772V17.6772ZM13.6042 10.5522L9.20631 6.19921L14.76 9.40551L13.6042 10.5522ZM16.551 13.4689L15.0256 11.9591L16.5533 10.4433C17.2736 10.8616 18.3961 11.5126 19.1692 11.9576L16.551 13.4689Z" fill="white"/>
</svg>
