<svg width="18" height="18" viewBox="0 0 18 18" fill="none" xmlns="http://www.w3.org/2000/svg">
<path d="M3.74979 7.39558C5.18709 10.526 7.74459 13.0149 10.9243 14.3641L11.4339 14.5912C12.6001 15.1108 13.9709 14.7161 14.6821 13.6559L15.3482 12.6631C15.5647 12.3404 15.4988 11.9056 15.1963 11.6616L12.9374 9.83923C12.6056 9.57156 12.1177 9.63391 11.8639 9.9764L11.1651 10.9193C9.37201 10.0348 7.91622 8.57905 7.03171 6.78594L7.97465 6.08715C8.31715 5.83334 8.37949 5.34545 8.11183 5.01366L6.28942 2.75471C6.04542 2.45225 5.61079 2.38627 5.28801 2.6027L4.28838 3.27297C3.22162 3.98825 2.82909 5.37039 3.36064 6.5396L3.7492 7.39431L3.74979 7.39558Z" fill="white"/>
</svg>
