<svg width="69" height="58" viewBox="0 0 69 58" fill="none" xmlns="http://www.w3.org/2000/svg">
<path d="M37.375 37.2685C37.375 20.9276 48.5645 3.83333 66.125 0L68.954 6.75759C62.5859 9.41168 56.9854 18.6517 56.3615 25.0215C63.5231 26.2675 69 33.1173 69 41.3879C69 51.502 61.571 57.2139 54.0529 57.2139C45.3848 57.2139 37.375 49.8873 37.375 37.2685ZM0 37.2685C0 20.9276 11.1895 3.83333 28.75 0L31.579 6.75759C25.2109 9.41168 19.6104 18.6517 18.9865 25.0215C26.1481 26.2675 31.625 33.1173 31.625 41.3879C31.625 51.502 24.196 57.2139 16.6779 57.2139C8.00975 57.2139 0 49.8873 0 37.2685Z" fill="#6B006D"/>
</svg>
