<svg width="47" height="47" viewBox="0 0 47 47" fill="none" xmlns="http://www.w3.org/2000/svg">
<path d="M23.4993 9.67651C19.8052 9.67651 16.8105 12.4933 16.8105 15.9679C16.8105 19.4426 19.8052 22.2593 23.4993 22.2593C27.1934 22.2593 30.1881 19.4426 30.1881 15.9679C30.1881 12.4933 27.1934 9.67651 23.4993 9.67651Z" fill="black"/>
<path d="M16.3646 25.6147C12.6705 25.6147 9.67578 28.4315 9.67578 31.9062V33.8997C9.67578 35.1635 10.6495 36.2409 11.9754 36.4446C19.6075 37.6166 27.3911 37.6166 35.0232 36.4446C36.3492 36.2409 37.3228 35.1635 37.3228 33.8997V31.9062C37.3228 28.4315 34.3282 25.6147 30.634 25.6147H30.026C29.697 25.6147 29.3699 25.6637 29.0571 25.7598L27.5133 26.2339C24.9051 27.035 22.0935 27.035 19.4853 26.2339L17.9415 25.7598C17.6287 25.6637 17.3017 25.6147 16.9726 25.6147H16.3646Z" fill="black"/>
</svg>
