<svg width="18" height="18" viewBox="0 0 18 18" fill="none" xmlns="http://www.w3.org/2000/svg">
<path d="M6.56299 7.5C6.56299 6.15381 7.65429 5.0625 9.00049 5.0625C10.3467 5.0625 11.438 6.15381 11.438 7.5C11.438 8.84619 10.3467 9.9375 9.00049 9.9375C7.65429 9.9375 6.56299 8.84619 6.56299 7.5Z" fill="white"/>
<path fill-rule="evenodd" clip-rule="evenodd" d="M2.83065 6.65804C3.08837 3.53134 5.70122 1.125 8.83853 1.125H9.16248C12.2998 1.125 14.9126 3.53134 15.1704 6.65804C15.3091 8.34149 14.7891 10.0131 13.7199 11.3207L10.1251 15.7171C9.54386 16.4279 8.45716 16.4279 7.87593 15.7171L4.28113 11.3207C3.21189 10.0131 2.69188 8.34149 2.83065 6.65804ZM9.00049 3.9375C7.03297 3.9375 5.43799 5.53249 5.43799 7.5C5.43799 9.46751 7.03297 11.0625 9.00049 11.0625C10.968 11.0625 12.563 9.46751 12.563 7.5C12.563 5.53249 10.968 3.9375 9.00049 3.9375Z" fill="white"/>
</svg>
