<svg width="250" height="212" viewBox="0 0 250 212" fill="none" xmlns="http://www.w3.org/2000/svg">
<path d="M235.816 30.7987C225.647 14.2653 208.636 2.93295 189.371 0.52333C182.171 -0.391588 174.869 -0.105386 167.762 1.37027C145.98 5.9748 127.025 22.2457 119.164 43.0794C114.542 55.3303 113.253 69.4421 104.486 79.164C93.0699 91.8205 73.6975 92.2201 56.6632 91.6893C39.6288 91.1585 20.2385 91.6118 8.88232 104.322C1.77274 112.284 -0.487767 123.581 0.084816 134.257C1.59978 162.475 21.5149 187.71 46.8398 200.247C72.1647 212.785 101.975 213.912 129.691 208.395C168.514 200.641 205.439 179.444 227.627 146.663C248.854 115.314 254.914 73.1042 239.878 38.5345C238.704 35.8653 237.347 33.2805 235.816 30.7987Z" fill="#EBEBEB"/>
<path d="M22.5946 209.344C22.5946 209.419 73.438 209.484 136.14 209.484C198.841 209.484 249.695 209.425 249.695 209.344C249.695 209.264 198.863 209.205 136.14 209.205C73.4165 209.205 22.5946 209.269 22.5946 209.344Z" fill="#263238"/>
<path d="M29.6989 117.448L47.6743 134.951L64.2372 166.557L82.8624 202.298L105.746 191.557L130.483 178.893L114.662 148.667L104.828 114.832C111.778 119.44 124.699 125.719 140.113 122.443C156.837 118.898 148.808 55.8472 148.808 55.8472L130.43 55.3746L128.582 99.827L107.825 90.654L107.793 90.7292C106.541 90.1922 105.446 89.6551 104.866 89.3597C93.378 83.0922 85.8377 82.335 73.5122 86.7335L55.7302 92.6411C51.1598 94.7894 34.3123 103.087 29.6989 117.448Z" fill="#6B006D"/>
<path d="M92.6042 85.4124C92.6042 85.4124 93.0178 85.6487 93.7159 86.1482C94.6949 86.8601 95.5635 87.7124 96.2938 88.6777C97.3663 90.1181 98.2205 91.7088 98.8287 93.3984C99.5687 95.4752 100.202 97.5886 100.725 99.7304L103.882 111.347C104.296 112.802 104.629 113.995 104.876 114.854C104.989 115.246 105.085 115.563 105.155 115.805C105.181 115.918 105.221 116.028 105.273 116.132C105.266 116.017 105.245 115.903 105.209 115.794C105.15 115.541 105.075 115.225 104.978 114.827C104.758 113.957 104.441 112.759 104.076 111.293C103.281 108.286 102.196 104.188 100.993 99.6552C100.467 97.5062 99.8248 95.3871 99.0704 93.3071C98.4424 91.601 97.5587 90.0002 96.4496 88.5595C95.6929 87.5882 94.7865 86.7434 93.7643 86.0569C93.4889 85.8704 93.2019 85.7018 92.905 85.552C92.8082 85.4984 92.7077 85.4517 92.6042 85.4124Z" fill="#263238"/>
<g opacity="0.3">
<path opacity="0.3" d="M99.3107 94.3221C104.45 108.237 113.693 116.014 126.781 122.985C119.054 122.129 111.649 119.417 105.197 115.079" fill="black"/>
</g>
<g opacity="0.3">
<path opacity="0.3" d="M82.9336 84.4189C80.7567 119.285 78.5798 154.149 76.403 189.011L82.8477 202.298L82.9336 84.4189Z" fill="black"/>
</g>
<path d="M62.6978 120.59C62.773 120.622 63.4282 118.979 64.3466 116.997C65.265 115.015 66.0813 113.442 66.0115 113.404C65.7583 113.7 65.5436 114.027 65.3723 114.376C65.0125 114.999 64.5507 115.88 64.0942 116.879C63.6377 117.878 63.2617 118.796 63.02 119.473C62.862 119.829 62.7536 120.205 62.6978 120.59Z" fill="#FF9900"/>
<path d="M48.071 113.237C49.1785 114.098 50.3449 114.881 51.5619 115.579C52.7274 116.361 53.9438 117.064 55.2031 117.684C54.089 116.83 52.9212 116.047 51.7069 115.343C50.5428 114.561 49.3281 113.858 48.071 113.237Z" fill="#FF9900"/>
<path d="M54.4158 107.942C54.6019 107.003 54.699 106.048 54.7058 105.09C54.796 104.135 54.796 103.173 54.7058 102.217C54.5131 103.157 54.416 104.114 54.4158 105.074C54.3222 106.028 54.3222 106.988 54.4158 107.942Z" fill="#FF9900"/>
<path d="M39.814 106.922C41.6159 106.028 43.331 104.969 44.9375 103.758C44.0156 104.163 43.1329 104.652 42.3005 105.219C41.4203 105.708 40.5878 106.278 39.814 106.922Z" fill="#FF9900"/>
<path d="M62.1367 135.891C61.7399 134.62 61.2554 133.378 60.6867 132.174C60.2001 130.936 59.6295 129.732 58.9788 128.571C59.3737 129.842 59.8583 131.084 60.4289 132.287C60.9141 133.526 61.4848 134.731 62.1367 135.891Z" fill="#FF9900"/>
<path d="M68.6428 142.475C69.1587 141.753 69.5979 140.979 69.9532 140.166C70.3942 139.392 70.7541 138.575 71.0273 137.727C70.5108 138.45 70.0698 139.224 69.7116 140.037C69.2698 140.809 68.9116 141.627 68.6428 142.475Z" fill="#FF9900"/>
<path d="M63.2017 151.342C64.0787 151.721 65.0105 151.959 65.9622 152.045C66.9002 152.227 67.8613 152.256 68.8086 152.131C68.8086 152.051 67.5465 151.992 65.9998 151.771C64.453 151.551 63.2232 151.256 63.2017 151.342Z" fill="#FF9900"/>
<path d="M56.2266 141.643C55.9932 140.745 55.6731 139.873 55.2706 139.038C54.9532 138.167 54.5483 137.33 54.0622 136.54C54.2921 137.438 54.6105 138.311 55.0128 139.145C55.328 140.018 55.7349 140.855 56.2266 141.643Z" fill="#FF9900"/>
<path d="M73.1936 162.126C73.2634 162.169 74.0529 161.079 75.1378 159.827C76.2226 158.576 77.1893 157.636 77.1302 157.577C75.5176 158.805 74.1772 160.354 73.1936 162.126Z" fill="#FF9900"/>
<path d="M76.2698 140.101C76.6502 141.039 77.1196 141.938 77.6716 142.787C78.1409 143.688 78.6928 144.544 79.3203 145.343C78.9323 144.408 78.4614 143.509 77.9132 142.658C77.445 141.757 76.8949 140.901 76.2698 140.101Z" fill="#FF9900"/>
<path d="M74.0772 132.545C75.0946 132.422 76.0992 132.21 77.0794 131.911C78.0822 131.7 79.0636 131.398 80.0117 131.009C78.9938 131.129 77.989 131.341 77.0096 131.643C76.0063 131.852 75.0246 132.154 74.0772 132.545Z" fill="#FF9900"/>
<path d="M74.207 116.97C73.6166 117.66 73.078 118.392 72.5959 119.161C72.0426 119.875 71.5435 120.629 71.1028 121.417C71.7638 120.794 72.3414 120.088 72.8214 119.317C73.3856 118.6 73.8516 117.81 74.207 116.97Z" fill="#FF9900"/>
<path d="M79.1752 116.191C80.3476 117.461 81.655 118.599 83.0742 119.585C82.5228 118.918 81.8997 118.313 81.216 117.781C80.5939 117.18 79.9098 116.647 79.1752 116.191Z" fill="#FF9900"/>
<path d="M75.2485 108.044C77.0622 106.614 78.5737 104.838 79.6953 102.819C79.6255 102.776 78.7447 104.032 77.5149 105.472C76.285 106.911 75.1894 107.985 75.2485 108.044Z" fill="#FF9900"/>
<path d="M61.5108 105.536C62.4816 105.982 63.4898 106.341 64.5237 106.61C65.5291 106.967 66.5644 107.233 67.6172 107.405C66.6447 106.963 65.6368 106.604 64.6043 106.331C63.5985 105.975 62.5634 105.709 61.5108 105.536Z" fill="#FF9900"/>
<path d="M80.8495 92.4533C80.93 92.4533 80.8924 91.2234 81.0858 89.7304C81.2791 88.2373 81.6228 87.0451 81.5262 87.0451C80.7973 88.7542 80.5628 90.6336 80.8495 92.4694V92.4533Z" fill="#FF9900"/>
<path d="M93.075 131.396C93.471 131.739 93.8929 132.052 94.3371 132.33C95.132 132.867 96.2168 133.667 97.3769 134.58C98.5369 135.493 99.5573 136.358 100.288 136.992C100.666 137.357 101.069 137.694 101.496 138.001C101.18 137.579 100.82 137.192 100.422 136.847C99.508 135.969 98.549 135.139 97.5487 134.36C96.5531 133.577 95.5188 132.844 94.4499 132.164C94.0168 131.865 93.5565 131.608 93.075 131.396Z" fill="#FF9900"/>
<path d="M93.7765 127.088C93.8463 127.126 94.7486 125.724 95.9999 124.086C97.2513 122.448 98.3576 121.202 98.2985 121.143C97.993 121.351 97.7197 121.602 97.4876 121.89C96.8827 122.535 96.3109 123.211 95.7744 123.914C95.1514 124.741 94.6304 125.525 94.2813 126.105C94.068 126.408 93.8981 126.739 93.7765 127.088Z" fill="#FF9900"/>
<path d="M90.5064 110.112C92.1671 111.241 93.929 112.214 95.7695 113.017C94.9638 112.415 94.1045 111.888 93.2024 111.444C92.3476 110.916 91.4449 110.47 90.5064 110.112Z" fill="#FF9900"/>
<path d="M93.7451 102.7C94.0834 102.503 94.3924 102.258 94.6635 101.975C95.3593 101.34 96.0073 100.654 96.6023 99.9238C97.2031 99.1945 97.7506 98.4227 98.2403 97.6145C98.4668 97.2938 98.6475 96.9431 98.7773 96.5726C98.7022 96.5296 97.7838 98.0549 96.3928 99.7466C95.0018 101.438 93.6753 102.636 93.7451 102.7Z" fill="#FF9900"/>
<path d="M88.168 102.545C87.9235 101.729 87.5922 100.943 87.1798 100.198C86.8482 99.4121 86.4322 98.6648 85.9392 97.969C86.1808 98.7854 86.5122 99.5726 86.9274 100.316C87.2565 101.103 87.6726 101.85 88.168 102.545Z" fill="#FF9900"/>
<path d="M89.6587 94.0643C89.7446 94.0643 89.6587 92.394 89.9702 90.3801C90.2817 88.3661 90.8778 86.8086 90.7973 86.7764C90.5945 87.0838 90.4405 87.4208 90.3408 87.7753C90.0443 88.607 89.8267 89.4647 89.6909 90.3371C89.5573 91.2094 89.5016 92.0919 89.5244 92.9741C89.5104 93.3423 89.5557 93.7104 89.6587 94.0643Z" fill="#FF9900"/>
<path d="M88.3078 136.841C88.3436 136.318 88.3436 135.792 88.3078 135.268C88.2702 134.301 88.2433 132.964 88.2809 131.508C88.3185 130.053 88.4152 128.7 88.4957 127.749C88.5687 127.23 88.601 126.705 88.5924 126.181C88.4437 126.686 88.3447 127.204 88.297 127.728C88.1297 128.985 88.0311 130.251 88.0016 131.519C87.9677 132.786 88.0036 134.053 88.109 135.316C88.1221 135.83 88.1887 136.341 88.3078 136.841Z" fill="#FF9900"/>
<path d="M89.0981 150.208C89.8483 149.518 90.6431 148.877 91.4773 148.291C92.3584 147.782 93.2715 147.33 94.2109 146.938C93.1816 147.112 92.1977 147.492 91.3176 148.054C90.4375 148.615 89.6792 149.348 89.0874 150.208H89.0981Z" fill="#FF9900"/>
<path d="M82.3982 158.479C83.5808 159.25 84.8133 159.94 86.0878 160.547C87.3179 161.238 88.5937 161.845 89.9062 162.362C88.7219 161.596 87.4895 160.908 86.2166 160.3C84.9858 159.609 83.7102 159 82.3982 158.479Z" fill="#FF9900"/>
<path d="M101.294 162.147C102.274 161.057 103.182 159.903 104.012 158.694C104.919 157.54 105.751 156.329 106.504 155.069C105.526 156.164 104.619 157.319 103.786 158.528C102.882 159.682 102.05 160.891 101.294 162.147Z" fill="#FF9900"/>
<path d="M107.102 146.873C107.195 146.514 107.236 146.143 107.226 145.772C107.253 145.09 107.263 144.161 107.226 143.087C107.188 142.013 107.081 141.105 106.989 140.402C106.964 140.036 106.89 139.674 106.769 139.328C106.689 139.328 106.85 141.014 106.946 143.087C107.043 145.16 107.048 146.873 107.102 146.873Z" fill="#FF9900"/>
<path d="M113.428 172.948C114.528 172.212 115.576 171.401 116.564 170.52C117.611 169.71 118.6 168.827 119.523 167.878C118.423 168.613 117.375 169.424 116.387 170.305C115.34 171.116 114.351 171.999 113.428 172.948Z" fill="#FF9900"/>
<path d="M109.647 172.147C109.82 170.751 109.901 169.344 109.888 167.937C109.966 166.532 109.952 165.124 109.845 163.721C109.672 165.118 109.591 166.524 109.604 167.932C109.526 169.336 109.541 170.745 109.647 172.147Z" fill="#FF9900"/>
<path d="M102.182 188.318C102.182 188.361 102.853 188.098 103.933 187.749C106.744 186.844 109.693 186.442 112.644 186.562C113.777 186.605 114.475 186.686 114.48 186.637C114.326 186.577 114.163 186.539 113.997 186.525C113.686 186.465 113.224 186.412 112.654 186.363C109.677 186.138 106.686 186.548 103.879 187.566C103.452 187.721 103.034 187.9 102.628 188.104C102.469 188.152 102.318 188.224 102.182 188.318Z" fill="#FF9900"/>
<path d="M96.0352 191.272C95.5988 191.5 95.1913 191.78 94.8214 192.105C92.9634 193.576 91.2819 195.257 89.8106 197.115C89.4857 197.485 89.2062 197.893 88.9782 198.329C89.3334 197.996 89.6637 197.637 89.9664 197.255C90.5571 196.573 91.395 195.644 92.367 194.672C93.3391 193.7 94.2682 192.867 94.9503 192.271C95.3361 191.965 95.6987 191.631 96.0352 191.272Z" fill="#FF9900"/>
<path d="M93.3547 163.291C93.9 162.286 94.3652 161.239 94.7457 160.16C95.2094 159.118 95.5884 158.04 95.8789 156.938C95.3336 157.943 94.8685 158.99 94.4879 160.069C94.0242 161.111 93.6453 162.188 93.3547 163.291Z" fill="#FF9900"/>
<path d="M114.93 108.86C115.159 109.198 115.435 109.5 115.752 109.757C116.468 110.423 117.236 111.03 118.05 111.573C118.865 112.119 119.724 112.596 120.617 113.001C120.977 113.192 121.362 113.332 121.761 113.415C121.793 113.334 120.091 112.604 118.206 111.342C116.321 110.079 114.989 108.796 114.93 108.86Z" fill="#FF9900"/>
<path d="M113.544 103.168C113.655 101.571 113.58 99.9671 113.319 98.3881C113.207 99.9847 113.283 101.589 113.544 103.168Z" fill="#FF9900"/>
<path d="M124.262 107.947C125.224 107.661 126.157 107.285 127.049 106.825C127.985 106.448 128.884 105.986 129.734 105.445C128.773 105.734 127.84 106.11 126.947 106.567C126.011 106.944 125.112 107.406 124.262 107.947Z" fill="#FF9900"/>
<path d="M105.144 100.665C105.207 99.6741 105.176 98.6798 105.053 97.6949C105.028 96.7025 104.905 95.715 104.688 94.7464C104.625 95.7369 104.654 96.7311 104.774 97.7163C104.804 98.7087 104.928 99.6959 105.144 100.665Z" fill="#FF9900"/>
<path d="M129.953 119.333C131.041 119.058 132.076 118.605 133.014 117.99C134.002 117.455 134.89 116.753 135.641 115.917C135.587 115.853 134.443 116.814 132.875 117.754C131.307 118.694 129.921 119.252 129.953 119.333Z" fill="#FF9900"/>
<path d="M137.919 108.404C138.611 109.357 139.376 110.255 140.207 111.089C140.972 111.993 141.805 112.837 142.699 113.613C141.245 111.746 139.647 109.995 137.919 108.377V108.404Z" fill="#FF9900"/>
<path d="M138.598 98.6134C139.513 98.3041 140.363 97.8289 141.106 97.2117C141.902 96.6687 142.595 95.9886 143.152 95.2031C143.093 95.144 142.191 96.0516 140.934 96.9861C139.678 97.9206 138.56 98.5436 138.598 98.6134Z" fill="#FF9900"/>
<path d="M143.618 100.665C143.923 101.24 144.308 101.768 144.762 102.233C145.148 102.758 145.606 103.226 146.121 103.624C145.433 102.523 144.59 101.527 143.618 100.665Z" fill="#FF9900"/>
<path d="M132.878 82.4908C133.504 83.4723 134.206 84.4025 134.978 85.2728C135.677 86.2048 136.451 87.0778 137.293 87.8829C136.667 86.9002 135.965 85.9683 135.193 85.0956C134.492 84.1674 133.718 83.2964 132.878 82.4908Z" fill="#FF9900"/>
<path d="M142.08 84.5585C142.909 83.8234 143.674 83.0204 144.368 82.1579C145.13 81.3576 145.823 80.4953 146.441 79.58C145.612 80.3122 144.847 81.1135 144.154 81.9753C143.392 82.7772 142.698 83.6412 142.08 84.5585Z" fill="#FF9900"/>
<path d="M137.471 72.8938C138.087 72.0979 138.627 71.2456 139.083 70.3482C139.615 69.4954 140.069 68.5967 140.441 67.6629C139.826 68.4613 139.287 69.3153 138.83 70.2139C138.298 71.0645 137.843 71.9615 137.471 72.8938Z" fill="#FF9900"/>
<path d="M137.715 65.3692C137.78 65.3155 136.974 64.2951 136.335 62.8504C135.696 61.4057 135.465 60.1329 135.379 60.1651C135.513 62.1275 136.341 63.9782 137.715 65.3853V65.3692Z" fill="#FF9900"/>
<path d="M146.573 64.9235C146.656 63.7882 146.428 62.6517 145.912 61.6367C145.579 60.9084 145.137 60.2348 144.602 59.6389C144.397 59.3765 144.144 59.1558 143.856 58.989C144.553 59.843 145.158 60.7683 145.66 61.7495C146.077 62.7717 146.383 63.8358 146.573 64.9235Z" fill="#FF9900"/>
<path d="M69.136 52.147C69.3828 49.9209 69.4098 47.6759 69.2165 45.4445C69.0161 43.1995 68.1566 41.0639 66.746 39.3059C65.2799 37.6088 63.0242 36.5186 60.8062 36.8032C59.4313 36.9804 58.1209 37.6571 56.7514 37.6195C55.1402 37.5712 53.76 36.583 52.3045 35.9224C50.0101 34.8809 47.4397 34.6114 44.9791 35.1544C43.6821 35.3989 42.481 36.006 41.515 36.9053C41.0391 37.359 40.6864 37.9263 40.49 38.5539C40.2936 39.1815 40.2601 39.8487 40.3926 40.4928C38.7698 40.4216 37.1446 40.5642 35.5591 40.9171C33.9712 41.2749 32.5857 42.2383 31.6976 43.6024C30.8974 45.0041 30.9511 46.9536 32.1004 48.0868C31.3438 47.9854 30.5764 48.1674 29.9459 48.5977C29.3153 49.0279 28.8661 49.6762 28.6847 50.4177C28.5421 51.1681 28.6181 51.9436 28.9038 52.652C29.1894 53.3604 29.6726 53.9718 30.2959 54.4134C31.7977 55.3329 33.5768 55.6906 35.3174 55.423C36.8104 55.1384 38.5397 54.7195 39.7374 53.8119" fill="#263238"/>
<path d="M70.3045 102.738C67.3416 103.499 64.198 103.058 61.5591 101.51C58.9203 99.9631 57.0001 97.4353 56.2174 94.478C55.3098 91.0355 54.5686 88.1515 54.5686 88.1515C54.5686 88.1515 45.5944 89.6928 42.6245 81.1697C39.6545 72.6466 34.5686 52.5928 34.5686 52.5928C38.7187 48.8815 43.7842 46.345 49.242 45.2452C54.6998 44.1453 60.3523 44.5219 65.616 46.3361L67.2271 46.8731L78.6289 88.4039C79.0417 89.8919 79.1531 91.4474 78.9563 92.979C78.7596 94.5106 78.2588 95.9875 77.4833 97.3228C76.7078 98.6582 75.6733 99.8251 74.4405 100.755C73.2077 101.685 71.8015 102.359 70.3045 102.738Z" fill="#FFAD9D"/>
<path d="M54.5112 88.0331C58.4734 86.7846 61.9748 84.3862 64.5703 81.1426C64.5703 81.1426 64.001 88.162 55.2309 90.2726L54.5112 88.0331Z" fill="#AA6550"/>
<path d="M69.1091 56.0997C69.2327 55.9869 74.3884 52.3994 76.1554 58.2963C77.9223 64.1932 71.6441 64.741 71.585 64.5853C71.5259 64.4295 69.1091 56.0997 69.1091 56.0997Z" fill="#FFAD9D"/>
<path d="M72.73 61.8087C72.73 61.8087 72.8535 61.8517 73.0522 61.8785C73.3223 61.9009 73.5909 61.8203 73.8041 61.653C74.3412 61.2394 74.5828 60.0901 74.2928 59.0214C74.1582 58.511 73.9104 58.0374 73.5678 57.6358C73.4546 57.4722 73.3039 57.338 73.1282 57.2446C72.9526 57.1511 72.7571 57.1011 72.5581 57.0987C72.4278 57.0974 72.3015 57.1436 72.2027 57.2286C72.1039 57.3135 72.0393 57.4316 72.0211 57.5606C71.9888 57.7486 72.064 57.856 72.0211 57.8775C71.9781 57.8989 71.8653 57.813 71.8438 57.5552C71.8324 57.401 71.8741 57.2474 71.962 57.1202C72.0253 57.0331 72.1054 56.9597 72.1977 56.9044C72.29 56.849 72.3925 56.8128 72.4991 56.798C72.7556 56.7721 73.0144 56.8129 73.2506 56.9164C73.4867 57.0199 73.6922 57.1826 73.8471 57.3887C74.2523 57.8229 74.5439 58.3505 74.6956 58.9247C75.0179 60.1224 74.744 61.4167 73.9652 61.9215C73.8202 62.0145 73.6561 62.0739 73.4851 62.0953C73.3141 62.1167 73.1405 62.0995 72.977 62.045C72.7676 61.9484 72.6978 61.8302 72.73 61.8087Z" fill="#AA6550"/>
<path d="M41.7904 64.9021C41.8952 65.2251 42.1232 65.4937 42.4249 65.6496C42.7265 65.8054 43.0776 65.836 43.4016 65.7345C43.5606 65.6946 43.71 65.6233 43.841 65.5249C43.972 65.4264 44.0821 65.3027 44.1646 65.1611C44.2472 65.0195 44.3006 64.8628 44.3218 64.7003C44.3429 64.5378 44.3313 64.3726 44.2878 64.2146C44.184 63.8967 43.9607 63.6316 43.665 63.4753C43.3694 63.319 43.0246 63.2837 42.7034 63.3768C42.5418 63.4144 42.3895 63.4841 42.2554 63.5818C42.1213 63.6795 42.0083 63.8032 41.9231 63.9456C41.8379 64.0879 41.7822 64.246 41.7594 64.4103C41.7366 64.5747 41.7472 64.7419 41.7904 64.9021Z" fill="#263238"/>
<path d="M40.1997 64.0752C40.4038 64.1827 41.0966 63.1945 42.407 62.7541C43.7174 62.3137 44.9043 62.652 44.9903 62.4426C45.0386 62.3513 44.7862 62.115 44.2652 61.9485C43.5612 61.7408 42.8097 61.7596 42.117 62.0022C41.4341 62.2282 40.8413 62.6667 40.4253 63.2535C40.1406 63.6993 40.103 64.0323 40.1997 64.0752Z" fill="#263238"/>
<path d="M54.6806 60.5789C54.7844 60.8968 55.0077 61.1619 55.3033 61.3182C55.5989 61.4746 55.9437 61.5099 56.2649 61.4167C56.4239 61.3768 56.5733 61.3055 56.7043 61.2071C56.8353 61.1086 56.9454 60.9849 57.0279 60.8433C57.1105 60.7017 57.1639 60.5451 57.185 60.3825C57.2062 60.22 57.1946 60.0549 57.151 59.8969C57.0484 59.5782 56.8253 59.3122 56.5293 59.1557C56.2333 58.9991 55.8879 58.9645 55.5667 59.059C55.4077 59.099 55.2583 59.1702 55.1273 59.2687C54.9963 59.3672 54.8863 59.4908 54.8037 59.6324C54.7211 59.774 54.6677 59.9307 54.6466 60.0933C54.6254 60.2558 54.637 60.4209 54.6806 60.5789Z" fill="#263238"/>
<path d="M53.1641 59.9934C53.3682 60.1061 54.0664 59.1126 55.3768 58.6722C56.6872 58.2318 57.8688 58.5701 57.9601 58.3607C58.003 58.2694 57.756 58.0331 57.2297 57.872C56.526 57.664 55.775 57.6809 55.0814 57.9203C54.3979 58.148 53.8039 58.586 53.3843 59.1717C53.1104 59.6174 53.0675 59.9504 53.1641 59.9934Z" fill="#263238"/>
<path d="M51.6715 71.3201C51.6715 71.2449 50.7907 71.3738 49.4158 71.6477C49.0667 71.7283 48.7284 71.7659 48.5941 71.5564C48.4505 71.2175 48.4131 70.8429 48.4867 70.4823C48.5297 69.5639 48.5726 68.6026 48.621 67.5983C48.7767 63.5113 48.7713 60.1922 48.621 60.1869C48.4706 60.1815 48.1967 63.4951 48.0409 67.5822C48.0087 68.5865 47.9819 69.5478 47.955 70.4662C47.8778 70.9394 47.971 71.4247 48.2182 71.8357C48.3061 71.9376 48.4162 72.0182 48.54 72.0712C48.6637 72.1243 48.798 72.1484 48.9325 72.1418C49.1354 72.1316 49.336 72.0937 49.5286 72.029C50.8659 71.6584 51.6929 71.3899 51.6715 71.3201Z" fill="#263238"/>
<path d="M55.8363 70.9279C55.6215 70.987 56.0941 72.4102 55.2133 73.828C54.3325 75.2459 52.7697 75.6003 52.8234 75.799C52.8234 75.8957 53.2584 75.9655 53.8975 75.7668C54.7347 75.4989 55.45 74.9434 55.9169 74.1986C56.3691 73.4856 56.5233 72.6236 56.3465 71.798C56.2069 71.1857 55.933 70.885 55.8363 70.9279Z" fill="#263238"/>
<path d="M39.9121 61.6102C40.2397 61.8304 41.04 61.2181 42.1194 60.8368C43.1989 60.4555 44.1925 60.3642 44.2999 59.9829C44.3429 59.8003 44.0958 59.5479 43.6017 59.4029C42.9483 59.2458 42.263 59.2865 41.6328 59.5198C41.0026 59.7531 40.456 60.1686 40.0625 60.7133C39.7832 61.1483 39.7618 61.4974 39.9121 61.6102Z" fill="#263238"/>
<path d="M53.2829 54.6713C53.4817 54.7787 53.82 54.6015 54.2013 54.3706C54.6951 54.0758 55.2124 53.8226 55.748 53.6133C56.2908 53.4179 56.8497 53.2705 57.4183 53.1729C57.8748 53.0816 58.2292 53.0118 58.3098 52.797C58.3904 52.5821 58.1326 52.2599 57.5526 52.0451C56.7806 51.8013 55.9493 51.8221 55.1905 52.1042C54.4317 52.3863 53.7887 52.9136 53.3635 53.6026C53.0681 54.1665 53.095 54.5854 53.2829 54.6713Z" fill="#263238"/>
<path d="M35.0134 55.3799C39.4987 55.1189 43.7842 53.4352 47.2476 50.5732C51.1037 47.4153 55.9319 45.2026 57.2476 45.8256C58.5634 46.4486 59.8148 50.874 64.4227 51.1962C64.4227 51.1962 66.0661 59.816 69.4067 58.715C72.7472 57.6141 67.6075 44.875 67.6075 44.875L58.3432 42.6946L48.8534 43.0437L40.3303 44.9771L32.9565 49.2145L35.0134 55.3799Z" fill="#263238"/>
<path d="M82.8673 21.5723H203.453V209.35H82.8673V21.5723Z" fill="#FAFAFA"/>
<path d="M82.8649 209.344C82.8649 208.19 82.9186 131.927 82.9937 21.5671L82.8649 21.696H203.435L203.29 21.5563C203.29 92.5985 203.29 158.012 203.322 209.334L203.435 209.221L82.8487 209.334L203.435 209.441H203.542V209.344C203.542 158.023 203.542 92.6092 203.574 21.5671V21.4274H203.418H82.8487H82.7199V21.5563C82.8112 131.933 82.8649 208.195 82.8649 209.344Z" fill="#263238"/>
<path d="M184.634 61.3824H170.394C169.921 61.3824 169.468 61.2054 169.134 60.8901C168.799 60.5749 168.611 60.1472 168.609 59.7007V41.0713C168.611 40.6249 168.799 40.1972 169.134 39.8819C169.468 39.5667 169.921 39.3897 170.394 39.3897H179.424L186.413 46.1959V59.7007C186.413 60.1467 186.226 60.5745 185.892 60.8898C185.558 61.2052 185.106 61.3824 184.634 61.3824Z" fill="#FF9900"/>
<path d="M179.082 39.3897V45.0354C179.083 45.482 179.267 45.9098 179.592 46.2255C179.918 46.5413 180.358 46.7192 180.819 46.7206H186.413L179.082 39.3897Z" fill="#FF9900"/>
<g opacity="0.2">
<path opacity="0.2" d="M179.492 44.7864C179.494 45.2065 179.64 45.6133 179.906 45.9391C180.171 46.2649 180.54 46.4901 180.951 46.5773L181.129 46.6169C181.824 46.741 186.413 47.5546 186.413 47.4504V45.9621H181.075C181.075 45.9621 179.745 45.9125 179.492 44.7864Z" fill="black"/>
</g>
<g opacity="0.3">
<path opacity="0.3" d="M179.418 38.7491V44.3003C179.419 44.7394 179.594 45.1601 179.905 45.4705C180.215 45.781 180.636 45.956 181.075 45.9573H186.413L179.418 38.7491Z" fill="white"/>
</g>
<path d="M138.98 61.6528C138.98 61.6067 138.971 61.5611 138.953 61.5187C138.935 61.4763 138.909 61.4379 138.876 61.4058C138.843 61.3738 138.804 61.3487 138.761 61.332C138.718 61.3154 138.672 61.3076 138.626 61.309C138.535 61.309 138.447 61.3453 138.383 61.4097C138.319 61.4742 138.282 61.5616 138.282 61.6528C138.282 61.7439 138.319 61.8313 138.383 61.8958C138.447 61.9603 138.535 61.9965 138.626 61.9965C138.672 61.9979 138.718 61.9901 138.761 61.9735C138.804 61.9568 138.843 61.9317 138.876 61.8997C138.909 61.8676 138.935 61.8292 138.953 61.7868C138.971 61.7444 138.98 61.6988 138.98 61.6528ZM138.932 58.1833H138.32L138.422 60.772H138.835L138.932 58.1833Z" fill="#E0E0E0"/>
<path d="M90.6051 33.1295H91.2388C91.6333 33.1295 91.9531 33.4493 91.9531 33.8438V190.08C91.9531 190.474 91.6333 190.794 91.2388 190.794H90.6051C90.2106 190.794 89.8908 190.474 89.8908 190.08V33.8438C89.8908 33.4493 90.2106 33.1295 90.6051 33.1295Z" fill="#E0E0E0"/>
<path d="M90.6051 33.1295H91.2388C91.6333 33.1295 91.9531 33.4493 91.9531 33.8438V113.699C91.9531 114.094 91.6333 114.413 91.2388 114.413H90.6051C90.2106 114.413 89.8908 114.094 89.8908 113.699V33.8438C89.8908 33.4493 90.2106 33.1295 90.6051 33.1295Z" fill="#FF9900"/>
<path d="M103.22 92.4749C103.22 92.5554 121.754 92.6145 144.611 92.6145C167.469 92.6145 186.008 92.5554 186.008 92.4749C186.008 92.3943 167.474 92.3352 144.611 92.3352C121.749 92.3352 103.22 92.3997 103.22 92.4749Z" fill="#263238"/>
<path d="M103.22 98.7424C103.22 98.8176 121.754 98.8821 144.611 98.8821C167.469 98.8821 186.008 98.8176 186.008 98.7424C186.008 98.6672 167.474 98.6028 144.611 98.6028C121.749 98.6028 103.22 98.6619 103.22 98.7424Z" fill="#263238"/>
<path d="M103.22 105.004C103.22 105.085 121.754 105.144 144.611 105.144C167.469 105.144 186.008 105.085 186.008 105.004C186.008 104.924 167.474 104.865 144.611 104.865C121.749 104.865 103.22 104.929 103.22 105.004Z" fill="#263238"/>
<path d="M103.22 111.272C103.22 111.347 121.754 111.412 144.611 111.412C167.469 111.412 186.008 111.347 186.008 111.272C186.008 111.197 167.474 111.132 144.611 111.132C121.749 111.132 103.22 111.191 103.22 111.272Z" fill="#263238"/>
<path d="M103.22 117.534C103.22 117.614 121.754 117.674 144.611 117.674C167.469 117.674 186.008 117.614 186.008 117.534C186.008 117.453 167.474 117.394 144.611 117.394C121.749 117.394 103.22 117.459 103.22 117.534Z" fill="#263238"/>
<path d="M103.22 123.801C103.22 123.877 121.754 123.941 144.611 123.941C167.469 123.941 186.008 123.877 186.008 123.801C186.008 123.726 167.474 123.662 144.611 123.662C121.749 123.662 103.22 123.721 103.22 123.801Z" fill="#263238"/>
<path d="M103.22 147.583C103.22 147.658 121.754 147.722 144.611 147.722C167.469 147.722 186.008 147.658 186.008 147.583C186.008 147.507 167.474 147.443 144.611 147.443C121.749 147.443 103.22 147.518 103.22 147.583Z" fill="#263238"/>
<path d="M103.22 152.953C103.22 153.034 121.754 153.093 144.611 153.093C167.469 153.093 186.008 153.034 186.008 152.953C186.008 152.873 167.474 152.813 144.611 152.813C121.749 152.813 103.22 152.878 103.22 152.953Z" fill="#E0E0E0"/>
<path d="M103.22 158.324C103.22 158.399 121.754 158.463 144.611 158.463C167.469 158.463 186.008 158.399 186.008 158.324C186.008 158.248 167.474 158.184 144.611 158.184C121.749 158.184 103.22 158.238 103.22 158.324Z" fill="#EBEBEB"/>
<path d="M97.177 174.344H140.969V190.66H97.177V174.344Z" fill="#6B006D"/>
<path d="M188.052 190.789C188.052 190.789 188.09 190.789 188.159 190.719L188.471 190.477L189.776 189.473L189.824 189.436L189.765 189.409C184.48 187.384 167.246 180.918 146.006 173.002L145.93 172.975L145.871 173.023L144.174 174.387L144.121 174.43V190.95H144.26L175.571 190.896L184.749 190.859H187.209H187.842C187.912 190.862 187.982 190.862 188.052 190.859H187.832H187.193H184.717L175.528 190.821L144.26 190.767L144.394 190.902C144.394 187.115 144.394 183.152 144.394 179.086V174.586L144.341 174.693L146.038 173.324H145.904C167.15 181.229 184.411 187.62 189.733 189.543V189.484L188.465 190.531L188.154 190.789H188.052Z" fill="#6B006D"/>
<path d="M145.962 173.109H189.754V189.425H145.962V173.109Z" fill="white"/>
<path d="M145.957 189.425C145.957 189.425 145.957 189.323 145.957 189.129C145.957 188.936 145.957 188.651 145.957 188.286C145.957 187.54 145.957 186.45 145.957 185.064C145.957 182.255 145.989 178.19 146.01 173.125L145.914 173.222L189.706 173.265L189.566 173.125C189.566 178.818 189.566 184.328 189.566 189.441L189.7 189.307L158.352 189.371L149.222 189.409H146.768H146.129H145.908H146.113H146.736H149.158L158.261 189.446L189.706 189.511H189.84V189.376C189.84 184.264 189.84 178.753 189.84 173.061V172.921H189.695L145.903 172.964H145.806V173.061C145.806 178.147 145.849 182.234 145.86 185.059C145.86 186.45 145.86 187.529 145.86 188.281C145.86 188.635 145.86 188.909 145.86 189.108C145.86 189.307 145.957 189.425 145.957 189.425Z" fill="#6B006D"/>
<path d="M144.262 190.789C144.316 190.848 144.74 190.526 145.207 190.075C145.675 189.623 146.013 189.215 145.959 189.156C145.906 189.097 145.481 189.425 145.014 189.876C144.547 190.327 144.208 190.735 144.262 190.789Z" fill="#6B006D"/>
<path d="M81.7026 186.712L75.4512 183.705L78.8884 173.544L86.4395 171.798C87.143 171.637 87.9271 171.449 88.7971 171.208C89.8203 170.922 90.788 170.467 91.6597 169.86C92.7702 169.154 93.7785 168.299 94.6565 167.319C95.3708 166.347 96.8853 166.712 96.8853 167.792C96.8853 168.871 94.9787 171.594 91.5898 173.522C88.201 175.45 94.1946 176.379 96.3643 176.745C98.534 177.11 105.204 178.608 105.602 179.365C106.182 180.472 105.065 181.32 102.916 180.896C100.768 180.472 94.1677 179.634 93.9959 180.783V180.816C94.5257 181.644 94.7831 182.618 94.7321 183.6C94.681 184.582 94.3241 185.524 93.7112 186.294C92.4975 187.813 90.6769 189.72 89.3396 189.43C86.8261 188.898 81.7026 186.712 81.7026 186.712Z" fill="#FFAD9D"/>
<path d="M82.0781 168.834L76.2188 188.646L30.7246 174.822C28.4023 174.112 26.2448 172.947 24.3784 171.394C22.512 169.84 20.9742 167.93 19.855 165.775C18.7358 163.62 18.0576 161.264 17.8602 158.843C17.6628 156.423 17.95 153.988 18.7052 151.68L29.8599 116.97L54.0866 122.985L40.789 155.101L82.0781 168.834Z" fill="#6B006D"/>
<path d="M29.7017 174.473L29.9219 174.554L30.5771 174.763L33.1228 175.553L42.6556 178.474L75.7706 188.523L75.8942 188.555L75.9371 188.437C77.9618 182.379 79.9275 175.719 82.1992 168.877L82.2422 168.748L82.1079 168.7L80.964 168.324L40.8135 154.989L40.8779 155.134C44.1003 147.346 46.7104 140.966 48.5364 136.519C49.4386 134.306 50.1476 132.577 50.6309 131.39C50.8618 130.805 51.0444 130.354 51.168 130.042C51.2915 129.731 51.3398 129.58 51.3398 129.58C51.3398 129.58 51.2646 129.731 51.1357 130.031L50.5665 131.363C50.0724 132.545 49.3473 134.269 48.4182 136.471C46.5708 140.907 43.9177 147.276 40.6738 155.053L40.6309 155.16L40.7437 155.198L80.8942 168.587L82.0381 168.968L81.9522 168.791C79.6751 175.638 77.7202 182.298 75.7008 188.351L75.8619 188.265L42.72 178.318L33.1496 175.467L30.5933 174.72L29.9273 174.532L29.7017 174.473Z" fill="#263238"/>
<path d="M32.3782 160.875C32.4212 160.875 32.7219 160.375 33.3288 159.618C34.9222 157.639 37.089 156.202 39.5318 155.504C40.4663 155.235 41.0678 155.16 41.0625 155.112C40.9204 155.086 40.7749 155.086 40.6328 155.112C40.2455 155.148 39.8613 155.213 39.4835 155.305C38.229 155.609 37.0369 156.129 35.9604 156.841C34.8832 157.553 33.9397 158.45 33.1731 159.489C32.9408 159.802 32.7325 160.132 32.5501 160.477C32.4691 160.598 32.4109 160.733 32.3782 160.875Z" fill="#263238"/>
<path d="M43.4084 124.671C43.5495 123.699 43.5963 122.715 43.548 121.734C43.5963 120.752 43.5495 119.768 43.4084 118.796C43.2222 120.75 43.2222 122.717 43.4084 124.671Z" fill="#FF9900"/>
<path d="M34.2726 125.139C34.6907 124.234 35.0215 123.292 35.2608 122.324C35.5913 121.384 35.8323 120.415 35.9805 119.43C35.2334 121.275 34.6616 123.186 34.2726 125.139Z" fill="#FF9900"/>
<path d="M39.9385 133.383C41.8195 133.368 43.659 132.829 45.25 131.825C45.2124 131.75 44.09 132.282 42.6238 132.706C41.1576 133.13 39.9331 133.302 39.9385 133.383Z" fill="#FF9900"/>
<path d="M29.6055 137.915C29.5842 136.972 29.4691 136.033 29.2617 135.112C29.1469 134.174 28.94 133.249 28.6441 132.351C28.6684 133.297 28.7835 134.237 28.9878 135.16C29.1014 136.097 29.3083 137.02 29.6055 137.915Z" fill="#FF9900"/>
<path d="M33.2995 145.316C34.2736 143.641 35.0813 141.875 35.7109 140.042C34.74 141.719 33.9325 143.485 33.2995 145.316Z" fill="#FF9900"/>
<path d="M34.812 151.793C35.6966 151.523 36.5513 151.163 37.363 150.719C38.2142 150.36 39.0259 149.913 39.7852 149.387C38.9045 149.664 38.0522 150.023 37.2395 150.461C36.3871 150.821 35.5737 151.268 34.812 151.793Z" fill="#FF9900"/>
<path d="M23.1892 150.069C23.4789 150.911 23.8215 151.735 24.2149 152.534C24.5218 153.368 24.8806 154.183 25.2891 154.972C24.9066 153.219 24.194 151.555 23.1892 150.069Z" fill="#FF9900"/>
<path d="M26.4234 165.671C26.8113 163.684 27.0109 161.664 27.0195 159.64C26.786 160.625 26.6404 161.63 26.5845 162.642C26.4387 163.644 26.3848 164.658 26.4234 165.671Z" fill="#FF9900"/>
<path d="M34.6303 170.595C35.4053 170.08 36.1251 169.486 36.7785 168.823C37.4908 168.231 38.142 167.569 38.7227 166.847C37.9477 167.362 37.2278 167.956 36.5744 168.619C35.8622 169.211 35.2109 169.873 34.6303 170.595Z" fill="#FF9900"/>
<path d="M48.8079 172.008C49.8236 173.713 50.9998 175.317 52.3203 176.798C51.8539 175.922 51.3035 175.093 50.6769 174.322C50.1278 173.494 49.502 172.719 48.8079 172.008Z" fill="#FF9900"/>
<path d="M44.3153 165.364C45.1305 164.838 45.8635 164.193 46.4904 163.452C47.1843 162.775 47.771 161.997 48.2305 161.143C48.166 161.095 47.3658 162.104 46.2863 163.265C45.2068 164.425 44.267 165.305 44.3153 165.364Z" fill="#FF9900"/>
<path d="M55.0063 166.874C55.687 167.148 56.4277 167.239 57.1545 167.137C57.8862 167.128 58.6035 166.932 59.2383 166.568C59.2061 166.487 58.2984 166.777 57.1384 166.858C55.9783 166.938 55.0063 166.793 55.0063 166.874Z" fill="#FF9900"/>
<path d="M61.7775 178.625C62.0457 177.878 62.2259 177.103 62.3146 176.315C62.4962 175.543 62.5845 174.751 62.5778 173.957C62.1292 175.476 61.8606 177.043 61.7775 178.625Z" fill="#FF9900"/>
<path d="M69.7705 182.674C71.6233 181.727 73.3867 180.614 75.0391 179.349C74.0909 179.783 73.1833 180.301 72.3269 180.896C71.4244 181.413 70.569 182.007 69.7705 182.674Z" fill="#FF9900"/>
<path d="M66.9187 168.377C66.8597 168.431 67.6384 169.355 68.5031 170.558C69.3677 171.761 70.0122 172.787 70.082 172.749C69.7578 171.898 69.303 171.103 68.734 170.391C68.2393 169.628 67.6266 168.948 66.9187 168.377Z" fill="#FF9900"/>
<path d="M73.0926 171.09C73.6478 170.967 74.1793 170.755 74.6661 170.461C75.1916 170.25 75.6781 169.952 76.1055 169.58C75.0242 169.912 74.006 170.422 73.0926 171.09Z" fill="#FF9900"/>
<g opacity="0.2">
<path opacity="0.2" d="M41.1719 154.279C38.7444 154.526 36.3115 154.779 33.8894 155.085C33.0447 155.147 32.2129 155.327 31.4189 155.622C31.0242 155.776 30.6647 156.008 30.362 156.304C30.0593 156.6 29.8196 156.955 29.6573 157.346C29.5058 157.743 29.4895 158.178 29.6109 158.585C29.7323 158.992 29.9846 159.347 30.3287 159.596C30.6726 159.772 31.0564 159.856 31.4424 159.839C31.8285 159.822 32.2034 159.705 32.5306 159.5C33.1809 159.086 33.7889 158.609 34.3459 158.076C35.4382 157.173 36.7079 156.509 38.0731 156.127C38.695 156.009 39.2959 155.799 39.8561 155.504C40.1359 155.348 40.3605 155.11 40.499 154.821C40.6375 154.533 40.6831 154.208 40.6295 153.893" fill="black"/>
</g>
<path d="M114.109 52.6125C114.358 53.164 114.438 53.6015 114.349 53.925C114.319 54.0367 114.262 54.1449 114.178 54.2497C114.098 54.3523 113.986 54.44 113.843 54.5129C113.635 54.62 113.398 54.7089 113.132 54.7795C112.845 54.857 112.56 54.9117 112.277 54.9436C111.997 54.98 111.68 55.0005 111.327 55.0051C111.008 55.0051 110.68 54.9857 110.343 54.947C110.069 54.9174 109.821 54.857 109.598 54.7658C109.381 54.6747 109.198 54.5608 109.047 54.424C108.772 54.1734 108.614 53.8521 108.576 53.4602C108.56 53.2665 108.57 53.0614 108.606 52.8449C108.643 52.6353 108.714 52.4006 108.818 52.1408L109.604 52.4519C109.527 52.6387 109.472 52.8085 109.44 52.9612C109.411 53.1093 109.402 53.2483 109.413 53.3781C109.42 53.4693 109.44 53.549 109.475 53.6174C109.502 53.6835 109.548 53.7461 109.611 53.8054C109.689 53.876 109.803 53.941 109.953 54.0002C110.108 54.0526 110.273 54.0902 110.449 54.113C110.563 54.1267 110.677 54.1347 110.791 54.1369C110.891 54.1415 111.038 54.146 111.231 54.1506C111.334 54.1506 111.488 54.1483 111.693 54.1438C111.85 54.1369 111.988 54.1267 112.106 54.113C112.476 54.0743 112.781 54.0196 113.022 53.9489C113.269 53.876 113.455 53.7826 113.583 53.6687C113.588 53.6254 113.574 53.5536 113.542 53.4533C113.519 53.3668 113.458 53.2107 113.357 52.9851C113.319 52.903 113.282 52.8267 113.248 52.7561C113.221 52.7014 113.187 52.6376 113.146 52.5647C113.086 52.4598 113.052 52.4006 113.043 52.3869L113.75 51.9392L113.754 51.946C113.758 51.9506 113.763 51.9585 113.768 51.9699C113.774 51.9791 113.781 51.9882 113.788 51.9973C113.797 52.011 113.826 52.0588 113.874 52.1408C113.899 52.1841 113.936 52.2548 113.986 52.3528C114.032 52.4439 114.073 52.5305 114.109 52.6125ZM112.506 51.6418L111.905 52.24L111.296 51.6316L111.895 51.03L112.506 51.6418ZM111.296 51.6316L110.695 52.2297L110.086 51.6247L110.685 51.0197L111.296 51.6316ZM115.853 50.0354L115.88 50.1584C115.894 50.2085 115.91 50.3111 115.928 50.466C115.944 50.6347 115.956 50.8192 115.965 51.0197C115.977 51.275 115.982 51.5598 115.982 51.8742C115.98 52.1591 115.971 52.5669 115.955 53.0979C115.93 53.6766 115.9 54.2247 115.866 54.7419L115.029 54.8684C115.042 54.677 115.066 54.252 115.101 53.5935C115.121 53.0375 115.132 52.6945 115.135 52.5647C115.139 52.1591 115.142 51.8947 115.142 51.7717C115.137 51.5051 115.132 51.3126 115.128 51.1941C115.121 50.9935 115.112 50.8466 115.101 50.7531C115.094 50.6438 115.085 50.5481 115.073 50.466C115.064 50.3908 115.057 50.3362 115.053 50.302L115.042 50.2541V50.2575L115.853 50.0354ZM118.901 53.4294C119.008 53.7074 119.07 53.9649 119.086 54.2019C119.106 54.4411 119.083 54.6644 119.014 54.8718C118.966 55.0222 118.895 55.1783 118.799 55.3401C118.705 55.495 118.594 55.6454 118.464 55.7912C118.263 56.0191 118.023 56.2321 117.743 56.4304C117.503 56.6036 117.32 56.7255 117.192 56.7961C117.156 56.8166 117.118 56.8371 117.08 56.8576C117.043 56.8781 117.017 56.893 117.001 56.9021C116.987 56.9112 116.979 56.9157 116.977 56.9157L116.581 56.2116L116.591 56.2048C116.6 56.2002 116.614 56.1923 116.632 56.1809C116.65 56.1718 116.668 56.1626 116.687 56.1535C116.773 56.108 116.857 56.0578 116.939 56.0031C117.024 55.9553 117.139 55.8755 117.285 55.7639C117.405 55.675 117.528 55.5702 117.654 55.4494C117.781 55.3218 117.892 55.1919 117.985 55.0598C118.09 54.9117 118.168 54.7601 118.218 54.6052C118.288 54.3933 118.257 54.1062 118.122 53.7439C118.09 53.6573 118.061 53.5878 118.033 53.5354C118.024 53.5171 118.015 53.4989 118.006 53.4807C117.997 53.4602 117.986 53.4397 117.975 53.4192C117.964 53.3964 117.956 53.3804 117.951 53.3713C117.944 53.3576 117.933 53.3383 117.917 53.3132C117.903 53.2881 117.894 53.271 117.89 53.2619L117.859 53.2209L118.563 52.7561L118.566 52.7629C118.571 52.7675 118.576 52.7754 118.58 52.7868C118.587 52.7959 118.594 52.8051 118.601 52.8142C118.626 52.8552 118.652 52.9019 118.679 52.9543C118.722 53.0363 118.758 53.107 118.785 53.1662C118.819 53.2323 118.858 53.32 118.901 53.4294ZM121.725 52.8381C121.741 52.8723 121.778 52.9566 121.837 53.091C121.899 53.2232 121.943 53.3178 121.971 53.3747C122.037 53.5251 122.105 53.647 122.176 53.7404C122.246 53.8339 122.326 53.9045 122.415 53.9524C122.508 53.9957 122.624 54.0173 122.76 54.0173V54.8752C122.646 54.8752 122.547 54.8661 122.463 54.8479C122.388 54.8274 122.324 54.8046 122.271 54.7795C122.215 54.7522 122.17 54.7191 122.138 54.6804C122.111 54.9584 122.038 55.217 121.919 55.4563C121.801 55.6932 121.646 55.912 121.455 56.1125C121.259 56.3085 121.034 56.4771 120.781 56.6184C120.526 56.7642 120.243 56.877 119.934 56.9568L119.67 56.198C120.092 56.0726 120.425 55.9052 120.668 55.6955C120.908 55.4904 121.073 55.2535 121.164 54.9846C121.251 54.7134 121.269 54.4275 121.219 54.1267C121.166 53.8122 121.062 53.5001 120.904 53.1902C120.904 53.1879 120.903 53.1867 120.901 53.1867L121.721 52.8347L121.725 52.8381ZM126.513 54.8718C126.192 54.8718 125.921 54.8672 125.7 54.8581C125.447 54.8467 125.203 54.816 124.968 54.7658C124.92 54.7544 124.849 54.7351 124.753 54.7077C124.696 54.6918 124.628 54.669 124.548 54.6394C124.302 54.726 124.024 54.7886 123.714 54.8274C123.415 54.8638 123.087 54.8786 122.729 54.8718H122.702C122.638 54.8718 122.584 54.8604 122.538 54.8376C122.486 54.8148 122.44 54.7841 122.401 54.7453C122.365 54.7089 122.334 54.6633 122.309 54.6086C122.286 54.5608 122.275 54.5049 122.275 54.4411C122.275 54.3796 122.286 54.3249 122.309 54.2771C122.336 54.2201 122.367 54.1757 122.401 54.1438C122.436 54.1073 122.481 54.0765 122.538 54.0515C122.584 54.0287 122.638 54.0173 122.702 54.0173H122.729C122.953 54.0173 123.117 54.0162 123.222 54.0139C123.377 54.0116 123.514 54.0014 123.635 53.9831C123.603 53.9376 123.579 53.9045 123.563 53.884C123.548 53.8635 123.524 53.8282 123.492 53.778C123.442 53.6846 123.404 53.5901 123.379 53.4944C123.349 53.4009 123.329 53.2881 123.317 53.156C123.306 53.0056 123.313 52.8654 123.338 52.7356C123.363 52.608 123.406 52.4849 123.468 52.3664C123.57 52.1819 123.713 52.036 123.895 51.9289C124.077 51.8173 124.301 51.7546 124.565 51.7409C124.658 51.7364 124.751 51.7444 124.842 51.7649C124.938 51.7876 125.037 51.8218 125.139 51.8674C125.26 51.9198 125.365 51.9859 125.454 52.0656C125.547 52.1431 125.627 52.2297 125.693 52.3254C125.757 52.4143 125.806 52.5134 125.84 52.6228C125.874 52.7299 125.895 52.8404 125.901 52.9543C125.913 53.1981 125.858 53.4533 125.737 53.7199C125.705 53.7792 125.683 53.8179 125.669 53.8362C125.628 53.8931 125.585 53.9467 125.539 53.9968C125.689 54.0127 125.847 54.0207 126.011 54.0207C126.116 54.0184 126.283 54.0173 126.513 54.0173V54.8718ZM124.968 53.3713C125.08 53.1298 125.091 52.9418 125.002 52.8073C124.984 52.7754 124.953 52.7401 124.91 52.7014C124.862 52.6695 124.824 52.6467 124.794 52.633C124.757 52.6171 124.721 52.6034 124.685 52.592C124.653 52.5852 124.629 52.5818 124.613 52.5818C124.538 52.584 124.474 52.5943 124.421 52.6125C124.374 52.6262 124.334 52.6433 124.302 52.6638C124.274 52.682 124.253 52.7014 124.237 52.7219C124.232 52.7287 124.227 52.7378 124.22 52.7492C124.213 52.7606 124.208 52.7675 124.206 52.7697C124.181 52.8199 124.165 52.8723 124.158 52.927C124.151 52.9817 124.15 53.0386 124.155 53.0979C124.157 53.1503 124.166 53.2027 124.182 53.2551C124.196 53.3052 124.209 53.3417 124.223 53.3645C124.257 53.426 124.306 53.4921 124.37 53.5627C124.448 53.6311 124.514 53.6823 124.568 53.7165C124.648 53.6709 124.705 53.6356 124.739 53.6106C124.803 53.5604 124.844 53.5263 124.862 53.508C124.89 53.483 124.915 53.4556 124.938 53.426C124.956 53.3987 124.966 53.3804 124.968 53.3713ZM125.761 50.4319L125.16 51.03L124.551 50.4216L125.149 49.82L125.761 50.4319ZM124.551 50.4216L123.95 51.0197L123.341 50.4148L123.939 49.8098L124.551 50.4216ZM128.807 52.2024C129.076 52.2024 129.319 52.2878 129.538 52.4587C129.638 52.5362 129.725 52.6239 129.798 52.7219C129.862 52.813 129.911 52.8973 129.945 52.9748C129.997 53.1024 130.031 53.2209 130.047 53.3303C130.066 53.4488 130.071 53.5525 130.064 53.6413C130.06 53.7393 130.046 53.827 130.023 53.9045C130.003 53.9865 129.979 54.0572 129.952 54.1164C129.906 54.2212 129.855 54.309 129.798 54.3796C129.741 54.4616 129.679 54.5289 129.613 54.5813C129.563 54.6314 129.498 54.6815 129.418 54.7317C129.352 54.7704 129.29 54.8 129.23 54.8205C129.169 54.841 129.11 54.857 129.053 54.8684C128.991 54.882 128.923 54.8889 128.848 54.8889C128.715 54.8889 128.567 54.8627 128.403 54.8103C128.242 54.7579 128.065 54.6622 127.874 54.5232C127.826 54.489 127.795 54.4662 127.781 54.4548C127.738 54.4206 127.709 54.3978 127.696 54.3864C127.602 54.4799 127.503 54.5608 127.398 54.6291C127.31 54.6884 127.212 54.7385 127.104 54.7795C127.009 54.816 126.914 54.841 126.821 54.8547C126.727 54.8684 126.642 54.8752 126.564 54.8752H126.448C126.384 54.8752 126.33 54.8638 126.284 54.841C126.229 54.8182 126.184 54.7863 126.147 54.7453C126.109 54.7066 126.078 54.661 126.055 54.6086C126.032 54.563 126.021 54.5084 126.021 54.4445C126.021 54.383 126.032 54.3283 126.055 54.2805C126.08 54.2258 126.111 54.1802 126.147 54.1438C126.186 54.105 126.232 54.0743 126.284 54.0515C126.33 54.0287 126.384 54.0173 126.448 54.0173H126.564C126.61 54.0173 126.66 54.0139 126.715 54.007C126.77 53.9979 126.83 53.9774 126.896 53.9455C126.962 53.9136 127.027 53.8658 127.091 53.802C127.159 53.7359 127.229 53.6482 127.299 53.5388L127.32 53.5046C127.468 53.2631 127.576 53.091 127.645 52.9885C127.731 52.8541 127.815 52.7378 127.897 52.6399C127.998 52.5214 128.1 52.4302 128.205 52.3664C128.317 52.2958 128.439 52.2491 128.571 52.2263C128.644 52.2103 128.722 52.2024 128.807 52.2024ZM128.844 54.0515C128.933 54.0515 129.007 54.0253 129.066 53.9729C129.121 53.9227 129.161 53.8567 129.186 53.7746C129.209 53.6926 129.216 53.6083 129.207 53.5217C129.195 53.4306 129.171 53.3485 129.135 53.2756C129.091 53.1981 129.037 53.1389 128.971 53.0979C128.905 53.0523 128.824 53.0363 128.728 53.05C128.698 53.0569 128.668 53.0705 128.636 53.091C128.604 53.1115 128.57 53.1457 128.533 53.1936C128.497 53.2369 128.449 53.3007 128.39 53.385C128.328 53.4761 128.261 53.5809 128.188 53.6994C128.215 53.7268 128.267 53.7701 128.342 53.8293C128.406 53.8772 128.463 53.9136 128.513 53.9387C128.565 53.9729 128.622 54.0002 128.684 54.0207C128.738 54.0412 128.792 54.0515 128.844 54.0515ZM135.058 52.7219C135.115 52.8358 135.164 52.96 135.205 53.0945C135.244 53.2448 135.272 53.3736 135.291 53.4807C135.309 53.5923 135.324 53.7177 135.335 53.8567C135.342 53.9797 135.345 54.0925 135.345 54.195C135.345 54.6462 135.234 55.0552 135.01 55.4221C134.789 55.7844 134.459 56.0966 134.019 56.3586C133.871 56.4475 133.726 56.5227 133.585 56.5842C133.462 56.6389 133.342 56.6879 133.226 56.7312C133.16 56.7562 133.079 56.7824 132.983 56.8098C132.922 56.8235 132.888 56.8303 132.881 56.8303L132.611 56.0271V56.0305L132.7 56.0066C132.732 55.9997 132.808 55.9781 132.929 55.9416C133.077 55.8892 133.184 55.8482 133.25 55.8186C133.364 55.7707 133.486 55.7092 133.616 55.634C133.955 55.4266 134.199 55.1771 134.347 54.8855H134.282C133.988 54.8809 133.747 54.8547 133.558 54.8069C133.357 54.759 133.187 54.6872 133.048 54.5915C132.973 54.5391 132.897 54.4708 132.819 54.3864C132.742 54.3067 132.676 54.2098 132.621 54.0959C132.569 53.9797 132.532 53.8521 132.512 53.7131C132.491 53.5627 132.499 53.3975 132.536 53.2175C132.565 53.0557 132.617 52.9008 132.689 52.7527C132.762 52.6045 132.849 52.4769 132.949 52.3698C133.209 52.085 133.521 51.9426 133.886 51.9426C134.139 51.9426 134.365 52.0087 134.566 52.1408C134.769 52.2753 134.933 52.469 135.058 52.7219ZM134.292 54.0207H134.405C134.453 54.0207 134.487 54.0196 134.508 54.0173C134.506 53.8236 134.486 53.6493 134.45 53.4944C134.416 53.3394 134.37 53.205 134.313 53.091C134.286 53.0341 134.25 52.9771 134.207 52.9201C134.161 52.8746 134.123 52.8427 134.091 52.8244C134.059 52.8016 134.022 52.7868 133.981 52.78C133.947 52.7732 133.915 52.7697 133.886 52.7697C133.815 52.7697 133.75 52.7857 133.691 52.8176C133.629 52.8495 133.578 52.8928 133.537 52.9475C133.501 52.9862 133.462 53.0466 133.421 53.1286C133.389 53.2061 133.367 53.2767 133.356 53.3405C133.34 53.4157 133.333 53.4807 133.335 53.5354C133.34 53.5992 133.35 53.6482 133.366 53.6823C133.38 53.7256 133.403 53.761 133.435 53.7883C133.455 53.8156 133.488 53.8453 133.534 53.8772C133.543 53.8863 133.564 53.8977 133.599 53.9113C133.617 53.9227 133.661 53.9387 133.732 53.9592C133.789 53.9774 133.864 53.9911 133.958 54.0002C134.051 54.0116 134.163 54.0184 134.292 54.0207ZM139.713 56.6184C139.609 56.6184 139.468 56.6093 139.293 56.591C139.127 56.5705 138.959 56.5318 138.791 56.4748C138.383 56.3335 138.069 56.1011 137.851 55.7776C137.639 55.454 137.543 55.0609 137.563 54.5984C137.573 54.3682 137.615 54.1073 137.69 53.8156C137.763 53.5331 137.869 53.2346 138.008 52.9201L138.777 53.2551C138.572 53.7222 138.45 54.1347 138.411 54.4924C138.375 54.8388 138.421 55.1133 138.551 55.3161C138.62 55.4187 138.706 55.5007 138.811 55.5622C138.92 55.626 139.029 55.6727 139.136 55.7024C139.254 55.7343 139.362 55.7548 139.46 55.7639C139.552 55.773 139.636 55.7776 139.713 55.7776C140.376 55.7776 140.814 55.6215 141.026 55.3093C141.206 55.0473 141.248 54.6519 141.152 54.1233C141.123 53.9478 141.079 53.7712 141.022 53.5935C140.981 53.4522 140.929 53.2984 140.865 53.132C140.824 53.0318 140.799 52.9657 140.79 52.9338C140.783 52.9201 140.778 52.9065 140.773 52.8928C140.768 52.8791 140.765 52.8689 140.763 52.862L140.759 52.8518L141.552 52.5715L141.645 52.8176C141.674 52.8882 141.715 52.9748 141.768 53.0774C141.827 53.189 141.887 53.287 141.949 53.3713C142.097 53.5901 142.255 53.7541 142.424 53.8635C142.595 53.966 142.77 54.0173 142.95 54.0173V54.8752C142.791 54.8752 142.633 54.8547 142.479 54.8137C142.333 54.7727 142.186 54.7089 142.038 54.6223C142.038 55.0871 141.932 55.4745 141.72 55.7844C141.341 56.3404 140.673 56.6184 139.713 56.6184ZM140.383 53.0534L139.782 53.655L139.173 53.0466L139.775 52.445L140.383 53.0534ZM145.36 56.1399L144.758 56.738L144.15 56.1296L144.748 55.528L145.36 56.1399ZM144.15 56.1296L143.548 56.7278L142.94 56.1228L143.538 55.5178L144.15 56.1296ZM142.438 54.4445C142.438 54.383 142.449 54.3283 142.472 54.2805C142.497 54.2258 142.528 54.1802 142.564 54.1438C142.598 54.1096 142.643 54.0788 142.697 54.0515C142.75 54.0287 142.806 54.0173 142.865 54.0173H142.882C143.107 54.0173 143.308 54.0116 143.483 54.0002C143.65 53.9865 143.775 53.9615 143.859 53.925C143.951 53.8886 144.014 53.8384 144.051 53.7746C144.087 53.7063 144.104 53.6197 144.102 53.5149C144.102 53.4328 144.103 53.369 144.105 53.3235V53.1115V52.9065C144.105 52.886 144.104 52.8563 144.102 52.8176C144.102 52.7766 144.101 52.747 144.099 52.7287V52.6023V52.5544L144.957 52.5168V53.5149C144.957 53.6425 144.976 53.7416 145.015 53.8122C145.058 53.8829 145.113 53.9319 145.179 53.9592C145.236 53.9888 145.315 54.007 145.418 54.0139C145.448 54.0139 145.493 54.015 145.555 54.0173C145.618 54.0173 145.667 54.0173 145.702 54.0173H145.722C145.781 54.0173 145.837 54.0287 145.89 54.0515C145.944 54.0765 145.991 54.1073 146.03 54.1438C146.071 54.1825 146.104 54.2281 146.129 54.2805C146.154 54.3352 146.167 54.3899 146.167 54.4445C146.167 54.5015 146.154 54.5573 146.129 54.612C146.106 54.6644 146.073 54.7112 146.03 54.7522C145.986 54.7909 145.94 54.8205 145.89 54.841C145.837 54.8638 145.781 54.8752 145.722 54.8752C145.649 54.8729 145.538 54.8695 145.387 54.865C145.282 54.8627 145.172 54.8501 145.056 54.8274C144.942 54.8046 144.844 54.7727 144.762 54.7317C144.671 54.6884 144.592 54.6257 144.526 54.5437C144.412 54.6325 144.289 54.6986 144.157 54.7419C144.015 54.7875 143.873 54.8205 143.729 54.841C143.584 54.857 143.436 54.8672 143.285 54.8718C143.185 54.8741 143.045 54.8752 142.865 54.8752V54.8718C142.806 54.8718 142.75 54.8604 142.697 54.8376C142.643 54.8103 142.598 54.7795 142.564 54.7453C142.525 54.7066 142.494 54.661 142.472 54.6086C142.449 54.563 142.438 54.5084 142.438 54.4445ZM145.336 54.6086C145.313 54.563 145.302 54.5084 145.302 54.4445C145.302 54.3807 145.313 54.3261 145.336 54.2805C145.359 54.2281 145.389 54.1825 145.428 54.1438C145.462 54.1096 145.507 54.0788 145.562 54.0515C145.614 54.0287 145.67 54.0173 145.729 54.0173C145.955 54.0173 146.136 54.007 146.272 53.9865C146.405 53.9706 146.508 53.9478 146.583 53.9182C146.659 53.8886 146.708 53.8612 146.73 53.8362C146.758 53.8088 146.776 53.7872 146.785 53.7712C146.792 53.7484 146.797 53.7302 146.799 53.7165C146.803 53.6755 146.803 53.6379 146.799 53.6037C146.799 53.5673 146.791 53.5092 146.775 53.4294C146.761 53.3588 146.737 53.2779 146.703 53.1867C146.687 53.1366 146.659 53.0637 146.618 52.968C146.606 52.9406 146.589 52.9053 146.566 52.862C146.546 52.8165 146.532 52.7857 146.525 52.7697C146.512 52.747 146.495 52.7173 146.474 52.6809C146.454 52.6444 146.441 52.6216 146.437 52.6125C146.43 52.6034 146.421 52.5909 146.409 52.5749C146.4 52.559 146.392 52.5464 146.385 52.5373C146.378 52.5259 146.373 52.5168 146.368 52.51L147.021 51.987C147.064 52.0394 147.106 52.0998 147.147 52.1682C147.179 52.2183 147.223 52.2946 147.277 52.3972C147.325 52.4929 147.365 52.5783 147.397 52.6535C147.431 52.7287 147.465 52.8153 147.5 52.9133C147.597 53.189 147.646 53.4328 147.646 53.6447C147.653 53.8544 147.609 54.0367 147.513 54.1916C147.408 54.3625 147.29 54.4924 147.158 54.5813C147.035 54.6701 146.89 54.7385 146.724 54.7863C146.576 54.8296 146.415 54.8547 146.242 54.8615C146.094 54.8707 145.928 54.8752 145.746 54.8752H145.729C145.67 54.8752 145.614 54.8638 145.562 54.841C145.505 54.8137 145.46 54.7818 145.428 54.7453C145.389 54.7066 145.359 54.661 145.336 54.6086ZM147.438 50.6096L146.836 51.2112L146.228 50.6028L146.83 50.0012L147.438 50.6096ZM149.335 50.0354L149.362 50.1584C149.376 50.2085 149.392 50.3111 149.41 50.466C149.426 50.6347 149.439 50.8192 149.448 51.0197C149.459 51.275 149.465 51.5598 149.465 51.8742C149.463 52.1591 149.453 52.5669 149.438 53.0979C149.412 53.6766 149.383 54.2247 149.349 54.7419L148.511 54.8684C148.525 54.677 148.549 54.252 148.583 53.5935C148.604 53.0375 148.615 52.6945 148.617 52.5647C148.622 52.1591 148.624 51.8947 148.624 51.7717C148.619 51.5051 148.615 51.3126 148.61 51.1941C148.604 50.9935 148.594 50.8466 148.583 50.7531C148.576 50.6438 148.567 50.5481 148.556 50.466C148.547 50.3908 148.54 50.3362 148.535 50.302L148.525 50.2541V50.2575L149.335 50.0354ZM152.257 54.0207C152.26 53.8931 152.254 53.7723 152.24 53.6584C152.229 53.5673 152.211 53.4761 152.186 53.385C152.16 53.3098 152.133 53.2426 152.104 53.1833C152.062 53.1172 152.031 53.0705 152.008 53.0432C151.926 52.9429 151.841 52.8791 151.755 52.8518C151.666 52.8267 151.582 52.8267 151.502 52.8518C151.418 52.8791 151.345 52.927 151.283 52.9953C151.217 53.0614 151.167 53.1412 151.133 53.2346C151.096 53.3212 151.078 53.4146 151.078 53.5149C151.076 53.6174 151.1 53.7108 151.15 53.7951C151.189 53.8635 151.27 53.9159 151.393 53.9524C151.527 53.9934 151.68 54.015 151.851 54.0173C151.885 54.0196 151.946 54.0207 152.035 54.0207H152.257ZM151.581 51.987H151.639C151.664 51.987 151.683 51.9882 151.697 51.9904C151.879 52.0064 152.056 52.0599 152.227 52.1511C152.391 52.24 152.534 52.3596 152.657 52.51C152.826 52.7173 152.95 52.9805 153.03 53.2995C153.057 53.4317 153.075 53.5456 153.084 53.6413C153.096 53.778 153.1 53.9045 153.098 54.0207H153.354V54.8786H152.989C152.893 55.2068 152.736 55.5018 152.517 55.7639C152.296 56.0305 152.017 56.2606 151.68 56.4543C151.534 56.5409 151.39 56.6127 151.249 56.6696C151.121 56.7221 150.998 56.7676 150.88 56.8064C150.789 56.836 150.7 56.8611 150.613 56.8816C150.552 56.8975 150.515 56.9055 150.504 56.9055L150.241 56.1057L150.336 56.0852C150.403 56.0669 150.485 56.043 150.583 56.0134C150.678 55.9838 150.789 55.9439 150.914 55.8938C151.039 55.8414 151.16 55.7821 151.276 55.716C151.657 55.495 151.928 55.217 152.09 54.882H151.95C151.92 54.8798 151.879 54.8786 151.827 54.8786C151.556 54.8718 151.311 54.8319 151.092 54.759C150.951 54.7112 150.821 54.6428 150.702 54.5539C150.593 54.4673 150.502 54.3637 150.429 54.2429C150.363 54.1335 150.315 54.0093 150.285 53.8703C150.258 53.7291 150.249 53.5878 150.258 53.4465C150.269 53.2916 150.297 53.1469 150.34 53.0124C150.379 52.8757 150.44 52.739 150.524 52.6023C150.652 52.3995 150.806 52.2479 150.986 52.1477C151.164 52.0406 151.362 51.987 151.581 51.987ZM154.24 54.0173C154.372 54.0173 154.501 54.0116 154.626 54.0002C154.729 53.9911 154.824 53.9751 154.913 53.9524C155.011 53.925 155.082 53.8977 155.125 53.8703C155.182 53.8453 155.231 53.8122 155.272 53.7712C155.124 53.8008 154.958 53.8156 154.773 53.8156C154.652 53.8156 154.533 53.8054 154.414 53.7849C154.296 53.7644 154.185 53.7256 154.083 53.6687L154.086 53.6721C153.967 53.6106 153.871 53.5422 153.795 53.467C153.716 53.3873 153.651 53.3007 153.601 53.2072C153.557 53.1252 153.522 53.0295 153.495 52.9201C153.472 52.8267 153.46 52.7265 153.46 52.6194C153.46 52.4963 153.478 52.3778 153.512 52.2639C153.541 52.15 153.585 52.0474 153.642 51.9563C153.692 51.8765 153.749 51.8059 153.812 51.7444C153.874 51.6806 153.954 51.6145 154.052 51.5461C154.15 51.4869 154.25 51.4402 154.353 51.406C154.46 51.3695 154.576 51.3513 154.701 51.3513C154.847 51.3513 154.995 51.3798 155.146 51.4367C155.3 51.4937 155.453 51.5871 155.604 51.717C155.717 51.815 155.815 51.9312 155.897 52.0656C155.986 52.2138 156.052 52.3528 156.096 52.4826C156.141 52.608 156.18 52.7538 156.212 52.9201C156.235 53.0842 156.246 53.2221 156.246 53.3337C156.246 53.4568 156.235 53.5832 156.212 53.7131C156.182 53.8316 156.15 53.9262 156.116 53.9968C156.066 54.0925 155.995 54.195 155.904 54.3044C155.818 54.4047 155.699 54.4992 155.549 54.5881C155.396 54.6747 155.216 54.7431 155.009 54.7932C154.795 54.8479 154.538 54.8752 154.24 54.8752H153.296C153.237 54.8752 153.181 54.8638 153.129 54.841C153.072 54.8137 153.028 54.7818 152.996 54.7453C152.957 54.7066 152.926 54.661 152.903 54.6086C152.881 54.563 152.869 54.5084 152.869 54.4445C152.869 54.383 152.881 54.3283 152.903 54.2805C152.928 54.2258 152.959 54.1802 152.996 54.1438C153.03 54.1096 153.074 54.0788 153.129 54.0515C153.181 54.0287 153.237 54.0173 153.296 54.0173H154.24ZM154.773 52.9953C154.878 52.9953 154.987 52.9862 155.101 52.968C155.199 52.952 155.29 52.9327 155.375 52.9099C155.349 52.7982 155.312 52.6923 155.262 52.592C155.207 52.4872 155.143 52.4029 155.07 52.3391C154.997 52.2776 154.931 52.2343 154.872 52.2092C154.808 52.1841 154.751 52.1716 154.701 52.1716C154.617 52.1716 154.544 52.1955 154.482 52.2434C154.421 52.2867 154.373 52.3357 154.339 52.3904C154.3 52.4496 154.281 52.5259 154.281 52.6194C154.281 52.6832 154.294 52.7447 154.322 52.8039C154.349 52.8654 154.397 52.9133 154.465 52.9475C154.502 52.9657 154.546 52.9782 154.599 52.9851C154.653 52.9919 154.711 52.9953 154.773 52.9953ZM156.014 50.4216L155.412 51.0197L154.804 50.4113L155.402 49.8098L156.014 50.4216ZM154.804 50.4113L154.202 51.0095L153.594 50.4045L154.192 49.7995L154.804 50.4113Z" fill="#414141"/>
<path d="M168.848 81.5998V81.051H169.299V81.5998H168.848ZM168.848 83.1252V82.5764H169.299V83.1252H168.848ZM172.043 83.049C172.046 83.0673 172.046 83.0972 172.043 83.1389C172.04 83.1845 172.034 83.2333 172.023 83.2854C172.007 83.383 171.978 83.4703 171.938 83.5471C171.9 83.6265 171.85 83.7014 171.787 83.7717C171.673 83.8954 171.53 83.9885 171.359 84.051C171.188 84.1122 170.987 84.1428 170.758 84.1428C170.677 84.1428 170.594 84.1356 170.508 84.1213C170.431 84.1083 170.353 84.0862 170.273 84.0549C170.186 84.0223 170.107 83.98 170.035 83.9279C169.967 83.8772 169.907 83.8186 169.854 83.7522C169.818 83.7066 169.788 83.6591 169.762 83.6096C169.729 83.5458 169.706 83.482 169.691 83.4182C169.673 83.3505 169.664 83.2704 169.664 83.1779C169.663 83.0946 169.675 82.997 169.701 82.885C169.71 82.8433 169.724 82.7893 169.742 82.7229C169.747 82.7046 169.756 82.6773 169.768 82.6408C169.779 82.6031 169.788 82.5751 169.795 82.5569C169.814 82.4957 169.832 82.4436 169.848 82.4006C169.857 82.3746 169.872 82.3303 169.895 82.2678C169.906 82.2365 169.918 82.2046 169.93 82.1721C169.932 82.1656 169.935 82.1591 169.938 82.1526C169.94 82.146 169.942 82.1408 169.943 82.1369L169.945 82.133L170.393 82.3069L170.379 82.3401C170.378 82.344 170.375 82.3511 170.371 82.3615C170.367 82.372 170.363 82.383 170.359 82.3947C170.355 82.4052 170.352 82.4156 170.348 82.426C170.339 82.4494 170.324 82.4904 170.305 82.549C170.305 82.5503 170.288 82.5992 170.254 82.6955L170.207 82.8479C170.189 82.9091 170.176 82.9579 170.168 82.9944C170.121 83.1897 170.142 83.3433 170.23 83.4553C170.253 83.4839 170.284 83.5132 170.324 83.5432C170.368 83.5718 170.41 83.5927 170.449 83.6057C170.482 83.62 170.531 83.6343 170.596 83.6487C170.657 83.6578 170.711 83.6623 170.758 83.6623C171.073 83.6623 171.297 83.592 171.43 83.4514C171.466 83.411 171.493 83.372 171.51 83.3342C171.528 83.2938 171.541 83.258 171.549 83.2268C171.557 83.1916 171.561 83.163 171.561 83.1408V83.0998L171.562 83.0647V82.8518C171.56 82.7424 171.559 82.6487 171.559 82.5705C171.557 82.5497 171.555 82.4266 171.553 82.2014C171.553 82.1832 171.552 82.1174 171.551 82.0041C171.549 81.8895 171.548 81.7971 171.547 81.7268C171.547 81.6226 171.546 81.4208 171.543 81.1213V80.3694H172.023C172.023 80.7287 172.024 80.9833 172.025 81.133C172.028 81.5067 172.03 81.7092 172.031 81.7404C172.031 81.8746 172.033 82.0315 172.035 82.2112C172.035 82.2528 172.035 82.314 172.035 82.3947C172.036 82.4755 172.038 82.5341 172.039 82.5705C172.039 82.6031 172.039 82.65 172.039 82.7112C172.04 82.7723 172.042 82.8166 172.043 82.844V83.049ZM173.916 81.8947C173.949 81.9598 173.977 82.0308 174 82.1076C174.022 82.1936 174.038 82.2671 174.049 82.3283C174.059 82.3921 174.068 82.4638 174.074 82.5432C174.078 82.6135 174.08 82.6779 174.08 82.7365C174.08 82.9944 174.016 83.2281 173.889 83.4377C173.762 83.6447 173.574 83.8231 173.322 83.9729C173.238 84.0237 173.155 84.0666 173.074 84.1018C173.004 84.133 172.936 84.161 172.869 84.1858C172.831 84.2001 172.785 84.2151 172.73 84.2307C172.695 84.2385 172.676 84.2424 172.672 84.2424L172.518 83.7834V83.7854L172.568 83.7717C172.587 83.7678 172.63 83.7554 172.699 83.7346C172.784 83.7046 172.845 83.6812 172.883 83.6643C172.948 83.6369 173.018 83.6018 173.092 83.5588C173.286 83.4403 173.425 83.2977 173.51 83.1311H173.473C173.305 83.1285 173.167 83.1135 173.059 83.0862C172.944 83.0588 172.847 83.0178 172.768 82.9631C172.725 82.9332 172.681 82.8941 172.637 82.8459C172.592 82.8003 172.555 82.745 172.523 82.6799C172.493 82.6135 172.473 82.5406 172.461 82.4612C172.449 82.3752 172.454 82.2808 172.475 82.1779C172.492 82.0855 172.521 81.997 172.562 81.9123C172.604 81.8277 172.654 81.7548 172.711 81.6936C172.859 81.5308 173.038 81.4494 173.246 81.4494C173.391 81.4494 173.52 81.4872 173.635 81.5627C173.751 81.6395 173.844 81.7502 173.916 81.8947ZM173.479 82.6369H173.543C173.57 82.6369 173.59 82.6363 173.602 82.635C173.6 82.5243 173.589 82.4247 173.568 82.3362C173.549 82.2476 173.523 82.1708 173.49 82.1057C173.475 82.0731 173.454 82.0406 173.43 82.008C173.404 81.982 173.382 81.9638 173.363 81.9533C173.345 81.9403 173.324 81.9319 173.301 81.9279C173.281 81.924 173.263 81.9221 173.246 81.9221C173.206 81.9221 173.169 81.9312 173.135 81.9494C173.1 81.9677 173.07 81.9924 173.047 82.0237C173.026 82.0458 173.004 82.0803 172.98 82.1272C172.962 82.1714 172.95 82.2118 172.943 82.2483C172.934 82.2912 172.93 82.3283 172.932 82.3596C172.934 82.396 172.94 82.424 172.949 82.4436C172.957 82.4683 172.97 82.4885 172.988 82.5041C173 82.5197 173.019 82.5367 173.045 82.5549C173.05 82.5601 173.062 82.5666 173.082 82.5744C173.092 82.5809 173.118 82.5901 173.158 82.6018C173.191 82.6122 173.234 82.62 173.287 82.6252C173.34 82.6317 173.404 82.6356 173.479 82.6369ZM174.891 80.3596L174.906 80.4299C174.914 80.4585 174.923 80.5171 174.934 80.6057C174.943 80.702 174.95 80.8075 174.955 80.9221C174.962 81.0679 174.965 81.2307 174.965 81.4104C174.964 81.5731 174.958 81.8062 174.949 82.1096C174.935 82.4403 174.918 82.7535 174.898 83.049L174.42 83.1213C174.428 83.0119 174.441 82.7691 174.461 82.3928C174.473 82.0751 174.479 81.8791 174.48 81.8049C174.483 81.5731 174.484 81.4221 174.484 81.3518C174.482 81.1994 174.479 81.0894 174.477 81.0217C174.473 80.9071 174.467 80.8231 174.461 80.7697C174.457 80.7072 174.452 80.6526 174.445 80.6057C174.44 80.5627 174.436 80.5315 174.434 80.5119L174.428 80.4846V80.4865L174.891 80.3596ZM178.176 82.3791C178.091 82.3987 178.008 82.4221 177.926 82.4494C177.828 82.4833 177.744 82.5158 177.674 82.5471C177.593 82.5809 177.514 82.6213 177.436 82.6682C177.36 82.7151 177.288 82.7671 177.221 82.8244C177.188 82.8531 177.154 82.8934 177.117 82.9455C177.087 82.995 177.061 83.0484 177.039 83.1057C177.021 83.1617 177.008 83.2229 177.002 83.2893C176.995 83.3518 177.001 83.4143 177.02 83.4768C177.042 83.5536 177.076 83.6187 177.123 83.6721C177.175 83.7307 177.23 83.7763 177.289 83.8088C177.352 83.8466 177.419 83.8765 177.49 83.8987C177.561 83.9221 177.629 83.9397 177.695 83.9514C177.863 83.9826 178.047 83.9794 178.246 83.9416C178.448 83.9065 178.678 83.8348 178.936 83.7268L179.119 84.1701C178.667 84.3576 178.27 84.4514 177.928 84.4514C177.872 84.4514 177.816 84.4494 177.762 84.4455C177.69 84.4377 177.638 84.4306 177.605 84.424C177.315 84.3694 177.079 84.2678 176.898 84.1194C176.812 84.0503 176.741 83.9729 176.684 83.8869C176.625 83.7958 176.583 83.7014 176.559 83.6037C176.53 83.5009 176.518 83.3954 176.523 83.2873C176.527 83.1779 176.547 83.0699 176.582 82.9631C176.617 82.8615 176.661 82.7697 176.715 82.6877C176.77 82.6018 176.833 82.5269 176.904 82.4631C176.981 82.3954 177.072 82.3348 177.178 82.2815C177.282 82.2268 177.39 82.1786 177.502 82.1369C177.614 82.0953 177.725 82.0588 177.836 82.0276C177.962 81.9924 178.065 81.9651 178.145 81.9455C178.098 81.9221 178.039 81.8895 177.969 81.8479C177.961 81.8427 177.934 81.8257 177.887 81.7971C177.84 81.7684 177.803 81.7463 177.777 81.7307C177.634 81.6382 177.499 81.6076 177.373 81.6389C177.318 81.6519 177.266 81.676 177.215 81.7112C177.171 81.7411 177.127 81.7763 177.084 81.8166C177.044 81.8544 177.01 81.8921 176.984 81.9299C176.958 81.9638 176.939 81.9924 176.926 82.0158V82.0139L176.51 81.7795C176.512 81.7717 176.53 81.7437 176.562 81.6955C176.598 81.6434 176.643 81.5868 176.699 81.5256C176.783 81.4358 176.871 81.3609 176.965 81.301C177.061 81.2411 177.158 81.1988 177.254 81.174C177.323 81.1584 177.385 81.15 177.441 81.1487C177.504 81.146 177.566 81.15 177.629 81.1604C177.697 81.1721 177.766 81.191 177.836 81.217C177.9 81.2404 177.966 81.2763 178.035 81.3244C178.211 81.4494 178.361 81.5419 178.486 81.6018C178.605 81.6617 178.715 81.7085 178.818 81.7424C178.908 81.7697 178.977 81.7854 179.023 81.7893C179.07 81.7932 179.094 81.7951 179.096 81.7951L178.947 82.2522C178.945 82.2522 178.918 82.2561 178.867 82.2639C178.811 82.2717 178.738 82.2815 178.648 82.2932L178.176 82.3791ZM180.594 81.9612C180.603 81.9807 180.624 82.0289 180.658 82.1057C180.693 82.1812 180.719 82.2352 180.734 82.2678C180.772 82.3537 180.811 82.4234 180.852 82.4768C180.892 82.5302 180.938 82.5705 180.988 82.5979C181.042 82.6226 181.107 82.635 181.186 82.635V83.1252C181.12 83.1252 181.064 83.12 181.016 83.1096C180.973 83.0979 180.936 83.0848 180.906 83.0705C180.874 83.0549 180.848 83.036 180.83 83.0139C180.814 83.1727 180.773 83.3205 180.705 83.4572C180.637 83.5927 180.549 83.7177 180.439 83.8322C180.327 83.9442 180.199 84.0406 180.055 84.1213C179.909 84.2046 179.747 84.2691 179.57 84.3147L179.42 83.8811C179.661 83.8095 179.851 83.7138 179.99 83.594C180.127 83.4768 180.221 83.3414 180.273 83.1877C180.323 83.0328 180.333 82.8694 180.305 82.6975C180.275 82.5178 180.215 82.3394 180.125 82.1623C180.125 82.161 180.124 82.1604 180.123 82.1604L180.592 81.9592L180.594 81.9612ZM180.947 82.8772C180.947 82.842 180.954 82.8108 180.967 82.7834C180.982 82.7509 181 82.7255 181.02 82.7072C181.039 82.6864 181.065 82.6688 181.098 82.6545C181.124 82.6415 181.155 82.635 181.191 82.635C181.207 82.635 181.23 82.633 181.262 82.6291C181.293 82.6239 181.328 82.6102 181.367 82.5881C181.408 82.566 181.448 82.5308 181.488 82.4826C181.533 82.4306 181.572 82.3622 181.607 82.2776C181.62 82.2502 181.632 82.2196 181.643 82.1858C181.653 82.1506 181.663 82.1168 181.672 82.0842C181.68 82.0543 181.688 82.0145 181.697 81.9651C181.7 81.9533 181.704 81.9312 181.709 81.8987C181.714 81.8661 181.719 81.8401 181.723 81.8205L182.197 81.8752C182.18 82.0354 182.171 82.1447 182.168 82.2033C182.16 82.2893 182.163 82.3713 182.176 82.4494C182.176 82.4533 182.177 82.4618 182.18 82.4748C182.184 82.4865 182.186 82.4963 182.188 82.5041C182.202 82.5406 182.21 82.5614 182.213 82.5666C182.221 82.5835 182.234 82.6018 182.254 82.6213C182.275 82.6356 182.297 82.6428 182.32 82.6428C182.349 82.6441 182.374 82.6421 182.396 82.6369C182.421 82.6304 182.441 82.6194 182.457 82.6037C182.479 82.5842 182.498 82.5601 182.514 82.5315C182.533 82.4976 182.554 82.4553 182.576 82.4045C182.614 82.3186 182.645 82.2287 182.668 82.135C182.676 82.1011 182.686 82.0562 182.699 82.0002C182.712 81.9442 182.721 81.9084 182.725 81.8928L183.205 81.9475C183.193 82.0152 183.186 82.0556 183.184 82.0686C183.182 82.0816 183.178 82.1109 183.17 82.1565L183.16 82.2248L183.154 82.2834C183.153 82.3811 183.159 82.4572 183.172 82.5119C183.189 82.5666 183.205 82.6005 183.221 82.6135C183.229 82.62 183.243 82.6278 183.266 82.6369C183.294 82.6447 183.311 82.6487 183.316 82.6487C183.342 82.6513 183.359 82.6526 183.367 82.6526C183.382 82.6513 183.394 82.6493 183.404 82.6467C183.434 82.635 183.452 82.6265 183.457 82.6213C183.467 82.6187 183.478 82.6115 183.488 82.5998C183.499 82.5894 183.512 82.5751 183.527 82.5569C183.535 82.5451 183.543 82.5308 183.551 82.5139C183.572 82.4553 183.576 82.3895 183.564 82.3166C183.553 82.2437 183.533 82.1721 183.504 82.1018C183.473 82.0276 183.439 81.9592 183.402 81.8967C183.366 81.8316 183.329 81.7737 183.293 81.7229L183.691 81.4514C183.693 81.4527 183.708 81.4768 183.738 81.5237C183.767 81.5705 183.796 81.6187 183.824 81.6682C183.858 81.7294 183.89 81.7919 183.92 81.8557C183.95 81.9195 183.974 81.9846 183.992 82.051C184.003 82.0822 184.012 82.1122 184.02 82.1408C184.033 82.1903 184.04 82.2385 184.043 82.2854C184.049 82.3348 184.051 82.396 184.047 82.469C184.043 82.5367 184.029 82.6044 184.006 82.6721C183.989 82.7216 183.964 82.7704 183.93 82.8186C183.895 82.8707 183.856 82.9156 183.814 82.9533C183.791 82.9755 183.759 83.0002 183.719 83.0276C183.684 83.0497 183.631 83.0738 183.561 83.0998C183.502 83.1207 183.435 83.1311 183.359 83.1311C183.284 83.1311 183.207 83.1194 183.129 83.0959C183.049 83.0725 182.978 83.0347 182.914 82.9826C182.885 82.9579 182.859 82.9319 182.836 82.9045L182.795 82.9475C182.669 83.0712 182.507 83.1298 182.309 83.1233C182.211 83.122 182.12 83.0979 182.035 83.051C181.954 83.0067 181.885 82.941 181.828 82.8537L181.816 82.8381L181.764 82.8889C181.683 82.9644 181.594 83.0217 181.498 83.0608C181.396 83.1024 181.294 83.1233 181.191 83.1233C181.155 83.1233 181.124 83.1168 181.098 83.1037C181.068 83.0907 181.042 83.0731 181.02 83.051C180.999 83.0302 180.981 83.0041 180.967 82.9729C180.954 82.9455 180.947 82.9136 180.947 82.8772ZM183.531 80.8967L183.191 81.2502L182.846 80.9045L183.188 80.5588L183.531 80.8967ZM182.805 80.9065L182.461 81.2483L182.113 80.9006L182.457 80.5569L182.805 80.9065ZM183.139 80.4065L182.836 80.7072L182.531 80.4026L182.832 80.0998L183.139 80.4065Z" fill="black"/>
<path d="M167.73 137.403V136.855H168.182V137.403H167.73ZM167.73 138.929V138.38H168.182V138.929H167.73ZM170.629 137.694C170.676 137.789 170.708 137.882 170.727 137.972C170.743 138.065 170.747 138.156 170.738 138.243C170.73 138.323 170.711 138.398 170.68 138.468C170.645 138.541 170.602 138.603 170.553 138.653C170.479 138.728 170.398 138.779 170.312 138.808C170.26 138.826 170.208 138.834 170.154 138.831C170.104 138.83 170.055 138.819 170.008 138.798C169.931 138.765 169.85 138.73 169.766 138.692C169.742 138.682 169.676 138.651 169.568 138.601C169.519 138.577 169.443 138.543 169.34 138.497C169.277 138.468 169.224 138.449 169.18 138.439C169.174 138.439 169.169 138.439 169.164 138.439C169.16 138.437 169.156 138.437 169.152 138.437C169.15 138.435 169.148 138.435 169.146 138.435H169.135C169.133 138.435 169.132 138.435 169.131 138.437L169.127 138.44C169.126 138.44 169.124 138.442 169.121 138.444C169.117 138.447 169.113 138.451 169.109 138.456C169.107 138.459 169.103 138.465 169.098 138.476C169.092 138.486 169.088 138.5 169.084 138.517C169.079 138.539 169.076 138.561 169.074 138.583C169.072 138.607 169.069 138.648 169.066 138.706V138.872C169.068 138.928 169.07 138.994 169.072 139.069L169.08 139.28L169.084 139.485C169.088 139.649 169.09 139.737 169.09 139.749C169.091 139.78 169.092 139.827 169.094 139.89C169.095 139.954 169.096 140.002 169.098 140.034C169.098 140.067 169.098 140.113 169.098 140.173C169.099 140.234 169.1 140.278 169.1 140.306H168.623C168.623 140.299 168.622 140.262 168.621 140.194C168.62 140.128 168.618 140.076 168.617 140.038C168.617 140.034 168.615 139.94 168.611 139.757C168.611 139.745 168.61 139.707 168.607 139.644C168.606 139.58 168.605 139.532 168.605 139.499C168.604 139.469 168.603 139.43 168.602 139.382C168.6 139.335 168.6 139.307 168.6 139.298C168.598 139.271 168.596 139.232 168.594 139.181C168.592 139.13 168.592 139.093 168.592 139.069C168.59 138.995 168.589 138.925 168.586 138.858C168.586 138.774 168.587 138.713 168.588 138.675C168.59 138.61 168.593 138.562 168.596 138.53C168.6 138.495 168.605 138.458 168.613 138.419C168.625 138.375 168.638 138.335 168.652 138.3C168.667 138.263 168.688 138.224 168.715 138.183C168.742 138.144 168.777 138.107 168.818 138.073C168.929 137.982 169.057 137.943 169.203 137.956C169.245 137.869 169.289 137.785 169.336 137.704C169.385 137.626 169.434 137.562 169.48 137.511C169.531 137.456 169.586 137.411 169.645 137.376C169.702 137.34 169.766 137.315 169.836 137.302C169.94 137.282 170.033 137.281 170.115 137.298C170.202 137.316 170.278 137.344 170.342 137.382C170.41 137.424 170.467 137.472 170.514 137.526C170.559 137.577 170.598 137.633 170.629 137.694ZM170.236 138.273C170.252 138.241 170.262 138.206 170.266 138.167C170.268 138.125 170.266 138.086 170.258 138.05C170.249 138.01 170.234 137.97 170.215 137.933C170.193 137.894 170.169 137.862 170.145 137.839C170.115 137.813 170.082 137.793 170.047 137.78C170.01 137.767 169.971 137.765 169.928 137.774C169.89 137.781 169.85 137.812 169.807 137.866C169.762 137.925 169.714 138.008 169.66 138.116C169.681 138.123 169.699 138.131 169.715 138.14C169.727 138.146 169.745 138.155 169.771 138.165C169.911 138.232 170.045 138.293 170.174 138.349C170.175 138.347 170.185 138.339 170.203 138.323C170.216 138.31 170.227 138.293 170.236 138.273ZM172.6 137.698C172.632 137.763 172.66 137.834 172.684 137.911C172.706 137.997 172.722 138.071 172.732 138.132C172.743 138.196 172.751 138.267 172.758 138.347C172.762 138.417 172.764 138.482 172.764 138.54C172.764 138.798 172.7 139.032 172.572 139.241C172.446 139.448 172.257 139.627 172.006 139.776C171.921 139.827 171.839 139.87 171.758 139.905C171.688 139.937 171.619 139.965 171.553 139.989C171.515 140.004 171.469 140.019 171.414 140.034C171.379 140.042 171.359 140.046 171.355 140.046L171.201 139.587V139.589L171.252 139.575C171.27 139.571 171.314 139.559 171.383 139.538C171.467 139.508 171.529 139.485 171.566 139.468C171.632 139.44 171.701 139.405 171.775 139.362C171.969 139.244 172.109 139.101 172.193 138.935H172.156C171.988 138.932 171.85 138.917 171.742 138.89C171.628 138.862 171.531 138.821 171.451 138.767C171.408 138.737 171.365 138.698 171.32 138.649C171.276 138.604 171.238 138.549 171.207 138.483C171.177 138.417 171.156 138.344 171.145 138.265C171.133 138.179 171.137 138.084 171.158 137.982C171.175 137.889 171.204 137.801 171.246 137.716C171.288 137.631 171.337 137.558 171.395 137.497C171.543 137.334 171.721 137.253 171.93 137.253C172.074 137.253 172.204 137.291 172.318 137.366C172.434 137.443 172.528 137.554 172.6 137.698ZM172.162 138.44H172.227C172.254 138.44 172.273 138.44 172.285 138.439C172.284 138.328 172.273 138.228 172.252 138.14C172.232 138.051 172.206 137.974 172.174 137.909C172.158 137.877 172.138 137.844 172.113 137.812C172.087 137.786 172.065 137.767 172.047 137.757C172.029 137.744 172.008 137.735 171.984 137.732C171.965 137.728 171.947 137.726 171.93 137.726C171.889 137.726 171.852 137.735 171.818 137.753C171.783 137.771 171.754 137.796 171.73 137.827C171.71 137.849 171.688 137.884 171.664 137.931C171.646 137.975 171.633 138.015 171.627 138.052C171.618 138.095 171.614 138.132 171.615 138.163C171.618 138.2 171.624 138.228 171.633 138.247C171.641 138.272 171.654 138.292 171.672 138.308C171.684 138.323 171.702 138.34 171.729 138.358C171.734 138.364 171.746 138.37 171.766 138.378C171.776 138.385 171.801 138.394 171.842 138.405C171.874 138.416 171.917 138.424 171.971 138.429C172.024 138.435 172.088 138.439 172.162 138.44ZM174.348 137.415C174.462 137.551 174.549 137.68 174.609 137.804C174.667 137.926 174.702 138.034 174.715 138.128C174.728 138.227 174.726 138.315 174.709 138.394C174.692 138.472 174.667 138.54 174.633 138.599C174.62 138.621 174.6 138.649 174.574 138.683C174.544 138.715 174.514 138.744 174.484 138.769C174.452 138.795 174.41 138.82 174.359 138.845C174.306 138.87 174.249 138.888 174.188 138.901C174.092 138.92 173.995 138.929 173.895 138.929C173.853 138.929 173.822 138.928 173.801 138.927C173.757 138.924 173.723 138.922 173.701 138.919C173.618 138.912 173.547 138.904 173.488 138.894C173.435 138.887 173.374 138.878 173.305 138.866C173.277 138.862 173.235 138.855 173.178 138.845C173.171 138.843 173.165 138.842 173.158 138.841C173.153 138.84 173.148 138.839 173.145 138.839C173.141 138.838 173.137 138.837 173.135 138.837C173.132 138.836 173.13 138.835 173.129 138.835H173.125L173.234 138.392C173.24 138.392 173.255 138.395 173.281 138.401C173.29 138.403 173.308 138.406 173.334 138.411C173.36 138.415 173.381 138.418 173.396 138.421C173.442 138.429 173.496 138.437 173.559 138.444C173.621 138.451 173.683 138.455 173.744 138.456C173.898 138.459 174.01 138.45 174.08 138.431C174.153 138.411 174.197 138.388 174.213 138.362C174.239 138.312 174.247 138.259 174.238 138.204C174.23 138.147 174.213 138.089 174.186 138.03C174.158 137.973 174.126 137.918 174.088 137.864C174.048 137.808 174.012 137.762 173.982 137.726C173.926 137.661 173.872 137.603 173.82 137.554C173.775 137.507 173.726 137.461 173.674 137.415C173.617 137.366 173.58 137.335 173.564 137.323L173.521 137.29L173.805 136.903C173.809 136.907 173.827 136.922 173.859 136.946C173.878 136.961 173.921 136.996 173.988 137.054C174.025 137.085 174.082 137.138 174.16 137.214C174.22 137.27 174.283 137.337 174.348 137.415ZM177.852 138.183C177.767 138.202 177.684 138.226 177.602 138.253C177.504 138.287 177.42 138.319 177.35 138.351C177.269 138.385 177.189 138.425 177.111 138.472C177.036 138.519 176.964 138.571 176.896 138.628C176.864 138.657 176.829 138.697 176.793 138.749C176.763 138.799 176.737 138.852 176.715 138.909C176.697 138.965 176.684 139.026 176.678 139.093C176.671 139.155 176.677 139.218 176.695 139.28C176.717 139.357 176.752 139.422 176.799 139.476C176.851 139.534 176.906 139.58 176.965 139.612C177.027 139.65 177.094 139.68 177.166 139.702C177.236 139.726 177.305 139.743 177.371 139.755C177.539 139.786 177.723 139.783 177.922 139.745C178.124 139.71 178.354 139.638 178.611 139.53L178.795 139.974C178.343 140.161 177.946 140.255 177.604 140.255C177.548 140.255 177.492 140.253 177.438 140.249C177.366 140.241 177.314 140.234 177.281 140.228C176.991 140.173 176.755 140.071 176.574 139.923C176.488 139.854 176.417 139.776 176.359 139.69C176.301 139.599 176.259 139.505 176.234 139.407C176.206 139.304 176.194 139.199 176.199 139.091C176.203 138.982 176.223 138.873 176.258 138.767C176.293 138.665 176.337 138.573 176.391 138.491C176.445 138.405 176.508 138.33 176.58 138.267C176.657 138.199 176.748 138.138 176.854 138.085C176.958 138.03 177.066 137.982 177.178 137.94C177.29 137.899 177.401 137.862 177.512 137.831C177.638 137.796 177.741 137.769 177.82 137.749C177.773 137.726 177.715 137.693 177.645 137.651C177.637 137.646 177.609 137.629 177.562 137.601C177.516 137.572 177.479 137.55 177.453 137.534C177.31 137.442 177.175 137.411 177.049 137.442C176.994 137.455 176.941 137.48 176.891 137.515C176.846 137.545 176.803 137.58 176.76 137.62C176.719 137.658 176.686 137.696 176.66 137.733C176.634 137.767 176.615 137.796 176.602 137.819V137.817L176.186 137.583C176.188 137.575 176.206 137.547 176.238 137.499C176.273 137.447 176.319 137.39 176.375 137.329C176.458 137.239 176.547 137.164 176.641 137.105C176.737 137.045 176.833 137.002 176.93 136.978C176.999 136.962 177.061 136.954 177.117 136.952C177.18 136.95 177.242 136.954 177.305 136.964C177.372 136.976 177.441 136.995 177.512 137.021C177.576 137.044 177.642 137.08 177.711 137.128C177.887 137.253 178.037 137.345 178.162 137.405C178.281 137.465 178.391 137.512 178.494 137.546C178.584 137.573 178.652 137.589 178.699 137.593C178.746 137.597 178.77 137.599 178.771 137.599L178.623 138.056C178.62 138.056 178.594 138.06 178.543 138.067C178.487 138.075 178.414 138.085 178.324 138.097L177.852 138.183ZM180.27 137.765C180.279 137.784 180.3 137.832 180.334 137.909C180.369 137.985 180.395 138.039 180.41 138.071C180.448 138.157 180.487 138.227 180.527 138.28C180.568 138.334 180.613 138.374 180.664 138.401C180.717 138.426 180.783 138.439 180.861 138.439V138.929C180.796 138.929 180.74 138.924 180.691 138.913C180.648 138.901 180.612 138.888 180.582 138.874C180.549 138.858 180.524 138.84 180.506 138.817C180.49 138.976 180.449 139.124 180.381 139.261C180.313 139.396 180.225 139.521 180.115 139.636C180.003 139.748 179.875 139.844 179.73 139.925C179.585 140.008 179.423 140.073 179.246 140.118L179.096 139.685C179.337 139.613 179.527 139.517 179.666 139.398C179.803 139.28 179.897 139.145 179.949 138.991C179.999 138.836 180.009 138.673 179.98 138.501C179.951 138.321 179.891 138.143 179.801 137.966C179.801 137.965 179.8 137.964 179.799 137.964L180.268 137.763L180.27 137.765ZM180.623 138.681C180.623 138.646 180.63 138.614 180.643 138.587C180.658 138.554 180.676 138.529 180.695 138.511C180.715 138.49 180.741 138.472 180.773 138.458C180.799 138.445 180.831 138.439 180.867 138.439C180.883 138.439 180.906 138.437 180.938 138.433C180.969 138.427 181.004 138.414 181.043 138.392C181.083 138.37 181.124 138.334 181.164 138.286C181.208 138.234 181.248 138.166 181.283 138.081C181.296 138.054 181.308 138.023 181.318 137.989C181.329 137.954 181.339 137.92 181.348 137.888C181.355 137.858 181.364 137.818 181.373 137.769C181.376 137.757 181.38 137.735 181.385 137.702C181.39 137.67 181.395 137.644 181.398 137.624L181.873 137.679C181.856 137.839 181.846 137.948 181.844 138.007C181.836 138.093 181.839 138.175 181.852 138.253C181.852 138.257 181.853 138.265 181.855 138.278C181.859 138.29 181.862 138.3 181.863 138.308C181.878 138.344 181.886 138.365 181.889 138.37C181.896 138.387 181.91 138.405 181.93 138.425C181.951 138.439 181.973 138.446 181.996 138.446C182.025 138.448 182.05 138.446 182.072 138.44C182.097 138.434 182.117 138.423 182.133 138.407C182.155 138.388 182.174 138.364 182.189 138.335C182.209 138.301 182.23 138.259 182.252 138.208C182.29 138.122 182.32 138.032 182.344 137.939C182.352 137.905 182.362 137.86 182.375 137.804C182.388 137.748 182.396 137.712 182.4 137.696L182.881 137.751C182.869 137.819 182.862 137.859 182.859 137.872C182.858 137.885 182.854 137.914 182.846 137.96L182.836 138.028L182.83 138.087C182.829 138.185 182.835 138.261 182.848 138.315C182.865 138.37 182.881 138.404 182.896 138.417C182.904 138.424 182.919 138.431 182.941 138.44C182.97 138.448 182.987 138.452 182.992 138.452C183.018 138.455 183.035 138.456 183.043 138.456C183.057 138.455 183.07 138.453 183.08 138.45C183.11 138.439 183.128 138.43 183.133 138.425C183.143 138.422 183.154 138.415 183.164 138.403C183.174 138.393 183.188 138.379 183.203 138.36C183.211 138.349 183.219 138.334 183.227 138.317C183.247 138.259 183.252 138.193 183.24 138.12C183.229 138.047 183.208 137.976 183.18 137.905C183.148 137.831 183.115 137.763 183.078 137.7C183.042 137.635 183.005 137.577 182.969 137.526L183.367 137.255C183.368 137.256 183.384 137.28 183.414 137.327C183.443 137.374 183.471 137.422 183.5 137.472C183.534 137.533 183.566 137.595 183.596 137.659C183.626 137.723 183.65 137.788 183.668 137.855C183.678 137.886 183.688 137.916 183.695 137.944C183.708 137.994 183.716 138.042 183.719 138.089C183.725 138.138 183.727 138.2 183.723 138.273C183.719 138.34 183.705 138.408 183.682 138.476C183.665 138.525 183.639 138.574 183.605 138.622C183.57 138.674 183.532 138.719 183.49 138.757C183.467 138.779 183.435 138.804 183.395 138.831C183.359 138.853 183.307 138.877 183.236 138.903C183.178 138.924 183.111 138.935 183.035 138.935C182.96 138.935 182.883 138.923 182.805 138.899C182.725 138.876 182.654 138.838 182.59 138.786C182.561 138.761 182.535 138.735 182.512 138.708L182.471 138.751C182.344 138.875 182.182 138.933 181.984 138.927C181.887 138.926 181.796 138.901 181.711 138.855C181.63 138.81 181.561 138.745 181.504 138.657L181.492 138.642L181.439 138.692C181.359 138.768 181.27 138.825 181.174 138.864C181.072 138.906 180.97 138.927 180.867 138.927C180.831 138.927 180.799 138.92 180.773 138.907C180.743 138.894 180.717 138.877 180.695 138.855C180.674 138.834 180.657 138.808 180.643 138.776C180.63 138.749 180.623 138.717 180.623 138.681ZM183.207 136.7L182.867 137.054L182.521 136.708L182.863 136.362L183.207 136.7ZM182.48 136.71L182.137 137.052L181.789 136.704L182.133 136.36L182.48 136.71ZM182.814 136.21L182.512 136.511L182.207 136.206L182.508 135.903L182.814 136.21Z" fill="black"/>
</svg>
