<svg width="17" height="13" viewBox="0 0 17 13" fill="none" xmlns="http://www.w3.org/2000/svg">
<path d="M16 5.00018C16.5523 5.00018 17 4.55247 17 4.00018C17 3.4479 16.5523 3.00018 16 3.00018V5.00018ZM16 12.8002C16.5523 12.8002 17 12.3525 17 11.8002C17 11.2479 16.5523 10.8002 16 10.8002V12.8002ZM16 3.00018H5V5.00018H16V3.00018ZM0 7.90018C0 10.6301 2.26259 12.8002 5 12.8002V10.8002C3.31913 10.8002 2 9.47809 2 7.90018H0ZM5 3.00018C2.26259 3.00018 0 5.17027 0 7.90018H2C2 6.32227 3.31913 5.00018 5 5.00018V3.00018ZM16 10.8002H5V12.8002H16V10.8002Z" fill="#6B006D"/>
<path d="M13 1L16.0001 4.00014L13 7.00027" stroke="#FF9900" stroke-width="2" stroke-linecap="round" stroke-linejoin="round"/>
</svg>
