<svg width="26" height="24" viewBox="0 0 26 24" fill="none" xmlns="http://www.w3.org/2000/svg">
<path d="M1 0C0.447715 0 0 0.447715 0 1C0 1.55228 0.447715 2 1 2V0ZM3.66667 1L4.66274 0.91146C4.61688 0.395523 4.18464 0 3.66667 0V1ZM25 5.09091L25.9904 5.22925C26.0304 4.94268 25.9444 4.65283 25.7544 4.43453C25.5645 4.21624 25.2893 4.09091 25 4.09091V5.09091ZM4.0303 5.09091L3.03423 5.17945L4.0303 5.09091ZM6.96355 15.8566L6.89069 14.8592L6.96355 15.8566ZM1 2H3.66667V0H1V2ZM7.0364 16.8539L22.128 15.7514L21.9823 13.7567L6.89069 14.8592L7.0364 16.8539ZM24.8806 13.1744L25.9904 5.22925L24.0096 4.95257L22.8998 12.8977L24.8806 13.1744ZM2.67059 1.08854L3.03423 5.17945L5.02638 5.00237L4.66274 0.91146L2.67059 1.08854ZM3.03423 5.17945L3.82961 14.1275L5.82176 13.9504L5.02638 5.00237L3.03423 5.17945ZM25 4.09091H4.0303V6.09091H25V4.09091ZM22.128 15.7514C23.5382 15.6484 24.685 14.5747 24.8806 13.1744L22.8998 12.8977C22.8346 13.3645 22.4523 13.7224 21.9823 13.7567L22.128 15.7514ZM6.89069 14.8592C6.34599 14.899 5.87011 14.4944 5.82176 13.9504L3.82961 14.1275C3.97468 15.7595 5.40231 16.9733 7.0364 16.8539L6.89069 14.8592Z" fill="white"/>
<circle cx="8" cy="22" r="2" fill="white"/>
<circle cx="20" cy="22" r="2" fill="white"/>
</svg>
