<svg width="181" height="269" viewBox="0 0 181 269" fill="none" xmlns="http://www.w3.org/2000/svg">
<path d="M56.8575 248.856C56.8575 248.856 65.7663 256.024 67.4373 258.746C69.1084 261.469 67.2671 261.607 64.4039 261.437C61.5408 261.267 56.9533 259.682 54.335 259.012C51.7167 258.342 49.3644 259.012 49.0132 256.332C48.8517 253.948 48.9373 251.553 49.2687 249.186C50.2736 248.211 51.6015 247.64 53.0004 247.579C54.3992 247.518 55.7718 247.973 56.8575 248.856Z" fill="#FF9900" stroke="#263238" stroke-linecap="round" stroke-linejoin="round"/>
<path d="M32.4317 250.749L41.1275 263.043C43.054 265.776 39.2649 267.903 36.1356 267.711C33.0064 267.52 26.6948 263.457 25.5452 260.809C24.3957 258.161 25.0343 251.887 25.0343 251.887C25.0343 251.887 29.5366 251.121 32.4317 250.749Z" fill="#FF9900" stroke="#263238" stroke-linecap="round" stroke-linejoin="round"/>
<path d="M60.2144 135.435C60.2144 135.435 60.7785 153.025 61.2788 161.948C61.779 170.871 59.5545 217.313 59.0436 225.916C58.5327 234.52 56.851 248.856 56.851 248.856C56.851 248.856 54.3498 251.323 49.2408 249.186C49.2408 249.186 47.3782 228.373 46.995 221.535C46.6118 214.697 43.8658 172.944 43.7168 171.105C43.5677 169.265 44.1106 158.577 44.1106 158.577C44.1106 158.577 39.9702 188.62 39.4806 196.703C38.991 204.785 33.1476 251.834 33.1476 251.834C33.1476 251.834 31.8065 252.28 29.9545 252.684C28.1025 253.089 25.0265 251.876 25.0265 251.876C25.0265 251.876 23.547 237.136 23.2064 229.788C22.8658 222.439 22.5678 192.076 23.1106 182.994C23.5465 176.733 23.6602 170.454 23.4512 164.181C23.2703 162.862 20.9819 130.809 22.2804 126.704C23.5789 122.599 44.2276 123.981 50.8161 123.333C57.4045 122.684 60.3741 128.384 60.2144 135.435Z" fill="white" stroke="#263238" stroke-linecap="round" stroke-linejoin="round"/>
<path d="M80.0025 102.893C80.0025 102.893 69.9123 114.07 66.8789 116.505C63.8454 118.941 58.96 117.569 57.5231 115.442C56.0862 113.315 56.182 93.9168 56.182 93.9168L59.9712 70.3287L65.293 103.871L76.7455 100.681C76.7455 100.681 80.4815 99.2661 80.0025 102.893Z" fill="#FF9900" stroke="#263238" stroke-linecap="round" stroke-linejoin="round"/>
<path d="M42.3168 62.98C42.3168 62.98 57.4307 68.5846 59.2189 69.2227C61.007 69.8608 61.965 78.7941 61.6669 85.3239C61.5392 88.0889 59.932 114.474 60.858 133.936C60.9964 136.754 55.4404 139.466 48.6604 139.062C41.8804 138.658 29.8105 139.391 26.0107 137.328C22.2109 135.265 22.9347 133.5 22.9347 133.5C22.9347 133.5 17.6767 89.7692 16.6124 81.389C15.548 73.0087 18.1663 68.4038 21.4659 65.7132C24.7654 63.0226 42.3168 62.98 42.3168 62.98Z" fill="#FF9900" stroke="#263238" stroke-linecap="round" stroke-linejoin="round"/>
<path d="M47.5762 77.6241V92.0131" stroke="#263238" stroke-linecap="round" stroke-linejoin="round"/>
<path d="M41.8086 78.3793V99.2874" stroke="#263238" stroke-linecap="round" stroke-linejoin="round"/>
<path d="M44.7542 79.0812C44.7542 79.0812 37.953 78.1454 35.175 75.8376C32.397 73.5298 29.7148 67.3297 27.5541 66.6491C25.5471 66.1231 23.494 65.7919 21.4234 65.66C21.4234 65.66 21.0828 61.7677 25.8298 59.6088C30.5769 57.45 42.072 58.5985 44.5201 60.0342C46.9681 61.4699 51.7046 64.6391 51.4172 66.5002C51.1298 68.3613 49.2672 79.7406 44.7542 79.0812Z" fill="white" stroke="#263238" stroke-linecap="round" stroke-linejoin="round"/>
<path d="M46.3086 61.9058C46.3086 61.9058 44.5949 68.6164 45.1484 72.5407C45.7019 76.465 46.5853 79.1662 44.7546 79.0493C42.9239 78.9323 36.6335 70.4563 36.0481 67.0212C35.4627 63.5862 35.6862 51.069 35.6862 51.069L46.3086 61.9058Z" fill="white" stroke="#263238" stroke-linecap="round" stroke-linejoin="round"/>
<path d="M38.808 58.0348L44.6408 68.9994L46.1309 63.8627C43.5036 62.166 41.0507 60.2139 38.808 58.0348Z" fill="#263238" stroke="#263238" stroke-linecap="round" stroke-linejoin="round"/>
<path d="M57.498 36.6801C57.498 36.6801 55.7099 48.8676 54.6456 52.9939C53.5812 57.1203 50.8139 64.5327 48.7064 64.6923C46.599 64.8518 38.5524 59.3748 36.86 56.9288C35.1677 54.4828 35.3486 47.1554 35.0825 42.9546C34.8165 38.7539 36.4024 33.8725 39.0952 32.7239C41.7881 31.5753 56.1037 33.713 57.498 36.6801Z" fill="#FFEFD6" stroke="#263238" stroke-linecap="round" stroke-linejoin="round"/>
<path d="M55.9004 44.9326L53.0798 45.4325L53.5801 55.057C52.312 55.2264 51.0271 55.2264 49.759 55.057" fill="white"/>
<path d="M55.9004 44.9326L53.0798 45.4325L53.5801 55.057C52.312 55.2264 51.0271 55.2264 49.759 55.057" stroke="#263238" stroke-linecap="round" stroke-linejoin="round"/>
<path d="M51.248 58.0455C51.248 58.0455 47.2673 58.875 45.1067 56.3865L51.248 58.0455Z" fill="white"/>
<path d="M51.248 58.0455C51.248 58.0455 47.2673 58.875 45.1067 56.3865" stroke="#263238" stroke-linecap="round" stroke-linejoin="round"/>
<path d="M49.7559 45.273C49.3705 44.8667 48.893 44.5591 48.3637 44.376C47.8343 44.1929 47.2686 44.1398 46.7144 44.2211C46.1601 44.3025 45.6336 44.5159 45.1793 44.8433C44.7249 45.1708 44.3562 45.6027 44.1041 46.1026" fill="white"/>
<path d="M49.7559 45.273C49.3705 44.8667 48.893 44.5591 48.3637 44.376C47.8343 44.1929 47.2686 44.1398 46.7144 44.2211C46.1601 44.3025 45.6336 44.5159 45.1793 44.8433C44.7249 45.1708 44.3562 45.6027 44.1041 46.1026" stroke="#263238" stroke-linecap="round" stroke-linejoin="round"/>
<path d="M46.7712 48.5061C46.7712 49.1868 47.1438 49.7504 47.6014 49.7504C48.0591 49.7504 48.4316 49.1868 48.4316 48.5061C48.4316 47.8255 48.0591 47.2618 47.6014 47.2618C47.1438 47.2618 46.7712 47.8149 46.7712 48.5061Z" fill="#263238"/>
<path d="M41.8016 36.2972C41.8016 36.2972 43.1214 37.6053 51.2106 38.0839C59.2998 38.5624 62.6525 34.2021 61.503 32.139C59.2891 28.1509 54.2973 22.2911 42.9618 23.4503C31.6263 24.6095 29.2102 32.4155 29.7849 35.8506C30.3597 39.2856 31.9136 44.8689 31.9136 44.8689C31.9136 44.8689 32.382 43.1461 33.6273 44.2627C34.8726 45.3794 36.3308 49.059 36.3308 49.059L37.459 48.7825C37.7882 47.675 38.2342 46.6055 38.7894 45.5921C39.3642 44.837 42.866 42.7419 42.9405 41.4445C42.7372 39.6945 42.3556 37.9698 41.8016 36.2972Z" fill="#263238" stroke="#263238" stroke-linecap="round" stroke-linejoin="round"/>
<path d="M37.0586 50.1226C37.0586 50.1226 36.7818 43.3907 33.5887 44.2415C30.3956 45.0923 30.981 46.6237 32.6414 49.5589C33.4513 51.1963 34.7391 52.5497 36.3348 53.4406" fill="#FFEFD6"/>
<path d="M37.0586 50.1226C37.0586 50.1226 36.7818 43.3907 33.5887 44.2415C30.3956 45.0923 30.981 46.6237 32.6414 49.5589C33.4513 51.1963 34.7391 52.5497 36.3348 53.4406" stroke="#263238" stroke-linecap="round" stroke-linejoin="round"/>
<path d="M23.9478 72.3494C23.9478 72.3494 25.8956 79.2727 25.7147 82.3994C25.5338 85.526 12.5698 115.91 12.1972 117.718C11.8247 119.526 6.81154 120.27 4.31029 118.292C1.80902 116.314 0.659513 113.623 2.38379 106.668C3.44815 102.361 14.0067 76.731 14.7943 72.3282C15.5819 67.9253 18.6366 64.9688 21.4679 65.6601" fill="#FF9900"/>
<path d="M23.9478 72.3494C23.9478 72.3494 25.8956 79.2727 25.7147 82.3994C25.5338 85.526 12.5698 115.91 12.1972 117.718C11.8247 119.526 6.81154 120.27 4.31028 118.292C1.80903 116.314 0.659513 113.623 2.38379 106.668C3.44815 102.361 14.0067 76.731 14.7943 72.3282C15.5819 67.9253 18.6366 64.9688 21.4679 65.6601" stroke="#263238" stroke-linecap="round" stroke-linejoin="round"/>
<path d="M11.9603 108.614L27.9258 136.073L21.7951 139.987C21.7951 139.987 6.48948 120.174 4.32882 118.313C2.16816 116.452 -0.790773 112.613 2.40232 106.689" fill="#FF9900"/>
<path d="M11.9603 108.614L27.9258 136.073L21.7951 139.987C21.7951 139.987 6.48948 120.174 4.32882 118.313C2.16816 116.452 -0.790773 112.613 2.40232 106.689" stroke="#263238" stroke-linecap="round" stroke-linejoin="round"/>
<path d="M27.9057 136.052L32.078 137.031C32.078 137.031 34.2919 140.955 34.7815 141.689C35.2711 142.422 37.7191 143.645 35.2711 143.89C32.823 144.135 31.8332 141.444 31.8332 141.444L25.447 145.613L21.7643 139.966L27.9057 136.052Z" fill="#FFEFD6" stroke="#263238" stroke-linecap="round" stroke-linejoin="round"/>
<path d="M83.5098 87.9294L75.3142 106.806L66.6609 107.072L74.3562 87.6529L83.5098 87.9294Z" fill="#263238" stroke="#263238" stroke-linecap="round" stroke-linejoin="round"/>
<path d="M76.7813 95.3738C76.7813 95.3738 82.348 94.1402 83.0504 95.4908C83.7529 96.8414 80.496 103.19 79.1016 104.669C77.7073 106.147 74.3439 105.434 72.5664 104.541C70.789 103.648 72.3429 99.564 73.4073 99.1067C75.5093 98.578 77.6421 98.1802 79.7935 97.9156C79.7935 97.9156 75.0251 98.6706 74.312 97.5859C73.5989 96.5011 74.6633 95.778 76.7813 95.3738Z" fill="#FFEFD6" stroke="#263238" stroke-linecap="round" stroke-linejoin="round"/>
<path d="M74.8086 1H131.422C136.861 1 141.268 5.13696 141.268 10.2311V55.7695C141.268 60.8636 136.861 65.0005 131.422 65.0005H88.0068L80.1837 80.3998L77.1822 65.0111H74.8086C69.3697 65.0111 64.9633 60.8742 64.9633 55.7801V10.2311C64.9633 5.13696 69.3697 1 74.8086 1Z" fill="white" stroke="#263238" stroke-linecap="round" stroke-linejoin="round"/>
<path d="M127.334 10.0722H92.372C89.581 10.0722 87.3184 12.3329 87.3184 15.1216V30.3084C87.3184 33.0971 89.581 35.3578 92.372 35.3578H127.334C130.125 35.3578 132.388 33.0971 132.388 30.3084V15.1216C132.388 12.3329 130.125 10.0722 127.334 10.0722Z" fill="#FF9900" stroke="#263238" stroke-linecap="round" stroke-linejoin="round"/>
<path d="M90.0793 52.3041L94.0314 50.0597C94.2296 49.9501 94.4479 49.8814 94.6732 49.8577C94.8985 49.8341 95.1263 49.856 95.3429 49.9221C95.5596 49.9882 95.7608 50.0973 95.9344 50.2427C96.108 50.3881 96.2506 50.5669 96.3537 50.7685C96.5449 51.1566 96.5796 51.6032 96.4508 52.0161C96.3219 52.4291 96.0393 52.7768 95.6612 52.9876L87.9091 57.2064L85.7811 58.7504L76.4245 54.9704L77.6912 49.4522L81.069 42.5418C81.1822 42.3068 81.3744 42.119 81.6121 42.011C81.8497 41.9031 82.1178 41.8819 82.3694 41.9512C82.5197 41.9926 82.6597 42.065 82.7802 42.1637C82.9007 42.2625 82.9992 42.3855 83.0692 42.5246C83.1392 42.6637 83.1793 42.816 83.1868 42.9716C83.1942 43.1272 83.169 43.2826 83.1126 43.4278L82.3357 45.6975L83.7206 42.3225C83.886 42.0159 84.1556 41.7785 84.4808 41.6532C84.806 41.5279 85.1654 41.5228 85.4939 41.639C85.6821 41.7066 85.8544 41.8122 86.0001 41.9491C86.1459 42.0859 86.2619 42.2513 86.3411 42.4348C86.4203 42.6183 86.4609 42.8161 86.4604 43.0159C86.4599 43.2158 86.4184 43.4134 86.3384 43.5965L85.2828 45.8916L87.2166 42.1875C87.3794 41.9004 87.6363 41.6782 87.944 41.5583C88.2516 41.4385 88.5912 41.4282 88.9055 41.5293C89.0873 41.5938 89.2542 41.6944 89.3959 41.8251C89.5377 41.9558 89.6515 42.1138 89.7304 42.2897C89.8094 42.4656 89.8518 42.6556 89.8552 42.8483C89.8585 43.041 89.8228 43.2324 89.75 43.4109L87.9766 46.786L91.1771 40.2131C91.2719 39.9863 91.412 39.7813 91.5889 39.6105C91.7658 39.4398 91.9756 39.3069 92.2057 39.22C92.4357 39.1331 92.6811 39.094 92.9268 39.1052C93.1725 39.1164 93.4133 39.1775 93.6345 39.2849C94.0522 39.4818 94.3782 39.8316 94.5448 40.262C94.7115 40.6924 94.706 41.1703 94.5296 41.5968L90.0793 52.3041Z" fill="#FFEFD6" stroke="#263238" stroke-linecap="round" stroke-linejoin="round"/>
<path d="M102.156 25C101.885 25 101.617 24.9792 101.352 24.9375C101.102 24.8958 100.872 24.8385 100.664 24.7656C100.471 24.7083 100.281 24.6276 100.094 24.5234C99.9167 24.4297 99.7656 24.3333 99.6406 24.2344C99.5729 24.2865 99.5339 24.3203 99.5234 24.3359C99.4714 24.3828 99.4297 24.4141 99.3984 24.4297C99.0755 24.6432 98.7292 24.7995 98.3594 24.8984C97.9948 24.9974 97.6094 25.0469 97.2031 25.0469C96.8021 25.0469 96.3776 25.026 95.9297 24.9844C95.6641 24.9583 95.2839 24.9115 94.7891 24.8438C94.2839 24.75 94.0026 24.6979 93.9453 24.6875C93.7422 24.651 93.625 24.625 93.5938 24.6094L94.1172 22.7812H94.1328C94.1484 22.7865 94.1667 22.7917 94.1875 22.7969C94.2135 22.7969 94.2396 22.7969 94.2656 22.7969C94.4896 22.8333 94.612 22.8542 94.6328 22.8594C94.6693 22.8646 94.7474 22.875 94.8672 22.8906C94.9922 22.9062 95.0938 22.9167 95.1719 22.9219C95.2448 22.9323 95.3516 22.9453 95.4922 22.9609C95.6328 22.9766 95.737 22.9896 95.8047 23L96.4844 23.0469C96.7083 23.0625 96.9271 23.0703 97.1406 23.0703C97.4896 23.0703 97.8516 22.9844 98.2266 22.8125C98.3203 22.7708 98.388 22.7344 98.4297 22.7031C98.4609 22.6823 98.5026 22.651 98.5547 22.6094L96.5781 17.4531L98.375 16.7578L100.5 22.3125C100.536 22.3854 100.591 22.4635 100.664 22.5469C100.742 22.6354 100.846 22.7135 100.977 22.7812C101.117 22.8542 101.279 22.9167 101.461 22.9688C101.659 23.0156 101.891 23.0391 102.156 23.0391V25ZM101.023 24.0234C101.023 23.8776 101.049 23.75 101.102 23.6406C101.159 23.5156 101.229 23.4115 101.312 23.3281C101.391 23.25 101.492 23.1797 101.617 23.1172C101.737 23.0651 101.865 23.0391 102 23.0391C102.651 23.0391 103.18 23.0156 103.586 22.9688C103.982 22.9323 104.305 22.8802 104.555 22.8125C104.789 22.7604 104.951 22.7005 105.039 22.6328C105.133 22.5703 105.19 22.5208 105.211 22.4844C105.232 22.4219 105.245 22.3802 105.25 22.3594C105.266 22.2969 105.273 22.2109 105.273 22.1016C105.273 22.0078 105.26 21.875 105.234 21.7031C105.214 21.5521 105.161 21.3672 105.078 21.1484C105.031 21.0026 104.964 20.8359 104.875 20.6484C104.818 20.5339 104.742 20.3854 104.648 20.2031C104.581 20.0781 104.508 19.9583 104.43 19.8438C104.398 19.8021 104.365 19.7552 104.328 19.7031C104.292 19.651 104.268 19.6172 104.258 19.6016L105.75 18.4062C105.865 18.5521 105.966 18.6901 106.055 18.8203C106.138 18.9557 106.242 19.1302 106.367 19.3438C106.388 19.3854 106.417 19.4453 106.453 19.5234C106.495 19.6016 106.531 19.6745 106.562 19.7422C106.599 19.8047 106.63 19.8646 106.656 19.9219C106.734 20.0885 106.815 20.2891 106.898 20.5234C107.117 21.1328 107.221 21.6875 107.211 22.1875C107.206 22.6719 107.094 23.0911 106.875 23.4453C106.729 23.6901 106.536 23.9062 106.297 24.0938C106.062 24.2812 105.81 24.4271 105.539 24.5312C105.299 24.6458 105.01 24.737 104.672 24.8047C104.375 24.8672 104.07 24.9141 103.758 24.9453C103.477 24.9714 103.174 24.9896 102.852 25C102.659 25.0052 102.388 25.0078 102.039 25.0078H102C101.865 25.0078 101.737 24.9818 101.617 24.9297C101.492 24.8672 101.391 24.7969 101.312 24.7188C101.234 24.6302 101.164 24.526 101.102 24.4062C101.049 24.2865 101.023 24.1589 101.023 24.0234ZM107.758 27.8594L106.383 29.2266L104.992 27.8359L106.359 26.4609L107.758 27.8594ZM104.992 27.8359L103.617 29.2031L102.227 27.8203L103.594 26.4375L104.992 27.8359ZM112.867 20.3438C112.904 20.4219 112.99 20.6146 113.125 20.9219C113.266 21.224 113.367 21.4401 113.43 21.5703C113.581 21.9141 113.737 22.1927 113.898 22.4062C114.06 22.6198 114.242 22.7812 114.445 22.8906C114.659 22.9896 114.922 23.0391 115.234 23.0391V25C114.974 25 114.747 24.9792 114.555 24.9375C114.383 24.8906 114.237 24.8385 114.117 24.7812C113.987 24.7188 113.885 24.6432 113.812 24.5547C113.75 25.1901 113.583 25.7812 113.312 26.3281C113.042 26.8698 112.688 27.3698 112.25 27.8281C111.802 28.276 111.289 28.6615 110.711 28.9844C110.128 29.3177 109.482 29.5755 108.773 29.7578L108.172 28.0234C109.135 27.737 109.896 27.3542 110.453 26.875C111 26.4062 111.378 25.8646 111.586 25.25C111.784 24.6302 111.826 23.9766 111.711 23.2891C111.591 22.5703 111.352 21.8568 110.992 21.1484C110.992 21.1432 110.99 21.1406 110.984 21.1406L112.859 20.3359L112.867 20.3438ZM115.289 25C115.143 25 115.018 24.974 114.914 24.9219C114.799 24.8802 114.695 24.8125 114.602 24.7188C114.518 24.6406 114.445 24.5365 114.383 24.4062C114.331 24.2969 114.305 24.1693 114.305 24.0234C114.305 23.8776 114.331 23.75 114.383 23.6406C114.445 23.5104 114.518 23.4062 114.602 23.3281C114.69 23.2396 114.794 23.1693 114.914 23.1172C115.018 23.0651 115.143 23.0391 115.289 23.0391H115.414C116.341 23.0391 117.159 23 117.867 22.9219C118.565 22.8542 119.206 22.7552 119.789 22.625C120.352 22.5 120.852 22.3594 121.289 22.2031C121.763 22.0365 122.169 21.8776 122.508 21.7266C121.982 21.5443 121.617 21.4115 121.414 21.3281C121.107 21.2135 120.831 21.0885 120.586 20.9531C119.878 20.5729 119.312 20.4688 118.891 20.6406C118.74 20.6979 118.617 20.7812 118.523 20.8906C118.445 20.974 118.359 21.0833 118.266 21.2188C118.177 21.3646 118.109 21.4974 118.062 21.6172L116.227 21.0703C116.237 21.0234 116.279 20.9115 116.352 20.7344C116.409 20.5729 116.518 20.3698 116.68 20.125C116.836 19.8854 117.031 19.6562 117.266 19.4375C117.505 19.2083 117.802 19.0182 118.156 18.8672C118.385 18.7682 118.63 18.7031 118.891 18.6719C119.135 18.6406 119.401 18.638 119.688 18.6641C120.25 18.7161 120.852 18.9167 121.492 19.2656C121.628 19.3385 121.799 19.4245 122.008 19.5234C122.195 19.6172 122.419 19.7188 122.68 19.8281C122.883 19.9167 123.143 20.026 123.461 20.1562C123.836 20.2917 124.117 20.3906 124.305 20.4531C124.596 20.5365 124.878 20.6146 125.148 20.6875C125.409 20.7448 125.672 20.7865 125.938 20.8125L125.43 22.6875C125.289 22.6979 125.154 22.7214 125.023 22.7578C124.919 22.7839 124.773 22.8359 124.586 22.9141C124.409 22.9922 124.255 23.0625 124.125 23.125C124.068 23.151 123.982 23.1901 123.867 23.2422C123.758 23.2891 123.674 23.3255 123.617 23.3516C123.461 23.4193 123.224 23.5182 122.906 23.6484C122.589 23.7734 122.375 23.8594 122.266 23.9062C121.771 24.0938 121.201 24.2708 120.555 24.4375C119.919 24.599 119.174 24.7344 118.32 24.8438C117.461 24.9479 116.497 25 115.43 25H115.289ZM120.383 15.7031L119.008 17.0781L117.617 15.6875L118.992 14.3125L120.383 15.7031Z" fill="black"/>
<path d="M80 218.527L125.643 198.766L181 222.734L135.357 242.547L80 218.527Z" fill="#FF9900"/>
<path d="M87.8906 218.703L125.64 202.358L173.113 222.91L135.355 239.254L87.8906 218.703Z" fill="#FF9900"/>
<path d="M125.642 202.358V174.412L87.125 191.083L119.351 205.083L125.642 202.358Z" fill="#37474F"/>
<path d="M125.641 174.412V202.358L141.645 209.289L173.871 195.29L125.641 174.412Z" fill="#263238"/>
<path d="M87.125 191.083V218.376L135.356 239.254V212.014L87.125 191.083Z" fill="#263238"/>
<path d="M135.355 212.014V239.254L173.872 222.577V195.29L135.355 212.014Z" fill="#37474F"/>
<path d="M135.355 212.014L136.113 238.209L164.088 226.81L135.355 239.254V212.014Z" fill="#455A64"/>
<path d="M139.964 230.488C139.823 230.488 139.685 230.461 139.563 230.409C139.393 230.318 139.258 230.194 139.172 230.05C139.086 229.907 139.053 229.749 139.075 229.593V227.182V227.006H139.241L141.758 225.895V228.593C141.754 228.939 141.639 229.279 141.424 229.584C141.209 229.89 140.899 230.153 140.521 230.351C140.355 230.433 140.163 230.48 139.964 230.488ZM139.476 227.359V229.593C139.456 229.697 139.473 229.803 139.525 229.9C139.577 229.997 139.662 230.083 139.772 230.148C139.859 230.177 139.955 230.188 140.05 230.18C140.145 230.172 140.236 230.145 140.312 230.102C140.628 229.93 140.887 229.706 141.069 229.446C141.25 229.187 141.349 228.899 141.358 228.606V228.41H140.425L140.234 227.463L139.476 227.359ZM140.774 228.103H141.358V226.438L139.85 227.091L140.6 227.189L140.774 228.103Z" fill="#FF9900"/>
<path d="M140.417 232.415C140.391 232.415 140.365 232.411 140.34 232.403C140.316 232.396 140.294 232.385 140.275 232.371C140.257 232.357 140.242 232.34 140.232 232.322C140.222 232.304 140.217 232.284 140.217 232.265V230.233C140.217 230.193 140.238 230.155 140.275 230.127C140.313 230.099 140.364 230.083 140.417 230.083C140.47 230.083 140.521 230.099 140.559 230.127C140.596 230.155 140.618 230.193 140.618 230.233V232.271C140.615 232.31 140.593 232.346 140.556 232.373C140.519 232.4 140.469 232.415 140.417 232.415Z" fill="#FF9900"/>
<path d="M139.241 232.924C139.205 232.925 139.17 232.918 139.139 232.904C139.108 232.89 139.083 232.87 139.067 232.846C139.053 232.828 139.044 232.809 139.041 232.789C139.037 232.769 139.039 232.748 139.047 232.729C139.054 232.709 139.066 232.691 139.083 232.675C139.1 232.66 139.121 232.646 139.145 232.637L141.515 231.618C141.538 231.607 141.563 231.6 141.59 231.597C141.616 231.594 141.643 231.595 141.669 231.6C141.695 231.605 141.72 231.613 141.741 231.625C141.762 231.638 141.78 231.653 141.794 231.67C141.82 231.705 141.827 231.746 141.814 231.785C141.801 231.824 141.769 231.858 141.724 231.879L139.372 232.898L139.241 232.924Z" fill="#FF9900"/>
<path d="M147.614 229.429C147.538 229.43 147.463 229.416 147.396 229.39C147.315 229.351 147.249 229.297 147.207 229.233C147.164 229.168 147.145 229.096 147.152 229.024V228.606C147.152 228.566 147.173 228.528 147.211 228.5C147.248 228.472 147.299 228.456 147.352 228.456C147.379 228.455 147.406 228.458 147.432 228.466C147.457 228.473 147.48 228.484 147.5 228.498C147.519 228.512 147.535 228.529 147.545 228.547C147.556 228.566 147.561 228.586 147.561 228.606V229.005C147.561 229.064 147.561 229.096 147.561 229.103C147.561 229.109 147.622 229.103 147.692 229.103C147.817 229.014 147.915 228.907 147.98 228.787C148.044 228.668 148.074 228.539 148.067 228.41V225.739C148.076 225.703 148.102 225.672 148.139 225.649C148.177 225.626 148.223 225.614 148.271 225.614C148.319 225.614 148.366 225.626 148.403 225.649C148.441 225.672 148.466 225.703 148.476 225.739V228.43C148.485 228.61 148.438 228.79 148.338 228.954C148.238 229.119 148.089 229.264 147.901 229.377C147.813 229.413 147.714 229.431 147.614 229.429Z" fill="#FF9900"/>
<path d="M145.488 227.078V226.81C145.539 226.135 145.803 225.479 146.257 224.896C146.711 224.312 147.344 223.817 148.102 223.452C148.375 223.295 148.704 223.203 149.047 223.186C149.39 223.169 149.732 223.228 150.03 223.357C150.328 223.485 150.569 223.677 150.722 223.908C150.875 224.139 150.933 224.398 150.89 224.654V224.746L145.488 227.078ZM149.287 223.478C148.928 223.489 148.58 223.57 148.276 223.713C147.633 224.029 147.088 224.445 146.679 224.934C146.27 225.422 146.007 225.97 145.906 226.542L150.454 224.582C150.472 224.392 150.425 224.201 150.316 224.029C150.208 223.856 150.043 223.707 149.836 223.596C149.67 223.52 149.481 223.48 149.287 223.478Z" fill="#FF9900"/>
<path d="M154.88 226.326C154.826 226.325 154.775 226.308 154.738 226.278C154.7 226.249 154.68 226.21 154.68 226.17V221.009C154.689 220.974 154.715 220.942 154.752 220.919C154.79 220.896 154.836 220.884 154.884 220.884C154.933 220.884 154.979 220.896 155.016 220.919C155.054 220.942 155.079 220.974 155.089 221.009V226.17C155.089 226.211 155.067 226.251 155.028 226.281C154.989 226.31 154.936 226.326 154.88 226.326Z" fill="#FF9900"/>
<path d="M154.295 222.185C154.267 222.192 154.236 222.192 154.208 222.185C154.16 222.169 154.122 222.14 154.102 222.103C154.083 222.066 154.083 222.025 154.104 221.989L154.827 220.741L155.628 221.434C155.647 221.448 155.663 221.464 155.673 221.483C155.684 221.501 155.689 221.521 155.689 221.541C155.689 221.561 155.684 221.581 155.673 221.6C155.663 221.618 155.647 221.635 155.628 221.649C155.588 221.675 155.537 221.69 155.484 221.69C155.432 221.69 155.38 221.675 155.341 221.649L154.957 221.316L154.496 222.119C154.474 222.144 154.444 222.163 154.408 222.174C154.373 222.186 154.334 222.19 154.295 222.185Z" fill="#FF9900"/>
<path d="M156.753 225.523C156.7 225.523 156.649 225.507 156.611 225.479C156.574 225.451 156.553 225.413 156.553 225.373V220.205C156.562 220.17 156.588 220.138 156.625 220.116C156.663 220.093 156.709 220.081 156.757 220.081C156.806 220.081 156.852 220.093 156.889 220.116C156.927 220.138 156.952 220.17 156.962 220.205V225.373C156.962 225.393 156.957 225.413 156.946 225.432C156.936 225.45 156.92 225.467 156.9 225.481C156.881 225.495 156.858 225.506 156.832 225.513C156.807 225.521 156.78 225.524 156.753 225.523Z" fill="#FF9900"/>
<path d="M156.159 221.388H156.081C156.056 221.38 156.033 221.369 156.014 221.354C155.995 221.339 155.98 221.322 155.971 221.303C155.961 221.284 155.956 221.264 155.957 221.244C155.958 221.224 155.964 221.204 155.976 221.185L156.699 219.938L157.501 220.637C157.536 220.666 157.555 220.705 157.555 220.744C157.555 220.784 157.536 220.822 157.501 220.852C157.462 220.88 157.41 220.895 157.357 220.895C157.303 220.895 157.252 220.88 157.213 220.852L156.83 220.526L156.324 221.296C156.31 221.321 156.287 221.342 156.258 221.358C156.229 221.374 156.195 221.385 156.159 221.388Z" fill="#FF9900"/>
<path d="M95.3402 210.459L105.856 215.032C105.993 215.099 106.107 215.19 106.189 215.297C106.271 215.403 106.318 215.523 106.326 215.646V221.127C106.326 221.577 105.908 221.78 105.385 221.538L94.8698 216.965C94.7313 216.897 94.6159 216.805 94.5328 216.697C94.4496 216.59 94.4009 216.469 94.3906 216.345V210.864C94.469 210.413 94.8524 210.23 95.3402 210.459Z" fill="#FAFAFA"/>
<path d="M95.1133 211.308L95.4705 211.465V216.299L95.1133 216.149V211.308Z" fill="#455A64"/>
<path d="M96.5684 211.942L97.1869 212.21V217.05L96.5684 216.776V211.942Z" fill="#455A64"/>
<path d="M98.0234 212.569L98.3894 212.726V217.56L98.0234 217.409V212.569Z" fill="#455A64"/>
<path d="M99.1309 213.039L99.8452 213.353V218.193L99.1309 217.873V213.039Z" fill="#455A64"/>
<path d="M100.943 213.83L101.301 213.986V218.821L100.943 218.67V213.83Z" fill="#455A64"/>
<path d="M101.988 214.274L102.755 214.614V219.454L101.988 219.108V214.274Z" fill="#455A64"/>
<path d="M103.854 215.09L104.211 215.247V220.081L103.854 219.925V215.09Z" fill="#455A64"/>
<path d="M104.68 215.443L104.863 215.522V220.356L104.68 220.284V215.443Z" fill="#455A64"/>
<path d="M103.191 214.829L103.366 214.901V219.742L103.191 219.663V214.829Z" fill="#455A64"/>
<path d="M100.254 213.536L100.437 213.614V218.455L100.254 218.376V213.536Z" fill="#455A64"/>
<path d="M98.6504 212.85L98.8246 212.922V217.762L98.6504 217.684V212.85Z" fill="#455A64"/>
<path d="M97.4922 212.366L97.6751 212.445V217.285L97.4922 217.207V212.366Z" fill="#455A64"/>
<path d="M95.9336 211.654L96.1078 211.733V216.573L95.9336 216.495V211.654Z" fill="#455A64"/>
<path d="M105.307 215.718L105.664 215.874V220.715L105.307 220.558V215.718Z" fill="#455A64"/>
<path d="M125.642 174.412L87.125 191.083L135.356 212.014L173.872 195.29L125.642 174.412Z" fill="#455A64"/>
<path opacity="0.1" d="M87.125 191.083L135.356 210.981L173.872 195.29L135.356 212.014L87.125 191.083Z" fill="white"/>
<path d="M103.104 184.165L151.369 205.056L157.302 202.483L109.045 181.598L103.104 184.165Z" fill="#FF9900"/>
<path d="M157.302 202.483V208.14L156.588 207.833L155.838 208.8L155.098 208.466L154.349 209.446L153.608 209.113L152.859 210.08L152.118 209.76L151.369 210.727V205.063L157.302 202.483Z" fill="#FF9900"/>
<path opacity="0.25" d="M157.302 202.483V208.14L156.588 207.833L155.838 208.8L155.098 208.466L154.349 209.446L153.608 209.113L152.859 210.08L152.118 209.76L151.369 210.727V205.063L157.302 202.483Z" fill="#FF9900"/>
<path d="M94.2712 185.112L91.6575 183.969C91.5142 183.907 91.4035 183.811 91.3439 183.695L90.4727 182.029L92.3196 181.232L92.2674 181.35L94.2712 185.112Z" fill="#FF9900"/>
<path opacity="0.1" d="M94.2712 185.112L91.6575 183.969C91.5142 183.907 91.4035 183.811 91.3439 183.695L90.4727 182.029L92.3196 181.232L92.2674 181.35L94.2712 185.112Z" fill="#FF9900"/>
<path d="M117.542 148.373C117.515 147.981 117.366 147.599 117.105 147.259C116.845 146.918 116.481 146.629 116.043 146.413L115.712 146.27C115.247 146.092 114.732 146 114.209 146C113.687 146 113.172 146.092 112.707 146.27L83.8344 158.78C83.3957 158.994 83.0311 159.284 82.7706 159.624C82.5101 159.965 82.3612 160.347 82.3359 160.739V181.376C82.3626 181.768 82.5121 182.15 82.7725 182.49C83.0329 182.831 83.3967 183.12 83.8344 183.336L84.1655 183.486C84.6312 183.663 85.1461 183.756 85.6683 183.756C86.1906 183.756 86.7055 183.663 87.1712 183.486L116.183 170.865C116.654 170.709 117.043 170.441 117.289 170.101C117.535 169.762 117.624 169.371 117.542 168.99V148.373Z" fill="#FF9900"/>
<path d="M117.497 148.053C117.323 147.576 116.731 147.4 116.043 147.72L87.1617 160.23C86.7184 160.434 86.3548 160.723 86.1075 161.066C85.8441 161.404 85.6946 161.785 85.6719 162.177V182.813C85.6719 183.466 86.1859 183.747 86.8742 183.571H86.9177C87.0051 183.545 87.0896 183.515 87.1704 183.479L92.0579 181.356L94.1053 184.975C94.1387 185.033 94.1948 185.081 94.2661 185.114C94.3373 185.147 94.4203 185.162 94.5038 185.159C94.5872 185.155 94.6673 185.133 94.7331 185.094C94.7989 185.055 94.8474 185.002 94.8719 184.943L97.0587 179.194L116.225 170.897C116.697 170.742 117.086 170.473 117.332 170.134C117.578 169.795 117.667 169.404 117.585 169.023V148.373C117.569 148.265 117.54 148.158 117.497 148.053Z" fill="#FAFAFA"/>
<path d="M116.635 148.256C116.639 148.295 116.639 148.334 116.635 148.373V169.01C116.635 169.663 116.635 169.911 115.72 170.316L96.597 178.612L96.2833 178.743L96.1788 179.004L94.3754 183.767L92.8681 181.095L92.4674 180.396L91.5962 180.781L86.7086 182.898L86.5692 182.95C86.5635 182.909 86.5635 182.867 86.5692 182.826V162.177C86.5854 161.948 86.6687 161.725 86.8132 161.523L86.9003 161.406C87.068 161.167 87.3177 160.966 87.6234 160.824L116.496 148.314L116.644 148.269L116.635 148.256ZM116.722 147.583C116.485 147.588 116.254 147.64 116.051 147.733L87.1704 160.243C86.7262 160.443 86.3597 160.727 86.1075 161.066C85.8441 161.404 85.6946 161.785 85.6719 162.177V182.813C85.6719 183.323 86.0117 183.623 86.5431 183.623C86.668 183.62 86.7915 183.603 86.909 183.571H86.9526C87.0399 183.545 87.1244 183.515 87.2052 183.479L92.0927 181.356L94.1401 184.975C94.1736 185.033 94.2297 185.081 94.3009 185.114C94.3722 185.147 94.4551 185.162 94.5386 185.159C94.6221 185.155 94.7021 185.133 94.768 185.094C94.8338 185.055 94.8822 185.003 94.9068 184.943L97.0936 179.194L116.26 170.898C116.732 170.742 117.121 170.473 117.367 170.134C117.613 169.795 117.702 169.404 117.619 169.023V148.373C117.618 148.266 117.603 148.159 117.576 148.053C117.543 147.916 117.446 147.792 117.302 147.703C117.159 147.615 116.978 147.567 116.792 147.57L116.722 147.583Z" fill="#FF9900"/>
<path opacity="0.1" d="M82.3359 181.363C82.3626 181.755 82.5121 182.137 82.7725 182.477C83.0329 182.818 83.3967 183.107 83.8344 183.323L84.1655 183.473C84.5889 183.631 85.052 183.721 85.5247 183.737C85.9974 183.753 86.4693 183.694 86.9098 183.564C86.2041 183.767 85.664 183.466 85.664 182.82V162.177C85.6804 161.784 85.8336 161.401 86.1083 161.066L82.7715 159.616C82.5042 159.953 82.3544 160.335 82.3359 160.726V181.363Z" fill="#FF9900"/>
<path opacity="0.3" d="M117.497 148.054C117.323 147.577 116.731 147.401 116.042 147.721L87.1615 160.231C86.7203 160.437 86.3573 160.725 86.1074 161.067L82.7793 159.623C83.029 159.279 83.3919 158.989 83.8335 158.78L112.706 146.277C113.171 146.1 113.686 146.007 114.208 146.007C114.731 146.007 115.246 146.1 115.711 146.277L116.042 146.427C116.419 146.61 116.743 146.849 116.993 147.129C117.243 147.408 117.415 147.723 117.497 148.054Z" fill="white"/>
<path d="M88.5209 165.56C88.5061 165.524 88.5061 165.486 88.5209 165.449V162.836C88.5097 162.791 88.5097 162.744 88.5209 162.699C88.5402 162.666 88.574 162.638 88.6167 162.621L89.2875 162.333C89.5924 162.203 89.8277 162.222 89.9845 162.392C90.1715 162.712 90.2493 163.063 90.211 163.411C90.2282 163.825 90.1517 164.238 89.9845 164.633C89.8539 164.902 89.609 165.131 89.2875 165.286L88.6167 165.573C88.6167 165.573 88.5383 165.573 88.5209 165.56ZM89.2701 164.796C89.4421 164.707 89.5609 164.571 89.6012 164.417C89.6898 164.15 89.7279 163.875 89.7144 163.601C89.7376 163.356 89.6991 163.11 89.6012 162.876C89.5315 162.745 89.4182 162.719 89.2701 162.784L88.9913 162.902V164.92L89.2701 164.796Z" fill="#455A64"/>
<path d="M90.6389 164.646C90.6256 164.61 90.6256 164.571 90.6389 164.535V161.883C90.6285 161.839 90.6285 161.795 90.6389 161.752C90.6583 161.718 90.692 161.691 90.7347 161.674L91.8064 161.21C91.8064 161.21 91.8673 161.21 91.8761 161.21C91.8888 161.253 91.8888 161.297 91.8761 161.34V161.451C91.8869 161.499 91.8869 161.548 91.8761 161.595C91.8728 161.611 91.8649 161.627 91.8528 161.64C91.8408 161.654 91.8249 161.665 91.8064 161.674L91.1007 161.981V162.712L91.728 162.444C91.7315 162.439 91.7371 162.434 91.744 162.431C91.7509 162.428 91.759 162.426 91.7671 162.426C91.7753 162.426 91.7833 162.428 91.7903 162.431C91.7972 162.434 91.8028 162.439 91.8064 162.444C91.8138 162.486 91.8138 162.527 91.8064 162.568V162.68C91.8123 162.73 91.8123 162.78 91.8064 162.83C91.7928 162.86 91.7649 162.886 91.728 162.902L91.1007 163.176V163.98L91.8064 163.673C91.8064 163.673 91.8673 163.673 91.8761 163.673C91.8897 163.715 91.8897 163.76 91.8761 163.803V163.914C91.8869 163.964 91.8869 164.015 91.8761 164.064C91.8662 164.094 91.8412 164.12 91.8064 164.136L90.7347 164.6C90.7347 164.6 90.6563 164.659 90.6389 164.646Z" fill="#455A64"/>
<path d="M92.3203 163.921C92.3203 163.921 92.3203 163.868 92.3203 163.81V161.118C92.3217 161.074 92.3407 161.031 92.3749 160.995C92.409 160.959 92.4568 160.931 92.512 160.916L92.6252 160.863C92.6653 160.841 92.7145 160.829 92.7646 160.831C92.7646 160.831 92.8082 160.864 92.8082 160.909V163.281L93.4355 163.013C93.4355 163.013 93.4877 163.013 93.5052 163.013C93.5181 163.054 93.5181 163.096 93.5052 163.137V163.248C93.5161 163.298 93.5161 163.348 93.5052 163.398C93.4946 163.428 93.4697 163.453 93.4355 163.47L92.4423 163.901C92.3639 163.934 92.3377 163.934 92.3203 163.921Z" fill="#455A64"/>
<path d="M93.7832 163.202V160.472C93.7844 160.427 93.8022 160.384 93.8346 160.347C93.8669 160.31 93.9125 160.281 93.9662 160.262L94.0881 160.21C94.2101 160.158 94.2711 160.171 94.2711 160.256V163.026C94.2693 163.069 94.2511 163.111 94.2187 163.147C94.1863 163.183 94.1411 163.211 94.0881 163.228L93.9662 163.281C93.8442 163.307 93.7832 163.287 93.7832 163.202Z" fill="#455A64"/>
<path d="M95.1423 162.66L94.5586 160.171C94.5586 160.132 94.5586 160.112 94.5586 160.106C94.5606 160.073 94.5793 160.043 94.6109 160.021C94.6475 159.984 94.6953 159.955 94.7503 159.936L94.8635 159.89C94.9681 159.844 95.0203 159.851 95.0378 159.89L95.4124 161.765V162.013V161.726L95.7957 159.531C95.8044 159.492 95.8256 159.454 95.8574 159.423C95.8893 159.391 95.9309 159.365 95.9787 159.348L96.0832 159.309C96.2052 159.25 96.2749 159.25 96.2749 159.309C96.277 159.335 96.277 159.361 96.2749 159.387L95.6912 162.386C95.6786 162.419 95.6566 162.451 95.6265 162.478C95.5965 162.505 95.5591 162.527 95.5169 162.542L95.273 162.647C95.212 162.706 95.151 162.706 95.1423 162.66Z" fill="#455A64"/>
<path d="M98.2793 161.262V158.564C98.2689 158.521 98.2689 158.477 98.2793 158.433C98.3017 158.401 98.3348 158.374 98.3752 158.355L98.9676 158.1C99.4642 157.885 99.7082 158.048 99.7082 158.584C99.7214 158.892 99.5989 159.195 99.3596 159.446C99.4555 159.446 99.5426 159.583 99.6123 159.799L99.8301 160.524V160.57C99.8301 160.635 99.7691 160.7 99.6384 160.752L99.5252 160.798C99.4119 160.85 99.3509 160.844 99.3335 160.798L99.1331 160.073C99.1233 160.015 99.0899 159.96 99.0373 159.916C99.0373 159.916 98.9415 159.916 98.8631 159.916L98.7237 159.975V161.066C98.7201 161.11 98.7002 161.152 98.6664 161.188C98.6325 161.224 98.586 161.252 98.532 161.269L98.4361 161.314C98.3403 161.353 98.2793 161.34 98.2793 161.262ZM99.0199 159.374C99.1052 159.329 99.1644 159.261 99.1854 159.185C99.2381 159.078 99.2618 158.965 99.2551 158.851C99.2684 158.76 99.2473 158.667 99.1941 158.584C99.1819 158.574 99.1671 158.566 99.1506 158.56C99.1341 158.555 99.1163 158.552 99.0983 158.552C99.0803 158.552 99.0625 158.555 99.046 158.56C99.0295 158.566 99.0147 158.574 99.0025 158.584L98.7585 158.688V159.505L99.0199 159.374Z" fill="#455A64"/>
<path d="M100.518 160.289V159.106L99.9344 157.865C99.9281 157.837 99.9281 157.808 99.9344 157.78C99.9344 157.721 99.9954 157.669 100.126 157.61L100.274 157.551C100.309 157.53 100.351 157.516 100.396 157.512C100.409 157.512 100.421 157.515 100.43 157.521C100.44 157.527 100.446 157.536 100.448 157.545L100.797 158.486L101.145 157.244C101.153 157.212 101.175 157.182 101.206 157.16C101.242 157.133 101.283 157.111 101.328 157.094L101.442 157.042C101.581 156.983 101.651 156.983 101.651 157.042C101.654 157.077 101.654 157.112 101.651 157.146L101.058 158.91V160.086C101.055 160.129 101.036 160.17 101.004 160.206C100.971 160.242 100.927 160.27 100.875 160.289L100.762 160.334C100.57 160.413 100.518 160.374 100.518 160.289Z" fill="#455A64"/>
<path d="M102.174 159.609C102.171 159.585 102.171 159.561 102.174 159.537L102.775 156.559C102.786 156.516 102.809 156.477 102.844 156.443C102.879 156.409 102.924 156.381 102.975 156.363L103.167 156.278C103.289 156.232 103.35 156.238 103.367 156.278L103.969 158.74C103.967 158.762 103.967 158.784 103.969 158.806C103.964 158.839 103.947 158.871 103.92 158.898C103.892 158.925 103.854 158.945 103.812 158.956L103.672 159.021C103.559 159.067 103.507 159.067 103.498 159.021L103.376 158.492L102.74 158.767L102.627 159.42C102.615 159.452 102.594 159.482 102.565 159.508C102.537 159.534 102.501 159.555 102.461 159.57L102.322 159.629C102.226 159.668 102.174 159.668 102.174 159.609ZM103.324 158.087L103.132 157.186C103.132 157.101 103.132 157.009 103.089 156.905C103.089 157.022 103.089 157.127 103.045 157.225L102.853 158.296L103.324 158.087Z" fill="#455A64"/>
<path d="M104.264 158.74C104.264 158.74 104.264 158.695 104.264 158.636V155.984C104.253 155.94 104.253 155.896 104.264 155.853C104.286 155.821 104.319 155.794 104.36 155.775L105.03 155.487C105.344 155.35 105.571 155.37 105.727 155.546C105.923 155.864 106.004 156.216 105.963 156.565C105.981 156.979 105.902 157.393 105.727 157.787C105.607 158.06 105.36 158.292 105.03 158.44L104.36 158.734C104.316 158.76 104.29 158.76 104.264 158.74ZM105.013 157.983C105.183 157.891 105.304 157.757 105.353 157.604C105.434 157.334 105.469 157.057 105.457 156.781C105.477 156.536 105.441 156.291 105.353 156.056C105.274 155.931 105.161 155.899 105.013 155.964L104.734 156.088V158.107L105.013 157.983Z" fill="#455A64"/>
<path d="M106.381 157.8C106.368 157.766 106.368 157.729 106.381 157.695V155.043C106.37 155 106.37 154.955 106.381 154.912C106.404 154.88 106.437 154.853 106.477 154.834L107.148 154.54C107.462 154.409 107.688 154.429 107.845 154.605C108.037 154.924 108.115 155.276 108.071 155.624C108.092 156.038 108.015 156.452 107.845 156.846C107.724 157.119 107.477 157.351 107.148 157.499L106.477 157.787C106.477 157.787 106.407 157.845 106.381 157.8ZM107.13 157.042C107.303 156.949 107.423 156.812 107.47 156.657C107.54 156.388 107.564 156.113 107.54 155.84C107.559 155.596 107.524 155.35 107.435 155.115C107.357 154.991 107.244 154.958 107.096 155.023L106.817 155.147V157.16L107.13 157.042Z" fill="#455A64"/>
<path d="M108.464 156.846V154.155C108.449 154.112 108.449 154.067 108.464 154.024C108.484 153.99 108.517 153.963 108.56 153.945L109.152 153.691C109.64 153.475 109.884 153.638 109.884 154.174C109.895 154.481 109.776 154.783 109.544 155.036C109.64 155.036 109.719 155.174 109.788 155.389L110.015 156.108C110.015 156.173 109.945 156.238 109.815 156.291L109.71 156.336C109.597 156.389 109.527 156.382 109.518 156.336L109.318 155.611C109.318 155.526 109.257 155.474 109.213 155.455C109.17 155.435 109.118 155.455 109.039 155.455L108.909 155.513V156.559C108.904 156.604 108.883 156.647 108.847 156.684C108.812 156.721 108.764 156.75 108.708 156.768L108.612 156.813C108.525 156.944 108.464 156.931 108.464 156.846ZM109.213 154.965C109.296 154.917 109.354 154.851 109.379 154.775C109.427 154.668 109.45 154.555 109.449 154.442C109.46 154.35 109.436 154.257 109.379 154.174C109.332 154.131 109.272 154.131 109.196 154.174L108.943 154.285V155.095L109.213 154.965Z" fill="#455A64"/>
<path d="M110.381 156.095C110.368 156.061 110.368 156.024 110.381 155.99V153.338C110.37 153.295 110.37 153.25 110.381 153.207C110.401 153.174 110.434 153.146 110.477 153.129L111.549 152.665C111.549 152.665 111.61 152.665 111.627 152.665C111.635 152.706 111.635 152.748 111.627 152.789V152.9C111.633 152.95 111.633 153.001 111.627 153.051C111.614 153.081 111.586 153.106 111.549 153.122L110.843 153.429V154.168L111.47 153.893C111.475 153.889 111.481 153.886 111.488 153.883C111.495 153.881 111.502 153.88 111.509 153.88C111.517 153.88 111.524 153.881 111.531 153.883C111.538 153.886 111.544 153.889 111.549 153.893C111.556 153.937 111.556 153.98 111.549 154.024V154.135C111.555 154.183 111.555 154.231 111.549 154.279C111.543 154.295 111.534 154.31 111.52 154.324C111.507 154.337 111.49 154.349 111.47 154.357L110.843 154.631V155.435L111.549 155.128C111.549 155.128 111.61 155.128 111.627 155.128C111.635 155.169 111.635 155.211 111.627 155.252V155.363C111.633 155.413 111.633 155.463 111.627 155.513C111.614 155.544 111.586 155.569 111.549 155.585L110.477 156.055C110.434 156.108 110.399 156.114 110.381 156.095Z" fill="#455A64"/>
<path d="M112.202 155.317C112.157 155.325 112.11 155.324 112.064 155.316C112.019 155.309 111.977 155.293 111.941 155.272C111.939 155.254 111.939 155.237 111.941 155.219C111.941 155.219 111.941 155.18 111.941 155.154C111.944 155.077 111.959 155 111.984 154.925C111.992 154.867 112.03 154.813 112.089 154.775H112.158H112.219C112.272 154.794 112.331 154.804 112.389 154.804C112.448 154.804 112.506 154.794 112.559 154.775C112.661 154.731 112.742 154.665 112.794 154.586C112.868 154.493 112.904 154.386 112.899 154.279C112.911 154.195 112.88 154.111 112.812 154.043C112.733 153.997 112.641 153.965 112.542 153.952C112.434 153.931 112.331 153.898 112.237 153.854C112.151 153.8 112.085 153.73 112.045 153.651C111.997 153.533 111.977 153.409 111.984 153.286C111.98 153.046 112.052 152.808 112.193 152.593C112.319 152.405 112.512 152.247 112.751 152.136C112.828 152.102 112.914 152.079 113.004 152.071C113.074 152.054 113.15 152.054 113.221 152.071C113.23 152.085 113.234 152.101 113.234 152.116C113.234 152.132 113.23 152.148 113.221 152.162C113.232 152.238 113.232 152.315 113.221 152.391C113.221 152.476 113.16 152.528 113.125 152.541H113.047C112.95 152.533 112.852 152.549 112.768 152.587C112.667 152.631 112.585 152.697 112.533 152.776C112.482 152.856 112.456 152.943 112.455 153.031C112.45 153.099 112.468 153.166 112.507 153.227C112.533 153.263 112.572 153.292 112.62 153.312L112.855 153.364C113.009 153.392 113.144 153.459 113.239 153.554C113.338 153.694 113.381 153.853 113.361 154.011C113.362 154.174 113.332 154.337 113.274 154.494C113.218 154.647 113.126 154.79 113.004 154.919C112.895 155.043 112.749 155.146 112.577 155.219C112.465 155.276 112.336 155.31 112.202 155.317Z" fill="#455A64"/>
<path d="M113.804 154.625C113.759 154.632 113.712 154.632 113.667 154.624C113.622 154.616 113.579 154.601 113.543 154.579C113.541 154.562 113.541 154.544 113.543 154.527C113.538 154.505 113.538 154.483 113.543 154.462C113.546 154.384 113.561 154.308 113.587 154.233C113.587 154.148 113.648 154.096 113.682 154.083H113.761H113.822C113.878 154.098 113.938 154.104 113.997 154.098C114.056 154.092 114.113 154.076 114.162 154.05C114.262 154.008 114.344 153.944 114.397 153.867C114.469 153.774 114.505 153.668 114.501 153.56C114.513 153.476 114.482 153.392 114.414 153.325C114.336 153.278 114.243 153.247 114.144 153.233C114.036 153.212 113.934 153.179 113.839 153.135C113.753 153.081 113.687 153.012 113.648 152.933C113.599 152.814 113.579 152.691 113.587 152.567C113.582 152.327 113.654 152.09 113.796 151.875C113.919 151.685 114.113 151.526 114.353 151.417C114.432 151.384 114.517 151.359 114.606 151.346C114.677 151.332 114.752 151.332 114.824 151.346C114.84 151.357 114.852 151.372 114.859 151.387C114.867 151.403 114.87 151.42 114.867 151.437C114.878 151.513 114.878 151.59 114.867 151.666C114.867 151.751 114.806 151.803 114.771 151.816C114.746 151.823 114.718 151.823 114.693 151.816C114.595 151.814 114.499 151.832 114.414 151.868C114.313 151.913 114.231 151.979 114.179 152.058C114.128 152.137 114.101 152.224 114.101 152.312C114.095 152.38 114.113 152.447 114.153 152.508C114.153 152.548 114.223 152.58 114.266 152.587L114.501 152.645C114.656 152.671 114.793 152.738 114.885 152.835C114.981 152.976 115.023 153.134 115.007 153.292C115.008 153.453 114.979 153.614 114.919 153.769C114.865 153.924 114.774 154.07 114.649 154.2C114.541 154.324 114.395 154.427 114.223 154.501C114.1 154.569 113.956 154.612 113.804 154.625Z" fill="#455A64"/>
<path d="M100.004 167.285C100.004 165.116 98.0962 164.189 95.7526 165.201C94.4921 165.843 93.451 166.699 92.7139 167.698C91.9767 168.698 91.5642 169.815 91.5098 170.956V171.453C91.5098 173.119 94.0276 175.052 95.1863 175.856C95.2514 175.897 95.3283 175.927 95.411 175.943C95.4937 175.959 95.5803 175.961 95.6641 175.949C95.7479 175.936 95.8269 175.909 95.895 175.871C95.9631 175.832 96.0187 175.782 96.0575 175.725C97.0594 174.19 99.978 169.565 99.978 167.775L100.004 167.285ZM95.7526 170.715C94.5852 171.224 93.6268 170.813 93.6268 169.8C93.6681 169.247 93.8819 168.709 94.2511 168.229C94.6204 167.749 95.1346 167.341 95.7526 167.037C96.9287 166.534 97.8784 166.945 97.8784 167.958C97.8399 168.511 97.6271 169.049 97.2576 169.528C96.8881 170.007 96.3723 170.414 95.7526 170.715Z" fill="#FF9900"/>
<path d="M103.262 162.634C103.206 162.635 103.15 162.624 103.101 162.604C103.052 162.583 103.012 162.553 102.983 162.516C102.962 162.488 102.948 162.458 102.942 162.426C102.937 162.394 102.94 162.361 102.951 162.33C102.962 162.299 102.982 162.27 103.008 162.245C103.035 162.22 103.068 162.199 103.105 162.183L112.819 157.976C112.856 157.959 112.896 157.947 112.939 157.942C112.981 157.937 113.025 157.938 113.066 157.946C113.108 157.954 113.147 157.968 113.181 157.988C113.215 158.008 113.243 158.033 113.264 158.061C113.285 158.089 113.299 158.12 113.305 158.151C113.311 158.183 113.308 158.216 113.296 158.247C113.285 158.278 113.265 158.307 113.239 158.332C113.212 158.357 113.179 158.379 113.142 158.394L103.428 162.601C103.378 162.625 103.321 162.636 103.262 162.634Z" fill="#FF9900"/>
<path d="M103.263 164.162C103.206 164.162 103.15 164.15 103.101 164.129C103.052 164.107 103.012 164.076 102.984 164.038C102.943 163.982 102.932 163.915 102.955 163.853C102.978 163.791 103.032 163.738 103.106 163.705L112.82 159.498C112.857 159.482 112.898 159.472 112.941 159.468C112.983 159.464 113.026 159.466 113.068 159.475C113.109 159.483 113.148 159.498 113.181 159.518C113.215 159.537 113.243 159.562 113.265 159.59C113.286 159.618 113.299 159.648 113.305 159.68C113.31 159.712 113.307 159.744 113.296 159.775C113.284 159.806 113.265 159.835 113.239 159.86C113.212 159.886 113.18 159.907 113.143 159.923L103.428 164.13C103.378 164.151 103.321 164.162 103.263 164.162Z" fill="#FF9900"/>
<path d="M103.263 167.213C103.206 167.213 103.15 167.201 103.101 167.179C103.052 167.157 103.012 167.126 102.984 167.089C102.943 167.033 102.932 166.966 102.955 166.904C102.978 166.842 103.032 166.789 103.106 166.756L112.82 162.549C112.895 162.517 112.984 162.508 113.068 162.526C113.151 162.543 113.222 162.584 113.265 162.64C113.307 162.697 113.318 162.763 113.296 162.826C113.273 162.888 113.218 162.941 113.143 162.974L103.428 167.18C103.378 167.201 103.321 167.212 103.263 167.213Z" fill="#FF9900"/>
<path d="M103.262 168.742C103.205 168.741 103.149 168.73 103.1 168.708C103.052 168.686 103.011 168.655 102.983 168.618C102.962 168.59 102.948 168.559 102.942 168.527C102.937 168.495 102.94 168.463 102.951 168.432C102.962 168.401 102.982 168.372 103.008 168.346C103.035 168.321 103.068 168.3 103.105 168.284L112.819 164.078C112.857 164.061 112.898 164.051 112.94 164.047C112.983 164.042 113.026 164.045 113.067 164.053C113.109 164.062 113.147 164.076 113.181 164.096C113.215 164.116 113.243 164.141 113.264 164.169C113.305 164.226 113.316 164.292 113.293 164.354C113.27 164.416 113.216 164.469 113.142 164.502L103.428 168.709C103.377 168.73 103.32 168.741 103.262 168.742Z" fill="#FF9900"/>
<path d="M103.262 170.264C103.206 170.265 103.15 170.254 103.101 170.234C103.052 170.213 103.012 170.183 102.983 170.146C102.962 170.119 102.948 170.088 102.942 170.056C102.937 170.024 102.94 169.992 102.951 169.961C102.962 169.929 102.982 169.9 103.008 169.875C103.035 169.85 103.068 169.829 103.105 169.813L112.819 165.639C112.856 165.621 112.896 165.61 112.939 165.605C112.981 165.599 113.025 165.601 113.066 165.609C113.108 165.617 113.147 165.631 113.181 165.651C113.215 165.671 113.243 165.695 113.264 165.724C113.285 165.752 113.299 165.782 113.305 165.814C113.311 165.846 113.308 165.879 113.296 165.91C113.285 165.941 113.265 165.97 113.239 165.995C113.212 166.02 113.179 166.041 113.142 166.057L103.428 170.212C103.382 170.242 103.324 170.261 103.262 170.264Z" fill="#FF9900"/>
<path d="M103.262 171.793C103.205 171.792 103.149 171.78 103.1 171.759C103.052 171.737 103.011 171.706 102.983 171.668C102.962 171.641 102.948 171.61 102.942 171.578C102.937 171.546 102.94 171.514 102.951 171.483C102.962 171.452 102.982 171.423 103.008 171.397C103.035 171.372 103.068 171.351 103.105 171.335L112.819 167.128C112.895 167.096 112.984 167.088 113.067 167.105C113.15 167.122 113.221 167.163 113.264 167.22C113.307 167.276 113.318 167.343 113.295 167.405C113.272 167.468 113.217 167.521 113.142 167.553L103.428 171.76C103.377 171.781 103.32 171.792 103.262 171.793Z" fill="#FF9900"/>
<path d="M103.262 173.315C103.206 173.316 103.15 173.305 103.101 173.284C103.052 173.264 103.012 173.234 102.983 173.197C102.962 173.169 102.948 173.138 102.942 173.107C102.937 173.075 102.94 173.042 102.951 173.011C102.962 172.98 102.982 172.951 103.008 172.926C103.035 172.901 103.068 172.879 103.105 172.864L112.819 168.657C112.856 168.639 112.897 168.627 112.94 168.622C112.983 168.617 113.027 168.618 113.069 168.626C113.112 168.633 113.151 168.647 113.186 168.667C113.221 168.687 113.25 168.711 113.272 168.74C113.294 168.768 113.308 168.799 113.313 168.831C113.318 168.864 113.315 168.897 113.303 168.928C113.29 168.959 113.27 168.989 113.242 169.014C113.215 169.039 113.18 169.06 113.142 169.075L103.428 173.282C103.378 173.306 103.321 173.317 103.262 173.315Z" fill="#FF9900"/>
</svg>
