<svg width="32" height="32" viewBox="0 0 32 32" fill="none" xmlns="http://www.w3.org/2000/svg">
<path d="M9.71932 6.54348C13.8988 6.18017 18.102 6.18017 22.2815 6.54348L24.2952 6.71853C25.6357 6.83505 26.7837 7.63461 27.3786 8.77831C27.4547 8.92463 27.3977 9.10178 27.2574 9.18859L18.9028 14.3605C17.111 15.4697 14.8517 15.493 13.0374 14.4209L4.62693 9.4511C4.49105 9.37081 4.42868 9.20553 4.48991 9.06006C5.03412 7.7673 6.25763 6.8444 7.70567 6.71853L9.71932 6.54348Z" fill="white"/>
<path d="M4.48307 11.6892C4.27512 11.5663 4.00978 11.6985 3.98554 11.9389C3.64723 15.293 3.72911 18.679 4.23119 22.0178C4.49587 23.7779 5.93241 25.1273 7.70567 25.2815L9.71932 25.4565C13.8988 25.8198 18.102 25.8198 22.2815 25.4565L24.2952 25.2815C26.0684 25.1273 27.505 23.7779 27.7697 22.0178C28.2864 18.5817 28.358 15.0957 27.9846 11.6457C27.9585 11.4037 27.6886 11.2739 27.4816 11.402L19.9555 16.061C17.5313 17.5617 14.4745 17.5932 12.0199 16.1428L4.48307 11.6892Z" fill="white"/>
</svg>
