<svg width="32" height="32" viewBox="0 0 32 32" fill="none" xmlns="http://www.w3.org/2000/svg">
<path d="M6.6664 13.1473C9.2216 18.7125 13.7683 23.1372 19.421 25.5358L20.3271 25.9396C22.4002 26.8632 24.8372 26.1615 26.1017 24.2768L27.2858 22.5119C27.6708 21.938 27.5535 21.1652 27.0157 20.7313L22.9999 17.4916C22.4101 17.0157 21.5427 17.1265 21.0915 17.7354L19.8492 19.4118C16.6615 17.8393 14.0734 15.2512 12.5009 12.0635L14.1773 10.8212C14.7861 10.37 14.897 9.50262 14.4211 8.91277L11.1813 4.89685C10.7475 4.35914 9.97484 4.24185 9.40102 4.62661L7.6239 5.81821C5.72744 7.08982 5.0296 9.54695 5.97458 11.6255L6.66536 13.145L6.6664 13.1473Z" fill="white"/>
</svg>
