<svg width="18" height="17" viewBox="0 0 18 17" fill="none" xmlns="http://www.w3.org/2000/svg">
<path d="M4.04431 17H0.316871V5.64965H4.04431V17ZM2.1789 4.10149C1.74996 4.10338 1.33006 3.98495 0.972293 3.76118C0.61453 3.53742 0.334975 3.21836 0.16898 2.84436C0.00298397 2.47037 -0.0419968 2.05822 0.0397254 1.66005C0.121448 1.26188 0.326202 0.895567 0.628097 0.607431C0.929992 0.319295 1.31547 0.122278 1.73578 0.0412942C2.15609 -0.0396896 2.59236 -0.00100286 2.98942 0.152462C3.38648 0.305927 3.72649 0.567278 3.96647 0.903465C4.20644 1.23965 4.3356 1.63558 4.3376 2.04117C4.33822 2.58447 4.11162 3.10597 3.70723 3.49193C3.30284 3.87789 2.75346 4.097 2.1789 4.10149ZM18 17H14.2804V11.4746C14.2804 10.1581 14.2523 8.46864 12.342 8.46864C10.4035 8.46864 10.1069 9.89886 10.1069 11.379V17H6.37943V5.64965H9.95516V7.19781H10.0069C10.3644 6.61912 10.8814 6.14301 11.5026 5.82022C12.1238 5.49743 12.8259 5.34006 13.5343 5.36488C17.3067 5.36488 18 7.71422 18 10.7649V17Z" fill="white"/>
</svg>
