<svg width="14" height="14" viewBox="0 0 14 14" fill="none" xmlns="http://www.w3.org/2000/svg">
<path d="M7.35242 7.375C6.63673 8.08822 5.80165 8.68171 4.87976 9.12289L3.7403 7.98343C3.15802 8.21213 2.5402 8.37012 1.89742 8.44681C1.40387 8.50569 0.999515 8.90294 0.999515 9.4V9.4C0.999515 11.3882 2.64688 13.0541 4.54651 12.4672C7.31582 11.6115 9.6568 9.78032 11.168 7.375" stroke="#6B006D" stroke-width="2" stroke-linecap="round" stroke-linejoin="round"/>
<path d="M7.3529 7.375C8.07597 6.65443 8.67716 5.81164 9.12288 4.88025L7.98342 3.74079C8.21213 3.15851 8.37012 2.54069 8.4468 1.89791C8.50569 1.40435 8.90294 1 9.4 1V1C11.3882 1 13.0541 2.64716 12.4672 4.54679C12.1565 5.55242 11.7172 6.50156 11.1685 7.375" stroke="#FF9900" stroke-width="2" stroke-linecap="round" stroke-linejoin="round"/>
</svg>
