<svg width="18" height="15" viewBox="0 0 18 15" fill="none" xmlns="http://www.w3.org/2000/svg">
<path d="M16.1494 3.50231C16.1606 3.65586 16.1606 3.80941 16.1606 3.96296C16.1702 5.29042 15.9052 6.60647 15.3811 7.83466C14.857 9.06285 14.0843 10.1787 13.1077 11.1174C12.1311 12.056 10.9702 12.7988 9.69241 13.3026C8.41463 13.8063 7.04543 14.061 5.66437 14.0518C3.65582 14.0557 1.68886 13.5019 0 12.4569C0.295846 12.4883 0.593355 12.5031 0.891 12.5012C2.55123 12.5055 4.16459 11.9722 5.47087 10.9873C4.70196 10.9733 3.95673 10.7291 3.33905 10.2888C2.72137 9.84838 2.26202 9.23375 2.025 8.53052C2.25536 8.56566 2.48814 8.58409 2.72137 8.58567C3.04901 8.58464 3.3752 8.54395 3.69225 8.46456C2.85644 8.30266 2.10475 7.86754 1.56495 7.23318C1.02515 6.59881 0.730562 5.80435 0.73125 4.98482V4.94049C1.24234 5.21466 1.81363 5.3688 2.3985 5.39032C1.61574 4.88837 1.06174 4.11825 0.84954 3.23709C0.637343 2.35594 0.78294 1.43016 1.25662 0.648669C2.18324 1.74478 3.33919 2.64148 4.6495 3.28062C5.95982 3.91976 7.39526 4.28707 8.86275 4.35873C8.80477 4.09162 8.77536 3.81951 8.775 3.54665C8.77548 2.83536 8.99831 2.14062 9.41459 1.55255C9.83087 0.964472 10.4214 0.510196 11.1096 0.248645C11.7977 -0.0129061 12.5518 -0.0696642 13.2739 0.0857326C13.996 0.241129 14.6529 0.60151 15.1594 1.12013C15.9855 0.967138 16.7776 0.677357 17.5005 0.263713C17.2253 1.08317 16.6485 1.77795 15.8783 2.21769C16.61 2.1375 17.3251 1.95271 18 1.66945C17.4953 2.37803 16.8696 2.99954 16.1494 3.50772V3.50231Z" fill="white"/>
</svg>
