<svg width="18" height="17" viewBox="0 0 18 17" fill="none" xmlns="http://www.w3.org/2000/svg">
<path d="M9.00562 4.14334C8.09339 4.14334 7.20164 4.39885 6.44314 4.87757C5.68464 5.35629 5.09346 6.0367 4.74436 6.83278C4.39527 7.62885 4.30393 8.50483 4.48189 9.34994C4.65986 10.1951 5.09915 10.9713 5.7442 11.5806C6.38925 12.1899 7.21109 12.6048 8.1058 12.7729C9.00051 12.941 9.9279 12.8548 10.7707 12.525C11.6135 12.1953 12.3338 11.6369 12.8407 10.9204C13.3475 10.204 13.618 9.36167 13.618 8.5C13.6187 7.92768 13.4999 7.36084 13.2684 6.83195C13.0369 6.30306 12.6971 5.82251 12.2687 5.41782C11.8403 5.01313 11.3315 4.69224 10.7716 4.47355C10.2116 4.25485 9.61154 4.14264 9.00562 4.14334ZM9.00562 11.3318C8.41245 11.3318 7.83259 11.1657 7.33938 10.8544C6.84617 10.5431 6.46176 10.1007 6.23477 9.58304C6.00777 9.0654 5.94837 8.4958 6.0641 7.94627C6.17982 7.39674 6.46546 6.89197 6.8849 6.49578C7.30434 6.09959 7.83874 5.82979 8.42052 5.72048C9.0023 5.61117 9.60533 5.66727 10.1534 5.88169C10.7014 6.0961 11.1698 6.4592 11.4993 6.92507C11.8289 7.39093 12.0048 7.93864 12.0048 8.49894C12.0033 9.24984 11.6868 9.96958 11.1247 10.5005C10.5626 11.0315 9.80059 11.3304 9.00562 11.3318ZM14.8847 3.9627C14.8847 4.16383 14.8215 4.36043 14.7033 4.52766C14.585 4.69489 14.4168 4.82523 14.2201 4.9022C14.0234 4.97917 13.8069 4.99931 13.5981 4.96007C13.3892 4.92083 13.1974 4.82398 13.0468 4.68176C12.8963 4.53955 12.7937 4.35835 12.7522 4.16109C12.7107 3.96383 12.732 3.75936 12.8135 3.57355C12.8949 3.38773 13.0329 3.22891 13.21 3.11717C13.387 3.00543 13.5952 2.94579 13.8081 2.94579C13.9494 2.94593 14.0893 2.97243 14.2198 3.02377C14.3502 3.07511 14.4686 3.15027 14.5682 3.24496C14.6679 3.33964 14.7467 3.45197 14.8002 3.57551C14.8538 3.69904 14.8809 3.83134 14.8802 3.96482L14.8847 3.9627ZM17.9401 4.99448C17.9699 3.67294 17.4478 2.39344 16.4866 1.43265C15.4674 0.52786 14.1142 0.0351825 12.7158 0.0597712C11.2297 -0.0199237 6.77707 -0.0199237 5.29099 0.0597712C3.89155 0.0329774 2.53668 0.525047 1.51673 1.43052C0.557289 2.3923 0.0354427 3.67114 0.0632793 4.99236C-0.0210931 6.39605 -0.0210931 10.6018 0.0632793 12.0055C0.033503 13.3271 0.555623 14.6066 1.51673 15.5674C2.53632 16.4716 3.8893 16.9641 5.28762 16.9402C6.77369 17.0199 11.2263 17.0199 12.7124 16.9402C14.1115 16.9684 15.4661 16.4752 16.4833 15.5674C17.4412 14.6047 17.9628 13.3264 17.9367 12.0055C18.0211 10.6018 18.0211 6.39924 17.9367 4.99236L17.9401 4.99448ZM16.0209 13.5091C15.8682 13.8749 15.6375 14.2071 15.3431 14.4851C15.0488 14.7631 14.6971 14.981 14.3098 15.1253C13.1252 15.5695 10.314 15.4664 9.00562 15.4664C7.69729 15.4664 4.8815 15.5652 3.70142 15.1253C3.31418 14.981 2.96247 14.7631 2.66813 14.4851C2.37378 14.2071 2.14308 13.8749 1.99034 13.5091C1.52011 12.3902 1.62923 9.73474 1.62923 8.49894C1.62923 7.26313 1.52461 4.60345 1.99034 3.48878C2.14284 3.12381 2.37296 2.79227 2.66649 2.51464C2.96003 2.23701 3.31073 2.01921 3.69692 1.87469C4.8815 1.43052 7.69279 1.5336 9.00562 1.5336C10.3185 1.5336 13.1297 1.43478 14.3098 1.87469C14.6971 2.01896 15.0488 2.23687 15.3431 2.5149C15.6375 2.79293 15.8682 3.12514 16.0209 3.49091C16.4911 4.60982 16.382 7.26526 16.382 8.50106C16.382 9.73687 16.4866 12.3944 16.0164 13.5112L16.0209 13.5091Z" fill="#6B006D"/>
</svg>
