<svg width="18" height="17" viewBox="0 0 18 17" fill="none" xmlns="http://www.w3.org/2000/svg">
<path d="M4.04431 16.7064H0.316871V5.55207H4.04431V16.7064ZM2.1789 4.03065C1.74996 4.0325 1.33006 3.91612 0.972293 3.69622C0.61453 3.47632 0.334975 3.16277 0.16898 2.79523C0.00298397 2.4277 -0.0419968 2.02267 0.0397254 1.63138C0.121448 1.24009 0.326202 0.880099 0.628097 0.596939C0.929992 0.31378 1.31547 0.120166 1.73578 0.0405809C2.15609 -0.039004 2.59236 -0.000985541 2.98942 0.149829C3.38648 0.300643 3.72649 0.557479 3.96647 0.88786C4.20644 1.21824 4.3356 1.60733 4.3376 2.00591C4.33822 2.53983 4.11162 3.05232 3.70723 3.43161C3.30284 3.81091 2.75346 4.02624 2.1789 4.03065ZM18 16.7064H14.2804V11.2764C14.2804 9.98267 14.2523 8.32237 12.342 8.32237C10.4035 8.32237 10.1069 9.72788 10.1069 11.1825V16.7064H6.37943V5.55207H9.95516V7.07349H10.0069C10.3644 6.50479 10.8814 6.0369 11.5026 5.71969C12.1238 5.40248 12.8259 5.24782 13.5343 5.27222C17.3067 5.27222 18 7.58097 18 10.5789V16.7064Z" fill="#6B006D"/>
</svg>
