<svg width="18" height="15" viewBox="0 0 18 15" fill="none" xmlns="http://www.w3.org/2000/svg">
<path d="M16.1494 4.40727C16.1606 4.55817 16.1606 4.70907 16.1606 4.85996C16.1702 6.16449 15.9052 7.45781 15.3811 8.66479C14.857 9.87177 14.0843 10.9683 13.1077 11.8908C12.1311 12.8133 10.9702 13.5432 9.69241 14.0383C8.41463 14.5333 7.04543 14.7836 5.66437 14.7746C3.65582 14.7784 1.68886 14.2341 0 13.2071C0.295846 13.2381 0.593355 13.2526 0.891 13.2507C2.55123 13.255 4.16459 12.7309 5.47087 11.763C4.70196 11.7493 3.95673 11.5093 3.33905 11.0765C2.72137 10.6437 2.26202 10.0397 2.025 9.34863C2.25536 9.38316 2.48814 9.40128 2.72137 9.40283C3.04901 9.40182 3.3752 9.36183 3.69225 9.28381C2.85644 9.1247 2.10475 8.6971 1.56495 8.07369C1.02515 7.45029 0.730562 6.66954 0.73125 5.86418V5.82061C1.24234 6.09005 1.81363 6.24152 2.3985 6.26267C1.61574 5.76939 1.06174 5.01257 0.84954 4.14663C0.637343 3.2807 0.78294 2.37092 1.25662 1.60292C2.18324 2.6801 3.33919 3.56131 4.6495 4.18941C5.95982 4.81751 7.39526 5.17847 8.86275 5.2489C8.80477 4.9864 8.77536 4.71899 8.775 4.45084C8.77548 3.75184 8.99831 3.0691 9.41459 2.49118C9.83087 1.91327 10.4214 1.46684 11.1096 1.2098C11.7977 0.952771 12.5518 0.896993 13.2739 1.04971C13.996 1.20242 14.6529 1.55657 15.1594 2.06624C15.9855 1.91589 16.7776 1.63111 17.5005 1.22461C17.2253 2.02992 16.6485 2.71269 15.8783 3.14484C16.61 3.06603 17.3251 2.88444 18 2.60607C17.4953 3.30241 16.8696 3.91318 16.1494 4.41259V4.40727Z" fill="#6B006D"/>
</svg>
