<svg width="207" height="185" viewBox="0 0 207 185" fill="none" xmlns="http://www.w3.org/2000/svg">
<path d="M45.7527 179.033C45.7527 179.033 70.6108 191.956 99.02 178.333C127.429 164.71 136.676 138.293 151.396 118.473C159.118 108.087 171.749 102.3 181.388 93.5673C212.199 65.6395 201.074 18.9502 172.893 6.13748C148.483 -4.95451 120.289 -0.979124 85.354 17.7967C50.4192 36.5725 25.2466 48.6941 6.90453 86.1123C-11.4375 123.53 14.8458 160.925 45.7527 179.033Z" fill="#F0F0F0"/>
<path opacity="0.8" d="M45.7527 179.033C45.7527 179.033 70.6108 191.956 99.02 178.333C127.429 164.71 136.676 138.293 151.396 118.473C159.118 108.087 171.749 102.3 181.388 93.5673C212.199 65.6395 201.074 18.9502 172.893 6.13748C148.483 -4.95451 120.289 -0.979124 85.354 17.7967C50.4192 36.5725 25.2466 48.6941 6.90453 86.1123C-11.4375 123.53 14.8458 160.925 45.7527 179.033Z" fill="#F0F0F0"/>
<path d="M165.998 120.842L179.273 149.814L170.922 152.169L161.074 139.909L165.998 120.842Z" fill="#FF9900"/>
<g opacity="0.1">
<path opacity="0.1" d="M163.605 130.118L163.043 132.306L174.068 151.282L175.651 150.839L163.605 130.118Z" fill="black"/>
<path opacity="0.1" d="M170.987 152.154L172.579 151.706L162.322 135.085L161.773 137.216L170.987 152.154Z" fill="black"/>
<path opacity="0.1" d="M164.968 124.841L164.387 127.101L177.047 150.443L178.61 150L164.968 124.841Z" fill="black"/>
</g>
<path d="M165.998 120.842L179.273 149.814L170.922 152.169L161.074 139.909L165.998 120.842Z" stroke="#263238" stroke-linecap="round" stroke-linejoin="round"/>
<path d="M139.597 112.772L122.309 120.737L131.527 158.141L128.591 173.876H161.39L158.144 156.778L166.105 120.842L147.977 113.402L139.597 112.772Z" fill="#FF9900"/>
<g opacity="0.1">
<path opacity="0.1" d="M139.761 173.876L140.423 158.976C140.43 158.906 140.43 158.836 140.423 158.766L133.631 115.528L131.629 116.448L138.302 158.99L137.64 173.876H139.761Z" fill="black"/>
<path opacity="0.1" d="M143.735 155.41C143.735 155.41 143.735 155.372 143.735 155.353L138.348 113.349L136.332 114.302L141.623 155.615L142.986 173.9H145.112L143.735 155.41Z" fill="black"/>
<path opacity="0.1" d="M133.76 173.876L135.667 159.333C135.684 159.225 135.684 159.116 135.667 159.009L128.398 117.944L126.41 118.859L133.56 159.218L131.653 173.876H133.76Z" fill="black"/>
<path opacity="0.1" d="M165.352 120.532L163.355 119.712L156.067 157.402C156.045 157.525 156.045 157.651 156.067 157.774L158.689 173.876H160.838L158.174 157.622L158.236 157.312L158.131 156.778L159.728 149.585L165.352 120.532Z" fill="black"/>
<path opacity="0.1" d="M146.253 117.053L144.137 117.115L145.896 173.876H148.012L146.253 117.053Z" fill="black"/>
<path opacity="0.1" d="M153.68 157.345L160.721 118.631L158.719 117.806L151.569 157.15C151.545 157.271 151.545 157.396 151.569 157.517L154.362 173.876H156.512L153.68 157.345Z" fill="black"/>
<path opacity="0.1" d="M149.836 156.03L155.189 116.357L153.163 115.528L147.72 155.877C147.708 155.963 147.708 156.049 147.72 156.135L149.693 173.876H151.824L149.836 156.03Z" fill="black"/>
</g>
<path d="M139.597 112.772L122.309 120.737L131.527 158.141L128.591 173.876H161.39L158.144 156.778L166.105 120.842L147.977 113.402L139.597 112.772Z" stroke="#263238" stroke-linecap="round" stroke-linejoin="round"/>
<path d="M122.31 120.737L108.691 150.229L117.386 152.064L127.234 139.804L122.31 120.737Z" fill="#FF9900"/>
<g opacity="0.1">
<path opacity="0.1" d="M125.884 134.599L116.398 151.859L117.38 152.063L119.649 149.237L126.461 136.844L125.884 134.599Z" fill="black"/>
<path opacity="0.1" d="M125.035 131.3L124.415 128.898L113.828 151.315L115.425 151.654L125.035 131.3Z" fill="black"/>
<path opacity="0.1" d="M110.371 150.581L111.968 150.92L123.68 126.052L123.055 123.64L110.371 150.581Z" fill="black"/>
</g>
<path d="M121.949 125.647L126.754 138.541L121.93 131.157" stroke="#263238" stroke-miterlimit="10"/>
<path d="M122.31 120.737L108.691 150.229L117.386 152.064L127.234 139.804L122.31 120.737Z" stroke="#263238" stroke-linecap="round" stroke-linejoin="round"/>
<path d="M118.01 147.664L135.194 167.26L131.857 171.03L110.202 153.784C110.202 153.784 107.232 152.354 109.015 149.447" fill="#FF9900"/>
<g opacity="0.1">
<path opacity="0.1" d="M133.392 168.623L135.003 167.246L126.337 157.159L118.01 147.664L115.77 148.108L133.392 168.623Z" fill="black"/>
<path opacity="0.1" d="M129.956 169.529L131.391 170.673L132.74 169.486L114.207 148.417L111.805 148.889L129.956 169.529Z" fill="black"/>
</g>
<path d="M118.01 147.664L135.194 167.26L131.857 171.03L110.202 153.784C110.202 153.784 107.232 152.354 109.015 149.447" stroke="#263238" stroke-linecap="round" stroke-linejoin="round"/>
<path d="M132.429 166.521C132.906 166.254 141.195 164.271 141.309 165.286C141.424 166.302 143.893 167.422 145.018 167.422C146.143 167.422 147.268 166.521 147.492 167.87C147.716 169.219 146.481 169.333 145.471 169.443C144.46 169.553 140.971 168.432 140.971 168.432C140.971 168.432 137.711 171.13 136.362 171.802C135.013 172.475 132.548 172.279 131.643 171.578C130.737 170.878 129.512 168.094 132.429 166.521Z" fill="white" stroke="#263238" stroke-linecap="round" stroke-linejoin="round"/>
<path d="M140.086 165.172C140.086 165.172 143.232 164.271 143.899 164.61C144.567 164.948 144.915 171.693 144.915 171.693C144.915 171.693 144.576 172.365 143.899 171.693C143.222 171.021 140.977 165.973 140.977 165.973" fill="white"/>
<path d="M140.086 165.172C140.086 165.172 143.232 164.271 143.899 164.61C144.567 164.948 144.915 171.693 144.915 171.693C144.915 171.693 144.576 172.365 143.899 171.693C143.222 171.021 140.977 165.973 140.977 165.973" stroke="#263238" stroke-linecap="round" stroke-linejoin="round"/>
<path d="M138.503 165.396C138.503 165.396 141.763 164.61 142.44 165.844C143.117 167.079 144.799 172.589 143.451 172.818C142.102 173.047 141.654 171.24 141.654 171.24L139.518 167.308L138.055 167.084" fill="white"/>
<path d="M138.503 165.396C138.503 165.396 141.763 164.61 142.44 165.844C143.117 167.079 144.799 172.589 143.451 172.818C142.102 173.047 141.654 171.24 141.654 171.24L139.518 167.308L138.055 167.084" stroke="#263238" stroke-linecap="round" stroke-linejoin="round"/>
<path d="M137.391 166.406C137.391 166.406 138.964 165.734 139.75 166.297C140.537 166.859 144.135 172.589 143.459 172.818C142.782 173.046 141.209 172.927 140.985 172.479C140.761 172.031 137.839 168.189 137.839 168.189" fill="white"/>
<path d="M137.391 166.406C137.391 166.406 138.964 165.734 139.75 166.297C140.537 166.859 144.135 172.589 143.459 172.818C142.782 173.046 141.209 172.927 140.985 172.479C140.761 172.031 137.839 168.189 137.839 168.189" stroke="#263238" stroke-linecap="round" stroke-linejoin="round"/>
<path d="M136.246 168.318C136.246 168.318 137.705 166.969 138.491 167.422C139.278 167.875 142.538 172.141 141.866 172.589C141.194 173.037 140.741 172.589 140.069 171.693C139.587 171.089 139.018 170.559 138.382 170.12L137.033 170.568" fill="white"/>
<path d="M136.246 168.318C136.246 168.318 137.705 166.969 138.491 167.422C139.278 167.875 142.538 172.141 141.866 172.589C141.194 173.037 140.741 172.589 140.069 171.693C139.587 171.089 139.018 170.559 138.382 170.12L137.033 170.568" stroke="#263238" stroke-linecap="round" stroke-linejoin="round"/>
<path d="M169.462 148.293L163.742 167.756L167.88 170.644L177.227 155.62C177.227 155.62 181.069 151.282 178.657 148.842" fill="#FF9900"/>
<g opacity="0.1">
<path opacity="0.1" d="M168.01 170.411L168.082 170.291L175.999 148.684L173.787 148.551L166.137 169.438L166.995 170.034L168.01 170.411Z" fill="black"/>
<path opacity="0.1" d="M163.75 167.77L165.547 169.028L172.935 148.56L172.73 148.489L170.752 148.37L163.75 167.77Z" fill="black"/>
<path opacity="0.1" d="M179.308 149.981C179.182 149.55 178.949 149.159 178.631 148.842L177.497 148.775L171.52 164.786L177.201 155.644L179.308 149.981Z" fill="black"/>
</g>
<path d="M169.462 148.293L163.742 167.756L167.88 170.644L177.227 155.62C177.227 155.62 181.069 151.282 178.657 148.842" stroke="#263238" stroke-linecap="round" stroke-linejoin="round"/>
<path d="M166.62 166.521C166.144 166.254 157.85 164.271 157.74 165.286C157.631 166.302 155.152 167.422 154.032 167.422C152.912 167.422 151.782 166.521 151.558 167.87C151.334 169.219 152.568 169.333 153.579 169.443C154.589 169.553 158.079 168.432 158.079 168.432C158.079 168.432 161.339 171.13 162.688 171.802C164.037 172.475 166.501 172.279 167.407 171.578C168.313 170.878 169.542 168.094 166.62 166.521Z" fill="white" stroke="#263238" stroke-linecap="round" stroke-linejoin="round"/>
<path d="M158.972 165.172C158.972 165.172 155.826 164.271 155.159 164.61C154.492 164.948 154.148 171.693 154.148 171.693C154.148 171.693 154.487 172.365 155.159 171.693C155.831 171.021 158.086 165.973 158.086 165.973" fill="white"/>
<path d="M158.972 165.172C158.972 165.172 155.826 164.271 155.159 164.61C154.492 164.948 154.148 171.693 154.148 171.693C154.148 171.693 154.487 172.365 155.159 171.693C155.831 171.021 158.086 165.973 158.086 165.973" stroke="#263238" stroke-linecap="round" stroke-linejoin="round"/>
<path d="M160.556 165.396C160.556 165.396 157.301 164.61 156.624 165.844C155.947 167.079 154.24 172.589 155.613 172.818C156.986 173.047 157.41 171.24 157.41 171.24L159.546 167.308L161.009 167.084" fill="white"/>
<path d="M160.556 165.396C160.556 165.396 157.301 164.61 156.624 165.844C155.947 167.079 154.24 172.589 155.613 172.818C156.986 173.047 157.41 171.24 157.41 171.24L159.546 167.308L161.009 167.084" stroke="#263238" stroke-linecap="round" stroke-linejoin="round"/>
<path d="M161.672 166.406C161.672 166.406 160.099 165.734 159.312 166.297C158.526 166.859 154.927 172.589 155.604 172.818C156.281 173.046 157.849 172.927 158.078 172.479C158.306 172.031 161.224 168.189 161.224 168.189" fill="white"/>
<path d="M161.672 166.406C161.672 166.406 160.099 165.734 159.312 166.297C158.526 166.859 154.927 172.589 155.604 172.818C156.281 173.046 157.849 172.927 158.078 172.479C158.306 172.031 161.224 168.189 161.224 168.189" stroke="#263238" stroke-linecap="round" stroke-linejoin="round"/>
<path d="M162.796 168.318C162.796 168.318 161.337 166.964 160.556 167.441C159.774 167.917 156.509 172.16 157.185 172.608C157.862 173.056 158.31 172.608 158.983 171.712C159.465 171.107 160.033 170.577 160.67 170.139L162.019 170.587" fill="white"/>
<path d="M162.796 168.318C162.796 168.318 161.337 166.964 160.556 167.441C159.774 167.917 156.509 172.16 157.185 172.608C157.862 173.056 158.31 172.608 158.983 171.712C159.465 171.107 160.033 170.577 160.67 170.139L162.019 170.587" stroke="#263238" stroke-linecap="round" stroke-linejoin="round"/>
<path d="M140.854 110.78C140.854 110.78 138.133 111.619 136.979 113.297C135.826 114.975 137.189 127.964 137.189 127.964L145.888 123.145L155.002 128.908C155.002 128.908 154.163 115.604 153.429 113.716C152.695 111.829 148.085 109.631 146.512 109.841C144.939 110.051 140.854 110.78 140.854 110.78Z" fill="#FF9900" stroke="#263238" stroke-linecap="round" stroke-linejoin="round"/>
<path d="M139.598 103.554V115.604L145.361 131.11L150.284 115.289V103.449L139.598 103.554Z" fill="white" stroke="#263238" stroke-linecap="round" stroke-linejoin="round"/>
<path d="M139.582 107.882C141.209 109.023 143.148 109.634 145.135 109.631C146.952 109.633 148.731 109.12 150.269 108.153V103.449L139.582 103.568V107.882Z" fill="#263238" stroke="#263238" stroke-linecap="round" stroke-linejoin="round"/>
<path d="M145.151 106.905C142.577 106.905 140.108 105.882 138.287 104.062C136.466 102.242 135.443 99.774 135.442 97.1997L133.73 83.548C133.73 80.5139 134.936 77.6042 137.081 75.4587C139.227 73.3133 142.136 72.1081 145.17 72.1081C148.204 72.1081 151.114 73.3133 153.26 75.4587C155.405 77.6042 156.61 80.5139 156.61 83.548L154.837 97.1806C154.84 98.4551 154.591 99.7176 154.106 100.896C153.62 102.074 152.908 103.146 152.008 104.049C151.109 104.952 150.04 105.669 148.864 106.159C147.687 106.649 146.426 106.902 145.151 106.905Z" fill="white" stroke="#263238" stroke-linecap="round" stroke-linejoin="round"/>
<path d="M147.645 93.4627C147.645 93.4627 150.118 91.3892 153.074 93.6248" stroke="#263238" stroke-linecap="round" stroke-linejoin="round"/>
<path d="M143.173 93.2242C142.438 92.7564 141.564 92.5592 140.699 92.6665" stroke="#263238" stroke-linecap="round" stroke-linejoin="round"/>
<path d="M148.602 88.515C148.602 88.515 151.238 87.2375 152.834 89.7114" stroke="#263238" stroke-linecap="round" stroke-linejoin="round"/>
<path d="M144.352 98.973C144.352 98.973 145.472 99.8501 146.43 98.973" stroke="#263238" stroke-linecap="round" stroke-linejoin="round"/>
<path d="M143.254 100.889C143.254 100.889 145.57 102.319 146.924 100.889" stroke="#263238" stroke-linecap="round" stroke-linejoin="round"/>
<path d="M150.03 82.1179C150.03 82.1179 140.458 90.9552 137.789 97.395C135.12 103.835 137.513 110.56 138.985 112.496C140.458 114.431 141.369 114.703 141.369 114.703C141.369 114.703 136.307 116.638 132.994 111.576C129.681 106.514 130.506 100.803 131.521 96.8468C132.536 92.8905 132.255 81.2885 134.557 77.4227C136.86 73.557 140.172 70.7018 145.697 71.3453C151.221 71.9888 154.163 74.844 155.912 78.4333C157.661 82.0226 156.832 88.1 157.385 90.7693C157.938 93.4387 160.331 101.447 160.883 106.232C161.436 111.018 154.911 114.426 153.881 114.889C153.182 115.183 152.433 115.344 151.674 115.365C151.674 115.365 153.881 104.321 154.344 97.967C154.806 91.613 154.835 87.8379 154.835 87.8379C154.835 87.8379 150.492 82.3943 150.03 82.1179Z" fill="#263238"/>
<path d="M148.914 75.9211C148.914 75.9211 147.784 79.0337 139.657 87.9521C131.53 96.8705 129.323 105.379 131.792 113.692" stroke="#707070" stroke-miterlimit="10"/>
<path d="M146.905 72.8135C146.905 72.8135 142.434 76.5172 136.895 82.0655C133.491 85.5002 130.583 89.3942 128.258 93.6342" stroke="#707070" stroke-miterlimit="10"/>
<path d="M150.91 76.6696C150.91 76.6696 154.304 82.8377 156.153 86.5413C158.003 90.245 160.167 111.061 153.689 118.478" stroke="#707070" stroke-miterlimit="10"/>
<path d="M148.602 71.5789L150.032 82.1179" stroke="#707070" stroke-miterlimit="10"/>
<path d="M150.03 82.1179C150.03 82.1179 140.458 90.9552 137.789 97.395C135.12 103.835 137.513 110.56 138.985 112.496C140.458 114.431 141.369 114.703 141.369 114.703C141.369 114.703 136.307 116.638 132.994 111.576C129.681 106.514 130.506 100.803 131.521 96.8468C132.536 92.8905 132.255 81.2885 134.557 77.4227C136.86 73.557 140.172 70.7018 145.697 71.3453C151.221 71.9888 154.163 74.844 155.912 78.4333C157.661 82.0226 156.832 88.1 157.385 90.7693C157.938 93.4387 160.331 101.447 160.883 106.232C161.436 111.018 154.911 114.426 153.881 114.889C153.182 115.183 152.433 115.344 151.674 115.365C151.674 115.365 153.881 104.321 154.344 97.967C154.806 91.613 154.835 87.8379 154.835 87.8379C154.835 87.8379 150.492 82.3943 150.03 82.1179Z" stroke="#263238" stroke-linecap="round" stroke-linejoin="round"/>
<path d="M132.787 88.2857H131.376C130.597 88.2857 129.965 88.9174 129.965 89.6967V95.3451C129.965 96.1244 130.597 96.7561 131.376 96.7561H132.787C133.566 96.7561 134.198 96.1244 134.198 95.3451V89.6967C134.198 88.9174 133.566 88.2857 132.787 88.2857Z" fill="white" stroke="#263238" stroke-linecap="round" stroke-linejoin="round"/>
<path d="M158.654 88.2857H157.243C156.464 88.2857 155.832 88.9174 155.832 89.6967V95.3451C155.832 96.1244 156.464 96.7561 157.243 96.7561H158.654C159.433 96.7561 160.065 96.1244 160.065 95.3451V89.6967C160.065 88.9174 159.433 88.2857 158.654 88.2857Z" fill="white" stroke="#263238" stroke-linecap="round" stroke-linejoin="round"/>
<path d="M158.317 88.2861V83.6815C158.317 80.1178 156.901 76.7 154.381 74.18C151.861 71.6601 148.443 70.2444 144.879 70.2444C141.315 70.2444 137.897 71.6599 135.376 74.1797C132.856 76.6995 131.439 80.1173 131.438 83.6815V88.2861" stroke="#263238" stroke-width="2" stroke-linejoin="round"/>
<path d="M157.95 96.7133C157.95 96.7133 157.354 101.323 151.715 103.201" stroke="#263238" stroke-linecap="round" stroke-linejoin="round"/>
<path d="M151.498 103.001C151.737 103.692 151.064 104.55 149.992 104.907C148.919 105.265 147.866 105.022 147.609 104.331C147.351 103.639 148.042 102.781 149.11 102.424C150.178 102.066 151.274 102.309 151.498 103.001Z" stroke="#263238" stroke-linecap="round" stroke-linejoin="round"/>
<path d="M55.0278 108.945L35.332 118.33L41.0139 173.99H80.2767L85.8299 117.406L67.321 108.811L55.0278 108.945Z" fill="#6B006D" stroke="#263238" stroke-linecap="round" stroke-linejoin="round"/>
<path d="M62.9173 125.928C63.2859 125.928 63.5847 125.63 63.5847 125.261C63.5847 124.893 63.2859 124.594 62.9173 124.594C62.5488 124.594 62.25 124.893 62.25 125.261C62.25 125.63 62.5488 125.928 62.9173 125.928Z" fill="#263238"/>
<path d="M63.5847 129.265C63.5847 129.397 63.5455 129.526 63.4722 129.636C63.3989 129.745 63.2946 129.831 63.1727 129.881C63.0508 129.932 62.9166 129.945 62.7871 129.919C62.6577 129.894 62.5388 129.83 62.4455 129.737C62.3521 129.643 62.2886 129.525 62.2628 129.395C62.2371 129.266 62.2503 129.131 62.3008 129.01C62.3513 128.888 62.4368 128.783 62.5466 128.71C62.6563 128.637 62.7853 128.598 62.9173 128.598C63.0943 128.598 63.2641 128.668 63.3892 128.793C63.5144 128.918 63.5847 129.088 63.5847 129.265Z" fill="#263238"/>
<path d="M69.7488 111.786L64.3672 117.787L62.0697 123.616L59.5958 117.701L54.3906 111.786V101.28H69.7488V111.786Z" fill="white" stroke="#263238" stroke-linecap="round" stroke-linejoin="round"/>
<path d="M54.3906 105.951C55.4037 107.183 56.6773 108.174 58.1198 108.854C59.5622 109.534 61.1376 109.886 62.7323 109.884C65.306 109.887 67.7956 108.967 69.7488 107.291V101.28H54.3906V105.951Z" fill="#263238" stroke="#263238" stroke-linecap="round" stroke-linejoin="round"/>
<path d="M63.8194 71.8792H61.6554C56.2797 71.8792 51.9219 76.237 51.9219 81.6127V97.1949C51.9219 102.571 56.2797 106.928 61.6554 106.928H63.8194C69.1951 106.928 73.5529 102.571 73.5529 97.1949V81.6127C73.5529 76.237 69.1951 71.8792 63.8194 71.8792Z" fill="white" stroke="#263238" stroke-linecap="round" stroke-linejoin="round"/>
<path d="M64.8116 87.4184L64.4922 95.0784C64.486 95.4104 64.3779 95.7324 64.1827 96.001C63.9875 96.2695 63.7145 96.4716 63.4007 96.5799C62.8239 96.7563 62.1661 96.5799 61.8086 95.2786" stroke="#263238" stroke-linecap="round" stroke-linejoin="round"/>
<path d="M58.5508 98.1005H67.1307C67.1307 98.1005 65.6293 101.37 62.7168 101.37C59.8044 101.37 58.5508 98.1005 58.5508 98.1005Z" fill="#263238" stroke="#263238" stroke-linecap="round" stroke-linejoin="round"/>
<path d="M59.1609 99.2493H66.3872C66.6618 98.8902 66.9013 98.5055 67.1021 98.1005H58.5508C58.7136 98.5036 58.9181 98.8886 59.1609 99.2493Z" fill="white" stroke="#263238" stroke-linecap="round" stroke-linejoin="round"/>
<path d="M58.4556 90.8647C58.7978 90.8647 59.0753 90.2116 59.0753 89.4061C59.0753 88.6005 58.7978 87.9475 58.4556 87.9475C58.1134 87.9475 57.8359 88.6005 57.8359 89.4061C57.8359 90.2116 58.1134 90.8647 58.4556 90.8647Z" fill="#263238"/>
<path d="M67.7251 90.8647C68.0674 90.8647 68.3448 90.2116 68.3448 89.4061C68.3448 88.6005 68.0674 87.9475 67.7251 87.9475C67.3829 87.9475 67.1055 88.6005 67.1055 89.4061C67.1055 90.2116 67.3829 90.8647 67.7251 90.8647Z" fill="#263238"/>
<path d="M65.7812 85.5641C65.7812 85.5641 67.8976 84.239 70.2857 86.3601" stroke="#263238" stroke-linecap="round" stroke-linejoin="round"/>
<path d="M62.7374 71.8792C59.8689 71.8792 57.118 73.0187 55.0897 75.047C53.0614 77.0753 51.9219 79.8263 51.9219 82.6947V92.5474H52.0124H52.8943V88.4862C52.8943 88.4862 57.3082 88.4862 62.5181 85.6644C67.7281 82.8425 69.0437 78.2379 69.0437 78.2379C69.0437 78.2379 70.1924 83.8006 71.427 84.8588L72.6663 85.917V92.6284H73.5482V82.6947C73.5482 79.8271 72.4093 77.0769 70.382 75.0487C68.3548 73.0205 65.605 71.8805 62.7374 71.8792Z" fill="#263238" stroke="#263238" stroke-linecap="round" stroke-linejoin="round"/>
<path d="M49.894 87.3329H51.9198V95.3647H49.894C49.3782 95.3647 48.8836 95.1598 48.5188 94.7951C48.1541 94.4304 47.9492 93.9357 47.9492 93.4199V89.2681C47.9517 88.754 48.1578 88.2618 48.5222 87.8991C48.8866 87.5365 49.3799 87.3329 49.894 87.3329Z" fill="white" stroke="#263238" stroke-linecap="round" stroke-linejoin="round"/>
<path d="M75.4458 95.3645H73.42V87.3327H75.4458C75.7012 87.3327 75.9541 87.383 76.1901 87.4808C76.426 87.5785 76.6404 87.7218 76.821 87.9023C77.0016 88.0829 77.1448 88.2973 77.2426 88.5333C77.3403 88.7692 77.3906 89.0221 77.3906 89.2775V93.4293C77.3881 93.9434 77.1821 94.4356 76.8176 94.7983C76.4532 95.1609 75.96 95.3645 75.4458 95.3645Z" fill="white" stroke="#263238" stroke-linecap="round" stroke-linejoin="round"/>
<path d="M50.1562 87.3327V82.2086C50.1562 78.8837 51.477 75.6951 53.828 73.3441C56.179 70.9931 59.3677 69.6723 62.6925 69.6723V69.6723C66.017 69.6735 69.2049 70.9947 71.5556 73.3455C73.9064 75.6962 75.2275 78.8841 75.2288 82.2086V87.3327" stroke="#263238" stroke-width="2" stroke-linejoin="round"/>
<path d="M75.2375 95.3645C75.2375 95.3645 74.6178 100.131 68.793 102.076" stroke="#263238" stroke-linecap="round" stroke-linejoin="round"/>
<path d="M68.5658 101.866C68.8137 102.581 68.1177 103.468 67.0119 103.854C65.906 104.24 64.8097 103.969 64.5618 103.254C64.314 102.539 65.0099 101.652 66.1157 101.266C67.2216 100.88 68.3322 101.151 68.5658 101.866Z" stroke="#263238" stroke-linecap="round" stroke-linejoin="round"/>
<path d="M35.3313 118.33L18.6719 153.58L25.5454 159.576L37.972 143.98L35.3313 118.33Z" fill="#6B006D" stroke="#263238" stroke-linecap="round" stroke-linejoin="round"/>
<path d="M33.961 129.136L38.0079 142.788L33.2031 134.947" stroke="#263238" stroke-miterlimit="10"/>
<path d="M85.8291 117.406L101.692 152.836L91.9113 157.069L83.1836 143.055L85.8291 117.406Z" fill="#6B006D" stroke="#263238" stroke-linecap="round" stroke-linejoin="round"/>
<path d="M27.6625 152.702L41.9386 166.054L37.9727 170.682L17.2188 157.808L19.6021 151.463" fill="#6B006D"/>
<path d="M27.6625 152.702L41.9386 166.054L37.9727 170.682L17.2188 157.808L19.6021 151.463" stroke="#263238" stroke-linecap="round" stroke-linejoin="round"/>
<path d="M39.5582 165.263C40.1397 164.948 49.8685 162.617 50.0019 163.809C50.1354 165.001 53.0431 166.321 54.3634 166.321C55.6838 166.321 57.0089 165.263 57.2711 166.85C57.5332 168.438 56.0842 168.566 54.8877 168.7C53.6913 168.833 49.6015 167.508 49.6015 167.508C49.6015 167.508 45.7882 170.683 44.1819 171.479C42.5755 172.275 39.6869 172.003 38.6287 171.212C37.5705 170.42 36.1215 167.112 39.5582 165.263Z" fill="white" stroke="#263238" stroke-linecap="round" stroke-linejoin="round"/>
<path d="M48.5469 163.675C48.5469 163.675 52.2506 162.617 53.0418 163.018C53.8331 163.418 54.2335 171.345 54.2335 171.345C54.2335 171.345 53.8331 172.136 53.0418 171.345C52.2506 170.554 49.6098 164.581 49.6098 164.581" fill="white"/>
<path d="M48.5469 163.675C48.5469 163.675 52.2506 162.617 53.0418 163.018C53.8331 163.418 54.2335 171.345 54.2335 171.345C54.2335 171.345 53.8331 172.136 53.0418 171.345C52.2506 170.554 49.6098 164.581 49.6098 164.581" stroke="#263238" stroke-linecap="round" stroke-linejoin="round"/>
<path d="M46.6971 163.942C46.6971 163.942 50.5104 163.018 51.3207 164.471C52.131 165.925 54.0997 172.403 52.5124 172.665C50.9251 172.927 50.396 170.816 50.396 170.816L47.884 166.187L46.168 165.925" fill="white"/>
<path d="M46.6971 163.942C46.6971 163.942 50.5104 163.018 51.3207 164.471C52.131 165.925 54.0997 172.403 52.5124 172.665C50.9251 172.927 50.396 170.816 50.396 170.816L47.884 166.187L46.168 165.925" stroke="#263238" stroke-linecap="round" stroke-linejoin="round"/>
<path d="M45.3789 165.129C45.3789 165.129 47.2331 164.338 48.1579 165.001C49.0826 165.663 53.3154 172.403 52.5193 172.684C51.7233 172.966 49.8739 172.818 49.6117 172.289C49.3495 171.76 45.908 167.265 45.908 167.265" fill="white"/>
<path d="M45.3789 165.129C45.3789 165.129 47.2331 164.338 48.1579 165.001C49.0826 165.663 53.3154 172.403 52.5193 172.684C51.7233 172.966 49.8739 172.818 49.6117 172.289C49.3495 171.76 45.908 167.265 45.908 167.265" stroke="#263238" stroke-linecap="round" stroke-linejoin="round"/>
<path d="M44.0586 167.379C44.0586 167.379 45.7794 165.791 46.7041 166.321C47.6288 166.85 51.4707 171.874 50.6699 172.403C49.8691 172.932 49.3448 172.403 48.5535 171.345C47.9872 170.633 47.3191 170.008 46.5706 169.49L44.9833 170.02" fill="white"/>
<path d="M44.0586 167.379C44.0586 167.379 45.7794 165.791 46.7041 166.321C47.6288 166.85 51.4707 171.874 50.6699 172.403C49.8691 172.932 49.3448 172.403 48.5535 171.345C47.9872 170.633 47.3191 170.008 46.5706 169.49L44.9833 170.02" stroke="#263238" stroke-linecap="round" stroke-linejoin="round"/>
<path d="M89.5148 149.328L81.1445 166.993L86.5308 169.839L102.361 153.065L97.8183 148.036" fill="#6B006D"/>
<path d="M89.5148 149.328L81.1445 166.993L86.5308 169.839L102.361 153.065L97.8183 148.036" stroke="#263238" stroke-linecap="round" stroke-linejoin="round"/>
<path d="M85.3316 165.263C84.7501 164.948 75.0166 162.617 74.8879 163.809C74.7592 165.001 71.8468 166.321 70.5216 166.321C69.1965 166.321 67.8809 165.263 67.614 166.85C67.3471 168.438 68.8057 168.566 69.9973 168.7C71.189 168.833 75.2835 167.508 75.2835 167.508C75.2835 167.508 79.0968 170.683 80.7032 171.479C82.3096 172.275 85.1982 172.003 86.2563 171.212C87.3145 170.42 88.7684 167.112 85.3316 165.263Z" fill="white" stroke="#263238" stroke-linecap="round" stroke-linejoin="round"/>
<path d="M76.3468 163.675C76.3468 163.675 72.6431 162.617 71.8518 163.018C71.0606 163.418 70.6602 171.345 70.6602 171.345C70.6602 171.345 71.0558 172.136 71.8518 171.345C72.6478 170.554 75.2886 164.581 75.2886 164.581" fill="white"/>
<path d="M76.3468 163.675C76.3468 163.675 72.6431 162.617 71.8518 163.018C71.0606 163.418 70.6602 171.345 70.6602 171.345C70.6602 171.345 71.0558 172.136 71.8518 171.345C72.6478 170.554 75.2886 164.581 75.2886 164.581" stroke="#263238" stroke-linecap="round" stroke-linejoin="round"/>
<path d="M78.1952 163.942C78.1952 163.942 74.3818 163.018 73.5667 164.471C72.7516 165.925 70.7926 172.403 72.3798 172.684C73.9671 172.966 74.4915 170.835 74.4915 170.835L77.0035 166.207L78.7242 165.944" fill="white"/>
<path d="M78.1952 163.942C78.1952 163.942 74.3818 163.018 73.5667 164.471C72.7516 165.925 70.7926 172.403 72.3798 172.684C73.9671 172.966 74.4915 170.835 74.4915 170.835L77.0035 166.207L78.7242 165.944" stroke="#263238" stroke-linecap="round" stroke-linejoin="round"/>
<path d="M79.53 165.129C79.53 165.129 77.6806 164.338 76.7558 165.001C75.8311 165.663 71.584 172.403 72.3801 172.684C73.1761 172.966 75.0208 172.818 75.2877 172.289C75.5547 171.76 78.9866 167.265 78.9866 167.265" fill="white"/>
<path d="M79.53 165.129C79.53 165.129 77.6806 164.338 76.7558 165.001C75.8311 165.663 71.584 172.403 72.3801 172.684C73.1761 172.966 75.0208 172.818 75.2877 172.289C75.5547 171.76 78.9866 167.265 78.9866 167.265" stroke="#263238" stroke-linecap="round" stroke-linejoin="round"/>
<path d="M80.8415 167.379C80.8415 167.379 79.1207 165.791 78.196 166.321C77.2713 166.85 73.4293 171.874 74.2301 172.403C75.0309 172.932 75.5505 172.403 76.3465 171.345C76.9128 170.633 77.581 170.008 78.3294 169.49L79.9167 170.02" fill="white"/>
<path d="M80.8415 167.379C80.8415 167.379 79.1207 165.791 78.196 166.321C77.2713 166.85 73.4293 171.874 74.2301 172.403C75.0309 172.932 75.5505 172.403 76.3465 171.345C76.9128 170.633 77.581 170.008 78.3294 169.49L79.9167 170.02" stroke="#263238" stroke-linecap="round" stroke-linejoin="round"/>
<path d="M110.348 51.7115H79.3651C77.9285 51.7115 76.5507 52.2818 75.5345 53.2972C74.5182 54.3125 73.9467 55.6898 73.9454 57.1264V66.183C73.9416 66.8963 74.0787 67.6034 74.3488 68.2636C74.6189 68.9238 75.0166 69.5242 75.5193 70.0304C76.0219 70.5366 76.6195 70.9386 77.2778 71.2133C77.9361 71.488 78.6422 71.63 79.3555 71.6313H83.1689L77.9684 78.4333L89.661 71.6313H110.348C111.06 71.6294 111.764 71.4874 112.421 71.2133C113.078 70.9392 113.674 70.5384 114.176 70.0338C114.678 69.5292 115.076 68.9307 115.347 68.2724C115.617 67.6141 115.756 66.909 115.754 66.1973V57.1407C115.756 55.7041 115.188 54.3253 114.175 53.3073C113.161 52.2892 111.785 51.7152 110.348 51.7115Z" fill="white" stroke="#263238" stroke-miterlimit="10"/>
<path d="M90.6005 62.2934C90.6015 62.5435 90.5282 62.7881 90.39 62.9965C90.2518 63.2048 90.0548 63.3675 89.8241 63.4638C89.5933 63.5602 89.3392 63.5859 89.0939 63.5377C88.8485 63.4895 88.623 63.3695 88.4459 63.1931C88.2687 63.0166 88.148 62.7915 88.0988 62.5464C88.0497 62.3012 88.0745 62.047 88.1699 61.8159C88.2654 61.5848 88.4273 61.3873 88.6351 61.2483C88.8429 61.1092 89.0873 61.035 89.3374 61.035C89.6716 61.035 89.9921 61.1675 90.2289 61.4033C90.4656 61.6392 90.5993 61.9592 90.6005 62.2934Z" fill="#263238"/>
<path d="M96.1083 62.2934C96.1093 62.5437 96.0359 62.7885 95.8975 62.997C95.759 63.2055 95.5618 63.3681 95.3308 63.4643C95.0998 63.5605 94.8454 63.5859 94.5999 63.5373C94.3545 63.4887 94.1289 63.3683 93.952 63.1914C93.7751 63.0144 93.6547 62.7889 93.6061 62.5435C93.5575 62.298 93.5829 62.0436 93.6791 61.8126C93.7753 61.5816 93.9379 61.3844 94.1464 61.2459C94.3548 61.1075 94.5997 61.0341 94.8499 61.035C95.1837 61.035 95.5038 61.1676 95.7398 61.4036C95.9758 61.6396 96.1083 61.9597 96.1083 62.2934Z" fill="#263238"/>
<path d="M101.618 62.2934C101.618 62.5423 101.545 62.7856 101.406 62.9926C101.268 63.1995 101.071 63.3608 100.842 63.456C100.612 63.5513 100.359 63.5762 100.114 63.5276C99.8704 63.4791 99.6461 63.3592 99.4701 63.1832C99.2941 63.0073 99.1743 62.783 99.1257 62.5389C99.0772 62.2948 99.1021 62.0418 99.1974 61.8119C99.2926 61.5819 99.4539 61.3854 99.6608 61.2471C99.8678 61.1088 100.111 61.035 100.36 61.035C100.694 61.035 101.014 61.1676 101.25 61.4036C101.486 61.6396 101.618 61.9597 101.618 62.2934Z" fill="#263238"/>
<path d="M173.649 172.556H115.906V174.886H173.649V172.556Z" fill="white" stroke="#263238" stroke-linecap="round" stroke-linejoin="round"/>
<path d="M182.522 172.556H132.191V174.886H182.522V172.556Z" fill="white" stroke="#263238" stroke-linecap="round" stroke-linejoin="round"/>
<path d="M183.5 168.413H135.348L140.539 131.648H188.691L183.5 168.413Z" fill="white" stroke="#263238" stroke-linecap="round" stroke-linejoin="round"/>
<path d="M185.485 168.413H137.332L142.523 131.648H190.676L185.485 168.413Z" fill="#263238" stroke="#263238" stroke-linecap="round" stroke-linejoin="round"/>
<path d="M170.73 151.325L175.564 174.882H163.137L158.309 151.325H170.73ZM162.303 158.318C162.327 158.413 162.382 158.498 162.46 158.559C162.537 158.619 162.633 158.652 162.732 158.651L169.772 158.585C169.838 158.584 169.903 158.568 169.962 158.538C170.021 158.509 170.073 158.466 170.113 158.414C170.154 158.362 170.182 158.301 170.195 158.237C170.209 158.172 170.208 158.105 170.192 158.041L169.558 155.4C169.534 155.304 169.479 155.219 169.402 155.157C169.324 155.096 169.228 155.062 169.129 155.062L162.089 155.129C162.022 155.13 161.957 155.146 161.898 155.175C161.839 155.205 161.787 155.247 161.747 155.299C161.706 155.351 161.678 155.412 161.663 155.476C161.649 155.541 161.649 155.608 161.664 155.672L162.303 158.318Z" fill="white" stroke="#263238" stroke-linecap="round" stroke-linejoin="round"/>
<path d="M88.2354 172.556H30.4922V174.886H88.2354V172.556Z" fill="white" stroke="#263238" stroke-linecap="round" stroke-linejoin="round"/>
<path d="M97.1084 172.556H46.7773V174.886H97.1084V172.556Z" fill="white" stroke="#263238" stroke-linecap="round" stroke-linejoin="round"/>
<path d="M98.0863 168.413H49.9336L55.1245 131.648H103.277L98.0863 168.413Z" fill="white" stroke="#263238" stroke-linecap="round" stroke-linejoin="round"/>
<path d="M100.071 168.413H51.918L57.1088 131.648H105.262L100.071 168.413Z" fill="#263238" stroke="#263238" stroke-linecap="round" stroke-linejoin="round"/>
<path d="M85.3212 151.325L90.1498 174.882H77.7231L72.8945 151.325H85.3212ZM76.889 158.318C76.9133 158.413 76.9687 158.497 77.0463 158.558C77.124 158.618 77.2196 158.651 77.318 158.651L84.3583 158.584C84.4244 158.583 84.4894 158.567 84.5485 158.538C84.6077 158.508 84.6595 158.466 84.7001 158.414C84.7408 158.362 84.7693 158.301 84.7836 158.237C84.7978 158.172 84.7975 158.105 84.7825 158.041L84.1438 155.4C84.1212 155.304 84.0664 155.218 83.9885 155.156C83.9106 155.095 83.8141 155.061 83.7148 155.062L76.6745 155.129C76.6085 155.13 76.5436 155.145 76.4846 155.175C76.4256 155.205 76.374 155.247 76.3337 155.299C76.2934 155.351 76.2654 155.412 76.2517 155.477C76.2381 155.541 76.2392 155.608 76.255 155.672L76.889 158.318Z" fill="white" stroke="#263238" stroke-linecap="round" stroke-linejoin="round"/>
<path d="M206.201 174.881H0.796875V177.189H206.201V174.881Z" fill="#263238" stroke="#263238" stroke-linecap="round" stroke-linejoin="round"/>
</svg>
