<svg width="32" height="32" viewBox="0 0 32 32" fill="none" xmlns="http://www.w3.org/2000/svg">
<path fill-rule="evenodd" clip-rule="evenodd" d="M25.0006 14.6668L24.9924 14.9911L25.0006 15.3335L24.9928 15.66L25.0006 16.0001L24.749 27.0045C24.7177 28.3739 23.6761 29.508 22.3142 29.6555C18.1172 30.11 13.8834 30.11 9.68636 29.6555C8.32449 29.508 7.28292 28.3739 7.25161 27.0045L7.00004 16.0001L7.00787 15.6577L7.00007 15.3335L7.00827 14.9925L7 14.6668L7.22494 5.81151C7.22642 5.75299 7.22926 5.69479 7.23341 5.63693L7.24824 5.02071C7.28214 3.61177 8.35824 2.44774 9.76019 2.30351C9.87686 2.29151 9.99356 2.27984 10.1103 2.26851C10.2686 2.23172 10.4309 2.20489 10.5966 2.18874C14.1906 1.83845 17.8101 1.83845 21.404 2.18874C21.5697 2.20489 21.732 2.23171 21.8903 2.2685C22.0071 2.27983 22.1238 2.2915 22.2405 2.30351C23.6425 2.44774 24.7186 3.61177 24.7525 5.02071L24.7673 5.63833C24.7714 5.69572 24.7742 5.75346 24.7757 5.81151L25.0006 14.6668ZM21.3337 23.6667C21.8859 23.6667 22.3337 23.219 22.3337 22.6667C22.3337 22.1144 21.8859 21.6667 21.3337 21.6667H10.667C10.1147 21.6667 9.66699 22.1144 9.66699 22.6667C9.66699 23.219 10.1147 23.6667 10.667 23.6667H21.3337ZM16.0003 28.9335C17.1049 28.9335 18.0003 28.038 18.0003 26.9335C18.0003 25.8289 17.1049 24.9335 16.0003 24.9335C14.8958 24.9335 14.0003 25.8289 14.0003 26.9335C14.0003 28.038 14.8958 28.9335 16.0003 28.9335Z" fill="white"/>
</svg>
