<svg width="47" height="47" viewBox="0 0 47 47" fill="none" xmlns="http://www.w3.org/2000/svg">
<circle cx="23.5" cy="23.5" r="23.5" fill="white"/>
<path d="M26.2 14.875C24.9734 14.875 23.797 15.3623 22.9296 16.2296C22.0623 17.097 21.575 18.2734 21.575 19.5V22.075H19.1C18.9757 22.075 18.875 22.1757 18.875 22.3V25.7C18.875 25.8243 18.9757 25.925 19.1 25.925H21.575V32.9C21.575 33.0243 21.6757 33.125 21.8 33.125H25.2C25.3243 33.125 25.425 33.0243 25.425 32.9V25.925H27.9219C28.0252 25.925 28.1152 25.8547 28.1402 25.7546L28.9902 22.3546C29.0257 22.2126 28.9183 22.075 28.7719 22.075H25.425V19.5C25.425 19.2945 25.5067 19.0973 25.652 18.952C25.7973 18.8067 25.9945 18.725 26.2 18.725H28.8C28.9243 18.725 29.025 18.6243 29.025 18.5V15.1C29.025 14.9757 28.9243 14.875 28.8 14.875H26.2Z" fill="#6B006D"/>
</svg>
