<svg width="47" height="47" viewBox="0 0 47 47" fill="none" xmlns="http://www.w3.org/2000/svg">
<circle cx="23.5" cy="23.5" r="23.5" fill="white"/>
<path d="M32.8553 22.3614C32.8386 22.2674 32.7562 22.2 32.6607 22.2H24.2C24.0895 22.2 24 22.2895 24 22.4V25.6C24 25.7105 24.0895 25.8 24.2 25.8H29.0864C28.3443 27.8956 26.3503 29.4 24 29.4C21.0178 29.4 18.6 26.9822 18.6 24C18.6 21.0178 21.0178 18.6 24 18.6C25.3087 18.6 26.5052 19.0694 27.4394 19.8446C27.5209 19.9123 27.6409 19.9091 27.7158 19.8342L29.9816 17.5684C30.0617 17.4883 30.0595 17.3577 29.975 17.2824C28.3853 15.8667 26.2961 15 24 15C19.0297 15 15 19.0297 15 24C15 28.9703 19.0297 33 24 33C28.9703 33 33 28.9703 33 24C33 23.453 32.949 22.8872 32.8553 22.3614Z" fill="#6B006D"/>
</svg>
