<svg width="47" height="47" viewBox="0 0 47 47" fill="none" xmlns="http://www.w3.org/2000/svg">
<circle cx="23.5" cy="23.5" r="23.5" fill="white"/>
<path fill-rule="evenodd" clip-rule="evenodd" d="M29.4833 31.79L29.484 31.7883L29.5014 31.7448L32.5002 16.6257V16.5766C32.5002 16.1999 32.361 15.871 32.0581 15.6738C31.793 15.5011 31.4882 15.4888 31.2745 15.505C31.0485 15.5222 30.8354 15.5786 30.6879 15.6255C30.612 15.6497 30.5484 15.673 30.503 15.6906C30.4802 15.6994 30.4617 15.7069 30.4483 15.7125L30.4351 15.7181L13.7153 22.277L13.7107 22.2787C13.7016 22.2819 13.6897 22.2864 13.6753 22.292C13.6465 22.3032 13.6074 22.3192 13.5614 22.3401C13.4711 22.381 13.3464 22.4441 13.2199 22.5307C13.005 22.6779 12.5959 23.0262 12.665 23.5784C12.7222 24.0358 13.0375 24.3263 13.2501 24.4767C13.364 24.5574 13.473 24.6155 13.5529 24.6535C13.5933 24.6728 13.6277 24.6875 13.6533 24.6979C13.6661 24.7032 13.6768 24.7073 13.6851 24.7105L13.6957 24.7144L13.7025 24.717L16.6278 25.7018C16.6179 25.8853 16.6361 26.0724 16.6848 26.2571L18.1501 31.8155C18.3238 32.4745 18.92 32.9336 19.6016 32.9331C20.2125 32.9327 20.7544 32.5631 20.9845 32.0117L23.2722 29.5656L27.2012 32.5778L27.2571 32.6022C27.614 32.758 27.9475 32.8073 28.2525 32.7657C28.557 32.7241 28.7989 32.5964 28.9807 32.451C29.1595 32.3079 29.2821 32.1464 29.3592 32.0248C29.3984 31.963 29.4276 31.9087 29.4478 31.8679C29.458 31.8473 29.466 31.83 29.472 31.8164L29.4796 31.799L29.4822 31.7926L29.4833 31.79ZM18.1352 25.8747C18.1019 25.7484 18.1542 25.615 18.2644 25.545L28.1865 19.2441C28.1865 19.2441 28.77 18.8898 28.7492 19.2441C28.7492 19.2441 28.8533 19.3066 28.5406 19.5984C28.244 19.8754 21.4689 26.4165 20.7834 27.0784C20.7438 27.1166 20.7202 27.1604 20.7063 27.2136L19.6005 31.4331L18.1352 25.8747Z" fill="#6B006D"/>
</svg>
