<svg width="47" height="47" viewBox="0 0 47 47" fill="none" xmlns="http://www.w3.org/2000/svg">
<circle cx="23.5" cy="23.5" r="23.5" fill="white"/>
<path d="M21.9205 19.4077L21.9208 19.4083C22.0521 19.7008 22.2695 20.2302 22.4429 20.6526L22.4463 20.6609C22.5148 20.8277 22.5766 20.9782 22.6247 21.0939C22.6488 21.1518 22.669 21.1997 22.6845 21.236C22.6983 21.2681 22.7053 21.2835 22.7073 21.288C22.7078 21.2891 22.708 21.2895 22.7079 21.2893C22.8081 21.4887 22.9102 21.8118 22.7302 22.1808L21.9205 19.4077ZM21.9205 19.4077C21.7997 19.1396 21.643 18.9281 21.4222 18.8001M21.9205 19.4077L21.4222 18.8001M25.254 25.965C25.1997 25.938 25.1318 25.9087 25.0692 25.8817L25.0601 25.8778L25.059 25.8773C24.7137 25.7283 24.0551 25.4441 23.291 24.7639L23.2902 24.7631C22.6439 24.1904 22.181 23.4832 22.0001 23.1828C22.0873 23.0945 22.1807 22.9816 22.2562 22.8903L22.2652 22.8795C22.3145 22.8199 22.3589 22.7663 22.4006 22.7184L22.4007 22.7183C22.5584 22.5371 22.6307 22.3871 22.6991 22.2451L22.703 22.2371L22.703 22.2371L22.7302 22.1809L21.9544 23.1104L21.9256 23.127L21.9254 23.1272L21.5239 23.3599M25.254 25.965L25.2448 25.9834C25.2493 25.9782 25.2539 25.9728 25.2587 25.9673M25.254 25.965C25.254 25.965 25.2539 25.9649 25.2539 25.9649L25.2446 25.9836C25.2324 25.9978 25.2213 26.0108 25.2114 26.0223L25.2113 26.0223C25.1985 26.0372 25.1988 26.0333 25.2134 26.0241C25.2134 26.0241 25.2134 26.0241 25.2134 26.0241C25.2139 26.0237 25.2145 26.0234 25.2151 26.023C25.219 26.0207 25.2235 26.0181 25.2287 26.0155L25.2212 26.0307L25.2212 26.0308L25.0312 26.4126M25.254 25.965C25.2556 25.9658 25.2571 25.9665 25.2587 25.9673M25.2587 25.9673C25.2993 25.9872 25.3216 25.9942 25.3296 25.9963C25.3307 25.9966 25.3312 25.9967 25.3312 25.9967C25.3312 25.9967 25.3171 25.9938 25.2932 25.9966C25.2791 25.9983 25.2643 26.0016 25.2497 26.0068C25.2419 26.0095 25.2349 26.0125 25.2288 26.0155L25.2212 26.0308L25.2212 26.0308L25.0312 26.4126M25.2587 25.9673C25.4477 25.747 25.85 25.2736 25.9909 25.0662M25.0312 26.4126C25.2885 26.5406 25.4418 26.5209 25.5902 26.3486C25.7387 26.1762 26.2333 25.6001 26.4065 25.3441M25.0312 26.4126C24.9894 26.3918 24.9324 26.3672 24.862 26.3368C24.4997 26.1805 23.7829 25.8712 22.9586 25.1373C22.1918 24.4579 21.6724 23.6159 21.5239 23.3599M25.9909 25.0662C25.9901 25.0673 25.9894 25.0685 25.9886 25.0696L26.4065 25.3441M25.9909 25.0662C25.9914 25.0654 25.9919 25.0647 25.9924 25.064L26.4065 25.3441M25.9909 25.0662C26.1286 24.858 26.329 24.6876 26.6114 24.6544C26.8384 24.6276 27.0465 24.7053 27.1556 24.746L27.16 24.7477L27.1601 24.7477C27.3062 24.8022 27.7095 24.9933 28.0752 25.1693C28.4553 25.3523 28.8382 25.5404 28.969 25.6055L28.9691 25.6055C29.0162 25.629 29.0606 25.6502 29.1049 25.6715L28.8888 26.1224M26.4065 25.3441C26.5747 25.0881 26.7478 25.1275 26.9853 25.2161C27.2227 25.3047 28.4891 25.9251 28.7463 26.0531C28.7971 26.0784 28.8447 26.1012 28.8888 26.1224M21.5239 23.3599L21.9253 23.1271L21.9255 23.127L21.9543 23.1103L22.0236 22.3899C21.977 22.4435 21.9284 22.5022 21.88 22.5607C21.7948 22.6636 21.7102 22.7658 21.6377 22.838C21.5091 22.9659 21.3755 23.1039 21.5239 23.3599ZM28.8888 26.1224L29.1049 25.6715L29.1171 25.6774C29.1965 25.7154 29.2919 25.7611 29.3733 25.8108C29.4583 25.8627 29.5835 25.9509 29.671 26.0984M28.8888 26.1224C29.0677 26.2082 29.1894 26.2665 29.241 26.3535M29.671 26.0984L29.0926 27.5746C29.3053 26.9739 29.3053 26.4618 29.241 26.3535M29.671 26.0984C29.7506 26.2325 29.767 26.387 29.7733 26.4663C29.7816 26.5722 29.7798 26.6933 29.7688 26.822C29.7467 27.0806 29.6846 27.4006 29.5639 27.7415L29.5627 27.7449C29.3959 28.2053 28.9606 28.5749 28.5892 28.8141C28.2114 29.0574 27.751 29.2604 27.3982 29.2934M29.671 26.0984C29.671 26.0983 29.6709 26.0983 29.6709 26.0982L29.241 26.3535M29.241 26.3535L27.3982 29.2934M27.3982 29.2934C27.3609 29.2969 27.3228 29.3015 27.2756 29.3072L27.2155 28.8108L27.2756 29.3072C27.0357 29.3362 26.7353 29.3714 26.2297 29.2866C25.7426 29.2049 25.0761 29.0143 24.0764 28.6208C21.5063 27.61 19.8347 25.139 19.5009 24.6455L19.4953 24.6371L19.9094 24.357L19.4953 24.6371L19.4646 24.5919L19.4563 24.5799C19.4558 24.5791 19.4554 24.5786 19.4551 24.5783L19.4509 24.5726L19.4509 24.5725L19.4508 24.5725C19.3717 24.4666 19.0892 24.0886 18.8259 23.5683C18.566 23.0548 18.3032 22.3608 18.3032 21.6269C18.3032 20.2415 18.9995 19.5018 19.2936 19.191L19.2936 19.191C19.311 19.1727 19.3248 19.158 19.3369 19.145C19.3369 19.1449 19.3369 19.1449 19.3369 19.1449L27.3982 29.2934ZM21.4222 18.8001C21.2113 18.6778 21.0043 18.6726 20.9096 18.6703M21.4222 18.8001L20.9096 18.6703M20.9096 18.6703C20.9065 18.6702 20.9035 18.6701 20.9007 18.6701L20.9096 18.6703ZM19.5163 32.1816C19.4048 32.1212 19.2745 32.1054 19.1518 32.1375L14.7121 33.2971L15.8967 28.9973C15.9323 28.868 15.9145 28.7299 15.8473 28.6139C15.019 27.1837 14.5834 25.562 14.584 23.9115V23.9114C14.584 18.7246 18.8297 14.5 24.0419 14.5C26.5761 14.5 28.9474 15.4816 30.7334 17.2593C32.5188 19.0364 33.4999 21.4003 33.4999 23.9163C33.4999 29.103 29.2542 33.3275 24.0419 33.3275H24.037C22.4534 33.3275 20.8978 32.93 19.5163 32.1816Z" fill="#6B006D" stroke="#6B006D" stroke-linejoin="round"/>
</svg>
