<svg width="24" height="24" viewBox="0 0 24 24" fill="none" xmlns="http://www.w3.org/2000/svg">
<path d="M12 21C16.9706 21 21 16.9705 21 12C21 7.02941 16.9706 2.99997 12 2.99997C7.02944 2.99997 3 7.02941 3 12C3 13.4876 3.36093 14.8909 4 16.1272L3 21L7.8728 20C9.10904 20.639 10.5124 21 12 21Z" stroke="black" stroke-width="2" stroke-linecap="round" stroke-linejoin="round"/>
<path d="M11.7393 14.4961C11.8324 14.4531 11.9326 14.4316 12.04 14.4316C12.1475 14.4316 12.2477 14.4531 12.3408 14.4961C12.416 14.5283 12.4984 14.582 12.5879 14.6572C12.6631 14.7467 12.7168 14.8291 12.749 14.9043C12.792 14.9974 12.8135 15.0977 12.8135 15.2051C12.8135 15.3125 12.792 15.4128 12.749 15.5059C12.7168 15.5811 12.6631 15.6634 12.5879 15.7529C12.4984 15.8281 12.416 15.8818 12.3408 15.9141C12.2477 15.957 12.1475 15.9785 12.04 15.9785C11.9326 15.9785 11.8324 15.957 11.7393 15.9141C11.6641 15.8818 11.5817 15.8281 11.4922 15.7529C11.417 15.6634 11.3633 15.5811 11.3311 15.5059C11.2881 15.4128 11.2666 15.3125 11.2666 15.2051C11.2666 15.0977 11.2881 14.9974 11.3311 14.9043C11.3633 14.8291 11.417 14.7467 11.4922 14.6572C11.5817 14.582 11.6641 14.5283 11.7393 14.4961ZM11.4653 13.7656C11.4653 13.3288 11.4313 13.019 11.3633 12.8364C11.2881 12.661 11.1019 12.4336 10.8047 12.1543C10.2103 11.6029 9.82715 11.1696 9.65527 10.8545C9.47624 10.5394 9.38672 10.201 9.38672 9.83936C9.38672 9.19482 9.63021 8.63086 10.1172 8.14746C10.6042 7.66048 11.2576 7.41699 12.0776 7.41699C12.869 7.41699 13.501 7.6569 13.9736 8.13672C14.4535 8.61296 14.7131 9.19482 14.7524 9.88232L13.4312 10.0649C13.3416 9.5887 13.1751 9.23242 12.9316 8.99609C12.6882 8.76335 12.3838 8.64697 12.0186 8.64697C11.6426 8.64697 11.3418 8.75977 11.1162 8.98535C10.8942 9.20736 10.7832 9.4777 10.7832 9.79639C10.7832 10.022 10.8459 10.2279 10.9712 10.4141C11.0535 10.5394 11.3042 10.79 11.7231 11.166C12.1421 11.5527 12.4214 11.8983 12.561 12.2026C12.7007 12.507 12.7705 12.8991 12.7705 13.3789C12.7705 13.3932 12.7687 13.4165 12.7651 13.4487C12.7651 13.481 12.7633 13.5275 12.7598 13.5884C12.7598 13.6493 12.7598 13.7083 12.7598 13.7656H11.4653Z" fill="black"/>
</svg>
