<svg width="32" height="32" viewBox="0 0 32 32" fill="none" xmlns="http://www.w3.org/2000/svg">
<path d="M11.6667 13.3333C11.6667 10.9401 13.6068 9 16 9C18.3932 9 20.3333 10.9401 20.3333 13.3333C20.3333 15.7266 18.3932 17.6667 16 17.6667C13.6068 17.6667 11.6667 15.7266 11.6667 13.3333Z" fill="white"/>
<path fill-rule="evenodd" clip-rule="evenodd" d="M5.03139 11.8365C5.48958 6.27793 10.1346 2 15.7121 2H16.288C21.8654 2 26.5105 6.27793 26.9687 11.8365C27.2154 14.8293 26.2909 17.801 24.39 20.1258L17.9993 27.9415C16.966 29.2052 15.0341 29.2052 14.0008 27.9415L7.61003 20.1258C5.70916 17.801 4.7847 14.8293 5.03139 11.8365ZM16 7C12.5022 7 9.66667 9.83553 9.66667 13.3333C9.66667 16.8311 12.5022 19.6667 16 19.6667C19.4978 19.6667 22.3333 16.8311 22.3333 13.3333C22.3333 9.83553 19.4978 7 16 7Z" fill="white"/>
</svg>
