<svg width="21" height="21" viewBox="0 0 21 21" fill="none" xmlns="http://www.w3.org/2000/svg">
<path fill-rule="evenodd" clip-rule="evenodd" d="M4.01711 13.3912C2.05023 8.5634 5.60195 3.28125 10.815 3.28125H11.0963C14.995 3.28125 18.1555 6.44176 18.1555 10.3404C18.1555 14.6812 14.6366 18.2 10.2959 18.2H3.45316C3.17469 18.2 2.92653 18.0242 2.83411 17.7616C2.74169 17.4989 2.82512 17.2064 3.04224 17.0321L4.7673 15.6467C4.84272 15.5861 4.86941 15.4832 4.83291 15.3936L4.01711 13.3912ZM10.815 4.59375C6.53407 4.59375 3.61741 8.93143 5.23261 12.896L6.0484 14.8984C6.3039 15.5255 6.11713 16.246 5.58914 16.6701L5.31837 16.8875H10.2959C13.9117 16.8875 16.843 13.9563 16.843 10.3404C16.843 7.16663 14.2701 4.59375 11.0963 4.59375H10.815Z" fill="black"/>
</svg>
