<svg width="24" height="24" viewBox="0 0 24 24" fill="none" xmlns="http://www.w3.org/2000/svg">
<path fill-rule="evenodd" clip-rule="evenodd" d="M10.7016 5.25C10.5354 5.25 10.382 5.33919 10.2997 5.48362L6.95371 11.3569C6.51018 12.1354 6.32405 13.0342 6.42192 13.9249L6.77506 17.1385C6.8379 17.7103 7.28677 18.1632 7.85796 18.2312L9.97501 18.483C11.3726 18.6493 12.7896 18.5051 14.1251 18.061C14.7846 17.8416 15.3129 17.341 15.5674 16.6942L17.2715 12.3636C17.3132 12.2578 17.342 12.1473 17.3573 12.0345C17.4865 11.0824 16.653 10.2792 15.7064 10.4437L12.2906 11.0369C11.2116 11.2243 10.2796 10.2722 10.4902 9.19744L11.1556 5.80158C11.2116 5.51581 10.9928 5.25 10.7016 5.25ZM8.99635 4.74111C9.34544 4.12836 9.99643 3.75001 10.7016 3.75C11.937 3.74999 12.8652 4.87768 12.6276 6.09001L11.9622 9.48587C11.9594 9.50042 11.9609 9.50931 11.9629 9.51569C11.9654 9.52355 11.9705 9.53276 11.9788 9.5413C11.9872 9.54984 11.9963 9.5551 12.0041 9.55774C12.0104 9.55988 12.0193 9.5616 12.0339 9.55906L15.4497 8.96579C17.3959 8.62777 19.1093 10.2789 18.8436 12.2363C18.8122 12.4681 18.753 12.6952 18.6673 12.9129L16.9632 17.2435C16.546 18.3039 15.6798 19.1246 14.5985 19.4843C13.0537 19.9981 11.4145 20.1648 9.79783 19.9725L7.68078 19.7207C6.41657 19.5703 5.4231 18.5679 5.28404 17.3024L4.9309 14.0887C4.79848 12.8837 5.0503 11.6677 5.65038 10.6143L8.99635 4.74111Z" fill="black"/>
</svg>
