<svg width="24" height="24" viewBox="0 0 24 24" fill="none" xmlns="http://www.w3.org/2000/svg">
<path fill-rule="evenodd" clip-rule="evenodd" d="M20.5404 16.8073C20.762 16.5775 20.8138 16.2326 20.6696 15.9478L19.9395 14.5059C18.2792 11.2271 14.9163 9.16048 11.2411 9.16049H10.8372C10.8118 8.60714 10.779 8.05406 10.7387 7.50138L10.6702 6.56241C10.6149 5.80389 9.76916 5.37987 9.12829 5.78937C7.01258 7.14127 5.1733 8.88321 3.70848 10.9224L3.24829 11.563C3.06046 11.8245 3.06046 12.1766 3.24829 12.4381L3.70848 13.0787C5.1733 15.1179 7.01258 16.8598 9.12829 18.2117C9.76916 18.6212 10.6149 18.1972 10.6702 17.4387L10.7387 16.4997C10.7868 15.8402 10.8242 15.18 10.8512 14.5196C13.0233 14.4559 15.193 14.8939 17.1869 15.8141L19.6862 16.9676C19.9761 17.1014 20.3188 17.0371 20.5404 16.8073ZM18.3296 14.6894L17.8155 14.4522C15.3838 13.3299 12.7158 12.856 10.0683 13.0594C9.68599 13.0888 9.3874 13.4018 9.37607 13.785C9.35037 14.6542 9.30589 15.5229 9.24264 16.3907L9.2363 16.4776C7.5735 15.3039 6.11648 13.8598 4.92674 12.2036L4.78087 12.0005L4.92673 11.7975C6.11648 10.1413 7.5735 8.69718 9.2363 7.52347L9.24264 7.61043C9.2991 8.38499 9.3406 9.16037 9.36714 9.93613C9.38096 10.3401 9.71247 10.6605 10.1167 10.6605L11.2411 10.6605C14.162 10.6605 16.8497 12.2032 18.3296 14.6894Z" fill="#979797"/>
</svg>
