<svg width="18" height="24" viewBox="0 0 18 24" fill="none" xmlns="http://www.w3.org/2000/svg">
<path fill-rule="evenodd" clip-rule="evenodd" d="M9.31677 8.66147C7.12503 8.26592 4.87497 8.26592 2.68323 8.66147C2.27076 8.7359 1.94317 9.07704 1.86095 9.51645C1.11287 13.5144 1.07205 17.6284 1.74063 21.6426L1.87887 22.4726L4.98125 19.2999C5.55215 18.716 6.44785 18.716 7.01875 19.2999L10.1211 22.4726L10.2594 21.6426C10.928 17.6284 10.8871 13.5144 10.1391 9.51645C10.0568 9.07704 9.72924 8.7359 9.31677 8.66147ZM2.47361 7.31544C4.80413 6.89485 7.19587 6.89485 9.52639 7.31544C10.4555 7.48312 11.1955 8.25088 11.3819 9.24695C12.1615 13.4132 12.204 17.7003 11.5073 21.8835L11.3201 23.0074C11.163 23.9508 10.0946 24.3279 9.44908 23.6678L6.14554 20.2893C6.06398 20.2059 5.93602 20.2059 5.85446 20.2893L2.55092 23.6678C1.90543 24.3279 0.837041 23.9508 0.679914 23.0074L0.492712 21.8835C-0.204014 17.7003 -0.161478 13.4132 0.618087 9.24695C0.804468 8.25088 1.54453 7.48312 2.47361 7.31544Z" fill="#010101"/>
<rect x="7" y="7" width="7" height="8" fill="#ECECEC"/>
<path d="M10.75 6C10.8743 6 10.9935 6.04939 11.0815 6.13729C11.1694 6.2252 11.2188 6.34443 11.2188 6.46875V9.28125H14.0312C14.1556 9.28125 14.2748 9.33064 14.3627 9.41854C14.4506 9.50645 14.5 9.62568 14.5 9.75C14.5 9.87432 14.4506 9.99355 14.3627 10.0815C14.2748 10.1694 14.1556 10.2188 14.0312 10.2188H11.2188V13.0312C11.2188 13.1556 11.1694 13.2748 11.0815 13.3627C10.9935 13.4506 10.8743 13.5 10.75 13.5C10.6257 13.5 10.5065 13.4506 10.4185 13.3627C10.3306 13.2748 10.2812 13.1556 10.2812 13.0312V10.2188H7.46875C7.34443 10.2188 7.2252 10.1694 7.13729 10.0815C7.04939 9.99355 7 9.87432 7 9.75C7 9.62568 7.04939 9.50645 7.13729 9.41854C7.2252 9.33064 7.34443 9.28125 7.46875 9.28125H10.2812V6.46875C10.2812 6.34443 10.3306 6.2252 10.4185 6.13729C10.5065 6.04939 10.6257 6 10.75 6Z" fill="black"/>
</svg>
