<svg width="18" height="18" viewBox="0 0 18 18" fill="none" xmlns="http://www.w3.org/2000/svg">
<path d="M17.3885 7.363H9V10.8395H13.8274C13.3781 13.0487 11.4973 14.318 9 14.318C8.30121 14.3192 7.60907 14.1824 6.96326 13.9155C6.31744 13.6486 5.73068 13.2568 5.2366 12.7627C4.74253 12.2685 4.35088 11.6817 4.08411 11.0358C3.81734 10.39 3.6807 9.69778 3.68203 8.99899C3.68083 8.30029 3.81757 7.60822 4.0844 6.96248C4.35123 6.31673 4.7429 5.73001 5.23696 5.23595C5.73102 4.74189 6.31774 4.35022 6.96349 4.08339C7.60923 3.81656 8.3013 3.67982 9 3.68102C10.2683 3.68102 11.4147 4.13132 12.3143 4.86771L14.9335 2.24952C13.3378 0.858329 11.2918 3.8339e-05 9 3.8339e-05C7.81714 -0.00341918 6.64527 0.227012 5.55178 0.678077C4.45829 1.12914 3.46477 1.79194 2.62836 2.62836C1.79195 3.46477 1.12915 4.45829 0.67808 5.55178C0.227015 6.64526 -0.00341616 7.81714 4.13542e-05 9C-0.00354986 10.1829 0.22679 11.3548 0.677808 12.4484C1.12883 13.5419 1.79162 14.5355 2.62806 15.3719C3.4645 16.2084 4.45808 16.8712 5.55162 17.3222C6.64517 17.7732 7.8171 18.0035 9 18C13.5 18 17.592 14.727 17.592 9C17.592 8.4681 17.5104 7.8949 17.3885 7.363Z" fill="white"/>
</svg>
