<svg width="367" height="347" viewBox="0 0 367 347" fill="none" xmlns="http://www.w3.org/2000/svg">
<path d="M354.231 309.422C354.231 309.525 287.099 309.6 204.312 309.6C121.524 309.6 54.3789 309.525 54.3789 309.422C54.3789 309.32 121.497 309.244 204.312 309.244C287.126 309.244 354.231 309.326 354.231 309.422Z" fill="#16191B"/>
<path d="M307.882 312.416C307.882 312.416 289.828 291.635 283.015 270.855C276.202 250.074 279.434 252.459 279.434 252.459C279.434 252.459 288.632 272.645 295.616 282.397C302.6 292.148 315.036 306.45 315.036 306.45L307.882 312.416Z" fill="#24E45A"/>
<path d="M311.475 255.691C311.353 255.477 311.16 255.313 310.93 255.226C310.699 255.14 310.445 255.137 310.213 255.218C309.98 255.3 309.784 255.46 309.657 255.671C309.531 255.882 309.482 256.131 309.521 256.375C310.621 263.68 312.999 280.804 312.937 291.909C312.821 306.341 312.937 311.917 312.937 311.917H320.454C320.454 311.917 319.087 282.082 317.42 272.966C316.204 266.604 313.675 259.525 311.475 255.691Z" fill="#24E45A"/>
<path d="M315.574 309.484C318.724 302.349 320.808 294.791 321.758 287.05C322.374 281.74 321.273 274.558 319.633 264.978C318.996 261.474 318.679 257.92 318.683 254.359C318.687 253.962 318.822 253.578 319.068 253.267C319.313 252.956 319.655 252.735 320.039 252.638C320.424 252.542 320.83 252.576 321.193 252.736C321.556 252.895 321.856 253.17 322.045 253.518C322.954 255.138 325.578 260.666 326.248 264.13C328.066 273.588 330.123 278.317 328.551 287.296C326.979 296.275 321.15 310.092 321.15 310.092L315.574 309.484Z" fill="#24E45A"/>
<path d="M322.34 310.092C322.34 310.092 342.157 267.493 343.524 261.172C344.89 254.851 349.571 240.289 350.118 241.115C350.664 241.942 351.485 249.63 347.924 258.425C344.364 267.219 329.098 311.391 329.098 311.391H322.34" fill="#24E45A"/>
<path d="M313.405 308.186C313.209 308.076 313.024 307.948 312.852 307.803C312.497 307.537 311.964 307.161 311.314 306.635C309.996 305.596 308.144 304.018 305.984 301.933C300.415 296.437 295.591 290.234 291.634 283.483C287.681 276.729 284.393 269.607 281.814 262.217C280.817 259.388 280.092 257.072 279.621 255.466C279.375 254.66 279.211 254.031 279.095 253.607C279.022 253.385 278.97 253.156 278.938 252.924C279.035 253.126 279.115 253.337 279.177 253.553C279.327 254.01 279.525 254.625 279.778 255.391C280.297 256.983 281.07 259.279 282.095 262.094C284.75 269.429 288.064 276.507 291.996 283.244C295.952 289.962 300.731 296.161 306.223 301.694C308.349 303.806 310.16 305.412 311.444 306.478C312.08 307.024 312.599 307.421 312.927 307.708C313.099 307.854 313.259 308.014 313.405 308.186Z" fill="#16191B"/>
<path d="M315.576 287.747C315.473 287.338 315.414 286.918 315.399 286.496C315.303 285.615 315.18 284.446 315.03 283.08C314.715 280.196 314.223 276.246 313.526 271.852C312.829 267.458 312.043 263.557 311.435 260.727C311.141 259.361 310.902 258.233 310.711 257.365C310.6 256.958 310.527 256.542 310.492 256.122C310.654 256.511 310.782 256.913 310.875 257.324C311.094 258.11 311.387 259.245 311.729 260.659C312.412 263.481 313.239 267.411 313.943 271.791C314.647 276.171 315.091 280.155 315.31 283.052C315.426 284.494 315.508 285.67 315.542 286.469C315.589 286.893 315.6 287.321 315.576 287.747Z" fill="#16191B"/>
<path d="M320.217 253.184C320.314 253.354 320.392 253.535 320.449 253.723L321.044 255.309C321.31 255.992 321.611 256.839 321.898 257.844C322.185 258.849 322.581 259.969 322.862 261.261L323.354 263.263C323.518 263.946 323.634 264.698 323.784 265.456C324.112 266.967 324.31 268.607 324.549 270.329C324.977 274.076 325.136 277.848 325.028 281.618C324.867 285.388 324.438 289.142 323.743 292.852C323.381 294.546 323.06 296.173 322.636 297.635C322.424 298.38 322.253 299.111 322.042 299.795L321.406 301.79C321.03 303.047 320.566 304.147 320.203 305.125C319.841 306.102 319.52 306.929 319.172 307.592L318.488 309.129C318.416 309.312 318.325 309.486 318.215 309.648C318.261 309.458 318.325 309.273 318.406 309.095C318.57 308.699 318.782 308.179 319.042 307.53C319.301 306.881 319.664 306.027 319.998 305.036C320.333 304.045 320.784 302.986 321.146 301.694C321.338 301.072 321.536 300.416 321.748 299.733C321.96 299.05 322.117 298.325 322.315 297.581C322.725 296.098 322.998 294.485 323.381 292.797C324.047 289.105 324.463 285.372 324.625 281.624C324.732 277.876 324.586 274.125 324.187 270.397C323.955 268.682 323.77 267.049 323.463 265.538C323.319 264.787 323.21 264.049 323.053 263.352C322.896 262.655 322.739 261.985 322.588 261.35C322.322 260.072 321.96 258.944 321.693 257.933C321.427 256.921 321.146 256.074 320.907 255.377L320.395 253.771C320.316 253.582 320.257 253.385 320.217 253.184Z" fill="#16191B"/>
<path d="M349.91 241.969C349.918 242.033 349.918 242.097 349.91 242.161C349.91 242.311 349.855 242.489 349.821 242.714C349.732 243.199 349.623 243.917 349.432 244.833C349.049 246.664 348.407 249.302 347.382 252.5C346.357 255.698 345.045 259.456 343.439 263.577C341.833 267.697 339.981 272.194 338.218 276.977C336.455 281.761 335.054 286.414 333.763 290.644C332.471 294.874 331.262 298.673 330.086 301.81C329.187 304.297 328.149 306.731 326.977 309.101C326.574 309.942 326.205 310.57 325.973 311.008L325.692 311.493C325.631 311.602 325.597 311.657 325.59 311.65C325.603 311.588 325.626 311.528 325.658 311.472L325.897 310.967C326.109 310.523 326.451 309.88 326.834 309.026C327.626 307.338 328.706 304.858 329.827 301.707C330.947 298.557 332.15 294.772 333.407 290.535C334.665 286.298 336.052 281.651 337.842 276.868C339.633 272.084 341.478 267.581 343.097 263.468C344.717 259.354 346.097 255.63 347.122 252.445C348.147 249.261 348.824 246.65 349.254 244.833C349.473 243.924 349.609 243.213 349.726 242.728C349.773 242.509 349.821 242.332 349.855 242.188C349.86 242.113 349.879 242.038 349.91 241.969Z" fill="#16191B"/>
<path d="M288.784 232.56C288.512 232.295 288.159 232.129 287.782 232.087C287.405 232.046 287.024 232.132 286.702 232.331C286.379 232.531 286.132 232.832 286 233.188C285.869 233.544 285.86 233.934 285.975 234.296C286.652 236.488 287.483 238.63 288.462 240.705C291.196 246.493 299.191 267.274 302.942 278.686C306.694 290.098 311.942 311.391 311.942 311.391L319.944 310.092C319.944 310.092 312.625 275.139 305.498 262.504C299.751 252.377 293.997 237.74 288.784 232.56Z" fill="#24E45A"/>
<path d="M305.105 285.827C305.281 286.128 305.421 286.449 305.522 286.784C305.755 287.412 306.083 288.328 306.445 289.469C307.183 291.751 308.085 294.936 308.987 298.482C309.889 302.029 310.654 305.254 311.18 307.591C311.42 308.692 311.618 309.641 311.782 310.359C311.87 310.697 311.925 311.042 311.946 311.391C311.803 311.073 311.693 310.741 311.618 310.4C311.426 309.669 311.18 308.753 310.887 307.667C310.272 305.261 309.472 302.097 308.577 298.599C307.682 295.1 306.821 291.861 306.158 289.565C305.843 288.478 305.577 287.569 305.365 286.831C305.245 286.506 305.158 286.169 305.105 285.827Z" fill="#16191B"/>
<path d="M315.985 310.741C315.962 310.673 315.948 310.602 315.944 310.53C315.944 310.359 315.889 310.154 315.848 309.901C315.766 309.347 315.691 308.534 315.52 307.475C315.226 305.37 314.707 302.343 313.846 298.646C312.821 294.324 311.571 290.059 310.101 285.868C308.454 281.125 306.397 276 304.067 270.697C299.359 260.112 294.657 250.716 291.562 243.774C290.004 240.302 288.828 237.48 287.995 235.505C287.592 234.521 287.311 233.749 287.1 233.23C287.004 232.99 286.936 232.792 286.874 232.635C286.843 232.568 286.823 232.496 286.812 232.423C286.854 232.483 286.888 232.547 286.915 232.615L287.175 233.195C287.414 233.742 287.735 234.494 288.152 235.444C288.992 237.391 290.243 240.227 291.835 243.644C294.992 250.539 299.741 259.921 304.456 270.527C306.787 275.836 308.844 280.975 310.47 285.738C311.929 289.949 313.154 294.238 314.139 298.585C314.804 301.518 315.32 304.483 315.684 307.468C315.827 308.52 315.875 309.347 315.937 309.901L315.985 310.536C315.992 310.604 315.992 310.673 315.985 310.741Z" fill="#16191B"/>
<path d="M319.971 310.092C319.844 309.645 319.753 309.188 319.698 308.726C319.541 307.79 319.329 306.546 319.076 305.049C318.53 301.947 317.71 297.676 316.473 293.029C315.236 288.383 313.924 284.262 312.885 281.289C312.379 279.854 311.956 278.672 311.635 277.777C311.458 277.354 311.317 276.918 311.211 276.472C311.439 276.87 311.633 277.286 311.792 277.716C312.133 278.529 312.619 279.711 313.158 281.187C314.605 285.039 315.846 288.964 316.876 292.947C317.91 296.928 318.743 300.958 319.37 305.022C319.596 306.58 319.766 307.844 319.855 308.726C319.928 309.178 319.967 309.635 319.971 310.092Z" fill="#16191B"/>
<path d="M336.392 308.944H305.156V347H336.392V308.944Z" fill="white"/>
<g opacity="0.3">
<path opacity="0.3" d="M336.4 308.944H305.164V347H336.4V308.944Z" fill="black"/>
</g>
<path d="M326.428 308.944H298.719V347H326.428V308.944Z" fill="white"/>
<path d="M229.693 230.204L215.438 228.14L186.924 232.357L178.922 235.187L180.34 252.686L207.757 257.734L226.252 252.253L233.246 241.961L229.693 230.204Z" fill="#FFBE9D"/>
<path d="M238.677 231.876L226.742 229.065C226.742 229.065 218.313 255.165 197.498 254.02C180.533 253.101 180.337 234.166 180.337 234.166L168.112 238.081C168.112 238.081 163.432 269.443 168.61 291.664C169.796 296.854 171.44 303.848 171.44 303.848L169.785 336.313L260.21 336.455L238.677 231.876Z" fill="#FF9900"/>
<g opacity="0.3">
<path opacity="0.3" d="M203.227 330.013C207.628 329.9 211.685 330.274 216.087 330.167C221.366 330.037 226.687 329.906 231.901 330.761C235.804 331.407 239.613 332.594 243.516 333.21C248.854 334.053 254.543 333.756 259.288 331.188L258.523 326.757L240.502 322.403L203.227 330.013Z" fill="black"/>
</g>
<path d="M157.905 245.389C162.058 240.051 168.915 237.826 168.915 237.826L173.542 278.098L164.78 336.74L136.082 336.603C136.082 336.603 151.908 253.13 157.905 245.389Z" fill="#FF9900"/>
<path d="M237.286 231.58C237.286 231.58 256.6 233.128 263.528 264.798C266.66 279.112 270.647 295.881 271.768 307.157C272.592 315.331 268.149 328.132 259.999 329.182L249.749 330.559C247.739 330.848 245.694 330.774 243.71 330.339C237.238 328.85 236.592 324.407 235.406 319.662L232.44 310.218C230.802 301.237 239.172 299.541 243.793 299.665L240.347 258.67L237.286 231.58Z" fill="#FF9900"/>
<path d="M166.524 260.219C166.479 260.361 166.449 260.509 166.435 260.658C166.387 260.978 166.322 261.405 166.239 261.933C166.204 262.212 166.156 262.526 166.109 262.858C166.061 263.19 166.037 263.564 165.996 263.962C165.913 264.751 165.818 265.652 165.776 266.655C165.639 268.999 165.623 271.35 165.729 273.696C165.87 276.565 166.155 279.426 166.583 282.267C167.028 285.298 167.586 288.158 168.155 290.744C168.725 293.33 169.276 295.65 169.763 297.595C170.249 299.541 170.658 301.101 170.949 302.181C171.091 302.697 171.204 303.112 171.293 303.42C171.325 303.567 171.373 303.711 171.435 303.847C171.423 303.699 171.395 303.552 171.352 303.408C171.281 303.088 171.186 302.673 171.068 302.151C170.801 301.03 170.427 299.464 169.964 297.542C169.502 295.62 168.968 293.271 168.428 290.685C167.888 288.098 167.325 285.245 166.886 282.226C166.447 279.206 166.138 276.294 166.008 273.678C165.877 271.062 165.871 268.66 166.008 266.667C166.037 265.664 166.115 264.768 166.18 263.973C166.208 263.578 166.237 263.21 166.269 262.87C166.304 262.538 166.34 262.23 166.37 261.945C166.429 261.417 166.476 260.99 166.506 260.664C166.527 260.516 166.533 260.367 166.524 260.219Z" fill="#16191B"/>
<path d="M258.95 310.758C258.937 310.483 258.891 310.21 258.813 309.945C258.624 309.231 258.374 308.535 258.066 307.863C257.052 305.624 255.475 303.687 253.488 302.24C251.501 300.794 249.172 299.888 246.73 299.612C245.996 299.523 245.256 299.499 244.518 299.541C244.246 299.544 243.975 299.578 243.711 299.642C244.702 299.647 245.692 299.709 246.677 299.826C249.064 300.157 251.332 301.072 253.28 302.489C255.228 303.907 256.797 305.783 257.847 307.952C258.263 308.868 258.631 309.804 258.95 310.758Z" fill="#16191B"/>
<path d="M254.485 294.991C254.332 294.953 254.174 294.939 254.016 294.95C253.59 294.942 253.164 294.962 252.741 295.009C251.341 295.151 249.968 295.495 248.666 296.029C247.365 296.569 246.147 297.29 245.047 298.171C244.716 298.436 244.401 298.721 244.104 299.025C243.897 299.244 243.79 299.369 243.802 299.387C243.814 299.405 244.324 298.972 245.184 298.343C247.421 296.7 250.025 295.629 252.771 295.223C253.821 295.068 254.485 295.045 254.485 294.991Z" fill="#16191B"/>
<path d="M234.492 254.02C234.536 253.74 234.551 253.456 234.54 253.172C234.54 252.626 234.575 251.843 234.641 250.876C234.987 245.819 236.372 240.888 238.71 236.391C239.155 235.531 239.54 234.843 239.819 234.38C239.975 234.144 240.108 233.894 240.216 233.633C240.027 233.843 239.858 234.072 239.712 234.315C239.404 234.766 238.989 235.436 238.526 236.29C236.063 240.773 234.663 245.761 234.433 250.87C234.397 251.843 234.397 252.65 234.433 253.178C234.424 253.46 234.444 253.742 234.492 254.02Z" fill="#16191B"/>
<path d="M197.5 282.748C197.513 282.862 197.541 282.974 197.583 283.08C197.654 283.294 197.743 283.62 197.903 284.011C198.336 285.145 198.874 286.235 199.511 287.268C201.616 290.711 204.672 293.473 208.31 295.22C211.948 296.967 216.014 297.625 220.017 297.115C221.225 296.965 222.416 296.705 223.576 296.338C223.986 296.213 224.294 296.077 224.502 296C224.611 295.964 224.716 295.919 224.816 295.863C224.816 295.834 224.359 295.988 223.541 296.219C222.376 296.546 221.185 296.772 219.982 296.895C216.024 297.361 212.015 296.693 208.423 294.968C204.83 293.244 201.801 290.534 199.689 287.155C199.043 286.14 198.48 285.075 198.004 283.97C197.714 283.187 197.524 282.736 197.5 282.748Z" fill="#16191B"/>
<path d="M238.207 327.266C238.237 327.237 238.539 327.67 239.263 328.263C240.322 329.062 241.533 329.635 242.822 329.948C244.721 330.423 246.682 330.597 248.635 330.464C250.842 330.303 253.28 330.042 255.807 329.669C258.187 329.361 260.531 328.82 262.806 328.055C263.756 327.638 264.625 327.058 265.375 326.341C266.036 325.721 266.632 325.035 267.154 324.294C267.928 323.224 268.59 322.077 269.13 320.872C269.314 320.439 269.456 320.107 269.545 319.875C269.58 319.754 269.632 319.638 269.699 319.531C269.677 319.654 269.645 319.775 269.604 319.893C269.533 320.136 269.409 320.486 269.237 320.919C268.739 322.157 268.1 323.334 267.332 324.425C266.814 325.185 266.217 325.889 265.553 326.525C264.788 327.27 263.896 327.873 262.919 328.304C260.63 329.1 258.264 329.654 255.86 329.959C253.315 330.339 250.883 330.588 248.659 330.736C246.676 330.853 244.688 330.653 242.769 330.143C241.47 329.808 240.257 329.202 239.21 328.364C238.934 328.125 238.681 327.861 238.456 327.575C238.36 327.483 238.277 327.379 238.207 327.266Z" fill="#16191B"/>
<path d="M235.018 264.104C235.095 264.104 237.136 271.988 239.562 281.763C241.988 291.539 243.892 299.476 243.809 299.5C243.726 299.523 241.692 291.61 239.265 281.834C236.839 272.059 234.935 264.122 235.018 264.104Z" fill="#16191B"/>
<path d="M232.553 308.759C232.49 308.547 232.456 308.328 232.453 308.107C232.393 307.515 232.379 306.92 232.411 306.327C232.479 305.422 232.779 304.549 233.283 303.794C233.568 303.345 233.9 302.928 234.274 302.549C234.687 302.154 235.147 301.811 235.644 301.528C237.401 300.606 239.303 299.993 241.267 299.713C241.857 299.628 242.451 299.577 243.047 299.559C243.265 299.526 243.487 299.526 243.705 299.559C243.705 299.606 242.774 299.642 241.297 299.909C239.376 300.24 237.519 300.868 235.792 301.771C235.316 302.042 234.874 302.369 234.475 302.744C234.115 303.106 233.793 303.503 233.514 303.931C233.023 304.634 232.717 305.45 232.625 306.303C232.572 306.895 232.554 307.489 232.571 308.083C232.591 308.308 232.585 308.535 232.553 308.759Z" fill="#16191B"/>
<g opacity="0.3">
<path opacity="0.3" d="M167.41 286.812C162.481 278.466 162.374 267.622 166.675 258.932C165.298 268.191 165.595 277.622 167.553 286.776" fill="black"/>
</g>
<path d="M193.711 307.721L193.788 307.757L193.711 307.721Z" fill="#FFBE9D"/>
<path d="M193.566 307.638L193.744 307.721L193.566 307.638Z" fill="#FFBE9D"/>
<path d="M193.418 307.573L193.495 307.608L193.418 307.573Z" fill="#FFBE9D"/>
<path d="M175.27 324.247C176.824 321.317 188.943 313.57 188.943 313.57L185.663 312.811L182.038 314.341C181.764 315.57 181.232 316.726 180.478 317.734C179.15 319.633 176.89 317.669 176.89 317.669L178.42 310.331L185.586 306.019C185.586 306.019 192.324 307.051 193.416 307.573L196.287 310.201C197.55 311.191 201.192 315.089 202.189 315.207C203.185 315.326 234.488 308.297 234.488 308.297C238.777 311.696 241.013 318.44 241.713 323.31C241.713 323.31 242.478 325.683 241.648 327L203.251 330.013L195.112 332.261C192.933 333.163 190.7 333.929 188.427 334.557C185.722 335.15 183.901 334.255 183.824 332.777C183.747 331.3 185.853 331.117 185.853 331.117C187.648 330.472 189.396 329.703 191.084 328.815C192.321 327.991 193.338 326.88 194.05 325.576L191.15 325.92C191.15 325.92 184.981 330.203 182.661 331.461C180.342 332.718 179.885 330.411 179.695 329.681C179.505 328.951 186.624 322.023 186.624 322.023C186.624 322.023 179.855 326.175 178.639 327.243C177.423 328.311 175.62 328.613 175.235 327.907C174.849 327.202 173.722 327.178 175.27 324.247Z" fill="#FFBE9D"/>
<path d="M193.785 307.756L193.851 307.792L193.785 307.756Z" fill="#FFBE9D"/>
<path d="M208.647 324.924C208.682 324.768 208.694 324.608 208.683 324.449C208.69 324.262 208.678 324.076 208.647 323.891C208.623 323.645 208.578 323.401 208.511 323.162C208.125 321.776 207.457 320.486 206.547 319.371C205.661 318.253 204.668 317.224 203.581 316.299C203.155 315.892 202.688 315.53 202.188 315.219C202.582 315.653 203.002 316.063 203.445 316.447C204.478 317.408 205.438 318.445 206.316 319.549C207.205 320.635 207.881 321.879 208.309 323.215C208.618 324.247 208.588 324.93 208.647 324.924Z" fill="#FF9900" fill-opacity="0.7"/>
<path d="M189.227 313.35C189.921 313.453 190.629 313.389 191.294 313.166C191.959 312.942 192.562 312.564 193.053 312.063C193.005 311.998 192.264 312.55 191.202 312.894C190.14 313.238 189.227 313.267 189.227 313.35Z" fill="#FF9900" fill-opacity="0.7"/>
<path d="M187.207 321.382C189.296 320.727 191.324 319.894 193.269 318.891C192.21 319.171 191.178 319.544 190.185 320.006C189.155 320.38 188.159 320.84 187.207 321.382Z" fill="#FF9900" fill-opacity="0.7"/>
<path d="M193.711 325.487C194.257 325.362 194.787 325.173 195.289 324.924C195.828 324.767 196.345 324.546 196.831 324.265C195.699 324.38 194.62 324.803 193.711 325.487Z" fill="#FF9900" fill-opacity="0.7"/>
<path d="M188.227 321.916C188.662 322.216 189.06 322.567 189.413 322.96C189.7 323.409 189.931 323.891 190.101 324.396C190.137 324.396 190.172 324.2 190.101 323.891C190.029 323.49 189.862 323.112 189.615 322.788C189.369 322.464 189.05 322.204 188.683 322.029C188.416 321.898 188.227 321.886 188.227 321.916Z" fill="#FF9900" fill-opacity="0.7"/>
<path d="M185.362 317.438C185.32 317.509 185.854 317.799 186.204 318.41C186.382 318.803 186.527 319.21 186.637 319.626C186.723 319.399 186.75 319.154 186.716 318.913C186.682 318.673 186.587 318.445 186.441 318.25C186.044 317.562 185.374 317.36 185.362 317.438Z" fill="#FF9900" fill-opacity="0.7"/>
<path d="M186.319 309.43C186.354 309.43 186.461 309.311 186.55 309.044C186.642 308.694 186.642 308.326 186.55 307.976C186.465 307.625 186.289 307.301 186.04 307.039C185.844 306.843 185.684 306.772 185.66 306.802C185.908 307.191 186.108 307.61 186.253 308.048C186.338 308.503 186.36 308.968 186.319 309.43Z" fill="#FF9900" fill-opacity="0.7"/>
<path d="M241.961 328.097C241.922 327.804 241.906 327.509 241.914 327.213C241.914 326.929 241.914 326.584 241.872 326.181C241.831 325.778 241.837 325.321 241.777 324.823C241.555 322.19 240.991 319.598 240.099 317.111C239.598 315.753 238.991 314.436 238.284 313.173C237.928 312.579 237.619 312.051 237.263 311.571C237.097 311.328 236.931 311.096 236.771 310.871C236.611 310.646 236.439 310.444 236.279 310.278C235.003 308.706 234.025 307.905 234.072 307.858C234.321 308.016 234.551 308.201 234.76 308.409C235.027 308.633 235.281 308.873 235.519 309.127C235.798 309.418 236.113 309.72 236.451 310.135C236.611 310.337 236.783 310.539 236.961 310.729C237.139 310.918 237.299 311.185 237.477 311.429C237.845 311.909 238.165 312.467 238.527 313.036C239.26 314.306 239.883 315.635 240.389 317.01C241.289 319.516 241.83 322.136 241.997 324.793C242.038 325.297 242.033 325.76 242.044 326.163C242.056 326.567 242.044 326.917 242.044 327.201C242.047 327.502 242.019 327.802 241.961 328.097Z" fill="#16191B"/>
<g opacity="0.3">
<path opacity="0.3" d="M255.147 300.662C251.546 299.175 247.58 298.813 243.77 299.624C247.045 299.473 250.285 300.349 253.039 302.129C255.792 303.91 257.921 306.505 259.127 309.554C259.4 310.29 259.946 311.162 260.729 311.049C261.512 310.936 261.725 310.029 261.725 309.299C261.731 305.461 258.688 302.139 255.147 300.662Z" fill="black"/>
</g>
<path d="M166.272 257.502C166.095 257.47 165.923 257.412 165.762 257.33C165.436 257.206 164.979 256.998 164.421 256.737C162.966 256.011 161.577 255.159 160.269 254.192C158.966 253.23 157.748 252.158 156.627 250.989C156.2 250.538 155.862 250.159 155.648 249.892C155.435 249.625 155.316 249.465 155.334 249.447C155.352 249.429 155.891 249.981 156.781 250.835C157.937 251.95 159.164 252.99 160.453 253.949C161.746 254.9 163.099 255.766 164.504 256.541C165.62 257.152 166.308 257.461 166.272 257.502Z" fill="white"/>
<path d="M234.772 259.738C234.727 259.779 234.677 259.812 234.624 259.839L234.167 260.112C233.769 260.355 233.164 260.705 232.387 261.097C230.16 262.24 227.85 263.213 225.477 264.009C221.951 265.176 218.334 266.045 214.663 266.607C210.168 267.277 205.634 267.653 201.091 267.735C196.256 267.847 191.653 267.735 187.448 267.663C183.736 267.611 180.032 267.332 176.355 266.827C173.874 266.475 171.429 265.908 169.047 265.13C168.211 264.846 167.564 264.608 167.137 264.425L166.65 264.217C166.593 264.197 166.537 264.171 166.484 264.14L166.662 264.187L167.161 264.365C167.594 264.531 168.246 264.751 169.088 265.018C171.474 265.743 173.914 266.276 176.385 266.613C180.056 267.083 183.752 267.338 187.453 267.379C191.606 267.456 196.233 267.539 201.055 267.426C205.586 267.346 210.108 266.978 214.592 266.323C218.251 265.779 221.86 264.936 225.382 263.802C227.754 263.027 230.069 262.087 232.31 260.99C233.099 260.599 233.71 260.284 234.09 260.059L234.558 259.816C234.713 259.756 234.766 259.732 234.772 259.738Z" fill="white"/>
<path d="M166.503 280.879C166.252 280.856 166.006 280.805 165.767 280.725L163.792 280.185C162.131 279.717 159.841 279.046 157.314 278.293C154.787 277.54 152.509 276.834 150.86 276.312L148.915 275.683C148.674 275.614 148.439 275.522 148.215 275.41C148.465 275.433 148.712 275.485 148.95 275.564L150.926 276.104C152.587 276.573 154.876 277.243 157.403 277.996C159.93 278.75 162.208 279.45 163.857 279.972L165.803 280.606C166.045 280.672 166.28 280.764 166.503 280.879Z" fill="white"/>
<path d="M168.23 313.665C168.23 313.742 162.299 312.046 155.002 309.869C147.706 307.692 141.84 305.859 141.863 305.776C141.887 305.693 147.795 307.389 155.091 309.572C162.388 311.755 168.254 313.582 168.23 313.665Z" fill="white"/>
<path d="M253.955 242.732C253.756 242.925 253.537 243.098 253.303 243.248C252.876 243.562 252.235 244.001 251.434 244.523C247.245 247.233 242.751 249.441 238.046 251.102C237.144 251.416 236.409 251.653 235.893 251.802C235.631 251.897 235.361 251.964 235.086 252.003C235.333 251.875 235.591 251.77 235.857 251.689L237.975 250.9C239.754 250.218 242.192 249.209 244.802 247.934C247.412 246.659 249.702 245.342 251.327 244.345L253.249 243.159C253.47 242.994 253.706 242.851 253.955 242.732Z" fill="white"/>
<path d="M265.777 276.437C265.468 276.612 265.147 276.765 264.816 276.893C264.193 277.172 263.268 277.54 262.117 277.961C256.102 280.152 249.786 281.408 243.39 281.686C242.162 281.74 241.172 281.752 240.484 281.728C240.129 281.736 239.774 281.72 239.422 281.68C239.773 281.627 240.128 281.603 240.484 281.609C241.166 281.609 242.156 281.55 243.378 281.467C246.556 281.265 249.716 280.855 252.84 280.239C255.961 279.612 259.038 278.784 262.052 277.76C263.209 277.362 264.14 277.024 264.781 276.781C265.102 276.638 265.436 276.523 265.777 276.437Z" fill="white"/>
<path d="M248.729 330.345C248.725 330.234 248.735 330.122 248.759 330.013C248.794 329.77 248.848 329.461 248.907 329.082C248.966 328.702 249.055 328.18 249.115 327.599C249.174 327.017 249.275 326.365 249.299 325.629C249.299 325.267 249.346 324.882 249.37 324.484C249.394 324.087 249.37 323.666 249.37 323.239C249.37 322.379 249.334 321.459 249.287 320.492C249.131 318.398 248.812 316.32 248.332 314.276C247.828 312.237 247.168 310.24 246.356 308.302C245.953 307.424 245.591 306.576 245.17 305.823C244.968 305.443 244.785 305.069 244.577 304.72L243.984 303.735C243.622 303.094 243.23 302.548 242.916 302.068C242.602 301.587 242.323 301.172 242.056 300.846L241.498 300.081C241.427 299.996 241.367 299.902 241.32 299.802C241.403 299.874 241.478 299.953 241.546 300.039L242.139 300.775C242.462 301.154 242.765 301.55 243.046 301.961C243.379 302.442 243.782 302.976 244.156 303.61L244.749 304.595C244.957 304.939 245.146 305.319 245.342 305.698C245.769 306.452 246.149 307.3 246.528 308.184C248.237 312.07 249.242 316.23 249.494 320.469C249.53 321.441 249.583 322.367 249.548 323.233C249.548 323.666 249.548 324.087 249.512 324.49C249.477 324.894 249.453 325.273 249.423 325.641C249.382 326.383 249.263 327.035 249.186 327.616C249.109 328.198 249.02 328.696 248.931 329.093C248.842 329.491 248.777 329.776 248.723 330.025C248.737 330.131 248.739 330.238 248.729 330.345Z" fill="white"/>
<path d="M271.61 312.164C271.581 312.164 271.563 311.678 271.426 310.823C271.217 309.617 270.816 308.452 270.24 307.371C269.396 305.767 268.259 304.334 266.889 303.148C265.219 301.683 263.284 300.551 261.188 299.814C259.08 299.11 256.879 298.726 254.657 298.675C252.839 298.625 251.02 298.694 249.212 298.883C247.663 299.025 246.412 299.185 245.546 299.28L244.549 299.387C244.433 299.403 244.315 299.403 244.199 299.387C244.308 299.347 244.422 299.321 244.537 299.31L245.528 299.144C246.388 299.007 247.64 298.823 249.188 298.645C251.006 298.428 252.838 298.337 254.669 298.372C256.921 298.417 259.153 298.803 261.289 299.517C263.421 300.272 265.387 301.433 267.078 302.934C268.465 304.151 269.604 305.623 270.436 307.27C270.999 308.386 271.366 309.59 271.521 310.829C271.568 311.163 271.592 311.5 271.593 311.838C271.611 311.946 271.617 312.055 271.61 312.164Z" fill="white"/>
<path d="M207.797 294.991C207.687 295.025 207.574 295.045 207.459 295.051L206.492 295.152L202.933 295.448C199.925 295.68 195.767 295.964 191.176 296.202C186.585 296.439 182.415 296.587 179.395 296.623C177.889 296.623 176.667 296.623 175.836 296.623H174.869C174.756 296.626 174.642 296.614 174.531 296.587C174.642 296.564 174.756 296.554 174.869 296.557H175.836L179.395 296.468C182.403 296.38 186.567 296.202 191.158 295.958L202.915 295.294L206.474 295.092L207.447 295.051C207.561 295.016 207.678 294.996 207.797 294.991Z" fill="white"/>
<g opacity="0.3">
<path opacity="0.3" d="M211.246 296.225C214.984 297.323 220.144 297.59 223.804 296.225C220.957 300.277 215.458 301.742 210.683 300.425C205.908 299.108 201.512 294.333 201.145 289.392C203.458 292.506 207.509 295.116 211.246 296.225Z" fill="black"/>
</g>
<path d="M241.553 292.316C241.454 292.352 241.353 292.38 241.25 292.399L240.39 292.583C239.637 292.737 238.551 292.939 237.199 293.176C234.5 293.651 230.757 294.232 226.61 294.742C222.464 295.252 218.685 295.585 215.933 295.774C214.569 295.869 213.459 295.935 212.694 295.964L211.816 295.994C211.714 296.011 211.61 296.011 211.508 295.994C211.607 295.968 211.708 295.953 211.81 295.946L212.688 295.857L215.915 295.567C218.644 295.324 222.405 294.974 226.557 294.446C230.709 293.918 234.44 293.39 237.145 292.975L240.348 292.476L241.226 292.352C241.332 292.321 241.443 292.309 241.553 292.316Z" fill="white"/>
<g opacity="0.3">
<path opacity="0.3" d="M235.335 265.908C234.397 276.644 237.322 287.298 240.222 297.679C240.351 298.324 240.623 298.932 241.017 299.458C241.221 299.721 241.504 299.911 241.825 300C242.146 300.089 242.487 300.071 242.797 299.95C243.704 299.488 243.58 298.171 243.325 297.198L235.263 266.352" fill="black"/>
</g>
<path d="M85.1407 276.603L97.3306 336.455H203.155C203.715 336.455 204.252 336.233 204.648 335.837C205.044 335.44 205.267 334.903 205.267 334.343C205.267 333.783 205.044 333.246 204.648 332.85C204.252 332.454 203.715 332.232 203.155 332.232H181.848L170.547 276.567C170.442 276.049 170.161 275.582 169.753 275.245C169.345 274.909 168.834 274.722 168.305 274.716L87.4303 273.832C87.0856 273.828 86.7443 273.901 86.4315 274.046C86.1187 274.191 85.8423 274.404 85.6227 274.67C85.403 274.935 85.2457 275.247 85.1623 275.581C85.0789 275.916 85.0715 276.265 85.1407 276.603Z" fill="#B8B8B8"/>
<path d="M85.1386 276.603C85.123 276.544 85.1111 276.485 85.103 276.425C85.0802 276.244 85.0802 276.06 85.103 275.879C85.1449 275.522 85.2676 275.178 85.4618 274.875C85.656 274.572 85.9167 274.317 86.2241 274.129C86.4409 274 86.6774 273.908 86.9241 273.856C87.1978 273.805 87.4766 273.787 87.7545 273.803H89.6587L94.4042 273.845L124.983 274.135L146.302 274.349L158.249 274.473L164.513 274.539L167.71 274.568C167.983 274.568 168.238 274.568 168.529 274.568C168.814 274.596 169.091 274.677 169.347 274.806C169.877 275.054 170.298 275.486 170.534 276.022C170.637 276.283 170.71 276.556 170.753 276.834L170.919 277.641C171.026 278.175 171.139 278.715 171.245 279.254C171.471 280.34 171.69 281.431 171.916 282.523L173.268 289.184C174.182 293.673 175.115 298.266 176.068 302.964C177.978 312.348 179.965 322.106 182 332.166L181.857 332.048H202.809C203.084 332.035 203.361 332.051 203.633 332.095C204.201 332.236 204.693 332.588 205.009 333.08C205.189 333.341 205.312 333.638 205.37 333.95C205.428 334.262 205.42 334.583 205.346 334.891C205.273 335.2 205.135 335.49 204.942 335.742C204.749 335.994 204.505 336.203 204.226 336.354C203.92 336.52 203.578 336.611 203.23 336.621H175.665H147.014H97.3286H97.2396V336.532C93.5084 318.144 90.4773 303.172 88.3774 292.803C87.3393 287.618 86.5267 283.585 85.975 280.844C85.7021 279.474 85.4945 278.43 85.3818 277.724C85.2691 277.018 85.1861 276.656 85.1861 276.656C85.1861 276.656 85.2691 277.018 85.4174 277.718L86.0699 280.826C86.6334 283.567 87.4639 287.6 88.5316 292.773L97.4887 336.491L97.376 336.396H147.061H203.271C203.574 336.384 203.87 336.305 204.137 336.165C204.38 336.032 204.591 335.849 204.759 335.63C204.926 335.41 205.046 335.157 205.11 334.888C205.173 334.619 205.18 334.34 205.129 334.068C205.078 333.797 204.971 333.539 204.814 333.311C204.535 332.902 204.111 332.616 203.627 332.511C203.374 332.47 203.118 332.454 202.862 332.463H181.727V332.35C179.686 322.266 177.711 312.526 175.795 303.142C174.842 298.452 173.911 293.859 173.001 289.362L171.613 282.612C171.394 281.514 171.174 280.429 170.955 279.343C170.842 278.804 170.735 278.264 170.622 277.724L170.462 276.923C170.423 276.661 170.354 276.404 170.255 276.158C170.056 275.686 169.697 275.299 169.24 275.067C169.011 274.954 168.764 274.881 168.511 274.853C168.262 274.853 167.977 274.853 167.716 274.853L164.513 274.817L158.249 274.746L146.308 274.604L124.989 274.355L94.4101 273.981L89.6646 273.916L87.7605 273.886C87.4869 273.869 87.2123 273.883 86.9419 273.928C86.7022 273.981 86.4722 274.071 86.2597 274.195C85.9542 274.374 85.6942 274.622 85.4997 274.918C85.3053 275.214 85.1818 275.551 85.1386 275.903C85.1089 276.135 85.1089 276.37 85.1386 276.603Z" fill="#16191B"/>
<path d="M133.902 304.014C133.902 304.705 133.697 305.38 133.313 305.955C132.929 306.53 132.383 306.977 131.745 307.242C131.107 307.506 130.404 307.575 129.726 307.441C129.049 307.306 128.426 306.973 127.937 306.484C127.449 305.996 127.116 305.373 126.981 304.696C126.846 304.018 126.916 303.315 127.18 302.677C127.444 302.038 127.892 301.493 128.467 301.109C129.041 300.725 129.717 300.52 130.408 300.52C131.335 300.52 132.223 300.888 132.878 301.543C133.534 302.199 133.902 303.087 133.902 304.014Z" fill="white"/>
<path d="M85.2344 277.089C85.2344 277.089 85.3589 277.089 85.6021 277.089H90.7866L105.919 277.16L155.835 277.51L163.054 277.569H164.834C165.137 277.555 165.442 277.573 165.741 277.623C166.045 277.682 166.335 277.799 166.596 277.967C167.124 278.301 167.508 278.822 167.669 279.426C167.806 280.019 167.901 280.565 168.019 281.134C168.915 285.642 169.799 289.99 170.6 294.131C172.237 302.435 173.714 309.88 174.948 316.15L177.86 330.98C178.192 332.729 178.453 334.088 178.637 335.019C178.72 335.476 178.786 335.826 178.833 336.075C178.881 336.324 178.886 336.431 178.886 336.431C178.886 336.431 178.851 336.312 178.803 336.081C178.756 335.85 178.673 335.488 178.578 335.031C178.388 334.1 178.109 332.747 177.748 331.003C177.036 327.492 176.015 322.426 174.746 316.174L170.333 294.166C169.508 290.014 168.636 285.678 167.74 281.17C167.622 280.612 167.515 280.031 167.396 279.485C167.249 278.952 166.909 278.493 166.441 278.198C166.208 278.056 165.951 277.96 165.682 277.913C165.402 277.867 165.118 277.851 164.834 277.866H163.054L155.835 277.812L105.913 277.373L90.7866 277.207L86.6699 277.148H85.6021L85.2344 277.089Z" fill="#16191B"/>
<path d="M226.559 186.189C226.681 191.724 225.63 197.221 223.475 202.319C221.319 207.418 218.109 212.003 214.055 215.772C212.184 210.374 210.32 204.976 208.461 199.578" fill="#16191B"/>
<path d="M184.421 153.979C189.22 151.358 195.015 150.978 200.377 152.052C205.74 153.125 210.734 155.551 215.468 158.292C218.125 159.828 220.771 161.519 222.681 163.915C226.163 168.299 229.609 175.5 229.942 181.118C230.215 185.638 228.482 196.95 226.572 201.055C224.822 204.821 216.619 207.692 212.567 208.624L175.41 165.38C176.082 162.978 177.224 160.733 178.771 158.776C180.318 156.818 182.238 155.188 184.421 153.979Z" fill="#16191B"/>
<path d="M178.006 159.804L186.904 158.215C182.034 169.812 180.711 196.327 177.929 208.594C174.643 203.848 167.021 189.315 167.43 183.544C167.839 177.772 167.454 158.826 178.006 159.804Z" fill="#16191B"/>
<path d="M220.255 179.106C219.775 172.332 215.385 166.78 208.807 165.101L188.288 159.869C179.426 158.914 173.506 169.817 172.925 178.715C172.278 188.603 171.881 199.031 173.038 206.411C175.357 221.24 186.722 223.162 186.722 223.162C186.722 223.162 186.722 230.221 186.722 234.551L193.585 262.971L215.705 232.41L220.285 179.296C220.302 179.035 220.255 179.444 220.255 179.106Z" fill="#FFBE9D"/>
<path d="M177.375 189.921C177.37 190.417 177.559 190.895 177.901 191.254C178.244 191.613 178.712 191.824 179.208 191.843C179.45 191.862 179.694 191.833 179.924 191.756C180.155 191.68 180.368 191.559 180.551 191.399C180.734 191.239 180.883 191.045 180.99 190.826C181.096 190.608 181.158 190.371 181.171 190.128C181.177 189.633 180.989 189.156 180.648 188.797C180.306 188.438 179.839 188.226 179.344 188.206C179.102 188.186 178.858 188.215 178.626 188.291C178.395 188.366 178.181 188.488 177.998 188.648C177.814 188.807 177.664 189.002 177.557 189.221C177.451 189.44 177.389 189.678 177.375 189.921Z" fill="#16191B"/>
<path d="M175.172 184.523C175.409 184.772 176.851 183.71 178.897 183.716C180.944 183.722 182.456 184.754 182.664 184.505C182.777 184.392 182.533 183.947 181.881 183.467C180.997 182.852 179.945 182.524 178.868 182.53C177.804 182.526 176.766 182.858 175.902 183.479C175.249 183.965 175.036 184.41 175.172 184.523Z" fill="#16191B"/>
<path d="M195.219 189.92C195.214 190.416 195.403 190.895 195.745 191.254C196.087 191.612 196.556 191.824 197.052 191.842C197.295 191.862 197.539 191.834 197.77 191.757C198.002 191.681 198.215 191.559 198.398 191.399C198.582 191.238 198.731 191.042 198.837 190.823C198.943 190.604 199.003 190.365 199.015 190.122C199.02 189.627 198.832 189.149 198.491 188.791C198.15 188.432 197.683 188.22 197.188 188.2C196.945 188.18 196.701 188.209 196.469 188.285C196.237 188.361 196.023 188.483 195.839 188.643C195.656 188.804 195.506 188.999 195.4 189.219C195.293 189.438 195.232 189.677 195.219 189.92Z" fill="#16191B"/>
<path d="M194.587 184.523C194.825 184.772 196.272 183.71 198.318 183.716C200.365 183.722 201.877 184.754 202.085 184.505C202.192 184.392 201.955 183.947 201.302 183.467C200.422 182.857 199.377 182.53 198.307 182.53C197.243 182.528 196.206 182.86 195.341 183.479C194.688 183.965 194.475 184.41 194.587 184.523Z" fill="#16191B"/>
<path d="M188.227 200.598C188.227 200.485 186.963 200.26 184.899 200.005C184.377 199.951 183.885 199.844 183.796 199.488C183.753 198.948 183.877 198.408 184.152 197.94C184.646 196.679 185.164 195.352 185.706 193.96C187.865 188.301 189.425 183.645 189.2 183.561C188.974 183.478 187.035 187.993 184.875 193.646C184.353 195.038 183.857 196.37 183.386 197.644C183.056 198.274 182.957 199 183.108 199.696C183.183 199.881 183.3 200.046 183.449 200.179C183.598 200.311 183.775 200.408 183.968 200.461C184.255 200.544 184.553 200.586 184.852 200.586C186.898 200.705 188.185 200.716 188.227 200.598Z" fill="#16191B"/>
<path d="M206.4 217.877C206.4 217.877 201.572 228.086 186.73 226.645V223.157C193.649 223.252 200.459 221.424 206.4 217.877Z" fill="#FF9900" fill-opacity="0.7"/>
<path d="M195.23 177.125C195.432 177.683 197.472 177.422 199.875 177.719C202.277 178.015 204.217 178.674 204.537 178.175C204.679 177.932 204.341 177.41 203.558 176.87C202.519 176.204 201.335 175.797 200.106 175.684C198.878 175.534 197.632 175.676 196.47 176.099C195.586 176.425 195.141 176.858 195.23 177.125Z" fill="#16191B"/>
<path d="M175.815 178.258C176.171 178.727 177.595 178.258 179.279 178.229C180.964 178.199 182.411 178.549 182.744 178.063C182.886 177.825 182.661 177.363 182.038 176.918C181.196 176.39 180.216 176.124 179.222 176.152C178.229 176.181 177.266 176.503 176.456 177.078C175.851 177.553 175.655 178.033 175.815 178.258Z" fill="#16191B"/>
<path d="M176.955 165.161C177.862 162.931 180.312 161.602 182.715 161.471C185.117 161.341 187.46 162.26 189.56 163.464C198.393 168.572 202.936 180.904 211.662 186.189C213.809 187.488 216.603 186.296 218.43 188.016C220.257 189.737 221.438 192.489 220.429 194.785C221.68 193.232 222.701 191.508 223.461 189.665C224.125 187.785 224.208 185.608 223.211 183.882C222.458 182.571 221.123 181.574 220.762 180.109C220.435 178.816 220.945 177.469 220.892 176.141C220.741 174.79 220.276 173.494 219.534 172.356C216.111 166.312 211.407 160.842 205.351 157.438C201.397 155.155 196.895 153.992 192.33 154.074C187.739 154.177 183.336 155.922 179.921 158.992C177.969 160.813 175.917 162.693 176.955 165.161Z" fill="#16191B"/>
<path d="M218.215 189.855C218.369 189.428 226.11 186.64 226.211 194.862C226.312 202.852 218.25 201.28 218.233 201.049C218.215 200.817 218.215 189.855 218.215 189.855Z" fill="#FFBE9D"/>
<path d="M220.668 198C220.704 198 220.805 198.095 221.042 198.201C221.377 198.335 221.751 198.335 222.086 198.201C222.923 197.887 223.622 196.535 223.646 195.099C223.663 194.413 223.525 193.732 223.243 193.106C223.164 192.858 223.026 192.632 222.841 192.448C222.656 192.264 222.43 192.128 222.181 192.05C222.022 192.009 221.853 192.025 221.705 192.095C221.556 192.166 221.437 192.286 221.368 192.436C221.262 192.661 221.315 192.821 221.268 192.833C221.22 192.845 221.096 192.703 221.161 192.37C221.204 192.174 221.313 191.999 221.469 191.872C221.576 191.788 221.699 191.726 221.83 191.689C221.962 191.652 222.099 191.642 222.234 191.659C222.564 191.72 222.872 191.865 223.128 192.08C223.385 192.295 223.582 192.573 223.7 192.887C224.049 193.573 224.222 194.335 224.204 195.105C224.168 196.719 223.361 198.231 222.205 198.575C221.992 198.64 221.768 198.656 221.548 198.622C221.328 198.588 221.119 198.505 220.935 198.379C220.68 198.196 220.639 198.018 220.668 198Z" fill="#FF9900" fill-opacity="0.7"/>
<path d="M221.396 185.75C221.229 185.676 221.068 185.586 220.916 185.483C220.607 185.288 220.133 185.027 219.575 184.629C218 183.478 216.552 182.162 215.257 180.702C213.373 178.519 211.612 176.231 209.984 173.851C208.021 170.934 205.817 168.188 203.393 165.641C202.1 164.369 200.672 163.241 199.134 162.278C197.693 161.4 196.152 160.699 194.543 160.19C191.812 159.314 188.94 158.962 186.078 159.152C184.147 159.27 182.24 159.643 180.407 160.261C179.749 160.463 179.262 160.682 178.924 160.813C178.756 160.89 178.582 160.951 178.402 160.997C178.56 160.902 178.725 160.819 178.895 160.748C179.37 160.52 179.86 160.322 180.36 160.154C182.191 159.473 184.111 159.057 186.06 158.921C188.956 158.684 191.87 159.006 194.644 159.87C196.284 160.375 197.856 161.08 199.324 161.97C200.884 162.947 202.334 164.091 203.648 165.38C206.087 167.952 208.298 170.731 210.256 173.685C211.868 176.066 213.602 178.36 215.453 180.56C216.722 182.022 218.13 183.357 219.658 184.546C220.204 184.956 220.661 185.234 220.952 185.448C221.108 185.536 221.257 185.637 221.396 185.75Z" fill="#455A64"/>
<path d="M221.58 199.411C221.973 199.339 222.379 199.419 222.716 199.635C223.052 199.852 223.293 200.188 223.39 200.576C223.487 200.964 223.432 201.374 223.237 201.724C223.042 202.073 222.722 202.335 222.341 202.456C221.959 202.577 221.546 202.548 221.186 202.375C220.825 202.202 220.544 201.898 220.399 201.526C220.255 201.153 220.258 200.739 220.408 200.368C220.557 199.997 220.843 199.698 221.206 199.53" fill="white"/>
<path d="M221.204 199.53C220.861 199.807 220.611 200.181 220.486 200.604C220.43 200.822 220.428 201.05 220.482 201.269C220.536 201.487 220.643 201.689 220.795 201.856C220.973 202.066 221.21 202.219 221.474 202.295C221.739 202.372 222.021 202.368 222.284 202.285C222.547 202.202 222.779 202.043 222.952 201.829C223.125 201.614 223.231 201.353 223.257 201.078C223.281 200.857 223.25 200.633 223.167 200.426C223.085 200.219 222.952 200.036 222.782 199.892C222.443 199.62 222.029 199.459 221.596 199.429C221.596 199.429 221.714 199.346 221.969 199.34C222.331 199.343 222.682 199.466 222.966 199.69C223.188 199.855 223.364 200.074 223.476 200.327C223.588 200.579 223.633 200.857 223.607 201.132C223.584 201.476 223.458 201.805 223.246 202.077C223.033 202.348 222.744 202.549 222.415 202.654C222.086 202.758 221.734 202.761 221.404 202.662C221.073 202.563 220.78 202.367 220.563 202.099C220.384 201.89 220.261 201.638 220.207 201.368C220.153 201.098 220.169 200.818 220.255 200.556C220.349 200.211 220.559 199.907 220.848 199.696C221.056 199.536 221.198 199.512 221.204 199.53Z" fill="#16191B"/>
<path d="M219.383 188.01C219.508 190.193 219.608 192.495 218.6 194.435C217.592 196.374 215.041 197.697 213.155 196.612C211.606 195.728 211.144 193.741 210.877 191.979C210.123 186.889 209.773 181.746 208.973 176.663L219.383 188.01Z" fill="#16191B"/>
<path d="M178.922 161.365C178.922 161.406 179.628 161.228 180.903 161.187C182.713 161.159 184.511 161.488 186.194 162.154C187.355 162.603 188.465 163.176 189.504 163.862C190.695 164.662 191.836 165.533 192.921 166.472C195.434 168.598 197.681 171.02 199.612 173.685C200.627 175.109 201.528 176.574 202.501 177.932C203.425 179.253 204.5 180.462 205.704 181.533C207.776 183.289 210.041 184.803 212.455 186.047C214.501 187.127 216.209 187.886 217.39 188.42L218.754 189.013C218.911 189.09 219.076 189.15 219.247 189.191C219.106 189.089 218.955 189.004 218.796 188.936L217.461 188.278C216.275 187.684 214.62 186.901 212.609 185.792C210.238 184.516 208.015 182.984 205.977 181.225C204.801 180.164 203.754 178.97 202.857 177.666C201.902 176.325 201.006 174.86 199.98 173.418C198.028 170.724 195.748 168.283 193.194 166.152C192.087 165.21 190.922 164.339 189.706 163.542C188.638 162.856 187.498 162.289 186.307 161.851C184.582 161.197 182.739 160.911 180.897 161.009C180.4 161.038 179.906 161.107 179.42 161.217C179.248 161.243 179.08 161.293 178.922 161.365Z" fill="#455A64"/>
<path d="M219.602 183.075C219.817 183.26 220.054 183.42 220.307 183.55L222.336 184.736L223.012 185.122C223.279 185.283 223.58 185.383 223.89 185.412C224.079 185.433 224.269 185.389 224.43 185.288C224.516 185.227 224.587 185.149 224.638 185.057C224.69 184.966 224.72 184.864 224.727 184.76C224.709 184.393 224.579 184.041 224.353 183.751L221.98 179.991L221.66 180.281C223.226 181.435 225.145 182.007 227.088 181.901C227.336 181.899 227.582 181.857 227.817 181.776C227.949 181.733 228.069 181.663 228.172 181.57C228.274 181.477 228.355 181.363 228.41 181.236C228.456 181.101 228.467 180.956 228.443 180.816C228.42 180.675 228.361 180.542 228.274 180.429C228.142 180.248 227.991 180.081 227.823 179.931C226.768 178.911 225.853 177.756 225.1 176.497C224.437 175.313 223.858 174.084 223.368 172.819C223.406 173.186 223.491 173.548 223.623 173.893C223.922 174.853 224.32 175.779 224.81 176.657C225.539 177.965 226.449 179.163 227.515 180.216C227.811 180.501 228.108 180.809 227.995 181.076C227.882 181.343 227.443 181.456 227.022 181.456C226.109 181.502 225.194 181.391 224.317 181.129C223.444 180.873 222.62 180.472 221.879 179.943L220.93 179.243L221.565 180.234L223.938 183.965C224.123 184.188 224.24 184.46 224.276 184.748C224.276 184.973 224.074 185.104 223.819 185.086C223.306 184.985 222.818 184.783 222.384 184.493L220.296 183.425C220.077 183.284 219.845 183.167 219.602 183.075Z" fill="#455A64"/>
<path d="M195.974 204.359C195.825 203.751 195.467 203.215 194.963 202.844C194.458 202.473 193.84 202.291 193.215 202.33C192.759 202.386 192.324 202.555 191.949 202.821C191.574 203.087 191.271 203.442 191.068 203.855C190.869 204.269 190.756 204.72 190.734 205.18C190.713 205.639 190.784 206.098 190.943 206.53L190.991 206.72C191.417 207.179 191.974 207.495 192.587 207.626C193.199 207.756 193.837 207.695 194.414 207.449C194.978 207.178 195.436 206.728 195.719 206.169C196.001 205.61 196.09 204.974 195.974 204.359Z" fill="#FF9900" fill-opacity="0.7"/>
<path d="M189.5 206.779C189.5 206.47 191.571 206.565 193.131 204.869C194.691 203.172 194.566 200.954 194.857 200.954C194.987 200.954 195.237 201.464 195.213 202.401C195.17 203.612 194.702 204.77 193.89 205.67C193.107 206.535 192.018 207.063 190.853 207.141C189.999 207.176 189.483 206.921 189.5 206.779Z" fill="#16191B"/>
<path d="M259.237 332.486C259.191 332.492 259.146 332.492 259.1 332.486L258.685 332.528L257.101 332.658C255.725 332.771 253.732 332.902 251.264 333.05C246.335 333.341 239.519 333.643 231.986 333.768C224.452 333.892 217.619 333.821 212.683 333.691C210.216 333.631 208.217 333.56 206.841 333.501L205.251 333.418H204.836H204.699H204.836H205.251H206.841L212.689 333.519C217.625 333.59 224.446 333.625 231.98 333.519C239.513 333.412 246.323 333.127 251.252 332.89L257.095 332.599L258.685 332.528H259.094L259.237 332.486Z" fill="white"/>
<path d="M308.925 1H158.602V127.644H308.925V1Z" fill="white" stroke="#E1E1E1" stroke-width="0.985332" stroke-linecap="round" stroke-linejoin="round"/>
<path d="M189.805 72.1985H188.583L188.377 70.8087H186.895L186.681 72.1985H185.574L186.804 64.509H188.575L189.805 72.1985ZM187.048 69.7626H188.209L187.628 65.8682L187.048 69.7626Z" fill="#E1E1E1"/>
<path d="M191.515 64.509V70.4422C191.515 70.992 191.759 71.2058 192.141 71.2058C192.523 71.2058 192.775 71.0073 192.775 70.4422V64.509H193.913V70.3658C193.913 71.5953 193.302 72.2978 192.111 72.2978C190.919 72.2978 190.309 71.5953 190.309 70.3658V64.509H191.515Z" fill="#E1E1E1"/>
<path d="M194.391 64.509H198.125V65.6086H196.865V72.1985H195.681V65.6086H194.421L194.391 64.509Z" fill="#E1E1E1"/>
<path d="M199.866 72.1985H198.652V64.509H199.866V67.8078H201.233V64.509H202.47V72.1985H201.233V68.9074H199.866V72.1985Z" fill="#E1E1E1"/>
<path d="M204.553 67.7467H206.21V68.8463H204.553V71.1371H206.638V72.2367H203.316V64.509H206.608V65.6086H204.523L204.553 67.7467Z" fill="#E1E1E1"/>
<path d="M208.459 66.67V72.2367H207.375V64.509H208.902L210.147 69.0906V64.509H211.224V72.1985H209.979L208.459 66.67Z" fill="#E1E1E1"/>
<path d="M211.715 64.509H215.457V65.6086H214.189V72.1985H212.982V65.6086H211.715V64.509Z" fill="#E1E1E1"/>
<path d="M215.988 64.509H217.195V72.1985H215.988V64.509Z" fill="#E1E1E1"/>
<path d="M221.581 69.3348V70.358C221.581 71.5875 220.97 72.29 219.779 72.29C218.587 72.29 217.977 71.5875 217.977 70.358V66.3568C217.977 65.1197 218.595 64.4172 219.779 64.4172C220.962 64.4172 221.581 65.1197 221.581 66.3568V67.1204H220.443V66.2957C220.443 65.7459 220.199 65.5321 219.817 65.5321C219.435 65.5321 219.191 65.7459 219.191 66.2957V70.4497C219.191 70.9995 219.427 71.2133 219.817 71.2133C220.206 71.2133 220.443 71.0224 220.443 70.4497V69.3501L221.581 69.3348Z" fill="#E1E1E1"/>
<path d="M226.227 72.1985H225.005L224.799 70.8087H223.325L223.111 72.1985H222.004L223.233 64.509H225.005L226.227 72.1985ZM223.47 69.7626H224.631L224.05 65.8682L223.47 69.7626Z" fill="#E1E1E1"/>
<path d="M226.02 64.509H229.761V65.6086H228.517V72.1985H227.31V65.6086H226.042L226.02 64.509Z" fill="#E1E1E1"/>
<path d="M231.488 67.7467H233.145V68.8463H231.488V71.1371H233.58V72.2367H230.281V64.509H233.58V65.6086H231.488V67.7467Z" fill="#E1E1E1"/>
<path d="M237.164 69.6481L235.637 64.509H236.912L237.836 68.014L238.76 64.509H239.913L238.386 69.6481V72.1985H237.179L237.164 69.6481Z" fill="#E1E1E1"/>
<path d="M240.117 66.3569C240.117 65.8709 240.31 65.4047 240.654 65.061C240.998 64.7173 241.464 64.5243 241.95 64.5243C242.436 64.5243 242.902 64.7173 243.246 65.061C243.589 65.4047 243.782 65.8709 243.782 66.3569V70.3582C243.782 70.8442 243.589 71.3104 243.246 71.6541C242.902 71.9978 242.436 72.1909 241.95 72.1909C241.464 72.1909 240.998 71.9978 240.654 71.6541C240.31 71.3104 240.117 70.8442 240.117 70.3582V66.3569ZM241.324 70.4346C241.324 70.9844 241.568 71.1982 241.95 71.1982C242.332 71.1982 242.576 70.992 242.576 70.4346V66.2805C242.576 65.7308 242.332 65.5169 241.95 65.5169C241.568 65.5169 241.324 65.7308 241.324 66.2805V70.4346Z" fill="#E1E1E1"/>
<path d="M245.714 64.509V70.4422C245.714 70.992 245.959 71.2058 246.34 71.2058C246.722 71.2058 246.967 71.0073 246.967 70.4422V64.509H248.112V70.3658C248.112 71.5953 247.501 72.2978 246.31 72.2978C245.119 72.2978 244.508 71.5953 244.508 70.3658V64.509H245.714Z" fill="#E1E1E1"/>
<path d="M251.466 72.1985C251.364 71.8939 251.328 71.5713 251.359 71.2516V70.0451C251.359 69.335 251.114 69.0677 250.595 69.0677H250.175V72.1985H248.969V64.509H250.794C252.046 64.509 252.581 65.0893 252.581 66.2806V66.8838C252.62 67.1855 252.568 67.492 252.432 67.7641C252.296 68.0362 252.082 68.2615 251.817 68.411C252.42 68.663 252.619 69.2434 252.619 70.0451V71.2516C252.595 71.5679 252.639 71.8855 252.749 72.1832L251.466 72.1985ZM250.145 65.6086V67.9681H250.656C251.107 67.9681 251.382 67.7696 251.382 67.1587V66.3951C251.382 65.8453 251.198 65.6315 250.771 65.6315L250.145 65.6086Z" fill="#E1E1E1"/>
<path d="M258.973 72.1985H257.751L257.545 70.8087H256.056L255.849 72.1985H254.742L256.002 64.509H257.774L258.973 72.1985ZM256.216 69.7626H257.377L256.766 65.9064L256.216 69.7626Z" fill="#E1E1E1"/>
<path d="M263.026 69.3348V70.358C263.026 71.5875 262.408 72.29 261.224 72.29C260.04 72.29 259.422 71.5875 259.422 70.358V66.3568C259.422 65.1197 260.033 64.4172 261.224 64.4172C262.415 64.4172 263.026 65.1197 263.026 66.3568V67.1204H261.881V66.2957C261.881 65.7459 261.636 65.5321 261.255 65.5321C260.873 65.5321 260.628 65.7459 260.628 66.2957V70.4497C260.628 70.9995 260.873 71.2133 261.255 71.2133C261.636 71.2133 261.881 71.0224 261.881 70.4497V69.3501L263.026 69.3348Z" fill="#E1E1E1"/>
<path d="M267.268 69.3348V70.358C267.268 71.5875 266.657 72.29 265.466 72.29C264.275 72.29 263.664 71.5875 263.664 70.358V66.3568C263.664 65.1197 264.283 64.4172 265.466 64.4172C266.65 64.4172 267.268 65.1197 267.268 66.3568V67.1204H266.123V66.2957C266.123 65.7459 265.886 65.5321 265.497 65.5321C265.107 65.5321 264.871 65.7459 264.871 66.2957V70.4497C264.871 70.9995 265.115 71.2133 265.497 71.2133C265.879 71.2133 266.123 71.0224 266.123 70.4497V69.3501L267.268 69.3348Z" fill="#E1E1E1"/>
<path d="M267.898 66.357C267.882 66.1058 267.918 65.854 268.003 65.6172C268.088 65.3803 268.22 65.1634 268.392 64.9798C268.564 64.7962 268.772 64.6499 269.003 64.5498C269.234 64.4498 269.483 64.3982 269.735 64.3982C269.986 64.3982 270.235 64.4498 270.466 64.5498C270.697 64.6499 270.905 64.7962 271.077 64.9798C271.249 65.1634 271.382 65.3803 271.467 65.6172C271.552 65.854 271.588 66.1058 271.571 66.357V70.3583C271.588 70.6094 271.552 70.8612 271.467 71.098C271.382 71.3349 271.249 71.5518 271.077 71.7354C270.905 71.919 270.697 72.0653 270.466 72.1654C270.235 72.2654 269.986 72.317 269.735 72.317C269.483 72.317 269.234 72.2654 269.003 72.1654C268.772 72.0653 268.564 71.919 268.392 71.7354C268.22 71.5518 268.088 71.3349 268.003 71.098C267.918 70.8612 267.882 70.6094 267.898 70.3583V66.357ZM269.113 70.4346C269.113 70.9844 269.349 71.1982 269.739 71.1982C270.128 71.1982 270.365 70.992 270.365 70.4346V66.2806C270.365 65.7308 270.12 65.517 269.739 65.517C269.357 65.517 269.113 65.7308 269.113 66.2806V70.4346Z" fill="#E1E1E1"/>
<path d="M273.507 64.509V70.4422C273.507 70.992 273.752 71.2058 274.133 71.2058C274.515 71.2058 274.76 71.0073 274.76 70.4422V64.509H275.905V70.3658C275.905 71.5953 275.294 72.2978 274.103 72.2978C272.912 72.2978 272.301 71.5953 272.301 70.3658V64.509H273.507Z" fill="#E1E1E1"/>
<path d="M277.807 66.67V72.2367H276.723V64.509H278.25L279.495 69.0906V64.509H280.571V72.1985H279.327L277.807 66.67Z" fill="#E1E1E1"/>
<path d="M281.062 64.509H284.804V65.6086H283.537V72.1985H282.33V65.6086H281.062V64.509Z" fill="#E1E1E1"/>
<path d="M251.498 40.9265C253.013 31.5251 246.619 22.6761 237.217 21.1618C227.816 19.6476 218.967 26.0414 217.453 35.4428C215.939 44.8442 222.332 53.6931 231.734 55.2074C241.135 56.7217 249.984 50.3279 251.498 40.9265Z" fill="#FF9900"/>
<path d="M241.988 34.2091C241.988 35.6967 241.547 37.1509 240.721 38.3879C239.894 39.6248 238.72 40.5888 237.345 41.1581C235.971 41.7274 234.458 41.8763 232.999 41.5861C231.54 41.2959 230.2 40.5795 229.148 39.5276C228.096 38.4757 227.38 37.1355 227.09 35.6765C226.8 34.2175 226.949 32.7051 227.518 31.3308C228.087 29.9564 229.051 28.7817 230.288 27.9552C231.525 27.1288 232.979 26.6876 234.467 26.6876C236.462 26.6876 238.375 27.4801 239.785 28.8906C241.196 30.3012 241.988 32.2143 241.988 34.2091Z" fill="#E1E1E1"/>
<path d="M222.094 50.1762C223.7 51.8357 225.624 53.1552 227.75 54.0563C229.876 54.9575 232.162 55.4219 234.472 55.4219C236.781 55.4219 239.067 54.9575 241.194 54.0563C243.32 53.1552 245.244 51.8357 246.85 50.1762V49.6799C246.851 48.8088 246.68 47.9461 246.347 47.1411C246.015 46.336 245.527 45.6045 244.911 44.9882C244.296 44.3719 243.565 43.883 242.76 43.5494C241.955 43.2159 241.093 43.0442 240.222 43.0442H228.729C226.97 43.0442 225.282 43.7433 224.037 44.9877C222.793 46.2322 222.094 47.92 222.094 49.6799V50.1762Z" fill="#E1E1E1"/>
<path d="M286.143 86.0581H182.125V98.7034H286.143V86.0581Z" stroke="#E1E1E1" stroke-width="0.985332" stroke-miterlimit="10"/>
<path d="M286.143 105.018H182.125V117.664H286.143V105.018Z" fill="#FF9900" stroke="#E1E1E1" stroke-width="0.985332" stroke-miterlimit="10"/>
<path d="M217.015 92.7394V93.503H215.136V96.2367H217.427V97.0003H214.266V89.3337H217.427V90.0973H215.136V92.7241L217.015 92.7394Z" fill="#858585"/>
<path d="M218.994 97.0308H218.23V89.3337H219.353L221.132 94.8928V89.3337H221.896V97.0308H221.002L219.032 90.8075L218.994 97.0308Z" fill="#858585"/>
<path d="M223.846 97.0309V90.1126H222.402V89.349H226.098V90.1126H224.693V97.0309H223.846Z" fill="#858585"/>
<path d="M229.452 92.7394V93.503H227.574V96.2367H229.864V97.0003H226.703V89.3337H229.864V90.0973H227.574V92.7241L229.452 92.7394Z" fill="#858585"/>
<path d="M232.383 89.3337C233.597 89.3337 234.101 89.9522 234.101 91.09V91.7162C234.154 92.0508 234.087 92.3933 233.913 92.6837C233.738 92.9741 233.467 93.1939 233.147 93.3045C233.849 93.5106 234.109 94.0681 234.109 94.908V96.1069C234.087 96.4226 234.139 96.7391 234.262 97.0308H233.399C233.277 96.7337 233.227 96.4118 233.254 96.0916V94.9233C233.254 94.0528 232.849 93.7779 232.131 93.7779H231.566V97.069H230.711V89.3337H232.383ZM232.169 92.9608C232.849 92.9608 233.254 92.7394 233.254 91.9071V91.1435C233.254 90.4562 233.002 90.0897 232.36 90.0897H231.566V92.9379L232.169 92.9608Z" fill="#858585"/>
<path d="M240.107 91.1893V91.8689H239.29V91.1053C239.29 90.4105 239.015 89.9905 238.389 89.9905C237.763 89.9905 237.488 90.4105 237.488 91.1053V95.1677C237.488 95.8626 237.771 96.2826 238.389 96.2826C239.008 96.2826 239.29 95.8626 239.29 95.1677V94.1674H240.107V95.1219C240.107 96.2902 239.55 97.0615 238.366 97.0615C237.183 97.0615 236.641 96.2979 236.641 95.1219V91.1435C236.641 89.9828 237.19 89.2116 238.366 89.2116C239.542 89.2116 240.107 90.0287 240.107 91.1893Z" fill="#858585"/>
<path d="M240.816 91.1893C240.816 90.0134 241.397 89.2574 242.573 89.2574C243.749 89.2574 244.344 90.021 244.344 91.1893V95.1677C244.344 96.336 243.764 97.1072 242.573 97.1072C241.381 97.1072 240.816 96.3436 240.816 95.1677V91.1893ZM241.664 95.2135C241.664 95.916 241.962 96.3284 242.573 96.3284C243.184 96.3284 243.489 95.916 243.489 95.2135V91.1511C243.489 90.4562 243.199 90.0363 242.573 90.0363C241.947 90.0363 241.664 90.4562 241.664 91.1511V95.2135Z" fill="#858585"/>
<path d="M246.951 89.3337C248.149 89.3337 248.699 90.0591 248.699 91.2504V95.1295C248.699 96.3054 248.149 97.0308 246.951 97.0308H245.148V89.3337H246.951ZM246.951 96.2062C247.561 96.2062 247.859 95.8244 247.859 95.1218V91.1664C247.859 90.4639 247.561 90.0744 246.935 90.0744H246.011V96.1832L246.951 96.2062Z" fill="#858585"/>
<path d="M252.241 92.7394V93.503H250.363V96.2367H252.653V97.0003H249.484V89.3337H252.653V90.0973H250.363V92.7241L252.241 92.7394Z" fill="#858585"/>
<path d="M227.138 108.363C228.329 108.363 228.879 109.126 228.879 110.279V114.159C228.879 115.335 228.329 116.06 227.138 116.06H225.328V108.363H227.138ZM227.138 115.281C227.756 115.281 228.054 114.892 228.054 114.189V110.234C228.054 109.531 227.756 109.149 227.13 109.149H226.222V115.258L227.138 115.281Z" fill="#E1E1E1"/>
<path d="M229.621 110.195C229.621 109.019 230.201 108.256 231.377 108.256C232.553 108.256 233.149 109.019 233.149 110.195V114.174C233.184 114.422 233.164 114.675 233.09 114.914C233.016 115.154 232.89 115.374 232.72 115.559C232.551 115.744 232.342 115.888 232.11 115.983C231.878 116.078 231.628 116.119 231.377 116.106C230.201 116.106 229.621 115.342 229.621 114.174V110.195ZM230.461 114.22C230.461 114.922 230.759 115.327 231.377 115.327C231.996 115.327 232.286 114.922 232.286 114.22V110.195C232.286 109.5 232.004 109.08 231.377 109.08C230.751 109.08 230.461 109.5 230.461 110.195V114.22Z" fill="#E1E1E1"/>
<path d="M234.717 116.06H233.953V108.363H235.037L236.817 113.93V108.363H237.58V116.06H236.687L234.717 109.837V116.06Z" fill="#E1E1E1"/>
<path d="M241.186 111.776V112.54H239.308V115.281H241.599V116.045H238.438V108.363H241.606V109.126H239.316V111.753L241.186 111.776Z" fill="#E1E1E1"/>
<path d="M308.925 1H158.602V7.12411H308.925V1Z" fill="#FF9900" stroke="#E1E1E1" stroke-width="0.985332" stroke-linecap="round" stroke-linejoin="round"/>
<path d="M58.0156 196.689V195.559" stroke="#E1E1E1" stroke-width="0.985332" stroke-linecap="round" stroke-linejoin="round"/>
<path d="M58.0156 193.321V96.504C58.0156 94.5479 58.401 92.611 59.1498 90.8039C59.8986 88.9969 60.9961 87.355 62.3796 85.9722C63.7631 84.5894 65.4055 83.4928 67.2129 82.7449C69.0204 81.9971 70.9575 81.6127 72.9136 81.6137H143.753" stroke="#E1E1E1" stroke-width="0.985332" stroke-linecap="round" stroke-linejoin="round" stroke-dasharray="2.93 2.93"/>
<path d="M144.902 81.6137H146.025" stroke="#E1E1E1" stroke-width="0.985332" stroke-linecap="round" stroke-linejoin="round"/>
<path d="M153.477 82.2322L141.305 75.1994V89.2574L153.477 82.2322Z" fill="#E1E1E1"/>
<path d="M269.668 290.987H270.798" stroke="#E1E1E1" stroke-width="0.985332" stroke-linecap="round" stroke-linejoin="round"/>
<path d="M273.039 290.987H277.216C281.179 290.987 284.98 289.412 287.783 286.61C290.585 283.807 292.16 280.006 292.16 276.043V134.776" stroke="#E1E1E1" stroke-width="0.985332" stroke-linecap="round" stroke-linejoin="round" stroke-dasharray="2.93 2.93"/>
<path d="M292.16 133.661V132.539" stroke="#E1E1E1" stroke-width="0.985332" stroke-linecap="round" stroke-linejoin="round"/>
<path d="M265.41 290.33L277.582 297.355V283.297L265.41 290.33Z" fill="#E1E1E1"/>
<path d="M55.888 327.975C53.7555 327.87 51.661 327.37 49.7104 326.502C49.2136 326.263 48.8283 325.841 48.635 325.324C48.4417 324.808 48.4554 324.237 48.6732 323.73C48.891 323.224 49.296 322.821 49.8038 322.606C50.3115 322.391 50.8827 322.381 51.398 322.577C53.3681 323.417 55.8956 323.936 56.5752 323.646C57.8123 322.248 59.7289 313.81 57.2548 309.786C57.1249 309.502 56.9289 309.254 56.6831 309.061C56.4373 308.868 56.1489 308.737 55.8422 308.679C54.4371 308.488 52.3601 309.931 51.6271 310.619C51.2091 310.982 50.6664 311.169 50.1132 311.14C49.56 311.112 49.0396 310.869 48.6615 310.465C48.2834 310.06 48.0772 309.524 48.0862 308.97C48.0953 308.416 48.319 307.888 48.7101 307.495C49.0995 307.129 52.6427 303.945 56.4072 304.441C57.3417 304.581 58.2317 304.933 59.0088 305.47C59.7858 306.008 60.4293 306.716 60.8896 307.541C64.532 313.467 62.0426 324.768 59.2402 326.983C58.2673 327.683 57.0855 328.033 55.888 327.975Z" fill="#F8F8F8" stroke="#F8F8F8" stroke-width="0.985332" stroke-linecap="round" stroke-linejoin="round"/>
<path d="M52.108 302.7H28.5508V333.97H52.108V302.7Z" fill="#F8F8F8" stroke="#F8F8F8" stroke-width="0.985332" stroke-linecap="round" stroke-linejoin="round"/>
<path d="M30.6914 300.99C30.6914 300.99 30.6914 298.386 35.4639 295.782C40.2365 293.178 42.8404 289.276 40.2365 281.9C37.6326 274.523 38.0678 269.315 43.2909 264.97" stroke="#F8F8F8" stroke-width="0.985332" stroke-linecap="round" stroke-linejoin="round"/>
<path d="M31.7734 273.233C32.0178 270.064 33.4305 267.383 36.3551 264.97" stroke="#F8F8F8" stroke-width="0.985332" stroke-linecap="round" stroke-linejoin="round"/>
<path d="M33.2937 281.9C32.8169 280.584 32.4316 279.237 32.1406 277.868" stroke="#F8F8F8" stroke-width="0.985332" stroke-linecap="round" stroke-linejoin="round"/>
<path d="M50.0678 284.442C49.8849 283.579 49.6425 282.729 49.3424 281.899L48.9453 280.724" stroke="#F8F8F8" stroke-width="0.985332" stroke-linecap="round" stroke-linejoin="round"/>
<path d="M39.8008 300.99C39.8008 300.99 39.8008 298.386 44.5733 295.782C47.7041 294.071 49.9185 291.804 50.308 288.367" stroke="#F8F8F8" stroke-width="0.985332" stroke-linecap="round" stroke-linejoin="round"/>
<path d="M366.06 338.395H0V346.495H366.06V338.395Z" fill="#F8F8F8"/>
</svg>
