<svg width="18" height="18" viewBox="0 0 18 18" fill="none" xmlns="http://www.w3.org/2000/svg">
<path fill-rule="evenodd" clip-rule="evenodd" d="M3.75 0.9375C2.61091 0.9375 1.6875 1.86091 1.6875 3C1.6875 4.13909 2.61091 5.0625 3.75 5.0625C4.88909 5.0625 5.8125 4.13909 5.8125 3C5.8125 1.86091 4.88909 0.9375 3.75 0.9375ZM2.8125 3C2.8125 2.48223 3.23223 2.0625 3.75 2.0625C4.26777 2.0625 4.6875 2.48223 4.6875 3C4.6875 3.51777 4.26777 3.9375 3.75 3.9375C3.23223 3.9375 2.8125 3.51777 2.8125 3Z" fill="white"/>
<path fill-rule="evenodd" clip-rule="evenodd" d="M1.6875 6C1.6875 5.68934 1.93934 5.4375 2.25 5.4375H5.25C5.56066 5.4375 5.8125 5.68934 5.8125 6V15.75C5.8125 16.0607 5.56066 16.3125 5.25 16.3125H2.25C1.93934 16.3125 1.6875 16.0607 1.6875 15.75V6ZM2.8125 6.5625V15.1875H4.6875V6.5625H2.8125Z" fill="white"/>
<path fill-rule="evenodd" clip-rule="evenodd" d="M6.9375 6C6.9375 5.68934 7.18934 5.4375 7.5 5.4375H10.5C10.8107 5.4375 11.0625 5.68934 11.0625 6V6.32552L11.389 6.18561C11.9502 5.94507 12.5504 5.79423 13.1574 5.73905C15.2387 5.54985 17.0625 7.18528 17.0625 9.28519V15.75C17.0625 16.0607 16.8107 16.3125 16.5 16.3125H13.5C13.1893 16.3125 12.9375 16.0607 12.9375 15.75V10.5C12.9375 10.2514 12.8387 10.0129 12.6629 9.83709C12.4871 9.66127 12.2486 9.5625 12 9.5625C11.7514 9.5625 11.5129 9.66127 11.3371 9.83709C11.1613 10.0129 11.0625 10.2514 11.0625 10.5V15.75C11.0625 16.0607 10.8107 16.3125 10.5 16.3125H7.5C7.18934 16.3125 6.9375 16.0607 6.9375 15.75V6ZM8.0625 6.5625V15.1875H9.9375V10.5C9.9375 9.95299 10.1548 9.42839 10.5416 9.04159C10.9284 8.6548 11.453 8.4375 12 8.4375C12.547 8.4375 13.0716 8.6548 13.4584 9.04159C13.8452 9.42839 14.0625 9.95299 14.0625 10.5V15.1875H15.9375V9.28519C15.9375 7.8569 14.6918 6.7292 13.2593 6.85943C12.7688 6.90402 12.2838 7.02605 11.8321 7.21965L10.7216 7.69559C10.5478 7.77007 10.3482 7.75226 10.1903 7.64817C10.0325 7.54408 9.9375 7.36765 9.9375 7.17857V6.5625H8.0625Z" fill="white"/>
</svg>
