<svg width="18" height="18" viewBox="0 0 18 18" fill="none" xmlns="http://www.w3.org/2000/svg">
<path fill-rule="evenodd" clip-rule="evenodd" d="M11.2661 2.5076C11.6474 2.44229 12.0744 2.42049 12.4762 2.48847C13.1939 2.60988 13.8568 2.94343 14.3808 3.44349C14.7233 3.45124 15.0599 3.38376 15.3578 3.28757C15.6098 3.20615 15.8228 3.10785 15.972 3.03012C16.0462 2.99147 16.1035 2.9585 16.1408 2.93618C16.1594 2.92504 16.1729 2.91661 16.1809 2.91152L16.188 2.90697C16.4106 2.75867 16.7071 2.78754 16.8967 2.97616C17.0864 3.16484 17.117 3.46103 16.9698 3.68446C16.814 3.92093 16.5977 4.34248 16.3554 4.8148C16.3173 4.88906 16.2786 4.96458 16.2394 5.04083C16.1004 5.31081 15.9579 5.58367 15.8251 5.81777C15.7417 5.96476 15.6525 6.11399 15.5626 6.24294V6.44828C15.5683 7.2025 15.4818 7.95278 15.3062 8.6827C15.1957 9.14196 15.05 9.59315 14.8699 10.0322C14.403 11.1697 13.7142 12.2028 12.8437 13.0711C11.9732 13.9394 10.9383 14.6255 9.79962 15.0894C8.66194 15.5529 7.44338 15.7853 6.21499 15.7729C4.43426 15.7745 2.69098 15.2614 1.19494 14.2955C0.974591 14.1532 0.881816 13.8775 0.971319 13.631C1.06082 13.3845 1.30884 13.2325 1.56915 13.2647C1.79442 13.2926 2.02122 13.3062 2.24821 13.3054C3.0638 13.3032 3.86385 13.123 4.59425 12.7835C4.36209 12.6778 4.14044 12.5475 3.93332 12.3939C3.32453 11.9425 2.8716 11.3125 2.63755 10.5917C2.57673 10.4043 2.61831 10.1988 2.74717 10.0499C2.74948 10.0472 2.75181 10.0446 2.75416 10.042C2.61651 9.91925 2.48772 9.78561 2.36915 9.64188C1.83566 8.99523 1.5419 8.18416 1.53756 7.34586L1.53755 7.34295L1.53756 7.30545C1.53756 7.10605 1.64312 6.92155 1.81502 6.82051C1.8586 6.7949 1.90479 6.77562 1.9523 6.76269C1.69855 6.25638 1.56659 5.69729 1.56756 5.1301C1.56726 4.48752 1.7351 3.85605 2.05443 3.29842C2.14661 3.13744 2.31223 3.03227 2.49713 3.01728C2.68202 3.0023 2.86242 3.07944 2.97932 3.22348C3.70123 4.11299 4.6022 4.84068 5.62369 5.35928C6.14879 5.62587 6.6997 5.83414 7.26655 5.98147C7.58435 6.06407 7.90716 6.12751 8.23324 6.17133C8.21888 5.62888 8.32599 5.08673 8.55079 4.58578C8.88055 3.85091 9.4449 3.24628 10.1553 2.86671C10.4562 2.70597 10.8556 2.57793 11.2661 2.5076ZM2.80751 8.16822C2.90475 8.44189 3.0494 8.69863 3.23694 8.92595C3.60543 9.37261 4.11689 9.67828 4.6848 9.79126C4.93777 9.84158 5.1241 10.0575 5.13687 10.3151C5.14964 10.5727 4.98557 10.806 4.73882 10.8811C4.53445 10.9433 4.32507 10.9866 4.1133 11.0107C4.25324 11.1911 4.41785 11.3526 4.6034 11.4902C5.02429 11.8023 5.532 11.9755 6.05588 11.9855C6.29357 11.9901 6.50272 12.1436 6.57834 12.369C6.65396 12.5944 6.57972 12.843 6.39289 12.99C5.60602 13.6092 4.69612 14.0409 3.73195 14.2613C4.53107 14.5172 5.36915 14.649 6.21687 14.6479L6.2234 14.6479C7.30344 14.6592 8.37489 14.4551 9.37517 14.0476C10.3754 13.6401 11.2845 13.0373 12.0492 12.2746C12.8139 11.5118 13.419 10.6043 13.8291 9.60506C13.9874 9.2194 14.1154 8.82305 14.2124 8.41962C14.3668 7.77779 14.4428 7.11804 14.4376 6.45484L14.4376 6.45045V6.05295C14.4376 5.91656 14.4871 5.78481 14.577 5.68223C14.6289 5.62295 14.7198 5.48604 14.8466 5.26261C14.9671 5.05026 15.1004 4.79534 15.2391 4.52595C15.2475 4.50966 15.2559 4.49328 15.2644 4.47683C14.9047 4.55494 14.497 4.59588 14.0696 4.54969C13.9343 4.53506 13.8088 4.47185 13.7165 4.37177C13.3394 3.96276 12.8371 3.69051 12.2886 3.5977C12.0452 3.55653 11.7509 3.56595 11.4561 3.61645C11.1358 3.67132 10.857 3.76734 10.6855 3.85897C10.1948 4.12114 9.80496 4.53878 9.57718 5.04637C9.34941 5.55396 9.29655 6.12279 9.4269 6.66366C9.46846 6.83609 9.42625 7.01802 9.31301 7.15455C9.19978 7.29107 9.02879 7.36619 8.85164 7.35723C8.21908 7.32523 7.59322 7.22875 6.98356 7.07029C6.33864 6.90268 5.71184 6.66572 5.11441 6.36241C4.23482 5.91585 3.43378 5.33303 2.74015 4.63726C2.70851 4.79897 2.69245 4.96399 2.69256 5.13007L2.69256 5.13151C2.69177 5.54455 2.79313 5.95138 2.98762 6.31576C3.1821 6.68015 3.46367 6.99079 3.80725 7.22003C4.01577 7.35916 4.10706 7.61947 4.03112 7.85836C3.95518 8.09725 3.73033 8.25706 3.47976 8.25024C3.25281 8.24406 3.02776 8.21646 2.80751 8.16822Z" fill="white"/>
</svg>
