<svg width="36" height="35" viewBox="0 0 36 35" fill="none" xmlns="http://www.w3.org/2000/svg">
<path d="M4.03711 7.22211C3.48482 7.22211 3.03711 7.66982 3.03711 8.22211C3.03711 8.77439 3.48482 9.22211 4.03711 9.22211V7.22211ZM6.6297 8.22211L7.6256 8.13157C7.57877 7.61649 7.14691 7.22211 6.6297 7.22211V8.22211ZM27.3704 12.111L28.3604 12.2524C28.4014 11.9654 28.3158 11.6748 28.1259 11.4558C27.936 11.2368 27.6603 11.111 27.3704 11.111V12.111ZM6.98324 12.111L5.98734 12.2015L6.98324 12.111ZM24.4649 21.3L24.3937 20.3026L24.4649 21.3ZM26.3023 19.5879L25.3124 19.4465L26.3023 19.5879ZM9.88268 22.3416L9.81143 21.3441L9.88268 22.3416ZM4.03711 9.22211H6.6297V7.22211H4.03711V9.22211ZM9.95393 23.3391L24.5362 22.2975L24.3937 20.3026L9.81143 21.3441L9.95393 23.3391ZM27.2923 19.7294L28.3604 12.2524L26.3805 11.9696L25.3124 19.4465L27.2923 19.7294ZM5.63381 8.31264L5.98734 12.2015L7.97913 12.0205L7.6256 8.13157L5.63381 8.31264ZM5.98734 12.2015L6.7525 20.6183L8.74429 20.4372L7.97913 12.0205L5.98734 12.2015ZM27.3704 11.111H6.98324V13.111H27.3704V11.111ZM24.5362 22.2975C25.9448 22.1969 27.0925 21.1274 27.2923 19.7294L25.3124 19.4465C25.2458 19.9125 24.8632 20.269 24.3937 20.3026L24.5362 22.2975ZM9.81143 21.3441C9.26807 21.383 8.79361 20.9797 8.74429 20.4372L6.7525 20.6183C6.90046 22.2458 8.32385 23.4555 9.95393 23.3391L9.81143 21.3441Z" fill="#6B006D"/>
<circle cx="11.1671" cy="28.3147" r="1.94444" fill="#6B006D"/>
<circle cx="22.8331" cy="28.3147" r="1.94444" fill="#6B006D"/>
<path d="M35.1493 8.22199C35.1493 12.5175 31.6671 15.9998 27.3715 15.9998C23.076 15.9998 19.5938 12.5175 19.5938 8.22199C19.5938 3.92644 23.076 0.444214 27.3715 0.444214C31.6671 0.444214 35.1493 3.92644 35.1493 8.22199Z" fill="#6B006D"/>
<path d="M31 6L26.3333 10L24 8" stroke="white" stroke-width="2" stroke-linecap="round" stroke-linejoin="round"/>
</svg>
