<svg width="26" height="24" viewBox="0 0 26 24" fill="none" xmlns="http://www.w3.org/2000/svg">
<path d="M1 0C0.447715 0 0 0.447715 0 1C0 1.55228 0.447715 2 1 2V0ZM3.66667 1L4.66256 0.909464C4.61573 0.394385 4.18387 0 3.66667 0V1ZM25.99 5.14142C26.0681 4.59469 25.6882 4.08816 25.1414 4.01005C24.5947 3.93195 24.0882 4.31184 24.0101 4.85858L25.99 5.14142ZM4.0303 5L3.03441 5.09054L4.0303 5ZM22.0574 14.4483L21.9862 13.4508L22.0574 14.4483ZM23.8948 12.7362L22.9049 12.5948L23.8948 12.7362ZM1 2H3.66667V0H1V2ZM7.02793 16.5244L22.1287 15.4457L21.9862 13.4508L6.88543 14.5294L7.02793 16.5244ZM24.8848 12.8776L25.99 5.14142L24.0101 4.85858L22.9049 12.5948L24.8848 12.8776ZM2.67077 1.09054L3.03441 5.09054L5.0262 4.90946L4.66256 0.909464L2.67077 1.09054ZM3.03441 5.09054L3.82651 13.8036L5.81829 13.6225L5.0262 4.90946L3.03441 5.09054ZM22.1287 15.4457C23.5373 15.3451 24.6851 14.2757 24.8848 12.8776L22.9049 12.5948C22.8383 13.0608 22.4557 13.4173 21.9862 13.4508L22.1287 15.4457ZM6.88543 14.5294C6.34207 14.5683 5.86761 14.165 5.81829 13.6225L3.82651 13.8036C3.97446 15.4311 5.39785 16.6408 7.02793 16.5244L6.88543 14.5294Z" fill="#6B006D"/>
<path d="M14.332 3.66699V9.00032" stroke="#FF9900" stroke-width="2" stroke-linecap="round" stroke-linejoin="round"/>
<path d="M11.6699 6.33301H17.0033" stroke="#FF9900" stroke-width="2" stroke-linecap="round" stroke-linejoin="round"/>
<circle cx="8.33398" cy="21.6665" r="2" fill="#FF9900"/>
<circle cx="20.332" cy="21.6665" r="2" fill="#FF9900"/>
</svg>
