<svg width="26" height="20" viewBox="0 0 26 20" fill="none" xmlns="http://www.w3.org/2000/svg">
<path d="M1 0C0.447715 0 0 0.447715 0 1C0 1.55228 0.447715 2 1 2V0ZM16.2727 1H17.2727C17.2727 0.447715 16.825 0 16.2727 0V1ZM16.2727 5.5V4.5C16.0075 4.5 15.7532 4.60536 15.5656 4.79289C15.3781 4.98043 15.2727 5.23478 15.2727 5.5H16.2727ZM2 14.5C2 13.9477 1.55228 13.5 1 13.5C0.447715 13.5 0 13.9477 0 14.5H2ZM1 2H16.2727V0H1V2ZM15.2727 1V16.75H17.2727V1H15.2727ZM16.2727 6.5H21V4.5H16.2727V6.5ZM24 9.5V14.75H26V9.5H24ZM17.2727 16.75V5.5H15.2727L15.2727 16.75H17.2727ZM21.4612 17.6448C21.0021 18.1184 20.2707 18.1184 19.8115 17.6448L18.3757 19.0371C19.6206 20.321 21.6521 20.321 22.897 19.0371L21.4612 17.6448ZM19.8115 15.8552C20.2707 15.3816 21.0021 15.3816 21.4612 15.8552L22.897 14.4629C21.6521 13.179 19.6206 13.179 18.3757 14.4629L19.8115 15.8552ZM7.27942 17.6448C6.82023 18.1184 6.08886 18.1184 5.62967 17.6448L4.19387 19.0371C5.43878 20.321 7.47031 20.321 8.71522 19.0371L7.27942 17.6448ZM5.62967 15.8552C6.08886 15.3816 6.82023 15.3816 7.27942 15.8552L8.71522 14.4629C7.47031 13.179 5.43878 13.179 4.19387 14.4629L5.62967 15.8552ZM21.4612 15.8552C21.6961 16.0974 21.8182 16.419 21.8182 16.75H23.8182C23.8182 15.9294 23.5142 15.0993 22.897 14.4629L21.4612 15.8552ZM21.8182 16.75C21.8182 17.081 21.6961 17.4026 21.4612 17.6448L22.897 19.0371C23.5142 18.4007 23.8182 17.5706 23.8182 16.75H21.8182ZM23 15.75H22.8182V17.75H23V15.75ZM18.4545 15.75H16.2727V17.75H18.4545V15.75ZM19.8115 17.6448C19.5766 17.4026 19.4545 17.081 19.4545 16.75H17.4545C17.4545 17.5706 17.7585 18.4007 18.3757 19.0371L19.8115 17.6448ZM19.4545 16.75C19.4545 16.419 19.5766 16.0974 19.8115 15.8552L18.3757 14.4629C17.7585 15.0993 17.4545 15.9294 17.4545 16.75H19.4545ZM5.62967 17.6448C5.3948 17.4026 5.27273 17.081 5.27273 16.75H3.27273C3.27273 17.5706 3.57668 18.4007 4.19387 19.0371L5.62967 17.6448ZM5.27273 16.75C5.27273 16.419 5.3948 16.0974 5.62967 15.8552L4.19387 14.4629C3.57668 15.0993 3.27273 15.9294 3.27273 16.75H5.27273ZM4.27273 15.75H2.97V17.75H4.27273V15.75ZM16.2727 15.75H8.63636V17.75H16.2727V15.75ZM7.27942 15.8552C7.51429 16.0974 7.63636 16.419 7.63636 16.75H9.63636C9.63636 15.9294 9.33241 15.0993 8.71522 14.4629L7.27942 15.8552ZM7.63636 16.75C7.63636 17.081 7.51429 17.4026 7.27942 17.6448L8.71522 19.0371C9.33241 18.4007 9.63636 17.5706 9.63636 16.75H7.63636ZM2 14.78V14.5H0V14.78H2ZM24 14.75C24 15.3023 23.5523 15.75 23 15.75V17.75C24.6569 17.75 26 16.4069 26 14.75H24ZM21 6.5C22.6569 6.5 24 7.84315 24 9.5H26C26 6.73858 23.7614 4.5 21 4.5V6.5ZM2.97 15.75C2.43428 15.75 2 15.3157 2 14.78H0C0 16.4203 1.32971 17.75 2.97 17.75V15.75Z" fill="#6B006D"/>
<path d="M1 5.50014H5.36364" stroke="#FF9900" stroke-width="2" stroke-linecap="round" stroke-linejoin="round"/>
<path d="M1 10.0003H7.54545" stroke="#FF9900" stroke-width="2" stroke-linecap="round" stroke-linejoin="round"/>
</svg>
