<svg width="18" height="18" viewBox="0 0 18 18" fill="none" xmlns="http://www.w3.org/2000/svg">
<path d="M9.00562 4.21617C8.09339 4.21617 7.20164 4.47617 6.44314 4.9633C5.68464 5.45043 5.09346 6.14281 4.74436 6.95287C4.39527 7.76294 4.30393 8.65432 4.48189 9.51428C4.65986 10.3742 5.09915 11.1642 5.7442 11.7842C6.38925 12.4042 7.21109 12.8264 8.1058 12.9974C9.00051 13.1685 9.9279 13.0807 10.7707 12.7452C11.6135 12.4096 12.3338 11.8414 12.8407 11.1124C13.3475 10.3833 13.618 9.52621 13.618 8.6494C13.6187 8.06702 13.4999 7.49022 13.2684 6.95203C13.0369 6.41385 12.6971 5.92485 12.2687 5.51304C11.8403 5.10124 11.3315 4.77471 10.7716 4.55218C10.2116 4.32964 9.61154 4.21546 9.00562 4.21617ZM9.00562 11.531C8.41245 11.531 7.83259 11.3619 7.33938 11.0452C6.84617 10.7284 6.46176 10.2782 6.23477 9.75147C6.00777 9.22473 5.94837 8.64512 6.0641 8.08593C6.17982 7.52675 6.46546 7.0131 6.8849 6.60995C7.30434 6.2068 7.83874 5.93225 8.42052 5.82102C9.0023 5.7098 9.60533 5.76688 10.1534 5.98507C10.7014 6.20325 11.1698 6.57273 11.4993 7.04678C11.8289 7.52084 12.0048 8.07818 12.0048 8.64832C12.0033 9.41241 11.6868 10.1448 11.1247 10.6851C10.5626 11.2254 9.80059 11.5296 9.00562 11.531ZM14.8847 4.03235C14.8847 4.23701 14.8215 4.43707 14.7033 4.60724C14.585 4.77741 14.4168 4.91004 14.2201 4.98836C14.0234 5.06668 13.8069 5.08717 13.5981 5.04725C13.3892 5.00732 13.1974 4.90877 13.0468 4.76405C12.8963 4.61933 12.7937 4.43495 12.7522 4.23423C12.7107 4.0335 12.732 3.82544 12.8135 3.63636C12.8949 3.44727 13.0329 3.28566 13.21 3.17196C13.387 3.05826 13.5952 2.99757 13.8081 2.99757C13.9494 2.99771 14.0893 3.02467 14.2198 3.07691C14.3502 3.12915 14.4686 3.20564 14.5682 3.30199C14.6679 3.39834 14.7467 3.51264 14.8002 3.63835C14.8538 3.76406 14.8809 3.89868 14.8802 4.03451L14.8847 4.03235ZM17.9401 5.08227C17.9699 3.7375 17.4478 2.4355 16.4866 1.45783C15.4674 0.537138 14.1142 0.0358009 12.7158 0.0608218C11.2297 -0.0202739 6.77707 -0.0202739 5.29099 0.0608218C3.89155 0.033557 2.53668 0.534276 1.51673 1.45567C0.557289 2.43435 0.0354427 3.73566 0.0632793 5.08011C-0.0210931 6.50847 -0.0210931 10.7882 0.0632793 12.2165C0.033503 13.5613 0.555623 14.8633 1.51673 15.841C2.53632 16.7611 3.8893 17.2623 5.28762 17.238C6.77369 17.3191 11.2263 17.3191 12.7124 17.238C14.1115 17.2666 15.4661 16.7648 16.4833 15.841C17.4412 14.8613 17.9628 13.5607 17.9367 12.2165C18.0211 10.7882 18.0211 6.51172 17.9367 5.08011L17.9401 5.08227ZM16.0209 13.7465C15.8682 14.1187 15.6375 14.4568 15.3431 14.7397C15.0488 15.0226 14.6971 15.2443 14.3098 15.3912C13.1252 15.8431 10.314 15.7382 9.00562 15.7382C7.69729 15.7382 4.8815 15.8388 3.70142 15.3912C3.31418 15.2443 2.96247 15.0226 2.66813 14.7397C2.37378 14.4568 2.14308 14.1187 1.99034 13.7465C1.52011 12.608 1.62923 9.90584 1.62923 8.64832C1.62923 7.39079 1.52461 4.68436 1.99034 3.5501C2.14284 3.17872 2.37296 2.84134 2.66649 2.55884C2.96003 2.27633 3.31073 2.0547 3.69692 1.90764C4.8815 1.45567 7.69279 1.56055 9.00562 1.56055C10.3185 1.56055 13.1297 1.45999 14.3098 1.90764C14.6971 2.05445 15.0488 2.27619 15.3431 2.5591C15.6375 2.84202 15.8682 3.18007 16.0209 3.55226C16.4911 4.69085 16.382 7.39296 16.382 8.65048C16.382 9.908 16.4866 12.6123 16.0164 13.7487L16.0209 13.7465Z" fill="white"/>
</svg>
