<svg width="24" height="24" viewBox="0 0 24 24" fill="none" xmlns="http://www.w3.org/2000/svg">
<path d="M12.4712 12.5C11.5169 13.451 10.4035 14.2423 9.17432 14.8305L7.65503 13.3112C6.81881 13.6397 5.92762 13.8587 4.99907 13.9508C4.44948 14.0053 4.00066 14.4477 4.00066 15V16C4.00066 18.2091 5.8192 20.0513 7.96006 19.5063C11.9877 18.481 15.4051 15.9277 17.5586 12.5" stroke="black" stroke-width="2" stroke-linecap="round" stroke-linejoin="round"/>
<path d="M12.4705 12.5C13.4346 11.5392 14.2362 10.4155 14.8305 9.17367L13.3112 7.65438C13.6397 6.81816 13.8587 5.92696 13.9508 4.99842C14.0053 4.44883 14.4477 4 15 4H16C18.2091 4 20.0514 5.81817 19.5064 7.95904C19.0921 9.58674 18.4282 11.1148 17.5579 12.5" stroke="black" stroke-width="2" stroke-linecap="round" stroke-linejoin="round"/>
</svg>
