<svg width="606" height="389" viewBox="0 0 606 389" fill="none" xmlns="http://www.w3.org/2000/svg">
<path d="M451.17 0.0587868C441.169 0.0643572 431.4 3.0724 423.128 8.69338C414.856 14.3144 408.462 22.2894 404.775 31.5856C401.087 40.8819 400.276 51.0711 402.445 60.8339C404.615 70.5967 409.665 79.4833 416.943 86.3428L410.196 109.968L434.056 96.9212C440.912 99.4198 448.232 100.387 455.501 99.7535C462.77 99.1203 469.813 96.9027 476.133 93.2565C482.454 89.6103 487.899 84.6239 492.086 78.648C496.273 72.672 499.101 65.8515 500.369 58.6658C501.638 51.4802 501.318 44.1038 499.431 37.0552C497.544 30.0066 494.136 23.4568 489.447 17.8663C484.757 12.2758 478.9 7.7803 472.287 4.69571C465.675 1.61112 458.466 0.0123523 451.17 0.0117798V0.0587868Z" fill="#F5F5F5"/>
<path d="M451.169 0.0587722C451.169 0.0587722 451.463 0.0587722 452.063 0.0587722L454.672 0.164551C455.248 0.164551 455.847 0.164565 456.6 0.270348L458.95 0.611198C459.785 0.752243 460.69 0.834513 461.642 1.04608L464.639 1.79834C476.731 5.06329 487.131 12.8027 493.73 23.4487L495.281 25.9992C495.728 26.8925 496.174 27.8093 496.621 28.7379C499.464 34.6625 501.064 41.1066 501.322 47.6731C501.442 50.0238 501.403 52.3799 501.205 54.7253C501.123 55.9007 500.876 57.0761 500.711 58.2515C500.617 58.8509 500.535 59.4268 500.441 60.0498L499.983 61.8363C498.835 66.7712 496.903 71.4898 494.258 75.8115C488.632 85.2142 480.083 92.5168 469.917 96.6038C458.964 100.931 446.854 101.346 435.631 97.7792L434.009 97.215H434.256C426.122 101.67 418.141 106.042 410.396 110.262L409.773 110.614L409.961 109.921C412.312 101.775 414.557 93.877 416.719 86.2958L416.802 86.5897C413.697 83.6346 410.966 80.3111 408.668 76.693C406.492 73.1994 404.74 69.4588 403.449 65.5505C402.244 61.8051 401.483 57.9312 401.181 54.0084C401.087 53.0563 401.051 52.1043 401.04 51.164C400.987 50.2244 400.987 49.2826 401.04 48.3431C401.069 46.5042 401.23 44.6698 401.522 42.8541C402.514 36.1053 404.883 29.6324 408.48 23.8366C411.554 18.8705 415.453 14.4661 420.01 10.8134L423.113 8.46269L426.251 6.55858C427.227 5.95486 428.245 5.42069 429.296 4.96007C430.307 4.50168 431.247 3.97276 432.234 3.62015C435.512 2.31547 438.915 1.35054 442.389 0.74049L446.174 0.188064L448.948 0.0705374H450.652H451.228H450.652L448.96 0.188064L446.186 0.352615L442.425 0.940301C438.972 1.58215 435.594 2.57056 432.34 3.8905C431.364 4.24311 430.436 4.78377 429.437 5.24217C428.392 5.7117 427.379 6.24961 426.404 6.85242L423.254 8.76828L420.234 11.119C415.731 14.7476 411.883 19.1205 408.856 24.0481C405.327 29.8099 403.019 36.2346 402.074 42.9246C401.792 44.7256 401.635 46.5439 401.604 48.3666C401.551 49.2944 401.551 50.2244 401.604 51.1522C401.604 52.0807 401.604 53.021 401.745 53.9731C402.059 57.8483 402.82 61.6741 404.013 65.3742C406.622 73.3003 411.172 80.448 417.248 86.1665L417.377 86.2841L417.319 86.4604C415.168 94.0298 412.911 101.928 410.596 110.085L410.161 109.733L434.009 96.6861L434.126 96.6156H434.268L435.878 97.168C446.963 100.695 458.926 100.28 469.74 95.9926C479.792 91.9571 488.249 84.7463 493.824 75.4589C496.445 71.1887 498.366 66.5261 499.512 61.6483C499.665 61.0606 499.818 60.4729 499.959 59.8852L500.241 58.0986C500.394 56.9233 500.641 55.7479 500.735 54.5725C500.93 52.2584 500.973 49.9341 500.864 47.6143C500.637 41.097 499.073 34.6959 496.268 28.8084L494.952 26.0933L493.424 23.5662C489.737 17.5852 484.817 12.46 478.99 8.53321C474.589 5.57868 469.744 3.34485 464.639 1.91586L461.654 1.12837C460.713 0.916798 459.808 0.822769 458.986 0.669971L456.635 0.305608C455.93 0.199825 455.283 0.211566 454.719 0.164551L452.11 0C451.463 0.0940298 451.169 0.0587722 451.169 0.0587722Z" fill="#263238"/>
<path d="M440.215 43.1832H443.741L451.451 32.4285V25.3763C451.451 25.3763 456.917 25.0472 456.27 34.2856C455.624 43.524 456.27 41.1615 456.27 41.1615C456.27 41.1615 467.86 41.1616 468.823 42.2194C469.529 42.9481 469.846 54.4667 469.999 60.7197C470.074 62.2251 469.645 63.7125 468.778 64.9456C467.911 66.1787 466.657 67.0867 465.215 67.5251C464.804 67.631 464.382 67.6863 463.957 67.6897C461.066 67.6897 446.327 65.339 446.327 65.339H440.215V43.1832Z" fill="#263238"/>
<path d="M430.142 41.2438L432.316 65.4095H438.369V41.7257L430.142 41.2438Z" fill="#263238"/>
<path d="M148.176 140.141C147.998 143.511 143.61 148.004 144.964 151.091C147.462 156.781 146.014 163.594 142.78 168.938C139.547 174.282 134.707 178.387 129.951 182.355C130.191 174.058 129.469 165.762 127.799 157.631C127.274 155.091 126.413 152.256 124.093 151.101C121.08 149.61 117.258 151.763 114.172 150.44C110.886 149.012 110.224 144.519 107.453 142.251C104.944 140.204 101.259 140.424 98.1826 141.453C95.1066 142.482 92.2825 144.214 89.1225 144.918C85.9624 145.621 82.1515 144.991 80.3983 142.261C79.3484 140.582 80.0938 141.611 79.065 139.899C79.065 139.899 72.9024 140.109 70.7817 132.939C70.7817 132.939 67.8841 124.97 74.2986 121.453C74.2986 121.453 75.7579 107.05 90.2353 113.527C94.4347 115.396 99.327 109.391 103.39 111.427C106.77 113.139 107.768 117.842 111.148 119.564C115.033 121.537 119.547 118.598 123.893 118.419C126.678 118.419 129.348 119.526 131.317 121.494C133.286 123.463 134.392 126.134 134.392 128.918C134.392 128.918 135.074 126.041 139.788 127.301C144.502 128.561 148.512 133.569 148.176 140.141Z" fill="#263238"/>
<path d="M142.034 163.321C142.124 161.692 141.822 160.064 141.152 158.576C140.543 157.348 138.265 154.555 135.766 154.377L136.134 139.542C136.161 138.07 135.638 136.641 134.667 135.534C133.697 134.427 132.348 133.723 130.884 133.558L101.814 130.493C99.4381 130.242 97.0357 130.474 94.7517 131.175C92.4676 131.877 90.3492 133.034 88.5239 134.576C86.6986 136.117 85.2041 138.013 84.1305 140.147C83.0568 142.282 82.4262 144.612 82.2766 146.996C81.5732 158.177 81.1532 171.857 82.476 180.192C85.1427 196.99 97.9928 199.09 97.9928 199.09L97.6778 210.806C97.1844 223.289 106.528 230.805 116.166 230.805C125.803 230.805 134.706 222.48 134.422 210.124L135.367 172.329C136.995 172.179 138.51 171.431 139.619 170.229C141.217 168.286 142.073 165.837 142.034 163.321Z" fill="#FFBE9D"/>
<path d="M88.7227 156.098C88.7197 156.663 88.9377 157.206 89.33 157.613C89.7224 158.019 90.258 158.255 90.8224 158.272C91.3726 158.303 91.9133 158.118 92.3278 157.754C92.7422 157.391 92.9971 156.879 93.0376 156.329C93.0474 156.048 93.0004 155.767 92.8993 155.503C92.7982 155.24 92.6451 155 92.4492 154.797C92.2532 154.594 92.0184 154.433 91.7587 154.323C91.4991 154.213 91.2199 154.156 90.9379 154.156C90.3876 154.124 89.8469 154.31 89.4325 154.674C89.018 155.037 88.7631 155.549 88.7227 156.098Z" fill="#263238"/>
<path d="M85.1956 154.114C85.458 154.398 87.0853 153.19 89.395 153.19C91.7046 153.19 93.4054 154.356 93.6573 154.072C93.7728 153.946 93.4999 153.442 92.765 152.907C91.7639 152.212 90.5716 151.845 89.353 151.857C88.1528 151.838 86.9785 152.206 86.004 152.907C85.3006 153.484 85.0171 153.988 85.1956 154.114Z" fill="#263238"/>
<path d="M111.064 156.529C111.058 157.094 111.275 157.639 111.668 158.046C112.061 158.453 112.598 158.688 113.163 158.702C113.714 158.734 114.254 158.548 114.669 158.185C115.083 157.821 115.338 157.309 115.378 156.76C115.384 156.194 115.167 155.649 114.774 155.243C114.381 154.836 113.844 154.6 113.279 154.587C112.729 154.555 112.188 154.741 111.773 155.104C111.359 155.467 111.104 155.979 111.064 156.529Z" fill="#263238"/>
<path d="M107.946 154.545C108.208 154.828 109.835 153.621 112.145 153.631C114.455 153.642 116.155 154.786 116.407 154.503C116.523 154.377 116.26 153.873 115.515 153.337C114.514 152.642 113.322 152.275 112.103 152.287C110.904 152.274 109.731 152.641 108.754 153.337C108.051 153.915 107.809 154.419 107.946 154.545Z" fill="#263238"/>
<path d="M99.5361 171.71C98.3153 171.332 97.0534 171.103 95.7777 171.027C95.1898 170.975 94.6333 170.849 94.5284 170.45C94.4837 169.839 94.6227 169.228 94.9273 168.697L96.67 164.214C99.1057 157.799 100.869 152.529 100.596 152.434C100.324 152.34 98.1608 157.453 95.7357 163.867C95.1478 165.442 94.5913 166.954 94.0664 168.392C93.6928 169.105 93.5813 169.926 93.7515 170.712C93.8385 170.92 93.9716 171.106 94.1407 171.255C94.3098 171.404 94.5106 171.513 94.7278 171.573C95.0702 171.666 95.4229 171.716 95.7777 171.72C97.0256 171.88 98.2891 171.876 99.5361 171.71Z" fill="#263238"/>
<path d="M97.9402 199.1C105.839 199.218 113.617 197.143 120.407 193.105C120.407 193.105 114.591 205.704 97.8037 204.16L97.9402 199.1Z" fill="#EB996E"/>
<path d="M106.896 150.492C107.127 151.122 109.437 150.828 112.145 151.154C114.854 151.479 117.059 152.203 117.394 151.658C117.552 151.385 117.174 150.797 116.292 150.188C115.113 149.427 113.772 148.956 112.376 148.812C110.989 148.646 109.582 148.812 108.271 149.295C107.305 149.705 106.802 150.198 106.896 150.492Z" fill="#263238"/>
<path d="M84.8179 148.728C85.2273 149.253 86.8126 148.728 88.7338 148.728C90.655 148.728 92.2718 149.075 92.6497 148.529C92.8177 148.256 92.5552 147.731 91.8518 147.238C90.8995 146.645 89.7931 146.348 88.6721 146.384C87.5511 146.419 86.4657 146.786 85.5528 147.437C84.8599 147.931 84.6394 148.466 84.8179 148.728Z" fill="#263238"/>
<path d="M100.051 184.812C100.051 184.759 100.208 184.476 100.681 184.182C101.316 183.806 102.042 183.61 102.78 183.615C103.516 183.606 104.242 183.794 104.88 184.161C105.352 184.455 105.562 184.728 105.52 184.78C104.65 184.455 103.738 184.25 102.812 184.171C101.864 184.242 100.933 184.458 100.051 184.812Z" fill="#EB996E"/>
<path d="M134.224 167.783C134.772 167.56 135.305 167.3 135.819 167.006C136.395 166.629 136.871 166.12 137.209 165.521C137.547 164.922 137.737 164.25 137.762 163.563C137.773 162.871 137.621 162.186 137.318 161.564C137.016 160.942 136.57 160.4 136.019 159.983C135.543 159.654 134.996 159.442 134.423 159.363C134.371 159.3 135.2 159.017 136.239 159.657C136.894 160.075 137.43 160.653 137.798 161.337C138.165 162.02 138.352 162.787 138.339 163.563C138.326 164.424 138.055 165.261 137.562 165.967C137.171 166.536 136.653 167.006 136.05 167.342C135.517 167.711 134.866 167.868 134.224 167.783Z" fill="#EB996E"/>
<path d="M79.0643 126.493C76.3556 133.737 82.7912 138.986 87.8095 140.141C94.8224 141.779 102.276 137.348 107.074 139.227C110.654 140.634 114.035 143.427 117.835 142.849C119.683 142.576 121.51 141.516 123.305 141.999C125.604 142.629 126.538 145.421 126.454 147.805C126.391 150.744 125.404 153.663 125.772 156.581C126.139 159.5 128.743 162.513 131.588 161.736C132.925 161.289 134.095 160.448 134.946 159.324C135.797 158.2 136.287 156.845 136.354 155.437C136.69 151.395 135.945 146.587 136.144 142.534C136.323 138.965 136.333 135.038 134.045 132.277C131.756 129.516 127.893 128.771 124.334 128.288C109.324 126.221 94.1664 125.42 79.0222 125.894" fill="#263238"/>
<path d="M70.2349 128.036C70.1444 127.794 70.0947 127.539 70.0879 127.28C70.0493 126.53 70.2009 125.783 70.5289 125.107C71.048 124.022 71.9487 123.166 73.059 122.703C73.7612 122.435 74.5202 122.352 75.2637 122.461C76.0511 122.535 76.8385 122.745 77.6678 122.787C78.5281 122.835 79.385 122.646 80.1455 122.241C80.9756 121.778 81.7475 121.218 82.4446 120.572C83.2005 119.921 83.9669 119.207 84.8488 118.566C85.767 117.896 86.8203 117.434 87.9353 117.212C90.3442 116.85 92.8059 117.269 94.9588 118.409C97.1952 119.644 99.2809 121.134 101.174 122.85C103.013 124.561 105.106 125.978 107.378 127.049C108.456 127.5 109.627 127.68 110.79 127.574C111.893 127.407 112.958 127.052 113.94 126.524C115.782 125.419 117.74 124.518 119.777 123.837C121.609 123.314 123.543 123.253 125.404 123.658C126.939 124.006 128.351 124.764 129.488 125.852C130.337 126.675 131 127.67 131.43 128.771C131.699 129.465 131.844 130.2 131.861 130.944C131.875 131.136 131.875 131.329 131.861 131.522C131.861 131.647 131.861 131.71 131.861 131.71C131.847 130.732 131.655 129.764 131.294 128.855C130.846 127.801 130.181 126.853 129.341 126.073C128.229 125.05 126.862 124.347 125.383 124.036C123.586 123.671 121.726 123.751 119.966 124.267C117.961 124.962 116.035 125.87 114.223 126.976C113.175 127.524 112.038 127.879 110.864 128.026C109.617 128.151 108.359 127.967 107.2 127.49C104.876 126.404 102.734 124.966 100.848 123.228C98.9862 121.539 96.936 120.07 94.7383 118.85C92.6912 117.756 90.3494 117.34 88.0508 117.664C85.8566 118.031 84.2714 119.574 82.8016 120.876C82.0706 121.534 81.2635 122.101 80.3974 122.566C79.5657 122.995 78.6334 123.191 77.6993 123.133C76.828 123.07 76.0406 122.85 75.2847 122.755C74.58 122.643 73.8583 122.708 73.185 122.944C72.1308 123.366 71.2629 124.152 70.7388 125.159C70.3982 125.807 70.2181 126.527 70.2139 127.259C70.1929 127.774 70.3189 128.026 70.2349 128.036Z" fill="#6B006D"/>
<path d="M78.3507 139.71C78.1104 139.778 77.8562 139.778 77.6158 139.71C77.2619 139.64 76.927 139.495 76.6337 139.285C76.3404 139.075 76.0954 138.805 75.9151 138.492C75.4086 137.472 75.2678 136.308 75.5161 135.196C75.7636 133.725 76.3534 132.334 77.2379 131.133C78.309 129.659 79.7973 128.54 81.5108 127.921C83.4769 127.19 85.6302 127.135 87.6314 127.763C89.7589 128.557 91.7469 129.684 93.521 131.102C95.3663 132.605 97.4585 133.778 99.7046 134.566C101.999 135.149 104.416 135.017 106.634 134.188C108.73 133.437 110.745 132.477 112.649 131.322C114.396 130.272 116.201 129.323 118.056 128.477C119.687 127.734 121.435 127.283 123.221 127.144C124.521 127.036 125.829 127.195 127.066 127.61C128.302 128.025 129.441 128.688 130.413 129.558C130.917 130.053 131.335 130.628 131.651 131.259C131.764 131.479 131.849 131.711 131.903 131.952C131.498 131.116 130.947 130.359 130.276 129.716C129.308 128.905 128.189 128.294 126.984 127.917C125.778 127.54 124.51 127.406 123.253 127.522C121.513 127.684 119.814 128.15 118.234 128.897C116.403 129.749 114.622 130.706 112.901 131.763C110.972 132.943 108.928 133.924 106.802 134.692C104.481 135.562 101.949 135.701 99.5471 135.091C97.2598 134.277 95.1291 133.077 93.248 131.543C91.525 130.151 89.5943 129.039 87.5264 128.246C85.6262 127.639 83.5792 127.672 81.6997 128.34C80.0618 128.924 78.631 129.975 77.5843 131.364C76.7141 132.506 76.1243 133.837 75.8626 135.248C75.5942 136.3 75.6942 137.411 76.146 138.398C76.3009 138.699 76.5159 138.966 76.7777 139.18C77.0396 139.395 77.3427 139.554 77.6683 139.647C77.8936 139.688 78.1219 139.709 78.3507 139.71Z" fill="#6B006D"/>
<path d="M142.644 167.689C142.644 167.689 143.022 167.185 143.578 166.219C144.341 164.84 144.769 163.301 144.827 161.726C144.875 160.661 144.74 159.595 144.428 158.576C144.043 157.397 143.476 156.284 142.749 155.28C142.014 154.23 141.142 153.075 140.376 151.815C139.505 150.523 139.028 149.006 139.001 147.448C139.15 145.911 139.63 144.425 140.408 143.091C141.079 141.905 141.48 140.586 141.583 139.227C141.612 138.08 141.342 136.946 140.799 135.935C140.256 134.924 139.459 134.073 138.486 133.464C137.131 132.662 135.54 132.35 133.982 132.582C133.415 132.684 132.854 132.82 132.303 132.991C132.421 132.897 132.552 132.819 132.691 132.76C133.096 132.585 133.518 132.455 133.951 132.372C135.565 132.047 137.243 132.316 138.675 133.128C139.733 133.754 140.606 134.65 141.205 135.723C141.804 136.796 142.109 138.009 142.087 139.238C141.992 140.67 141.584 142.065 140.89 143.322C140.152 144.589 139.694 145.999 139.547 147.458C139.573 148.916 140.021 150.335 140.838 151.542C141.573 152.76 142.434 153.873 143.169 154.996C143.912 156.052 144.485 157.217 144.869 158.45C145.18 159.534 145.297 160.664 145.216 161.789C145.126 163.389 144.642 164.944 143.809 166.313C143.581 166.688 143.317 167.039 143.022 167.363C142.759 167.594 142.654 167.699 142.644 167.689Z" fill="#6B006D"/>
<path d="M98.6651 155.437C98.5679 154.558 98.4206 153.685 98.2241 152.823C97.8525 151.385 97.1845 150.042 96.2631 148.877C95.3416 147.713 94.187 146.754 92.8734 146.062C91.5597 145.37 90.116 144.961 88.6347 144.859C87.1534 144.758 85.6673 144.967 84.2717 145.474C82.3219 146.204 80.626 147.484 79.3899 149.159C78.0639 150.962 77.3487 153.141 77.3487 155.379C77.3487 157.617 78.0639 159.797 79.3899 161.6C80.0029 162.466 80.7549 163.225 81.6156 163.846C82.421 164.461 83.3171 164.946 84.2717 165.285C85.931 165.896 87.717 166.082 89.4666 165.825C91.2162 165.568 92.8735 164.877 94.2872 163.815C96.212 162.365 97.5976 160.315 98.2241 157.988C98.4191 157.129 98.5663 156.26 98.6651 155.385C98.7311 156.277 98.6531 157.173 98.4341 158.041C97.8755 160.5 96.471 162.685 94.4657 164.214C93.0078 165.341 91.289 166.082 89.4685 166.368C87.648 166.655 85.7847 166.477 84.0512 165.851C83.0446 165.504 82.0987 165.001 81.2481 164.361C80.3488 163.709 79.5586 162.919 78.907 162.02C77.5025 160.128 76.7441 157.835 76.7441 155.479C76.7441 153.123 77.5025 150.83 78.907 148.938C80.2052 147.178 81.995 145.841 84.0512 145.096C85.9082 144.432 87.9089 144.276 89.8464 144.645C91.9021 145.045 93.7995 146.028 95.3127 147.476C96.8259 148.924 97.8911 150.776 98.3816 152.812C98.6139 153.667 98.7095 154.553 98.6651 155.437Z" fill="#263238"/>
<path d="M123.273 155.437C123.183 154.557 123.035 153.684 122.832 152.823C122.462 151.386 121.795 150.042 120.875 148.878C119.954 147.714 118.801 146.755 117.488 146.063C116.175 145.371 114.732 144.961 113.251 144.86C111.771 144.758 110.285 144.967 108.89 145.474C106.936 146.2 105.235 147.48 103.998 149.159C102.672 150.962 101.957 153.141 101.957 155.379C101.957 157.617 102.672 159.797 103.998 161.6C104.614 162.464 105.365 163.222 106.224 163.846C107.034 164.459 107.933 164.944 108.89 165.285C110.277 165.787 111.753 165.997 113.225 165.9C114.697 165.802 116.133 165.4 117.442 164.72C118.75 164.039 119.903 163.093 120.827 161.944C121.752 160.794 122.427 159.465 122.811 158.041C123.013 157.183 123.16 156.313 123.252 155.437C123.325 156.329 123.247 157.227 123.021 158.093C122.476 160.522 121.103 162.686 119.137 164.214C117.679 165.341 115.96 166.082 114.14 166.368C112.319 166.655 110.456 166.477 108.722 165.851C107.716 165.504 106.77 165.001 105.919 164.361C105.017 163.709 104.224 162.919 103.568 162.02C102.169 160.125 101.415 157.833 101.415 155.479C101.415 153.125 102.169 150.833 103.568 148.938C104.873 147.181 106.665 145.845 108.722 145.096C110.579 144.432 112.58 144.276 114.518 144.645C116.571 145.048 118.465 146.032 119.976 147.48C121.487 148.927 122.551 150.778 123.042 152.812C123.263 153.669 123.341 154.555 123.273 155.437Z" fill="#263238"/>
<path d="M102.277 153.631V153.736V153.547V153.757C101.698 153.886 101.106 153.943 100.513 153.925C99.4632 153.925 98.5918 153.799 98.5918 153.652C98.5918 153.505 99.4527 153.379 100.513 153.379C101.106 153.356 101.699 153.413 102.277 153.547V153.757V153.568V153.673V153.631Z" fill="#263238"/>
<path d="M136.239 156.004C134.032 156.124 131.82 156.058 129.625 155.804C127.417 155.741 125.219 155.491 123.053 155.059C125.259 154.951 127.471 155.018 129.667 155.259C131.874 155.329 134.072 155.578 136.239 156.004Z" fill="#263238"/>
<path d="M109.163 171.132C109.359 171.675 109.384 172.265 109.237 172.822C109.012 174.219 108.283 175.485 107.188 176.381C106.093 177.276 104.708 177.74 103.295 177.683C102.716 177.718 102.141 177.576 101.646 177.274C101.646 177.19 102.297 177.358 103.295 177.274C104.592 177.229 105.838 176.76 106.843 175.939C107.848 175.118 108.557 173.99 108.859 172.728C109.163 171.773 109.1 171.132 109.163 171.132Z" fill="#263238"/>
<path d="M67.5789 246.501C67.5923 246.612 67.5923 246.725 67.5789 246.837V247.823C67.5789 248.726 67.5789 250.007 67.6314 251.624C67.6314 254.952 67.6314 259.708 67.7049 265.576C67.7049 277.356 67.348 293.628 66.4346 311.581C65.5212 329.533 64.5764 345.753 63.936 357.553C63.642 363.401 63.4005 368.157 63.2326 371.485C63.1486 373.102 63.0856 374.361 63.0436 375.264C63.0436 375.674 62.9911 375.999 62.9806 376.251C62.9915 376.363 62.9915 376.475 62.9806 376.587C62.9648 376.476 62.9648 376.363 62.9806 376.251C62.9806 375.999 62.9806 375.674 62.9806 375.264C62.9806 374.361 63.0331 373.091 63.0751 371.474C63.1696 368.178 63.3376 363.412 63.6 357.532C64.0934 345.764 65.0488 329.512 65.9412 311.56C66.8335 293.607 67.3165 277.345 67.3795 265.566C67.3795 259.708 67.4529 254.952 67.4739 251.624C67.4739 250.007 67.4739 248.726 67.5264 247.823V246.837C67.5303 246.723 67.5479 246.61 67.5789 246.501Z" fill="#263238"/>
<path d="M169.005 228.422C163.356 221.903 152.323 220.947 147.43 224.485C142.538 228.023 139.819 234.029 139.325 240.044C138.832 246.06 140.375 252.096 142.664 257.671C146.349 266.616 151.798 273.86 159.934 283.077L180.931 310.604L140.459 350.12L157.257 376.587L191.66 348.871L220.111 318.72" fill="#FF9900"/>
<path d="M22.667 313.292C23.3238 312.81 24.0642 312.454 24.8507 312.242C26.7114 311.614 28.6746 311.347 30.6353 311.455C32.6002 311.562 34.5272 312.039 36.315 312.861C37.0897 313.152 37.8022 313.586 38.4147 314.142C38.4147 314.216 37.5748 313.754 36.21 313.218C34.4354 312.519 32.5606 312.108 30.6563 312.001C28.7533 311.907 26.8475 312.113 25.0081 312.609C23.5489 312.998 22.709 313.376 22.667 313.292Z" fill="#263238"/>
<path d="M174.454 234.606C160.333 215.877 145.131 217.42 137.383 217.199V208.979C131.662 208.979 123.84 214.134 119.799 217.819L115.799 223.31C114.771 220.303 113.055 217.578 110.788 215.353C108.52 213.127 105.764 211.462 102.739 210.491C100.556 209.798 98.3191 209.292 96.051 208.979V216.328C77.0698 216.864 66.9178 222.05 54.2356 236.727C53.5847 237.482 52.2934 238.774 50.8132 240.233L13.2917 284.327C5.62778 292.809 -1.40619 304.484 0.242069 315.822C2.03731 328.588 9.48072 336.987 23.7271 346.614L63.2013 372.199L63.0124 376.598H157.215C157.215 376.598 221.098 329.47 222.662 312.011C223.88 298.216 201.876 268.978 174.454 234.606ZM64.7866 334.667L37.1652 314.058L67.0018 283.182L64.7866 334.667ZM155.241 336.305L154.496 321.05L158.506 280.978C166.38 290.006 180.952 307.927 180.952 310.604L155.241 336.305Z" fill="#FF9900"/>
<path d="M137.363 217.241C137.163 217.678 136.924 218.097 136.649 218.491C136.145 219.268 135.421 220.391 134.465 221.745C132.006 225.297 129.241 228.627 126.203 231.698C125.311 232.601 124.408 233.451 123.526 234.259L123.085 234.669V234.07C123.035 230.621 121.65 227.325 119.222 224.874C118.582 224.107 117.753 223.521 116.817 223.173C116.457 223.102 116.084 223.166 115.768 223.352C115.891 223.198 116.054 223.082 116.24 223.017C116.425 222.952 116.626 222.941 116.817 222.984C117.828 223.267 118.736 223.836 119.432 224.622C120.569 225.703 121.507 226.975 122.203 228.38C123.074 230.15 123.547 232.088 123.589 234.06L123.148 233.861C124.009 233.052 124.912 232.212 125.794 231.309C128.805 228.251 131.594 224.981 134.14 221.525L136.45 218.375C136.715 217.967 137.021 217.587 137.363 217.241Z" fill="#263238"/>
<path d="M96.0303 216.37C96.3373 216.665 96.6118 216.993 96.8492 217.346L98.9488 220.108C100.702 222.459 103.075 225.735 105.678 229.367L107.379 231.74L106.907 231.813C107.415 230.117 108.119 228.485 109.006 226.953C109.74 225.708 110.786 224.677 112.04 223.96C112.868 223.482 113.804 223.221 114.76 223.205C115.116 223.168 115.476 223.219 115.809 223.352C115.809 223.352 115.452 223.352 114.76 223.352C113.854 223.443 112.981 223.741 112.208 224.223C111.044 224.957 110.078 225.967 109.395 227.162C108.55 228.676 107.874 230.278 107.379 231.939L107.211 232.433L106.907 232.013L105.206 229.64C102.602 226.008 100.272 222.701 98.6024 220.297C97.836 219.152 97.1851 218.197 96.6602 217.43C96.4123 217.101 96.2011 216.745 96.0303 216.37Z" fill="#263238"/>
<g opacity="0.1">
<path opacity="0.1" d="M115.778 223.352C117.352 225.075 118.533 227.119 119.242 229.343C119.95 231.566 120.169 233.917 119.883 236.233C119.684 237.766 119.505 239.813 120.933 240.38C121.93 240.768 123.033 240.086 123.841 239.414C129.966 234.479 135.006 228.331 138.644 221.357C138.996 220.808 139.185 220.171 139.19 219.52C139.182 219.196 139.05 218.889 138.821 218.66C138.593 218.431 138.285 218.299 137.962 218.291C137.53 218.411 137.157 218.683 136.912 219.058C132.544 224.097 127.715 229.336 123.348 234.364C123.544 231.565 122.678 228.795 120.923 226.606C119.19 224.506 117.301 222.333 115.81 223.352" fill="black"/>
</g>
<path d="M156.06 374.834C155.937 374.699 155.828 374.551 155.735 374.393C155.504 374.057 155.221 373.616 154.853 373.07L151.63 368.073C148.89 363.727 145.058 357.669 140.596 350.624L140.491 350.446L140.638 350.309L150.486 340.483L171.913 319.276C174.643 316.609 176.868 314.447 178.443 312.893L180.249 311.182C180.451 310.973 180.669 310.78 180.9 310.604C180.727 310.838 180.534 311.056 180.322 311.255C179.892 311.707 179.273 312.305 178.601 313.05L172.155 319.591L150.832 340.913C147.368 344.367 144.029 347.674 140.974 350.708V350.393C145.363 357.48 149.142 363.569 151.84 367.947C153.142 370.047 154.192 371.789 154.937 373.028C155.273 373.585 155.536 374.078 155.745 374.393C155.867 374.528 155.972 374.676 156.06 374.834Z" fill="#263238"/>
<path d="M144.481 227.887L144.323 228.086L143.84 228.653C143.389 229.136 142.791 229.892 142.035 230.879C139.957 233.712 138.579 236.997 138.014 240.464C137.345 245.634 138.156 250.887 140.355 255.613C141.55 258.435 143.102 261.092 144.974 263.519C146.958 266.049 149.058 268.579 151.21 271.298C159.683 281.975 166.958 291.917 172.312 299.056L178.611 307.528C179.336 308.494 179.903 309.271 180.323 309.838L180.753 310.447L180.889 310.657C180.889 310.657 180.816 310.604 180.711 310.478L180.239 309.901L178.454 307.602C176.911 305.639 174.706 302.783 171.997 299.203C166.58 292.127 159.242 282.216 150.79 271.561C148.691 268.883 146.591 266.311 144.554 263.823C142.662 261.353 141.096 258.651 139.893 255.781C137.68 250.966 136.896 245.617 137.636 240.37C138.448 235.904 140.601 231.791 143.809 228.58L144.334 228.055C144.407 227.939 144.47 227.876 144.481 227.887Z" fill="#263238"/>
<path d="M179.892 241.44C179.892 241.493 179.314 241.692 178.327 242.217C176.947 242.979 175.691 243.945 174.601 245.083C172.993 246.787 171.584 248.668 170.401 250.69C168.962 253.217 167.396 255.67 165.708 258.038C164.124 260.195 162.074 261.968 159.712 263.226C157.349 264.483 154.734 265.193 152.06 265.303C150.455 265.384 148.846 265.232 147.284 264.852C146.86 264.756 146.442 264.633 146.034 264.485C145.889 264.437 145.749 264.377 145.614 264.306C147.716 264.811 149.88 265.017 152.039 264.915C154.37 264.756 156.649 264.146 158.748 263.12C161.313 261.86 163.538 260.002 165.236 257.703C167.094 255.288 168.501 252.705 169.929 250.459C171.15 248.418 172.613 246.532 174.286 244.842C175.425 243.702 176.744 242.759 178.191 242.049C178.586 241.865 178.993 241.707 179.409 241.577C179.563 241.51 179.725 241.464 179.892 241.44Z" fill="#FAFAFA"/>
<path d="M154.852 333.753H154.6L153.897 333.585C153.582 333.501 153.193 333.449 152.731 333.375C152.203 333.288 151.67 333.228 151.136 333.197C147.709 333.04 144.281 333.481 141.005 334.499C138.728 335.154 136.501 335.968 134.338 336.934C132.008 337.984 129.593 339.265 126.989 340.493C124.269 341.83 121.429 342.905 118.506 343.706C116.945 344.109 115.349 344.362 113.74 344.462C112.077 344.541 110.41 344.421 108.774 344.105C105.581 343.382 102.532 342.125 99.7562 340.388C97.0476 338.772 94.6225 336.934 92.3023 335.234C87.7145 331.79 83.3261 328.935 79.1583 327.696C77.2967 327.118 75.3642 326.8 73.4156 326.751C71.9466 326.723 70.4807 326.896 69.0587 327.265C67.8505 327.605 66.682 328.073 65.5732 328.662L65.7727 328.515L66.4026 328.137C67.2281 327.69 68.1015 327.337 69.0062 327.087C70.4441 326.679 71.9317 326.474 73.4261 326.478C75.403 326.494 77.3678 326.788 79.2632 327.349C83.5256 328.557 87.9875 331.433 92.5963 334.856C94.9269 336.556 97.3521 338.362 100.029 339.958C102.754 341.661 105.746 342.893 108.879 343.601C110.469 343.914 112.091 344.03 113.709 343.947C115.282 343.857 116.843 343.615 118.37 343.223C121.262 342.437 124.073 341.383 126.769 340.073C129.372 338.856 131.798 337.575 134.118 336.556C136.304 335.597 138.556 334.797 140.858 334.163C144.176 333.166 147.648 332.778 151.104 333.019C152.382 333.088 153.643 333.335 154.852 333.753Z" fill="#FAFAFA"/>
<path d="M51.0756 324.431C51.0756 324.431 51.1281 324.557 51.1596 324.798C51.2255 325.145 51.2676 325.496 51.2856 325.848C51.3904 327.148 51.334 328.457 51.1176 329.743C50.8072 331.677 50.0604 333.515 48.9339 335.118C47.4908 337.024 45.6538 338.596 43.5482 339.727C41.4485 341.018 39.2753 342.1 37.5431 343.359C35.9774 344.422 34.6065 345.747 33.4907 347.275C32.7534 348.309 32.3338 349.535 32.2834 350.803C32.2834 351.706 32.4198 352.199 32.3569 352.21C32.2948 352.103 32.2521 351.985 32.2309 351.863C32.1408 351.52 32.0845 351.168 32.0629 350.813C32.0204 349.486 32.3869 348.178 33.1127 347.065C34.2133 345.457 35.5971 344.063 37.1966 342.95C38.9604 341.638 41.0916 340.535 43.2123 339.265C45.2495 338.163 47.0367 336.651 48.4615 334.824C49.5647 333.291 50.3206 331.535 50.6767 329.68C50.9169 328.421 51.0295 327.14 51.0126 325.859C50.9997 325.382 51.0207 324.905 51.0756 324.431Z" fill="#FAFAFA"/>
<path d="M209.508 280.978C207.353 281.34 205.258 281.997 203.283 282.93C201.168 283.963 199.269 285.388 197.687 287.13C196.762 288.164 195.965 289.306 195.314 290.531C194.621 291.802 194.149 293.24 193.467 294.657C192.842 296.084 191.897 297.349 190.706 298.353C189.585 299.267 188.313 299.977 186.947 300.452C184.649 301.213 182.223 301.513 179.808 301.334C178.196 301.237 176.59 301.048 175 300.767C174.414 300.69 173.834 300.567 173.268 300.4C173.859 300.402 174.449 300.454 175.031 300.557C176.165 300.673 177.792 300.893 179.819 300.946C182.18 301.065 184.542 300.734 186.779 299.969C188.14 299.529 189.393 298.809 190.46 297.857C191.526 296.904 192.382 295.739 192.973 294.437C193.635 293.051 194.118 291.602 194.842 290.29C195.531 289.038 196.374 287.878 197.351 286.836C198.987 285.047 200.96 283.598 203.157 282.573C204.622 281.878 206.176 281.39 207.776 281.125C208.211 281.053 208.649 281.004 209.088 280.978C209.227 280.955 209.369 280.955 209.508 280.978Z" fill="#FAFAFA"/>
<path d="M157.331 289.838L157.089 289.912L156.375 290.069C155.745 290.206 154.811 290.374 153.593 290.563C150.165 291.091 146.699 291.337 143.231 291.298C138.069 291.261 132.946 290.393 128.061 288.725C125.199 287.686 122.437 286.39 119.809 284.852C117.024 283.201 114.11 281.779 111.095 280.6C109.562 280.058 107.969 279.705 106.35 279.55C104.775 279.431 103.192 279.509 101.636 279.781C98.7031 280.381 95.8736 281.407 93.2374 282.825C88.1456 285.523 83.8623 288.526 79.9883 290.615C76.9927 292.393 73.7266 293.67 70.3192 294.395C69.3979 294.593 68.4585 294.695 67.5162 294.699H66.7813C66.6977 294.711 66.6129 294.711 66.5293 294.699H66.7813L67.5057 294.615C68.4397 294.56 69.3672 294.423 70.2773 294.206C73.634 293.409 76.8464 292.095 79.7994 290.311C83.6103 288.211 87.8727 285.156 92.9959 282.405C95.6829 280.936 98.5737 279.874 101.573 279.256C103.173 278.971 104.802 278.887 106.423 279.004C108.09 279.168 109.73 279.539 111.305 280.106C114.349 281.295 117.288 282.734 120.092 284.411C122.699 285.93 125.432 287.223 128.26 288.274C133.09 289.945 138.153 290.842 143.263 290.93C146.712 291.006 150.162 290.82 153.583 290.374C154.8 290.216 155.735 290.08 156.375 289.975L157.1 289.88C157.174 289.856 157.252 289.842 157.331 289.838Z" fill="#FAFAFA"/>
<path d="M54.7084 295.906C54.8107 295.37 54.7891 294.817 54.6454 294.29C54.3506 293.61 53.8976 293.01 53.3242 292.541C52.7508 292.072 52.0735 291.746 51.3489 291.592C50.4355 291.319 49.3961 291.161 48.2833 290.909C47.0497 290.681 45.8918 290.151 44.9133 289.366C43.8875 288.441 43.0897 287.291 42.5826 286.006C42.0661 284.642 41.6623 283.237 41.3753 281.807C41.1029 280.415 40.7022 279.052 40.1785 277.734C39.6743 276.519 39.0144 275.376 38.2153 274.332C36.867 272.545 35.1339 271.085 33.1445 270.059C31.8221 269.367 30.4083 268.865 28.9451 268.568C27.8953 268.358 27.2969 268.316 27.2969 268.264C27.4424 268.235 27.5923 268.235 27.7378 268.264C28.1527 268.277 28.5665 268.316 28.9766 268.379C30.5061 268.592 31.9914 269.049 33.3755 269.734C35.4336 270.749 37.2299 272.226 38.6247 274.049C39.4779 275.115 40.1841 276.291 40.7244 277.545C41.2679 278.903 41.6827 280.309 41.9632 281.744C42.2415 283.134 42.6312 284.5 43.1286 285.828C43.6029 287.027 44.3422 288.104 45.2912 288.977C46.2021 289.727 47.2841 290.239 48.4408 290.468C49.4906 290.741 50.5405 290.92 51.5168 291.224C52.2848 291.408 52.9958 291.779 53.5871 292.302C54.1784 292.826 54.632 293.487 54.9078 294.227C55.0145 294.643 55.0145 295.08 54.9078 295.497C54.8721 295.646 54.804 295.786 54.7084 295.906Z" fill="#FAFAFA"/>
<path d="M137.625 242.06C136.649 241.522 135.613 241.103 134.538 240.81C133.264 240.548 131.949 240.548 130.675 240.81C128.976 241.145 127.328 241.699 125.772 242.459C124.019 243.246 122.171 244.275 120.155 245.335C118.02 246.524 115.755 247.465 113.405 248.138C110.761 248.785 108.012 248.875 105.331 248.401C102.475 247.879 99.7055 246.964 97.1006 245.682C91.7359 243.068 87.2741 239.561 82.9697 236.832C79.2602 234.25 75.1177 232.355 70.739 231.236C67.7808 230.51 64.6952 230.474 61.7208 231.131C60.6535 231.426 59.6022 231.776 58.5713 232.181C59.5598 231.624 60.6193 231.203 61.7208 230.931C64.7238 230.182 67.8625 230.16 70.8755 230.868C75.3183 231.945 79.5273 233.823 83.2952 236.412C87.6415 239.131 92.1034 242.627 97.3841 245.199C99.9435 246.459 102.663 247.364 105.468 247.886C108.077 248.35 110.754 248.271 113.331 247.656C115.65 247.011 117.887 246.102 119.998 244.947C122.014 243.897 123.882 242.847 125.667 242.112C127.261 241.369 128.944 240.833 130.675 240.517C131.994 240.292 133.345 240.342 134.643 240.664C135.451 240.887 136.226 241.212 136.953 241.629C137.184 241.761 137.409 241.904 137.625 242.06Z" fill="#FAFAFA"/>
<path d="M131.694 375.348L134.612 376.808H151.41L154.801 374.036L142.581 353.816C141.079 354.477 134.486 355.506 132.355 356.252C130.517 356.897 128.582 357.224 126.633 357.217C124.461 357.266 122.29 357.086 120.156 356.682L119.694 356.535C119.409 356.412 119.102 356.348 118.791 356.346C116.975 356.189 115.537 358.089 116.555 359.59C117.573 361.091 122.539 363.097 128.88 362.918H129.185C134.749 362.918 129.646 367.579 126.339 370.351C125.755 370.822 125.302 371.436 125.023 372.132C124.743 372.829 124.647 373.586 124.744 374.33C124.763 374.598 124.839 374.858 124.968 375.094C125.096 375.329 125.274 375.534 125.489 375.695C126.896 376.587 131.694 375.348 131.694 375.348Z" fill="#FFBE9D"/>
<path d="M63.1489 372.839C63.1377 372.741 63.1377 372.643 63.1489 372.545C63.1489 372.314 63.1489 372.031 63.1489 371.674C63.1489 370.865 63.2119 369.742 63.2644 368.325C63.3904 365.385 63.5584 361.196 63.7788 356.031C64.2093 345.617 64.8287 331.297 65.4691 315.476C66.1095 299.654 66.5189 285.282 66.8129 274.899C66.9284 269.734 67.0124 265.545 67.0754 262.595C67.0754 261.177 67.1278 260.054 67.1488 259.246C67.1488 258.889 67.1488 258.605 67.1488 258.385C67.1355 258.284 67.1355 258.182 67.1488 258.08C67.1646 258.181 67.1646 258.284 67.1488 258.385C67.1488 258.605 67.1488 258.899 67.1488 259.246C67.1488 260.054 67.1488 261.177 67.1488 262.595C67.1488 265.503 67.1488 269.702 67.0648 274.899C66.9179 285.292 66.4979 299.644 65.8785 315.497C65.2591 331.349 64.5767 345.68 64.0308 356.052C63.7368 361.207 63.5059 365.396 63.3379 368.335C63.2434 369.753 63.1699 370.876 63.1174 371.674L63.0439 372.545C63.0898 372.639 63.125 372.738 63.1489 372.839Z" fill="#263238"/>
<path d="M108.848 374.834C108.832 374.705 108.832 374.574 108.848 374.445C108.848 374.162 108.795 373.784 108.753 373.301L108.449 368.881C108.323 366.971 108.166 364.619 108.082 361.889C107.998 359.16 107.798 356.063 107.777 352.63C107.756 349.197 107.63 345.428 107.683 341.386C107.683 339.37 107.683 337.281 107.683 335.087C107.683 332.893 107.777 330.719 107.83 328.452C108.092 319.371 108.564 309.397 109.299 298.94C110.769 278.017 112.638 259.13 113.835 245.451C114.423 238.627 114.885 233.105 115.242 229.241C115.399 227.362 115.535 225.882 115.619 224.842C115.672 224.359 115.703 223.981 115.735 223.698C115.766 223.415 115.787 223.31 115.787 223.31C115.802 223.439 115.802 223.569 115.787 223.698L115.735 224.853C115.661 225.903 115.567 227.372 115.451 229.262C115.21 233.094 114.78 238.637 114.223 245.482C113.121 259.13 111.315 278.028 109.845 298.972C109.11 309.47 108.627 319.392 108.334 328.462C108.334 330.73 108.218 332.945 108.166 335.097C108.113 337.249 108.166 339.297 108.092 341.396C108.029 345.428 108.092 349.186 108.092 352.619C108.092 356.052 108.25 359.16 108.313 361.879C108.376 364.598 108.491 366.96 108.585 368.871C108.68 370.781 108.743 372.251 108.795 373.291V374.445C108.827 374.573 108.844 374.703 108.848 374.834Z" fill="#263238"/>
<path d="M116.576 271.403C116.524 271.351 117.112 271.109 117.763 271.666C117.949 271.83 118.093 272.037 118.182 272.269C118.272 272.502 118.304 272.752 118.277 272.999C118.21 273.304 118.052 273.582 117.825 273.797C117.599 274.012 117.312 274.154 117.004 274.205C116.695 274.256 116.379 274.213 116.095 274.082C115.811 273.952 115.573 273.739 115.411 273.471C115.306 273.248 115.256 273.003 115.265 272.756C115.274 272.51 115.342 272.269 115.463 272.054C115.894 271.309 116.513 271.351 116.513 271.424C116.513 271.498 116.062 271.603 115.82 272.222C115.744 272.386 115.704 272.565 115.704 272.747C115.704 272.928 115.744 273.107 115.82 273.272C115.944 273.43 116.108 273.552 116.295 273.625C116.482 273.698 116.685 273.719 116.883 273.686C117.081 273.652 117.267 273.566 117.42 273.436C117.573 273.306 117.687 273.136 117.752 272.946C117.774 272.772 117.759 272.595 117.708 272.427C117.658 272.259 117.572 272.103 117.458 271.97C117.059 271.435 116.576 271.498 116.576 271.403Z" fill="#263238"/>
<path d="M113.626 318.541C113.573 318.489 114.172 318.237 114.823 318.804C115.006 318.968 115.147 319.174 115.235 319.404C115.323 319.634 115.354 319.882 115.326 320.126C115.272 320.437 115.12 320.723 114.891 320.94C114.662 321.158 114.369 321.296 114.056 321.334C113.748 321.395 113.428 321.358 113.142 321.229C112.855 321.099 112.617 320.882 112.46 320.609C112.358 320.383 112.311 320.136 112.322 319.888C112.333 319.64 112.402 319.398 112.523 319.182C112.954 318.436 113.573 318.489 113.573 318.552C113.573 318.615 113.122 318.741 112.88 319.349C112.801 319.513 112.759 319.692 112.759 319.874C112.759 320.056 112.801 320.236 112.88 320.399C112.99 320.578 113.15 320.72 113.341 320.807C113.532 320.893 113.744 320.921 113.951 320.886C114.158 320.851 114.349 320.755 114.501 320.61C114.652 320.466 114.757 320.279 114.802 320.074C114.826 319.901 114.812 319.725 114.761 319.558C114.711 319.392 114.624 319.238 114.508 319.108C114.119 318.541 113.626 318.615 113.626 318.541Z" fill="#263238"/>
<path d="M188.952 350.929C188.478 350.918 188.007 350.858 187.545 350.75C186.277 350.481 185.038 350.083 183.85 349.564C179.892 347.807 176.587 344.85 174.401 341.113C173.297 339.033 172.42 336.84 171.787 334.572C171.268 332.754 170.487 331.021 169.467 329.428C168.763 328.371 167.857 327.465 166.8 326.761C166.034 326.289 165.551 326.132 165.572 326.079C165.695 326.088 165.815 326.117 165.929 326.163C166.267 326.272 166.594 326.413 166.905 326.583C168.048 327.233 169.031 328.129 169.782 329.208C170.874 330.82 171.713 332.59 172.27 334.457C172.914 336.683 173.786 338.836 174.874 340.882C177.009 344.536 180.196 347.462 184.018 349.281C185.617 349.958 187.267 350.509 188.952 350.929Z" fill="#FAFAFA"/>
<path d="M297.924 376.711L280.076 324.911L288.328 275.212C290.732 261.805 292.076 250.015 288.475 243.265C278.848 225.281 267.226 223.664 251.352 219.538C248.077 218.688 223.164 217.848 220.424 218.488C198.808 220.913 184.971 232.378 177.38 251.034L169.15 284.209L157.843 318.854C156.897 320.867 155.51 322.641 153.785 324.046C152.061 325.451 150.043 326.45 147.88 326.969L104.29 341.866L104.657 350.402L104.29 361.95L162.347 351.021C173.979 348.837 185.811 344.543 189.149 333.321L195.396 314.822C198.451 322.654 201.779 329.835 201.779 329.835L197.579 376.48L297.924 376.711Z" fill="#6B006D"/>
<path d="M282.975 284.681L266.388 340.145C265.122 344.373 262.83 348.223 259.716 351.351C256.602 354.48 252.763 356.79 248.54 358.076L179.502 376.469L170.348 352.638L232.75 329.436L248.068 273.899C248.068 273.899 251.606 242.845 279.689 244.441" fill="#6B006D"/>
<path d="M279.678 244.441H278.838C278.281 244.441 277.463 244.378 276.381 244.441C273.22 244.53 270.098 245.166 267.153 246.32C265.024 247.153 263.021 248.276 261.2 249.658C259.042 251.319 257.13 253.277 255.521 255.474C251.672 260.946 249.178 267.254 248.245 273.878C244.046 289.332 238.797 308.25 232.991 329.447V329.573H232.876L170.431 352.89L170.588 352.543L172.215 356.743C174.788 363.462 177.328 370.076 179.732 376.343L179.407 376.175L238.723 360.428L245.411 358.643C246.461 358.349 247.605 358.076 248.676 357.761C249.727 357.43 250.758 357.038 251.762 356.585C257.517 353.981 262.147 349.399 264.812 343.672C265.605 341.899 266.258 340.067 266.765 338.192C267.87 334.524 268.92 331.025 269.914 327.693C273.956 314.318 277.2 303.547 279.436 296.198L282.029 287.694L282.712 285.5C282.869 285.007 282.964 284.755 282.964 284.755C282.964 284.755 282.901 285.017 282.764 285.511C282.628 286.004 282.407 286.76 282.124 287.726C281.546 289.689 280.707 292.555 279.625 296.261L270.261 327.83C269.274 331.182 268.224 334.682 267.111 338.328C266.608 340.225 265.955 342.078 265.158 343.871C264.312 345.736 263.256 347.497 262.009 349.121C259.341 352.54 255.892 355.269 251.951 357.078C250.925 357.539 249.873 357.942 248.802 358.286C247.752 358.601 246.629 358.874 245.526 359.178L238.839 360.963L179.533 376.795L179.302 376.858L179.218 376.637C176.814 370.338 174.263 363.745 171.69 357.037L170.063 352.837L169.969 352.585L170.221 352.491L232.634 329.31L232.477 329.478C238.345 308.303 243.584 289.384 247.857 273.952C248.811 267.271 251.352 260.917 255.269 255.422C256.898 253.205 258.839 251.235 261.032 249.574C262.878 248.192 264.906 247.072 267.059 246.246C270.027 245.096 273.177 244.488 276.36 244.451C277.178 244.406 277.999 244.406 278.817 244.451L279.678 244.441Z" fill="#263238"/>
<path d="M236.182 316.974C235.91 317.035 235.631 317.056 235.353 317.037C234.6 317.032 233.85 316.944 233.117 316.775C230.672 316.206 228.416 315.016 226.566 313.321C224.69 311.663 223.23 309.589 222.303 307.263C222.135 306.865 221.998 306.454 221.894 306.035C221.799 305.726 221.728 305.41 221.684 305.09C221.6 304.565 221.568 304.271 221.61 304.271C221.652 304.271 221.894 305.405 222.66 307.106C223.66 309.318 225.112 311.295 226.923 312.912C228.723 314.547 230.879 315.741 233.222 316.397C235.006 316.88 236.182 316.859 236.182 316.974Z" fill="#263238"/>
<path d="M195.186 274.792C195.045 275.351 194.851 275.895 194.609 276.419C194.2 277.469 193.559 278.949 192.898 280.818C191.533 284.524 189.612 289.783 189.412 295.83C189.313 298.675 189.7 301.515 190.557 304.229C191.26 306.431 192.214 308.545 193.402 310.528C194.201 311.874 195.074 313.174 196.016 314.423C196.397 314.868 196.748 315.338 197.066 315.83C197.066 315.83 196.94 315.736 196.73 315.515C196.52 315.295 196.236 314.99 195.879 314.56C194.855 313.353 193.922 312.072 193.087 310.728C191.842 308.729 190.838 306.59 190.095 304.355C189.205 301.601 188.797 298.713 188.887 295.82C189.217 290.601 190.449 285.479 192.53 280.681C193.276 278.833 193.948 277.364 194.41 276.345C194.628 275.808 194.887 275.288 195.186 274.792Z" fill="#263238"/>
<path d="M238.818 336.837C238.149 335.305 237.296 333.86 236.277 332.533C235.12 331.328 233.819 330.27 232.403 329.384C232.913 329.426 233.404 329.596 233.831 329.877C236.021 331.051 237.697 332.996 238.534 335.336C238.751 335.806 238.848 336.321 238.818 336.837Z" fill="#263238"/>
<path d="M171.617 355.955C171.617 355.955 151.869 357.719 152.142 370.548L176.73 369.299L171.617 355.955Z" fill="#B78876"/>
<path d="M203.449 140.978C201.643 149.713 199.921 158.462 198.283 167.224C196.184 178.332 194.294 189.943 197.433 200.819C199.155 206.783 202.325 212.2 205.464 217.554C207.228 220.556 209.16 223.727 212.288 225.281C216.54 227.381 221.915 225.722 225.306 222.394C228.697 219.066 230.409 214.425 231.606 209.796C233.884 200.83 234.388 191.518 234.755 182.269C235.123 173.019 235.311 163.424 232.655 154.458C229.999 145.493 224.183 137.01 215.522 133.461" fill="#263238"/>
<path d="M204.876 133.965C207.347 132.044 210.348 130.926 213.474 130.763C215.994 125.661 221.967 123.32 227.553 122.238C235.783 120.632 234.902 120.412 242.555 123.792C250.208 127.173 261.106 136.726 262.502 144.999C263.771 152.255 266.094 159.287 269.4 165.87C271.499 170.227 275.594 173.219 278.019 177.418C279.327 179.695 280.097 182.241 280.27 184.862C280.443 187.482 280.014 190.107 279.016 192.536C277.042 197.271 272.854 201.449 273.252 206.552C273.473 209.523 273.368 211.643 274.544 214.383C278.523 223.664 276.643 236.031 268.098 241.385C259.552 246.74 247.185 244.871 240.581 237.186C234.849 230.551 233.747 221.081 234.282 212.326C234.818 203.57 236.833 194.867 236.266 186.08" fill="#263238"/>
<path d="M214.682 376.469L214.556 373.446L170.042 368.753L150.536 312.681L67 310.791L92.2698 376.469C133.571 376.784 174.375 376.784 214.682 376.469Z" fill="#263238"/>
<path d="M113.351 344.533C113.781 345.282 114.425 345.886 115.199 346.269C115.973 346.652 116.843 346.797 117.7 346.685C118.557 346.574 119.361 346.211 120.011 345.642C120.661 345.073 121.128 344.325 121.353 343.491C121.578 342.656 121.55 341.774 121.273 340.956C120.997 340.138 120.484 339.42 119.799 338.893C119.114 338.366 118.289 338.055 117.427 337.997C116.565 337.939 115.705 338.139 114.957 338.57C113.953 339.148 113.22 340.1 112.919 341.219C112.618 342.337 112.773 343.529 113.351 344.533Z" fill="white"/>
<path d="M234.954 241.228C244.97 241.228 253.977 232.693 253.683 220.011L255.489 147.571C255.521 146.055 254.982 144.581 253.978 143.444C252.975 142.306 251.581 141.587 250.072 141.43L220.225 138.28C217.786 138.023 215.32 138.262 212.976 138.983C210.632 139.704 208.457 140.892 206.584 142.475C204.711 144.058 203.177 146.003 202.075 148.194C200.974 150.385 200.326 152.777 200.173 155.225C199.459 166.689 199.028 180.725 200.383 189.282C203.112 206.489 216.309 208.683 216.309 208.683L215.983 220.703C215.48 233.512 225.065 241.217 234.954 241.217V241.228Z" fill="#B78876"/>
<path d="M206.85 164.568C206.844 165.139 207.059 165.69 207.451 166.105C207.842 166.52 208.379 166.767 208.949 166.794C209.229 166.817 209.511 166.783 209.778 166.695C210.045 166.607 210.291 166.466 210.503 166.281C210.714 166.096 210.887 165.871 211.009 165.618C211.132 165.365 211.203 165.09 211.217 164.81C211.226 164.238 211.011 163.686 210.619 163.27C210.227 162.855 209.688 162.609 209.117 162.584C208.837 162.561 208.556 162.595 208.289 162.683C208.022 162.771 207.775 162.912 207.564 163.097C207.353 163.282 207.18 163.507 207.058 163.76C206.935 164.013 206.864 164.288 206.85 164.568Z" fill="#263238"/>
<path d="M203.217 162.532C203.49 162.815 205.17 161.587 207.543 161.587C209.915 161.587 211.658 162.783 211.91 162.49C212.036 162.364 211.763 161.849 211.007 161.293C209.973 160.592 208.749 160.226 207.501 160.243C206.267 160.24 205.065 160.63 204.068 161.356C203.333 161.881 203.091 162.406 203.217 162.532Z" fill="#263238"/>
<path d="M229.779 165.009C229.77 165.58 229.984 166.133 230.376 166.548C230.769 166.964 231.307 167.21 231.878 167.235C232.159 167.259 232.442 167.227 232.71 167.139C232.978 167.052 233.226 166.911 233.439 166.726C233.651 166.541 233.824 166.315 233.948 166.061C234.071 165.808 234.142 165.532 234.156 165.251C234.163 164.68 233.947 164.129 233.556 163.714C233.164 163.299 232.627 163.052 232.057 163.025C231.776 163.001 231.493 163.033 231.225 163.12C230.957 163.208 230.709 163.348 230.496 163.533C230.284 163.719 230.111 163.945 229.987 164.198C229.864 164.452 229.793 164.728 229.779 165.009Z" fill="#263238"/>
<path d="M226.567 162.972C226.84 163.266 228.509 162.028 230.882 162.028C233.254 162.028 234.997 163.224 235.259 162.93C235.385 162.804 235.113 162.29 234.346 161.734C233.315 161.036 232.095 160.669 230.85 160.684C229.614 160.681 228.408 161.071 227.407 161.797C226.682 162.322 226.43 162.846 226.567 162.972Z" fill="#263238"/>
<path d="M217.947 180.589C216.697 180.199 215.402 179.966 214.094 179.896C213.485 179.833 212.908 179.707 212.803 179.298C212.755 178.668 212.898 178.039 213.212 177.492C213.779 176.033 214.378 174.489 215.008 172.883C217.496 166.3 219.302 160.894 219.029 160.799C218.756 160.705 216.53 165.954 214.042 172.526C213.443 174.153 212.866 175.676 212.32 177.177C211.945 177.908 211.834 178.746 212.005 179.55C212.094 179.764 212.229 179.955 212.402 180.109C212.575 180.264 212.78 180.378 213.002 180.442C213.345 180.535 213.698 180.58 214.052 180.578C215.345 180.75 216.654 180.753 217.947 180.589Z" fill="#263238"/>
<path d="M216.309 208.693C224.411 208.815 232.389 206.685 239.353 202.541C239.353 202.541 233.757 214.362 216.54 212.756L216.309 208.693Z" fill="#AA6550"/>
<path d="M218.955 186.31C219.402 185.737 219.99 185.29 220.661 185.012C221.333 184.734 222.065 184.635 222.787 184.725C223.31 184.772 223.818 184.924 224.282 185.171C224.745 185.418 225.154 185.756 225.485 186.164C225.803 186.56 225.992 187.044 226.026 187.551C226.06 188.058 225.937 188.563 225.674 188.998C225.29 189.432 224.784 189.74 224.221 189.881C223.659 190.021 223.067 189.988 222.524 189.786C221.405 189.387 220.375 188.773 219.49 187.98C219.225 187.788 218.997 187.55 218.818 187.276C218.728 187.145 218.68 186.99 218.68 186.83C218.68 186.671 218.728 186.515 218.818 186.384" fill="#AA6550"/>
<path d="M224.939 182.227C224.55 182.227 224.54 184.788 222.335 186.615C220.13 188.442 217.39 188.158 217.369 188.526C217.369 188.683 217.978 189.019 219.143 189.051C220.669 189.084 222.158 188.575 223.343 187.612C224.465 186.691 225.184 185.37 225.348 183.927C225.4 182.857 225.107 182.216 224.939 182.227Z" fill="#263238"/>
<path d="M225.495 158.815C225.726 159.466 228.099 159.161 230.892 159.497C233.684 159.833 235.931 160.547 236.298 160.012C236.466 159.728 236.067 159.13 235.164 158.5C233.959 157.719 232.584 157.236 231.154 157.093C229.735 156.928 228.297 157.097 226.955 157.587C225.915 158.007 225.401 158.511 225.495 158.815Z" fill="#263238"/>
<path d="M204.089 155.655C204.509 156.201 206.189 155.655 208.12 155.655C210.052 155.655 211.753 156.012 212.131 155.456C212.299 155.183 212.036 154.637 211.312 154.133C210.336 153.516 209.197 153.205 208.043 153.24C206.888 153.276 205.771 153.656 204.834 154.332C204.142 154.836 203.911 155.393 204.089 155.655Z" fill="#263238"/>
<path d="M200.529 152.369C207.007 148.611 213.316 145.136 217.327 138.836C219.563 145.136 223.93 148.285 229.726 151.634C235.521 154.983 241.998 156.946 248.413 158.868C245.169 162.017 244.738 167.109 245.484 171.571C246.229 176.033 247.94 180.326 248.224 184.841C248.591 190.867 246.387 196.777 246.25 202.814C246.061 211.097 249.715 218.919 253.295 226.383L268.843 217.323L266.607 176.956L266.796 148.39L242.555 125.86L211.857 129.22L200.529 152.369Z" fill="#263238"/>
<path d="M197.076 237.249C204.961 245.217 204.121 259.422 212.824 266.55C218.136 270.918 225.895 271.327 232.414 269.122C238.934 266.918 244.414 262.456 249.443 257.753C254.471 253.049 259.227 247.999 264.949 244.189C270.503 240.483 280.014 238.204 281.358 231.653C282.345 226.866 277.306 221.102 276.361 216.305C274.859 208.683 283.101 202.793 284.476 195.15C287.227 179.875 279.164 161.944 270.765 148.957C262.366 135.97 257.621 121.262 236.33 120.055C217.275 119.204 204.299 128.349 197.958 141.577C194.809 148.201 194.042 155.697 193.423 163.025C191.985 180.137 191.187 198.279 199.092 213.523C200.73 216.672 202.683 220.683 200.478 223.475C198.462 226.026 193.895 225.921 192.615 228.913C191.334 231.905 194.704 234.845 197.076 237.249ZM220.824 135.802C223.375 135.697 230.944 135.802 239.385 147.046C244.435 153.776 244.424 164.673 244.319 174.174C244.225 181.24 244.319 199.119 244.319 199.119C244.319 199.119 245.432 221.701 237.758 223.696C228.309 226.152 220.089 224.462 213.045 217.753C206 211.045 201.969 201.628 200.362 192.032C198.756 182.437 197.853 172.652 199.113 163.004C199.777 157.083 201.734 151.381 204.845 146.301C206.617 143.523 208.957 141.151 211.711 139.342C214.465 137.533 217.571 136.326 220.824 135.802Z" fill="#FF9900"/>
<g opacity="0.3">
<path opacity="0.3" d="M279.678 224.273C273.379 227.695 269.022 232.787 263.93 237.805C258.838 242.824 253.075 247.685 246.083 249.49C239.091 251.296 230.682 249.144 227.186 242.855C246.891 246.215 269.767 230.478 276.528 211.654C276.124 213.289 276.103 214.996 276.465 216.641C277.377 219.249 278.45 221.798 279.678 224.273Z" fill="black"/>
</g>
<g opacity="0.3">
<path opacity="0.3" d="M201.328 219.076C202.012 221.624 203.209 224.006 204.847 226.075C206.484 228.144 208.527 229.856 210.85 231.107C211.928 231.557 212.939 232.154 213.852 232.882C214.303 233.255 214.63 233.755 214.793 234.316C214.956 234.878 214.946 235.475 214.766 236.031C214.433 236.597 213.914 237.03 213.297 237.256C212.681 237.482 212.005 237.487 211.385 237.27C210.177 236.783 209.099 236.021 208.236 235.044C204.803 231.727 201.265 228.367 200.299 223.706C200.857 223.027 201.246 222.224 201.433 221.365C201.481 220.6 201.445 219.833 201.328 219.076Z" fill="black"/>
</g>
<path d="M274.964 215.381C274.892 215.595 274.794 215.8 274.67 215.99C274.45 216.378 274.166 216.977 273.715 217.69C272.48 219.739 271.12 221.71 269.641 223.591C267.468 226.401 265.062 229.025 262.45 231.433C259.268 234.424 255.659 236.925 251.742 238.855C249.675 239.758 247.549 240.519 245.379 241.133C243.36 241.721 241.305 242.177 239.227 242.498C235.713 243.071 232.14 243.205 228.592 242.897C226.206 242.68 223.847 242.229 221.548 241.553C220.729 241.333 220.12 241.081 219.7 240.934C219.48 240.874 219.268 240.786 219.07 240.672C219.07 240.672 219.973 240.924 221.611 241.343C223.912 241.943 226.263 242.333 228.634 242.509C232.141 242.759 235.666 242.59 239.133 242.005C241.183 241.672 243.21 241.209 245.201 240.619C247.348 240.007 249.453 239.253 251.5 238.362C255.367 236.436 258.935 233.961 262.093 231.013C264.701 228.64 267.117 226.063 269.316 223.307C270.816 221.458 272.218 219.53 273.515 217.533C273.988 216.84 274.303 216.263 274.565 215.895C274.685 215.714 274.818 215.542 274.964 215.381Z" fill="#263238"/>
<path d="M226.64 234.855C226.239 235.018 225.819 235.128 225.39 235.181C224.233 235.391 223.06 235.496 221.884 235.496C217.958 235.509 214.102 234.449 210.735 232.43C207.367 230.412 204.615 227.511 202.777 224.042C202.22 223.001 201.759 221.912 201.401 220.787C201.249 220.382 201.15 219.959 201.107 219.528C201.703 221.004 202.376 222.448 203.123 223.853C205 227.198 207.716 229.995 211.005 231.969C214.293 233.943 218.039 235.024 221.873 235.107C224.823 235.191 226.629 234.74 226.64 234.855Z" fill="#263238"/>
<path d="M222.556 260.871C222.75 260.79 222.955 260.737 223.165 260.713C223.564 260.619 224.214 260.535 224.928 260.346C227.086 259.881 229.214 259.289 231.301 258.571C238.173 256.134 244.639 252.676 250.482 248.314C256.314 243.936 261.839 239.162 267.017 234.026L271.783 229.407C272.308 228.892 272.749 228.483 273.085 228.157C273.231 228.004 273.393 227.867 273.568 227.748C273.451 227.922 273.317 228.084 273.169 228.231L271.93 229.554C270.88 230.688 269.274 232.315 267.29 234.299C262.173 239.535 256.663 244.372 250.807 248.766C244.924 253.158 238.383 256.591 231.427 258.939C229.315 259.628 227.158 260.168 224.97 260.556C224.204 260.713 223.585 260.766 223.175 260.818C222.972 260.861 222.764 260.879 222.556 260.871Z" fill="#263238"/>
<path d="M592.174 282.536L555.135 238.863L555.051 238.947C553.592 237.508 552.311 236.228 551.66 235.482C538.831 220.616 528.637 215.535 508.994 215.262L470.822 216.081C463.725 216.669 447.62 213.635 432.723 233.383C405.585 267.387 383.821 296.31 385.05 309.958C386.593 327.228 452.46 376.466 452.46 376.466L542.999 376.393L542.81 369.495L581.875 344.141C595.964 334.619 603.323 326.294 605.108 313.696C606.672 302.483 599.722 290.935 592.174 282.536ZM426.298 308.531C426.298 305.874 440.576 289.129 448.345 280.185L452.387 318.851L451.694 333.958L426.298 308.531ZM541.162 332.331L539.01 281.371L568.531 311.911L541.162 332.331Z" fill="#6B006D"/>
<path d="M484.585 303.877L417.658 336.954C415.881 337.833 415.152 339.986 416.03 341.764L437.665 385.538C438.543 387.315 440.697 388.044 442.474 387.166L509.401 354.088C511.179 353.21 511.908 351.057 511.029 349.279L489.395 305.505C488.516 303.727 486.363 302.998 484.585 303.877Z" fill="#E0E0E0"/>
<path d="M463.242 341.412C463.941 340.984 464.752 340.773 465.572 340.806C466.391 340.839 467.183 341.115 467.846 341.598C468.509 342.08 469.014 342.749 469.297 343.519C469.58 344.289 469.628 345.125 469.436 345.922C469.244 346.72 468.819 347.442 468.216 347.998C467.613 348.554 466.859 348.919 466.049 349.046C465.239 349.174 464.409 349.058 463.664 348.714C462.92 348.37 462.294 347.812 461.866 347.112C461.293 346.174 461.116 345.046 461.373 343.977C461.631 342.908 462.303 341.985 463.242 341.412Z" fill="white"/>
<path d="M538.442 245.109C538.456 245.221 538.456 245.334 538.442 245.445C538.442 245.697 538.442 246.012 538.442 246.422C538.442 247.314 538.442 248.574 538.442 250.17C538.442 253.466 538.505 258.169 538.547 263.975C538.61 275.628 539.062 291.712 539.964 309.475C540.867 327.239 541.791 343.312 542.285 354.955C542.537 360.771 542.705 365.453 542.799 368.75C542.799 370.346 542.862 371.605 542.883 372.498C542.883 372.907 542.883 373.222 542.883 373.474C542.894 373.586 542.894 373.698 542.883 373.81C542.872 373.698 542.872 373.586 542.883 373.474C542.883 373.222 542.883 372.907 542.82 372.498C542.82 371.605 542.705 370.398 542.631 368.75C542.463 365.464 542.222 360.76 541.938 354.976C541.298 343.301 540.426 327.239 539.46 309.496C538.495 291.754 538.159 275.628 538.201 263.975C538.201 258.18 538.201 253.477 538.274 250.17C538.274 248.574 538.274 247.314 538.327 246.422C538.327 246.012 538.327 245.697 538.327 245.445C538.356 245.33 538.394 245.218 538.442 245.109Z" fill="#263238"/>
<path d="M444.177 222.275C449.007 218.758 454.623 219.819 459.463 223.325C464.303 226.832 466.99 232.774 467.473 238.726C467.956 244.679 466.424 250.642 464.166 256.164C460.523 265.014 455.138 272.174 447.085 281.287L426.34 308.531L466.392 347.627L449.794 373.81L416.262 346.818C404.808 337.149 395.065 327.26 387.916 317.034" fill="#6B006D"/>
<path d="M387.905 317.066L388.147 317.381L388.85 318.326C389.47 319.155 390.393 320.425 391.643 321.958C395.237 326.448 399.093 330.721 403.191 334.756C405.816 337.37 408.808 340.173 412.146 343.155C415.485 346.136 419.243 349.086 423.233 352.288L449.899 373.684L449.531 373.747C454.686 365.611 460.282 356.771 466.108 347.553V347.889L445.447 327.732L426.067 308.835L425.899 308.678L426.036 308.489C433.385 298.882 440.335 289.749 446.802 281.256C450.753 276.907 454.418 272.306 457.773 267.482C460.768 263.086 463.192 258.327 464.985 253.319C466.686 248.874 467.486 244.135 467.337 239.377C467.162 235.374 465.942 231.487 463.799 228.102C462.036 225.379 459.579 223.176 456.681 221.719C454.557 220.588 452.165 220.058 449.762 220.186C448.272 220.303 446.824 220.733 445.51 221.446C444.607 221.929 444.188 222.254 444.177 222.233L444.492 221.992C444.802 221.762 445.128 221.555 445.468 221.372C446.785 220.626 448.245 220.168 449.752 220.029C452.189 219.869 454.623 220.385 456.786 221.519C459.737 222.965 462.244 225.181 464.04 227.934C466.241 231.362 467.5 235.308 467.694 239.377C467.87 244.122 467.113 248.855 465.468 253.309C463.679 258.36 461.252 263.162 458.245 267.597C454.89 272.441 451.226 277.063 447.274 281.434C440.807 289.927 433.847 299.071 426.54 308.73V308.373L445.93 327.27L466.581 347.438L466.738 347.595L466.623 347.774C460.786 356.991 455.179 365.821 450.014 373.946L449.867 374.188L449.647 374.009L423.033 352.54C419.054 349.328 415.275 346.346 411.968 343.364C408.661 340.383 405.669 337.58 403.034 334.966C398.942 330.896 395.103 326.58 391.538 322.042C390.309 320.467 389.438 319.208 388.808 318.357C388.514 317.948 388.294 317.622 388.136 317.391C387.979 317.16 387.905 317.066 387.905 317.066Z" fill="#263238"/>
<path d="M582.925 311.187C582.21 311.019 581.509 310.802 580.825 310.536C577.468 309.469 573.837 309.66 570.61 311.071C569.955 311.406 569.278 311.697 568.584 311.943C569.124 311.424 569.753 311.008 570.442 310.714C572.057 309.896 573.826 309.425 575.634 309.331C577.442 309.236 579.249 309.522 580.941 310.168C581.657 310.388 582.328 310.733 582.925 311.187Z" fill="#263238"/>
<path d="M474.591 372.582L467.305 376.204C465.536 377.083 463.552 377.434 461.589 377.214C459.627 376.995 457.769 376.214 456.239 374.965L451.693 371.259L464.292 351.448C465.772 352.089 471.861 352.95 473.961 353.695C475.779 354.332 477.693 354.652 479.619 354.64C481.77 354.686 483.919 354.51 486.034 354.115C486.17 354.062 486.359 354.02 486.485 353.968C486.771 353.85 487.079 353.796 487.388 353.81C489.183 353.642 490.611 355.532 489.603 356.96C488.595 358.388 483.682 360.424 477.404 360.246H477.11C471.598 360.246 476.659 364.855 479.924 367.595C480.502 368.061 480.951 368.668 481.227 369.357C481.502 370.047 481.596 370.796 481.499 371.532C481.482 371.798 481.408 372.056 481.281 372.29C481.154 372.524 480.977 372.728 480.764 372.886C479.336 373.81 474.591 372.582 474.591 372.582Z" fill="#A36853"/>
<path d="M491.452 233.498C481.793 233.498 473.111 225.267 473.195 213.005L471.452 143.18H471.652C471.623 141.714 472.147 140.291 473.12 139.194C474.092 138.097 475.442 137.406 476.901 137.259L505.688 134.214C508.039 133.966 510.416 134.196 512.676 134.891C514.936 135.586 517.032 136.731 518.838 138.257C520.644 139.783 522.122 141.659 523.184 143.772C524.245 145.884 524.868 148.19 525.015 150.55C525.708 161.605 526.128 175.137 524.816 183.389C522.149 200.008 509.436 202.129 509.436 202.129L509.74 213.677C510.233 226.023 500.984 233.456 491.452 233.456V233.498Z" fill="#A36853"/>
<path d="M518.548 159.589C518.548 160.137 518.334 160.663 517.952 161.055C517.569 161.448 517.049 161.675 516.501 161.689C516.23 161.711 515.956 161.679 515.698 161.594C515.439 161.51 515.2 161.373 514.996 161.194C514.791 161.015 514.624 160.796 514.506 160.551C514.388 160.306 514.32 160.039 514.307 159.767C514.307 159.211 514.528 158.676 514.922 158.283C515.315 157.889 515.849 157.668 516.406 157.668C516.941 157.655 517.46 157.847 517.858 158.204C518.256 158.561 518.503 159.056 518.548 159.589Z" fill="#263238"/>
<path d="M522.033 157.615C521.77 157.899 520.164 156.702 517.833 156.712C515.503 156.723 513.876 157.857 513.634 157.584C513.393 157.311 513.781 156.954 514.516 156.418C515.506 155.732 516.682 155.366 517.886 155.369C519.075 155.361 520.236 155.728 521.203 156.418C521.938 156.996 522.18 157.489 522.033 157.615Z" fill="#263238"/>
<path d="M496.449 160.009C496.456 160.289 496.407 160.568 496.304 160.828C496.202 161.089 496.048 161.327 495.853 161.528C495.657 161.728 495.423 161.888 495.165 161.996C494.907 162.105 494.629 162.161 494.349 162.161C493.806 162.187 493.273 162.002 492.864 161.644C492.455 161.285 492.201 160.782 492.155 160.24C492.148 159.96 492.197 159.681 492.3 159.42C492.402 159.159 492.555 158.922 492.751 158.721C492.947 158.52 493.181 158.361 493.439 158.252C493.697 158.144 493.974 158.088 494.255 158.088C494.798 158.061 495.33 158.247 495.74 158.605C496.149 158.963 496.403 159.467 496.449 160.009Z" fill="#263238"/>
<path d="M499.536 158.046C499.273 158.329 497.657 157.132 495.336 157.132C493.016 157.132 491.368 158.287 491.137 158.004C491.011 157.888 491.284 157.384 492.019 156.849C493.006 156.158 494.184 155.791 495.389 155.799C496.578 155.791 497.739 156.158 498.706 156.849C499.431 157.416 499.672 157.92 499.536 158.046Z" fill="#263238"/>
<path d="M507.85 175.032C509.054 174.649 510.303 174.423 511.566 174.36C512.154 174.297 512.71 174.182 512.805 173.783C512.854 173.179 512.719 172.575 512.416 172.051C511.86 170.633 511.293 169.153 510.684 167.599C508.28 161.3 506.548 156.051 506.8 155.946C507.052 155.841 509.214 160.912 511.608 167.253C512.196 168.817 512.742 170.308 513.267 171.736C513.638 172.442 513.746 173.257 513.571 174.035C513.485 174.239 513.355 174.421 513.189 174.568C513.024 174.715 512.828 174.823 512.616 174.885C512.29 174.971 511.955 175.017 511.619 175.022C510.367 175.181 509.102 175.184 507.85 175.032Z" fill="#263238"/>
<path d="M509.435 202.129C501.621 202.244 493.928 200.191 487.21 196.197C487.21 196.197 492.963 208.68 509.561 207.126L509.435 202.129Z" fill="#8F5039"/>
<path d="M500.564 154.035C500.344 154.665 498.055 154.361 495.367 154.686C492.68 155.012 490.507 155.736 490.118 155.19C489.95 154.917 490.328 154.329 491.168 153.731C492.337 152.99 493.66 152.527 495.036 152.376C496.411 152.225 497.803 152.39 499.105 152.859C500.165 153.29 500.669 153.741 500.564 154.035Z" fill="#263238"/>
<path d="M521.204 150.991C520.805 151.516 519.22 150.991 517.33 150.991C515.441 150.991 513.824 151.337 513.456 150.791C513.288 150.529 513.551 150.014 514.244 149.521C515.179 148.915 516.28 148.618 517.393 148.67C518.508 148.684 519.589 149.052 520.48 149.72C521.162 150.203 521.383 150.739 521.204 150.991Z" fill="#263238"/>
<path d="M471.64 159.043C474.464 158.539 476.721 159.41 477.519 162.193C478.706 166.339 477.897 168.387 478.097 171.242L482.296 169.982C481.246 160.418 483.629 153.342 482.59 143.736C488.427 145.626 496.448 142.014 498.936 135.967C501.413 137.788 504.355 138.868 507.421 139.084C510.487 139.299 513.552 138.641 516.259 137.185C516.94 138.425 517.997 139.417 519.279 140.017C520.56 140.617 521.998 140.794 523.387 140.524C526.537 139.631 529.875 135.148 530.789 131.967C532.426 126.246 531.628 118.036 526.988 114.309C522.348 110.582 513.046 111.474 509.435 116.209C508.007 118.078 507.839 121.532 505.54 122.004C503.492 122.424 501.634 120.955 499.766 119.989C493.939 117.102 485.887 120.934 484.448 127.275C479.577 124.367 473.677 122.466 468.228 124.031C462.779 125.595 458.433 131.642 460.291 136.996C461.058 139.243 462.79 141.196 462.979 143.537C463.346 148.104 457.866 152.24 459.619 156.471C460.596 158.844 463.462 159.893 464.753 162.109C466.202 164.586 465.299 167.715 465.425 170.581C465.614 175.368 468.071 182.455 472.658 183.819" fill="#263238"/>
<path d="M472.072 158.99C471.368 159.09 470.704 159.378 470.15 159.823C469.595 160.269 469.171 160.855 468.922 161.521C468.311 162.793 468.019 164.194 468.072 165.605C467.978 167.809 468.687 169.972 470.066 171.694C470.773 172.53 471.724 173.125 472.786 173.394C473.848 173.663 474.967 173.594 475.988 173.195" fill="#A36853"/>
<path d="M474.938 169.594C474.938 169.646 474.318 169.877 473.342 169.531C472.778 169.314 472.282 168.952 471.904 168.481C471.449 167.871 471.183 167.141 471.137 166.381C471.085 165.655 471.234 164.929 471.568 164.282C471.849 163.751 472.252 163.294 472.743 162.948C473.604 162.381 474.276 162.413 474.266 162.476C473.819 162.704 473.39 162.967 472.985 163.263C472.529 163.644 472.172 164.129 471.946 164.678C471.719 165.226 471.629 165.822 471.683 166.413C471.712 166.996 471.896 167.561 472.215 168.049C472.534 168.538 472.977 168.934 473.499 169.195C473.968 169.365 474.449 169.498 474.938 169.594Z" fill="#8F5039"/>
<path d="M500.565 183.137C502.664 184.575 506.633 183.819 508.124 181.688C504.92 179.942 501.968 177.77 499.347 175.232C499.347 175.232 496.365 180.187 500.565 183.137Z" fill="#FAFAFA"/>
<path d="M507.336 187.987C506.483 187.647 505.585 187.435 504.67 187.357C503.757 187.434 502.86 187.635 502.003 187.956C502.003 187.956 502.16 187.63 502.633 187.347C503.254 186.989 503.958 186.801 504.675 186.801C505.391 186.801 506.096 186.989 506.717 187.347C507.189 187.651 507.399 187.935 507.336 187.987Z" fill="#AA6550"/>
<path d="M480.874 255.243C485.306 248.706 489.334 241.904 492.937 234.876C497.273 226.603 496.538 226.183 495.498 225.816C492.706 224.818 487.32 240.062 486.606 236.073C485.892 232.083 495.32 218.225 492.359 217.343C488.496 216.147 483.152 232.22 482.606 233.543C482.061 234.865 480.139 234.057 480.706 232.892C481.515 231.222 489.556 213.385 485.766 212.178C483.667 211.517 482.911 215.443 482.911 215.443C482.911 215.443 476.612 232.713 474.838 232.083C473.063 231.453 476.412 221.175 477.788 217.795C479.163 214.414 478.134 212.409 476.171 212.997C474.827 213.396 470.365 223.642 469.084 227.012C467.804 230.382 464.444 239.716 462.407 233.679C462.407 233.585 462.334 233.501 462.292 233.406C460.455 227.401 457.043 223.391 455.268 222.908C453.494 222.425 452.203 224.377 452.938 226.057C453.032 226.35 453.19 226.619 453.4 226.844C453.494 226.949 453.589 227.107 453.683 227.222C454.736 229.097 455.595 231.074 456.245 233.123C456.867 234.947 457.175 236.864 457.158 238.792C457.158 241.028 458.208 247.537 458.124 249.143" fill="#FFAD9D"/>
<path d="M457.074 246.76L431.678 297.153C431.678 297.153 417.317 255.61 409.569 239.086C406.619 232.787 400.698 228.419 395.018 225.522V225.406L393.832 224.934C389.756 222.986 385.473 221.503 381.065 220.514C354.273 212.84 329.035 215.517 299.818 225.763C299.818 225.763 284.648 229.837 277.288 249.626C270.674 267.474 263.252 294.77 261.981 299.599C252.879 330.233 265.876 347.293 283.965 345.194C291.419 344.018 297.76 337.845 300.563 335.451L310.127 326.464L310.337 333.425L299.597 376.416L409.558 376.185L389.716 325.278L394.126 301.94L401.674 319.871C404.045 325.51 408.01 330.334 413.083 333.751C418.156 337.168 424.116 339.031 430.232 339.11C436.348 339.189 442.355 337.482 447.514 334.197C452.674 330.911 456.763 326.192 459.279 320.617L484.99 255.883L457.074 246.76Z" fill="#FF9900"/>
<path d="M324.657 309.583C324.366 310.081 324.036 310.555 323.67 311C323.008 311.882 322.011 313.152 320.741 314.675C318.211 317.73 314.568 321.835 310.337 326.17C306.106 330.506 302.075 334.233 299.051 336.805C297.55 338.107 296.3 339.115 295.419 339.787C294.985 340.182 294.514 340.533 294.012 340.837C294.403 340.415 294.828 340.025 295.282 339.671C296.122 338.947 297.329 337.887 298.799 336.522C301.739 333.866 305.718 330.107 309.938 325.782C314.158 321.457 317.854 317.383 320.436 314.423C321.749 312.932 322.778 311.704 323.491 310.864C323.842 310.404 324.232 309.975 324.657 309.583Z" fill="#263238"/>
<path d="M390.073 323.64C390.065 323.443 390.083 323.245 390.126 323.052C390.21 322.611 390.294 322.066 390.409 321.394L391.554 315.284C392.519 310.129 393.842 303.011 394.892 295.084C395.158 293.104 395.396 291.176 395.606 289.3C395.865 287.517 395.967 285.715 395.91 283.914C395.716 280.861 395.263 277.83 394.556 274.854C393.989 272.292 393.506 270.235 393.181 268.796C393.034 268.072 392.95 267.505 392.908 267.127C392.882 266.928 392.882 266.727 392.908 266.529C392.975 266.715 393.017 266.909 393.034 267.106C393.107 267.484 393.233 268.04 393.412 268.754C393.758 270.172 394.336 272.208 394.955 274.77C395.724 277.76 396.219 280.813 396.435 283.893C396.498 285.717 396.407 287.544 396.162 289.352C395.963 291.232 395.721 293.174 395.459 295.158C394.409 303.105 393.013 310.223 391.952 315.357C391.407 317.866 390.966 319.924 390.64 321.436C390.483 322.097 390.357 322.643 390.262 323.084C390.218 323.275 390.155 323.462 390.073 323.64Z" fill="#263238"/>
<path d="M429.442 309.478C429.843 305.339 430.605 301.243 431.721 297.237C431.605 299.33 431.307 301.41 430.828 303.452C430.538 305.496 430.074 307.512 429.442 309.478Z" fill="#263238"/>
<path d="M433.316 310.969C432.789 308.636 432.438 306.267 432.266 303.882C431.899 301.517 431.713 299.127 431.71 296.733C432.237 299.065 432.588 301.434 432.76 303.819C433.128 306.185 433.314 308.575 433.316 310.969Z" fill="#263238"/>
<path d="M352.206 376.185C352.059 376.185 351.933 359.304 351.933 338.496C351.933 317.688 352.059 300.796 352.206 300.796C352.353 300.796 352.479 317.667 352.479 338.496C352.479 359.325 352.353 376.185 352.206 376.185Z" fill="#263238"/>
<g opacity="0.2">
<path opacity="0.2" d="M393.464 269.573C398.619 279.452 403.101 289.279 403.511 300.418C403.826 309.079 400.361 316.302 403.941 324.197C403.763 324.333 400.708 317.53 399.353 314.339C396.571 307.767 394.104 301.898 394.104 301.898C394.104 301.898 396.015 287.064 396.204 284.534C396.393 282.003 393.464 269.573 393.464 269.573Z" fill="black"/>
</g>
<g opacity="0.2">
<path opacity="0.2" d="M265.876 319.766C265.876 324.722 262.8 308.365 265.677 304.344C267.703 301.52 271.168 300.145 274.527 299.315C277.887 298.486 281.404 297.93 284.385 296.166C288.238 293.888 290.684 289.867 293.382 286.339C296.081 282.812 299.682 267.705 304.133 267.379V289.426C293.472 296.327 282.385 302.544 270.937 308.04C269.307 309.521 268.012 311.334 267.139 313.356C266.267 315.379 265.836 317.564 265.876 319.766Z" fill="black"/>
</g>
<g opacity="0.2">
<path opacity="0.2" d="M310.096 326.475C317.287 322.433 322.536 317.026 330.662 315.63C338.484 314.244 346.536 315.63 354.452 315.084C354.025 311.088 353.587 307.084 353.139 303.074L330.494 302.822L310.096 326.475Z" fill="black"/>
</g>
<path d="M304.133 267.127C304.28 267.127 304.406 272.03 304.406 278.077C304.406 284.124 304.28 289.037 304.133 289.037C303.856 285.391 303.765 281.733 303.86 278.077C303.765 274.425 303.856 270.77 304.133 267.127Z" fill="#263238"/>
<path d="M265.855 319.651C265.685 319.015 265.642 318.351 265.729 317.698C265.835 316.117 266.211 314.565 266.842 313.11C267.464 311.655 268.334 310.32 269.414 309.163C269.828 308.654 270.334 308.226 270.905 307.903C269.491 309.552 268.294 311.376 267.346 313.331C266.563 315.36 266.061 317.486 265.855 319.651Z" fill="#263238"/>
<path d="M270.381 308.239C270.947 308.089 271.498 307.889 272.029 307.641C273.079 307.221 274.591 306.591 276.428 305.719C280.102 304.04 285.11 301.52 290.422 298.371C295.735 295.221 300.364 292.124 303.608 289.751C305.236 288.554 306.538 287.568 307.409 286.864C307.881 286.521 308.324 286.138 308.732 285.72C308.216 286.001 307.724 286.324 307.262 286.686L303.367 289.415C300.06 291.704 295.42 294.759 290.118 297.877C284.816 300.995 279.861 303.536 276.239 305.31L271.935 307.41C271.393 307.64 270.873 307.917 270.381 308.239Z" fill="#263238"/>
<path d="M408.329 173.082C406.524 170.72 403.657 168.882 403.08 165.995C402.356 162.121 406.23 158.489 405.526 154.605C405.064 151.948 402.618 150.08 400.119 149.051C397.621 148.022 394.87 147.529 392.582 146.153C389.834 144.391 387.725 141.793 386.566 138.741C386.223 137.907 385.925 137.056 385.674 136.19C385.439 134.335 385.014 132.509 384.403 130.742C384.309 130.28 384.225 129.818 384.141 129.356L384.256 130.406C383.908 129.532 383.449 128.706 382.891 127.949C380.97 125.387 377.128 123.96 374.493 125.755L375.753 124.915C374.16 121.062 371.6 117.685 368.321 115.111C365.042 112.536 361.154 110.851 357.034 110.217C355.462 109.997 353.871 109.944 352.288 110.06C346.63 109.766 338.451 111.414 334.997 113.608C330.588 116.401 326.074 120.233 323.859 124.967C322.672 127.519 321.864 130.469 319.659 132.169C316.657 134.437 312.447 133.555 308.699 133.975C302.526 134.679 297.151 139.413 295.051 145.261C294.073 148.221 293.722 151.352 294.018 154.455C294.315 157.558 295.253 160.565 296.773 163.287C297.423 164.494 298.19 165.89 297.675 167.161C297.143 168.104 296.312 168.842 295.313 169.26C292.796 170.559 290.786 172.661 289.602 175.234C288.552 177.848 288.951 181.155 291.072 183.003C291.961 183.712 293.024 184.17 294.15 184.331C295.276 184.492 296.424 184.348 297.476 183.916C296.85 185.498 296.519 187.181 296.5 188.882C296.455 190.741 296.91 192.577 297.816 194.2C298.723 195.823 300.048 197.174 301.654 198.11C304.94 199.821 309.539 198.919 311.47 195.759C311.458 198.089 312.076 200.378 313.26 202.385C314.443 204.393 316.148 206.042 318.192 207.159C320.237 208.276 322.546 208.819 324.874 208.731C327.203 208.642 329.464 207.925 331.418 206.656C332.971 205.606 334.567 204.22 336.404 204.556C338.242 204.892 339.281 206.656 340.541 207.937C343.9 211.433 349.632 211.832 354.052 209.847C358.472 207.863 361.727 203.895 364.068 199.653C364.884 200.875 366.028 201.841 367.368 202.442C368.709 203.042 370.192 203.253 371.646 203.049C373.101 202.845 374.469 202.235 375.592 201.289C376.716 200.343 377.55 199.099 377.999 197.701C379.636 199.818 381.883 201.381 384.437 202.179C386.991 202.977 389.728 202.971 392.279 202.163C394.829 201.354 397.07 199.782 398.698 197.658C400.325 195.534 401.261 192.962 401.379 190.289C403.226 190.016 404.969 189.266 406.437 188.113C407.905 186.96 409.047 185.444 409.75 183.715C410.453 181.986 410.692 180.103 410.445 178.253C410.198 176.403 409.472 174.65 408.34 173.166L408.329 173.082ZM302.746 176.326C302.746 176.326 302.746 176.326 302.746 176.263L302.851 176.21L302.746 176.326Z" fill="#263238"/>
<path d="M369.349 202.667C369.349 202.667 382.798 200.441 385.58 182.898C386.965 174.174 386.525 159.875 385.79 148.19C385.633 145.696 384.974 143.259 383.852 141.026C382.729 138.793 381.167 136.811 379.258 135.197C377.35 133.584 375.135 132.373 372.746 131.638C370.358 130.903 367.845 130.659 365.36 130.92L334.914 134.143C333.37 134.306 331.944 135.045 330.921 136.213C329.898 137.38 329.352 138.89 329.392 140.442L332.594 216.64C330.379 217.112 325.35 218.204 322.883 218.918C322.883 218.918 346.42 271.526 352.184 270.917C357.948 270.308 380.981 220.524 380.981 220.524C376.97 219.315 372.898 218.317 368.782 217.532C368.717 212.571 368.906 207.609 369.349 202.667Z" fill="#FFAD9D"/>
<path d="M378.987 157.744C378.993 158.329 378.77 158.893 378.366 159.317C377.962 159.74 377.409 159.989 376.824 160.011C376.537 160.042 376.246 160.013 375.97 159.925C375.694 159.838 375.439 159.695 375.222 159.505C375.004 159.315 374.828 159.081 374.704 158.82C374.581 158.558 374.513 158.274 374.504 157.985C374.498 157.4 374.721 156.835 375.125 156.412C375.529 155.988 376.082 155.739 376.667 155.717C376.953 155.695 377.241 155.729 377.513 155.819C377.786 155.909 378.037 156.053 378.254 156.242C378.47 156.431 378.646 156.661 378.772 156.919C378.898 157.177 378.971 157.457 378.987 157.744Z" fill="#263238"/>
<path d="M382.692 155.665C382.409 155.959 380.708 154.699 378.283 154.71C375.858 154.72 374.084 155.927 373.832 155.633C373.695 155.497 373.979 154.972 374.756 154.405C375.812 153.691 377.06 153.313 378.336 153.324C379.595 153.322 380.822 153.719 381.842 154.458C382.535 155.004 382.829 155.539 382.692 155.665Z" fill="#263238"/>
<path d="M355.628 158.195C355.634 158.782 355.41 159.348 355.004 159.772C354.598 160.196 354.042 160.444 353.455 160.463C353.167 160.493 352.877 160.464 352.601 160.377C352.325 160.29 352.07 160.146 351.853 159.956C351.635 159.766 351.459 159.533 351.335 159.271C351.212 159.01 351.143 158.726 351.135 158.437C351.129 157.85 351.353 157.284 351.759 156.86C352.166 156.436 352.721 156.188 353.308 156.169C353.594 156.146 353.882 156.181 354.154 156.271C354.427 156.361 354.679 156.504 354.895 156.693C355.111 156.882 355.287 157.112 355.413 157.37C355.539 157.628 355.612 157.908 355.628 158.195Z" fill="#263238"/>
<path d="M358.892 156.116C358.619 156.41 356.908 155.15 354.494 155.161C352.079 155.171 350.294 156.379 350.032 156.085C349.906 155.948 350.189 155.423 350.966 154.857C352.015 154.133 353.261 153.748 354.536 153.754C355.795 153.754 357.022 154.151 358.042 154.888C358.777 155.423 359.029 155.99 358.892 156.116Z" fill="#263238"/>
<path d="M367.68 174.069C368.957 173.669 370.28 173.433 371.617 173.365C372.226 173.302 372.814 173.176 372.919 172.756C372.973 172.117 372.83 171.476 372.509 170.919C371.921 169.428 371.323 167.854 370.683 166.216C368.142 159.518 366.305 154.006 366.578 153.901C366.851 153.796 369.118 159.15 371.659 165.859L373.412 170.594C373.803 171.339 373.915 172.199 373.727 173.019C373.635 173.241 373.492 173.439 373.31 173.596C373.128 173.752 372.911 173.864 372.677 173.922C372.334 174.011 371.982 174.06 371.627 174.069C370.317 174.232 368.991 174.232 367.68 174.069Z" fill="#263238"/>
<path d="M369.349 202.667C361.089 202.783 352.958 200.602 345.864 196.367C345.864 196.367 351.565 208.409 369.118 206.771L369.349 202.667Z" fill="#ED9482"/>
<path d="M360.866 177.859C361.399 177.484 362.003 177.224 362.64 177.092C362.962 177.033 363.294 177.077 363.589 177.216C363.885 177.355 364.129 177.584 364.289 177.869C364.355 178.079 364.44 178.283 364.541 178.478C364.898 178.961 365.643 178.783 366.21 178.951C366.424 179.041 366.618 179.173 366.781 179.339C366.944 179.504 367.073 179.701 367.159 179.916C367.246 180.132 367.29 180.363 367.287 180.595C367.284 180.827 367.236 181.057 367.144 181.271C366.933 181.697 366.638 182.077 366.278 182.387C365.917 182.697 365.498 182.932 365.045 183.076C363.856 183.566 362.562 183.743 361.286 183.591C360.84 183.574 360.402 183.462 360.002 183.263C359.602 183.064 359.249 182.782 358.966 182.436C358.701 181.972 358.577 181.441 358.608 180.908C358.64 180.375 358.826 179.863 359.144 179.433C359.797 178.579 360.614 177.865 361.549 177.334" fill="#ED9482"/>
<path d="M360.562 175.748C360.95 175.748 360.961 178.352 363.207 180.21C365.454 182.069 368.247 181.785 368.268 182.153C368.268 182.321 367.648 182.667 366.462 182.698C364.934 182.713 363.448 182.193 362.263 181.229C361.103 180.299 360.351 178.955 360.163 177.481C360.089 176.42 360.383 175.727 360.562 175.748Z" fill="#263238"/>
<path d="M359.985 151.885C359.744 152.536 357.329 152.232 354.494 152.568C351.66 152.904 349.35 153.691 348.983 153.093C348.815 152.82 349.214 152.2 350.138 151.56C351.376 150.779 352.775 150.29 354.23 150.13C355.686 149.97 357.158 150.143 358.536 150.636C359.565 151.056 360.09 151.571 359.985 151.885Z" fill="#263238"/>
<path d="M381.8 150.174C381.37 150.731 379.701 150.174 377.695 150.174C375.69 150.174 374 150.542 373.611 149.964C373.433 149.691 373.706 149.135 374.441 148.62C375.438 147.996 376.597 147.682 377.773 147.718C378.948 147.753 380.087 148.137 381.044 148.82C381.758 149.366 381.989 149.933 381.8 150.174Z" fill="#263238"/>
<path d="M375.533 128.358C374.878 131.466 373.607 134.411 371.796 137.02C369.984 139.629 367.669 141.848 364.986 143.548C362.303 145.247 359.307 146.393 356.174 146.916C353.042 147.439 349.836 147.33 346.746 146.594C346.239 150.447 344.746 154.105 342.412 157.213C340.078 160.321 336.983 162.774 333.424 164.337C338.278 173.137 340.257 183.236 339.083 193.218C338.568 197.417 337.34 201.9 334.148 204.766C329.277 209.134 321.067 208.073 316.385 203.517C311.892 199.139 310.306 192.294 311.577 186.152C312.847 180.011 316.7 174.604 321.54 170.657C319.501 170.308 317.6 169.397 316.05 168.026C314.501 166.656 313.364 164.88 312.769 162.899C312.173 160.919 312.142 158.811 312.679 156.813C313.216 154.815 314.299 153.007 315.807 151.592C317.183 150.29 318.957 149.324 320.007 147.739C321.057 146.153 321.225 144.39 321.823 142.699C323.387 138.279 327.335 135.224 331.093 132.411C334.243 130.038 337.77 127.561 341.739 127.571C343.838 127.571 345.938 128.306 348.038 128.022C350.925 127.634 353.182 125.44 355.565 123.823C358.88 121.356 363.005 120.231 367.113 120.674C371.176 121.314 374.966 124.348 375.733 128.379" fill="#263238"/>
<path d="M373.969 130.091C373.35 133.482 375.019 136.957 377.56 139.329C380.1 141.702 383.239 143.172 386.378 144.579C385.284 141.243 383.756 138.066 381.832 135.13C380.862 133.655 379.609 132.387 378.146 131.4C376.683 130.412 375.038 129.725 373.308 129.377" fill="#263238"/>
<path d="M296.826 170.531C296.706 170.176 296.673 169.798 296.731 169.428C296.887 168.356 297.451 167.386 298.306 166.72C299.688 165.714 301.392 165.25 303.093 165.418C305.056 165.418 307.229 166.069 309.634 165.922C310.934 165.813 312.191 165.397 313.3 164.709C314.41 164.021 315.34 163.081 316.017 161.964C316.767 160.716 317.179 159.294 317.214 157.838C317.319 156.337 317.214 154.762 317.266 153.124C317.282 151.407 317.816 149.735 318.799 148.326C319.892 146.92 321.342 145.833 322.998 145.177C326.305 143.676 330.074 143.655 333.686 142.983C335.478 142.691 337.205 142.087 338.788 141.198C340.271 140.253 341.558 139.03 342.578 137.597C344.625 134.783 346 131.644 347.88 128.967C350.138 125.605 353.461 123.1 357.314 121.853C361.168 120.606 365.328 120.69 369.128 122.091C370.704 122.66 372.192 123.448 373.548 124.432C374.724 125.241 375.769 126.225 376.645 127.351C376.569 127.295 376.498 127.232 376.435 127.162L375.858 126.584C375.102 125.864 374.291 125.204 373.433 124.61C370.249 122.415 366.454 121.28 362.588 121.366C359.75 121.463 356.974 122.228 354.488 123.6C352.001 124.972 349.874 126.912 348.278 129.261C346.441 131.886 345.076 135.025 343.029 137.923C341.97 139.414 340.629 140.684 339.082 141.66C337.456 142.586 335.679 143.216 333.833 143.518C330.137 144.201 326.484 144.222 323.25 145.618C321.681 146.243 320.305 147.271 319.261 148.599C318.33 149.922 317.825 151.497 317.812 153.114C317.717 154.699 317.812 156.263 317.738 157.828C317.686 159.36 317.242 160.853 316.447 162.163C315.73 163.332 314.744 164.314 313.572 165.026C312.4 165.738 311.075 166.16 309.707 166.258C307.198 166.384 305.035 165.733 303.114 165.68C301.477 165.488 299.826 165.903 298.474 166.846C297.643 167.472 297.074 168.385 296.878 169.407C296.813 169.778 296.796 170.156 296.826 170.531Z" fill="#FAFAFA"/>
<path d="M322.904 251.568L324.017 279.536L326.831 306.307L356.573 305.037L354.431 252.177L322.904 251.568Z" fill="#263238"/>
<path d="M318.537 251.474L319.65 279.536L322.464 306.307L352.206 305.037L350.064 252.093L318.537 251.474Z" fill="#6B006D"/>
<path d="M315.744 309.583C323.637 309.223 331.501 308.382 339.292 307.063C348.51 305.583 348.415 304.754 348.09 303.693C347.208 300.859 331.775 305.667 334.547 302.706C337.318 299.746 354.042 299.032 352.993 296.113C351.638 292.302 335.565 297.636 334.179 297.982C332.794 298.329 332.29 296.323 333.56 296.071C335.387 295.714 354.483 291.494 353.182 287.736C352.468 285.636 348.867 287.4 348.867 287.4C348.867 287.4 331.25 292.649 330.694 290.896C330.137 289.142 340.384 285.646 343.911 284.702C347.439 283.757 348.436 281.751 346.788 280.502C345.665 279.673 334.788 282.224 331.324 283.221C327.859 284.219 318.369 287.095 321.98 281.846C322.043 281.762 322.085 281.678 322.138 281.594C325.844 276.534 327.009 271.4 326.337 269.678C325.665 267.956 323.324 268.114 322.432 269.678C322.256 269.931 322.135 270.217 322.075 270.518C322.075 270.655 321.98 270.833 321.938 270.98C321.08 272.94 320.025 274.808 318.789 276.555C317.702 278.15 316.349 279.545 314.789 280.681C312.993 281.993 308.49 286.801 307.072 287.652" fill="#FFAD9D"/>
<path d="M308.93 286.108L324.657 309.583L298.736 336.018L299.618 293.142L308.93 286.108Z" fill="#FF9900"/>
</svg>
