<svg width="402" height="346" viewBox="0 0 402 346" fill="none" xmlns="http://www.w3.org/2000/svg">
<path d="M1.30273 339.979H400.696" stroke="#263238" stroke-linecap="round" stroke-linejoin="round"/>
<path d="M308.67 205.969V206.07C308.67 206.236 308.707 206.412 308.781 206.597C309.197 208.621 309.507 210.665 309.71 212.721C309.886 214.486 310.026 216.499 310.063 218.744C310.151 223.932 309.794 229.118 308.995 234.245C308.791 235.594 308.549 237.016 308.261 238.439C307.806 240.785 307.249 243.242 306.562 245.783C306.255 246.965 305.902 248.175 305.531 249.395L305.094 250.882C304.927 251.482 304.76 252.083 304.602 252.729C303.535 256.833 302.682 260.99 302.048 265.182C301.259 270.401 300.767 275.583 300.497 280.488C300.135 287.029 300.154 293.07 300.311 298.04C300.307 298.123 300.307 298.206 300.311 298.289C300.479 303.342 300.794 307.305 301.008 309.559C301.129 310.88 301.212 311.628 301.222 311.675" stroke="#263238" stroke-linecap="round" stroke-linejoin="round"/>
<path d="M308.698 206.098C307.308 204.869 305.632 204.002 303.822 203.576L308.698 206.098Z" fill="#FFC3BD"/>
<path d="M308.698 206.098C307.308 204.869 305.632 204.002 303.822 203.576" stroke="#263238" stroke-linecap="round" stroke-linejoin="round"/>
<path d="M309.737 212.749L312.208 210.523" stroke="#263238" stroke-linecap="round" stroke-linejoin="round"/>
<path d="M306.59 245.792C306.46 245.144 306.267 244.509 306.014 243.898C305.648 243.002 305.15 242.165 304.537 241.413C304.08 240.849 303.559 240.338 302.986 239.889" stroke="#263238" stroke-linecap="round" stroke-linejoin="round"/>
<path d="M304.611 252.72C304.961 251.857 305.486 251.075 306.152 250.422C306.818 249.769 307.612 249.259 308.484 248.923" stroke="#263238" stroke-linecap="round" stroke-linejoin="round"/>
<path d="M300.321 287.084C301.148 286.086 301.77 282.308 302.104 280.276C302.188 279.796 302.253 279.352 302.318 279.084" fill="#FFC3BD"/>
<path d="M300.321 287.084C301.148 286.086 301.77 282.308 302.104 280.276C302.188 279.796 302.253 279.352 302.318 279.084" stroke="#263238" stroke-linecap="round" stroke-linejoin="round"/>
<path d="M293.959 293.938C294.234 293.911 294.511 293.911 294.786 293.938C296.002 294.056 297.163 294.501 298.145 295.225C299.127 295.949 299.892 296.925 300.358 298.049" fill="#FFC3BD"/>
<path d="M293.959 293.938C294.234 293.911 294.511 293.911 294.786 293.938C296.002 294.056 297.163 294.501 298.145 295.225C299.127 295.949 299.892 296.925 300.358 298.049" stroke="#263238" stroke-linecap="round" stroke-linejoin="round"/>
<path d="M308.291 238.512C308.291 238.512 308.727 223.52 300.452 218.079" stroke="#263238" stroke-linecap="round" stroke-linejoin="round"/>
<path d="M308.996 270.65C310.082 274.151 302.495 280.812 302.495 280.812C302.495 280.812 292.474 279.565 291.35 276.073C290.227 272.581 292.799 266.835 297.665 265.357C302.532 263.879 307.946 267.149 308.996 270.65Z" fill="#92E3A9"/>
<path d="M317.438 228.222C316.509 231.917 309.302 234.568 309.302 234.568C309.302 234.568 304.352 228.813 305.281 225.1C306.21 221.386 310.213 217.303 313.575 218.162C316.936 219.021 318.404 224.509 317.438 228.222Z" fill="#92E3A9"/>
<path d="M288.656 283.712C293.16 285.449 295.918 293.375 295.918 293.375C295.918 293.375 288.489 297.356 283.994 295.611C279.499 293.865 274.706 288.95 276.007 285.671C277.307 282.391 284.151 281.93 288.656 283.712Z" fill="#92E3A9"/>
<path d="M298.528 240.111C299.439 240.873 300.484 241.462 301.611 241.847C302.176 242.029 302.781 242.053 303.359 241.917C303.938 241.78 304.467 241.487 304.889 241.071C305.818 239.972 305.595 238.3 304.991 236.924C303.784 234.291 299.345 229.811 295.936 231.095C291.014 232.97 296.336 238.513 298.528 240.111Z" fill="#92E3A9"/>
<path d="M308.606 246.827C307.956 247.621 307.268 248.628 307.631 249.598C307.833 250.005 308.164 250.335 308.574 250.535C308.984 250.736 309.449 250.796 309.897 250.706C310.787 250.496 311.619 250.089 312.33 249.515C314.067 248.314 317.633 245.82 315.357 243.446C313.082 241.072 309.924 245.155 308.606 246.827Z" fill="#92E3A9"/>
<path d="M294.072 213.321C293.697 213.343 293.338 213.482 293.047 213.717C292.755 213.952 292.545 214.273 292.447 214.633C292.298 215.492 293.013 216.241 293.7 216.767C295.428 218.097 300.619 221.663 301.771 218.217C302.867 214.966 296.356 213.072 294.072 213.321Z" fill="#92E3A9"/>
<path d="M303.628 201.996C302.56 202.098 301.492 201.71 300.415 201.775C299.337 201.839 298.158 202.698 298.39 203.751C298.622 204.805 299.82 205.036 300.805 205.091C302.499 205.199 304.201 205.084 305.866 204.749C306.26 204.712 306.625 204.527 306.888 204.232C307.324 203.594 306.637 202.745 305.894 202.523C305.131 202.422 304.381 202.242 303.656 201.987L303.628 201.996Z" fill="#92E3A9"/>
<path d="M314.085 209.322C315.153 209.322 316.193 208.897 317.27 208.888C318.348 208.879 319.592 209.664 319.416 210.735C319.239 211.807 318.088 212.112 317.103 212.232C315.42 212.454 313.715 212.454 312.032 212.232C311.634 212.223 311.255 212.06 310.974 211.779C310.5 211.179 311.132 210.283 311.847 210.006C312.604 209.865 313.342 209.639 314.048 209.331L314.085 209.322Z" fill="#92E3A9"/>
<path d="M313.025 288.045C313.271 287.789 313.6 287.629 313.954 287.592C314.192 287.615 314.416 287.719 314.585 287.888C314.755 288.056 314.86 288.278 314.883 288.516C314.934 288.972 314.877 289.434 314.715 289.864C313.982 292.294 305.809 309.836 303.924 306.686C302.819 304.839 305.549 298.659 306.357 296.913C307.899 293.506 310.175 290.478 313.025 288.045Z" fill="#92E3A9"/>
<path d="M309.042 207.105C309.042 207.105 308.55 202.846 309.581 202.486" stroke="#263238" stroke-linecap="round" stroke-linejoin="round"/>
<path d="M308.131 202.662C308.658 201.158 309.566 199.815 310.768 198.763C312.059 197.84 314.13 197.766 315.068 199.05C316.118 200.482 315.068 202.652 313.462 203.419C311.855 204.186 309.96 203.955 308.196 203.705C308.196 203.447 308.196 203.188 308.196 202.929L308.131 202.662Z" fill="#92E3A9"/>
<path d="M312.533 339.766C303.778 341.235 294.838 341.235 286.083 339.766L275.793 309.568H322.823L312.533 339.766Z" fill="#FF9900" stroke="#263238" stroke-linecap="round" stroke-linejoin="round"/>
<path d="M133.05 121.592V121.694C133.087 121.86 133.124 122.035 133.162 122.22C133.582 124.244 133.892 126.288 134.09 128.345C134.267 130.109 134.397 132.123 134.443 134.368C134.538 139.542 134.191 144.716 133.403 149.831C133.199 151.18 132.957 152.603 132.669 154.025C132.214 156.372 131.648 158.829 130.97 161.369C130.654 162.552 130.31 163.762 129.939 164.981C129.79 165.48 129.642 165.97 129.502 166.468C129.363 166.967 129.159 167.669 129.001 168.316" stroke="#263238" stroke-linecap="round" stroke-linejoin="round"/>
<path d="M133.069 121.722C132.402 121.141 131.674 120.636 130.895 120.216C130.038 119.766 129.127 119.425 128.184 119.2" fill="#FFC3BD"/>
<path d="M133.069 121.722C132.402 121.141 131.674 120.636 130.895 120.216C130.038 119.766 129.127 119.425 128.184 119.2" stroke="#263238" stroke-linecap="round" stroke-linejoin="round"/>
<path d="M134.108 128.373L136.588 126.146" stroke="#263238" stroke-linecap="round" stroke-linejoin="round"/>
<path d="M130.97 161.416C130.838 160.767 130.642 160.133 130.385 159.522C130.019 158.626 129.521 157.788 128.908 157.037C128.451 156.472 127.93 155.961 127.357 155.513" stroke="#263238" stroke-linecap="round" stroke-linejoin="round"/>
<path d="M128.992 168.307C129.339 167.443 129.861 166.661 130.526 166.007C131.19 165.354 131.984 164.844 132.856 164.51" stroke="#263238" stroke-linecap="round" stroke-linejoin="round"/>
<path d="M124.692 202.708C125.519 201.71 126.15 197.932 126.485 195.9C126.559 195.42 126.633 194.976 126.689 194.708" fill="#FFC3BD"/>
<path d="M124.692 202.708C125.519 201.71 126.15 197.932 126.485 195.9C126.559 195.42 126.633 194.976 126.689 194.708" stroke="#263238" stroke-linecap="round" stroke-linejoin="round"/>
<path d="M118.329 209.525C118.607 209.497 118.887 209.497 119.165 209.525C120.38 209.645 121.54 210.091 122.522 210.815C123.503 211.539 124.268 212.514 124.737 213.636" fill="#FFC3BD"/>
<path d="M118.329 209.525C118.607 209.497 118.887 209.497 119.165 209.525C120.38 209.645 121.54 210.091 122.522 210.815C123.503 211.539 124.268 212.514 124.737 213.636" stroke="#263238" stroke-linecap="round" stroke-linejoin="round"/>
<path d="M132.661 154.099C132.661 154.099 133.106 139.107 124.822 133.666" stroke="#263238" stroke-linecap="round" stroke-linejoin="round"/>
<path d="M133.412 186.274C134.489 189.775 126.911 196.435 126.911 196.435C126.911 196.435 116.881 195.188 115.766 191.696C114.652 188.204 117.225 182.459 122.082 180.981C126.939 179.503 132.325 182.782 133.412 186.274Z" fill="#92E3A9"/>
<path d="M141.828 143.845C140.899 147.54 133.692 150.192 133.692 150.192C133.692 150.192 128.686 144.437 129.652 140.723C130.618 137.01 134.574 132.927 137.936 133.786C141.298 134.645 142.756 140.132 141.828 143.845Z" fill="#92E3A9"/>
<path d="M113.036 199.336C117.541 201.082 120.308 208.998 120.308 208.998C120.308 208.998 112.878 212.98 108.374 211.234C103.87 209.488 99.087 204.574 100.397 201.294C101.706 198.015 108.523 197.59 113.036 199.336Z" fill="#92E3A9"/>
<path d="M122.908 155.735C123.817 156.497 124.859 157.086 125.983 157.471C126.548 157.653 127.153 157.677 127.731 157.541C128.309 157.404 128.838 157.111 129.261 156.695C130.19 155.596 129.967 153.924 129.363 152.548C128.156 149.915 123.726 145.435 120.308 146.719C115.395 148.576 120.707 154.118 122.908 155.735Z" fill="#92E3A9"/>
<path d="M132.976 162.459C132.336 163.254 131.648 164.307 132.001 165.231C132.203 165.638 132.535 165.968 132.945 166.168C133.355 166.369 133.82 166.429 134.267 166.339C135.159 166.131 135.991 165.723 136.701 165.148C138.437 163.956 142.004 161.453 139.728 159.079C137.453 156.704 134.342 160.778 132.976 162.459Z" fill="#92E3A9"/>
<path d="M118.442 128.946C118.067 128.969 117.71 129.107 117.418 129.343C117.127 129.578 116.917 129.897 116.817 130.257C116.668 131.116 117.383 131.865 118.08 132.391C119.807 133.721 124.989 137.287 126.15 133.841C127.237 130.59 120.736 128.696 118.442 128.946Z" fill="#92E3A9"/>
<path d="M127.998 117.62C126.93 117.722 125.862 117.334 124.794 117.398C123.726 117.463 122.528 118.322 122.77 119.375C123.011 120.428 124.191 120.659 125.184 120.715C126.876 120.823 128.575 120.708 130.237 120.373C130.633 120.336 131.002 120.151 131.267 119.856C131.695 119.218 131.007 118.368 130.274 118.147C129.508 118.046 128.755 117.866 128.026 117.611L127.998 117.62Z" fill="#92E3A9"/>
<path d="M138.456 124.945C139.533 124.945 140.573 124.521 141.641 124.511C142.709 124.502 143.963 125.287 143.796 126.359C143.629 127.43 142.459 127.735 141.474 127.855C139.791 128.077 138.086 128.077 136.403 127.855C136.005 127.846 135.626 127.684 135.345 127.403C134.871 126.802 135.503 125.906 136.227 125.629C136.983 125.486 137.722 125.26 138.428 124.955L138.456 124.945Z" fill="#92E3A9"/>
<path d="M137.396 203.668C137.643 203.414 137.972 203.254 138.325 203.216C138.562 203.243 138.782 203.349 138.951 203.517C139.119 203.685 139.226 203.904 139.254 204.14C139.302 204.597 139.241 205.059 139.077 205.488C138.353 207.918 130.171 225.46 128.295 222.31C127.18 220.462 129.911 214.282 130.719 212.537C132.263 209.129 134.543 206.101 137.396 203.668Z" fill="#92E3A9"/>
<path d="M133.412 122.747C133.412 122.747 132.92 118.488 133.96 118.128" stroke="#263238" stroke-linecap="round" stroke-linejoin="round"/>
<path d="M132.539 118.285C133.059 116.778 133.968 115.433 135.177 114.387C136.468 113.463 138.529 113.389 139.467 114.673C140.517 116.105 139.467 118.276 137.861 119.043C136.254 119.809 134.369 119.578 132.604 119.329C132.604 119.07 132.604 118.812 132.604 118.553L132.539 118.285Z" fill="#92E3A9"/>
<path d="M15.3828 223.705V132.428" stroke="#263238" stroke-linecap="round" stroke-linejoin="round"/>
<path d="M301.891 223.705H290.552" stroke="#263238" stroke-linecap="round" stroke-linejoin="round"/>
<path d="M390.815 223.705H367.718" stroke="#263238" stroke-linecap="round" stroke-linejoin="round"/>
<path d="M289.512 85.0393H330.44V46.2598" stroke="#263238" stroke-linecap="round" stroke-linejoin="round"/>
<path d="M50.9619 73.1968H94.4443V104.743H142.106" stroke="#263238" stroke-linecap="round" stroke-linejoin="round"/>
<path d="M25.3105 180.03V110.323" stroke="#263238" stroke-linecap="round" stroke-linejoin="round"/>
<path d="M44.7393 80.0696V134.701" stroke="#263238" stroke-linecap="round" stroke-linejoin="round"/>
<path d="M64.1592 80.0696V128.364" stroke="#263238" stroke-linecap="round" stroke-linejoin="round"/>
<path d="M83.5781 80.0696V164.548" stroke="#263238" stroke-linecap="round" stroke-linejoin="round"/>
<path d="M176.607 68.0882V12.5425H255.669V68.0882" stroke="#263238" stroke-linecap="round" stroke-linejoin="round"/>
<path d="M182.402 40.1353V19.1382H197.02" stroke="#263238" stroke-linecap="round" stroke-linejoin="round"/>
<path d="M200.234 40.1353V19.1382H214.852" stroke="#263238" stroke-linecap="round" stroke-linejoin="round"/>
<path d="M218.065 40.1353V19.1382H232.683" stroke="#263238" stroke-linecap="round" stroke-linejoin="round"/>
<path d="M235.896 40.1353V19.1382H250.514" stroke="#263238" stroke-linecap="round" stroke-linejoin="round"/>
<path d="M182.402 68.0882V47.0911H197.02" stroke="#263238" stroke-linecap="round" stroke-linejoin="round"/>
<path d="M200.234 68.0882V47.0911H214.852" stroke="#263238" stroke-linecap="round" stroke-linejoin="round"/>
<path d="M218.065 68.0882V47.0911H232.683" stroke="#263238" stroke-linecap="round" stroke-linejoin="round"/>
<path d="M235.896 68.0882V47.0911H250.514" stroke="#263238" stroke-linecap="round" stroke-linejoin="round"/>
<path d="M336.773 51.0635V120.669" stroke="#263238" stroke-linecap="round" stroke-linejoin="round"/>
<path d="M365.48 218.606H367.719" stroke="#263238" stroke-linecap="round" stroke-linejoin="round"/>
<path d="M353.983 71.0535V148.982" stroke="#263238" stroke-linecap="round" stroke-linejoin="round"/>
<path d="M371.201 198.708V218.606H384.937" stroke="#263238" stroke-linecap="round" stroke-linejoin="round"/>
<path d="M371.201 96.457V149.379" stroke="#263238" stroke-linecap="round" stroke-linejoin="round"/>
<path d="M388.41 136.613V218.606H391.54" stroke="#263238" stroke-linecap="round" stroke-linejoin="round"/>
<path d="M178.687 225.376H1.30273V339.978H178.687V225.376Z" fill="white" stroke="#263238" stroke-linecap="round" stroke-linejoin="round"/>
<path d="M1.30273 225.376L89.995 282.677L178.687 225.376H1.30273Z" fill="white" stroke="#263238" stroke-linecap="round" stroke-linejoin="round"/>
<path d="M63.3316 265.449L1.30273 339.979" stroke="#263238" stroke-linecap="round" stroke-linejoin="round"/>
<path d="M117.142 265.449L179.17 339.979" stroke="#263238" stroke-linecap="round" stroke-linejoin="round"/>
<path d="M273.61 79.1453H232.375C231.188 79.1467 230.022 79.4645 229 80.0655C227.977 80.6666 227.135 81.529 226.561 82.5632C225.548 84.3822 224.064 85.8983 222.262 86.9539C220.461 88.0095 218.408 88.5662 216.318 88.5662C214.227 88.5662 212.174 88.0095 210.373 86.9539C208.572 85.8983 207.087 84.3822 206.074 82.5632C205.505 81.5156 204.661 80.6406 203.633 80.0308C202.605 79.421 201.43 79.0991 200.232 79.0991H159.044C157.913 79.0845 156.791 79.2915 155.741 79.7084C154.691 80.1252 153.733 80.7438 152.923 81.5287C152.114 82.3136 151.467 83.2494 151.021 84.2828C150.575 85.3163 150.338 86.427 150.323 87.5515V318.88C150.355 321.15 151.291 323.315 152.926 324.9C154.561 326.485 156.761 327.359 159.044 327.332H273.61C275.894 327.359 278.095 326.485 279.731 324.901C281.368 323.316 282.306 321.151 282.34 318.88V87.5977C282.308 85.3257 281.371 83.1592 279.734 81.5743C278.097 79.9894 275.894 79.1157 273.61 79.1453Z" fill="#6B006D"/>
<path d="M286.361 85.039C286.366 83.4807 286.062 81.9368 285.466 80.4957C284.869 79.0546 283.993 77.7447 282.887 76.6411C281.781 75.5375 280.467 74.6619 279.02 74.0644C277.573 73.467 276.022 73.1594 274.455 73.1594H158.208C156.645 73.1582 155.097 73.4634 153.652 74.0575C152.208 74.6517 150.895 75.5231 149.79 76.6221C148.684 77.721 147.807 79.0259 147.208 80.4622C146.61 81.8985 146.302 83.438 146.302 84.9928V328.118C146.302 331.256 147.555 334.266 149.786 336.485C152.017 338.704 155.043 339.951 158.199 339.951H274.455C277.611 339.951 280.638 338.704 282.871 336.486C285.103 334.267 286.359 331.257 286.361 328.118V85.039ZM282.34 318.88C282.306 321.151 281.367 323.316 279.731 324.901C278.095 326.485 275.893 327.359 273.61 327.332H159.044C156.761 327.359 154.561 326.485 152.926 324.9C151.291 323.315 150.355 321.15 150.323 318.88V87.5978C150.338 86.4732 150.575 85.3625 151.021 84.3291C151.467 83.2957 152.113 82.3598 152.923 81.5749C153.733 80.79 154.69 80.1715 155.741 79.7546C156.791 79.3378 157.913 79.1307 159.044 79.1454H200.251C201.447 79.1451 202.621 79.4669 203.648 80.0769C204.674 80.6868 205.516 81.562 206.083 82.6095C207.096 84.4285 208.581 85.9446 210.382 87.0002C212.183 88.0558 214.236 88.6125 216.327 88.6125C218.418 88.6125 220.47 88.0558 222.272 87.0002C224.073 85.9446 225.557 84.4285 226.571 82.6095C227.143 81.574 227.984 80.7105 229.007 80.1092C230.03 79.508 231.196 79.191 232.384 79.1916H273.619C274.75 79.1769 275.872 79.3839 276.922 79.8008C277.973 80.2177 278.93 80.8362 279.74 81.6211C280.549 82.406 281.196 83.3419 281.642 84.3753C282.088 85.4087 282.325 86.5194 282.34 87.644V318.88Z" fill="#263238"/>
<path opacity="0.2" d="M246.862 73.1965L169.64 339.97L200.306 339.942L274.668 73.1965H246.862Z" fill="#FFC3BD"/>
<path opacity="0.2" d="M235.346 73.1965L153.703 339.979L158.17 339.951L238.281 73.1965H235.346Z" fill="#FFC3BD"/>
<path d="M237.157 271.519C237.214 274.163 236.739 276.792 235.759 279.25C234.778 281.709 233.314 283.948 231.45 285.835C229.587 287.722 227.363 289.219 224.909 290.238C222.455 291.256 219.821 291.777 217.162 291.767C211.736 291.747 206.534 289.618 202.664 285.835C198.795 282.052 196.566 276.914 196.452 271.519C196.396 268.875 196.872 266.247 197.853 263.789C198.834 261.332 200.299 259.094 202.162 257.208C204.025 255.322 206.249 253.826 208.702 252.808C211.155 251.79 213.789 251.27 216.447 251.279C221.872 251.297 227.074 253.424 230.944 257.206C234.813 260.987 237.043 266.124 237.157 271.519Z" fill="#FF9900" stroke="#263238" stroke-linecap="round" stroke-linejoin="round"/>
<path d="M210.131 286.631C208.241 285.936 206.508 284.875 205.033 283.509C203.545 282.088 202.394 280.356 201.662 278.438C200.827 276.288 200.414 273.999 200.445 271.694C200.433 269.729 200.783 267.779 201.476 265.939C202.106 264.24 203.051 262.673 204.262 261.32C206.649 258.723 209.733 256.858 213.15 255.944C214.827 255.494 216.557 255.267 218.295 255.27C219.738 255.263 221.176 255.434 222.576 255.778C223.928 256.108 225.221 256.64 226.412 257.357C227.591 258.062 228.648 258.951 229.542 259.99C230.473 261.111 231.185 262.396 231.64 263.778C232.161 265.354 232.418 267.005 232.402 268.664C232.382 271.871 231.221 274.967 229.124 277.403C228.222 278.42 227.154 279.279 225.966 279.943C224.942 280.528 223.785 280.846 222.604 280.867C221.789 280.878 220.992 280.621 220.338 280.137C220.01 279.895 219.742 279.581 219.557 279.219C219.371 278.856 219.273 278.456 219.27 278.05C218.661 278.971 217.825 279.722 216.841 280.231C215.858 280.741 214.76 280.991 213.651 280.96C212.779 280.998 211.91 280.842 211.106 280.504C210.303 280.165 209.586 279.651 209.008 279.001C207.848 277.661 207.235 275.937 207.29 274.17C207.297 272.715 207.552 271.272 208.042 269.902C208.53 268.521 209.222 267.22 210.094 266.041C210.964 264.882 212.072 263.922 213.345 263.223C214.617 262.509 216.054 262.137 217.515 262.142C218.53 262.132 219.533 262.373 220.431 262.845C221.303 263.307 222.01 264.027 222.456 264.905L222.641 264.286C222.789 263.852 223.104 263.495 223.517 263.292C223.93 263.089 224.406 263.058 224.842 263.205C225.011 263.262 225.17 263.343 225.316 263.445C225.454 263.555 225.565 263.696 225.637 263.857C225.71 264.017 225.743 264.193 225.734 264.369C225.734 264.541 225.706 264.713 225.65 264.877L222.641 274.835C222.376 275.594 222.204 276.381 222.13 277.181C222.103 277.331 222.112 277.484 222.159 277.629C222.205 277.774 222.286 277.905 222.395 278.011C222.505 278.116 222.639 278.194 222.785 278.236C222.932 278.279 223.086 278.284 223.236 278.253C224.301 278.185 225.298 277.712 226.022 276.932C227.025 275.945 227.796 274.75 228.279 273.431C228.855 271.991 229.151 270.455 229.152 268.904C229.164 267.539 228.963 266.181 228.557 264.877C228.216 263.753 227.675 262.698 226.96 261.764C226.283 260.913 225.463 260.184 224.536 259.611C223.612 259.032 222.603 258.599 221.545 258.327C220.46 258.044 219.343 257.901 218.221 257.902C216.797 257.904 215.382 258.103 214.014 258.494C212.605 258.891 211.262 259.491 210.029 260.276C208.786 261.057 207.66 262.008 206.686 263.103C205.682 264.256 204.901 265.584 204.383 267.02C203.799 268.583 203.507 270.239 203.519 271.907C203.489 273.882 203.848 275.843 204.578 277.68C205.207 279.27 206.199 280.693 207.475 281.837C208.709 282.902 210.133 283.726 211.673 284.267C213.298 284.838 215.011 285.126 216.735 285.116C218.577 285.116 220.409 284.839 222.168 284.294C222.343 284.231 222.529 284.2 222.716 284.202C222.89 284.199 223.063 284.233 223.223 284.302C223.383 284.37 223.526 284.472 223.644 284.599C223.763 284.722 223.856 284.867 223.918 285.025C223.98 285.184 224.01 285.353 224.006 285.523C224.029 285.792 223.953 286.059 223.792 286.276C223.632 286.494 223.398 286.646 223.133 286.705C220.942 287.372 218.664 287.72 216.372 287.74C214.243 287.737 212.13 287.362 210.131 286.631ZM217.803 277.052C218.721 276.396 219.402 275.463 219.744 274.392L221.685 267.602L221.555 267.325C221.434 267.102 221.287 266.895 221.118 266.706C220.885 266.439 220.631 266.192 220.357 265.967C220.009 265.691 219.616 265.475 219.196 265.329C218.097 264.948 216.893 264.991 215.824 265.45C215.239 265.696 214.701 266.043 214.236 266.475C213.753 266.923 213.323 267.426 212.955 267.971C212.586 268.54 212.275 269.143 212.026 269.773C211.765 270.403 211.563 271.055 211.422 271.722C211.282 272.356 211.21 273.003 211.209 273.653C211.201 274.07 211.225 274.487 211.283 274.9C211.326 275.267 211.407 275.629 211.525 275.98C211.626 276.307 211.773 276.618 211.961 276.904C212.129 277.162 212.343 277.388 212.593 277.569C212.858 277.761 213.157 277.902 213.475 277.985C213.846 278.093 214.231 278.143 214.617 278.133C215.779 278.147 216.913 277.777 217.84 277.08L217.803 277.052Z" fill="white" stroke="#FF9900" stroke-linecap="round" stroke-linejoin="round"/>
<path d="M236.703 202.117C236.758 204.76 236.282 207.388 235.301 209.846C234.32 212.304 232.855 214.541 230.992 216.427C229.129 218.313 226.905 219.809 224.452 220.828C221.999 221.846 219.366 222.366 216.707 222.357C211.283 222.338 206.08 220.211 202.21 216.43C198.341 212.648 196.111 207.512 195.997 202.117C195.939 199.472 196.413 196.843 197.393 194.384C198.373 191.924 199.837 189.685 201.701 187.798C203.565 185.911 205.789 184.414 208.244 183.395C210.698 182.377 213.333 181.858 215.992 181.868C221.418 181.889 226.62 184.018 230.49 187.801C234.359 191.584 236.589 196.721 236.703 202.117Z" fill="#FF9900" stroke="#263238" stroke-linecap="round" stroke-linejoin="round"/>
<path d="M229.124 200.269C222.744 196.112 210.234 196.112 204.151 200.269C203.039 200.477 202.038 201.075 201.332 201.955C200.627 202.835 200.262 203.938 200.306 205.063C200.399 207.752 211.627 207.752 211.534 205.063C211.48 203.94 211.048 202.866 210.309 202.015C214.52 201.11 218.877 201.11 223.088 202.015C222.402 202.882 222.047 203.961 222.085 205.063C222.178 207.752 233.406 207.752 233.304 205.063C233.251 203.913 232.809 202.814 232.051 201.944C231.293 201.074 230.262 200.484 229.124 200.269Z" fill="white" stroke="#FF9900" stroke-linecap="round" stroke-linejoin="round"/>
<path d="M236.702 134.7C236.813 139.68 234.083 144.132 229.699 147.097V159.189L220.979 150.506C219.569 150.757 218.139 150.88 216.707 150.876C205.469 150.876 196.191 143.633 195.996 134.7C195.801 125.768 204.745 118.535 215.992 118.535C227.238 118.535 236.553 125.814 236.702 134.7Z" fill="#FF9900" stroke="#263238" stroke-linecap="round" stroke-linejoin="round"/>
<path d="M207.679 134.7C207.681 135.22 207.528 135.728 207.239 136.16C206.951 136.593 206.539 136.931 206.058 137.131C205.576 137.331 205.045 137.384 204.533 137.284C204.021 137.184 203.55 136.935 203.18 136.568C202.81 136.201 202.558 135.734 202.456 135.225C202.353 134.716 202.405 134.188 202.604 133.708C202.804 133.228 203.142 132.818 203.576 132.529C204.009 132.24 204.52 132.086 205.042 132.086C205.74 132.086 206.409 132.361 206.904 132.851C207.398 133.341 207.677 134.006 207.679 134.7Z" fill="white" stroke="#FF9900" stroke-linecap="round" stroke-linejoin="round"/>
<path d="M218.964 134.7C218.965 135.22 218.812 135.728 218.524 136.16C218.235 136.593 217.824 136.931 217.342 137.131C216.86 137.331 216.329 137.384 215.817 137.284C215.305 137.184 214.834 136.935 214.464 136.568C214.094 136.201 213.842 135.734 213.74 135.225C213.637 134.716 213.689 134.188 213.888 133.708C214.088 133.228 214.426 132.818 214.86 132.529C215.294 132.24 215.804 132.086 216.326 132.086C217.024 132.086 217.693 132.361 218.188 132.851C218.682 133.341 218.961 134.006 218.964 134.7Z" fill="white" stroke="#FF9900" stroke-linecap="round" stroke-linejoin="round"/>
<path d="M230.248 134.7C230.25 135.22 230.096 135.728 229.808 136.16C229.519 136.593 229.108 136.931 228.626 137.131C228.144 137.331 227.614 137.384 227.101 137.284C226.589 137.184 226.118 136.935 225.748 136.568C225.379 136.201 225.127 135.734 225.024 135.225C224.921 134.716 224.973 134.188 225.173 133.708C225.372 133.228 225.71 132.818 226.144 132.529C226.578 132.24 227.088 132.086 227.61 132.086C228.308 132.086 228.978 132.361 229.472 132.851C229.966 133.341 230.245 134.006 230.248 134.7Z" fill="white" stroke="#FF9900" stroke-linecap="round" stroke-linejoin="round"/>
<path d="M102.636 171.568C102.306 172.178 101.831 172.698 101.252 173.083C96.9677 176.482 92.5841 179.743 88.1015 182.865C86.4577 184.011 84.7489 185.193 83.1608 186.477C73.6136 192.833 79.4459 194.384 73.6136 207.834C72.2391 211.049 72.4898 226.799 72.4898 226.799H72.0162C70.8982 225.702 69.7101 224.677 68.4592 223.732C68.2864 223.617 68.1065 223.512 67.9206 223.418C67.7461 223.329 67.5577 223.27 67.3633 223.243C66.4346 223.187 62.8962 223.612 59.3207 223.381L58.392 223.307C57.8719 223.252 57.3611 223.187 56.8503 223.095C56.3395 223.003 55.8473 222.901 55.3736 222.772C51.9804 221.689 48.6532 220.412 45.4085 218.947L43.7926 218.254L42.9939 217.913L42.2695 217.599L41.7494 217.377L41.2479 217.164C40.4028 216.813 39.6134 216.49 38.889 216.241C38.5569 216.122 38.219 216.02 37.8767 215.936C37.8767 216.693 37.7559 217.469 37.6538 218.227C37.208 221.839 36.2143 225.173 34.4404 225.617C34.4039 225.626 34.3655 225.626 34.329 225.617C34.1727 225.646 34.0142 225.661 33.8553 225.663H33.716C33.3231 225.655 32.9341 225.583 32.5644 225.451C30.9545 224.767 29.6389 223.54 28.8495 221.986C28.4968 221.331 28.2998 220.604 28.2737 219.862C28.2737 217.174 27.5215 201.313 27.5215 196.694C27.5215 192.075 28.4502 183.992 30.7627 180.99C31.6664 179.717 32.8078 178.629 34.1246 177.784C35.8191 176.379 37.7625 175.302 39.8548 174.607C42.3252 173.803 47.851 171.752 51.7052 170.302L45.8822 172.538C47.3588 175.05 50.5257 179.004 56.2373 179.512C61.6053 179.965 64.9301 175.133 66.6296 171.605C66.7782 171.66 76.1211 169.896 78.285 169.997C85.334 170.302 91.0827 166.505 93.6831 165C94.4675 164.533 95.3476 164.25 96.2578 164.169C97.1679 164.089 98.0846 164.214 98.9392 164.536C99.7938 164.857 100.564 165.367 101.193 166.026C101.822 166.686 102.293 167.478 102.571 168.344V168.427C102.977 169.431 103 170.548 102.636 171.568Z" fill="#6B006D" stroke="#263238" stroke-linecap="round" stroke-linejoin="round"/>
<path d="M66.5268 171.661L66.0996 171.513L66.5268 171.661Z" fill="#FFC3BD" stroke="#263238" stroke-linecap="round" stroke-linejoin="round"/>
<path d="M74.4494 230.864C74.4538 230.901 74.4538 230.938 74.4494 230.975C74.4116 231.064 74.3543 231.144 74.2814 231.208C74.2086 231.272 74.1222 231.32 74.0286 231.346C73.935 231.373 73.8366 231.378 73.7407 231.362C73.6447 231.346 73.5536 231.308 73.4742 231.252C73.047 231.012 72.3876 229.469 72.3876 229.469L71.6539 228.712L71.171 228.204C71.2453 228.388 71.8304 229.802 71.5239 230.458C71.5083 230.503 71.483 230.544 71.4496 230.578C71.2444 230.85 70.9781 231.072 70.6717 231.224C70.3654 231.376 70.0275 231.456 69.6851 231.455C69.2857 231.455 68.1155 231.594 67.0939 231.658H66.9825C66.6732 231.676 66.3631 231.676 66.0538 231.658C65.2292 231.553 64.4338 231.286 63.7134 230.873C62.0796 230.635 60.4699 230.254 58.9027 229.737L58.6241 229.589L58.3733 229.441C58.2084 229.342 58.0557 229.225 57.9182 229.09C57.3523 228.621 56.8716 228.059 56.4973 227.428C56.4973 227.428 52.7267 227.271 47.6652 226.883C45.8078 226.744 43.8018 226.569 41.7215 226.365C38.5267 226.042 35.8891 226.06 33.8181 225.774H33.6695C33.2609 225.719 32.8801 225.645 32.5179 225.562C31.634 225.39 30.8167 224.974 30.1596 224.361C29.5026 223.748 29.0324 222.964 28.803 222.098C28.6814 221.687 28.5822 221.271 28.5059 220.85L30.1218 218.079C30.9641 217.407 31.9033 216.865 32.908 216.472C34.4666 215.823 36.1877 215.665 37.8394 216.019C38.1818 216.104 38.5197 216.206 38.8517 216.324C39.5761 216.601 40.3655 216.924 41.2107 217.248L41.7215 217.46L42.2415 217.682L42.9659 217.996C47.0987 219.696 52.0302 221.885 55.3271 222.809C56.3174 223.067 57.3267 223.246 58.3455 223.345L59.2742 223.419C62.8497 223.649 66.3788 223.225 67.3168 223.28C68.2548 223.335 70.5488 225.506 72.0161 226.846C72.4155 227.215 72.7684 227.52 73.0099 227.705L73.1213 227.797L73.2049 227.871C73.7368 228.414 74.1093 229.091 74.2822 229.829C74.3553 230.077 74.405 230.33 74.4308 230.587C74.4477 230.678 74.4539 230.771 74.4494 230.864Z" fill="#FFC3BD" stroke="#263238" stroke-linecap="round" stroke-linejoin="round"/>
<path d="M74.4502 230.864C74.4547 230.901 74.4547 230.938 74.4502 230.975C74.4116 231.064 74.3535 231.142 74.2803 231.206C74.2071 231.269 74.1205 231.315 74.027 231.341C73.9335 231.366 73.8354 231.371 73.7399 231.354C73.6444 231.337 73.5539 231.299 73.4751 231.243C73.0159 230.713 72.6486 230.11 72.3885 229.46L71.6548 228.712L71.1719 228.213C71.2369 228.361 71.8405 229.802 71.5341 230.467C71.5185 230.512 71.4931 230.553 71.4598 230.587C71.3568 230.723 71.2384 230.847 71.1069 230.957C70.7064 231.277 70.2089 231.452 69.6952 231.455C69.2866 231.455 68.1257 231.585 67.1134 231.659H66.9834C66.674 231.676 66.364 231.676 66.0547 231.659C65.2351 231.55 64.4439 231.286 63.7236 230.883C62.0898 230.639 60.4803 230.256 58.9128 229.737L58.6435 229.608L58.3928 229.46C58.2322 229.355 58.08 229.238 57.9377 229.109C57.3634 228.636 56.8763 228.067 56.4982 227.428C56.4982 227.428 52.839 227.271 47.8797 226.892C46.0223 226.753 43.877 226.569 41.7223 226.356C38.7876 226.07 36.3637 225.987 34.4041 225.682L33.8004 225.571L33.1039 225.414C32.9433 224.282 33.0612 223.128 33.4475 222.051C33.8075 221.143 34.3658 220.325 35.0821 219.658C35.7984 218.99 36.6548 218.489 37.5896 218.19C38.7496 217.766 39.9382 217.423 41.1465 217.165L41.648 217.377L42.1681 217.599L42.8925 217.913C47.0996 219.714 51.9753 221.894 55.2816 222.79C56.2711 223.05 57.2807 223.226 58.2999 223.317L59.2286 223.391C62.8041 223.631 66.3333 223.206 67.2713 223.262C68.2093 223.317 70.4939 225.479 71.9148 226.818C72.2372 227.124 72.5751 227.414 72.9271 227.686L73.0386 227.77L73.1222 227.843C73.6642 228.379 74.0385 229.059 74.1995 229.802C74.2726 230.049 74.3223 230.303 74.3481 230.559C74.3956 230.656 74.43 230.758 74.4502 230.864Z" fill="#FFC3BD" stroke="#263238" stroke-linecap="round" stroke-linejoin="round"/>
<path d="M63.332 228.407C63.332 228.407 65.4402 229.497 66.2761 229.876C67.1119 230.255 67.0376 231.779 67.0376 231.779" fill="#FFC3BD"/>
<path d="M63.332 228.407C63.332 228.407 65.4402 229.497 66.2761 229.876C67.1119 230.255 67.0376 231.779 67.0376 231.779" stroke="#263238" stroke-linecap="round" stroke-linejoin="round"/>
<path d="M65.5908 226.929C66.9171 227.87 68.1942 228.878 69.4171 229.949C69.5958 230.158 69.7122 230.412 69.7532 230.683C69.7943 230.954 69.7583 231.231 69.6493 231.483" fill="#FFC3BD"/>
<path d="M65.5908 226.929C66.9171 227.87 68.1942 228.878 69.4171 229.949C69.5958 230.158 69.7122 230.412 69.7532 230.683C69.7943 230.954 69.7583 231.231 69.6493 231.483" stroke="#263238" stroke-linecap="round" stroke-linejoin="round"/>
<path d="M71.1438 228.194C70.045 227.023 68.8823 225.913 67.6611 224.869L71.1438 228.194Z" fill="#FFC3BD"/>
<path d="M71.1438 228.194C70.045 227.023 68.8823 225.913 67.6611 224.869" stroke="#263238" stroke-linecap="round" stroke-linejoin="round"/>
<path d="M66.5185 171.678C64.8375 175.198 61.5034 179.992 56.1354 179.577C50.4517 179.096 47.2569 175.115 45.7803 172.593C47.8234 171.817 49.8945 171.023 51.594 170.358C51.594 168.639 51.5383 166.579 51.3526 164.538C51.3526 164.094 51.2597 163.614 51.2133 163.198C51.1668 162.783 51.1111 162.487 51.0554 162.145H61.8563C61.8563 162.145 61.7913 162.57 61.7077 163.281C61.6427 163.919 61.5591 164.769 61.4941 165.729C61.4105 167.004 61.3548 168.501 61.392 169.914C61.912 170.09 62.4414 170.284 62.9708 170.487L63.9924 170.838C64.401 170.986 64.8003 171.115 65.2275 171.254L66.1563 171.531C66.28 171.572 66.401 171.622 66.5185 171.678Z" fill="#FFC3BD" stroke="#263238" stroke-linecap="round" stroke-linejoin="round"/>
<path d="M51.2119 163.162C51.2119 163.162 53.2272 168.372 56.1527 169.259C59.0781 170.146 61.725 163.282 61.725 163.282C61.725 163.282 57.6015 167.661 56.0691 166.977C54.5367 166.293 51.2305 163.199 51.2305 163.199" fill="#263238"/>
<path d="M49.4765 134.386C46.7472 136.83 44.5831 139.834 43.1334 143.19C41.8053 145.961 40.6816 149.148 41.7032 152.049C42.3145 153.489 43.1794 154.809 44.2571 155.947C46.2631 158.34 49.0771 165.018 51.0832 167.411C51.2132 163.152 47.6284 156.27 48.0091 152.695C48.4703 149.933 49.3833 147.265 50.7117 144.797C52.0627 141.56 53.8296 138.511 55.9682 135.726C57.1848 134.266 61.0947 131.671 57.1477 131.356C54.5287 131.144 51.4547 132.77 49.4765 134.386Z" fill="#263238" stroke="#263238" stroke-linecap="round" stroke-linejoin="round"/>
<path d="M46.9491 148.908C46.9491 148.908 45.5653 146.238 44.1072 148.769C43.0578 150.617 44.5716 153.527 45.2217 154.607C45.4374 154.915 45.7296 155.162 46.0698 155.324C46.41 155.486 46.7865 155.557 47.1627 155.531L46.9491 148.908Z" fill="#FFC3BD" stroke="#263238" stroke-linecap="round" stroke-linejoin="round"/>
<path d="M65.1352 158.552C64.2478 160.297 63.0915 161.893 61.7082 163.282L60.8724 164.141C59.145 165.841 57.2783 167.189 56.0524 166.912C54.9844 166.7 53.5913 165.61 52.2261 164.215C51.8824 163.873 51.5481 163.504 51.2138 163.134C49.7273 161.517 48.4512 159.72 47.4153 157.785C47.1276 157.06 46.9431 156.298 46.8674 155.522C46.633 153.208 46.5524 150.882 46.6259 148.557C46.6259 147.735 46.6259 147.079 46.6259 146.71C46.6259 145.102 52.6811 139.513 52.6811 139.513C52.8443 139.454 53.0197 139.435 53.1919 139.458C54.2334 139.647 55.2371 140.002 56.1638 140.511C59.8322 142.285 64.9495 145.804 65.3209 147.144C65.8875 149.093 65.6739 156.816 65.1352 158.552Z" fill="#FFC3BD" stroke="#263238" stroke-linecap="round" stroke-linejoin="round"/>
<path d="M53.108 151.143C53.108 151.79 52.8666 152.316 52.5972 152.316C52.3279 152.316 52.0586 151.808 52.0586 151.143C52.0586 150.478 52.3001 149.952 52.5972 149.952C52.8944 149.952 53.108 150.497 53.108 151.143Z" fill="#263238"/>
<path d="M60.0269 149.961C60.3241 149.961 60.5656 150.487 60.5656 151.143C60.5656 151.799 60.3241 152.317 60.0269 152.317C59.7297 152.317 59.4883 151.79 59.4883 151.143C59.4883 150.497 59.7297 149.961 60.0269 149.961Z" fill="#263238"/>
<path d="M49.6533 148.234C49.6533 148.234 50.582 146.386 53.8697 146.95" stroke="#263238" stroke-linecap="round" stroke-linejoin="round"/>
<path d="M63.0816 148.234C63.0816 148.234 62.1529 146.386 58.8652 146.95" stroke="#263238" stroke-linecap="round" stroke-linejoin="round"/>
<path d="M56.998 155.66C57.3321 155.64 57.6505 155.513 57.9064 155.298C58.1622 155.083 58.3419 154.793 58.419 154.469C58.419 154.469 56.6173 151.698 57.1652 148.982" stroke="#263238" stroke-linecap="round" stroke-linejoin="round"/>
<path d="M45.7801 142.442C45.0318 143.452 44.4661 144.583 44.1084 145.786" stroke="#FFC3BD" stroke-linecap="round" stroke-linejoin="round"/>
<path d="M53.5439 135.052C53.5439 135.052 52.513 136.751 47.9716 140.215C47.6789 140.426 47.3998 140.654 47.1357 140.899" stroke="#FFC3BD" stroke-linecap="round" stroke-linejoin="round"/>
<path d="M38.9815 189.212C38.3623 197.994 37.7432 206.782 37.124 215.576V214.902" fill="#263238"/>
<path d="M38.9815 189.212C38.3623 197.994 37.7432 206.782 37.124 215.576V214.902" stroke="#263238" stroke-linecap="round" stroke-linejoin="round"/>
<path d="M97.6494 160.215C98.4889 159.888 99.3959 159.772 100.291 159.875C101.187 159.978 102.043 160.298 102.785 160.806C104.266 161.849 105.344 163.365 105.841 165.101C106.433 166.831 106.373 168.715 105.674 170.404C105.311 171.236 104.729 171.955 103.988 172.484C103.247 173.013 102.375 173.332 101.466 173.406C100.112 173.389 98.8026 172.917 97.7516 172.067C94.2782 169.48 92.5415 162.404 97.6494 160.215Z" fill="#FFC3BD" stroke="#263238" stroke-linecap="round" stroke-linejoin="round"/>
<path d="M105.339 130.719C105.339 130.83 105.339 131.56 105.404 131.689C105.729 133.112 106.416 136.668 104.679 137.389C105.339 139.726 106.955 154.996 106.741 162.783C106.685 165.111 106.277 167.873 104.178 168.871C100.639 170.543 97.2775 166.469 97.6769 163.282C98.2991 158.931 98.0855 154.497 98.6056 150.1C99.1721 145.536 100.212 140.862 99.07 136.4C98.7913 136.096 97.0082 132.576 96.4231 131.606C96.1606 131.192 95.9545 130.744 95.8102 130.276C95.5815 128.682 95.4698 127.073 95.4758 125.463C96.0052 124.465 96.6924 125.389 97.0546 126.045C97.35 126.845 97.4518 127.702 97.3518 128.548C97.3175 128.755 97.3466 128.968 97.4354 129.158C97.5134 129.267 97.6188 129.353 97.7412 129.408C97.8635 129.464 97.9983 129.486 98.1319 129.472C99.2743 129.306 99.2278 128.354 99.2093 127.625C99.2093 125.177 99.2093 122.729 99.2093 120.299C99.2093 119.893 99.3393 118.793 99.7293 118.757C100.119 118.72 100.704 119.034 100.76 120.336C100.825 121.805 100.825 126.331 100.825 126.331C100.862 126.369 100.908 126.396 100.958 126.41C101.009 126.425 101.062 126.426 101.113 126.415C101.206 126.415 101.243 126.248 101.28 126.156C101.828 123.883 102.385 121.611 102.933 119.339C102.998 119.071 103.398 118.516 103.686 118.516C104.373 118.516 104.391 119.311 104.429 119.542C104.67 120.761 102.952 125.786 102.664 126.932C102.664 127.135 102.664 127.44 102.878 127.384L105.571 121.98C105.696 121.665 105.892 121.382 106.145 121.154C106.398 120.927 106.701 120.761 107.029 120.669C107.074 120.655 107.123 120.655 107.168 120.669C107.217 120.697 107.256 120.739 107.28 120.789C107.54 121.251 107.28 121.888 107.131 122.396C106.983 122.904 104.967 126.636 104.252 128.142C104.15 128.354 103.983 128.835 104.187 129.066C104.391 129.297 104.763 128.853 104.912 128.548C105.367 127.625 105.794 126.756 106.212 125.851C106.342 125.583 106.537 125.204 106.843 125.269C108.654 125.657 106.082 129.435 105.339 130.719Z" fill="#FFC3BD" stroke="#263238" stroke-linecap="round" stroke-linejoin="round"/>
<path d="M100.343 129.925C101.278 130.661 102.09 131.541 102.748 132.53C103.073 133.027 103.29 133.586 103.386 134.171C103.482 134.756 103.454 135.355 103.305 135.929C103.26 136.079 103.201 136.224 103.129 136.363" fill="#FFC3BD"/>
<path d="M100.343 129.925C101.278 130.661 102.09 131.541 102.748 132.53C103.073 133.027 103.29 133.586 103.386 134.171C103.482 134.756 103.454 135.355 103.305 135.929C103.26 136.079 103.201 136.224 103.129 136.363" stroke="#263238" stroke-linecap="round" stroke-linejoin="round"/>
<path d="M74.1797 187.632C75.1625 189.604 75.8239 191.718 76.1393 193.895C76.4086 196.076 76.4922 197.784 74.997 203.909" stroke="#263238" stroke-linecap="round" stroke-linejoin="round"/>
<path d="M53.2192 138.128C53.0921 138.506 53.0602 138.908 53.1264 139.301C53.3026 139.795 53.6267 140.224 54.0551 140.53C57.0235 143.117 60.3438 145.275 63.918 146.941C64.3663 147.057 64.7549 147.335 65.0074 147.721C65.26 148.108 65.3584 148.574 65.2832 149.028V156.169C65.3289 156.905 65.2568 157.644 65.0696 158.358C64.5496 160.021 63.398 161.361 62.5621 162.894C61.7124 164.348 61.2818 166.007 61.3176 167.688C61.0855 165.924 67.2893 162.506 68.9702 155.559C69.2024 154.58 74.0317 148.751 71.1341 141.906C68.348 135.338 63.9645 132.512 62.4878 132.17C61.4855 131.878 60.4278 131.828 59.4022 132.024C58.3767 132.22 57.4129 132.657 56.5905 133.297C54.9676 134.499 53.7838 136.195 53.2192 138.128Z" fill="#263238" stroke="#263238" stroke-linecap="round" stroke-linejoin="round"/>
<path d="M59.302 158.146C58.7726 158.257 58.2339 158.359 57.6953 158.423C55.8379 158.654 53.8504 158.368 52.6338 157.019C52.7267 158.229 53.5625 162.802 56.0607 162.931C58.559 163.06 59.302 158.146 59.302 158.146Z" stroke="#263238" stroke-linecap="round" stroke-linejoin="round"/>
<path d="M56.8877 135.338C57.9589 137.757 59.6656 139.844 61.8285 141.379C63.398 142.497 65.1904 143.301 66.6299 144.576C68.4873 146.266 69.704 148.945 68.9888 151.374" stroke="#FFC3BD" stroke-linecap="round" stroke-linejoin="round"/>
<path d="M76.2978 172.658C74.5086 174.086 73.3304 176.136 73.0009 178.394C72.6806 180.346 72.9221 182.347 73.6974 184.168" stroke="#263238" stroke-linecap="round" stroke-linejoin="round"/>
<path d="M41.703 187.9C41.5544 190.32 40.0406 192.417 38.5732 194.366L41.703 187.9Z" fill="#263238"/>
<path d="M41.703 187.9C41.5544 190.32 40.0406 192.417 38.5732 194.366" stroke="#263238" stroke-linecap="round" stroke-linejoin="round"/>
<path d="M38.0801 206.403C38.8177 207.631 39.805 208.693 40.9788 209.52C42.1527 210.347 43.4871 210.922 44.8968 211.206" stroke="#263238" stroke-linecap="round" stroke-linejoin="round"/>
<path d="M73.6136 207.844C73.6136 207.844 71.1154 211.539 62.627 212.315" stroke="#263238" stroke-linecap="round" stroke-linejoin="round"/>
<path d="M322.276 175.466C322.276 175.466 289.911 185.442 283.818 177.563L284.645 137.37H289.558L295.334 165.683L321.858 160.852C321.858 160.852 325.258 171.327 322.276 175.466Z" fill="#6B006D"/>
<path d="M308.643 176.87C306.787 177.604 305.016 178.533 303.358 179.642C305.55 180.334 307.891 179.457 310.082 178.764C312.977 177.88 315.927 177.189 318.914 176.695C319.054 175.873 317.986 173.997 317.568 173.268C316.806 171.993 316.639 171.882 315.357 172.51C313.026 173.674 311.039 175.697 308.643 176.87Z" fill="#6B006D"/>
<path d="M322.276 175.466C322.276 175.466 289.911 185.442 283.818 177.563L284.645 137.37H289.558L295.334 165.683L321.858 160.852C321.858 160.852 325.258 171.327 322.276 175.466Z" stroke="#263238" stroke-linecap="round" stroke-linejoin="round"/>
<path d="M319.099 176.519L324.783 211.327C324.635 233.885 335.454 230.495 342.967 230.43C351.651 230.356 364.829 221.793 358.366 208.463L360.854 160.215L345.726 159.069C340.739 158.681 320.307 159.319 318.682 161.915C314.465 168.649 319.099 176.519 319.099 176.519Z" fill="#6B006D"/>
<path d="M319.992 179.392C323.367 192.094 331.463 203.048 342.643 210.042C341.433 209.852 340.25 209.514 339.123 209.036C337.989 208.55 336.719 208.481 335.538 208.842C335.253 208.944 334.991 209.101 334.768 209.304C334.544 209.507 334.362 209.752 334.234 210.025C334.105 210.298 334.032 210.593 334.018 210.894C334.005 211.195 334.051 211.496 334.155 211.779C334.425 212.212 334.794 212.576 335.232 212.841C337.076 214.131 339.092 215.157 341.222 215.89C339.354 215.699 337.467 215.843 335.65 216.315C335.315 217.922 337.117 219.086 338.538 219.871C340.805 221.201 342.747 223.015 344.222 225.183C339.235 225.194 334.253 225.477 329.297 226.033C328.644 226.178 327.961 226.114 327.347 225.848C326.704 225.372 326.272 224.667 326.14 223.88C325.035 220.037 324.393 216.078 324.227 212.084C324.134 209.839 324.227 207.576 323.929 205.35C323.69 203.595 323.362 201.853 322.945 200.131C321.502 193.467 320.397 186.751 319.629 179.983C319.286 180.011 319.992 179.392 319.992 179.392Z" fill="#6B006D"/>
<path d="M358.357 176.621C357.104 176.221 355.936 175.595 354.911 174.773C355.199 176.159 357.279 178.552 358.496 179.291C358.747 179.448 359.109 179.577 359.332 179.365C359.555 179.152 359.703 178.607 359.926 178.441L358.357 176.621Z" fill="#6B006D"/>
<path d="M319.099 176.519L324.783 211.327C324.635 233.885 335.454 230.495 342.967 230.43C351.651 230.356 364.829 221.793 358.366 208.463L360.854 160.215L345.726 159.069C340.739 158.681 320.307 159.319 318.682 161.915C314.465 168.649 319.099 176.519 319.099 176.519Z" stroke="#263238" stroke-linecap="round" stroke-linejoin="round"/>
<path d="M330.161 158.358C328.533 161.323 327.75 164.673 327.895 168.048C327.893 168.343 327.95 168.635 328.062 168.907C328.48 169.729 329.622 169.729 330.542 169.831C334.117 170.284 336.337 174.034 339.708 175.29C339.826 175.363 339.958 175.411 340.095 175.432C340.233 175.452 340.373 175.445 340.507 175.411C340.642 175.376 340.768 175.315 340.878 175.231C340.988 175.147 341.08 175.041 341.148 174.921C342.615 173.073 343.135 170.478 345.141 169.286C346.014 168.769 347.119 168.556 347.723 167.743C348.41 166.82 348.104 165.489 347.77 164.362C347.222 162.515 346.609 160.593 345.188 159.309C343.674 158.134 341.814 157.485 339.894 157.462C337.084 157.233 334.255 157.496 331.536 158.238C331.573 158.589 330.161 158.358 330.161 158.358Z" fill="#6B006D" stroke="#263238" stroke-linecap="round" stroke-linejoin="round"/>
<path d="M375.111 181.978C372.841 178.691 371.169 175.033 370.17 171.17C369.806 169.235 369.24 167.344 368.48 165.526C367.763 164.122 366.728 162.903 365.456 161.965C364.185 161.028 362.711 160.397 361.152 160.122C360.487 159.976 359.795 160.008 359.146 160.214C357.8 160.723 357.205 162.265 356.936 163.669C356.353 166.685 356.525 169.797 357.437 172.731C358.06 174.727 365.536 189.193 370.439 194.8C370.012 191.973 373.281 182.523 375.111 181.978Z" fill="#263238"/>
<path d="M360.446 179.142L365.034 187.743C365.693 188.971 366.436 190.283 367.718 190.819C366.911 187.977 366.453 185.049 366.352 182.098C366.403 180.616 366.231 179.134 365.842 177.701C365.656 177.858 365.461 177.193 365.461 177.193C365.257 177.572 364.718 177.581 364.3 177.498C361.3 176.87 359.238 174.21 357.455 171.734C357.223 172.563 357.186 173.435 357.347 174.28C357.509 175.126 357.863 175.924 358.384 176.611C358.384 176.611 360.297 178.856 360.446 179.142Z" fill="#6B006D"/>
<path d="M375.111 181.978C372.841 178.691 371.169 175.033 370.17 171.17C369.806 169.235 369.24 167.344 368.48 165.526C367.763 164.122 366.728 162.903 365.456 161.965C364.185 161.028 362.711 160.397 361.152 160.122C360.487 159.976 359.795 160.008 359.146 160.214C357.8 160.723 357.205 162.265 356.936 163.669C356.353 166.685 356.525 169.797 357.437 172.731C358.06 174.727 365.536 189.193 370.439 194.8C370.012 191.973 373.281 182.523 375.111 181.978Z" stroke="#263238" stroke-linecap="round" stroke-linejoin="round"/>
<path d="M368.666 192.324C363.669 182.8 366.084 160.852 365.935 157.323L372.529 156.972C373.188 156.972 376.244 175.687 378.324 183.456C380.182 190.532 378.399 197.691 375.111 197.691C372.38 197.691 369.715 194.329 368.666 192.324Z" fill="#6B006D" stroke="#263238" stroke-linecap="round" stroke-linejoin="round"/>
<path d="M309.126 167.595C313.77 160.852 322.88 160.316 322.88 160.316" stroke="#263238" stroke-linecap="round" stroke-linejoin="round"/>
<path d="M291.211 171.373C292.615 170.09 293.716 168.512 294.434 166.755L291.211 171.373Z" fill="#FFC3BD"/>
<path d="M291.211 171.373C292.615 170.09 293.716 168.512 294.434 166.755" stroke="#263238" stroke-linecap="round" stroke-linejoin="round"/>
<path d="M325.713 203.243C328.36 207.557 345.504 212.167 352.339 211.178" stroke="#263238" stroke-linecap="round" stroke-linejoin="round"/>
<path d="M330.562 215.418C335.5 216.264 340.562 216.072 345.421 214.855" stroke="#263238" stroke-linecap="round" stroke-linejoin="round"/>
<path d="M353.304 173.563L356.573 177.97C357.019 178.57 357.641 179.244 358.375 179.078" stroke="#263238" stroke-linecap="round" stroke-linejoin="round"/>
<path d="M377.599 340.708C377.311 341.882 377.218 343.276 378.063 344.154C378.909 345.032 380.134 345.013 381.277 344.995L385.205 344.921C386.72 344.996 388.234 344.76 389.654 344.228C390.364 343.953 390.972 343.469 391.395 342.839C391.819 342.21 392.038 341.466 392.022 340.708C391.925 340.123 391.737 339.555 391.465 339.027C391.112 338.27 390.759 337.503 390.415 336.745C386.078 327.24 379.457 333.023 377.599 340.708Z" fill="#6B006D" stroke="#263238" stroke-linecap="round" stroke-linejoin="round"/>
<path d="M372.065 329.503C372.202 333.866 371.834 338.23 370.969 342.51C370.764 343.479 370.969 344.948 371.897 344.856C372.262 344.8 372.592 344.613 372.826 344.329C376.24 340.98 378.681 336.777 379.894 332.163C380.076 331.684 380.161 331.174 380.143 330.661C380.126 330.149 380.006 329.646 379.792 329.18C379.537 328.806 379.223 328.475 378.863 328.2C375.715 325.697 371.777 323.212 372.065 329.503Z" fill="#6B006D" stroke="#263238" stroke-linecap="round" stroke-linejoin="round"/>
<path d="M361.283 217.848C361.283 217.848 366.177 226.31 367.226 228.277C368.276 230.245 390.444 259.223 394.698 280.322C395.496 284.331 379.142 329.17 379.142 329.17L375.427 327.083C375.427 327.083 378.009 286.188 377.377 282.788C376.746 279.389 360.428 254.3 360.428 254.3C360.428 254.3 351.317 247.639 347.565 239.898L361.283 217.848Z" fill="#263238"/>
<path d="M361.812 239.048C361.812 239.048 359.025 245.219 359.025 246.106C359.025 246.993 374.349 295.158 378.853 306.298C381.702 313.473 384.212 320.814 386.385 328.321C386.385 328.321 388.131 330.602 386.813 332.939C385.494 335.277 380.247 336.81 379.169 334.722C378.092 332.635 367.477 321.79 363 311C358.524 300.211 352.227 282.179 348.642 275.463C343.947 266.882 339.779 258.025 336.16 248.942C331.656 237.478 327.05 225.118 327.05 225.118C328.921 225.286 330.8 225.338 332.678 225.275C337.099 225.125 341.476 224.354 345.68 222.984C355.468 219.714 359.703 213.451 359.703 213.451C359.703 213.451 362.127 219.982 362.759 221.247L361.812 239.048Z" fill="#263238"/>
<path d="M393.063 284.451C392.103 286.086 390.813 287.505 389.273 288.617" stroke="#FFC3BD" stroke-linecap="round" stroke-linejoin="round"/>
<path d="M394.262 281.763C394.123 282.213 393.955 282.655 393.761 283.084" stroke="#FFC3BD" stroke-linecap="round" stroke-linejoin="round"/>
<path d="M352.962 224.656C355.432 228.887 357.745 234.975 357.373 239.852C357.174 240.738 356.862 241.595 356.445 242.402" stroke="#FFC3BD" stroke-linecap="round" stroke-linejoin="round"/>
<path d="M338.009 229.358C338.278 231.714 338.64 235.631 338.12 237.94C337.681 240.302 336.318 242.395 334.331 243.76" stroke="#FFC3BD" stroke-linecap="round" stroke-linejoin="round"/>
<path d="M359.072 220.444C359.612 221.113 360.05 221.856 360.372 222.652C361.001 223.794 361.866 224.791 362.91 225.577C363.953 226.364 365.152 226.922 366.428 227.215" stroke="#FFC3BD" stroke-linecap="round" stroke-linejoin="round"/>
<path d="M351.187 229.885C354.465 237.016 356.972 244.166 362.062 256.286" stroke="#FFC3BD" stroke-linecap="round" stroke-linejoin="round"/>
<path d="M349.441 226.236C349.72 226.79 349.989 227.345 350.259 227.899" stroke="#FFC3BD" stroke-linecap="round" stroke-linejoin="round"/>
<path d="M376.727 280.793C378.229 283.673 380.14 286.324 382.401 288.664" stroke="#FFC3BD" stroke-linecap="round" stroke-linejoin="round"/>
<path d="M378.279 283.454C379.263 287.974 381.06 292.28 383.582 296.165" stroke="#FFC3BD" stroke-linecap="round" stroke-linejoin="round"/>
<path d="M355.189 283.684C347.955 268.331 340.237 253.099 330.755 229.885" stroke="#FFC3BD" stroke-linecap="round" stroke-linejoin="round"/>
<path d="M356.824 288.146C356.647 287.611 356.462 287.075 356.267 286.53" stroke="#FFC3BD" stroke-linecap="round" stroke-linejoin="round"/>
<path d="M381.835 335.35C379.978 332.939 366.437 314.104 363.075 305.568C360.837 299.878 359.147 295.86 357.503 290.188" stroke="#FFC3BD" stroke-linecap="round" stroke-linejoin="round"/>
<path d="M376.727 299.102L383.163 317.919" stroke="#FFC3BD" stroke-linecap="round" stroke-linejoin="round"/>
<path d="M372.391 156.981L370.441 157.139C367.969 157.575 365.431 157.459 363.011 156.797C361.46 156.418 357.866 155.309 357.439 155.236C356.371 155.009 355.292 154.836 354.207 154.718C350.928 154.524 352.591 153.305 353.956 153.36C355.758 153.443 356.361 153.407 357.745 153.508C357.578 153.416 357.067 153.314 357.058 152.917C357.058 151.947 358.339 151.993 358.339 151.993C358.339 151.993 356.937 151.402 357.132 150.672C357.327 149.942 358.265 149.748 358.86 149.804C358.86 149.804 358.07 149.425 358.107 149.019C358.274 147.448 361.516 147.337 361.516 147.337C360.732 146.989 359.998 146.539 359.333 145.998C359.091 145.738 358.921 145.42 358.841 145.074C358.824 144.91 358.851 144.743 358.92 144.593C358.989 144.442 359.098 144.313 359.235 144.219C359.372 144.124 359.531 144.068 359.697 144.056C359.863 144.044 360.029 144.077 360.178 144.15C361.017 144.706 361.826 145.304 362.602 145.943C363.605 146.654 364.766 147.106 365.825 147.744C366.857 148.622 367.689 149.709 368.267 150.931C368.435 151.19 372.391 156.981 372.391 156.981Z" fill="#FFC3BD" stroke="#263238" stroke-linecap="round" stroke-linejoin="round"/>
<path d="M284.646 137.37V132.28C284.634 129.726 285.009 127.185 285.76 124.742C286.187 123.394 286.689 122.22 287.144 122.045C287.989 121.74 288.361 125.149 288.361 125.149C287.725 122.416 287.318 119.635 287.144 116.835C287.144 113.87 291.156 126.183 291.156 126.183L289.559 137.37H284.646Z" fill="#FFC3BD" stroke="#263238" stroke-linecap="round" stroke-linejoin="round"/>
<path d="M289.492 129.093C289.977 128.72 290.34 128.212 290.532 127.633L289.492 129.093Z" fill="#FFC3BD"/>
<path d="M289.492 129.093C289.977 128.72 290.34 128.212 290.532 127.633" stroke="#263238" stroke-linecap="round" stroke-linejoin="round"/>
<path d="M328.388 147.984C330.122 150.889 331.081 154.186 331.174 157.563C331.341 163.18 337.879 171.041 339.746 171.42C341.613 171.798 343.34 162.552 343.256 159.753C343.173 156.954 342.133 149.222 342.133 149.222C342.133 149.222 333.189 142.497 328.388 147.984Z" fill="#FFC3BD" stroke="#263238" stroke-linecap="round" stroke-linejoin="round"/>
<path d="M331.017 155.42C331.017 155.42 339.589 167.05 342.951 155.226C346.313 143.402 333.524 158.459 331.017 155.42Z" fill="#263238"/>
<path d="M345.485 147.06C345.03 153.961 341.863 157.841 338.213 158.524C334.879 159.134 330.004 155.753 327.57 150.737C327.385 150.617 324.422 148.575 323.716 148.077C323.347 147.82 323.047 147.478 322.84 147.081C322.633 146.684 322.526 146.242 322.527 145.795C322.551 145.365 322.703 144.953 322.965 144.61C323.226 144.268 323.585 144.011 323.995 143.873H324.078C324.496 143.783 324.932 143.815 325.332 143.966C324.719 141.61 324.218 139.218 323.837 136.807C324.013 131.264 325.861 126.738 331.805 126.294C337.749 125.851 342.718 129.158 342.95 131.541C343.117 133.389 343.721 138.275 344.259 143.328C344.408 144.64 345.587 145.508 345.485 147.06Z" fill="#FFC3BD" stroke="#263238" stroke-linecap="round" stroke-linejoin="round"/>
<path d="M342.95 139.079C342.95 139.079 339.123 137.333 339.774 143.005C339.904 144.123 341.993 145.776 341.993 145.776C341.993 145.776 341.455 147.448 340.461 147.448" fill="#FFC3BD"/>
<path d="M342.95 139.079C342.95 139.079 339.123 137.333 339.774 143.005C339.904 144.123 341.993 145.776 341.993 145.776C341.993 145.776 341.455 147.448 340.461 147.448" stroke="#263238" stroke-linecap="round" stroke-linejoin="round"/>
<path d="M335.558 141.019C335.558 141.019 333.608 139.836 332.27 140.566C331.573 140.868 330.979 141.366 330.562 141.998" fill="#FFC3BD"/>
<path d="M335.558 141.019C335.558 141.019 333.608 139.836 332.27 140.566C331.573 140.868 330.979 141.366 330.562 141.998" stroke="#263238" stroke-linecap="round" stroke-linejoin="round"/>
<path d="M334.443 144.289C334.592 144.973 334.443 145.582 334.044 145.666C333.644 145.749 333.254 145.25 333.115 144.566C332.976 143.883 333.115 143.273 333.524 143.19C333.932 143.107 334.304 143.596 334.443 144.289Z" fill="#263238"/>
<path d="M341.984 142.293C342.133 142.977 341.984 143.587 341.585 143.67C341.185 143.753 340.795 143.254 340.656 142.58C340.517 141.905 340.656 141.277 341.055 141.203C341.455 141.13 341.845 141.619 341.984 142.293Z" fill="#263238"/>
<path d="M323.391 129.647C322.712 130.309 322.24 131.153 322.035 132.077C321.479 134.03 321.318 136.074 321.562 138.089C321.806 140.105 322.449 142.052 323.456 143.818C324.075 143.742 324.702 143.767 325.313 143.892C325.963 144.058 326.799 145.167 327.106 145.739C327.374 146.35 327.529 147.004 327.561 147.67C327.412 145.915 327.273 144.169 327.124 142.414C327.025 141.712 327.056 140.998 327.217 140.308C327.672 138.867 327.171 135.467 327.301 132.428C331.155 137.111 336.755 136.28 338.612 136.123C341.399 135.892 343.776 133.056 343.627 131.033C343.479 129.01 342.931 123.8 333.746 123.264C331.722 123.05 329.682 123.473 327.914 124.474C327.353 124.842 326.877 125.323 326.517 125.887C326.157 126.45 325.92 127.084 325.824 127.744C325.694 128.594 326.019 128.668 325.369 129.084C324.719 129.5 324.032 129.102 323.391 129.647Z" fill="#263238" stroke="#263238" stroke-linecap="round" stroke-linejoin="round"/>
<path d="M335.557 150.7C335.557 150.7 336.922 152.196 339.773 151.208L335.557 150.7Z" fill="#FFC3BD"/>
<path d="M335.557 150.7C335.557 150.7 336.922 152.196 339.773 151.208" stroke="#263238" stroke-linecap="round" stroke-linejoin="round"/>
</svg>
