<svg width="24" height="24" viewBox="0 0 24 24" fill="none" xmlns="http://www.w3.org/2000/svg">
<path d="M7.125 2C5.95139 2 5 2.95139 5 4.125C5 5.2986 5.95139 6.25 7.125 6.25C8.2986 6.25 9.25 5.2986 9.25 4.125C9.25 2.95139 8.2986 2 7.125 2Z" fill="white"/>
<path d="M5.125 8C5.05596 8 5 8.05596 5 8.125V21.125C5 21.194 5.05596 21.25 5.125 21.25H9.125C9.19404 21.25 9.25 21.194 9.25 21.125V8.125C9.25 8.05596 9.19404 8 9.125 8H5.125Z" fill="white"/>
<path d="M11.625 8C11.556 8 11.5 8.05596 11.5 8.125V21.125C11.5 21.194 11.556 21.25 11.625 21.25H15.625C15.694 21.25 15.75 21.194 15.75 21.125V14.125C15.75 13.6277 15.9475 13.1508 16.2992 12.7992C16.6508 12.4475 17.1277 12.25 17.625 12.25C18.1223 12.25 18.5992 12.4475 18.9508 12.7992C19.3025 13.1508 19.5 13.6277 19.5 14.125V21.125C19.5 21.194 19.556 21.25 19.625 21.25H23.625C23.694 21.25 23.75 21.194 23.75 21.125V12.5052C23.75 10.0785 21.6394 8.17999 19.2248 8.3995C18.4802 8.46719 17.744 8.65231 17.0565 8.94694L15.75 9.50686V8.125C15.75 8.05596 15.694 8 15.625 8H11.625Z" fill="white"/>
</svg>
