<svg width="24" height="24" viewBox="0 0 24 24" fill="none" xmlns="http://www.w3.org/2000/svg">
<path d="M17.4992 8.999C16.604 8.99862 15.7226 9.22006 14.9338 9.64353C14.8618 9.45396 14.7339 9.29077 14.567 9.17564C14.4 9.06052 14.202 8.99891 13.9992 8.999H9.99924C9.8679 8.99893 9.73783 9.02474 9.61647 9.07497C9.49511 9.1252 9.38484 9.19885 9.29197 9.29173C9.19909 9.3846 9.12543 9.49487 9.07521 9.61623C9.02498 9.73759 8.99916 9.86766 8.99924 9.999V21.999C8.99916 22.1303 9.02498 22.2604 9.0752 22.3818C9.12543 22.5031 9.19909 22.6134 9.29196 22.7063C9.38483 22.7992 9.4951 22.8728 9.61646 22.923C9.73782 22.9733 9.8679 22.9991 9.99924 22.999H13.9992C14.1306 22.9991 14.2607 22.9733 14.382 22.923C14.5034 22.8728 14.6136 22.7992 14.7065 22.7063C14.7994 22.6134 14.873 22.5031 14.9233 22.3818C14.9735 22.2604 14.9993 22.1303 14.9992 21.999V16.499C14.9992 16.2338 15.1046 15.9794 15.2921 15.7919C15.4797 15.6044 15.734 15.499 15.9992 15.499C16.2645 15.499 16.5188 15.6044 16.7063 15.7919C16.8939 15.9794 16.9992 16.2338 16.9992 16.499V21.999C16.9992 22.1303 17.025 22.2604 17.0752 22.3818C17.1254 22.5031 17.1991 22.6134 17.292 22.7063C17.3848 22.7992 17.4951 22.8728 17.6165 22.923C17.7378 22.9733 17.8679 22.9991 17.9992 22.999H21.9992C22.1306 22.9991 22.2607 22.9733 22.382 22.923C22.5034 22.8728 22.6136 22.7992 22.7065 22.7063C22.7994 22.6134 22.873 22.5031 22.9233 22.3818C22.9735 22.2604 22.9993 22.1303 22.9992 21.999V14.499C22.9974 13.0409 22.4174 11.643 21.3863 10.6119C20.3553 9.58086 18.9574 9.00081 17.4992 8.999ZM20.9992 20.999H18.9992V16.499C18.9992 15.7034 18.6832 14.9403 18.1206 14.3777C17.558 13.8151 16.7949 13.499 15.9992 13.499C15.2036 13.499 14.4405 13.8151 13.8779 14.3777C13.3153 14.9403 12.9992 15.7034 12.9992 16.499V20.999H10.9992V10.999H12.9992V11.7021C12.9994 11.9093 13.0638 12.1114 13.1837 12.2804C13.3036 12.4494 13.473 12.577 13.6685 12.6456C13.864 12.7142 14.076 12.7204 14.2752 12.6634C14.4744 12.6063 14.6509 12.4888 14.7805 12.3271C15.2293 11.7572 15.8448 11.3416 16.5412 11.1384C17.2376 10.9352 17.9801 10.9545 18.665 11.1937C19.3498 11.4329 19.9429 11.88 20.3614 12.4726C20.7799 13.0651 21.0029 13.7736 20.9992 14.499V20.999ZM6.99924 8.999H2.99924C2.8679 8.99893 2.73783 9.02474 2.61647 9.07497C2.49511 9.1252 2.38484 9.19885 2.29196 9.29173C2.19909 9.3846 2.12543 9.49487 2.07521 9.61623C2.02498 9.73759 1.99916 9.86766 1.99924 9.999V21.999C1.99916 22.1303 2.02498 22.2604 2.0752 22.3818C2.12543 22.5031 2.19909 22.6134 2.29196 22.7063C2.38484 22.7992 2.4951 22.8728 2.61646 22.923C2.73782 22.9733 2.8679 22.9991 2.99924 22.999H6.99924C7.13058 22.9991 7.26065 22.9733 7.38201 22.923C7.50337 22.8728 7.61364 22.7992 7.70652 22.7063C7.79939 22.6134 7.87305 22.5031 7.92327 22.3818C7.9735 22.2604 7.99931 22.1303 7.99924 21.999V9.999C7.99931 9.86766 7.9735 9.73759 7.92327 9.61623C7.87304 9.49487 7.79939 9.3846 7.70651 9.29173C7.61364 9.19885 7.50337 9.1252 7.38201 9.07497C7.26065 9.02474 7.13058 8.99893 6.99924 8.999ZM5.99924 20.999H3.99924V10.999H5.99924V20.999ZM5.01389 1.542C4.57625 1.5158 4.13785 1.5789 3.72536 1.72745C3.31288 1.87599 2.93491 2.10689 2.61446 2.40609C2.294 2.7053 2.03775 3.06656 1.8613 3.4679C1.68484 3.86924 1.59186 4.30229 1.58802 4.74069C1.58417 5.1791 1.66954 5.61371 1.83892 6.01808C2.00831 6.42246 2.25818 6.78816 2.57334 7.09294C2.88849 7.39772 3.26235 7.63522 3.67217 7.79098C4.08199 7.94674 4.51921 8.01752 4.95724 7.999H4.98556C5.42436 8.02506 5.86386 7.96138 6.27721 7.81185C6.69057 7.66232 7.06909 7.43007 7.38966 7.12931C7.71022 6.82854 7.9661 6.46557 8.14165 6.06258C8.31719 5.65958 8.40873 5.22503 8.41066 4.78546C8.41258 4.34589 8.32486 3.91055 8.15286 3.50603C7.98085 3.10151 7.72817 2.73631 7.41026 2.43275C7.09234 2.12918 6.71587 1.89363 6.30384 1.74047C5.89182 1.58732 5.45289 1.51979 5.01388 1.542H5.01389ZM4.98557 5.999H4.95724C4.78431 6.02 4.60888 6.00378 4.44273 5.95143C4.27658 5.89908 4.12354 5.81181 3.99388 5.69547C3.86422 5.57912 3.76094 5.4364 3.69095 5.27688C3.62097 5.11735 3.5859 4.9447 3.58811 4.77051C3.58811 4.02441 4.14768 3.54199 5.01389 3.54199C5.18859 3.5187 5.36625 3.53312 5.5349 3.58428C5.70356 3.63543 5.8593 3.72213 5.99162 3.83854C6.12395 3.95495 6.22979 4.09837 6.30203 4.25913C6.37426 4.41989 6.4112 4.59427 6.41037 4.77051C6.41037 5.5166 5.8508 5.999 4.98557 5.999Z" fill="black"/>
</svg>
