<svg width="24" height="24" viewBox="0 0 24 24" fill="none" xmlns="http://www.w3.org/2000/svg">
<path d="M22.9904 3.9502C22.9906 3.77357 22.9439 3.60006 22.8551 3.44734C22.7663 3.29463 22.6387 3.16816 22.4852 3.08083C22.3316 2.99349 22.1577 2.94841 21.9811 2.95016C21.8045 2.95192 21.6315 3.00045 21.4797 3.09082C20.8944 3.4392 20.2642 3.706 19.6067 3.88382C18.6677 3.07805 17.47 2.63712 16.2327 2.64163C14.8753 2.64319 13.5716 3.17222 12.5969 4.11701C11.6222 5.0618 11.0529 6.34839 11.0091 7.70511C8.33305 7.27837 5.9077 5.88163 4.19552 3.78125C4.09235 3.65608 3.9606 3.55756 3.81138 3.49399C3.66215 3.43043 3.49983 3.40368 3.3381 3.416C3.17646 3.42931 3.02049 3.48179 2.88369 3.56891C2.74689 3.65603 2.63336 3.77516 2.55294 3.916C2.14046 4.63581 1.90357 5.44276 1.86149 6.27131C1.8194 7.09985 1.97332 7.92665 2.31075 8.68455L2.3088 8.6865C2.15714 8.7799 2.03199 8.91065 1.9453 9.06625C1.85861 9.22184 1.8133 9.39707 1.81368 9.57518C1.81184 9.72211 1.82065 9.86897 1.84005 10.0146C1.94218 11.2729 2.49983 12.4507 3.40841 13.3271C3.34677 13.4446 3.30915 13.5731 3.29775 13.7052C3.28635 13.8373 3.30139 13.9704 3.342 14.0967C3.73811 15.3308 4.5805 16.3727 5.70431 17.0185C4.56255 17.46 3.32973 17.614 2.11446 17.4668C1.88953 17.4386 1.66169 17.4876 1.4683 17.6059C1.27492 17.7242 1.12748 17.9047 1.05017 18.1178C0.97286 18.3309 0.970267 18.5639 1.04282 18.7787C1.11537 18.9935 1.25875 19.1772 1.44946 19.2998C3.53955 20.6459 5.97313 21.3617 8.45923 21.3613C11.2785 21.393 14.0292 20.4921 16.2835 18.7988C18.5377 17.1054 20.1692 14.7145 20.924 11.998C21.2771 10.8146 21.4574 9.58647 21.4592 8.35156C21.4592 8.28613 21.4592 8.21875 21.4582 8.15137C21.9803 7.5883 22.3848 6.92667 22.6479 6.20527C22.911 5.48386 23.0275 4.71719 22.9904 3.9502ZM19.6838 7.16211C19.5186 7.35745 19.435 7.60891 19.4504 7.86426C19.4602 8.02926 19.4592 8.19526 19.4592 8.35156C19.4571 9.3951 19.3042 10.4329 19.0051 11.4326C18.3886 13.744 17.0142 15.7817 15.1022 17.2192C13.1901 18.6568 10.8509 19.4111 8.45923 19.3613C7.6001 19.3616 6.74394 19.2606 5.90845 19.0605C6.97386 18.7172 7.97004 18.1879 8.85083 17.4971C9.01305 17.3693 9.13178 17.1945 9.19071 16.9967C9.24965 16.7988 9.24591 16.5875 9.18 16.3918C9.11409 16.1961 8.98925 16.0257 8.82261 15.9038C8.65596 15.7818 8.45567 15.7145 8.24923 15.7109C7.41806 15.698 6.62436 15.363 6.03536 14.7764C6.18478 14.748 6.33322 14.7129 6.48068 14.6709C6.69669 14.6094 6.88572 14.477 7.01734 14.295C7.14895 14.1131 7.2155 13.8921 7.20625 13.6677C7.197 13.4433 7.1125 13.2285 6.96636 13.058C6.82022 12.8874 6.62093 12.771 6.4006 12.7275C5.91813 12.6323 5.46414 12.427 5.07391 12.1277C4.68368 11.8284 4.36772 11.4432 4.1506 11.0019C4.33133 11.0266 4.51321 11.0419 4.69552 11.0478C4.9121 11.0511 5.12411 10.9854 5.30089 10.8603C5.47767 10.7351 5.61006 10.5569 5.67892 10.3516C5.7449 10.1443 5.7415 9.92122 5.66925 9.71609C5.59699 9.51096 5.45982 9.33498 5.27853 9.21484C4.83867 8.92181 4.47837 8.52426 4.22988 8.05779C3.9814 7.59133 3.85248 7.07052 3.8547 6.542C3.8547 6.4756 3.85665 6.40919 3.86056 6.34376C6.10182 8.43401 9.00888 9.66621 12.0696 9.82325C12.2241 9.82934 12.3779 9.80024 12.5195 9.73815C12.6611 9.67606 12.7868 9.58261 12.8869 9.46485C12.9861 9.34595 13.0564 9.20566 13.0921 9.05501C13.1278 8.90436 13.1281 8.74747 13.0929 8.59669C13.0358 8.35805 13.0066 8.11356 13.006 7.86817C13.0069 7.0127 13.3472 6.19254 13.9521 5.58763C14.557 4.98273 15.3772 4.6425 16.2326 4.6416C16.6728 4.64042 17.1084 4.7305 17.5119 4.90614C17.9155 5.08179 18.2783 5.3392 18.5773 5.66211C18.6927 5.78619 18.8378 5.8787 18.999 5.93084C19.1602 5.98298 19.3321 5.99302 19.4982 5.96C19.909 5.88005 20.3139 5.77239 20.7101 5.63774C20.4399 6.19071 20.0945 6.70368 19.6838 7.16211Z" fill="black"/>
</svg>
