<svg width="21" height="21" viewBox="0 0 21 21" fill="none" xmlns="http://www.w3.org/2000/svg">
<path fill-rule="evenodd" clip-rule="evenodd" d="M7.21875 10.5C7.21875 8.68782 8.68782 7.21875 10.5 7.21875C12.3122 7.21875 13.7812 8.68782 13.7812 10.5C13.7812 12.3122 12.3122 13.7812 10.5 13.7812C8.68782 13.7812 7.21875 12.3122 7.21875 10.5ZM10.5 8.53125C9.41269 8.53125 8.53125 9.41269 8.53125 10.5C8.53125 11.5873 9.41269 12.4688 10.5 12.4688C11.5873 12.4688 12.4688 11.5873 12.4688 10.5C12.4688 9.41269 11.5873 8.53125 10.5 8.53125Z" fill="black"/>
<path fill-rule="evenodd" clip-rule="evenodd" d="M3.783 9.31556C3.41627 9.844 3.28125 10.2574 3.28125 10.5C3.28125 10.7426 3.41627 11.156 3.783 11.6844C4.1375 12.1953 4.66443 12.749 5.33109 13.2607C6.66731 14.2862 8.49927 15.0938 10.5 15.0938C12.5007 15.0938 14.3327 14.2862 15.6689 13.2607C16.3356 12.749 16.8625 12.1953 17.217 11.6844C17.5837 11.156 17.7188 10.7426 17.7188 10.5C17.7188 10.2574 17.5837 9.844 17.217 9.31556C16.8625 8.80474 16.3356 8.251 15.6689 7.73935C14.3327 6.71381 12.5007 5.90625 10.5 5.90625C8.49927 5.90625 6.66731 6.71381 5.33109 7.73935C4.66443 8.251 4.1375 8.80474 3.783 9.31556ZM4.53198 6.69815C6.04595 5.53619 8.15149 4.59375 10.5 4.59375C12.8485 4.59375 14.9541 5.53619 16.468 6.69815C17.2265 7.28025 17.8528 7.92964 18.2953 8.56725C18.7255 9.18725 19.0312 9.86764 19.0312 10.5C19.0312 11.1324 18.7255 11.8128 18.2953 12.4327C17.8528 13.0704 17.2265 13.7198 16.468 14.3018C14.9541 15.4638 12.8485 16.4062 10.5 16.4062C8.15149 16.4062 6.04595 15.4638 4.53198 14.3018C3.77355 13.7198 3.14721 13.0704 2.70472 12.4327C2.27445 11.8128 1.96875 11.1324 1.96875 10.5C1.96875 9.86764 2.27445 9.18725 2.70472 8.56725C3.14721 7.92964 3.77355 7.28025 4.53198 6.69815Z" fill="black"/>
</svg>
