<svg width="250" height="191" viewBox="0 0 250 191" fill="none" xmlns="http://www.w3.org/2000/svg">
<path opacity="0.8" d="M60.351 184.782C60.351 184.782 86.0073 198.119 115.329 184.059C144.65 169.998 154.194 142.733 169.386 122.277C177.356 111.557 190.394 105.585 200.341 96.5718C232.142 67.7472 220.66 19.5587 191.574 6.33456C166.381 -5.1136 137.28 -1.01056 101.224 18.3682C65.1674 37.7469 39.1864 50.2577 20.2554 88.8774C1.32436 127.497 28.4516 166.092 60.351 184.782Z" fill="#F0F0F0"/>
<path d="M186.333 15.0237C182.203 15.026 178.168 16.2683 174.752 18.5897C171.336 20.9112 168.695 24.2048 167.172 28.0442C165.649 31.8835 165.314 36.0916 166.21 40.1236C167.106 44.1557 169.192 47.8258 172.197 50.6588L169.411 60.4159L179.265 55.0276C182.097 56.0596 185.12 56.4588 188.122 56.1973C191.124 55.9359 194.033 55.02 196.643 53.5141C199.253 52.0082 201.502 49.9489 203.231 47.4808C204.961 45.0128 206.128 42.1959 206.652 39.2282C207.177 36.2606 207.044 33.2141 206.265 30.3031C205.486 27.392 204.078 24.687 202.141 22.3781C200.205 20.0693 197.786 18.2126 195.055 16.9387C192.324 15.6648 189.347 15.0045 186.333 15.0042V15.0237Z" fill="#F5F5F5"/>
<path d="M186.333 15.0235C186.333 15.0235 186.454 15.0235 186.702 15.0235L187.78 15.0672C188.018 15.0672 188.265 15.0672 188.576 15.1109L189.547 15.2517C189.891 15.3099 190.265 15.3439 190.658 15.4313L191.896 15.742C196.89 17.0904 201.185 20.2868 203.91 24.6835L204.551 25.7369C204.736 26.1058 204.92 26.4845 205.105 26.8679C206.279 29.3148 206.94 31.9762 207.046 34.6882C207.096 35.659 207.08 36.6321 206.998 37.6007C206.964 38.0862 206.862 38.5716 206.794 39.057C206.755 39.3046 206.721 39.5424 206.682 39.7997L206.493 40.5375C206.019 42.5757 205.221 44.5244 204.129 46.3093C201.805 50.1926 198.274 53.2085 194.076 54.8965C189.552 56.6834 184.551 56.8548 179.916 55.3819L179.246 55.1489H179.348C175.989 56.9886 172.693 58.7944 169.494 60.5371L169.236 60.6827L169.314 60.3963C170.285 57.0323 171.212 53.7703 172.105 50.6393L172.139 50.7606C170.857 49.5402 169.729 48.1676 168.78 46.6733C167.881 45.2305 167.158 43.6856 166.625 42.0715C166.127 40.5247 165.813 38.9248 165.688 37.3046C165.649 36.9114 165.635 36.5182 165.63 36.1299C165.608 35.7418 165.608 35.3529 165.63 34.9649C165.642 34.2054 165.708 33.4478 165.829 32.6979C166.239 29.9107 167.217 27.2374 168.702 24.8437C169.972 22.7927 171.582 20.9737 173.464 19.4652L174.746 18.4943L176.042 17.7079C176.445 17.4586 176.865 17.238 177.299 17.0478C177.717 16.8585 178.105 16.64 178.513 16.4944C179.867 15.9556 181.272 15.557 182.707 15.3051L184.27 15.0769L185.416 15.0284H186.12H186.357H186.12L185.421 15.0769L184.275 15.1449L182.722 15.3876C181.296 15.6527 179.9 16.0609 178.557 16.606C178.154 16.7517 177.77 16.975 177.358 17.1643C176.926 17.3582 176.508 17.5803 176.105 17.8293L174.804 18.6206L173.557 19.5914C171.697 21.09 170.108 22.896 168.858 24.9311C167.401 27.3107 166.447 29.9641 166.057 32.727C165.94 33.4708 165.876 34.2218 165.863 34.9746C165.841 35.3577 165.841 35.7418 165.863 36.125C165.863 36.5085 165.863 36.8969 165.921 37.2901C166.051 38.8905 166.365 40.4705 166.858 41.9987C167.935 45.2722 169.814 48.2242 172.324 50.5859L172.377 50.6344L172.353 50.7072C171.465 53.8334 170.533 57.0954 169.576 60.4643L169.397 60.3187L179.246 54.9304L179.294 54.9013H179.353L180.018 55.1295C184.596 56.586 189.537 56.4145 194.003 54.644C198.154 52.9774 201.647 49.9993 203.949 46.1636C205.032 44.4001 205.825 42.4744 206.299 40.4599C206.362 40.2172 206.425 39.9745 206.483 39.7317L206.6 38.9939C206.663 38.5085 206.765 38.023 206.804 37.5376C206.884 36.5819 206.902 35.6219 206.857 34.6639C206.763 31.9723 206.117 29.3286 204.959 26.8971L204.415 25.7757L203.784 24.7321C202.262 22.2619 200.229 20.1452 197.823 18.5235C196.005 17.3033 194.005 16.3807 191.896 15.7905L190.663 15.4653C190.275 15.3779 189.901 15.3391 189.561 15.276L188.59 15.1255C188.299 15.0818 188.032 15.0866 187.799 15.0672L186.721 14.9993C186.454 15.0381 186.333 15.0235 186.333 15.0235Z" fill="#263238"/>
<path d="M181.809 32.8327H183.265L186.449 28.391V25.4785C186.449 25.4785 188.706 25.3426 188.44 29.158C188.173 32.9735 188.44 31.9977 188.44 31.9977C188.44 31.9977 193.226 31.9978 193.624 32.4346C193.915 32.7356 194.046 37.4928 194.109 40.0752C194.141 40.6969 193.963 41.3113 193.605 41.8205C193.247 42.3298 192.729 42.7048 192.134 42.8859C191.964 42.9296 191.789 42.9524 191.614 42.9538C190.42 42.9538 184.333 41.983 184.333 41.983H181.809V32.8327Z" fill="#263238"/>
<path d="M177.648 32.0315L178.546 42.0119H181.046V32.2305L177.648 32.0315Z" fill="#263238"/>
<path d="M61.1983 72.8777C61.1246 74.2695 59.3122 76.1252 59.8715 77.4C60.9034 79.75 60.3051 82.564 58.9697 84.7709C57.6342 86.9779 55.6354 88.6732 53.6712 90.3121C53.7704 86.8856 53.4721 83.4591 52.7824 80.1012C52.5656 79.0519 52.2101 77.8813 51.2518 77.4043C50.0075 76.7886 48.4292 77.6775 47.1545 77.1312C45.7974 76.5415 45.5242 74.6857 44.3795 73.7492C43.3433 72.9037 41.8214 72.9948 40.551 73.4197C39.2806 73.8446 38.1142 74.56 36.8092 74.8505C35.5041 75.141 33.9302 74.8808 33.2061 73.7535C32.7725 73.0598 33.0803 73.4847 32.6554 72.778C32.6554 72.778 30.1103 72.8647 29.2344 69.9033C29.2344 69.9033 28.0377 66.6124 30.6869 65.1599C30.6869 65.1599 31.2896 59.2111 37.2688 61.8863C39.0031 62.6581 41.0236 60.178 42.7016 61.0192C44.0977 61.7259 44.5096 63.6684 45.9058 64.3794C47.51 65.1946 49.3744 63.9805 51.1695 63.9068C52.3194 63.9068 53.4222 64.3636 54.2354 65.1768C55.0485 65.9899 55.5053 67.0927 55.5053 68.2427C55.5053 68.2427 55.7871 67.0546 57.7339 67.575C59.6807 68.0953 61.337 70.1635 61.1983 72.8777Z" fill="#263238"/>
<path d="M58.6602 82.4512C58.6976 81.7782 58.5727 81.106 58.296 80.4914C58.0445 79.9841 57.1036 78.8307 56.0717 78.757L56.2234 72.6305C56.2348 72.0225 56.0189 71.4322 55.6179 70.9751C55.2169 70.518 54.6598 70.227 54.0555 70.1591L42.0496 68.893C41.0682 68.7893 40.076 68.8852 39.1328 69.175C38.1895 69.4648 37.3145 69.9424 36.5607 70.5792C35.8068 71.216 35.1896 71.9987 34.7462 72.8803C34.3028 73.7619 34.0424 74.7241 33.9806 75.7089C33.6901 80.3266 33.5166 85.9762 34.0629 89.4189C35.1643 96.3562 40.4713 97.2234 40.4713 97.2234L40.3412 102.062C40.1375 107.218 43.9964 110.322 47.9767 110.322C51.957 110.322 55.6338 106.884 55.5167 101.78L55.9069 86.1713C56.5793 86.1093 57.2049 85.8003 57.6629 85.3042C58.323 84.5015 58.6765 83.4903 58.6602 82.4512Z" fill="#FFBE9D"/>
<path d="M36.6406 79.4682C36.6394 79.7014 36.7294 79.9258 36.8915 80.0936C37.0535 80.2613 37.2747 80.3589 37.5078 80.3657C37.7351 80.3789 37.9584 80.3021 38.1295 80.1521C38.3007 80.002 38.406 79.7906 38.4227 79.5636C38.4267 79.4472 38.4073 79.3312 38.3656 79.2224C38.3238 79.1137 38.2606 79.0145 38.1797 78.9307C38.0987 78.8469 38.0018 78.7803 37.8945 78.7349C37.7873 78.6894 37.672 78.666 37.5555 78.6661C37.3282 78.653 37.1049 78.7297 36.9338 78.8798C36.7626 79.0298 36.6573 79.2412 36.6406 79.4682Z" fill="#263238"/>
<path d="M35.1855 78.6483C35.2939 78.7654 35.966 78.2667 36.9199 78.2667C37.8738 78.2667 38.5762 78.748 38.6802 78.6309C38.7279 78.5789 38.6152 78.3708 38.3117 78.1497C37.8983 77.8626 37.4058 77.7111 36.9025 77.7161C36.4069 77.7082 35.9219 77.8603 35.5194 78.1497C35.2289 78.3881 35.1118 78.5963 35.1855 78.6483Z" fill="#263238"/>
<path d="M45.8672 79.6455C45.8649 79.879 45.9545 80.1041 46.1168 80.272C46.2791 80.44 46.5009 80.5373 46.7344 80.543C46.9617 80.5561 47.185 80.4794 47.3561 80.3293C47.5273 80.1792 47.6326 79.9679 47.6493 79.7409C47.6516 79.5073 47.562 79.2823 47.3997 79.1143C47.2374 78.9464 47.0156 78.849 46.7821 78.8433C46.5548 78.8302 46.3315 78.907 46.1604 79.057C45.9892 79.2071 45.8839 79.4184 45.8672 79.6455Z" fill="#263238"/>
<path d="M44.5815 78.8262C44.6899 78.9432 45.3619 78.4446 46.3158 78.4489C47.2697 78.4533 47.9721 78.9259 48.0762 78.8088C48.1239 78.7568 48.0155 78.5487 47.7076 78.3275C47.2942 78.0404 46.8018 77.8889 46.2985 77.894C45.8031 77.8882 45.3188 78.0401 44.9153 78.3275C44.6248 78.566 44.5251 78.7741 44.5815 78.8262Z" fill="#263238"/>
<path d="M41.1086 85.9155C40.6044 85.7595 40.0832 85.6649 39.5564 85.6337C39.3136 85.612 39.0838 85.5599 39.0404 85.3952C39.022 85.1428 39.0794 84.8907 39.2052 84.6711L39.9249 82.8197C40.9308 80.1705 41.6593 77.9939 41.5465 77.9549C41.4338 77.9159 40.5406 80.0274 39.539 82.6766C39.2962 83.327 39.0664 83.9514 38.8496 84.5454C38.6953 84.8397 38.6493 85.1788 38.7196 85.5036C38.7555 85.5895 38.8105 85.6661 38.8803 85.7277C38.9502 85.7893 39.0331 85.8342 39.1228 85.8591C39.2642 85.8976 39.4099 85.918 39.5564 85.9198C40.0718 85.9857 40.5936 85.9842 41.1086 85.9155Z" fill="#263238"/>
<path d="M40.4509 97.2278C43.7133 97.2766 46.9252 96.4195 49.7296 94.752C49.7296 94.752 47.3275 99.955 40.3945 99.3176L40.4509 97.2278Z" fill="#EB996E"/>
<path d="M44.1492 77.1527C44.2446 77.4129 45.1985 77.2915 46.3171 77.4259C47.4357 77.5603 48.3463 77.8595 48.485 77.634C48.5501 77.5213 48.394 77.2785 48.0298 77.027C47.5429 76.7129 46.9888 76.5183 46.4125 76.459C45.8396 76.3902 45.2585 76.4586 44.7172 76.6584C44.3183 76.8275 44.1102 77.0313 44.1492 77.1527Z" fill="#263238"/>
<path d="M35.0283 76.4243C35.1974 76.6411 35.8521 76.4243 36.6456 76.4243C37.439 76.4243 38.1068 76.5674 38.2629 76.3419C38.3322 76.2292 38.2238 76.0124 37.9333 75.8086C37.54 75.5639 37.0831 75.4412 36.6201 75.4559C36.1571 75.4705 35.7089 75.6219 35.3318 75.891C35.0457 76.0948 34.9546 76.3159 35.0283 76.4243Z" fill="#263238"/>
<path d="M41.3203 91.3267C41.3203 91.305 41.3853 91.1879 41.5805 91.0665C41.8429 90.9111 42.1427 90.8302 42.4476 90.8324C42.7516 90.8286 43.0511 90.9065 43.3148 91.0578C43.5099 91.1792 43.5966 91.292 43.5793 91.3136C43.2196 91.1791 42.8432 91.0945 42.4606 91.0622C42.0692 91.0916 41.6847 91.1808 41.3203 91.3267Z" fill="#EB996E"/>
<path d="M55.4336 84.2939C55.6601 84.2015 55.8802 84.0944 56.0926 83.973C56.3303 83.8173 56.5271 83.6069 56.6666 83.3595C56.8062 83.1121 56.8844 82.8348 56.8948 82.5509C56.8995 82.2652 56.8368 81.9824 56.7118 81.7255C56.5867 81.4686 56.4028 81.2449 56.175 81.0724C55.9785 80.9365 55.7527 80.8489 55.516 80.8166C55.4943 80.7905 55.8368 80.6735 56.2661 80.938C56.5363 81.1104 56.7579 81.3492 56.9097 81.6315C57.0615 81.9139 57.1384 82.2304 57.1332 82.5509C57.1278 82.9065 57.016 83.2523 56.8124 83.5438C56.6508 83.7787 56.4371 83.9731 56.188 84.1118C55.9678 84.2639 55.699 84.3288 55.4336 84.2939Z" fill="#EB996E"/>
<path d="M32.6555 67.2413C31.5369 70.233 34.1947 72.4009 36.2673 72.8779C39.1636 73.5543 42.2421 71.7245 44.2235 72.5006C45.7021 73.0816 47.0982 74.235 48.6678 73.9965C49.4309 73.8838 50.1853 73.4458 50.9268 73.6453C51.8763 73.9054 52.2622 75.0588 52.2275 76.043C52.2015 77.2571 51.7939 78.4624 51.9457 79.6678C52.0974 80.8731 53.1727 82.1175 54.3477 81.7967C54.8999 81.612 55.3833 81.2648 55.7345 80.8005C56.0858 80.3363 56.2886 79.7767 56.3162 79.1952C56.455 77.5259 56.1471 75.5401 56.2295 73.8664C56.3032 72.3922 56.3075 70.7706 55.3623 69.6303C54.4171 68.49 52.8215 68.1821 51.3517 67.9827C45.1526 67.1291 38.8927 66.7984 32.6382 66.9941" fill="#263238"/>
<path d="M29.0085 67.8786C28.9711 67.7786 28.9505 67.6731 28.9478 67.5664C28.9318 67.2567 28.9944 66.9479 29.1299 66.6689C29.3443 66.2207 29.7163 65.8672 30.1748 65.676C30.4648 65.5655 30.7783 65.5312 31.0853 65.5762C31.4105 65.6066 31.7357 65.6933 32.0782 65.7107C32.4335 65.7304 32.7874 65.6525 33.1015 65.4852C33.4444 65.2941 33.7631 65.0626 34.051 64.7958C34.3632 64.527 34.6797 64.2321 35.044 63.9676C35.4232 63.6908 35.8582 63.4999 36.3187 63.4083C37.3136 63.2587 38.3302 63.4319 39.2194 63.9026C40.143 64.4127 41.0044 65.0281 41.7862 65.7367C42.5457 66.4436 43.4101 67.0286 44.3487 67.471C44.7936 67.6573 45.2775 67.7317 45.7578 67.6878C46.213 67.6188 46.653 67.4721 47.0586 67.2542C47.8195 66.7978 48.6278 66.4256 49.4693 66.1442C50.226 65.9283 51.0244 65.903 51.7933 66.0705C52.4273 66.2141 53.0103 66.5274 53.48 66.9767C53.8306 67.3164 54.1041 67.7275 54.2821 68.1821C54.3929 68.4687 54.453 68.7724 54.4599 69.0796C54.4656 69.159 54.4656 69.2387 54.4599 69.3181C54.4599 69.3701 54.4599 69.3961 54.4599 69.3961C54.4543 68.992 54.375 68.5923 54.2257 68.2168C54.0407 67.7813 53.7659 67.3898 53.4193 67.0678C52.96 66.6455 52.3953 66.3549 51.7846 66.2266C51.0422 66.076 50.2743 66.1087 49.5473 66.322C48.7191 66.609 47.9239 66.984 47.1756 67.4407C46.7428 67.667 46.2729 67.8138 45.7882 67.8742C45.2733 67.926 44.7535 67.8501 44.275 67.6531C43.3153 67.2046 42.4306 66.6108 41.6518 65.8928C40.8827 65.1954 40.036 64.5887 39.1283 64.0847C38.2829 63.6328 37.3157 63.4612 36.3664 63.5948C35.4602 63.7465 34.8055 64.3839 34.1985 64.9215C33.8966 65.1931 33.5632 65.4274 33.2056 65.6196C32.862 65.7968 32.477 65.8777 32.0912 65.8537C31.7314 65.8277 31.4062 65.7367 31.094 65.6976C30.8029 65.6512 30.5049 65.678 30.2268 65.7757C29.7915 65.95 29.433 66.2746 29.2166 66.6906C29.0759 66.9581 29.0015 67.2555 28.9998 67.5577C28.9911 67.7702 29.0431 67.8742 29.0085 67.8786Z" fill="#6B006D"/>
<path d="M32.3568 72.6997C32.2575 72.7274 32.1526 72.7274 32.0533 72.6997C31.9071 72.6708 31.7688 72.6109 31.6477 72.5242C31.5265 72.4374 31.4254 72.3258 31.3509 72.1967C31.1417 71.7752 31.0836 71.2946 31.1861 70.8353C31.2883 70.2279 31.5319 69.6531 31.8972 69.1573C32.3396 68.5486 32.9543 68.0864 33.6619 67.8305C34.4739 67.5289 35.3632 67.506 36.1897 67.7655C37.0684 68.0934 37.8894 68.5588 38.6221 69.1443C39.3842 69.7654 40.2483 70.2495 41.1759 70.5751C42.1234 70.8157 43.1218 70.7613 44.0376 70.419C44.9034 70.109 45.7358 69.7124 46.522 69.2353C47.2436 68.8019 47.9891 68.4096 48.755 68.0603C49.4285 67.7537 50.1504 67.5673 50.8882 67.5097C51.4251 67.4653 51.9653 67.5309 52.476 67.7023C52.9866 67.8738 53.457 68.1476 53.8583 68.5069C54.0664 68.7112 54.2393 68.9485 54.3699 69.2093C54.4164 69.3 54.4514 69.3961 54.474 69.4955C54.3065 69.1502 54.0789 68.8375 53.8019 68.572C53.4021 68.2371 52.9399 67.9846 52.4421 67.8291C51.9443 67.6736 51.4206 67.6181 50.9012 67.6658C50.1826 67.733 49.4812 67.9252 48.8287 68.2338C48.0724 68.5858 47.337 68.981 46.6261 69.4174C45.8294 69.9047 44.9853 70.31 44.1069 70.6271C43.1485 70.9865 42.103 71.0439 41.1109 70.7919C40.1662 70.4559 39.2863 69.9602 38.5094 69.3264C37.7978 68.7517 37.0004 68.2923 36.1463 67.9649C35.3616 67.7142 34.5162 67.7279 33.7399 68.004C33.0635 68.2451 32.4726 68.6792 32.0403 69.2527C31.6809 69.7244 31.4373 70.2739 31.3292 70.8569C31.2184 71.2912 31.2597 71.7503 31.4463 72.1577C31.5102 72.2821 31.599 72.3921 31.7072 72.4808C31.8153 72.5696 31.9405 72.6352 32.075 72.6737C32.168 72.6904 32.2623 72.6991 32.3568 72.6997Z" fill="#6B006D"/>
<path d="M58.9114 84.2546C58.9114 84.2546 59.0675 84.0465 59.2973 83.6476C59.6125 83.078 59.7892 82.4423 59.8133 81.7918C59.833 81.352 59.7772 80.9121 59.6485 80.4911C59.4894 80.004 59.2553 79.5447 58.9548 79.1296C58.6513 78.696 58.2914 78.2191 57.9749 77.6988C57.6152 77.1651 57.4179 76.5386 57.4069 75.8951C57.4687 75.2605 57.6669 74.6467 57.9879 74.0957C58.2651 73.606 58.4309 73.0612 58.4735 72.5001C58.4855 72.0264 58.3738 71.5578 58.1495 71.1404C57.9252 70.723 57.5961 70.3712 57.1944 70.1197C56.6345 69.7886 55.9778 69.66 55.3344 69.7555C55.0999 69.7976 54.8682 69.8541 54.6406 69.9246C54.6895 69.8856 54.7435 69.8535 54.8011 69.8292C54.9681 69.757 55.1426 69.7032 55.3214 69.6688C55.9881 69.5348 56.6808 69.6456 57.2725 69.981C57.7093 70.2397 58.0697 70.6095 58.3173 71.0527C58.5648 71.496 58.6905 71.9969 58.6816 72.5045C58.6425 73.0961 58.4737 73.6719 58.1873 74.1911C57.8825 74.7144 57.6932 75.2969 57.6324 75.8994C57.6431 76.5014 57.8283 77.0874 58.1657 77.5861C58.4692 78.089 58.8247 78.5486 59.1282 79.0126C59.4351 79.4487 59.6721 79.9299 59.8306 80.4391C59.9589 80.8867 60.0073 81.3534 59.9737 81.8179C59.9364 82.479 59.7369 83.1208 59.3927 83.6866C59.2984 83.8412 59.1895 83.9864 59.0675 84.1202C58.9591 84.2156 58.9158 84.2589 58.9114 84.2546Z" fill="#6B006D"/>
<path d="M40.7486 79.195C40.7085 78.8319 40.6477 78.4715 40.5665 78.1153C40.413 77.5217 40.1371 76.9666 39.7566 76.4858C39.376 76.005 38.8992 75.609 38.3567 75.3232C37.8141 75.0375 37.2179 74.8683 36.6061 74.8264C35.9943 74.7846 35.3806 74.871 34.8042 75.0802C33.9989 75.3816 33.2985 75.9103 32.788 76.6021C32.2404 77.3467 31.945 78.2468 31.945 79.1711C31.945 80.0954 32.2404 80.9955 32.788 81.7401C33.0412 82.098 33.3518 82.4115 33.7072 82.668C34.0398 82.9217 34.4099 83.1221 34.8042 83.262C35.4895 83.5145 36.2271 83.5912 36.9497 83.4851C37.6722 83.3791 38.3567 83.0937 38.9406 82.655C39.7355 82.0564 40.3078 81.2095 40.5665 80.2486C40.647 79.8938 40.7078 79.5348 40.7486 79.1733C40.7759 79.5417 40.7437 79.9121 40.6532 80.2702C40.4225 81.2859 39.8424 82.1882 39.0143 82.8197C38.4122 83.2853 37.7023 83.5914 36.9505 83.7096C36.1986 83.8279 35.4291 83.7544 34.7131 83.4961C34.2974 83.3527 33.9067 83.145 33.5555 82.8804C33.184 82.6113 32.8577 82.2849 32.5886 81.9135C32.0085 81.1324 31.6953 80.1853 31.6953 79.2123C31.6953 78.2393 32.0085 77.2922 32.5886 76.5111C33.1247 75.7841 33.8639 75.232 34.7131 74.9242C35.48 74.6498 36.3064 74.5855 37.1065 74.7377C37.9555 74.9031 38.7392 75.309 39.3641 75.907C39.989 76.5051 40.429 77.2701 40.6315 78.111C40.7275 78.4639 40.767 78.8297 40.7486 79.195Z" fill="#263238"/>
<path d="M50.9102 79.195C50.8728 78.8315 50.812 78.4709 50.7281 78.1153C50.5751 77.5218 50.2997 76.9669 49.9196 76.4861C49.5395 76.0053 49.063 75.6093 48.5208 75.3235C47.9786 75.0377 47.3826 74.8684 46.7712 74.8265C46.1597 74.7846 45.5462 74.871 44.9701 75.0802C44.1628 75.38 43.4606 75.9089 42.9496 76.6021C42.402 77.3467 42.1066 78.2468 42.1066 79.1711C42.1066 80.0954 42.402 80.9955 42.9496 81.7401C43.2039 82.097 43.5143 82.4103 43.8688 82.668C44.2035 82.9209 44.5749 83.1212 44.9701 83.262C45.5429 83.4697 46.1525 83.5562 46.7604 83.516C47.3683 83.4758 47.9613 83.3099 48.5017 83.0286C49.0422 82.7474 49.5184 82.357 49.9001 81.8822C50.2818 81.4074 50.5608 80.8585 50.7194 80.2702C50.8026 79.916 50.8635 79.5569 50.9015 79.195C50.9316 79.5634 50.8993 79.9342 50.8061 80.2919C50.5809 81.2951 50.0137 82.1888 49.2019 82.8197C48.5998 83.2853 47.8899 83.5914 47.1381 83.7096C46.3862 83.8279 45.6167 83.7544 44.9007 83.4961C44.485 83.3527 44.0943 83.145 43.7431 82.8804C43.3705 82.6112 43.0427 82.2849 42.7718 81.9135C42.1944 81.1313 41.8828 80.1846 41.8828 79.2123C41.8828 78.24 42.1944 77.2933 42.7718 76.5111C43.311 75.7853 44.0512 75.2335 44.9007 74.9242C45.6677 74.6498 46.494 74.5855 47.2941 74.7377C48.1421 74.9044 48.9246 75.3107 49.5486 75.9086C50.1726 76.5065 50.6121 77.2709 50.8148 78.111C50.9061 78.4646 50.9383 78.8309 50.9102 79.195Z" fill="#263238"/>
<path d="M42.2406 78.4493V78.4926V78.4146V78.5013C42.0016 78.5545 41.757 78.5778 41.5122 78.5707C41.0786 78.5707 40.7188 78.5186 40.7188 78.4579C40.7188 78.3972 41.0743 78.3452 41.5122 78.3452C41.757 78.3358 42.002 78.3591 42.2406 78.4146V78.5013V78.4233V78.4666V78.4493Z" fill="#263238"/>
<path d="M56.2661 79.429C55.3549 79.4788 54.4411 79.4512 53.5346 79.3466C52.6228 79.3202 51.7148 79.2172 50.8203 79.0388C51.7316 78.9942 52.645 79.0218 53.5519 79.1212C54.4635 79.1501 55.3712 79.2531 56.2661 79.429Z" fill="#263238"/>
<path d="M45.0849 85.6773C45.1656 85.9015 45.1762 86.145 45.1153 86.3754C45.0224 86.9522 44.7215 87.475 44.2693 87.8449C43.817 88.2148 43.245 88.4062 42.6612 88.3829C42.4223 88.3974 42.1848 88.3384 41.9805 88.2138C41.9805 88.1791 42.2493 88.2485 42.6612 88.2138C43.1969 88.1953 43.7117 88.0017 44.1268 87.6626C44.5419 87.3235 44.8343 86.8576 44.9592 86.3364C45.0849 85.9418 45.0589 85.6773 45.0849 85.6773Z" fill="#263238"/>
<path d="M27.9118 116.804C27.9173 116.85 27.9173 116.896 27.9118 116.942V117.35C27.9118 117.723 27.9118 118.252 27.9335 118.92C27.9335 120.294 27.9335 122.258 27.9638 124.682C27.9638 129.547 27.8164 136.267 27.4392 143.682C27.062 151.096 26.6718 157.795 26.4073 162.668C26.2859 165.083 26.1861 167.047 26.1168 168.422C26.0821 169.09 26.0561 169.61 26.0387 169.983C26.0387 170.152 26.017 170.286 26.0127 170.39C26.0172 170.437 26.0172 170.483 26.0127 170.529C26.0062 170.483 26.0062 170.436 26.0127 170.39C26.0127 170.286 26.0127 170.152 26.0127 169.983C26.0127 169.61 26.0344 169.085 26.0517 168.418C26.0908 167.056 26.1601 165.088 26.2685 162.66C26.4723 157.799 26.8669 151.087 27.2354 143.673C27.604 136.259 27.8034 129.542 27.8294 124.678C27.8294 122.258 27.8598 120.294 27.8684 118.92C27.8684 118.252 27.8684 117.723 27.8901 117.35V116.942C27.8917 116.896 27.899 116.849 27.9118 116.804Z" fill="#263238"/>
<path d="M69.7994 109.338C67.4667 106.645 62.9097 106.251 60.8892 107.712C58.8687 109.173 57.7457 111.653 57.5419 114.137C57.3382 116.622 57.9755 119.115 58.9207 121.417C60.4426 125.111 62.6929 128.103 66.0532 131.91L74.7249 143.279L58.0102 159.599L64.9476 170.529L79.1561 159.083L90.9063 146.63" fill="#FF9900"/>
<path d="M9.35938 144.389C9.63063 144.19 9.93641 144.043 10.2612 143.955C11.0297 143.696 11.8405 143.585 12.6503 143.63C13.4618 143.674 14.2576 143.871 14.996 144.211C15.3159 144.331 15.6102 144.51 15.8631 144.74C15.8631 144.77 15.5163 144.579 14.9526 144.358C14.2197 144.07 13.4454 143.9 12.659 143.855C11.873 143.817 11.0859 143.902 10.3263 144.107C9.72358 144.267 9.37672 144.423 9.35938 144.389Z" fill="#263238"/>
<path d="M72.049 111.891C66.2173 104.156 59.939 104.793 56.7391 104.702V101.307C54.3761 101.307 51.1459 103.436 49.4766 104.958L47.8246 107.226C47.4002 105.984 46.6915 104.859 45.7551 103.94C44.8186 103.02 43.6802 102.333 42.4308 101.932C41.5296 101.646 40.6056 101.437 39.6689 101.307V104.342C31.8297 104.564 27.6369 106.706 22.3992 112.767C22.1304 113.079 21.5971 113.613 20.9857 114.215L5.48943 132.426C2.32426 135.929 -0.580754 140.751 0.0999739 145.433C0.841403 150.706 3.91552 154.174 9.79926 158.15L26.102 168.717L26.024 170.533H64.9295C64.9295 170.533 91.3131 151.07 91.9592 143.859C92.4621 138.162 83.3742 126.087 72.049 111.891ZM26.7567 153.216L15.3491 144.705L27.6716 131.953L26.7567 153.216ZM64.1144 153.893L63.8065 147.593L65.4628 131.043C68.7147 134.771 74.7328 142.173 74.7328 143.278L64.1144 153.893Z" fill="#FF9900"/>
<path d="M56.7313 104.72C56.6487 104.901 56.55 105.073 56.4365 105.236C56.2284 105.557 55.9292 106.021 55.5346 106.58C54.5188 108.047 53.377 109.422 52.1223 110.69C51.7538 111.063 51.3809 111.415 51.0167 111.748L50.8346 111.918V111.67C50.8138 110.246 50.2419 108.884 49.239 107.872C48.975 107.555 48.6327 107.313 48.2461 107.17C48.0974 107.141 47.9432 107.167 47.8125 107.243C47.8633 107.18 47.9309 107.132 48.0075 107.105C48.0842 107.079 48.1669 107.074 48.2461 107.092C48.6635 107.209 49.0383 107.444 49.3257 107.768C49.7953 108.214 50.1827 108.74 50.4704 109.32C50.8299 110.051 51.0253 110.852 51.0427 111.666L50.8606 111.584C51.2161 111.25 51.589 110.903 51.9532 110.53C53.197 109.267 54.349 107.916 55.4002 106.489L56.3541 105.188C56.4636 105.02 56.59 104.863 56.7313 104.72Z" fill="#263238"/>
<path d="M39.6602 104.36C39.7869 104.482 39.9003 104.617 39.9984 104.763L40.8655 105.904C41.5896 106.875 42.5695 108.228 43.6448 109.728L44.3472 110.708L44.1521 110.738C44.3618 110.038 44.6529 109.364 45.0193 108.731C45.3222 108.217 45.7541 107.791 46.2723 107.495C46.614 107.297 47.0005 107.19 47.3953 107.183C47.5426 107.168 47.6914 107.189 47.8289 107.244C47.8289 107.244 47.6815 107.244 47.3953 107.244C47.0212 107.281 46.6607 107.404 46.3417 107.603C45.8607 107.907 45.4617 108.324 45.1797 108.817C44.8308 109.443 44.5517 110.104 44.3472 110.79L44.2778 110.994L44.1521 110.821L43.4497 109.841C42.3744 108.34 41.4118 106.975 40.7224 105.982C40.4059 105.509 40.1371 105.115 39.9203 104.798C39.8179 104.662 39.7307 104.515 39.6602 104.36Z" fill="#263238"/>
<g opacity="0.1">
<path opacity="0.1" d="M47.8164 107.243C48.4662 107.955 48.9542 108.799 49.2469 109.718C49.5395 110.636 49.6299 111.607 49.5117 112.564C49.4293 113.197 49.3556 114.042 49.9453 114.276C50.3572 114.437 50.8125 114.155 51.1463 113.877C53.6759 111.839 55.7572 109.3 57.2599 106.42C57.4053 106.193 57.4835 105.93 57.4853 105.661C57.482 105.527 57.4275 105.4 57.3331 105.306C57.2387 105.211 57.1115 105.157 56.978 105.154C56.7999 105.203 56.6459 105.316 56.5445 105.47C54.7407 107.551 52.7463 109.715 50.9425 111.792C51.0238 110.636 50.6661 109.492 49.941 108.588C49.2256 107.72 48.4451 106.823 47.8294 107.243" fill="black"/>
</g>
<path d="M64.4535 169.805C64.4025 169.749 64.3575 169.688 64.3191 169.623C64.2237 169.484 64.1066 169.302 63.9549 169.077L62.6238 167.013C61.4921 165.218 59.9095 162.716 58.0668 159.807L58.0234 159.733L58.0841 159.677L62.1512 155.618L71.0006 146.86C72.1279 145.759 73.0471 144.865 73.6975 144.224L74.4433 143.517C74.5267 143.431 74.6166 143.351 74.7121 143.278C74.6409 143.375 74.5611 143.465 74.4736 143.547C74.2959 143.734 74.04 143.981 73.7626 144.289L71.1003 146.99L62.2942 155.796C60.8634 157.223 59.4846 158.588 58.2229 159.841V159.711C60.0353 162.638 61.5962 165.153 62.7105 166.961C63.2481 167.828 63.6817 168.548 63.9896 169.059C64.1283 169.289 64.2367 169.493 64.3234 169.623C64.3734 169.679 64.4171 169.74 64.4535 169.805Z" fill="#263238"/>
<path d="M59.6692 109.117L59.6041 109.199L59.4047 109.433C59.2182 109.633 58.9711 109.945 58.6589 110.352C57.801 111.522 57.2319 112.879 56.9983 114.311C56.7219 116.446 57.0572 118.616 57.9652 120.568C58.4586 121.733 59.0998 122.83 59.873 123.832C60.6924 124.877 61.5596 125.922 62.4484 127.045C65.9475 131.455 68.9522 135.561 71.1635 138.509L73.765 142.008C74.0642 142.407 74.2983 142.728 74.4717 142.962L74.6495 143.214L74.7059 143.3C74.7059 143.3 74.6755 143.279 74.6322 143.227L74.4371 142.988L73.7 142.039C73.0626 141.228 72.1521 140.048 71.0334 138.57C68.7961 135.648 65.7654 131.555 62.275 127.154C61.4078 126.048 60.5407 124.986 59.6995 123.958C58.9181 122.938 58.2711 121.822 57.7744 120.637C56.8604 118.648 56.5369 116.439 56.8422 114.272C57.1777 112.428 58.0669 110.729 59.3917 109.403L59.6085 109.186C59.6388 109.138 59.6648 109.112 59.6692 109.117Z" fill="#263238"/>
<path d="M74.2932 114.714C74.2932 114.736 74.0548 114.818 73.6472 115.035C73.0772 115.349 72.5583 115.748 72.108 116.219C71.4439 116.922 70.8621 117.699 70.3736 118.534C69.7794 119.578 69.1326 120.591 68.4355 121.569C67.7811 122.46 66.9347 123.192 65.959 123.711C64.9833 124.231 63.9033 124.524 62.7989 124.569C62.1358 124.603 61.4713 124.54 60.8261 124.383C60.6511 124.343 60.4788 124.293 60.3101 124.231C60.2504 124.212 60.1924 124.187 60.1367 124.157C61.0049 124.366 61.8983 124.451 62.7903 124.409C63.753 124.343 64.6939 124.091 65.5609 123.668C66.6203 123.147 67.5393 122.38 68.2404 121.43C69.0079 120.433 69.5889 119.366 70.1785 118.439C70.6828 117.596 71.287 116.817 71.9779 116.119C72.4484 115.648 72.9934 115.259 73.5908 114.966C73.7539 114.889 73.922 114.824 74.0938 114.77C74.1574 114.743 74.2245 114.724 74.2932 114.714Z" fill="#FAFAFA"/>
<path d="M63.954 152.839H63.85L63.5595 152.77C63.4294 152.735 63.269 152.713 63.0782 152.683C62.86 152.647 62.64 152.622 62.4192 152.609C61.0038 152.545 59.588 152.726 58.2351 153.147C57.2949 153.418 56.3749 153.754 55.4818 154.153C54.5192 154.587 53.522 155.115 52.4467 155.623C51.3234 156.175 50.1504 156.619 48.9434 156.95C48.2986 157.116 47.6395 157.22 46.9749 157.262C46.2878 157.295 45.5993 157.245 44.924 157.114C43.6051 156.816 42.346 156.297 41.1995 155.579C40.0809 154.912 39.0793 154.153 38.1211 153.451C36.2263 152.028 34.4139 150.849 32.6926 150.337C31.9238 150.099 31.1257 149.967 30.3209 149.947C29.7142 149.936 29.1088 150.007 28.5215 150.16C28.0225 150.3 27.54 150.493 27.082 150.736L27.1644 150.676L27.4246 150.52C27.7655 150.335 28.1262 150.189 28.4999 150.086C29.0937 149.918 29.7081 149.833 30.3252 149.834C31.1417 149.841 31.9531 149.962 32.736 150.194C34.4963 150.693 36.3391 151.881 38.2425 153.294C39.2051 153.997 40.2066 154.743 41.3123 155.402C42.4374 156.105 43.6731 156.614 44.9674 156.906C45.6238 157.036 46.2937 157.084 46.9619 157.049C47.6117 157.012 48.2565 156.912 48.887 156.75C50.0812 156.426 51.2425 155.99 52.3557 155.449C53.431 154.946 54.4325 154.417 55.3908 153.997C56.2936 153.601 57.2239 153.27 58.1744 153.008C59.5449 152.597 60.9786 152.436 62.4062 152.536C62.9337 152.564 63.4547 152.666 63.954 152.839Z" fill="#FAFAFA"/>
<path d="M21.0958 148.989C21.0958 148.989 21.1175 149.041 21.1305 149.141C21.1577 149.284 21.1751 149.429 21.1825 149.574C21.2258 150.111 21.2025 150.651 21.1131 151.183C20.9849 151.982 20.6765 152.741 20.2113 153.403C19.6153 154.19 18.8566 154.839 17.987 155.306C17.1198 155.839 16.2223 156.286 15.5069 156.806C14.8602 157.245 14.2941 157.792 13.8332 158.424C13.5288 158.85 13.3555 159.357 13.3346 159.88C13.3346 160.253 13.391 160.457 13.365 160.461C13.3393 160.417 13.3217 160.369 13.3129 160.318C13.2757 160.176 13.2525 160.031 13.2436 159.885C13.226 159.337 13.3774 158.796 13.6771 158.337C14.1317 157.673 14.7032 157.097 15.3638 156.637C16.0922 156.095 16.9724 155.64 17.8482 155.115C18.6896 154.66 19.4277 154.036 20.0161 153.281C20.4718 152.648 20.784 151.923 20.931 151.157C21.0302 150.637 21.0767 150.108 21.0698 149.579C21.0644 149.382 21.0731 149.185 21.0958 148.989Z" fill="#FAFAFA"/>
<path d="M86.5259 131.043C85.6359 131.192 84.7707 131.464 83.9548 131.849C83.0815 132.276 82.2972 132.864 81.6438 133.584C81.2617 134.011 80.9326 134.482 80.6639 134.989C80.3777 135.513 80.1826 136.107 79.9008 136.693C79.6427 137.282 79.2525 137.804 78.7604 138.219C78.2977 138.596 77.7723 138.89 77.2082 139.086C76.259 139.4 75.257 139.524 74.2598 139.45C73.594 139.41 72.9309 139.332 72.274 139.216C72.0319 139.184 71.7927 139.133 71.5586 139.064C71.8028 139.065 72.0465 139.087 72.287 139.129C72.7553 139.177 73.4273 139.268 74.2642 139.29C75.2393 139.339 76.2149 139.202 77.1388 138.886C77.7007 138.705 78.2185 138.407 78.659 138.014C79.0995 137.62 79.453 137.139 79.697 136.601C79.9701 136.029 80.1696 135.431 80.4687 134.889C80.7534 134.372 81.1015 133.893 81.505 133.462C82.1807 132.724 82.9955 132.125 83.9027 131.702C84.5077 131.415 85.1499 131.213 85.8105 131.104C85.99 131.074 86.1709 131.054 86.3525 131.043C86.4099 131.033 86.4685 131.033 86.5259 131.043Z" fill="#FAFAFA"/>
<path d="M64.9773 134.702L64.8775 134.733L64.5827 134.798C64.3226 134.854 63.9367 134.924 63.4337 135.002C62.018 135.22 60.5866 135.321 59.1542 135.305C57.0223 135.29 54.9067 134.931 52.8889 134.243C51.7069 133.814 50.5663 133.278 49.481 132.643C48.3309 131.961 47.1273 131.374 45.8822 130.887C45.2491 130.663 44.5909 130.517 43.9224 130.453C43.272 130.404 42.6181 130.436 41.9756 130.549C40.7643 130.797 39.5957 131.22 38.507 131.806C36.4041 132.92 34.635 134.16 33.0351 135.023C31.7979 135.758 30.449 136.285 29.0418 136.584C28.6613 136.666 28.2733 136.708 27.8841 136.71H27.5806C27.5461 136.715 27.5111 136.715 27.4766 136.71H27.5806L27.8798 136.675C28.2656 136.653 28.6486 136.596 29.0245 136.506C30.4108 136.177 31.7375 135.634 32.9571 134.898C34.531 134.03 36.2913 132.769 38.4072 131.633C39.517 131.026 40.7108 130.587 41.9496 130.332C42.6104 130.214 43.2833 130.179 43.9528 130.228C44.641 130.296 45.3182 130.449 45.9689 130.683C47.2259 131.174 48.4398 131.769 49.598 132.461C50.6746 133.088 51.8032 133.622 52.9713 134.056C54.9658 134.747 57.057 135.117 59.1672 135.153C60.5917 135.185 62.0165 135.108 63.4294 134.924C63.9323 134.859 64.3182 134.802 64.5827 134.759L64.8819 134.72C64.9128 134.71 64.9449 134.704 64.9773 134.702Z" fill="#FAFAFA"/>
<path d="M22.5943 137.208C22.6366 136.987 22.6277 136.758 22.5683 136.541C22.4466 136.26 22.2595 136.012 22.0227 135.818C21.7858 135.625 21.5061 135.49 21.2069 135.426C20.8296 135.314 20.4004 135.249 19.9408 135.144C19.4313 135.05 18.9531 134.831 18.549 134.507C18.1253 134.125 17.7959 133.65 17.5864 133.12C17.3731 132.556 17.2063 131.976 17.0878 131.385C16.9753 130.81 16.8098 130.247 16.5935 129.703C16.3853 129.202 16.1128 128.729 15.7827 128.298C15.2259 127.56 14.5101 126.957 13.6885 126.533C13.1424 126.247 12.5584 126.04 11.9542 125.918C11.5206 125.831 11.2734 125.814 11.2734 125.792C11.3335 125.78 11.3954 125.78 11.4555 125.792C11.6269 125.797 11.7978 125.813 11.9672 125.84C12.5988 125.927 13.2123 126.116 13.7839 126.399C14.6339 126.819 15.3758 127.428 15.9518 128.181C16.3042 128.621 16.5959 129.107 16.819 129.625C17.0434 130.186 17.2147 130.766 17.3306 131.359C17.4455 131.933 17.6065 132.498 17.8119 133.046C18.0078 133.541 18.3131 133.986 18.7051 134.347C19.0812 134.656 19.5281 134.868 20.0058 134.962C20.4394 135.075 20.873 135.149 21.2762 135.275C21.5934 135.351 21.887 135.504 22.1312 135.72C22.3754 135.936 22.5628 136.209 22.6767 136.515C22.7208 136.687 22.7208 136.867 22.6767 137.039C22.662 137.101 22.6338 137.159 22.5943 137.208Z" fill="#FAFAFA"/>
<path d="M56.8403 114.97C56.4374 114.748 56.0094 114.575 55.5656 114.454C55.0392 114.346 54.4963 114.346 53.97 114.454C53.2684 114.592 52.5877 114.821 51.9451 115.135C51.2211 115.46 50.4579 115.885 49.6255 116.323C48.7434 116.814 47.808 117.202 46.8375 117.48C45.7457 117.747 44.6102 117.784 43.5033 117.589C42.3237 117.373 41.1798 116.995 40.104 116.466C37.8883 115.386 36.0456 113.938 34.2679 112.811C32.7359 111.744 31.025 110.962 29.2166 110.5C27.9949 110.2 26.7206 110.185 25.4922 110.456C25.0514 110.578 24.6172 110.723 24.1914 110.89C24.5996 110.66 25.0372 110.486 25.4922 110.374C26.7324 110.064 28.0286 110.055 29.273 110.348C31.1079 110.792 32.8462 111.568 34.4023 112.637C36.1974 113.76 38.0401 115.204 40.221 116.266C41.2781 116.787 42.4013 117.16 43.5596 117.376C44.6372 117.568 45.7427 117.535 46.8072 117.281C47.7648 117.015 48.6886 116.639 49.5604 116.162C50.3929 115.729 51.1647 115.295 51.9018 114.992C52.5603 114.685 53.2553 114.463 53.97 114.333C54.5147 114.24 55.0726 114.261 55.6089 114.393C55.9424 114.486 56.2629 114.62 56.5628 114.792C56.6585 114.846 56.7511 114.906 56.8403 114.97Z" fill="#FAFAFA"/>
<path d="M54.388 170.018L55.5934 170.621H62.5307L63.9312 169.476L58.8843 161.125C58.2643 161.398 55.5413 161.823 54.6612 162.131C53.902 162.398 53.1028 162.533 52.2981 162.53C51.4011 162.55 50.5045 162.476 49.6229 162.309L49.4321 162.248C49.3143 162.197 49.1875 162.171 49.0593 162.17C48.3092 162.105 47.7151 162.89 48.1357 163.51C48.5563 164.13 50.6072 164.958 53.226 164.884H53.3517C55.6497 164.884 53.5425 166.809 52.1767 167.954C51.9355 168.149 51.7483 168.402 51.6329 168.69C51.5175 168.977 51.4778 169.29 51.5177 169.597C51.5255 169.708 51.5571 169.816 51.6102 169.913C51.6633 170.01 51.7368 170.095 51.8255 170.161C52.4065 170.53 54.388 170.018 54.388 170.018Z" fill="#FFBE9D"/>
<path d="M26.0785 168.981C26.0739 168.941 26.0739 168.9 26.0785 168.86C26.0785 168.765 26.0785 168.648 26.0785 168.5C26.0785 168.166 26.1045 167.702 26.1262 167.117C26.1782 165.903 26.2476 164.173 26.3387 162.04C26.5164 157.739 26.7722 151.825 27.0367 145.29C27.3012 138.756 27.4703 132.821 27.5917 128.532C27.6394 126.399 27.6741 124.669 27.7001 123.451C27.7001 122.865 27.7218 122.401 27.7305 122.068C27.7305 121.92 27.7305 121.803 27.7305 121.712C27.725 121.67 27.725 121.628 27.7305 121.586C27.737 121.628 27.737 121.67 27.7305 121.712C27.7305 121.803 27.7305 121.925 27.7305 122.068C27.7305 122.401 27.7305 122.865 27.7305 123.451C27.7305 124.652 27.7305 126.386 27.6958 128.532C27.6351 132.825 27.4616 138.752 27.2058 145.299C26.95 151.846 26.6682 157.765 26.4427 162.048C26.3213 164.177 26.2259 165.907 26.1566 167.121C26.1175 167.707 26.0872 168.171 26.0655 168.5L26.0352 168.86C26.0541 168.899 26.0686 168.939 26.0785 168.981Z" fill="#263238"/>
<path d="M44.9553 169.805C44.9486 169.752 44.9486 169.698 44.9553 169.645C44.9553 169.528 44.9336 169.372 44.9162 169.172L44.7905 167.347C44.7385 166.558 44.6734 165.587 44.6388 164.459C44.6041 163.332 44.5217 162.053 44.513 160.635C44.5043 159.217 44.4523 157.661 44.474 155.991C44.474 155.159 44.474 154.296 44.474 153.39C44.474 152.484 44.513 151.586 44.5347 150.65C44.6431 146.899 44.8382 142.78 45.1417 138.461C45.7487 129.82 46.5205 122.02 47.0148 116.37C47.2576 113.552 47.4484 111.271 47.5958 109.676C47.6608 108.9 47.7172 108.288 47.7519 107.859C47.7736 107.66 47.7866 107.504 47.7996 107.386C47.8126 107.269 47.8213 107.226 47.8213 107.226C47.8271 107.279 47.8271 107.333 47.8213 107.386L47.7996 107.863C47.7692 108.297 47.7302 108.904 47.6825 109.684C47.5828 111.267 47.405 113.556 47.1752 116.383C46.72 122.02 45.9742 129.824 45.3672 138.474C45.0637 142.81 44.8642 146.908 44.7428 150.654C44.7428 151.59 44.6951 152.505 44.6734 153.394C44.6518 154.283 44.6734 155.128 44.6431 155.996C44.6171 157.661 44.6431 159.213 44.6431 160.631C44.6431 162.048 44.7081 163.332 44.7341 164.455C44.7602 165.578 44.8079 166.553 44.8469 167.343C44.8859 168.132 44.9119 168.739 44.9336 169.168V169.645C44.9465 169.697 44.9538 169.751 44.9553 169.805Z" fill="#263238"/>
<path d="M48.1437 127.088C48.122 127.067 48.3648 126.967 48.6336 127.197C48.7105 127.265 48.7699 127.35 48.8069 127.446C48.8439 127.542 48.8573 127.645 48.8461 127.747C48.8182 127.873 48.7533 127.988 48.6596 128.077C48.5658 128.166 48.4477 128.225 48.3203 128.246C48.1929 128.267 48.0621 128.249 47.9448 128.195C47.8276 128.141 47.7292 128.053 47.6624 127.943C47.6189 127.85 47.5982 127.749 47.602 127.647C47.6058 127.545 47.6339 127.446 47.6841 127.357C47.8618 127.049 48.1176 127.067 48.1176 127.097C48.1176 127.127 47.9312 127.171 47.8315 127.427C47.7997 127.494 47.7833 127.568 47.7833 127.643C47.7833 127.718 47.7997 127.792 47.8315 127.86C47.8824 127.926 47.9501 127.976 48.0274 128.006C48.1047 128.036 48.1887 128.045 48.2705 128.031C48.3523 128.017 48.4288 127.982 48.492 127.928C48.5551 127.874 48.6026 127.804 48.6293 127.726C48.6383 127.654 48.6321 127.581 48.6112 127.511C48.5903 127.442 48.5551 127.378 48.5079 127.322C48.3431 127.101 48.1437 127.127 48.1437 127.088Z" fill="#263238"/>
<path d="M46.9258 146.557C46.9042 146.535 47.1513 146.431 47.4201 146.665C47.4959 146.733 47.5543 146.818 47.5905 146.913C47.6267 147.008 47.6397 147.11 47.6283 147.211C47.6059 147.34 47.5429 147.458 47.4484 147.547C47.3539 147.637 47.233 147.694 47.1036 147.71C46.9763 147.735 46.8442 147.72 46.7259 147.666C46.6077 147.613 46.5093 147.523 46.4446 147.411C46.4024 147.317 46.3828 147.215 46.3874 147.113C46.3919 147.01 46.4204 146.91 46.4706 146.821C46.6484 146.513 46.9042 146.535 46.9042 146.561C46.9042 146.587 46.7177 146.639 46.618 146.89C46.585 146.958 46.5679 147.032 46.5679 147.107C46.5679 147.182 46.585 147.257 46.618 147.324C46.6632 147.398 46.7295 147.456 46.8083 147.492C46.8871 147.528 46.9748 147.54 47.0602 147.525C47.1455 147.511 47.2246 147.471 47.2872 147.411C47.3498 147.351 47.3931 147.274 47.4115 147.19C47.4215 147.118 47.4159 147.046 47.3949 146.977C47.3739 146.908 47.3381 146.844 47.2901 146.791C47.1296 146.557 46.9258 146.587 46.9258 146.557Z" fill="#263238"/>
<path d="M78.0351 159.933C77.8394 159.928 77.6448 159.903 77.4541 159.859C76.9301 159.747 76.4188 159.583 75.9279 159.369C74.2935 158.643 72.9285 157.422 72.0256 155.879C71.5694 155.02 71.2074 154.114 70.946 153.177C70.7317 152.426 70.4089 151.711 69.9878 151.053C69.6972 150.616 69.3229 150.242 68.8865 149.951C68.57 149.756 68.3705 149.691 68.3792 149.67C68.4298 149.673 68.4796 149.685 68.5266 149.704C68.6661 149.749 68.8011 149.808 68.9298 149.878C69.4017 150.146 69.8076 150.516 70.1179 150.962C70.569 151.628 70.9155 152.359 71.1454 153.13C71.4114 154.049 71.7718 154.938 72.2207 155.783C73.1028 157.292 74.4187 158.501 75.9973 159.252C76.6578 159.531 77.3391 159.759 78.0351 159.933Z" fill="#FAFAFA"/>
<path d="M123.045 170.58L115.674 149.187L119.082 128.661C120.074 123.124 120.629 118.255 119.142 115.467C115.166 108.04 110.367 107.372 103.811 105.668C102.458 105.317 92.169 104.97 91.0373 105.235C82.1098 106.236 76.3952 110.971 73.2604 118.676L69.8611 132.377L65.1914 146.685C64.8007 147.517 64.228 148.25 63.5157 148.83C62.8035 149.41 61.9699 149.822 61.0766 150.037L43.0742 156.189L43.226 159.715L43.0742 164.484L67.0514 159.97C71.8556 159.068 76.742 157.295 78.1208 152.66L80.7007 145.02C81.9624 148.255 83.3369 151.221 83.3369 151.221L81.6025 170.485L123.045 170.58Z" fill="#6B006D"/>
<path d="M116.87 132.572L110.02 155.478C109.497 157.225 108.55 158.815 107.264 160.107C105.978 161.399 104.393 162.353 102.649 162.884L74.1363 170.48L70.3555 160.638L96.1277 151.056L102.454 128.119C102.454 128.119 103.915 115.294 115.513 115.953" fill="#6B006D"/>
<path d="M115.509 115.953H115.162C114.932 115.953 114.594 115.927 114.147 115.953C112.842 115.99 111.552 116.252 110.336 116.729C109.457 117.073 108.63 117.537 107.878 118.108C106.986 118.793 106.196 119.602 105.532 120.51C103.942 122.769 102.913 125.375 102.527 128.11C100.793 134.493 98.625 142.306 96.2273 151.06V151.112H96.1796L70.39 160.742L70.455 160.599L71.1271 162.333C72.1894 165.108 73.2386 167.84 74.2316 170.428L74.0971 170.359L98.5947 163.855L101.357 163.118C101.79 162.997 102.263 162.884 102.705 162.754C103.139 162.617 103.565 162.455 103.98 162.268C106.357 161.193 108.269 159.3 109.369 156.935C109.697 156.203 109.967 155.446 110.176 154.672C110.632 153.157 111.066 151.712 111.476 150.336C113.146 144.812 114.486 140.363 115.409 137.328L116.48 133.816L116.762 132.91C116.827 132.706 116.866 132.602 116.866 132.602C116.866 132.602 116.84 132.711 116.784 132.914C116.727 133.118 116.636 133.43 116.519 133.829C116.281 134.64 115.934 135.824 115.487 137.354L111.62 150.392C111.212 151.777 110.778 153.222 110.319 154.728C110.111 155.511 109.841 156.277 109.512 157.017C109.163 157.787 108.726 158.515 108.212 159.185C107.11 160.597 105.685 161.724 104.058 162.472C103.634 162.662 103.2 162.829 102.757 162.971C102.323 163.101 101.86 163.213 101.404 163.339L98.6424 164.076L74.1492 170.615L74.0538 170.641L74.0191 170.55C73.0262 167.948 71.9726 165.225 70.9103 162.455L70.2382 160.72L70.1992 160.616L70.3033 160.577L96.0799 151.004L96.0148 151.073C98.4386 142.328 100.602 134.514 102.367 128.141C102.761 125.382 103.81 122.757 105.428 120.488C106.101 119.572 106.902 118.759 107.808 118.073C108.57 117.502 109.408 117.039 110.297 116.698C111.523 116.223 112.824 115.972 114.139 115.957C114.477 115.938 114.815 115.938 115.153 115.957L115.509 115.953Z" fill="#263238"/>
<path d="M97.5453 145.909C97.433 145.934 97.3176 145.943 97.2028 145.935C96.8919 145.933 96.5822 145.897 96.2793 145.827C95.2697 145.592 94.3379 145.1 93.5737 144.4C92.7991 143.716 92.1961 142.859 91.8133 141.898C91.744 141.734 91.6875 141.564 91.6442 141.391C91.605 141.263 91.576 141.133 91.5575 141.001C91.5228 140.784 91.5098 140.663 91.5272 140.663C91.5445 140.663 91.6442 141.131 91.9608 141.833C92.3735 142.747 92.9732 143.564 93.7211 144.231C94.4646 144.907 95.3553 145.399 96.3226 145.67C97.0597 145.87 97.5453 145.861 97.5453 145.909Z" fill="#263238"/>
<path d="M80.6144 128.487C80.5559 128.718 80.476 128.943 80.376 129.159C80.2069 129.593 79.9424 130.204 79.6692 130.976C79.1056 132.507 78.3121 134.679 78.2297 137.176C78.1887 138.351 78.3485 139.524 78.7023 140.645C78.9927 141.555 79.387 142.427 79.8774 143.247C80.2075 143.802 80.5679 144.339 80.957 144.855C81.1143 145.039 81.2592 145.233 81.3906 145.436C81.3906 145.436 81.3385 145.397 81.2518 145.306C81.1651 145.215 81.048 145.089 80.9006 144.912C80.4777 144.413 80.0922 143.884 79.7473 143.329C79.2331 142.503 78.8183 141.62 78.5116 140.697C78.1441 139.559 77.9754 138.367 78.0129 137.172C78.149 135.017 78.658 132.901 79.5175 130.92C79.8253 130.157 80.1028 129.55 80.2936 129.129C80.3836 128.907 80.4909 128.693 80.6144 128.487Z" fill="#263238"/>
<path d="M98.6336 154.112C98.3572 153.479 98.0049 152.883 97.5843 152.335C97.1065 151.837 96.5691 151.4 95.9844 151.034C96.1949 151.051 96.3977 151.122 96.5741 151.238C97.4786 151.723 98.1708 152.526 98.5165 153.492C98.6058 153.686 98.646 153.899 98.6336 154.112Z" fill="#263238"/>
<path d="M70.8801 162.008C70.8801 162.008 62.7244 162.737 62.8371 168.035L72.9916 167.519L70.8801 162.008Z" fill="#B78876"/>
<path d="M84.0234 73.2229C83.2777 76.8303 82.5666 80.4435 81.8902 84.0625C81.023 88.6498 80.2426 93.4453 81.539 97.9372C82.2501 100.4 83.5595 102.637 84.8559 104.849C85.5843 106.089 86.3821 107.398 87.6742 108.04C89.4302 108.907 91.6502 108.222 93.0507 106.847C94.4511 105.473 95.1579 103.556 95.6522 101.644C96.593 97.9415 96.8012 94.0957 96.9529 90.2758C97.1047 86.4559 97.1827 82.4929 96.0857 78.7901C94.9888 75.0873 92.5867 71.584 89.0097 70.1184" fill="#263238"/>
<path d="M84.6133 70.3266C85.6339 69.5331 86.8733 69.0715 88.1643 69.0042C89.2049 66.897 91.672 65.9301 93.9787 65.4835C97.378 64.8201 97.0138 64.729 100.175 66.1252C103.335 67.5213 107.836 71.4669 108.413 74.8836C108.937 77.8804 109.896 80.7844 111.261 83.5032C112.129 85.3026 113.82 86.5383 114.821 88.2727C115.361 89.2131 115.679 90.2646 115.751 91.3467C115.822 92.4289 115.645 93.5131 115.233 94.5163C114.418 96.4718 112.688 98.1974 112.853 100.305C112.944 101.532 112.9 102.408 113.386 103.539C115.029 107.372 114.253 112.48 110.724 114.691C107.194 116.902 102.087 116.13 99.3595 112.957C96.9921 110.216 96.5369 106.305 96.758 102.689C96.9791 99.0733 97.8116 95.4788 97.5774 91.8497" fill="#263238"/>
<path d="M88.6642 170.481L88.6122 169.232L70.2282 167.294L62.1722 144.136L27.6719 143.356L38.1083 170.481C55.1655 170.611 72.0174 170.611 88.6642 170.481Z" fill="#263238"/>
<path d="M46.8146 157.291C46.9925 157.6 47.2581 157.85 47.5779 158.008C47.8976 158.166 48.2571 158.226 48.6109 158.18C48.9647 158.134 49.2968 157.984 49.5654 157.749C49.8339 157.514 50.0268 157.205 50.1196 156.861C50.2124 156.516 50.2009 156.152 50.0867 155.814C49.9724 155.476 49.7605 155.179 49.4778 154.962C49.195 154.744 48.8541 154.616 48.4981 154.592C48.1422 154.568 47.7871 154.65 47.478 154.828C47.0635 155.067 46.7607 155.461 46.6363 155.922C46.5119 156.384 46.576 156.877 46.8146 157.291Z" fill="white"/>
<path d="M97.037 114.626C101.173 114.626 104.894 111.101 104.772 105.863L105.518 75.9458C105.531 75.3194 105.308 74.711 104.894 74.2412C104.48 73.7713 103.904 73.4744 103.281 73.4093L90.9538 72.1085C89.9465 72.0024 88.9281 72.1012 87.96 72.399C86.9918 72.6967 86.0939 73.1872 85.3203 73.8409C84.5466 74.4947 83.9132 75.2982 83.4582 76.2031C83.0031 77.1081 82.7358 78.0957 82.6724 79.1066C82.3775 83.8413 82.1998 89.6384 82.7591 93.1721C83.8864 100.279 89.3366 101.185 89.3366 101.185L89.2022 106.149C88.9941 111.439 92.9527 114.621 97.037 114.621V114.626Z" fill="#B78876"/>
<path d="M85.4297 82.9657C85.4272 83.2014 85.5162 83.4288 85.6779 83.6002C85.8396 83.7717 86.0615 83.8737 86.2969 83.8849C86.4126 83.8943 86.5289 83.8805 86.6392 83.8441C86.7494 83.8078 86.8511 83.7496 86.9385 83.6732C87.0258 83.5968 87.0969 83.5036 87.1476 83.3992C87.1983 83.2948 87.2275 83.1813 87.2335 83.0654C87.2371 82.8295 87.1485 82.6014 86.9865 82.4298C86.8246 82.2581 86.6021 82.1564 86.3663 82.1462C86.2506 82.1368 86.1342 82.1507 86.024 82.187C85.9138 82.2234 85.8121 82.2815 85.7247 82.3579C85.6374 82.4343 85.5663 82.5275 85.5156 82.6319C85.4649 82.7363 85.4357 82.8498 85.4297 82.9657Z" fill="#263238"/>
<path d="M83.9311 82.1245C84.0438 82.2415 84.7376 81.7342 85.7175 81.7342C86.6974 81.7342 87.4171 82.2285 87.5212 82.1071C87.5732 82.0551 87.4605 81.8426 87.1483 81.6128C86.7213 81.3235 86.2158 81.1721 85.7001 81.1793C85.1907 81.1782 84.6942 81.3392 84.2823 81.6389C83.9788 81.8556 83.8791 82.0724 83.9311 82.1245Z" fill="#263238"/>
<path d="M94.8985 83.1479C94.8949 83.3839 94.9835 83.6119 95.1455 83.7836C95.3074 83.9553 95.5299 84.057 95.7657 84.0671C95.8817 84.0772 95.9986 84.0637 96.1093 84.0277C96.22 83.9916 96.3223 83.9336 96.4101 83.8571C96.4979 83.7806 96.5694 83.6872 96.6204 83.5825C96.6713 83.4778 96.7006 83.3639 96.7066 83.2476C96.7091 83.012 96.6202 82.7845 96.4584 82.6131C96.2967 82.4417 96.0748 82.3396 95.8394 82.3284C95.7234 82.3184 95.6066 82.3318 95.4959 82.3679C95.3851 82.404 95.2828 82.462 95.195 82.5384C95.1072 82.6149 95.0357 82.7083 94.9848 82.813C94.9338 82.9177 94.9045 83.0316 94.8985 83.1479Z" fill="#263238"/>
<path d="M93.5733 82.3067C93.686 82.4281 94.3754 81.9165 95.3553 81.9165C96.3352 81.9165 97.0549 82.4108 97.1633 82.2894C97.2154 82.2374 97.1026 82.0249 96.7861 81.7951C96.3603 81.5068 95.8565 81.3556 95.3423 81.3615C94.8316 81.3605 94.3337 81.5214 93.9201 81.8211C93.621 82.0379 93.5169 82.2547 93.5733 82.3067Z" fill="#263238"/>
<path d="M90.0138 89.5817C89.4973 89.4205 88.9628 89.3244 88.4225 89.2956C88.1711 89.2695 87.9326 89.2175 87.8892 89.0484C87.8696 88.7885 87.9285 88.5287 88.0583 88.3027C88.2925 87.7 88.5396 87.0626 88.7998 86.3992C89.8273 83.6806 90.5731 81.4477 90.4604 81.4087C90.3477 81.3696 89.4285 83.5376 88.4009 86.2518C88.1537 86.9239 87.9152 87.5526 87.6898 88.1726C87.5349 88.4745 87.489 88.8206 87.5597 89.1525C87.5963 89.2409 87.6523 89.3199 87.7236 89.3837C87.7949 89.4475 87.8797 89.4944 87.9716 89.521C88.1129 89.5593 88.2588 89.5783 88.4052 89.5774C88.939 89.6482 89.4797 89.6497 90.0138 89.5817Z" fill="#263238"/>
<path d="M89.3359 101.189C92.6823 101.239 95.977 100.36 98.8531 98.6483C98.8531 98.6483 96.5421 103.53 89.4313 102.867L89.3359 101.189Z" fill="#AA6550"/>
<path d="M90.43 91.9453C90.6146 91.7086 90.8575 91.5238 91.1349 91.409C91.4123 91.2942 91.7147 91.2535 92.0126 91.2906C92.2286 91.3101 92.4386 91.3727 92.63 91.4747C92.8214 91.5767 92.9904 91.7161 93.1269 91.8846C93.2584 92.0482 93.3364 92.2483 93.3504 92.4577C93.3644 92.6671 93.3136 92.8757 93.205 93.0553C93.0465 93.2347 92.8373 93.3618 92.6051 93.4198C92.3728 93.4779 92.1285 93.4642 91.9042 93.3805C91.442 93.2158 91.0164 92.9625 90.6512 92.6347C90.5416 92.5557 90.4476 92.4573 90.3737 92.3442C90.3364 92.29 90.3164 92.2258 90.3164 92.16C90.3164 92.0942 90.3364 92.0299 90.3737 91.9757" fill="#AA6550"/>
<path d="M92.8996 90.2583C92.7392 90.2583 92.7348 91.3162 91.8243 92.0707C90.9138 92.8251 89.7821 92.708 89.7734 92.8598C89.7734 92.9248 90.0249 93.0636 90.5062 93.0766C91.1365 93.0905 91.7512 92.88 92.2405 92.4826C92.7039 92.1022 93.0009 91.5563 93.0687 90.9607C93.0904 90.5184 92.969 90.254 92.8996 90.2583Z" fill="#263238"/>
<path d="M93.1296 80.5898C93.2249 80.8586 94.2048 80.7329 95.3582 80.8716C96.5115 81.0104 97.4394 81.3052 97.5911 81.0841C97.6605 80.967 97.4957 80.7199 97.1229 80.4597C96.6249 80.137 96.057 79.9378 95.4666 79.8787C94.8805 79.8104 94.2865 79.8802 93.7322 80.0825C93.303 80.2559 93.0905 80.4641 93.1296 80.5898Z" fill="#263238"/>
<path d="M84.2895 79.2844C84.4629 79.5099 85.1567 79.2844 85.9545 79.2844C86.7523 79.2844 87.4547 79.4318 87.6108 79.202C87.6801 79.0893 87.5717 78.8638 87.2726 78.6557C86.8694 78.4008 86.3991 78.2724 85.9223 78.2871C85.4456 78.3018 84.9841 78.4588 84.5973 78.7381C84.3112 78.9462 84.2158 79.176 84.2895 79.2844Z" fill="#263238"/>
<path d="M82.8203 77.9274C85.4955 76.3752 88.1014 74.94 89.7577 72.3385C90.6812 74.94 92.4849 76.2408 94.8783 77.6239C97.2717 79.0071 99.9469 79.8179 102.596 80.6113C101.256 81.9121 101.079 84.015 101.386 85.8577C101.694 87.7004 102.401 89.4738 102.518 91.3382C102.67 93.827 101.759 96.2681 101.703 98.7612C101.625 102.182 103.134 105.412 104.612 108.495L111.034 104.753L110.11 88.082L110.188 76.2842L100.177 66.9794L87.4987 68.3669L82.8203 77.9274Z" fill="#263238"/>
<path d="M81.3926 112.983C84.6488 116.274 84.3019 122.14 87.8964 125.084C90.0903 126.888 93.2945 127.057 95.987 126.146C98.6796 125.236 100.943 123.393 103.02 121.451C105.097 119.508 107.061 117.423 109.424 115.849C111.717 114.318 115.646 113.377 116.201 110.672C116.608 108.695 114.527 106.314 114.137 104.333C113.517 101.185 116.921 98.7525 117.488 95.596C118.624 89.2874 115.295 81.8818 111.826 76.5183C108.357 71.1549 106.397 65.0804 97.6043 64.5817C89.7348 64.2305 84.3757 68.0071 81.7568 73.4702C80.4561 76.2061 80.1395 79.3019 79.8837 82.3284C79.2897 89.3958 78.9602 96.8881 82.2251 103.184C82.9015 104.485 83.7079 106.141 82.7974 107.294C81.9649 108.348 80.0788 108.304 79.5499 109.54C79.0209 110.776 80.4127 111.99 81.3926 112.983ZM91.2003 71.0855C92.2539 71.0422 95.38 71.0855 98.866 75.7292C100.952 78.5085 100.947 83.0091 100.904 86.933C100.865 89.851 100.904 97.235 100.904 97.235C100.904 97.235 101.363 106.561 98.194 107.385C94.2917 108.4 90.8968 107.702 87.9874 104.931C85.0781 102.161 83.4131 98.2713 82.7497 94.3083C82.0863 90.3453 81.7135 86.3043 82.2338 82.3197C82.5078 79.8745 83.316 77.5195 84.6011 75.4214C85.3331 74.2741 86.2994 73.2946 87.4368 72.5474C88.5741 71.8001 89.8567 71.3019 91.2003 71.0855Z" fill="#FF9900"/>
<g opacity="0.3">
<path opacity="0.3" d="M115.507 107.624C112.906 109.037 111.106 111.14 109.004 113.213C106.901 115.285 104.52 117.293 101.633 118.039C98.745 118.784 95.272 117.895 93.8281 115.298C101.967 116.686 111.414 110.186 114.207 102.412C114.04 103.088 114.031 103.792 114.181 104.472C114.557 105.549 115 106.602 115.507 107.624Z" fill="black"/>
</g>
<g opacity="0.3">
<path opacity="0.3" d="M83.1476 105.477C83.4301 106.53 83.9246 107.513 84.6009 108.368C85.2771 109.222 86.1208 109.929 87.0802 110.446C87.5255 110.632 87.9428 110.878 88.3202 111.179C88.5062 111.333 88.6415 111.539 88.7088 111.771C88.776 112.003 88.7721 112.25 88.6974 112.479C88.56 112.713 88.3457 112.892 88.091 112.985C87.8364 113.079 87.5573 113.081 87.3013 112.991C86.8023 112.79 86.357 112.475 86.0006 112.072C84.5827 110.702 83.1216 109.314 82.7227 107.389C82.9534 107.109 83.1139 106.777 83.1909 106.422C83.2108 106.107 83.1962 105.79 83.1476 105.477Z" fill="black"/>
</g>
<path d="M113.561 103.951C113.531 104.04 113.49 104.124 113.439 104.203C113.348 104.363 113.231 104.61 113.045 104.905C112.535 105.751 111.973 106.565 111.362 107.342C110.465 108.503 109.471 109.586 108.392 110.581C107.078 111.816 105.588 112.849 103.97 113.646C103.116 114.019 102.238 114.333 101.342 114.587C100.508 114.83 99.6596 115.018 98.8014 115.151C97.3498 115.387 95.8744 115.443 94.4092 115.315C93.4236 115.226 92.4492 115.04 91.4998 114.761C91.1616 114.669 90.9101 114.565 90.7367 114.505C90.6457 114.48 90.5583 114.443 90.4766 114.396C90.4766 114.396 90.8495 114.5 91.5258 114.674C92.4762 114.922 93.4471 115.083 94.4265 115.155C95.8749 115.259 97.3305 115.189 98.7624 114.947C99.609 114.809 100.446 114.618 101.268 114.375C102.155 114.122 103.024 113.81 103.87 113.442C105.467 112.647 106.941 111.625 108.245 110.407C109.322 109.427 110.32 108.363 111.228 107.225C111.848 106.461 112.426 105.665 112.962 104.84C113.157 104.554 113.287 104.315 113.396 104.164C113.445 104.089 113.5 104.018 113.561 103.951Z" fill="#263238"/>
<path d="M93.6034 111.994C93.4381 112.062 93.2646 112.107 93.0874 112.129C92.6095 112.215 92.1249 112.259 91.6392 112.259C90.0177 112.264 88.4255 111.827 87.0347 110.993C85.6439 110.159 84.5074 108.961 83.748 107.528C83.518 107.099 83.3279 106.649 83.18 106.184C83.117 106.017 83.0762 105.842 83.0586 105.664C83.3045 106.274 83.5824 106.87 83.8911 107.45C84.6661 108.832 85.788 109.987 87.1461 110.802C88.5041 111.617 90.0513 112.064 91.6349 112.098C92.8533 112.133 93.599 111.947 93.6034 111.994Z" fill="#263238"/>
<path d="M91.918 122.738C91.9983 122.705 92.083 122.683 92.1695 122.673C92.3342 122.634 92.603 122.6 92.8979 122.522C93.7889 122.33 94.6678 122.085 95.5297 121.789C98.3678 120.782 101.038 119.354 103.451 117.553C105.86 115.745 108.142 113.773 110.28 111.652L112.249 109.744C112.466 109.531 112.648 109.362 112.786 109.228C112.847 109.165 112.914 109.108 112.986 109.059C112.938 109.131 112.882 109.197 112.821 109.258L112.309 109.805C111.876 110.273 111.212 110.945 110.393 111.764C108.28 113.927 106.004 115.924 103.586 117.739C101.156 119.553 98.4546 120.971 95.5818 121.941C94.7096 122.225 93.8186 122.448 92.9152 122.608C92.5987 122.673 92.3429 122.695 92.1738 122.717C92.0897 122.735 92.0038 122.742 91.918 122.738Z" fill="#263238"/>
<path d="M244.566 131.686L229.269 113.649L229.235 113.684C228.632 113.09 228.103 112.561 227.834 112.253C222.536 106.114 218.326 104.015 210.213 103.902L194.448 104.241C191.517 104.483 184.866 103.23 178.713 111.386C167.505 125.43 158.517 137.375 159.024 143.012C159.662 150.144 186.865 170.479 186.865 170.479L224.257 170.449L224.179 167.6L240.313 157.129C246.131 153.197 249.171 149.758 249.908 144.555C250.554 139.925 247.684 135.155 244.566 131.686ZM176.06 142.422C176.06 141.325 181.957 134.409 185.165 130.715L186.834 146.684L186.548 152.923L176.06 142.422ZM223.498 152.251L222.61 131.205L234.802 143.818L223.498 152.251Z" fill="#6B006D"/>
<path d="M200.13 140.499L172.49 154.16C171.755 154.523 171.454 155.413 171.817 156.147L180.752 174.225C181.115 174.959 182.004 175.26 182.739 174.898L210.379 161.237C211.113 160.874 211.414 159.985 211.051 159.25L202.117 141.172C201.754 140.438 200.864 140.137 200.13 140.499Z" fill="#E0E0E0"/>
<path d="M191.319 156.002C191.608 155.825 191.943 155.738 192.282 155.752C192.62 155.765 192.947 155.879 193.221 156.079C193.495 156.278 193.703 156.554 193.82 156.872C193.937 157.19 193.957 157.535 193.878 157.865C193.798 158.194 193.623 158.492 193.374 158.722C193.125 158.952 192.813 159.102 192.479 159.155C192.144 159.208 191.801 159.16 191.494 159.018C191.186 158.875 190.928 158.645 190.751 158.356C190.514 157.969 190.441 157.503 190.548 157.061C190.654 156.62 190.932 156.239 191.319 156.002Z" fill="white"/>
<path d="M222.375 116.229C222.38 116.275 222.38 116.322 222.375 116.368C222.375 116.472 222.375 116.602 222.375 116.771C222.375 117.139 222.375 117.66 222.375 118.319C222.375 119.68 222.401 121.623 222.418 124.02C222.444 128.833 222.63 135.476 223.003 142.812C223.376 150.148 223.758 156.786 223.961 161.595C224.066 163.997 224.135 165.931 224.174 167.292C224.174 167.951 224.2 168.471 224.209 168.84C224.209 169.009 224.209 169.139 224.209 169.243C224.213 169.289 224.213 169.336 224.209 169.382C224.204 169.336 224.204 169.289 224.209 169.243C224.209 169.139 224.209 169.009 224.183 168.84C224.183 168.471 224.135 167.973 224.105 167.292C224.035 165.935 223.935 163.993 223.818 161.603C223.554 156.782 223.194 150.148 222.795 142.821C222.396 135.493 222.258 128.833 222.275 124.02C222.275 121.627 222.275 119.685 222.305 118.319C222.305 117.66 222.305 117.139 222.327 116.771C222.327 116.602 222.327 116.472 222.327 116.368C222.339 116.32 222.355 116.274 222.375 116.229Z" fill="#263238"/>
<path d="M183.443 106.799C185.437 105.346 187.757 105.784 189.756 107.232C191.755 108.68 192.865 111.135 193.064 113.593C193.264 116.051 192.63 118.514 191.698 120.795C190.194 124.45 187.969 127.407 184.644 131.17L176.076 142.422L192.617 158.569L185.762 169.382L171.914 158.235C167.183 154.241 163.16 150.157 160.207 145.934" fill="#6B006D"/>
<path d="M160.203 145.947L160.303 146.077L160.593 146.467C160.849 146.81 161.231 147.334 161.747 147.967C163.231 149.821 164.824 151.586 166.516 153.253C167.6 154.332 168.836 155.49 170.215 156.721C171.593 157.953 173.146 159.171 174.793 160.493L185.806 169.33L185.655 169.356C187.783 165.996 190.094 162.345 192.501 158.538V158.677L183.968 150.352L175.964 142.547L175.895 142.482L175.951 142.404C178.986 138.437 181.856 134.665 184.527 131.157C186.159 129.361 187.673 127.461 189.058 125.468C190.295 123.653 191.296 121.688 192.037 119.619C192.74 117.784 193.07 115.826 193.008 113.861C192.936 112.208 192.432 110.603 191.547 109.205C190.819 108.08 189.804 107.17 188.607 106.569C187.73 106.101 186.742 105.883 185.75 105.936C185.135 105.984 184.536 106.161 183.994 106.456C183.621 106.655 183.448 106.79 183.443 106.781L183.573 106.681C183.701 106.586 183.836 106.501 183.977 106.425C184.52 106.117 185.123 105.928 185.746 105.87C186.752 105.804 187.757 106.018 188.651 106.486C189.87 107.083 190.905 107.999 191.647 109.135C192.555 110.551 193.076 112.181 193.156 113.861C193.228 115.821 192.916 117.776 192.236 119.615C191.498 121.701 190.495 123.684 189.253 125.516C187.868 127.517 186.354 129.426 184.722 131.231C182.051 134.739 179.177 138.515 176.159 142.504V142.357L184.167 150.161L192.696 158.49L192.761 158.555L192.713 158.629C190.303 162.436 187.987 166.082 185.854 169.438L185.793 169.538L185.702 169.464L174.711 160.598C173.068 159.271 171.507 158.039 170.141 156.808C168.775 155.577 167.539 154.419 166.451 153.339C164.761 151.659 163.176 149.876 161.703 148.002C161.196 147.351 160.836 146.831 160.576 146.48C160.455 146.311 160.364 146.176 160.299 146.081C160.233 145.986 160.203 145.947 160.203 145.947Z" fill="#263238"/>
<path d="M240.747 143.519C240.452 143.45 240.162 143.36 239.88 143.25C238.493 142.81 236.994 142.888 235.661 143.471C235.39 143.609 235.111 143.73 234.824 143.831C235.047 143.617 235.307 143.445 235.592 143.324C236.259 142.986 236.989 142.791 237.736 142.752C238.482 142.713 239.229 142.831 239.927 143.098C240.223 143.189 240.501 143.332 240.747 143.519Z" fill="#263238"/>
<path d="M196.003 168.875L192.994 170.371C192.264 170.734 191.444 170.879 190.634 170.788C189.823 170.697 189.056 170.375 188.424 169.859L186.547 168.328L191.75 160.147C192.361 160.411 194.876 160.767 195.743 161.075C196.494 161.338 197.285 161.47 198.08 161.465C198.968 161.484 199.856 161.411 200.729 161.248C200.786 161.226 200.864 161.209 200.916 161.187C201.034 161.138 201.161 161.116 201.289 161.122C202.03 161.053 202.62 161.833 202.204 162.423C201.787 163.013 199.758 163.854 197.165 163.78H197.044C194.768 163.78 196.858 165.684 198.206 166.815C198.445 167.008 198.63 167.258 198.744 167.543C198.858 167.828 198.897 168.137 198.856 168.441C198.85 168.551 198.819 168.658 198.766 168.754C198.714 168.851 198.641 168.935 198.553 169.001C197.963 169.382 196.003 168.875 196.003 168.875Z" fill="#A36853"/>
<path d="M202.967 111.434C198.978 111.434 195.392 108.034 195.427 102.97L194.707 74.1325H194.789C194.778 73.5271 194.994 72.9395 195.396 72.4864C195.797 72.0333 196.355 71.7479 196.957 71.6871L208.846 70.4297C209.817 70.3272 210.799 70.4222 211.732 70.7092C212.666 70.9961 213.531 71.469 214.277 72.0993C215.023 72.7297 215.634 73.5044 216.072 74.3769C216.51 75.2494 216.768 76.2017 216.829 77.1762C217.115 81.7419 217.288 87.3308 216.746 90.7388C215.645 97.6024 210.394 98.4782 210.394 98.4782L210.52 103.248C210.724 108.347 206.904 111.416 202.967 111.416V111.434Z" fill="#A36853"/>
<path d="M214.158 80.9091C214.158 81.1354 214.07 81.3527 213.912 81.5147C213.754 81.6767 213.539 81.7706 213.312 81.7763C213.2 81.7857 213.088 81.7725 212.981 81.7374C212.874 81.7023 212.775 81.646 212.691 81.572C212.606 81.4979 212.537 81.4076 212.489 81.3064C212.44 81.2051 212.412 81.0951 212.406 80.9828C212.406 80.7528 212.498 80.5322 212.66 80.3696C212.823 80.207 213.043 80.1156 213.273 80.1156C213.494 80.1104 213.709 80.1896 213.873 80.3371C214.037 80.4845 214.139 80.6891 214.158 80.9091Z" fill="#263238"/>
<path d="M215.6 80.094C215.491 80.211 214.828 79.7168 213.865 79.7211C212.903 79.7254 212.231 80.1937 212.131 80.081C212.031 79.9682 212.192 79.8208 212.495 79.5997C212.904 79.3163 213.39 79.1649 213.887 79.1661C214.378 79.1628 214.858 79.3146 215.257 79.5997C215.561 79.8382 215.66 80.0419 215.6 80.094Z" fill="#263238"/>
<path d="M205.031 81.0828C205.034 81.1985 205.014 81.3136 204.972 81.4213C204.929 81.529 204.866 81.6272 204.785 81.7101C204.704 81.7929 204.608 81.8587 204.501 81.9036C204.395 81.9486 204.28 81.9717 204.164 81.9717C203.94 81.9826 203.72 81.9059 203.551 81.7579C203.382 81.6099 203.277 81.4021 203.258 81.1782C203.255 81.0625 203.276 80.9474 203.318 80.8397C203.36 80.732 203.423 80.6338 203.504 80.5509C203.585 80.4681 203.682 80.4023 203.788 80.3574C203.895 80.3124 204.01 80.2893 204.125 80.2894C204.35 80.2785 204.57 80.3551 204.739 80.5031C204.908 80.6511 205.013 80.8589 205.031 81.0828Z" fill="#263238"/>
<path d="M206.305 80.2717C206.197 80.3888 205.529 79.8945 204.571 79.8945C203.613 79.8945 202.932 80.3715 202.836 80.2544C202.784 80.2067 202.897 79.9986 203.201 79.7775C203.608 79.492 204.095 79.3404 204.592 79.3439C205.083 79.3406 205.563 79.4923 205.963 79.7775C206.262 80.0116 206.361 80.2197 206.305 80.2717Z" fill="#263238"/>
<path d="M209.741 87.287C210.238 87.1286 210.754 87.0354 211.275 87.0095C211.518 86.9835 211.748 86.9358 211.787 86.7711C211.807 86.5218 211.751 86.2723 211.627 86.0557C211.397 85.4703 211.163 84.859 210.911 84.2173C209.918 81.6158 209.203 79.4478 209.307 79.4045C209.411 79.3611 210.304 81.4553 211.293 84.0742C211.536 84.7202 211.761 85.3359 211.978 85.9256C212.131 86.2171 212.176 86.5537 212.104 86.8751C212.068 86.9593 212.014 87.0344 211.946 87.0952C211.878 87.1559 211.797 87.2007 211.709 87.2263C211.575 87.262 211.436 87.2809 211.297 87.2827C210.78 87.3484 210.258 87.3498 209.741 87.287Z" fill="#263238"/>
<path d="M210.394 98.4778C207.167 98.5255 203.989 97.6775 201.215 96.028C201.215 96.028 203.591 101.183 210.446 100.542L210.394 98.4778Z" fill="#8F5039"/>
<path d="M206.733 78.6156C206.642 78.8758 205.696 78.75 204.586 78.8844C203.476 79.0189 202.579 79.318 202.418 79.0926C202.349 78.9798 202.505 78.737 202.852 78.4899C203.335 78.1841 203.881 77.9927 204.449 77.9304C205.017 77.868 205.592 77.9363 206.13 78.13C206.568 78.3078 206.776 78.4942 206.733 78.6156Z" fill="#263238"/>
<path d="M215.255 77.3582C215.091 77.575 214.436 77.3582 213.655 77.3582C212.875 77.3582 212.207 77.5013 212.055 77.2759C211.986 77.1675 212.094 76.955 212.381 76.7512C212.767 76.5012 213.222 76.3784 213.681 76.4C214.142 76.4056 214.588 76.5575 214.956 76.8336C215.238 77.0331 215.329 77.2542 215.255 77.3582Z" fill="#263238"/>
<path d="M194.788 80.6837C195.954 80.4755 196.886 80.8354 197.216 81.9844C197.706 83.6971 197.372 84.5426 197.454 85.7219L199.188 85.2016C198.755 81.2517 199.739 78.3293 199.31 74.362C201.721 75.1424 205.033 73.6509 206.061 71.1535C207.084 71.9053 208.299 72.3516 209.565 72.4406C210.831 72.5296 212.097 72.2577 213.215 71.6564C213.496 72.1685 213.933 72.578 214.462 72.8258C214.991 73.0736 215.585 73.1469 216.159 73.0352C217.46 72.6667 218.838 70.8153 219.216 69.5015C219.892 67.1385 219.563 63.7479 217.646 62.2086C215.73 60.6694 211.888 61.0379 210.397 62.9934C209.807 63.7652 209.738 65.1917 208.788 65.3868C207.942 65.5602 207.175 64.9532 206.403 64.5543C203.997 63.362 200.671 64.9445 200.077 67.5634C198.065 66.3624 195.629 65.5776 193.378 66.2236C191.128 66.8697 189.333 69.3671 190.1 71.5784C190.417 72.5063 191.132 73.3127 191.21 74.2796C191.362 76.1657 189.099 77.874 189.823 79.6214C190.226 80.6013 191.41 81.0349 191.943 81.9497C192.542 82.973 192.169 84.2651 192.221 85.4488C192.299 87.4259 193.313 90.3526 195.208 90.9162" fill="#263238"/>
<path d="M194.964 80.6619C194.673 80.7032 194.399 80.822 194.17 81.0059C193.941 81.1898 193.766 81.4319 193.663 81.7068C193.411 82.2322 193.29 82.8111 193.312 83.3935C193.273 84.3038 193.566 85.1972 194.136 85.9083C194.428 86.2538 194.82 86.4994 195.259 86.6106C195.698 86.7218 196.16 86.693 196.581 86.5283" fill="#A36853"/>
<path d="M196.148 85.0412C196.148 85.0629 195.892 85.1583 195.489 85.0152C195.256 84.9258 195.051 84.7761 194.895 84.5816C194.707 84.3295 194.597 84.0281 194.578 83.7144C194.557 83.4145 194.618 83.1145 194.756 82.8472C194.872 82.628 195.039 82.4393 195.242 82.2966C195.597 82.0625 195.875 82.0755 195.871 82.1015C195.686 82.1957 195.509 82.3044 195.342 82.4267C195.153 82.5837 195.006 82.7841 194.912 83.0107C194.819 83.2373 194.781 83.4833 194.804 83.7274C194.816 83.9682 194.892 84.2015 195.024 84.4033C195.155 84.6052 195.338 84.7685 195.554 84.8764C195.747 84.9465 195.946 85.0016 196.148 85.0412Z" fill="#8F5039"/>
<path d="M206.732 90.6343C207.599 91.2283 209.238 90.9161 209.853 90.036C208.53 89.3146 207.311 88.4176 206.229 87.3694C206.229 87.3694 204.997 89.4159 206.732 90.6343Z" fill="#FAFAFA"/>
<path d="M209.527 92.6375C209.175 92.4971 208.803 92.4095 208.426 92.3773C208.049 92.4088 207.678 92.492 207.324 92.6245C207.324 92.6245 207.389 92.4901 207.584 92.373C207.841 92.2254 208.132 92.1477 208.428 92.1477C208.724 92.1477 209.014 92.2254 209.271 92.373C209.466 92.4987 209.553 92.6158 209.527 92.6375Z" fill="#AA6550"/>
<path d="M198.597 120.414C200.427 117.714 202.091 114.905 203.579 112.002C205.37 108.586 205.066 108.412 204.637 108.261C203.484 107.849 201.259 114.144 200.965 112.497C200.67 110.849 204.563 105.126 203.341 104.762C201.745 104.267 199.538 110.906 199.313 111.452C199.087 111.998 198.294 111.664 198.528 111.183C198.862 110.494 202.183 103.127 200.618 102.628C199.75 102.355 199.438 103.977 199.438 103.977C199.438 103.977 196.837 111.109 196.104 110.849C195.371 110.589 196.754 106.344 197.322 104.948C197.89 103.552 197.466 102.724 196.655 102.967C196.1 103.131 194.257 107.363 193.728 108.755C193.199 110.147 191.812 114.001 190.97 111.508C190.97 111.469 190.94 111.434 190.923 111.395C190.164 108.915 188.755 107.259 188.022 107.06C187.289 106.86 186.756 107.667 187.059 108.36C187.098 108.481 187.164 108.592 187.25 108.686C187.289 108.729 187.328 108.794 187.367 108.842C187.802 109.616 188.157 110.432 188.425 111.278C188.682 112.032 188.81 112.824 188.802 113.62C188.802 114.543 189.236 117.232 189.201 117.895" fill="#FFAD9D"/>
<path d="M188.769 116.911L178.281 137.723C178.281 137.723 172.349 120.566 169.149 113.741C167.931 111.14 165.486 109.336 163.14 108.139V108.092L162.65 107.896C160.967 107.092 159.198 106.48 157.378 106.071C146.313 102.902 135.889 104.007 123.823 108.239C123.823 108.239 117.557 109.921 114.518 118.094C111.786 125.465 108.721 136.738 108.196 138.733C104.437 151.385 109.805 158.431 117.275 157.564C120.354 157.078 122.973 154.528 124.13 153.54L128.08 149.828L128.167 152.703L123.731 170.458L169.145 170.363L160.95 149.338L162.771 139.7L165.889 147.106C166.868 149.434 168.506 151.426 170.601 152.838C172.696 154.249 175.157 155.018 177.683 155.051C180.209 155.084 182.69 154.378 184.821 153.022C186.952 151.665 188.64 149.716 189.68 147.413L200.298 120.679L188.769 116.911Z" fill="#FF9900"/>
<path d="M134.082 142.856C133.962 143.062 133.826 143.258 133.675 143.442C133.401 143.806 132.989 144.33 132.465 144.959C131.42 146.221 129.915 147.916 128.168 149.707C126.421 151.498 124.756 153.037 123.507 154.099C122.887 154.637 122.371 155.053 122.007 155.33C121.828 155.493 121.633 155.639 121.426 155.764C121.587 155.59 121.763 155.429 121.95 155.283C122.297 154.984 122.796 154.546 123.403 153.982C124.617 152.885 126.26 151.333 128.003 149.546C129.746 147.76 131.272 146.078 132.339 144.855C132.881 144.239 133.306 143.732 133.601 143.385C133.746 143.195 133.907 143.018 134.082 142.856Z" fill="#263238"/>
<path d="M161.098 148.662C161.095 148.581 161.102 148.499 161.12 148.419C161.155 148.237 161.19 148.012 161.237 147.734L161.71 145.211C162.109 143.082 162.655 140.142 163.089 136.869C163.198 136.051 163.297 135.254 163.383 134.48C163.49 133.743 163.532 132.999 163.509 132.255C163.429 130.994 163.242 129.743 162.95 128.513C162.716 127.455 162.516 126.606 162.382 126.012C162.321 125.712 162.286 125.478 162.269 125.322C162.259 125.24 162.259 125.157 162.269 125.075C162.297 125.152 162.314 125.232 162.321 125.314C162.352 125.47 162.404 125.699 162.477 125.994C162.62 126.58 162.859 127.421 163.115 128.479C163.432 129.714 163.637 130.975 163.726 132.247C163.752 133 163.714 133.754 163.613 134.501C163.531 135.277 163.431 136.079 163.323 136.899C162.889 140.181 162.313 143.121 161.875 145.241C161.649 146.277 161.467 147.127 161.333 147.752C161.268 148.025 161.216 148.25 161.177 148.432C161.158 148.511 161.132 148.588 161.098 148.662Z" fill="#263238"/>
<path d="M177.355 142.813C177.521 141.104 177.836 139.412 178.296 137.757C178.249 138.622 178.125 139.481 177.928 140.324C177.808 141.169 177.616 142.001 177.355 142.813Z" fill="#263238"/>
<path d="M178.956 143.429C178.739 142.465 178.594 141.487 178.523 140.502C178.371 139.525 178.294 138.538 178.293 137.549C178.511 138.512 178.656 139.491 178.727 140.476C178.878 141.453 178.955 142.44 178.956 143.429Z" fill="#263238"/>
<path d="M145.456 170.363C145.396 170.363 145.344 163.391 145.344 154.797C145.344 146.203 145.396 139.227 145.456 139.227C145.517 139.227 145.569 146.195 145.569 154.797C145.569 163.399 145.517 170.363 145.456 170.363Z" fill="#263238"/>
<g opacity="0.2">
<path opacity="0.2" d="M162.496 126.333C164.625 130.413 166.476 134.471 166.645 139.071C166.776 142.648 165.345 145.632 166.823 148.892C166.75 148.948 165.488 146.139 164.928 144.821C163.779 142.106 162.761 139.683 162.761 139.683C162.761 139.683 163.55 133.556 163.628 132.511C163.706 131.466 162.496 126.333 162.496 126.333Z" fill="black"/>
</g>
<g opacity="0.2">
<path opacity="0.2" d="M109.805 147.062C109.805 149.109 108.534 142.353 109.722 140.693C110.559 139.526 111.99 138.958 113.377 138.616C114.765 138.273 116.217 138.044 117.449 137.315C119.04 136.374 120.05 134.714 121.165 133.257C122.279 131.8 123.766 125.561 125.605 125.426V134.532C121.202 137.382 116.623 139.949 111.895 142.219C111.221 142.831 110.687 143.58 110.326 144.415C109.966 145.25 109.788 146.153 109.805 147.062Z" fill="black"/>
</g>
<g opacity="0.2">
<path opacity="0.2" d="M128.066 149.833C131.036 148.163 133.204 145.93 136.56 145.354C139.791 144.781 143.116 145.354 146.385 145.128C146.209 143.478 146.028 141.824 145.843 140.168L136.491 140.064L128.066 149.833Z" fill="black"/>
</g>
<path d="M125.604 125.322C125.665 125.322 125.717 127.347 125.717 129.845C125.717 132.342 125.665 134.371 125.604 134.371C125.49 132.865 125.452 131.354 125.492 129.845C125.452 128.336 125.49 126.827 125.604 125.322Z" fill="#263238"/>
<path d="M109.797 147.014C109.726 146.752 109.709 146.478 109.745 146.208C109.788 145.555 109.944 144.914 110.204 144.313C110.461 143.712 110.821 143.161 111.266 142.683C111.437 142.473 111.646 142.296 111.882 142.163C111.298 142.844 110.804 143.597 110.412 144.404C110.089 145.242 109.882 146.12 109.797 147.014Z" fill="#263238"/>
<path d="M111.664 142.301C111.898 142.239 112.126 142.157 112.345 142.054C112.778 141.881 113.403 141.621 114.161 141.261C115.679 140.567 117.747 139.526 119.941 138.226C122.135 136.925 124.047 135.646 125.387 134.666C126.059 134.172 126.597 133.764 126.957 133.474C127.152 133.332 127.334 133.174 127.503 133.001C127.29 133.117 127.087 133.25 126.896 133.4L125.287 134.527C123.921 135.472 122.005 136.734 119.815 138.022C117.626 139.31 115.579 140.359 114.083 141.092L112.306 141.959C112.082 142.054 111.867 142.168 111.664 142.301Z" fill="#263238"/>
<path d="M168.636 86.4816C167.89 85.5061 166.706 84.7473 166.468 83.555C166.169 81.955 167.769 80.4548 167.478 78.8506C167.287 77.7536 166.277 76.9818 165.245 76.5569C164.213 76.132 163.077 75.9282 162.132 75.3602C160.997 74.6324 160.126 73.5593 159.647 72.2991C159.506 71.9547 159.383 71.603 159.279 71.2455C159.182 70.4793 159.006 69.7252 158.754 68.9952C158.715 68.8044 158.681 68.6136 158.646 68.4229L158.694 68.8564C158.55 68.4956 158.36 68.1546 158.13 67.8418C157.336 66.7839 155.75 66.1942 154.661 66.9357L155.182 66.5888C154.524 64.9976 153.467 63.603 152.112 62.5396C150.758 61.4763 149.153 60.7802 147.451 60.5186C146.802 60.4276 146.145 60.4058 145.491 60.4536C143.154 60.3322 139.776 61.0129 138.35 61.9191C136.529 63.0724 134.664 64.655 133.749 66.6105C133.26 67.6641 132.926 68.8825 132.015 69.5849C130.775 70.5214 129.036 70.1572 127.489 70.3306C124.939 70.6211 122.719 72.5766 121.852 74.9917C121.448 76.2141 121.303 77.5071 121.425 78.7887C121.548 80.0702 121.935 81.3124 122.563 82.4363C122.832 82.9349 123.148 83.5116 122.936 84.0362C122.716 84.4257 122.373 84.7308 121.96 84.9034C120.921 85.4396 120.091 86.308 119.602 87.3705C119.168 88.4501 119.333 89.8159 120.209 90.579C120.576 90.8718 121.015 91.0612 121.48 91.1275C121.945 91.1938 122.419 91.1347 122.854 90.9562C122.595 91.6095 122.458 92.3046 122.45 93.0071C122.432 93.7747 122.62 94.5332 122.994 95.2035C123.368 95.8739 123.916 96.4315 124.579 96.8183C125.936 97.525 127.835 97.1522 128.633 95.8471C128.628 96.8093 128.883 97.755 129.372 98.584C129.861 99.4129 130.565 100.094 131.409 100.555C132.254 101.017 133.207 101.241 134.169 101.205C135.131 101.168 136.064 100.872 136.871 100.348C137.513 99.9141 138.172 99.3418 138.931 99.4805C139.69 99.6192 140.119 100.348 140.639 100.877C142.027 102.32 144.394 102.485 146.219 101.666C148.045 100.846 149.389 99.2073 150.356 97.4557C150.693 97.9601 151.165 98.3592 151.719 98.6072C152.273 98.8553 152.885 98.9422 153.486 98.858C154.086 98.7738 154.651 98.5219 155.115 98.1312C155.58 97.7405 155.924 97.2268 156.109 96.6492C156.785 97.5235 157.713 98.1691 158.768 98.4986C159.823 98.8282 160.953 98.8259 162.007 98.492C163.06 98.158 163.986 97.5086 164.658 96.6315C165.33 95.7544 165.717 94.6921 165.765 93.5881C166.528 93.4753 167.248 93.1656 167.854 92.6895C168.46 92.2134 168.932 91.5873 169.222 90.8732C169.513 90.1591 169.612 89.3816 169.509 88.6175C169.407 87.8534 169.108 87.1292 168.64 86.5163L168.636 86.4816ZM125.03 87.8214C125.03 87.8214 125.03 87.8214 125.03 87.7954L125.073 87.7737L125.03 87.8214Z" fill="#263238"/>
<path d="M152.538 98.6998C152.538 98.6998 158.092 97.7806 159.241 90.5354C159.814 86.9324 159.632 81.0269 159.328 76.2011C159.264 75.171 158.991 74.1646 158.528 73.2425C158.064 72.3203 157.419 71.5014 156.631 70.8351C155.842 70.1688 154.928 69.6688 153.941 69.3653C152.955 69.0617 151.917 68.9608 150.89 69.0687L138.317 70.3998C137.679 70.4672 137.09 70.7723 136.667 71.2545C136.245 71.7366 136.019 72.3603 136.036 73.0013L137.358 104.471C136.443 104.666 134.367 105.117 133.348 105.412C133.348 105.412 143.069 127.139 145.449 126.887C147.829 126.636 157.342 106.075 157.342 106.075C155.685 105.576 154.004 105.163 152.304 104.839C152.277 102.79 152.355 100.741 152.538 98.6998Z" fill="#FFAD9D"/>
<path d="M156.519 80.147C156.522 80.3887 156.43 80.6218 156.263 80.7967C156.096 80.9716 155.868 81.0745 155.626 81.0836C155.507 81.0961 155.387 81.0841 155.273 81.0481C155.16 81.0121 155.054 80.9529 154.964 80.8744C154.874 80.7958 154.802 80.6995 154.751 80.5915C154.7 80.4835 154.672 80.3661 154.668 80.2467C154.666 80.005 154.758 79.772 154.924 79.597C155.091 79.4221 155.32 79.3192 155.561 79.3102C155.679 79.3008 155.798 79.3151 155.911 79.3522C156.023 79.3894 156.127 79.4488 156.217 79.5267C156.306 79.6047 156.379 79.6997 156.431 79.8063C156.483 79.9128 156.513 80.0286 156.519 80.147Z" fill="#263238"/>
<path d="M158.048 79.2886C157.931 79.41 157.229 78.8897 156.227 78.8941C155.225 78.8984 154.493 79.397 154.389 79.2756C154.332 79.2193 154.449 79.0025 154.77 78.7683C155.206 78.4732 155.722 78.3175 156.249 78.3217C156.769 78.321 157.276 78.4849 157.697 78.79C157.983 79.0155 158.104 79.2366 158.048 79.2886Z" fill="#263238"/>
<path d="M146.871 80.3334C146.874 80.5758 146.781 80.8095 146.613 80.9846C146.446 81.1596 146.216 81.262 145.974 81.2699C145.855 81.2825 145.735 81.2705 145.621 81.2345C145.507 81.1985 145.402 81.1393 145.312 81.0608C145.222 80.9822 145.149 80.8859 145.098 80.7779C145.047 80.6699 145.019 80.5525 145.016 80.4331C145.013 80.1907 145.106 79.957 145.274 79.782C145.441 79.6069 145.671 79.5045 145.913 79.4966C146.031 79.4872 146.15 79.5015 146.263 79.5386C146.375 79.5758 146.479 79.6352 146.569 79.7131C146.658 79.7911 146.731 79.8862 146.783 79.9927C146.835 80.0992 146.865 80.2151 146.871 80.3334Z" fill="#263238"/>
<path d="M148.222 79.475C148.109 79.5964 147.403 79.0761 146.405 79.0804C145.408 79.0848 144.671 79.5834 144.563 79.462C144.511 79.4056 144.628 79.1888 144.949 78.9547C145.382 78.6559 145.896 78.497 146.423 78.4994C146.943 78.4993 147.449 78.6632 147.871 78.9677C148.174 79.1888 148.278 79.423 148.222 79.475Z" fill="#263238"/>
<path d="M151.849 86.889C152.377 86.7239 152.923 86.6263 153.475 86.5985C153.727 86.5724 153.969 86.5204 154.013 86.347C154.035 86.0827 153.976 85.818 153.844 85.5882C153.601 84.9725 153.354 84.3221 153.089 83.6457C152.04 80.8795 151.281 78.6032 151.394 78.5598C151.507 78.5164 152.443 80.7277 153.492 83.4983L154.217 85.4538C154.378 85.7615 154.424 86.1167 154.347 86.4554C154.309 86.5472 154.25 86.6288 154.174 86.6936C154.099 86.7583 154.009 86.8045 153.913 86.8283C153.771 86.865 153.626 86.8854 153.479 86.889C152.938 86.9562 152.391 86.9562 151.849 86.889Z" fill="#263238"/>
<path d="M152.539 98.7002C149.127 98.7481 145.77 97.8475 142.84 96.0987C142.84 96.0987 145.194 101.072 152.444 100.395L152.539 98.7002Z" fill="#ED9482"/>
<path d="M149.036 88.4546C149.256 88.3 149.505 88.1923 149.769 88.1381C149.902 88.1137 150.039 88.1316 150.161 88.1891C150.283 88.2467 150.384 88.341 150.449 88.4589C150.477 88.5455 150.512 88.6296 150.554 88.7104C150.701 88.9098 151.009 88.8361 151.243 88.9055C151.331 88.9429 151.412 88.9973 151.479 89.0658C151.546 89.1342 151.599 89.2153 151.635 89.3044C151.671 89.3934 151.689 89.4887 151.688 89.5847C151.687 89.6807 151.667 89.7755 151.629 89.8637C151.542 90.0398 151.42 90.1966 151.271 90.3247C151.122 90.4528 150.949 90.5497 150.762 90.6095C150.271 90.8117 149.737 90.8848 149.209 90.8219C149.025 90.815 148.844 90.7688 148.679 90.6866C148.514 90.6044 148.368 90.4879 148.251 90.345C148.142 90.1535 148.09 89.9342 148.104 89.714C148.117 89.4938 148.194 89.2822 148.325 89.1049C148.594 88.7522 148.932 88.4573 149.318 88.2378" fill="#ED9482"/>
<path d="M148.908 87.5829C149.068 87.5829 149.073 88.6582 150 89.4257C150.928 90.1931 152.082 90.076 152.09 90.2278C152.09 90.2972 151.835 90.4403 151.345 90.4533C150.713 90.4594 150.1 90.2447 149.61 89.8462C149.131 89.4622 148.821 88.9072 148.743 88.2983C148.713 87.8604 148.834 87.5743 148.908 87.5829Z" fill="#263238"/>
<path d="M148.673 77.7274C148.573 77.9962 147.576 77.8704 146.405 78.0092C145.234 78.1479 144.281 78.4731 144.129 78.226C144.059 78.1132 144.224 77.8574 144.606 77.5929C145.117 77.2704 145.695 77.0684 146.296 77.0023C146.897 76.9361 147.505 77.0077 148.074 77.2114C148.499 77.3848 148.716 77.5973 148.673 77.7274Z" fill="#263238"/>
<path d="M157.681 77.021C157.503 77.2508 156.814 77.021 155.986 77.021C155.158 77.021 154.46 77.1727 154.299 76.9342C154.225 76.8215 154.338 76.5917 154.642 76.3793C155.053 76.1216 155.532 75.9918 156.018 76.0065C156.503 76.0212 156.974 76.1796 157.369 76.4616C157.664 76.6871 157.759 76.9212 157.681 77.021Z" fill="#263238"/>
<path d="M155.093 68.0109C154.822 69.2944 154.297 70.5107 153.549 71.5881C152.801 72.6655 151.845 73.5822 150.737 74.2841C149.629 74.986 148.391 75.459 147.097 75.6751C145.804 75.8911 144.48 75.846 143.204 75.5422C142.994 77.1336 142.377 78.644 141.414 79.9276C140.45 81.2112 139.171 82.2245 137.702 82.8698C139.707 86.5044 140.524 90.6753 140.039 94.7977C139.826 96.5321 139.319 98.3835 138.001 99.5672C135.989 101.371 132.598 100.933 130.665 99.0512C128.809 97.2431 128.154 94.4162 128.679 91.8797C129.203 89.3432 130.795 87.1103 132.793 85.48C131.951 85.3358 131.166 84.9596 130.526 84.3936C129.886 83.8277 129.417 83.0944 129.171 82.2763C128.925 81.4581 128.912 80.5876 129.134 79.7626C129.356 78.9375 129.803 78.1907 130.426 77.6061C130.994 77.0685 131.727 76.6696 132.16 76.0148C132.594 75.3601 132.663 74.6317 132.91 73.9336C133.557 72.1083 135.187 70.8465 136.739 69.6845C138.04 68.7046 139.497 67.6814 141.136 67.6857C142.003 67.6857 142.87 67.9892 143.737 67.8721C144.929 67.7117 145.862 66.8055 146.846 66.1378C148.215 65.1187 149.918 64.6542 151.615 64.837C153.293 65.1015 154.859 66.3546 155.175 68.0196" fill="#263238"/>
<path d="M154.445 68.7265C154.189 70.127 154.879 71.5621 155.928 72.542C156.977 73.522 158.274 74.129 159.57 74.71C159.118 73.3324 158.487 72.0204 157.693 70.8077C157.292 70.1986 156.774 69.675 156.17 69.2672C155.566 68.8593 154.887 68.5754 154.172 68.4317" fill="#263238"/>
<path d="M122.586 85.4283C122.536 85.2819 122.523 85.1257 122.547 84.973C122.611 84.5302 122.844 84.1294 123.197 83.8543C123.768 83.4387 124.472 83.2474 125.174 83.3167C125.985 83.3167 126.883 83.5855 127.875 83.5248C128.413 83.4797 128.932 83.308 129.39 83.0239C129.848 82.7398 130.232 82.3513 130.512 81.8902C130.821 81.3747 130.992 80.7875 131.006 80.1862C131.049 79.5662 131.006 78.9158 131.028 78.2394C131.034 77.5302 131.255 76.8396 131.661 76.2579C132.112 75.6771 132.711 75.2279 133.395 74.9572C134.761 74.3372 136.317 74.3285 137.809 74.051C138.549 73.9304 139.262 73.6809 139.916 73.3139C140.529 72.9237 141.06 72.4187 141.481 71.8267C142.327 70.6647 142.895 69.3683 143.671 68.2626C144.604 66.8742 145.976 65.8393 147.567 65.3243C149.159 64.8093 150.877 64.8439 152.447 65.4227C153.098 65.6577 153.712 65.9832 154.272 66.3896C154.758 66.7235 155.189 67.13 155.551 67.5949C155.519 67.5721 155.49 67.546 155.464 67.5169L155.226 67.2784C154.914 66.981 154.579 66.7084 154.224 66.4633C152.909 65.5567 151.342 65.0879 149.745 65.1235C148.573 65.1633 147.427 65.4794 146.4 66.046C145.373 66.6126 144.494 67.4137 143.836 68.3841C143.077 69.468 142.513 70.7644 141.668 71.9611C141.23 72.5773 140.677 73.1017 140.037 73.5047C139.366 73.8872 138.632 74.1471 137.87 74.2721C136.343 74.554 134.834 74.5626 133.499 75.1393C132.851 75.3974 132.283 75.8222 131.851 76.3707C131.467 76.9169 131.258 77.5673 131.253 78.2351C131.214 78.8898 131.253 79.5358 131.223 80.1819C131.201 80.8146 131.017 81.4312 130.689 81.9726C130.393 82.4554 129.986 82.8606 129.502 83.1546C129.018 83.4487 128.471 83.6232 127.906 83.6636C126.87 83.7156 125.976 83.4468 125.183 83.4251C124.507 83.3458 123.825 83.517 123.266 83.9064C122.923 84.1652 122.688 84.5422 122.607 84.9643C122.581 85.1174 122.573 85.2733 122.586 85.4283Z" fill="#FAFAFA"/>
<path d="M133.355 118.897L133.815 130.447L134.977 141.504L147.261 140.979L146.376 119.148L133.355 118.897Z" fill="#263238"/>
<path d="M131.555 118.857L132.014 130.447L133.176 141.504L145.46 140.979L144.575 119.113L131.555 118.857Z" fill="#6B006D"/>
<path d="M130.402 142.856C133.662 142.708 136.909 142.36 140.127 141.816C143.934 141.204 143.895 140.862 143.76 140.424C143.396 139.253 137.023 141.239 138.167 140.016C139.312 138.794 146.219 138.499 145.785 137.293C145.226 135.719 138.588 137.922 138.015 138.065C137.443 138.208 137.235 137.38 137.76 137.276C138.514 137.129 146.401 135.386 145.863 133.833C145.569 132.966 144.081 133.695 144.081 133.695C144.081 133.695 136.806 135.863 136.576 135.138C136.346 134.414 140.578 132.971 142.035 132.58C143.492 132.19 143.904 131.362 143.223 130.846C142.759 130.503 138.267 131.557 136.836 131.969C135.405 132.381 131.486 133.569 132.977 131.401C133.003 131.366 133.021 131.332 133.042 131.297C134.573 129.207 135.054 127.087 134.777 126.376C134.499 125.665 133.532 125.73 133.164 126.376C133.091 126.48 133.041 126.598 133.016 126.723C133.016 126.779 132.977 126.853 132.96 126.913C132.606 127.723 132.17 128.494 131.659 129.216C131.21 129.874 130.652 130.451 130.007 130.92C129.266 131.462 127.406 133.447 126.82 133.799" fill="#FFAD9D"/>
<path d="M127.585 133.161L134.08 142.856L123.375 153.774L123.739 136.066L127.585 133.161Z" fill="#FF9900"/>
</svg>
